<svg width="513" height="115" viewBox="0 0 513 115" fill="none" xmlns="http://www.w3.org/2000/svg">
<g filter="url(#filter0_d_134_8092)">
<rect x="8" y="4" width="489" height="91" rx="30" fill="#EBEFFF"/>
<path d="M103.496 44.128L102.792 47.088L102.664 46.4C102.92 46.4 103.128 46.48 103.288 46.64C103.448 46.7893 103.528 46.992 103.528 47.248C103.528 47.504 103.448 47.712 103.288 47.872C103.128 48.032 102.931 48.112 102.696 48.112C102.44 48.112 102.232 48.032 102.072 47.872C101.923 47.7013 101.848 47.4933 101.848 47.248C101.848 47.152 101.853 47.0667 101.864 46.992C101.875 46.9173 101.896 46.8267 101.928 46.72C101.96 46.6133 102.003 46.4853 102.056 46.336L102.728 44.128H103.496ZM106.216 44.128L105.512 47.088L105.384 46.4C105.64 46.4 105.848 46.48 106.008 46.64C106.168 46.7893 106.248 46.992 106.248 47.248C106.248 47.504 106.168 47.712 106.008 47.872C105.848 48.032 105.651 48.112 105.416 48.112C105.16 48.112 104.952 48.032 104.792 47.872C104.643 47.7013 104.568 47.4933 104.568 47.248C104.568 47.152 104.573 47.0667 104.584 46.992C104.595 46.9173 104.616 46.8267 104.648 46.72C104.68 46.6133 104.723 46.4853 104.776 46.336L105.448 44.128H106.216ZM108.933 56V44.8H110.117V56H108.933ZM113.714 56V46.544C113.714 45.7973 113.932 45.1947 114.37 44.736C114.807 44.2773 115.436 44.048 116.258 44.048C116.578 44.048 116.887 44.0907 117.186 44.176C117.484 44.2613 117.735 44.3947 117.938 44.576L117.554 45.424C117.394 45.2853 117.207 45.184 116.994 45.12C116.78 45.0453 116.551 45.008 116.306 45.008C115.826 45.008 115.458 45.1413 115.202 45.408C114.946 45.6747 114.818 46.0693 114.818 46.592V47.872L114.85 48.4V56H113.714ZM112.21 48.544V47.6H117.41V48.544H112.21ZM123.371 56V44.8H124.555V56H123.371ZM136.435 47.52C137.117 47.52 137.715 47.6533 138.227 47.92C138.749 48.176 139.155 48.5707 139.443 49.104C139.741 49.6373 139.891 50.3093 139.891 51.12V56H138.755V51.232C138.755 50.3467 138.531 49.68 138.083 49.232C137.645 48.7733 137.027 48.544 136.227 48.544C135.629 48.544 135.107 48.6667 134.659 48.912C134.221 49.1467 133.88 49.4933 133.635 49.952C133.4 50.4 133.283 50.944 133.283 51.584V56H132.147V47.6H133.235V49.904L133.059 49.472C133.325 48.864 133.752 48.3893 134.339 48.048C134.925 47.696 135.624 47.52 136.435 47.52ZM146.527 56.08C145.652 56.08 144.884 55.8987 144.223 55.536C143.562 55.1627 143.044 54.656 142.671 54.016C142.298 53.3653 142.111 52.624 142.111 51.792C142.111 50.96 142.287 50.224 142.639 49.584C143.002 48.944 143.492 48.4427 144.111 48.08C144.74 47.7067 145.444 47.52 146.223 47.52C147.012 47.52 147.711 47.7013 148.319 48.064C148.938 48.416 149.423 48.9173 149.775 49.568C150.127 50.208 150.303 50.9493 150.303 51.792C150.303 51.8453 150.298 51.904 150.287 51.968C150.287 52.0213 150.287 52.08 150.287 52.144H142.975V51.296H149.679L149.231 51.632C149.231 51.024 149.098 50.4853 148.831 50.016C148.575 49.536 148.223 49.1627 147.775 48.896C147.327 48.6293 146.81 48.496 146.223 48.496C145.647 48.496 145.13 48.6293 144.671 48.896C144.212 49.1627 143.855 49.536 143.599 50.016C143.343 50.496 143.215 51.0453 143.215 51.664V51.84C143.215 52.48 143.354 53.0453 143.631 53.536C143.919 54.016 144.314 54.3947 144.815 54.672C145.327 54.9387 145.908 55.072 146.559 55.072C147.071 55.072 147.546 54.9813 147.983 54.8C148.431 54.6187 148.815 54.3413 149.135 53.968L149.775 54.704C149.402 55.152 148.932 55.4933 148.367 55.728C147.812 55.9627 147.199 56.08 146.527 56.08ZM156.183 56.08C155.309 56.08 154.541 55.8987 153.879 55.536C153.218 55.1627 152.701 54.656 152.327 54.016C151.954 53.3653 151.767 52.624 151.767 51.792C151.767 50.96 151.943 50.224 152.295 49.584C152.658 48.944 153.149 48.4427 153.767 48.08C154.397 47.7067 155.101 47.52 155.879 47.52C156.669 47.52 157.367 47.7013 157.975 48.064C158.594 48.416 159.079 48.9173 159.431 49.568C159.783 50.208 159.959 50.9493 159.959 51.792C159.959 51.8453 159.954 51.904 159.943 51.968C159.943 52.0213 159.943 52.08 159.943 52.144H152.631V51.296H159.335L158.887 51.632C158.887 51.024 158.754 50.4853 158.487 50.016C158.231 49.536 157.879 49.1627 157.431 48.896C156.983 48.6293 156.466 48.496 155.879 48.496C155.303 48.496 154.786 48.6293 154.327 48.896C153.869 49.1627 153.511 49.536 153.255 50.016C152.999 50.496 152.871 51.0453 152.871 51.664V51.84C152.871 52.48 153.01 53.0453 153.287 53.536C153.575 54.016 153.97 54.3947 154.471 54.672C154.983 54.9387 155.565 55.072 156.215 55.072C156.727 55.072 157.202 54.9813 157.639 54.8C158.087 54.6187 158.471 54.3413 158.791 53.968L159.431 54.704C159.058 55.152 158.589 55.4933 158.023 55.728C157.469 55.9627 156.855 56.08 156.183 56.08ZM165.616 56.08C164.816 56.08 164.096 55.8987 163.456 55.536C162.826 55.1733 162.33 54.672 161.968 54.032C161.605 53.3813 161.424 52.6347 161.424 51.792C161.424 50.9387 161.605 50.192 161.968 49.552C162.33 48.912 162.826 48.416 163.456 48.064C164.096 47.7013 164.816 47.52 165.616 47.52C166.352 47.52 167.008 47.6853 167.584 48.016C168.17 48.3467 168.634 48.832 168.976 49.472C169.328 50.1013 169.503 50.8747 169.503 51.792C169.503 52.6987 169.333 53.472 168.992 54.112C168.65 54.752 168.186 55.2427 167.6 55.584C167.024 55.9147 166.362 56.08 165.616 56.08ZM165.696 55.072C166.293 55.072 166.826 54.9387 167.296 54.672C167.776 54.3947 168.149 54.0107 168.416 53.52C168.693 53.0187 168.832 52.4427 168.832 51.792C168.832 51.1307 168.693 50.5547 168.416 50.064C168.149 49.5733 167.776 49.1947 167.296 48.928C166.826 48.6507 166.293 48.512 165.696 48.512C165.109 48.512 164.581 48.6507 164.112 48.928C163.642 49.1947 163.269 49.5733 162.992 50.064C162.714 50.5547 162.576 51.1307 162.576 51.792C162.576 52.4427 162.714 53.0187 162.992 53.52C163.269 54.0107 163.642 54.3947 164.112 54.672C164.581 54.9387 165.109 55.072 165.696 55.072ZM168.864 56V53.472L168.976 51.776L168.816 50.08V44.128H169.952V56H168.864ZM177.495 56V46.544C177.495 45.7973 177.713 45.1947 178.151 44.736C178.588 44.2773 179.217 44.048 180.039 44.048C180.359 44.048 180.668 44.0907 180.967 44.176C181.265 44.2613 181.516 44.3947 181.719 44.576L181.335 45.424C181.175 45.2853 180.988 45.184 180.775 45.12C180.561 45.0453 180.332 45.008 180.087 45.008C179.607 45.008 179.239 45.1413 178.983 45.408C178.727 45.6747 178.599 46.0693 178.599 46.592V47.872L178.631 48.4V56H177.495ZM175.991 48.544V47.6H181.191V48.544H175.991ZM182.727 56V47.6H183.863V56H182.727ZM183.303 45.744C183.068 45.744 182.871 45.664 182.711 45.504C182.551 45.344 182.471 45.152 182.471 44.928C182.471 44.704 182.551 44.5173 182.711 44.368C182.871 44.208 183.068 44.128 183.303 44.128C183.537 44.128 183.735 44.2027 183.895 44.352C184.055 44.5013 184.135 44.688 184.135 44.912C184.135 45.1467 184.055 45.344 183.895 45.504C183.745 45.664 183.548 45.744 183.303 45.744ZM191.341 47.52C192.023 47.52 192.621 47.6533 193.133 47.92C193.655 48.176 194.061 48.5707 194.349 49.104C194.647 49.6373 194.797 50.3093 194.797 51.12V56H193.661V51.232C193.661 50.3467 193.437 49.68 192.989 49.232C192.551 48.7733 191.933 48.544 191.133 48.544C190.535 48.544 190.013 48.6667 189.565 48.912C189.127 49.1467 188.786 49.4933 188.541 49.952C188.306 50.4 188.189 50.944 188.189 51.584V56H187.053V47.6H188.141V49.904L187.965 49.472C188.231 48.864 188.658 48.3893 189.245 48.048C189.831 47.696 190.53 47.52 191.341 47.52ZM203.129 56V54.144L203.081 53.84V50.736C203.081 50.0213 202.879 49.472 202.473 49.088C202.079 48.704 201.487 48.512 200.697 48.512C200.153 48.512 199.636 48.6027 199.145 48.784C198.655 48.9653 198.239 49.2053 197.897 49.504L197.385 48.656C197.812 48.2933 198.324 48.016 198.921 47.824C199.519 47.6213 200.148 47.52 200.809 47.52C201.897 47.52 202.735 47.792 203.321 48.336C203.919 48.8693 204.217 49.6853 204.217 50.784V56H203.129ZM200.233 56.08C199.604 56.08 199.055 55.9787 198.585 55.776C198.127 55.5627 197.775 55.2747 197.529 54.912C197.284 54.5387 197.161 54.112 197.161 53.632C197.161 53.1947 197.263 52.8 197.465 52.448C197.679 52.0853 198.02 51.7973 198.489 51.584C198.969 51.36 199.609 51.248 200.409 51.248H203.305V52.096H200.441C199.631 52.096 199.065 52.24 198.745 52.528C198.436 52.816 198.281 53.1733 198.281 53.6C198.281 54.08 198.468 54.464 198.841 54.752C199.215 55.04 199.737 55.184 200.409 55.184C201.049 55.184 201.599 55.04 202.057 54.752C202.527 54.4533 202.868 54.0267 203.081 53.472L203.337 54.256C203.124 54.8107 202.751 55.2533 202.217 55.584C201.695 55.9147 201.033 56.08 200.233 56.08ZM211.591 47.52C212.273 47.52 212.871 47.6533 213.383 47.92C213.905 48.176 214.311 48.5707 214.599 49.104C214.897 49.6373 215.047 50.3093 215.047 51.12V56H213.911V51.232C213.911 50.3467 213.687 49.68 213.239 49.232C212.801 48.7733 212.183 48.544 211.383 48.544C210.785 48.544 210.263 48.6667 209.815 48.912C209.377 49.1467 209.036 49.4933 208.791 49.952C208.556 50.4 208.439 50.944 208.439 51.584V56H207.303V47.6H208.391V49.904L208.215 49.472C208.481 48.864 208.908 48.3893 209.495 48.048C210.081 47.696 210.78 47.52 211.591 47.52ZM221.603 56.08C220.771 56.08 220.025 55.8987 219.363 55.536C218.713 55.1627 218.201 54.656 217.827 54.016C217.454 53.3653 217.267 52.624 217.267 51.792C217.267 50.9493 217.454 50.208 217.827 49.568C218.201 48.928 218.713 48.4267 219.363 48.064C220.025 47.7013 220.771 47.52 221.603 47.52C222.318 47.52 222.963 47.6587 223.539 47.936C224.115 48.2133 224.569 48.6293 224.899 49.184L224.051 49.76C223.763 49.3333 223.406 49.0187 222.979 48.816C222.553 48.6133 222.089 48.512 221.587 48.512C220.99 48.512 220.451 48.6507 219.971 48.928C219.491 49.1947 219.113 49.5733 218.835 50.064C218.558 50.5547 218.419 51.1307 218.419 51.792C218.419 52.4533 218.558 53.0293 218.835 53.52C219.113 54.0107 219.491 54.3947 219.971 54.672C220.451 54.9387 220.99 55.072 221.587 55.072C222.089 55.072 222.553 54.9707 222.979 54.768C223.406 54.5653 223.763 54.256 224.051 53.84L224.899 54.416C224.569 54.96 224.115 55.376 223.539 55.664C222.963 55.9413 222.318 56.08 221.603 56.08ZM227.006 56V47.6H228.142V56H227.006ZM227.582 45.744C227.347 45.744 227.15 45.664 226.99 45.504C226.83 45.344 226.75 45.152 226.75 44.928C226.75 44.704 226.83 44.5173 226.99 44.368C227.15 44.208 227.347 44.128 227.582 44.128C227.817 44.128 228.014 44.2027 228.174 44.352C228.334 44.5013 228.414 44.688 228.414 44.912C228.414 45.1467 228.334 45.344 228.174 45.504C228.025 45.664 227.827 45.744 227.582 45.744ZM236.567 56V54.144L236.519 53.84V50.736C236.519 50.0213 236.316 49.472 235.911 49.088C235.516 48.704 234.924 48.512 234.135 48.512C233.591 48.512 233.073 48.6027 232.583 48.784C232.092 48.9653 231.676 49.2053 231.335 49.504L230.823 48.656C231.249 48.2933 231.761 48.016 232.359 47.824C232.956 47.6213 233.585 47.52 234.247 47.52C235.335 47.52 236.172 47.792 236.759 48.336C237.356 48.8693 237.655 49.6853 237.655 50.784V56H236.567ZM233.671 56.08C233.041 56.08 232.492 55.9787 232.023 55.776C231.564 55.5627 231.212 55.2747 230.967 54.912C230.721 54.5387 230.599 54.112 230.599 53.632C230.599 53.1947 230.7 52.8 230.903 52.448C231.116 52.0853 231.457 51.7973 231.927 51.584C232.407 51.36 233.047 51.248 233.847 51.248H236.743V52.096H233.879C233.068 52.096 232.503 52.24 232.183 52.528C231.873 52.816 231.719 53.1733 231.719 53.6C231.719 54.08 231.905 54.464 232.279 54.752C232.652 55.04 233.175 55.184 233.847 55.184C234.487 55.184 235.036 55.04 235.495 54.752C235.964 54.4533 236.305 54.0267 236.519 53.472L236.775 54.256C236.561 54.8107 236.188 55.2533 235.655 55.584C235.132 55.9147 234.471 56.08 233.671 56.08ZM240.74 56V44.128H241.876V56H240.74ZM254.489 56V54.144L254.441 53.84V50.736C254.441 50.0213 254.238 49.472 253.833 49.088C253.438 48.704 252.846 48.512 252.057 48.512C251.513 48.512 250.995 48.6027 250.505 48.784C250.014 48.9653 249.598 49.2053 249.257 49.504L248.745 48.656C249.171 48.2933 249.683 48.016 250.281 47.824C250.878 47.6213 251.507 47.52 252.169 47.52C253.257 47.52 254.094 47.792 254.681 48.336C255.278 48.8693 255.577 49.6853 255.577 50.784V56H254.489ZM251.593 56.08C250.963 56.08 250.414 55.9787 249.945 55.776C249.486 55.5627 249.134 55.2747 248.889 54.912C248.643 54.5387 248.521 54.112 248.521 53.632C248.521 53.1947 248.622 52.8 248.825 52.448C249.038 52.0853 249.379 51.7973 249.849 51.584C250.329 51.36 250.969 51.248 251.769 51.248H254.665V52.096H251.801C250.99 52.096 250.425 52.24 250.105 52.528C249.795 52.816 249.641 53.1733 249.641 53.6C249.641 54.08 249.827 54.464 250.201 54.752C250.574 55.04 251.097 55.184 251.769 55.184C252.409 55.184 252.958 55.04 253.417 54.752C253.886 54.4533 254.227 54.0267 254.441 53.472L254.697 54.256C254.483 54.8107 254.11 55.2533 253.577 55.584C253.054 55.9147 252.393 56.08 251.593 56.08ZM262.006 56.08C261.206 56.08 260.486 55.8987 259.846 55.536C259.217 55.1733 258.721 54.672 258.358 54.032C257.995 53.3813 257.814 52.6347 257.814 51.792C257.814 50.9387 257.995 50.192 258.358 49.552C258.721 48.912 259.217 48.416 259.846 48.064C260.486 47.7013 261.206 47.52 262.006 47.52C262.742 47.52 263.398 47.6853 263.974 48.016C264.561 48.3467 265.025 48.832 265.366 49.472C265.718 50.1013 265.894 50.8747 265.894 51.792C265.894 52.6987 265.723 53.472 265.382 54.112C265.041 54.752 264.577 55.2427 263.99 55.584C263.414 55.9147 262.753 56.08 262.006 56.08ZM262.086 55.072C262.683 55.072 263.217 54.9387 263.686 54.672C264.166 54.3947 264.539 54.0107 264.806 53.52C265.083 53.0187 265.222 52.4427 265.222 51.792C265.222 51.1307 265.083 50.5547 264.806 50.064C264.539 49.5733 264.166 49.1947 263.686 48.928C263.217 48.6507 262.683 48.512 262.086 48.512C261.499 48.512 260.971 48.6507 260.502 48.928C260.033 49.1947 259.659 49.5733 259.382 50.064C259.105 50.5547 258.966 51.1307 258.966 51.792C258.966 52.4427 259.105 53.0187 259.382 53.52C259.659 54.0107 260.033 54.3947 260.502 54.672C260.971 54.9387 261.499 55.072 262.086 55.072ZM265.254 56V53.472L265.366 51.776L265.206 50.08V44.128H266.342V56H265.254ZM271.666 56L267.938 47.6H269.122L272.546 55.392H271.986L275.458 47.6H276.578L272.834 56H271.666ZM278.178 56V47.6H279.314V56H278.178ZM278.754 45.744C278.519 45.744 278.322 45.664 278.162 45.504C278.002 45.344 277.922 45.152 277.922 44.928C277.922 44.704 278.002 44.5173 278.162 44.368C278.322 44.208 278.519 44.128 278.754 44.128C278.988 44.128 279.186 44.2027 279.346 44.352C279.506 44.5013 279.586 44.688 279.586 44.912C279.586 45.1467 279.506 45.344 279.346 45.504C279.196 45.664 278.999 45.744 278.754 45.744ZM285.963 56.08C285.131 56.08 284.384 55.8987 283.723 55.536C283.072 55.1627 282.56 54.656 282.187 54.016C281.813 53.3653 281.627 52.624 281.627 51.792C281.627 50.9493 281.813 50.208 282.187 49.568C282.56 48.928 283.072 48.4267 283.723 48.064C284.384 47.7013 285.131 47.52 285.963 47.52C286.677 47.52 287.323 47.6587 287.899 47.936C288.475 48.2133 288.928 48.6293 289.259 49.184L288.411 49.76C288.123 49.3333 287.765 49.0187 287.339 48.816C286.912 48.6133 286.448 48.512 285.947 48.512C285.349 48.512 284.811 48.6507 284.331 48.928C283.851 49.1947 283.472 49.5733 283.195 50.064C282.917 50.5547 282.779 51.1307 282.779 51.792C282.779 52.4533 282.917 53.0293 283.195 53.52C283.472 54.0107 283.851 54.3947 284.331 54.672C284.811 54.9387 285.349 55.072 285.947 55.072C286.448 55.072 286.912 54.9707 287.339 54.768C287.765 54.5653 288.123 54.256 288.411 53.84L289.259 54.416C288.928 54.96 288.475 55.376 287.899 55.664C287.323 55.9413 286.677 56.08 285.963 56.08ZM294.918 56.08C294.043 56.08 293.275 55.8987 292.614 55.536C291.952 55.1627 291.435 54.656 291.062 54.016C290.688 53.3653 290.502 52.624 290.502 51.792C290.502 50.96 290.678 50.224 291.03 49.584C291.392 48.944 291.883 48.4427 292.502 48.08C293.131 47.7067 293.835 47.52 294.614 47.52C295.403 47.52 296.102 47.7013 296.71 48.064C297.328 48.416 297.814 48.9173 298.166 49.568C298.518 50.208 298.694 50.9493 298.694 51.792C298.694 51.8453 298.688 51.904 298.678 51.968C298.678 52.0213 298.678 52.08 298.678 52.144H291.366V51.296H298.07L297.622 51.632C297.622 51.024 297.488 50.4853 297.222 50.016C296.966 49.536 296.614 49.1627 296.166 48.896C295.718 48.6293 295.2 48.496 294.614 48.496C294.038 48.496 293.52 48.6293 293.062 48.896C292.603 49.1627 292.246 49.536 291.99 50.016C291.734 50.496 291.606 51.0453 291.606 51.664V51.84C291.606 52.48 291.744 53.0453 292.022 53.536C292.31 54.016 292.704 54.3947 293.206 54.672C293.718 54.9387 294.299 55.072 294.95 55.072C295.462 55.072 295.936 54.9813 296.374 54.8C296.822 54.6187 297.206 54.3413 297.526 53.968L298.166 54.704C297.792 55.152 297.323 55.4933 296.758 55.728C296.203 55.9627 295.59 56.08 294.918 56.08ZM305.433 56V44.8H306.617V56H305.433ZM312.961 59.184C312.62 59.184 312.294 59.136 311.985 59.04C311.665 58.9547 311.398 58.8213 311.185 58.64L311.585 57.776C311.926 58.064 312.364 58.208 312.897 58.208C313.345 58.208 313.686 58.0747 313.921 57.808C314.166 57.5413 314.289 57.1467 314.289 56.624V47.6H315.425V56.624C315.425 57.4027 315.212 58.0213 314.785 58.48C314.369 58.9493 313.761 59.184 312.961 59.184ZM314.865 45.744C314.63 45.744 314.433 45.664 314.273 45.504C314.113 45.344 314.033 45.152 314.033 44.928C314.033 44.704 314.113 44.5173 314.273 44.368C314.433 44.208 314.63 44.128 314.865 44.128C315.1 44.128 315.297 44.2027 315.457 44.352C315.617 44.5013 315.697 44.688 315.697 44.912C315.697 45.1467 315.617 45.344 315.457 45.504C315.308 45.664 315.11 45.744 314.865 45.744ZM322.072 56.08C321.357 56.08 320.733 55.9467 320.2 55.68C319.666 55.4133 319.25 55.0133 318.952 54.48C318.664 53.9467 318.52 53.28 318.52 52.48V47.6H319.656V52.352C319.656 53.248 319.874 53.9253 320.312 54.384C320.76 54.832 321.384 55.056 322.184 55.056C322.77 55.056 323.277 54.9387 323.704 54.704C324.141 54.4587 324.472 54.1067 324.696 53.648C324.93 53.1893 325.048 52.64 325.048 52V47.6H326.184V56H325.096V53.696L325.272 54.112C325.005 54.7307 324.589 55.216 324.024 55.568C323.469 55.9093 322.818 56.08 322.072 56.08ZM331.606 56.08C330.912 56.08 330.256 55.984 329.638 55.792C329.019 55.5893 328.534 55.3387 328.182 55.04L328.694 54.144C329.035 54.4 329.472 54.624 330.006 54.816C330.539 54.9973 331.099 55.088 331.686 55.088C332.486 55.088 333.062 54.9653 333.414 54.72C333.766 54.464 333.942 54.128 333.942 53.712C333.942 53.4027 333.84 53.1627 333.638 52.992C333.446 52.8107 333.19 52.6773 332.87 52.592C332.55 52.496 332.192 52.416 331.798 52.352C331.403 52.288 331.008 52.2133 330.614 52.128C330.23 52.0427 329.878 51.92 329.558 51.76C329.238 51.5893 328.976 51.36 328.774 51.072C328.582 50.784 328.486 50.4 328.486 49.92C328.486 49.4613 328.614 49.0507 328.87 48.688C329.126 48.3253 329.499 48.0427 329.99 47.84C330.491 47.6267 331.099 47.52 331.814 47.52C332.358 47.52 332.902 47.5947 333.446 47.744C333.99 47.8827 334.438 48.0693 334.79 48.304L334.294 49.216C333.92 48.96 333.52 48.7787 333.094 48.672C332.667 48.5547 332.24 48.496 331.814 48.496C331.056 48.496 330.496 48.6293 330.134 48.896C329.782 49.152 329.606 49.4827 329.606 49.888C329.606 50.208 329.702 50.4587 329.894 50.64C330.096 50.8213 330.358 50.9653 330.678 51.072C331.008 51.168 331.366 51.248 331.75 51.312C332.144 51.376 332.534 51.456 332.918 51.552C333.312 51.6373 333.67 51.76 333.99 51.92C334.32 52.0693 334.582 52.288 334.774 52.576C334.976 52.8533 335.078 53.2213 335.078 53.68C335.078 54.1707 334.939 54.5973 334.662 54.96C334.395 55.312 334 55.5893 333.478 55.792C332.966 55.984 332.342 56.08 331.606 56.08ZM339.818 56.08C339.029 56.08 338.421 55.8667 337.994 55.44C337.567 55.0133 337.354 54.4107 337.354 53.632V45.744H338.49V53.568C338.49 54.0587 338.613 54.4373 338.858 54.704C339.114 54.9707 339.477 55.104 339.946 55.104C340.447 55.104 340.863 54.96 341.194 54.672L341.594 55.488C341.37 55.6907 341.098 55.84 340.778 55.936C340.469 56.032 340.149 56.08 339.818 56.08ZM335.85 48.544V47.6H341.05V48.544H335.85ZM353.114 56V54.144L353.066 53.84V50.736C353.066 50.0213 352.863 49.472 352.458 49.088C352.063 48.704 351.471 48.512 350.682 48.512C350.138 48.512 349.62 48.6027 349.13 48.784C348.639 48.9653 348.223 49.2053 347.882 49.504L347.37 48.656C347.796 48.2933 348.308 48.016 348.906 47.824C349.503 47.6213 350.132 47.52 350.794 47.52C351.882 47.52 352.719 47.792 353.306 48.336C353.903 48.8693 354.202 49.6853 354.202 50.784V56H353.114ZM350.218 56.08C349.588 56.08 349.039 55.9787 348.57 55.776C348.111 55.5627 347.759 55.2747 347.514 54.912C347.268 54.5387 347.146 54.112 347.146 53.632C347.146 53.1947 347.247 52.8 347.45 52.448C347.663 52.0853 348.004 51.7973 348.474 51.584C348.954 51.36 349.594 51.248 350.394 51.248H353.29V52.096H350.426C349.615 52.096 349.05 52.24 348.73 52.528C348.42 52.816 348.266 53.1733 348.266 53.6C348.266 54.08 348.452 54.464 348.826 54.752C349.199 55.04 349.722 55.184 350.394 55.184C351.034 55.184 351.583 55.04 352.042 54.752C352.511 54.4533 352.852 54.0267 353.066 53.472L353.322 54.256C353.108 54.8107 352.735 55.2533 352.202 55.584C351.679 55.9147 351.018 56.08 350.218 56.08ZM359.543 56.08C358.85 56.08 358.194 55.984 357.575 55.792C356.956 55.5893 356.471 55.3387 356.119 55.04L356.631 54.144C356.972 54.4 357.41 54.624 357.943 54.816C358.476 54.9973 359.036 55.088 359.623 55.088C360.423 55.088 360.999 54.9653 361.351 54.72C361.703 54.464 361.879 54.128 361.879 53.712C361.879 53.4027 361.778 53.1627 361.575 52.992C361.383 52.8107 361.127 52.6773 360.807 52.592C360.487 52.496 360.13 52.416 359.735 52.352C359.34 52.288 358.946 52.2133 358.551 52.128C358.167 52.0427 357.815 51.92 357.495 51.76C357.175 51.5893 356.914 51.36 356.711 51.072C356.519 50.784 356.423 50.4 356.423 49.92C356.423 49.4613 356.551 49.0507 356.807 48.688C357.063 48.3253 357.436 48.0427 357.927 47.84C358.428 47.6267 359.036 47.52 359.751 47.52C360.295 47.52 360.839 47.5947 361.383 47.744C361.927 47.8827 362.375 48.0693 362.727 48.304L362.231 49.216C361.858 48.96 361.458 48.7787 361.031 48.672C360.604 48.5547 360.178 48.496 359.751 48.496C358.994 48.496 358.434 48.6293 358.071 48.896C357.719 49.152 357.543 49.4827 357.543 49.888C357.543 50.208 357.639 50.4587 357.831 50.64C358.034 50.8213 358.295 50.9653 358.615 51.072C358.946 51.168 359.303 51.248 359.687 51.312C360.082 51.376 360.471 51.456 360.855 51.552C361.25 51.6373 361.607 51.76 361.927 51.92C362.258 52.0693 362.519 52.288 362.711 52.576C362.914 52.8533 363.015 53.2213 363.015 53.68C363.015 54.1707 362.876 54.5973 362.599 54.96C362.332 55.312 361.938 55.5893 361.415 55.792C360.903 55.984 360.279 56.08 359.543 56.08ZM365.996 53.824L366.028 52.368L371.26 47.6H372.652L368.956 51.136L368.316 51.68L365.996 53.824ZM365.1 56V44.128H366.236V56H365.1ZM371.612 56L368.108 51.632L368.844 50.752L373.004 56H371.612ZM389.393 47.52C390.075 47.52 390.667 47.6533 391.169 47.92C391.681 48.176 392.075 48.5707 392.353 49.104C392.641 49.6373 392.785 50.3093 392.785 51.12V56H391.649V51.232C391.649 50.3467 391.435 49.68 391.009 49.232C390.593 48.7733 390.001 48.544 389.233 48.544C388.657 48.544 388.155 48.6667 387.729 48.912C387.313 49.1467 386.987 49.4933 386.753 49.952C386.529 50.4 386.417 50.944 386.417 51.584V56H385.281V51.232C385.281 50.3467 385.067 49.68 384.641 49.232C384.214 48.7733 383.617 48.544 382.849 48.544C382.283 48.544 381.787 48.6667 381.361 48.912C380.934 49.1467 380.603 49.4933 380.369 49.952C380.145 50.4 380.033 50.944 380.033 51.584V56H378.897V47.6H379.985V49.872L379.809 49.472C380.065 48.864 380.475 48.3893 381.041 48.048C381.617 47.696 382.294 47.52 383.073 47.52C383.894 47.52 384.593 47.728 385.169 48.144C385.745 48.5493 386.118 49.1627 386.289 49.984L385.841 49.808C386.086 49.1253 386.518 48.576 387.137 48.16C387.766 47.7333 388.518 47.52 389.393 47.52ZM395.773 59.184C395.378 59.184 395 59.12 394.637 58.992C394.285 58.864 393.981 58.672 393.725 58.416L394.253 57.568C394.466 57.7707 394.696 57.9253 394.941 58.032C395.197 58.1493 395.48 58.208 395.789 58.208C396.162 58.208 396.482 58.1013 396.749 57.888C397.026 57.6853 397.288 57.3227 397.533 56.8L398.077 55.568L398.205 55.392L401.661 47.6H402.781L398.573 57.008C398.338 57.552 398.077 57.984 397.789 58.304C397.512 58.624 397.208 58.848 396.877 58.976C396.546 59.1147 396.178 59.184 395.773 59.184ZM398.013 56.24L394.141 47.6H395.325L398.749 55.312L398.013 56.24ZM408.76 56V46.544C408.76 45.7973 408.979 45.1947 409.416 44.736C409.854 44.2773 410.483 44.048 411.304 44.048C411.624 44.048 411.934 44.0907 412.232 44.176C412.531 44.2613 412.782 44.3947 412.984 44.576L412.6 45.424C412.44 45.2853 412.254 45.184 412.04 45.12C411.827 45.0453 411.598 45.008 411.352 45.008C410.872 45.008 410.504 45.1413 410.248 45.408C409.992 45.6747 409.864 46.0693 409.864 46.592V47.872L409.896 48.4V56H408.76ZM407.256 48.544V47.6H412.456V48.544H407.256ZM419.098 56V54.144L419.05 53.84V50.736C419.05 50.0213 418.847 49.472 418.442 49.088C418.047 48.704 417.455 48.512 416.666 48.512C416.122 48.512 415.605 48.6027 415.114 48.784C414.623 48.9653 414.207 49.2053 413.866 49.504L413.354 48.656C413.781 48.2933 414.293 48.016 414.89 47.824C415.487 47.6213 416.117 47.52 416.778 47.52C417.866 47.52 418.703 47.792 419.29 48.336C419.887 48.8693 420.186 49.6853 420.186 50.784V56H419.098ZM416.202 56.08C415.573 56.08 415.023 55.9787 414.554 55.776C414.095 55.5627 413.743 55.2747 413.498 54.912C413.253 54.5387 413.13 54.112 413.13 53.632C413.13 53.1947 413.231 52.8 413.434 52.448C413.647 52.0853 413.989 51.7973 414.458 51.584C414.938 51.36 415.578 51.248 416.378 51.248H419.274V52.096H416.41C415.599 52.096 415.034 52.24 414.714 52.528C414.405 52.816 414.25 53.1733 414.25 53.6C414.25 54.08 414.437 54.464 414.81 54.752C415.183 55.04 415.706 55.184 416.378 55.184C417.018 55.184 417.567 55.04 418.026 54.752C418.495 54.4533 418.837 54.0267 419.05 53.472L419.306 54.256C419.093 54.8107 418.719 55.2533 418.186 55.584C417.663 55.9147 417.002 56.08 416.202 56.08ZM433.768 47.52C434.45 47.52 435.042 47.6533 435.544 47.92C436.056 48.176 436.45 48.5707 436.728 49.104C437.016 49.6373 437.16 50.3093 437.16 51.12V56H436.024V51.232C436.024 50.3467 435.81 49.68 435.384 49.232C434.968 48.7733 434.376 48.544 433.608 48.544C433.032 48.544 432.53 48.6667 432.104 48.912C431.688 49.1467 431.362 49.4933 431.128 49.952C430.904 50.4 430.792 50.944 430.792 51.584V56H429.656V51.232C429.656 50.3467 429.442 49.68 429.016 49.232C428.589 48.7733 427.992 48.544 427.224 48.544C426.658 48.544 426.162 48.6667 425.736 48.912C425.309 49.1467 424.978 49.4933 424.744 49.952C424.52 50.4 424.408 50.944 424.408 51.584V56H423.272V47.6H424.36V49.872L424.184 49.472C424.44 48.864 424.85 48.3893 425.416 48.048C425.992 47.696 426.669 47.52 427.448 47.52C428.269 47.52 428.968 47.728 429.544 48.144C430.12 48.5493 430.493 49.1627 430.664 49.984L430.216 49.808C430.461 49.1253 430.893 48.576 431.512 48.16C432.141 47.7333 432.893 47.52 433.768 47.52ZM440.24 56V47.6H441.376V56H440.24ZM440.816 45.744C440.582 45.744 440.384 45.664 440.224 45.504C440.064 45.344 439.984 45.152 439.984 44.928C439.984 44.704 440.064 44.5173 440.224 44.368C440.384 44.208 440.582 44.128 440.816 44.128C441.051 44.128 441.248 44.2027 441.408 44.352C441.568 44.5013 441.648 44.688 441.648 44.912C441.648 45.1467 441.568 45.344 441.408 45.504C441.259 45.664 441.062 45.744 440.816 45.744ZM444.537 56V44.128H445.673V56H444.537ZM448.898 59.184C448.503 59.184 448.125 59.12 447.762 58.992C447.41 58.864 447.106 58.672 446.85 58.416L447.378 57.568C447.591 57.7707 447.821 57.9253 448.066 58.032C448.322 58.1493 448.605 58.208 448.914 58.208C449.287 58.208 449.607 58.1013 449.874 57.888C450.151 57.6853 450.413 57.3227 450.658 56.8L451.202 55.568L451.33 55.392L454.786 47.6H455.906L451.698 57.008C451.463 57.552 451.202 57.984 450.914 58.304C450.637 58.624 450.333 58.848 450.002 58.976C449.671 59.1147 449.303 59.184 448.898 59.184ZM451.138 56.24L447.266 47.6H448.45L451.874 55.312L451.138 56.24ZM457.099 48.032L457.803 45.088L457.931 45.76C457.686 45.76 457.478 45.6853 457.307 45.536C457.147 45.376 457.067 45.168 457.067 44.912C457.067 44.656 457.147 44.448 457.307 44.288C457.478 44.128 457.68 44.048 457.915 44.048C458.16 44.048 458.358 44.1333 458.507 44.304C458.667 44.464 458.747 44.6667 458.747 44.912C458.747 44.9973 458.742 45.0827 458.731 45.168C458.72 45.2533 458.699 45.3493 458.667 45.456C458.646 45.552 458.608 45.6747 458.555 45.824L457.867 48.032H457.099ZM459.819 48.032L460.523 45.088L460.651 45.76C460.406 45.76 460.198 45.6853 460.027 45.536C459.867 45.376 459.787 45.168 459.787 44.912C459.787 44.656 459.867 44.448 460.027 44.288C460.198 44.128 460.4 44.048 460.635 44.048C460.88 44.048 461.078 44.1333 461.227 44.304C461.387 44.464 461.467 44.6667 461.467 44.912C461.467 44.9973 461.462 45.0827 461.451 45.168C461.44 45.2533 461.419 45.3493 461.387 45.456C461.366 45.552 461.328 45.6747 461.275 45.824L460.587 48.032H459.819Z" fill="black"/>
<g clip-path="url(#clip0_134_8092)">
<g opacity="0.2">
<path fill-rule="evenodd" clip-rule="evenodd" d="M54.3248 34.6501C54.5018 34.6498 54.6741 34.7064 54.8164 34.8116C54.9588 34.9168 55.0635 35.0649 55.1152 35.2342L58.2964 45.6836L67.8086 49.1602C67.9655 49.2176 68.1012 49.3214 68.1978 49.4576C68.2944 49.5939 68.3474 49.7563 68.3497 49.9233C68.352 50.0904 68.3036 50.2542 68.2108 50.3931C68.118 50.532 67.9852 50.6394 67.8301 50.7013L58.3805 54.455L55.1152 65.411C55.0642 65.5811 54.9599 65.7302 54.8175 65.8362C54.6751 65.9422 54.5023 65.9994 54.3248 65.9994C54.1473 65.9994 53.9745 65.9422 53.8321 65.8362C53.6898 65.7302 53.5854 65.5811 53.5345 65.411L50.2691 54.455L40.8196 50.7013C40.6644 50.6394 40.5316 50.532 40.4388 50.3931C40.346 50.2542 40.2976 50.0904 40.2999 49.9233C40.3022 49.7563 40.3552 49.5939 40.4518 49.4576C40.5484 49.3214 40.6841 49.2176 40.841 49.1602L50.3533 45.6836L53.5361 35.2342C53.5877 35.0652 53.6922 34.9172 53.8342 34.8121C53.9761 34.7069 54.1481 34.6501 54.3248 34.6501Z" fill="#FFD53E"/>
<path d="M65.5944 65.9176C65.4129 65.9176 65.2644 65.7856 65.2479 65.6206C64.9179 62.3206 64.6704 61.2646 61.5684 60.9841C61.4821 60.9766 61.4017 60.9367 61.3436 60.8724C61.2854 60.8082 61.2538 60.7243 61.2549 60.6376C61.2549 60.4561 61.3869 60.3076 61.5684 60.2911C64.7034 59.9941 64.9179 59.1361 65.2479 55.9186C65.2644 55.7371 65.4129 55.6051 65.5944 55.6051C65.7759 55.6051 65.9244 55.7371 65.9409 55.9021C66.2709 59.1361 66.4854 59.9941 69.6204 60.2746C69.8019 60.2911 69.9339 60.4396 69.9339 60.6211C69.9339 60.8026 69.8019 60.9511 69.6204 60.9676C66.5349 61.2646 66.2709 62.3206 65.9574 65.6041C65.9409 65.7856 65.7924 65.9176 65.6109 65.9176H65.5944Z" fill="#FFD53E"/>
</g>
<path fill-rule="evenodd" clip-rule="evenodd" d="M51.8502 33.825C52.0272 33.8247 52.1995 33.8814 52.3418 33.9865C52.4841 34.0917 52.5889 34.2399 52.6405 34.4091L55.8217 44.8586L65.334 48.3351C65.4909 48.3926 65.6266 48.4963 65.7232 48.6326C65.8198 48.7689 65.8728 48.9312 65.8751 49.0983C65.8774 49.2653 65.829 49.4291 65.7362 49.568C65.6434 49.7069 65.5106 49.8144 65.3554 49.8762L55.9059 53.63L52.6405 64.586C52.5896 64.756 52.4852 64.9051 52.3429 65.0111C52.2005 65.1171 52.0277 65.1744 51.8502 65.1744C51.6727 65.1744 51.4999 65.1171 51.3575 65.0111C51.2151 64.9051 51.1107 64.756 51.0598 64.586L47.7945 53.63L38.3449 49.8762C38.1897 49.8144 38.057 49.7069 37.9642 49.568C37.8714 49.4291 37.823 49.2653 37.8253 49.0983C37.8276 48.9312 37.8806 48.7689 37.9772 48.6326C38.0738 48.4963 38.2095 48.3926 38.3664 48.3351L47.8786 44.8586L51.0615 34.4091C51.1131 34.2401 51.2176 34.0922 51.3595 33.987C51.5015 33.8819 51.6735 33.8251 51.8502 33.825ZM51.8502 37.4814L49.3372 45.7314C49.3 45.8537 49.2348 45.9656 49.1469 46.0584C49.059 46.1511 48.9508 46.2222 48.8307 46.266L40.9651 49.1436L48.7762 52.2456C48.892 52.2918 48.9957 52.3636 49.0798 52.4556C49.1638 52.5476 49.2259 52.6575 49.2613 52.7769L51.8518 61.4625L54.439 52.7769C54.4745 52.6575 54.5366 52.5476 54.6206 52.4556C54.7046 52.3636 54.8084 52.2918 54.9241 52.2456L62.7352 49.1436L54.8697 46.2693C54.7496 46.2255 54.6414 46.1544 54.5535 46.0617C54.4655 45.9689 54.4004 45.857 54.3631 45.7347L51.8502 37.4814Z" fill="#FFD53E"/>
<path d="M64.638 64.548C64.473 64.548 64.3245 64.416 64.308 64.251C64.011 61.248 63.78 60.291 61.0245 60.027C60.8595 60.0105 60.7275 59.862 60.7275 59.697C60.7275 59.532 60.8595 59.3835 61.0245 59.367C63.846 59.103 64.011 58.377 64.308 55.374C64.308 55.209 64.473 55.077 64.638 55.077C64.803 55.077 64.9515 55.209 64.968 55.374C65.265 58.377 65.4465 59.103 68.2515 59.367C68.4165 59.3835 68.5485 59.532 68.5485 59.697C68.5485 59.862 68.4165 60.0105 68.2515 60.027C65.4795 60.291 65.265 61.248 64.968 64.2675C64.968 64.4325 64.8195 64.5645 64.638 64.5645V64.548Z" fill="#FFD53E"/>
</g>
</g>
<defs>
<filter id="filter0_d_134_8092" x="0" y="0" width="513" height="115" filterUnits="userSpaceOnUse" color-interpolation-filters="sRGB">
<feFlood flood-opacity="0" result="BackgroundImageFix"/>
<feColorMatrix in="SourceAlpha" type="matrix" values="0 0 0 0 0 0 0 0 0 0 0 0 0 0 0 0 0 0 127 0" result="hardAlpha"/>
<feOffset dx="4" dy="8"/>
<feGaussianBlur stdDeviation="6"/>
<feComposite in2="hardAlpha" operator="out"/>
<feColorMatrix type="matrix" values="0 0 0 0 0.160784 0 0 0 0 0.188235 0 0 0 0 0.301961 0 0 0 0.2 0"/>
<feBlend mode="normal" in2="BackgroundImageFix" result="effect1_dropShadow_134_8092"/>
<feBlend mode="normal" in="SourceGraphic" in2="effect1_dropShadow_134_8092" result="shape"/>
</filter>
<clipPath id="clip0_134_8092">
<rect width="33" height="33" fill="white" transform="translate(37 33)"/>
</clipPath>
</defs>
</svg>
