<svg width="513" height="129" viewBox="0 0 513 129" fill="none" xmlns="http://www.w3.org/2000/svg">
<g filter="url(#filter0_d_134_8128)">
<rect x="8" y="4" width="489" height="105" rx="30" fill="#EBEFFF"/>
<path d="M103.496 39.128L102.792 42.088L102.664 41.4C102.92 41.4 103.128 41.48 103.288 41.64C103.448 41.7893 103.528 41.992 103.528 42.248C103.528 42.504 103.448 42.712 103.288 42.872C103.128 43.032 102.931 43.112 102.696 43.112C102.44 43.112 102.232 43.032 102.072 42.872C101.923 42.7013 101.848 42.4933 101.848 42.248C101.848 42.152 101.853 42.0667 101.864 41.992C101.875 41.9173 101.896 41.8267 101.928 41.72C101.96 41.6133 102.003 41.4853 102.056 41.336L102.728 39.128H103.496ZM106.216 39.128L105.512 42.088L105.384 41.4C105.64 41.4 105.848 41.48 106.008 41.64C106.168 41.7893 106.248 41.992 106.248 42.248C106.248 42.504 106.168 42.712 106.008 42.872C105.848 43.032 105.651 43.112 105.416 43.112C105.16 43.112 104.952 43.032 104.792 42.872C104.643 42.7013 104.568 42.4933 104.568 42.248C104.568 42.152 104.573 42.0667 104.584 41.992C104.595 41.9173 104.616 41.8267 104.648 41.72C104.68 41.6133 104.723 41.4853 104.776 41.336L105.448 39.128H106.216ZM108.933 51V39.8H110.117V51H108.933ZM116.178 51.08C115.388 51.08 114.78 50.8667 114.354 50.44C113.927 50.0133 113.714 49.4107 113.714 48.632V40.744H114.85V48.568C114.85 49.0587 114.972 49.4373 115.218 49.704C115.474 49.9707 115.836 50.104 116.306 50.104C116.807 50.104 117.223 49.96 117.554 49.672L117.954 50.488C117.73 50.6907 117.458 50.84 117.138 50.936C116.828 51.032 116.508 51.08 116.178 51.08ZM112.21 43.544V42.6H117.41V43.544H112.21ZM119.334 43.032L120.038 40.088L120.166 40.76C119.92 40.76 119.712 40.6853 119.542 40.536C119.382 40.376 119.302 40.168 119.302 39.912C119.302 39.656 119.382 39.448 119.542 39.288C119.712 39.128 119.915 39.048 120.15 39.048C120.395 39.048 120.592 39.1333 120.742 39.304C120.902 39.464 120.982 39.6667 120.982 39.912C120.982 39.9973 120.976 40.0827 120.966 40.168C120.955 40.2533 120.934 40.3493 120.902 40.456C120.88 40.552 120.843 40.6747 120.789 40.824L120.102 43.032H119.334ZM125.418 51.08C124.725 51.08 124.069 50.984 123.45 50.792C122.831 50.5893 122.346 50.3387 121.994 50.04L122.506 49.144C122.847 49.4 123.285 49.624 123.818 49.816C124.351 49.9973 124.911 50.088 125.498 50.088C126.298 50.088 126.874 49.9653 127.226 49.72C127.578 49.464 127.754 49.128 127.754 48.712C127.754 48.4027 127.653 48.1627 127.45 47.992C127.258 47.8107 127.002 47.6773 126.682 47.592C126.362 47.496 126.005 47.416 125.61 47.352C125.215 47.288 124.821 47.2133 124.426 47.128C124.042 47.0427 123.69 46.92 123.37 46.76C123.05 46.5893 122.789 46.36 122.586 46.072C122.394 45.784 122.298 45.4 122.298 44.92C122.298 44.4613 122.426 44.0507 122.682 43.688C122.938 43.3253 123.311 43.0427 123.802 42.84C124.303 42.6267 124.911 42.52 125.626 42.52C126.17 42.52 126.714 42.5947 127.258 42.744C127.802 42.8827 128.25 43.0693 128.602 43.304L128.106 44.216C127.733 43.96 127.333 43.7787 126.906 43.672C126.479 43.5547 126.053 43.496 125.626 43.496C124.869 43.496 124.309 43.6293 123.946 43.896C123.594 44.152 123.418 44.4827 123.418 44.888C123.418 45.208 123.514 45.4587 123.706 45.64C123.909 45.8213 124.17 45.9653 124.49 46.072C124.821 46.168 125.178 46.248 125.562 46.312C125.957 46.376 126.346 46.456 126.73 46.552C127.125 46.6373 127.482 46.76 127.802 46.92C128.133 47.0693 128.394 47.288 128.586 47.576C128.789 47.8533 128.89 48.2213 128.89 48.68C128.89 49.1707 128.751 49.5973 128.474 49.96C128.207 50.312 127.813 50.5893 127.29 50.792C126.778 50.984 126.154 51.08 125.418 51.08ZM137.818 51.08C137.029 51.08 136.421 50.8667 135.994 50.44C135.567 50.0133 135.354 49.4107 135.354 48.632V40.744H136.49V48.568C136.49 49.0587 136.613 49.4373 136.858 49.704C137.114 49.9707 137.477 50.104 137.946 50.104C138.447 50.104 138.863 49.96 139.194 49.672L139.594 50.488C139.37 50.6907 139.098 50.84 138.778 50.936C138.469 51.032 138.149 51.08 137.818 51.08ZM133.85 43.544V42.6H139.05V43.544H133.85ZM144.789 51.08C143.979 51.08 143.248 50.8987 142.597 50.536C141.957 50.1627 141.451 49.656 141.077 49.016C140.704 48.3653 140.517 47.624 140.517 46.792C140.517 45.9493 140.704 45.208 141.077 44.568C141.451 43.928 141.957 43.4267 142.597 43.064C143.237 42.7013 143.968 42.52 144.789 42.52C145.621 42.52 146.357 42.7013 146.997 43.064C147.648 43.4267 148.155 43.928 148.517 44.568C148.891 45.208 149.077 45.9493 149.077 46.792C149.077 47.624 148.891 48.3653 148.517 49.016C148.155 49.656 147.648 50.1627 146.997 50.536C146.347 50.8987 145.611 51.08 144.789 51.08ZM144.789 50.072C145.397 50.072 145.936 49.9387 146.405 49.672C146.875 49.3947 147.243 49.0107 147.509 48.52C147.787 48.0187 147.925 47.4427 147.925 46.792C147.925 46.1307 147.787 45.5547 147.509 45.064C147.243 44.5733 146.875 44.1947 146.405 43.928C145.936 43.6507 145.403 43.512 144.805 43.512C144.208 43.512 143.675 43.6507 143.205 43.928C142.736 44.1947 142.363 44.5733 142.085 45.064C141.808 45.5547 141.669 46.1307 141.669 46.792C141.669 47.4427 141.808 48.0187 142.085 48.52C142.363 49.0107 142.736 49.3947 143.205 49.672C143.675 49.9387 144.203 50.072 144.789 50.072ZM154.821 51.08C154.01 51.08 153.279 50.8987 152.629 50.536C151.989 50.1627 151.482 49.656 151.109 49.016C150.735 48.3653 150.549 47.624 150.549 46.792C150.549 45.9493 150.735 45.208 151.109 44.568C151.482 43.928 151.989 43.4267 152.629 43.064C153.269 42.7013 153.999 42.52 154.821 42.52C155.653 42.52 156.389 42.7013 157.029 43.064C157.679 43.4267 158.186 43.928 158.549 44.568C158.922 45.208 159.109 45.9493 159.109 46.792C159.109 47.624 158.922 48.3653 158.549 49.016C158.186 49.656 157.679 50.1627 157.029 50.536C156.378 50.8987 155.642 51.08 154.821 51.08ZM154.821 50.072C155.429 50.072 155.967 49.9387 156.437 49.672C156.906 49.3947 157.274 49.0107 157.541 48.52C157.818 48.0187 157.957 47.4427 157.957 46.792C157.957 46.1307 157.818 45.5547 157.541 45.064C157.274 44.5733 156.906 44.1947 156.437 43.928C155.967 43.6507 155.434 43.512 154.837 43.512C154.239 43.512 153.706 43.6507 153.237 43.928C152.767 44.1947 152.394 44.5733 152.117 45.064C151.839 45.5547 151.701 46.1307 151.701 46.792C151.701 47.4427 151.839 48.0187 152.117 48.52C152.394 49.0107 152.767 49.3947 153.237 49.672C153.706 49.9387 154.234 50.072 154.821 50.072ZM169.903 42.52C170.586 42.52 171.183 42.6533 171.695 42.92C172.218 43.176 172.623 43.5707 172.911 44.104C173.21 44.6373 173.359 45.3093 173.359 46.12V51H172.223V46.232C172.223 45.3467 171.999 44.68 171.551 44.232C171.114 43.7733 170.495 43.544 169.695 43.544C169.098 43.544 168.575 43.6667 168.127 43.912C167.69 44.1467 167.349 44.4933 167.103 44.952C166.869 45.4 166.751 45.944 166.751 46.584V51H165.615V39.128H166.751V44.904L166.527 44.472C166.794 43.864 167.221 43.3893 167.807 43.048C168.394 42.696 169.093 42.52 169.903 42.52ZM181.692 51V49.144L181.644 48.84V45.736C181.644 45.0213 181.441 44.472 181.036 44.088C180.641 43.704 180.049 43.512 179.26 43.512C178.716 43.512 178.198 43.6027 177.708 43.784C177.217 43.9653 176.801 44.2053 176.46 44.504L175.948 43.656C176.374 43.2933 176.886 43.016 177.484 42.824C178.081 42.6213 178.71 42.52 179.372 42.52C180.46 42.52 181.297 42.792 181.884 43.336C182.481 43.8693 182.78 44.6853 182.78 45.784V51H181.692ZM178.796 51.08C178.166 51.08 177.617 50.9787 177.148 50.776C176.689 50.5627 176.337 50.2747 176.092 49.912C175.846 49.5387 175.724 49.112 175.724 48.632C175.724 48.1947 175.825 47.8 176.028 47.448C176.241 47.0853 176.582 46.7973 177.052 46.584C177.532 46.36 178.172 46.248 178.972 46.248H181.868V47.096H179.004C178.193 47.096 177.628 47.24 177.308 47.528C176.998 47.816 176.844 48.1733 176.844 48.6C176.844 49.08 177.03 49.464 177.404 49.752C177.777 50.04 178.3 50.184 178.972 50.184C179.612 50.184 180.161 50.04 180.62 49.752C181.089 49.4533 181.43 49.0267 181.644 48.472L181.9 49.256C181.686 49.8107 181.313 50.2533 180.78 50.584C180.257 50.9147 179.596 51.08 178.796 51.08ZM185.865 51V42.6H186.953V44.888L186.841 44.488C187.076 43.848 187.471 43.3627 188.025 43.032C188.58 42.6907 189.268 42.52 190.089 42.52V43.624C190.047 43.624 190.004 43.624 189.961 43.624C189.919 43.6133 189.876 43.608 189.833 43.608C188.948 43.608 188.255 43.88 187.753 44.424C187.252 44.9573 187.001 45.72 187.001 46.712V51H185.865ZM195.428 51.08C194.628 51.08 193.908 50.8987 193.268 50.536C192.639 50.1733 192.143 49.672 191.78 49.032C191.417 48.3813 191.236 47.6347 191.236 46.792C191.236 45.9387 191.417 45.192 191.78 44.552C192.143 43.912 192.639 43.416 193.268 43.064C193.908 42.7013 194.628 42.52 195.428 42.52C196.164 42.52 196.82 42.6853 197.396 43.016C197.983 43.3467 198.447 43.832 198.788 44.472C199.14 45.1013 199.316 45.8747 199.316 46.792C199.316 47.6987 199.145 48.472 198.804 49.112C198.463 49.752 197.999 50.2427 197.412 50.584C196.836 50.9147 196.175 51.08 195.428 51.08ZM195.508 50.072C196.105 50.072 196.639 49.9387 197.108 49.672C197.588 49.3947 197.961 49.0107 198.228 48.52C198.505 48.0187 198.644 47.4427 198.644 46.792C198.644 46.1307 198.505 45.5547 198.228 45.064C197.961 44.5733 197.588 44.1947 197.108 43.928C196.639 43.6507 196.105 43.512 195.508 43.512C194.921 43.512 194.393 43.6507 193.924 43.928C193.455 44.1947 193.081 44.5733 192.804 45.064C192.527 45.5547 192.388 46.1307 192.388 46.792C192.388 47.4427 192.527 48.0187 192.804 48.52C193.081 49.0107 193.455 49.3947 193.924 49.672C194.393 49.9387 194.921 50.072 195.508 50.072ZM198.676 51V48.472L198.788 46.776L198.628 45.08V39.128H199.764V51H198.676ZM209.771 51.08C208.982 51.08 208.374 50.8667 207.947 50.44C207.521 50.0133 207.307 49.4107 207.307 48.632V40.744H208.443V48.568C208.443 49.0587 208.566 49.4373 208.811 49.704C209.067 49.9707 209.43 50.104 209.899 50.104C210.401 50.104 210.817 49.96 211.147 49.672L211.547 50.488C211.323 50.6907 211.051 50.84 210.731 50.936C210.422 51.032 210.102 51.08 209.771 51.08ZM205.803 43.544V42.6H211.003V43.544H205.803ZM216.742 51.08C215.932 51.08 215.201 50.8987 214.55 50.536C213.91 50.1627 213.404 49.656 213.03 49.016C212.657 48.3653 212.47 47.624 212.47 46.792C212.47 45.9493 212.657 45.208 213.03 44.568C213.404 43.928 213.91 43.4267 214.55 43.064C215.19 42.7013 215.921 42.52 216.742 42.52C217.574 42.52 218.31 42.7013 218.95 43.064C219.601 43.4267 220.108 43.928 220.47 44.568C220.844 45.208 221.03 45.9493 221.03 46.792C221.03 47.624 220.844 48.3653 220.47 49.016C220.108 49.656 219.601 50.1627 218.95 50.536C218.3 50.8987 217.564 51.08 216.742 51.08ZM216.742 50.072C217.35 50.072 217.889 49.9387 218.358 49.672C218.828 49.3947 219.196 49.0107 219.462 48.52C219.74 48.0187 219.878 47.4427 219.878 46.792C219.878 46.1307 219.74 45.5547 219.462 45.064C219.196 44.5733 218.828 44.1947 218.358 43.928C217.889 43.6507 217.356 43.512 216.758 43.512C216.161 43.512 215.628 43.6507 215.158 43.928C214.689 44.1947 214.316 44.5733 214.038 45.064C213.761 45.5547 213.622 46.1307 213.622 46.792C213.622 47.4427 213.761 48.0187 214.038 48.52C214.316 49.0107 214.689 49.3947 215.158 49.672C215.628 49.9387 216.156 50.072 216.742 50.072ZM229.793 51.08C229.1 51.08 228.444 50.984 227.825 50.792C227.206 50.5893 226.721 50.3387 226.369 50.04L226.881 49.144C227.222 49.4 227.66 49.624 228.193 49.816C228.726 49.9973 229.286 50.088 229.873 50.088C230.673 50.088 231.249 49.9653 231.601 49.72C231.953 49.464 232.129 49.128 232.129 48.712C232.129 48.4027 232.028 48.1627 231.825 47.992C231.633 47.8107 231.377 47.6773 231.057 47.592C230.737 47.496 230.38 47.416 229.985 47.352C229.59 47.288 229.196 47.2133 228.801 47.128C228.417 47.0427 228.065 46.92 227.745 46.76C227.425 46.5893 227.164 46.36 226.961 46.072C226.769 45.784 226.673 45.4 226.673 44.92C226.673 44.4613 226.801 44.0507 227.057 43.688C227.313 43.3253 227.686 43.0427 228.177 42.84C228.678 42.6267 229.286 42.52 230.001 42.52C230.545 42.52 231.089 42.5947 231.633 42.744C232.177 42.8827 232.625 43.0693 232.977 43.304L232.481 44.216C232.108 43.96 231.708 43.7787 231.281 43.672C230.854 43.5547 230.428 43.496 230.001 43.496C229.244 43.496 228.684 43.6293 228.321 43.896C227.969 44.152 227.793 44.4827 227.793 44.888C227.793 45.208 227.889 45.4587 228.081 45.64C228.284 45.8213 228.545 45.9653 228.865 46.072C229.196 46.168 229.553 46.248 229.937 46.312C230.332 46.376 230.721 46.456 231.105 46.552C231.5 46.6373 231.857 46.76 232.177 46.92C232.508 47.0693 232.769 47.288 232.961 47.576C233.164 47.8533 233.265 48.2213 233.265 48.68C233.265 49.1707 233.126 49.5973 232.849 49.96C232.582 50.312 232.188 50.5893 231.665 50.792C231.153 50.984 230.529 51.08 229.793 51.08ZM238.006 51.08C237.216 51.08 236.608 50.8667 236.182 50.44C235.755 50.0133 235.542 49.4107 235.542 48.632V40.744H236.678V48.568C236.678 49.0587 236.8 49.4373 237.046 49.704C237.302 49.9707 237.664 50.104 238.134 50.104C238.635 50.104 239.051 49.96 239.382 49.672L239.782 50.488C239.558 50.6907 239.286 50.84 238.966 50.936C238.656 51.032 238.336 51.08 238.006 51.08ZM234.038 43.544V42.6H239.238V43.544H234.038ZM247.114 51V49.144L247.066 48.84V45.736C247.066 45.0213 246.863 44.472 246.458 44.088C246.063 43.704 245.471 43.512 244.682 43.512C244.138 43.512 243.62 43.6027 243.13 43.784C242.639 43.9653 242.223 44.2053 241.882 44.504L241.37 43.656C241.796 43.2933 242.308 43.016 242.906 42.824C243.503 42.6213 244.132 42.52 244.794 42.52C245.882 42.52 246.719 42.792 247.306 43.336C247.903 43.8693 248.202 44.6853 248.202 45.784V51H247.114ZM244.218 51.08C243.588 51.08 243.039 50.9787 242.57 50.776C242.111 50.5627 241.759 50.2747 241.514 49.912C241.268 49.5387 241.146 49.112 241.146 48.632C241.146 48.1947 241.247 47.8 241.45 47.448C241.663 47.0853 242.004 46.7973 242.474 46.584C242.954 46.36 243.594 46.248 244.394 46.248H247.29V47.096H244.426C243.615 47.096 243.05 47.24 242.73 47.528C242.42 47.816 242.266 48.1733 242.266 48.6C242.266 49.08 242.452 49.464 242.826 49.752C243.199 50.04 243.722 50.184 244.394 50.184C245.034 50.184 245.583 50.04 246.042 49.752C246.511 49.4533 246.852 49.0267 247.066 48.472L247.322 49.256C247.108 49.8107 246.735 50.2533 246.202 50.584C245.679 50.9147 245.018 51.08 244.218 51.08ZM251.195 54.184C250.8 54.184 250.422 54.12 250.059 53.992C249.707 53.864 249.403 53.672 249.147 53.416L249.675 52.568C249.888 52.7707 250.118 52.9253 250.363 53.032C250.619 53.1493 250.902 53.208 251.211 53.208C251.584 53.208 251.904 53.1013 252.171 52.888C252.448 52.6853 252.71 52.3227 252.955 51.8L253.499 50.568L253.627 50.392L257.083 42.6H258.203L253.995 52.008C253.76 52.552 253.499 52.984 253.211 53.304C252.934 53.624 252.63 53.848 252.299 53.976C251.968 54.1147 251.6 54.184 251.195 54.184ZM253.435 51.24L249.563 42.6H250.747L254.171 50.312L253.435 51.24ZM267.414 51.08C266.604 51.08 265.873 50.8987 265.222 50.536C264.582 50.1627 264.076 49.656 263.702 49.016C263.329 48.3653 263.142 47.624 263.142 46.792C263.142 45.9493 263.329 45.208 263.702 44.568C264.076 43.928 264.582 43.4267 265.222 43.064C265.862 42.7013 266.593 42.52 267.414 42.52C268.246 42.52 268.982 42.7013 269.622 43.064C270.273 43.4267 270.78 43.928 271.142 44.568C271.516 45.208 271.702 45.9493 271.702 46.792C271.702 47.624 271.516 48.3653 271.142 49.016C270.78 49.656 270.273 50.1627 269.622 50.536C268.972 50.8987 268.236 51.08 267.414 51.08ZM267.414 50.072C268.022 50.072 268.561 49.9387 269.03 49.672C269.5 49.3947 269.868 49.0107 270.134 48.52C270.412 48.0187 270.55 47.4427 270.55 46.792C270.55 46.1307 270.412 45.5547 270.134 45.064C269.868 44.5733 269.5 44.1947 269.03 43.928C268.561 43.6507 268.028 43.512 267.43 43.512C266.833 43.512 266.3 43.6507 265.83 43.928C265.361 44.1947 264.988 44.5733 264.71 45.064C264.433 45.5547 264.294 46.1307 264.294 46.792C264.294 47.4427 264.433 48.0187 264.71 48.52C264.988 49.0107 265.361 49.3947 265.83 49.672C266.3 49.9387 266.828 50.072 267.414 50.072ZM278.31 42.52C278.992 42.52 279.59 42.6533 280.102 42.92C280.624 43.176 281.03 43.5707 281.318 44.104C281.616 44.6373 281.766 45.3093 281.766 46.12V51H280.63V46.232C280.63 45.3467 280.406 44.68 279.958 44.232C279.52 43.7733 278.902 43.544 278.102 43.544C277.504 43.544 276.982 43.6667 276.534 43.912C276.096 44.1467 275.755 44.4933 275.51 44.952C275.275 45.4 275.158 45.944 275.158 46.584V51H274.022V42.6H275.11V44.904L274.934 44.472C275.2 43.864 275.627 43.3893 276.214 43.048C276.8 42.696 277.499 42.52 278.31 42.52ZM293.358 51.08C292.622 51.08 291.96 50.9147 291.374 50.584C290.787 50.2427 290.323 49.752 289.982 49.112C289.64 48.472 289.47 47.6987 289.47 46.792C289.47 45.8747 289.64 45.1013 289.982 44.472C290.334 43.832 290.803 43.3467 291.39 43.016C291.976 42.6853 292.632 42.52 293.358 42.52C294.158 42.52 294.872 42.7013 295.502 43.064C296.142 43.416 296.643 43.912 297.006 44.552C297.368 45.192 297.55 45.9387 297.55 46.792C297.55 47.6347 297.368 48.3813 297.006 49.032C296.643 49.672 296.142 50.1733 295.502 50.536C294.872 50.8987 294.158 51.08 293.358 51.08ZM289.022 51V39.128H290.158V45.08L289.998 46.776L290.11 48.472V51H289.022ZM293.278 50.072C293.875 50.072 294.408 49.9387 294.878 49.672C295.347 49.3947 295.72 49.0107 295.998 48.52C296.275 48.0187 296.414 47.4427 296.414 46.792C296.414 46.1307 296.275 45.5547 295.998 45.064C295.72 44.5733 295.347 44.1947 294.878 43.928C294.408 43.6507 293.875 43.512 293.278 43.512C292.68 43.512 292.142 43.6507 291.661 43.928C291.192 44.1947 290.819 44.5733 290.542 45.064C290.275 45.5547 290.142 46.1307 290.142 46.792C290.142 47.4427 290.275 48.0187 290.542 48.52C290.819 49.0107 291.192 49.3947 291.661 49.672C292.142 49.9387 292.68 50.072 293.278 50.072ZM303.337 51.08C302.623 51.08 301.999 50.9467 301.465 50.68C300.932 50.4133 300.516 50.0133 300.217 49.48C299.929 48.9467 299.785 48.28 299.785 47.48V42.6H300.921V47.352C300.921 48.248 301.14 48.9253 301.577 49.384C302.025 49.832 302.649 50.056 303.449 50.056C304.036 50.056 304.543 49.9387 304.969 49.704C305.407 49.4587 305.737 49.1067 305.961 48.648C306.196 48.1893 306.313 47.64 306.313 47V42.6H307.449V51H306.361V48.696L306.537 49.112C306.271 49.7307 305.855 50.216 305.289 50.568C304.735 50.9093 304.084 51.08 303.337 51.08ZM313.959 51.08C313.159 51.08 312.439 50.8987 311.799 50.536C311.17 50.1733 310.674 49.672 310.311 49.032C309.949 48.3813 309.767 47.6347 309.767 46.792C309.767 45.9387 309.949 45.192 310.311 44.552C310.674 43.912 311.17 43.416 311.799 43.064C312.439 42.7013 313.159 42.52 313.959 42.52C314.695 42.52 315.351 42.6853 315.927 43.016C316.514 43.3467 316.978 43.832 317.319 44.472C317.671 45.1013 317.847 45.8747 317.847 46.792C317.847 47.6987 317.677 48.472 317.335 49.112C316.994 49.752 316.53 50.2427 315.943 50.584C315.367 50.9147 314.706 51.08 313.959 51.08ZM314.039 50.072C314.637 50.072 315.17 49.9387 315.639 49.672C316.119 49.3947 316.493 49.0107 316.759 48.52C317.037 48.0187 317.175 47.4427 317.175 46.792C317.175 46.1307 317.037 45.5547 316.759 45.064C316.493 44.5733 316.119 44.1947 315.639 43.928C315.17 43.6507 314.637 43.512 314.039 43.512C313.453 43.512 312.925 43.6507 312.455 43.928C311.986 44.1947 311.613 44.5733 311.335 45.064C311.058 45.5547 310.919 46.1307 310.919 46.792C310.919 47.4427 311.058 48.0187 311.335 48.52C311.613 49.0107 311.986 49.3947 312.455 49.672C312.925 49.9387 313.453 50.072 314.039 50.072ZM317.207 51V48.472L317.319 46.776L317.159 45.08V39.128H318.295V51H317.207ZM325.043 54.184C324.275 54.184 323.539 54.072 322.835 53.848C322.131 53.624 321.56 53.304 321.123 52.888L321.699 52.024C322.094 52.376 322.579 52.6533 323.155 52.856C323.742 53.0693 324.36 53.176 325.011 53.176C326.078 53.176 326.862 52.9253 327.363 52.424C327.864 51.9333 328.115 51.1653 328.115 50.12V48.024L328.275 46.584L328.163 45.144V42.6H329.251V49.976C329.251 51.4267 328.894 52.488 328.179 53.16C327.475 53.8427 326.43 54.184 325.043 54.184ZM324.835 50.68C324.035 50.68 323.315 50.5093 322.675 50.168C322.035 49.816 321.528 49.3307 321.155 48.712C320.792 48.0933 320.611 47.384 320.611 46.584C320.611 45.784 320.792 45.08 321.155 44.472C321.528 43.8533 322.035 43.3733 322.675 43.032C323.315 42.6907 324.035 42.52 324.835 42.52C325.582 42.52 326.254 42.6747 326.851 42.984C327.448 43.2933 327.923 43.752 328.275 44.36C328.627 44.968 328.803 45.7093 328.803 46.584C328.803 47.4587 328.627 48.2 328.275 48.808C327.923 49.416 327.448 49.88 326.851 50.2C326.254 50.52 325.582 50.68 324.835 50.68ZM324.947 49.672C325.566 49.672 326.115 49.544 326.595 49.288C327.075 49.0213 327.454 48.6587 327.731 48.2C328.008 47.7307 328.147 47.192 328.147 46.584C328.147 45.976 328.008 45.4427 327.731 44.984C327.454 44.5253 327.075 44.168 326.595 43.912C326.115 43.6453 325.566 43.512 324.947 43.512C324.339 43.512 323.79 43.6453 323.299 43.912C322.819 44.168 322.44 44.5253 322.163 44.984C321.896 45.4427 321.763 45.976 321.763 46.584C321.763 47.192 321.896 47.7307 322.163 48.2C322.44 48.6587 322.819 49.0213 323.299 49.288C323.79 49.544 324.339 49.672 324.947 49.672ZM335.98 51.08C335.105 51.08 334.337 50.8987 333.676 50.536C333.015 50.1627 332.497 49.656 332.124 49.016C331.751 48.3653 331.564 47.624 331.564 46.792C331.564 45.96 331.74 45.224 332.092 44.584C332.455 43.944 332.945 43.4427 333.564 43.08C334.193 42.7067 334.897 42.52 335.676 42.52C336.465 42.52 337.164 42.7013 337.772 43.064C338.391 43.416 338.876 43.9173 339.228 44.568C339.58 45.208 339.756 45.9493 339.756 46.792C339.756 46.8453 339.751 46.904 339.74 46.968C339.74 47.0213 339.74 47.08 339.74 47.144H332.428V46.296H339.132L338.684 46.632C338.684 46.024 338.551 45.4853 338.284 45.016C338.028 44.536 337.676 44.1627 337.228 43.896C336.78 43.6293 336.263 43.496 335.676 43.496C335.1 43.496 334.583 43.6293 334.124 43.896C333.665 44.1627 333.308 44.536 333.052 45.016C332.796 45.496 332.668 46.0453 332.668 46.664V46.84C332.668 47.48 332.807 48.0453 333.084 48.536C333.372 49.016 333.767 49.3947 334.268 49.672C334.78 49.9387 335.361 50.072 336.012 50.072C336.524 50.072 336.999 49.9813 337.436 49.8C337.884 49.6187 338.268 49.3413 338.588 48.968L339.228 49.704C338.855 50.152 338.385 50.4933 337.82 50.728C337.265 50.9627 336.652 51.08 335.98 51.08ZM344.724 51.08C343.935 51.08 343.327 50.8667 342.9 50.44C342.474 50.0133 342.26 49.4107 342.26 48.632V40.744H343.396V48.568C343.396 49.0587 343.519 49.4373 343.764 49.704C344.02 49.9707 344.383 50.104 344.852 50.104C345.354 50.104 345.77 49.96 346.1 49.672L346.5 50.488C346.276 50.6907 346.004 50.84 345.684 50.936C345.375 51.032 345.055 51.08 344.724 51.08ZM340.756 43.544V42.6H345.956V43.544H340.756ZM348.837 51.08C348.602 51.08 348.399 50.9947 348.229 50.824C348.069 50.6533 347.989 50.4453 347.989 50.2C347.989 49.944 348.069 49.736 348.229 49.576C348.399 49.416 348.602 49.336 348.837 49.336C349.071 49.336 349.269 49.416 349.429 49.576C349.599 49.736 349.685 49.944 349.685 50.2C349.685 50.4453 349.599 50.6533 349.429 50.824C349.269 50.9947 349.071 51.08 348.837 51.08ZM358.719 51V40.824H354.783V39.8H363.839V40.824H359.903V51H358.719ZM369.778 42.52C370.461 42.52 371.058 42.6533 371.57 42.92C372.093 43.176 372.498 43.5707 372.786 44.104C373.085 44.6373 373.234 45.3093 373.234 46.12V51H372.098V46.232C372.098 45.3467 371.874 44.68 371.426 44.232C370.989 43.7733 370.37 43.544 369.57 43.544C368.973 43.544 368.45 43.6667 368.002 43.912C367.565 44.1467 367.224 44.4933 366.978 44.952C366.744 45.4 366.626 45.944 366.626 46.584V51H365.49V39.128H366.626V44.904L366.402 44.472C366.669 43.864 367.096 43.3893 367.682 43.048C368.269 42.696 368.968 42.52 369.778 42.52ZM379.871 51.08C378.996 51.08 378.228 50.8987 377.567 50.536C376.905 50.1627 376.388 49.656 376.015 49.016C375.641 48.3653 375.455 47.624 375.455 46.792C375.455 45.96 375.631 45.224 375.983 44.584C376.345 43.944 376.836 43.4427 377.455 43.08C378.084 42.7067 378.788 42.52 379.567 42.52C380.356 42.52 381.055 42.7013 381.663 43.064C382.281 43.416 382.767 43.9173 383.119 44.568C383.471 45.208 383.647 45.9493 383.647 46.792C383.647 46.8453 383.641 46.904 383.631 46.968C383.631 47.0213 383.631 47.08 383.631 47.144H376.319V46.296H383.023L382.575 46.632C382.575 46.024 382.441 45.4853 382.175 45.016C381.919 44.536 381.567 44.1627 381.119 43.896C380.671 43.6293 380.153 43.496 379.567 43.496C378.991 43.496 378.473 43.6293 378.015 43.896C377.556 44.1627 377.199 44.536 376.943 45.016C376.687 45.496 376.559 46.0453 376.559 46.664V46.84C376.559 47.48 376.697 48.0453 376.975 48.536C377.263 49.016 377.657 49.3947 378.159 49.672C378.671 49.9387 379.252 50.072 379.903 50.072C380.415 50.072 380.889 49.9813 381.327 49.8C381.775 49.6187 382.159 49.3413 382.479 48.968L383.119 49.704C382.745 50.152 382.276 50.4933 381.711 50.728C381.156 50.9627 380.543 51.08 379.871 51.08ZM385.959 51V42.6H387.047V44.888L386.935 44.488C387.17 43.848 387.564 43.3627 388.119 43.032C388.674 42.6907 389.362 42.52 390.183 42.52V43.624C390.14 43.624 390.098 43.624 390.055 43.624C390.012 43.6133 389.97 43.608 389.927 43.608C389.042 43.608 388.348 43.88 387.847 44.424C387.346 44.9573 387.095 45.72 387.095 46.712V51H385.959ZM395.746 51.08C394.871 51.08 394.103 50.8987 393.442 50.536C392.78 50.1627 392.263 49.656 391.89 49.016C391.516 48.3653 391.33 47.624 391.33 46.792C391.33 45.96 391.506 45.224 391.858 44.584C392.22 43.944 392.711 43.4427 393.33 43.08C393.959 42.7067 394.663 42.52 395.442 42.52C396.231 42.52 396.93 42.7013 397.538 43.064C398.156 43.416 398.642 43.9173 398.994 44.568C399.346 45.208 399.522 45.9493 399.522 46.792C399.522 46.8453 399.516 46.904 399.506 46.968C399.506 47.0213 399.506 47.08 399.506 47.144H392.194V46.296H398.898L398.45 46.632C398.45 46.024 398.316 45.4853 398.05 45.016C397.794 44.536 397.442 44.1627 396.994 43.896C396.546 43.6293 396.028 43.496 395.442 43.496C394.866 43.496 394.348 43.6293 393.89 43.896C393.431 44.1627 393.074 44.536 392.818 45.016C392.562 45.496 392.434 46.0453 392.434 46.664V46.84C392.434 47.48 392.572 48.0453 392.85 48.536C393.138 49.016 393.532 49.3947 394.034 49.672C394.546 49.9387 395.127 50.072 395.778 50.072C396.29 50.072 396.764 49.9813 397.202 49.8C397.65 49.6187 398.034 49.3413 398.354 48.968L398.994 49.704C398.62 50.152 398.151 50.4933 397.586 50.728C397.031 50.9627 396.418 51.08 395.746 51.08ZM401.115 43.032L401.819 40.088L401.947 40.76C401.701 40.76 401.493 40.6853 401.323 40.536C401.163 40.376 401.083 40.168 401.083 39.912C401.083 39.656 401.163 39.448 401.323 39.288C401.493 39.128 401.696 39.048 401.931 39.048C402.176 39.048 402.373 39.1333 402.523 39.304C402.683 39.464 402.763 39.6667 402.763 39.912C402.763 39.9973 402.757 40.0827 402.747 40.168C402.736 40.2533 402.715 40.3493 402.683 40.456C402.661 40.552 402.624 40.6747 402.571 40.824L401.883 43.032H401.115ZM407.199 51.08C406.506 51.08 405.85 50.984 405.231 50.792C404.613 50.5893 404.127 50.3387 403.775 50.04L404.287 49.144C404.629 49.4 405.066 49.624 405.599 49.816C406.133 49.9973 406.693 50.088 407.279 50.088C408.079 50.088 408.655 49.9653 409.007 49.72C409.359 49.464 409.535 49.128 409.535 48.712C409.535 48.4027 409.434 48.1627 409.231 47.992C409.039 47.8107 408.783 47.6773 408.463 47.592C408.143 47.496 407.786 47.416 407.391 47.352C406.997 47.288 406.602 47.2133 406.207 47.128C405.823 47.0427 405.471 46.92 405.151 46.76C404.831 46.5893 404.57 46.36 404.367 46.072C404.175 45.784 404.079 45.4 404.079 44.92C404.079 44.4613 404.207 44.0507 404.463 43.688C404.719 43.3253 405.093 43.0427 405.583 42.84C406.085 42.6267 406.693 42.52 407.407 42.52C407.951 42.52 408.495 42.5947 409.039 42.744C409.583 42.8827 410.031 43.0693 410.383 43.304L409.887 44.216C409.514 43.96 409.114 43.7787 408.687 43.672C408.261 43.5547 407.834 43.496 407.407 43.496C406.65 43.496 406.09 43.6293 405.727 43.896C405.375 44.152 405.199 44.4827 405.199 44.888C405.199 45.208 405.295 45.4587 405.487 45.64C405.69 45.8213 405.951 45.9653 406.271 46.072C406.602 46.168 406.959 46.248 407.343 46.312C407.738 46.376 408.127 46.456 408.511 46.552C408.906 46.6373 409.263 46.76 409.583 46.92C409.914 47.0693 410.175 47.288 410.367 47.576C410.57 47.8533 410.671 48.2213 410.671 48.68C410.671 49.1707 410.533 49.5973 410.255 49.96C409.989 50.312 409.594 50.5893 409.071 50.792C408.559 50.984 407.935 51.08 407.199 51.08ZM107.848 71V69.144L107.8 68.84V65.736C107.8 65.0213 107.597 64.472 107.192 64.088C106.797 63.704 106.205 63.512 105.416 63.512C104.872 63.512 104.355 63.6027 103.864 63.784C103.373 63.9653 102.957 64.2053 102.616 64.504L102.104 63.656C102.531 63.2933 103.043 63.016 103.64 62.824C104.237 62.6213 104.867 62.52 105.528 62.52C106.616 62.52 107.453 62.792 108.04 63.336C108.637 63.8693 108.936 64.6853 108.936 65.784V71H107.848ZM104.952 71.08C104.323 71.08 103.773 70.9787 103.304 70.776C102.845 70.5627 102.493 70.2747 102.248 69.912C102.003 69.5387 101.88 69.112 101.88 68.632C101.88 68.1947 101.981 67.8 102.184 67.448C102.397 67.0853 102.739 66.7973 103.208 66.584C103.688 66.36 104.328 66.248 105.128 66.248H108.024V67.096H105.16C104.349 67.096 103.784 67.24 103.464 67.528C103.155 67.816 103 68.1733 103 68.6C103 69.08 103.187 69.464 103.56 69.752C103.933 70.04 104.456 70.184 105.128 70.184C105.768 70.184 106.317 70.04 106.776 69.752C107.245 69.4533 107.587 69.0267 107.8 68.472L108.056 69.256C107.843 69.8107 107.469 70.2533 106.936 70.584C106.413 70.9147 105.752 71.08 104.952 71.08ZM112.022 71V59.128H113.158V71H112.022ZM118.03 71L114.862 62.6H115.95L118.83 70.392H118.334L121.294 62.6H122.27L125.198 70.392H124.702L127.63 62.6H128.67L125.486 71H124.414L121.598 63.672H121.934L119.102 71H118.03ZM135.395 71V69.144L135.347 68.84V65.736C135.347 65.0213 135.144 64.472 134.739 64.088C134.344 63.704 133.752 63.512 132.963 63.512C132.419 63.512 131.902 63.6027 131.411 63.784C130.92 63.9653 130.504 64.2053 130.163 64.504L129.651 63.656C130.078 63.2933 130.59 63.016 131.187 62.824C131.784 62.6213 132.414 62.52 133.075 62.52C134.163 62.52 135 62.792 135.587 63.336C136.184 63.8693 136.483 64.6853 136.483 65.784V71H135.395ZM132.499 71.08C131.87 71.08 131.32 70.9787 130.851 70.776C130.392 70.5627 130.04 70.2747 129.795 69.912C129.55 69.5387 129.427 69.112 129.427 68.632C129.427 68.1947 129.528 67.8 129.731 67.448C129.944 67.0853 130.286 66.7973 130.755 66.584C131.235 66.36 131.875 66.248 132.675 66.248H135.571V67.096H132.707C131.896 67.096 131.331 67.24 131.011 67.528C130.702 67.816 130.547 68.1733 130.547 68.6C130.547 69.08 130.734 69.464 131.107 69.752C131.48 70.04 132.003 70.184 132.675 70.184C133.315 70.184 133.864 70.04 134.323 69.752C134.792 69.4533 135.134 69.0267 135.347 68.472L135.603 69.256C135.39 69.8107 135.016 70.2533 134.483 70.584C133.96 70.9147 133.299 71.08 132.499 71.08ZM139.476 74.184C139.081 74.184 138.703 74.12 138.34 73.992C137.988 73.864 137.684 73.672 137.428 73.416L137.956 72.568C138.169 72.7707 138.399 72.9253 138.644 73.032C138.9 73.1493 139.183 73.208 139.492 73.208C139.865 73.208 140.185 73.1013 140.452 72.888C140.729 72.6853 140.991 72.3227 141.236 71.8L141.78 70.568L141.908 70.392L145.364 62.6H146.484L142.276 72.008C142.041 72.552 141.78 72.984 141.492 73.304C141.215 73.624 140.911 73.848 140.58 73.976C140.249 74.1147 139.881 74.184 139.476 74.184ZM141.716 71.24L137.844 62.6H139.028L142.452 70.312L141.716 71.24ZM150.246 71.08C149.553 71.08 148.897 70.984 148.278 70.792C147.66 70.5893 147.174 70.3387 146.822 70.04L147.334 69.144C147.676 69.4 148.113 69.624 148.646 69.816C149.18 69.9973 149.74 70.088 150.326 70.088C151.126 70.088 151.702 69.9653 152.054 69.72C152.406 69.464 152.582 69.128 152.582 68.712C152.582 68.4027 152.481 68.1627 152.278 67.992C152.086 67.8107 151.83 67.6773 151.51 67.592C151.19 67.496 150.833 67.416 150.438 67.352C150.044 67.288 149.649 67.2133 149.254 67.128C148.87 67.0427 148.518 66.92 148.198 66.76C147.878 66.5893 147.617 66.36 147.414 66.072C147.222 65.784 147.126 65.4 147.126 64.92C147.126 64.4613 147.254 64.0507 147.51 63.688C147.766 63.3253 148.14 63.0427 148.63 62.84C149.132 62.6267 149.74 62.52 150.454 62.52C150.998 62.52 151.542 62.5947 152.086 62.744C152.63 62.8827 153.078 63.0693 153.43 63.304L152.934 64.216C152.561 63.96 152.161 63.7787 151.734 63.672C151.308 63.5547 150.881 63.496 150.454 63.496C149.697 63.496 149.137 63.6293 148.774 63.896C148.422 64.152 148.246 64.4827 148.246 64.888C148.246 65.208 148.342 65.4587 148.534 65.64C148.737 65.8213 148.998 65.9653 149.318 66.072C149.649 66.168 150.006 66.248 150.39 66.312C150.785 66.376 151.174 66.456 151.558 66.552C151.953 66.6373 152.31 66.76 152.63 66.92C152.961 67.0693 153.222 67.288 153.414 67.576C153.617 67.8533 153.718 68.2213 153.718 68.68C153.718 69.1707 153.58 69.5973 153.302 69.96C153.036 70.312 152.641 70.5893 152.118 70.792C151.606 70.984 150.982 71.08 150.246 71.08ZM162.246 71.08C161.553 71.08 160.897 70.984 160.278 70.792C159.66 70.5893 159.174 70.3387 158.822 70.04L159.334 69.144C159.676 69.4 160.113 69.624 160.646 69.816C161.18 69.9973 161.74 70.088 162.326 70.088C163.126 70.088 163.702 69.9653 164.054 69.72C164.406 69.464 164.582 69.128 164.582 68.712C164.582 68.4027 164.481 68.1627 164.278 67.992C164.086 67.8107 163.83 67.6773 163.51 67.592C163.19 67.496 162.833 67.416 162.438 67.352C162.044 67.288 161.649 67.2133 161.254 67.128C160.87 67.0427 160.518 66.92 160.198 66.76C159.878 66.5893 159.617 66.36 159.414 66.072C159.222 65.784 159.126 65.4 159.126 64.92C159.126 64.4613 159.254 64.0507 159.51 63.688C159.766 63.3253 160.14 63.0427 160.63 62.84C161.132 62.6267 161.74 62.52 162.454 62.52C162.998 62.52 163.542 62.5947 164.086 62.744C164.63 62.8827 165.078 63.0693 165.43 63.304L164.934 64.216C164.561 63.96 164.161 63.7787 163.734 63.672C163.308 63.5547 162.881 63.496 162.454 63.496C161.697 63.496 161.137 63.6293 160.774 63.896C160.422 64.152 160.246 64.4827 160.246 64.888C160.246 65.208 160.342 65.4587 160.534 65.64C160.737 65.8213 160.998 65.9653 161.318 66.072C161.649 66.168 162.006 66.248 162.39 66.312C162.785 66.376 163.174 66.456 163.558 66.552C163.953 66.6373 164.31 66.76 164.63 66.92C164.961 67.0693 165.222 67.288 165.414 67.576C165.617 67.8533 165.718 68.2213 165.718 68.68C165.718 69.1707 165.58 69.5973 165.302 69.96C165.036 70.312 164.641 70.5893 164.118 70.792C163.606 70.984 162.982 71.08 162.246 71.08ZM171.227 71.08C170.416 71.08 169.685 70.8987 169.035 70.536C168.395 70.1627 167.888 69.656 167.515 69.016C167.141 68.3653 166.955 67.624 166.955 66.792C166.955 65.9493 167.141 65.208 167.515 64.568C167.888 63.928 168.395 63.4267 169.035 63.064C169.675 62.7013 170.405 62.52 171.227 62.52C172.059 62.52 172.795 62.7013 173.435 63.064C174.085 63.4267 174.592 63.928 174.955 64.568C175.328 65.208 175.515 65.9493 175.515 66.792C175.515 67.624 175.328 68.3653 174.955 69.016C174.592 69.656 174.085 70.1627 173.435 70.536C172.784 70.8987 172.048 71.08 171.227 71.08ZM171.227 70.072C171.835 70.072 172.373 69.9387 172.843 69.672C173.312 69.3947 173.68 69.0107 173.947 68.52C174.224 68.0187 174.363 67.4427 174.363 66.792C174.363 66.1307 174.224 65.5547 173.947 65.064C173.68 64.5733 173.312 64.1947 172.843 63.928C172.373 63.6507 171.84 63.512 171.243 63.512C170.645 63.512 170.112 63.6507 169.643 63.928C169.173 64.1947 168.8 64.5733 168.523 65.064C168.245 65.5547 168.107 66.1307 168.107 66.792C168.107 67.4427 168.245 68.0187 168.523 68.52C168.8 69.0107 169.173 69.3947 169.643 69.672C170.112 69.9387 170.64 70.072 171.227 70.072ZM188.33 62.52C189.013 62.52 189.605 62.6533 190.106 62.92C190.618 63.176 191.013 63.5707 191.29 64.104C191.578 64.6373 191.722 65.3093 191.722 66.12V71H190.586V66.232C190.586 65.3467 190.373 64.68 189.946 64.232C189.53 63.7733 188.938 63.544 188.17 63.544C187.594 63.544 187.093 63.6667 186.666 63.912C186.25 64.1467 185.925 64.4933 185.69 64.952C185.466 65.4 185.354 65.944 185.354 66.584V71H184.218V66.232C184.218 65.3467 184.005 64.68 183.578 64.232C183.151 63.7733 182.554 63.544 181.786 63.544C181.221 63.544 180.725 63.6667 180.298 63.912C179.871 64.1467 179.541 64.4933 179.306 64.952C179.082 65.4 178.97 65.944 178.97 66.584V71H177.834V62.6H178.922V64.872L178.746 64.472C179.002 63.864 179.413 63.3893 179.978 63.048C180.554 62.696 181.231 62.52 182.01 62.52C182.831 62.52 183.53 62.728 184.106 63.144C184.682 63.5493 185.055 64.1627 185.226 64.984L184.778 64.808C185.023 64.1253 185.455 63.576 186.074 63.16C186.703 62.7333 187.455 62.52 188.33 62.52ZM198.371 71.08C197.496 71.08 196.728 70.8987 196.067 70.536C195.405 70.1627 194.888 69.656 194.515 69.016C194.141 68.3653 193.955 67.624 193.955 66.792C193.955 65.96 194.131 65.224 194.483 64.584C194.845 63.944 195.336 63.4427 195.955 63.08C196.584 62.7067 197.288 62.52 198.067 62.52C198.856 62.52 199.555 62.7013 200.163 63.064C200.781 63.416 201.267 63.9173 201.619 64.568C201.971 65.208 202.147 65.9493 202.147 66.792C202.147 66.8453 202.141 66.904 202.131 66.968C202.131 67.0213 202.131 67.08 202.131 67.144H194.819V66.296H201.523L201.075 66.632C201.075 66.024 200.941 65.4853 200.675 65.016C200.419 64.536 200.067 64.1627 199.619 63.896C199.171 63.6293 198.653 63.496 198.067 63.496C197.491 63.496 196.973 63.6293 196.515 63.896C196.056 64.1627 195.699 64.536 195.443 65.016C195.187 65.496 195.059 66.0453 195.059 66.664V66.84C195.059 67.48 195.197 68.0453 195.475 68.536C195.763 69.016 196.157 69.3947 196.659 69.672C197.171 69.9387 197.752 70.072 198.403 70.072C198.915 70.072 199.389 69.9813 199.827 69.8C200.275 69.6187 200.659 69.3413 200.979 68.968L201.619 69.704C201.245 70.152 200.776 70.4933 200.211 70.728C199.656 70.9627 199.043 71.08 198.371 71.08ZM207.115 71.08C206.326 71.08 205.718 70.8667 205.291 70.44C204.864 70.0133 204.651 69.4107 204.651 68.632V60.744H205.787V68.568C205.787 69.0587 205.91 69.4373 206.155 69.704C206.411 69.9707 206.774 70.104 207.243 70.104C207.744 70.104 208.16 69.96 208.491 69.672L208.891 70.488C208.667 70.6907 208.395 70.84 208.075 70.936C207.766 71.032 207.446 71.08 207.115 71.08ZM203.147 63.544V62.6H208.347V63.544H203.147ZM215.247 62.52C215.93 62.52 216.527 62.6533 217.039 62.92C217.562 63.176 217.967 63.5707 218.255 64.104C218.554 64.6373 218.703 65.3093 218.703 66.12V71H217.567V66.232C217.567 65.3467 217.343 64.68 216.895 64.232C216.458 63.7733 215.839 63.544 215.039 63.544C214.442 63.544 213.919 63.6667 213.471 63.912C213.034 64.1467 212.692 64.4933 212.447 64.952C212.212 65.4 212.095 65.944 212.095 66.584V71H210.959V59.128H212.095V64.904L211.871 64.472C212.138 63.864 212.564 63.3893 213.151 63.048C213.738 62.696 214.436 62.52 215.247 62.52ZM221.772 71V62.6H222.908V71H221.772ZM222.348 60.744C222.113 60.744 221.916 60.664 221.756 60.504C221.596 60.344 221.516 60.152 221.516 59.928C221.516 59.704 221.596 59.5173 221.756 59.368C221.916 59.208 222.113 59.128 222.348 59.128C222.582 59.128 222.78 59.2027 222.94 59.352C223.1 59.5013 223.18 59.688 223.18 59.912C223.18 60.1467 223.1 60.344 222.94 60.504C222.79 60.664 222.593 60.744 222.348 60.744ZM230.356 62.52C231.039 62.52 231.636 62.6533 232.148 62.92C232.671 63.176 233.076 63.5707 233.364 64.104C233.663 64.6373 233.812 65.3093 233.812 66.12V71H232.676V66.232C232.676 65.3467 232.452 64.68 232.004 64.232C231.567 63.7733 230.948 63.544 230.148 63.544C229.551 63.544 229.028 63.6667 228.58 63.912C228.143 64.1467 227.802 64.4933 227.556 64.952C227.322 65.4 227.204 65.944 227.204 66.584V71H226.068V62.6H227.156V64.904L226.98 64.472C227.247 63.864 227.674 63.3893 228.26 63.048C228.847 62.696 229.546 62.52 230.356 62.52ZM240.465 74.184C239.697 74.184 238.961 74.072 238.257 73.848C237.553 73.624 236.982 73.304 236.545 72.888L237.121 72.024C237.516 72.376 238.001 72.6533 238.577 72.856C239.164 73.0693 239.782 73.176 240.433 73.176C241.5 73.176 242.284 72.9253 242.785 72.424C243.286 71.9333 243.537 71.1653 243.537 70.12V68.024L243.697 66.584L243.585 65.144V62.6H244.673V69.976C244.673 71.4267 244.316 72.488 243.601 73.16C242.897 73.8427 241.852 74.184 240.465 74.184ZM240.257 70.68C239.457 70.68 238.737 70.5093 238.097 70.168C237.457 69.816 236.95 69.3307 236.577 68.712C236.214 68.0933 236.033 67.384 236.033 66.584C236.033 65.784 236.214 65.08 236.577 64.472C236.95 63.8533 237.457 63.3733 238.097 63.032C238.737 62.6907 239.457 62.52 240.257 62.52C241.004 62.52 241.676 62.6747 242.273 62.984C242.87 63.2933 243.345 63.752 243.697 64.36C244.049 64.968 244.225 65.7093 244.225 66.584C244.225 67.4587 244.049 68.2 243.697 68.808C243.345 69.416 242.87 69.88 242.273 70.2C241.676 70.52 241.004 70.68 240.257 70.68ZM240.369 69.672C240.988 69.672 241.537 69.544 242.017 69.288C242.497 69.0213 242.876 68.6587 243.153 68.2C243.43 67.7307 243.569 67.192 243.569 66.584C243.569 65.976 243.43 65.4427 243.153 64.984C242.876 64.5253 242.497 64.168 242.017 63.912C241.537 63.6453 240.988 63.512 240.369 63.512C239.761 63.512 239.212 63.6453 238.721 63.912C238.241 64.168 237.862 64.5253 237.585 64.984C237.318 65.4427 237.185 65.976 237.185 66.584C237.185 67.192 237.318 67.7307 237.585 68.2C237.862 68.6587 238.241 69.0213 238.721 69.288C239.212 69.544 239.761 69.672 240.369 69.672ZM254.678 71.08C253.888 71.08 253.28 70.8667 252.854 70.44C252.427 70.0133 252.214 69.4107 252.214 68.632V60.744H253.35V68.568C253.35 69.0587 253.472 69.4373 253.718 69.704C253.974 69.9707 254.336 70.104 254.806 70.104C255.307 70.104 255.723 69.96 256.054 69.672L256.454 70.488C256.23 70.6907 255.958 70.84 255.638 70.936C255.328 71.032 255.008 71.08 254.678 71.08ZM250.71 63.544V62.6H255.91V63.544H250.71ZM262.81 62.52C263.492 62.52 264.09 62.6533 264.602 62.92C265.124 63.176 265.53 63.5707 265.818 64.104C266.116 64.6373 266.266 65.3093 266.266 66.12V71H265.13V66.232C265.13 65.3467 264.906 64.68 264.458 64.232C264.02 63.7733 263.402 63.544 262.602 63.544C262.004 63.544 261.482 63.6667 261.034 63.912C260.596 64.1467 260.255 64.4933 260.01 64.952C259.775 65.4 259.658 65.944 259.658 66.584V71H258.522V59.128H259.658V64.904L259.434 64.472C259.7 63.864 260.127 63.3893 260.714 63.048C261.3 62.696 261.999 62.52 262.81 62.52ZM274.598 71V69.144L274.55 68.84V65.736C274.55 65.0213 274.347 64.472 273.942 64.088C273.547 63.704 272.955 63.512 272.166 63.512C271.622 63.512 271.105 63.6027 270.614 63.784C270.123 63.9653 269.707 64.2053 269.366 64.504L268.854 63.656C269.281 63.2933 269.793 63.016 270.39 62.824C270.987 62.6213 271.617 62.52 272.278 62.52C273.366 62.52 274.203 62.792 274.79 63.336C275.387 63.8693 275.686 64.6853 275.686 65.784V71H274.598ZM271.702 71.08C271.073 71.08 270.523 70.9787 270.054 70.776C269.595 70.5627 269.243 70.2747 268.998 69.912C268.753 69.5387 268.63 69.112 268.63 68.632C268.63 68.1947 268.731 67.8 268.934 67.448C269.147 67.0853 269.489 66.7973 269.958 66.584C270.438 66.36 271.078 66.248 271.878 66.248H274.774V67.096H271.91C271.099 67.096 270.534 67.24 270.214 67.528C269.905 67.816 269.75 68.1733 269.75 68.6C269.75 69.08 269.937 69.464 270.31 69.752C270.683 70.04 271.206 70.184 271.878 70.184C272.518 70.184 273.067 70.04 273.526 69.752C273.995 69.4533 274.337 69.0267 274.55 68.472L274.806 69.256C274.593 69.8107 274.219 70.2533 273.686 70.584C273.163 70.9147 272.502 71.08 271.702 71.08ZM281.428 71.08C280.638 71.08 280.03 70.8667 279.604 70.44C279.177 70.0133 278.964 69.4107 278.964 68.632V60.744H280.1V68.568C280.1 69.0587 280.222 69.4373 280.468 69.704C280.724 69.9707 281.086 70.104 281.556 70.104C282.057 70.104 282.473 69.96 282.804 69.672L283.204 70.488C282.98 70.6907 282.708 70.84 282.388 70.936C282.078 71.032 281.758 71.08 281.428 71.08ZM277.46 63.544V62.6H282.66V63.544H277.46ZM292.947 71.08C292.115 71.08 291.368 70.8987 290.707 70.536C290.056 70.1627 289.544 69.656 289.171 69.016C288.798 68.3653 288.611 67.624 288.611 66.792C288.611 65.9493 288.798 65.208 289.171 64.568C289.544 63.928 290.056 63.4267 290.707 63.064C291.368 62.7013 292.115 62.52 292.947 62.52C293.662 62.52 294.307 62.6587 294.883 62.936C295.459 63.2133 295.912 63.6293 296.243 64.184L295.395 64.76C295.107 64.3333 294.75 64.0187 294.323 63.816C293.896 63.6133 293.432 63.512 292.931 63.512C292.334 63.512 291.795 63.6507 291.315 63.928C290.835 64.1947 290.456 64.5733 290.179 65.064C289.902 65.5547 289.763 66.1307 289.763 66.792C289.763 67.4533 289.902 68.0293 290.179 68.52C290.456 69.0107 290.835 69.3947 291.315 69.672C291.795 69.9387 292.334 70.072 292.931 70.072C293.432 70.072 293.896 69.9707 294.323 69.768C294.75 69.5653 295.107 69.256 295.395 68.84L296.243 69.416C295.912 69.96 295.459 70.376 294.883 70.664C294.307 70.9413 293.662 71.08 292.947 71.08ZM301.758 71.08C300.947 71.08 300.217 70.8987 299.566 70.536C298.926 70.1627 298.419 69.656 298.046 69.016C297.673 68.3653 297.486 67.624 297.486 66.792C297.486 65.9493 297.673 65.208 298.046 64.568C298.419 63.928 298.926 63.4267 299.566 63.064C300.206 62.7013 300.937 62.52 301.758 62.52C302.59 62.52 303.326 62.7013 303.966 63.064C304.617 63.4267 305.123 63.928 305.486 64.568C305.859 65.208 306.046 65.9493 306.046 66.792C306.046 67.624 305.859 68.3653 305.486 69.016C305.123 69.656 304.617 70.1627 303.966 70.536C303.315 70.8987 302.579 71.08 301.758 71.08ZM301.758 70.072C302.366 70.072 302.905 69.9387 303.374 69.672C303.843 69.3947 304.211 69.0107 304.478 68.52C304.755 68.0187 304.894 67.4427 304.894 66.792C304.894 66.1307 304.755 65.5547 304.478 65.064C304.211 64.5733 303.843 64.1947 303.374 63.928C302.905 63.6507 302.371 63.512 301.774 63.512C301.177 63.512 300.643 63.6507 300.174 63.928C299.705 64.1947 299.331 64.5733 299.054 65.064C298.777 65.5547 298.638 66.1307 298.638 66.792C298.638 67.4427 298.777 68.0187 299.054 68.52C299.331 69.0107 299.705 69.3947 300.174 69.672C300.643 69.9387 301.171 70.072 301.758 70.072ZM318.861 62.52C319.544 62.52 320.136 62.6533 320.637 62.92C321.149 63.176 321.544 63.5707 321.821 64.104C322.109 64.6373 322.253 65.3093 322.253 66.12V71H321.117V66.232C321.117 65.3467 320.904 64.68 320.477 64.232C320.061 63.7733 319.469 63.544 318.701 63.544C318.125 63.544 317.624 63.6667 317.197 63.912C316.781 64.1467 316.456 64.4933 316.221 64.952C315.997 65.4 315.885 65.944 315.885 66.584V71H314.749V66.232C314.749 65.3467 314.536 64.68 314.109 64.232C313.683 63.7733 313.085 63.544 312.317 63.544C311.752 63.544 311.256 63.6667 310.829 63.912C310.403 64.1467 310.072 64.4933 309.837 64.952C309.613 65.4 309.501 65.944 309.501 66.584V71H308.365V62.6H309.453V64.872L309.277 64.472C309.533 63.864 309.944 63.3893 310.509 63.048C311.085 62.696 311.763 62.52 312.541 62.52C313.363 62.52 314.061 62.728 314.637 63.144C315.213 63.5493 315.587 64.1627 315.757 64.984L315.309 64.808C315.555 64.1253 315.987 63.576 316.605 63.16C317.235 62.7333 317.987 62.52 318.861 62.52ZM328.902 71.08C328.027 71.08 327.259 70.8987 326.598 70.536C325.937 70.1627 325.419 69.656 325.046 69.016C324.673 68.3653 324.486 67.624 324.486 66.792C324.486 65.96 324.662 65.224 325.014 64.584C325.377 63.944 325.867 63.4427 326.486 63.08C327.115 62.7067 327.819 62.52 328.598 62.52C329.387 62.52 330.086 62.7013 330.694 63.064C331.313 63.416 331.798 63.9173 332.15 64.568C332.502 65.208 332.678 65.9493 332.678 66.792C332.678 66.8453 332.673 66.904 332.662 66.968C332.662 67.0213 332.662 67.08 332.662 67.144H325.35V66.296H332.054L331.606 66.632C331.606 66.024 331.473 65.4853 331.206 65.016C330.95 64.536 330.598 64.1627 330.15 63.896C329.702 63.6293 329.185 63.496 328.598 63.496C328.022 63.496 327.505 63.6293 327.046 63.896C326.587 64.1627 326.23 64.536 325.974 65.016C325.718 65.496 325.59 66.0453 325.59 66.664V66.84C325.59 67.48 325.729 68.0453 326.006 68.536C326.294 69.016 326.689 69.3947 327.19 69.672C327.702 69.9387 328.283 70.072 328.934 70.072C329.446 70.072 329.921 69.9813 330.358 69.8C330.806 69.6187 331.19 69.3413 331.51 68.968L332.15 69.704C331.777 70.152 331.307 70.4933 330.742 70.728C330.187 70.9627 329.574 71.08 328.902 71.08ZM337.246 71.08C336.553 71.08 335.897 70.984 335.278 70.792C334.66 70.5893 334.174 70.3387 333.822 70.04L334.334 69.144C334.676 69.4 335.113 69.624 335.646 69.816C336.18 69.9973 336.74 70.088 337.326 70.088C338.126 70.088 338.702 69.9653 339.054 69.72C339.406 69.464 339.582 69.128 339.582 68.712C339.582 68.4027 339.481 68.1627 339.278 67.992C339.086 67.8107 338.83 67.6773 338.51 67.592C338.19 67.496 337.833 67.416 337.438 67.352C337.044 67.288 336.649 67.2133 336.254 67.128C335.87 67.0427 335.518 66.92 335.198 66.76C334.878 66.5893 334.617 66.36 334.414 66.072C334.222 65.784 334.126 65.4 334.126 64.92C334.126 64.4613 334.254 64.0507 334.51 63.688C334.766 63.3253 335.14 63.0427 335.63 62.84C336.132 62.6267 336.74 62.52 337.454 62.52C337.998 62.52 338.542 62.5947 339.086 62.744C339.63 62.8827 340.078 63.0693 340.43 63.304L339.934 64.216C339.561 63.96 339.161 63.7787 338.734 63.672C338.308 63.5547 337.881 63.496 337.454 63.496C336.697 63.496 336.137 63.6293 335.774 63.896C335.422 64.152 335.246 64.4827 335.246 64.888C335.246 65.208 335.342 65.4587 335.534 65.64C335.737 65.8213 335.998 65.9653 336.318 66.072C336.649 66.168 337.006 66.248 337.39 66.312C337.785 66.376 338.174 66.456 338.558 66.552C338.953 66.6373 339.31 66.76 339.63 66.92C339.961 67.0693 340.222 67.288 340.414 67.576C340.617 67.8533 340.718 68.2213 340.718 68.68C340.718 69.1707 340.58 69.5973 340.302 69.96C340.036 70.312 339.641 70.5893 339.118 70.792C338.606 70.984 337.982 71.08 337.246 71.08ZM350.462 71.08C349.748 71.08 349.124 70.9467 348.59 70.68C348.057 70.4133 347.641 70.0133 347.342 69.48C347.054 68.9467 346.91 68.28 346.91 67.48V62.6H348.046V67.352C348.046 68.248 348.265 68.9253 348.702 69.384C349.15 69.832 349.774 70.056 350.574 70.056C351.161 70.056 351.668 69.9387 352.094 69.704C352.532 69.4587 352.862 69.1067 353.086 68.648C353.321 68.1893 353.438 67.64 353.438 67V62.6H354.574V71H353.486V68.696L353.662 69.112C353.396 69.7307 352.98 70.216 352.414 70.568C351.86 70.9093 351.209 71.08 350.462 71.08ZM362.076 71.08C361.351 71.08 360.695 70.9147 360.108 70.584C359.522 70.2427 359.052 69.7573 358.7 69.128C358.359 68.488 358.188 67.7093 358.188 66.792C358.188 65.8747 358.359 65.1013 358.7 64.472C359.042 63.832 359.506 63.3467 360.092 63.016C360.679 62.6853 361.34 62.52 362.076 62.52C362.876 62.52 363.591 62.7013 364.22 63.064C364.86 63.416 365.362 63.9173 365.724 64.568C366.087 65.208 366.268 65.9493 366.268 66.792C366.268 67.6453 366.087 68.392 365.724 69.032C365.362 69.672 364.86 70.1733 364.22 70.536C363.591 70.8987 362.876 71.08 362.076 71.08ZM357.74 74.104V62.6H358.828V65.128L358.716 66.808L358.876 68.504V74.104H357.74ZM361.996 70.072C362.594 70.072 363.127 69.9387 363.596 69.672C364.066 69.3947 364.439 69.0107 364.716 68.52C364.994 68.0187 365.132 67.4427 365.132 66.792C365.132 66.1413 364.994 65.5707 364.716 65.08C364.439 64.5893 364.066 64.2053 363.596 63.928C363.127 63.6507 362.594 63.512 361.996 63.512C361.399 63.512 360.86 63.6507 360.38 63.928C359.911 64.2053 359.538 64.5893 359.26 65.08C358.994 65.5707 358.86 66.1413 358.86 66.792C358.86 67.4427 358.994 68.0187 359.26 68.52C359.538 69.0107 359.911 69.3947 360.38 69.672C360.86 69.9387 361.399 70.072 361.996 70.072ZM367.865 63.032L368.569 60.088L368.697 60.76C368.451 60.76 368.243 60.6853 368.073 60.536C367.913 60.376 367.833 60.168 367.833 59.912C367.833 59.656 367.913 59.448 368.073 59.288C368.243 59.128 368.446 59.048 368.681 59.048C368.926 59.048 369.123 59.1333 369.273 59.304C369.433 59.464 369.513 59.6667 369.513 59.912C369.513 59.9973 369.507 60.0827 369.497 60.168C369.486 60.2533 369.465 60.3493 369.433 60.456C369.411 60.552 369.374 60.6747 369.321 60.824L368.633 63.032H367.865ZM370.585 63.032L371.289 60.088L371.417 60.76C371.171 60.76 370.963 60.6853 370.793 60.536C370.633 60.376 370.553 60.168 370.553 59.912C370.553 59.656 370.633 59.448 370.793 59.288C370.963 59.128 371.166 59.048 371.401 59.048C371.646 59.048 371.843 59.1333 371.993 59.304C372.153 59.464 372.233 59.6667 372.233 59.912C372.233 59.9973 372.227 60.0827 372.217 60.168C372.206 60.2533 372.185 60.3493 372.153 60.456C372.131 60.552 372.094 60.6747 372.041 60.824L371.353 63.032H370.585Z" fill="black"/>
<g clip-path="url(#clip0_134_8128)">
<g opacity="0.2">
<path fill-rule="evenodd" clip-rule="evenodd" d="M54.3248 34.6501C54.5018 34.6498 54.6741 34.7064 54.8164 34.8116C54.9588 34.9168 55.0635 35.0649 55.1152 35.2342L58.2964 45.6836L67.8086 49.1602C67.9655 49.2176 68.1012 49.3214 68.1978 49.4576C68.2944 49.5939 68.3474 49.7563 68.3497 49.9233C68.352 50.0904 68.3036 50.2542 68.2108 50.3931C68.118 50.532 67.9852 50.6394 67.8301 50.7013L58.3805 54.455L55.1152 65.411C55.0642 65.5811 54.9599 65.7302 54.8175 65.8362C54.6751 65.9422 54.5023 65.9994 54.3248 65.9994C54.1473 65.9994 53.9745 65.9422 53.8321 65.8362C53.6898 65.7302 53.5854 65.5811 53.5345 65.411L50.2691 54.455L40.8196 50.7013C40.6644 50.6394 40.5316 50.532 40.4388 50.3931C40.346 50.2542 40.2976 50.0904 40.2999 49.9233C40.3022 49.7563 40.3552 49.5939 40.4518 49.4576C40.5484 49.3214 40.6841 49.2176 40.841 49.1602L50.3533 45.6836L53.5361 35.2342C53.5877 35.0652 53.6922 34.9172 53.8342 34.8121C53.9761 34.7069 54.1481 34.6501 54.3248 34.6501Z" fill="#FFD53E"/>
<path d="M65.5944 65.9176C65.4129 65.9176 65.2644 65.7856 65.2479 65.6206C64.9179 62.3206 64.6704 61.2646 61.5684 60.9841C61.4821 60.9766 61.4017 60.9367 61.3436 60.8724C61.2854 60.8082 61.2538 60.7243 61.2549 60.6376C61.2549 60.4561 61.3869 60.3076 61.5684 60.2911C64.7034 59.9941 64.9179 59.1361 65.2479 55.9186C65.2644 55.7371 65.4129 55.6051 65.5944 55.6051C65.7759 55.6051 65.9244 55.7371 65.9409 55.9021C66.2709 59.1361 66.4854 59.9941 69.6204 60.2746C69.8019 60.2911 69.9339 60.4396 69.9339 60.6211C69.9339 60.8026 69.8019 60.9511 69.6204 60.9676C66.5349 61.2646 66.2709 62.3206 65.9574 65.6041C65.9409 65.7856 65.7924 65.9176 65.6109 65.9176H65.5944Z" fill="#FFD53E"/>
</g>
<path fill-rule="evenodd" clip-rule="evenodd" d="M51.8502 33.825C52.0272 33.8247 52.1995 33.8814 52.3418 33.9865C52.4841 34.0917 52.5889 34.2399 52.6405 34.4091L55.8217 44.8586L65.334 48.3351C65.4909 48.3926 65.6266 48.4963 65.7232 48.6326C65.8198 48.7689 65.8728 48.9313 65.8751 49.0983C65.8774 49.2653 65.829 49.4291 65.7362 49.568C65.6434 49.7069 65.5106 49.8144 65.3554 49.8762L55.9059 53.63L52.6405 64.586C52.5896 64.756 52.4852 64.9051 52.3429 65.0111C52.2005 65.1171 52.0277 65.1744 51.8502 65.1744C51.6727 65.1744 51.4999 65.1171 51.3575 65.0111C51.2151 64.9051 51.1107 64.756 51.0598 64.586L47.7945 53.63L38.3449 49.8762C38.1897 49.8144 38.057 49.7069 37.9642 49.568C37.8714 49.4291 37.823 49.2653 37.8253 49.0983C37.8276 48.9313 37.8806 48.7689 37.9772 48.6326C38.0738 48.4963 38.2095 48.3926 38.3664 48.3351L47.8786 44.8586L51.0615 34.4091C51.1131 34.2401 51.2176 34.0922 51.3595 33.987C51.5015 33.8819 51.6735 33.8251 51.8502 33.825ZM51.8502 37.4814L49.3372 45.7314C49.3 45.8537 49.2348 45.9656 49.1469 46.0584C49.059 46.1512 48.9508 46.2222 48.8307 46.266L40.9651 49.1436L48.7762 52.2456C48.892 52.2918 48.9957 52.3636 49.0798 52.4556C49.1638 52.5476 49.2259 52.6575 49.2613 52.7769L51.8518 61.4625L54.439 52.7769C54.4745 52.6575 54.5366 52.5476 54.6206 52.4556C54.7046 52.3636 54.8084 52.2918 54.9241 52.2456L62.7352 49.1436L54.8697 46.2693C54.7496 46.2255 54.6414 46.1545 54.5535 46.0617C54.4655 45.9689 54.4004 45.857 54.3631 45.7347L51.8502 37.4814Z" fill="#FFD53E"/>
<path d="M64.638 64.548C64.473 64.548 64.3245 64.416 64.308 64.251C64.011 61.248 63.78 60.291 61.0245 60.027C60.8595 60.0105 60.7275 59.862 60.7275 59.697C60.7275 59.532 60.8595 59.3835 61.0245 59.367C63.846 59.103 64.011 58.377 64.308 55.374C64.308 55.209 64.473 55.077 64.638 55.077C64.803 55.077 64.9515 55.209 64.968 55.374C65.265 58.377 65.4465 59.103 68.2515 59.367C68.4165 59.3835 68.5485 59.532 68.5485 59.697C68.5485 59.862 68.4165 60.0105 68.2515 60.027C65.4795 60.291 65.265 61.248 64.968 64.2675C64.968 64.4325 64.8195 64.5645 64.638 64.5645V64.548Z" fill="#FFD53E"/>
</g>
</g>
<defs>
<filter id="filter0_d_134_8128" x="0" y="0" width="513" height="129" filterUnits="userSpaceOnUse" color-interpolation-filters="sRGB">
<feFlood flood-opacity="0" result="BackgroundImageFix"/>
<feColorMatrix in="SourceAlpha" type="matrix" values="0 0 0 0 0 0 0 0 0 0 0 0 0 0 0 0 0 0 127 0" result="hardAlpha"/>
<feOffset dx="4" dy="8"/>
<feGaussianBlur stdDeviation="6"/>
<feComposite in2="hardAlpha" operator="out"/>
<feColorMatrix type="matrix" values="0 0 0 0 0.160784 0 0 0 0 0.188235 0 0 0 0 0.301961 0 0 0 0.2 0"/>
<feBlend mode="normal" in2="BackgroundImageFix" result="effect1_dropShadow_134_8128"/>
<feBlend mode="normal" in="SourceGraphic" in2="effect1_dropShadow_134_8128" result="shape"/>
</filter>
<clipPath id="clip0_134_8128">
<rect width="33" height="33" fill="white" transform="translate(37 33)"/>
</clipPath>
</defs>
</svg>
