<svg width="513" height="133" viewBox="0 0 513 133" fill="none" xmlns="http://www.w3.org/2000/svg">
<g filter="url(#filter0_d_134_8101)">
<rect x="8" y="4" width="489" height="109" rx="30" fill="#EBEFFF"/>
<path d="M95.496 39.128L94.792 42.088L94.664 41.4C94.92 41.4 95.128 41.48 95.288 41.64C95.448 41.7893 95.528 41.992 95.528 42.248C95.528 42.504 95.448 42.712 95.288 42.872C95.128 43.032 94.9307 43.112 94.696 43.112C94.44 43.112 94.232 43.032 94.072 42.872C93.9227 42.7013 93.848 42.4933 93.848 42.248C93.848 42.152 93.8533 42.0667 93.864 41.992C93.8747 41.9173 93.896 41.8267 93.928 41.72C93.96 41.6133 94.0027 41.4853 94.056 41.336L94.728 39.128H95.496ZM98.216 39.128L97.512 42.088L97.384 41.4C97.64 41.4 97.848 41.48 98.008 41.64C98.168 41.7893 98.248 41.992 98.248 42.248C98.248 42.504 98.168 42.712 98.008 42.872C97.848 43.032 97.6507 43.112 97.416 43.112C97.16 43.112 96.952 43.032 96.792 42.872C96.6427 42.7013 96.568 42.4933 96.568 42.248C96.568 42.152 96.5733 42.0667 96.584 41.992C96.5947 41.9173 96.616 41.8267 96.648 41.72C96.68 41.6133 96.7227 41.4853 96.776 41.336L97.448 39.128H98.216ZM100.933 51V39.8H102.117V51H100.933ZM113.181 51.08C112.466 51.08 111.842 50.9467 111.309 50.68C110.776 50.4133 110.36 50.0133 110.061 49.48C109.773 48.9467 109.629 48.28 109.629 47.48V42.6H110.765V47.352C110.765 48.248 110.984 48.9253 111.421 49.384C111.869 49.832 112.493 50.056 113.293 50.056C113.88 50.056 114.386 49.9387 114.813 49.704C115.25 49.4587 115.581 49.1067 115.805 48.648C116.04 48.1893 116.157 47.64 116.157 47V42.6H117.293V51H116.205V48.696L116.381 49.112C116.114 49.7307 115.698 50.216 115.133 50.568C114.578 50.9093 113.928 51.08 113.181 51.08ZM122.715 51.08C122.022 51.08 121.366 50.984 120.747 50.792C120.128 50.5893 119.643 50.3387 119.291 50.04L119.803 49.144C120.144 49.4 120.582 49.624 121.115 49.816C121.648 49.9973 122.208 50.088 122.795 50.088C123.595 50.088 124.171 49.9653 124.523 49.72C124.875 49.464 125.051 49.128 125.051 48.712C125.051 48.4027 124.95 48.1627 124.747 47.992C124.555 47.8107 124.299 47.6773 123.979 47.592C123.659 47.496 123.302 47.416 122.907 47.352C122.512 47.288 122.118 47.2133 121.723 47.128C121.339 47.0427 120.987 46.92 120.667 46.76C120.347 46.5893 120.086 46.36 119.883 46.072C119.691 45.784 119.595 45.4 119.595 44.92C119.595 44.4613 119.723 44.0507 119.979 43.688C120.235 43.3253 120.608 43.0427 121.099 42.84C121.6 42.6267 122.208 42.52 122.923 42.52C123.467 42.52 124.011 42.5947 124.555 42.744C125.099 42.8827 125.547 43.0693 125.899 43.304L125.403 44.216C125.03 43.96 124.63 43.7787 124.203 43.672C123.776 43.5547 123.35 43.496 122.923 43.496C122.166 43.496 121.606 43.6293 121.243 43.896C120.891 44.152 120.715 44.4827 120.715 44.888C120.715 45.208 120.811 45.4587 121.003 45.64C121.206 45.8213 121.467 45.9653 121.787 46.072C122.118 46.168 122.475 46.248 122.859 46.312C123.254 46.376 123.643 46.456 124.027 46.552C124.422 46.6373 124.779 46.76 125.099 46.92C125.43 47.0693 125.691 47.288 125.883 47.576C126.086 47.8533 126.187 48.2213 126.187 48.68C126.187 49.1707 126.048 49.5973 125.771 49.96C125.504 50.312 125.11 50.5893 124.587 50.792C124.075 50.984 123.451 51.08 122.715 51.08ZM131.84 51.08C130.965 51.08 130.197 50.8987 129.536 50.536C128.874 50.1627 128.357 49.656 127.984 49.016C127.61 48.3653 127.424 47.624 127.424 46.792C127.424 45.96 127.6 45.224 127.952 44.584C128.314 43.944 128.805 43.4427 129.424 43.08C130.053 42.7067 130.757 42.52 131.536 42.52C132.325 42.52 133.024 42.7013 133.632 43.064C134.25 43.416 134.736 43.9173 135.088 44.568C135.44 45.208 135.616 45.9493 135.616 46.792C135.616 46.8453 135.61 46.904 135.6 46.968C135.6 47.0213 135.6 47.08 135.6 47.144H128.288V46.296H134.992L134.544 46.632C134.544 46.024 134.41 45.4853 134.144 45.016C133.888 44.536 133.536 44.1627 133.088 43.896C132.64 43.6293 132.122 43.496 131.536 43.496C130.96 43.496 130.442 43.6293 129.984 43.896C129.525 44.1627 129.168 44.536 128.912 45.016C128.656 45.496 128.528 46.0453 128.528 46.664V46.84C128.528 47.48 128.666 48.0453 128.944 48.536C129.232 49.016 129.626 49.3947 130.128 49.672C130.64 49.9387 131.221 50.072 131.872 50.072C132.384 50.072 132.858 49.9813 133.296 49.8C133.744 49.6187 134.128 49.3413 134.448 48.968L135.088 49.704C134.714 50.152 134.245 50.4933 133.68 50.728C133.125 50.9627 132.512 51.08 131.84 51.08ZM142.355 51V39.8H146.547C147.497 39.8 148.313 39.9547 148.995 40.264C149.678 40.5627 150.201 41 150.563 41.576C150.937 42.1413 151.123 42.8293 151.123 43.64C151.123 44.4293 150.937 45.112 150.563 45.688C150.201 46.2533 149.678 46.6907 148.995 47C148.313 47.2987 147.497 47.448 146.547 47.448H143.011L143.539 46.904V51H142.355ZM150.003 51L147.123 46.936H148.403L151.299 51H150.003ZM143.539 47L143.011 46.44H146.515C147.635 46.44 148.483 46.1947 149.059 45.704C149.646 45.2133 149.939 44.5253 149.939 43.64C149.939 42.744 149.646 42.0507 149.059 41.56C148.483 41.0693 147.635 40.824 146.515 40.824H143.011L143.539 40.264V47ZM157.102 51.08C156.291 51.08 155.56 50.8987 154.91 50.536C154.27 50.1627 153.763 49.656 153.39 49.016C153.016 48.3653 152.83 47.624 152.83 46.792C152.83 45.9493 153.016 45.208 153.39 44.568C153.763 43.928 154.27 43.4267 154.91 43.064C155.55 42.7013 156.28 42.52 157.102 42.52C157.934 42.52 158.67 42.7013 159.31 43.064C159.96 43.4267 160.467 43.928 160.83 44.568C161.203 45.208 161.39 45.9493 161.39 46.792C161.39 47.624 161.203 48.3653 160.83 49.016C160.467 49.656 159.96 50.1627 159.31 50.536C158.659 50.8987 157.923 51.08 157.102 51.08ZM157.102 50.072C157.71 50.072 158.248 49.9387 158.718 49.672C159.187 49.3947 159.555 49.0107 159.822 48.52C160.099 48.0187 160.238 47.4427 160.238 46.792C160.238 46.1307 160.099 45.5547 159.822 45.064C159.555 44.5733 159.187 44.1947 158.718 43.928C158.248 43.6507 157.715 43.512 157.118 43.512C156.52 43.512 155.987 43.6507 155.518 43.928C155.048 44.1947 154.675 44.5733 154.398 45.064C154.12 45.5547 153.982 46.1307 153.982 46.792C153.982 47.4427 154.12 48.0187 154.398 48.52C154.675 49.0107 155.048 49.3947 155.518 49.672C155.987 49.9387 156.515 50.072 157.102 50.072ZM167.197 51.08C166.365 51.08 165.618 50.8987 164.957 50.536C164.306 50.1627 163.794 49.656 163.421 49.016C163.048 48.3653 162.861 47.624 162.861 46.792C162.861 45.9493 163.048 45.208 163.421 44.568C163.794 43.928 164.306 43.4267 164.957 43.064C165.618 42.7013 166.365 42.52 167.197 42.52C167.912 42.52 168.557 42.6587 169.133 42.936C169.709 43.2133 170.162 43.6293 170.493 44.184L169.645 44.76C169.357 44.3333 169 44.0187 168.573 43.816C168.146 43.6133 167.682 43.512 167.181 43.512C166.584 43.512 166.045 43.6507 165.565 43.928C165.085 44.1947 164.706 44.5733 164.429 45.064C164.152 45.5547 164.013 46.1307 164.013 46.792C164.013 47.4533 164.152 48.0293 164.429 48.52C164.706 49.0107 165.085 49.3947 165.565 49.672C166.045 49.9387 166.584 50.072 167.181 50.072C167.682 50.072 168.146 49.9707 168.573 49.768C169 49.5653 169.357 49.256 169.645 48.84L170.493 49.416C170.162 49.96 169.709 50.376 169.133 50.664C168.557 50.9413 167.912 51.08 167.197 51.08ZM173.496 48.824L173.528 47.368L178.76 42.6H180.152L176.456 46.136L175.816 46.68L173.496 48.824ZM172.6 51V39.128H173.736V51H172.6ZM179.112 51L175.608 46.632L176.344 45.752L180.504 51H179.112ZM185.449 51.08C184.574 51.08 183.806 50.8987 183.145 50.536C182.484 50.1627 181.966 49.656 181.593 49.016C181.22 48.3653 181.033 47.624 181.033 46.792C181.033 45.96 181.209 45.224 181.561 44.584C181.924 43.944 182.414 43.4427 183.033 43.08C183.662 42.7067 184.366 42.52 185.145 42.52C185.934 42.52 186.633 42.7013 187.241 43.064C187.86 43.416 188.345 43.9173 188.697 44.568C189.049 45.208 189.225 45.9493 189.225 46.792C189.225 46.8453 189.22 46.904 189.209 46.968C189.209 47.0213 189.209 47.08 189.209 47.144H181.897V46.296H188.601L188.153 46.632C188.153 46.024 188.02 45.4853 187.753 45.016C187.497 44.536 187.145 44.1627 186.697 43.896C186.249 43.6293 185.732 43.496 185.145 43.496C184.569 43.496 184.052 43.6293 183.593 43.896C183.134 44.1627 182.777 44.536 182.521 45.016C182.265 45.496 182.137 46.0453 182.137 46.664V46.84C182.137 47.48 182.276 48.0453 182.553 48.536C182.841 49.016 183.236 49.3947 183.737 49.672C184.249 49.9387 184.83 50.072 185.481 50.072C185.993 50.072 186.468 49.9813 186.905 49.8C187.353 49.6187 187.737 49.3413 188.057 48.968L188.697 49.704C188.324 50.152 187.854 50.4933 187.289 50.728C186.734 50.9627 186.121 51.08 185.449 51.08ZM194.193 51.08C193.404 51.08 192.796 50.8667 192.369 50.44C191.942 50.0133 191.729 49.4107 191.729 48.632V40.744H192.865V48.568C192.865 49.0587 192.988 49.4373 193.233 49.704C193.489 49.9707 193.852 50.104 194.321 50.104C194.822 50.104 195.238 49.96 195.569 49.672L195.969 50.488C195.745 50.6907 195.473 50.84 195.153 50.936C194.844 51.032 194.524 51.08 194.193 51.08ZM190.225 43.544V42.6H195.425V43.544H190.225ZM212.721 42.52C213.403 42.52 213.995 42.6533 214.497 42.92C215.009 43.176 215.403 43.5707 215.681 44.104C215.969 44.6373 216.113 45.3093 216.113 46.12V51H214.977V46.232C214.977 45.3467 214.763 44.68 214.337 44.232C213.921 43.7733 213.329 43.544 212.561 43.544C211.985 43.544 211.483 43.6667 211.057 43.912C210.641 44.1467 210.315 44.4933 210.081 44.952C209.857 45.4 209.745 45.944 209.745 46.584V51H208.609V46.232C208.609 45.3467 208.395 44.68 207.969 44.232C207.542 43.7733 206.945 43.544 206.177 43.544C205.611 43.544 205.115 43.6667 204.689 43.912C204.262 44.1467 203.931 44.4933 203.697 44.952C203.473 45.4 203.361 45.944 203.361 46.584V51H202.225V42.6H203.313V44.872L203.137 44.472C203.393 43.864 203.803 43.3893 204.369 43.048C204.945 42.696 205.622 42.52 206.401 42.52C207.222 42.52 207.921 42.728 208.497 43.144C209.073 43.5493 209.446 44.1627 209.617 44.984L209.169 44.808C209.414 44.1253 209.846 43.576 210.465 43.16C211.094 42.7333 211.846 42.52 212.721 42.52ZM222.617 51.08C221.807 51.08 221.076 50.8987 220.425 50.536C219.785 50.1627 219.279 49.656 218.905 49.016C218.532 48.3653 218.345 47.624 218.345 46.792C218.345 45.9493 218.532 45.208 218.905 44.568C219.279 43.928 219.785 43.4267 220.425 43.064C221.065 42.7013 221.796 42.52 222.617 42.52C223.449 42.52 224.185 42.7013 224.825 43.064C225.476 43.4267 225.983 43.928 226.345 44.568C226.719 45.208 226.905 45.9493 226.905 46.792C226.905 47.624 226.719 48.3653 226.345 49.016C225.983 49.656 225.476 50.1627 224.825 50.536C224.175 50.8987 223.439 51.08 222.617 51.08ZM222.617 50.072C223.225 50.072 223.764 49.9387 224.233 49.672C224.703 49.3947 225.071 49.0107 225.337 48.52C225.615 48.0187 225.753 47.4427 225.753 46.792C225.753 46.1307 225.615 45.5547 225.337 45.064C225.071 44.5733 224.703 44.1947 224.233 43.928C223.764 43.6507 223.231 43.512 222.633 43.512C222.036 43.512 221.503 43.6507 221.033 43.928C220.564 44.1947 220.191 44.5733 219.913 45.064C219.636 45.5547 219.497 46.1307 219.497 46.792C219.497 47.4427 219.636 48.0187 219.913 48.52C220.191 49.0107 220.564 49.3947 221.033 49.672C221.503 49.9387 222.031 50.072 222.617 50.072ZM233.513 42.52C234.195 42.52 234.793 42.6533 235.305 42.92C235.827 43.176 236.233 43.5707 236.521 44.104C236.819 44.6373 236.969 45.3093 236.969 46.12V51H235.833V46.232C235.833 45.3467 235.609 44.68 235.161 44.232C234.723 43.7733 234.105 43.544 233.305 43.544C232.707 43.544 232.185 43.6667 231.737 43.912C231.299 44.1467 230.958 44.4933 230.713 44.952C230.478 45.4 230.361 45.944 230.361 46.584V51H229.225V42.6H230.313V44.904L230.137 44.472C230.403 43.864 230.83 43.3893 231.417 43.048C232.003 42.696 232.702 42.52 233.513 42.52ZM243.605 51.08C242.73 51.08 241.962 50.8987 241.301 50.536C240.64 50.1627 240.122 49.656 239.749 49.016C239.376 48.3653 239.189 47.624 239.189 46.792C239.189 45.96 239.365 45.224 239.717 44.584C240.08 43.944 240.57 43.4427 241.189 43.08C241.818 42.7067 242.522 42.52 243.301 42.52C244.09 42.52 244.789 42.7013 245.397 43.064C246.016 43.416 246.501 43.9173 246.853 44.568C247.205 45.208 247.381 45.9493 247.381 46.792C247.381 46.8453 247.376 46.904 247.365 46.968C247.365 47.0213 247.365 47.08 247.365 47.144H240.053V46.296H246.757L246.309 46.632C246.309 46.024 246.176 45.4853 245.909 45.016C245.653 44.536 245.301 44.1627 244.853 43.896C244.405 43.6293 243.888 43.496 243.301 43.496C242.725 43.496 242.208 43.6293 241.749 43.896C241.29 44.1627 240.933 44.536 240.677 45.016C240.421 45.496 240.293 46.0453 240.293 46.664V46.84C240.293 47.48 240.432 48.0453 240.709 48.536C240.997 49.016 241.392 49.3947 241.893 49.672C242.405 49.9387 242.986 50.072 243.637 50.072C244.149 50.072 244.624 49.9813 245.061 49.8C245.509 49.6187 245.893 49.3413 246.213 48.968L246.853 49.704C246.48 50.152 246.01 50.4933 245.445 50.728C244.89 50.9627 244.277 51.08 243.605 51.08ZM249.601 54.184C249.206 54.184 248.828 54.12 248.465 53.992C248.113 53.864 247.809 53.672 247.553 53.416L248.081 52.568C248.294 52.7707 248.524 52.9253 248.769 53.032C249.025 53.1493 249.308 53.208 249.617 53.208C249.99 53.208 250.31 53.1013 250.577 52.888C250.854 52.6853 251.116 52.3227 251.361 51.8L251.905 50.568L252.033 50.392L255.489 42.6H256.609L252.401 52.008C252.166 52.552 251.905 52.984 251.617 53.304C251.34 53.624 251.036 53.848 250.705 53.976C250.374 54.1147 250.006 54.184 249.601 54.184ZM251.841 51.24L247.969 42.6H249.153L252.577 50.312L251.841 51.24ZM265.053 51.08C264.263 51.08 263.655 50.8667 263.229 50.44C262.802 50.0133 262.589 49.4107 262.589 48.632V40.744H263.725V48.568C263.725 49.0587 263.847 49.4373 264.093 49.704C264.349 49.9707 264.711 50.104 265.181 50.104C265.682 50.104 266.098 49.96 266.429 49.672L266.829 50.488C266.605 50.6907 266.333 50.84 266.013 50.936C265.703 51.032 265.383 51.08 265.053 51.08ZM261.085 43.544V42.6H266.285V43.544H261.085ZM272.024 51.08C271.213 51.08 270.482 50.8987 269.832 50.536C269.192 50.1627 268.685 49.656 268.312 49.016C267.938 48.3653 267.752 47.624 267.752 46.792C267.752 45.9493 267.938 45.208 268.312 44.568C268.685 43.928 269.192 43.4267 269.832 43.064C270.472 42.7013 271.202 42.52 272.024 42.52C272.856 42.52 273.592 42.7013 274.232 43.064C274.882 43.4267 275.389 43.928 275.752 44.568C276.125 45.208 276.312 45.9493 276.312 46.792C276.312 47.624 276.125 48.3653 275.752 49.016C275.389 49.656 274.882 50.1627 274.232 50.536C273.581 50.8987 272.845 51.08 272.024 51.08ZM272.024 50.072C272.632 50.072 273.17 49.9387 273.64 49.672C274.109 49.3947 274.477 49.0107 274.744 48.52C275.021 48.0187 275.16 47.4427 275.16 46.792C275.16 46.1307 275.021 45.5547 274.744 45.064C274.477 44.5733 274.109 44.1947 273.64 43.928C273.17 43.6507 272.637 43.512 272.04 43.512C271.442 43.512 270.909 43.6507 270.44 43.928C269.97 44.1947 269.597 44.5733 269.32 45.064C269.042 45.5547 268.904 46.1307 268.904 46.792C268.904 47.4427 269.042 48.0187 269.32 48.52C269.597 49.0107 269.97 49.3947 270.44 49.672C270.909 49.9387 271.437 50.072 272.024 50.072ZM286.306 51.08C285.474 51.08 284.728 50.8987 284.066 50.536C283.416 50.1627 282.904 49.656 282.53 49.016C282.157 48.3653 281.97 47.624 281.97 46.792C281.97 45.9493 282.157 45.208 282.53 44.568C282.904 43.928 283.416 43.4267 284.066 43.064C284.728 42.7013 285.474 42.52 286.306 42.52C287.021 42.52 287.666 42.6587 288.242 42.936C288.818 43.2133 289.272 43.6293 289.602 44.184L288.754 44.76C288.466 44.3333 288.109 44.0187 287.682 43.816C287.256 43.6133 286.792 43.512 286.29 43.512C285.693 43.512 285.154 43.6507 284.674 43.928C284.194 44.1947 283.816 44.5733 283.538 45.064C283.261 45.5547 283.122 46.1307 283.122 46.792C283.122 47.4533 283.261 48.0293 283.538 48.52C283.816 49.0107 284.194 49.3947 284.674 49.672C285.154 49.9387 285.693 50.072 286.29 50.072C286.792 50.072 287.256 49.9707 287.682 49.768C288.109 49.5653 288.466 49.256 288.754 48.84L289.602 49.416C289.272 49.96 288.818 50.376 288.242 50.664C287.666 50.9413 287.021 51.08 286.306 51.08ZM297.098 51V49.144L297.05 48.84V45.736C297.05 45.0213 296.847 44.472 296.442 44.088C296.047 43.704 295.455 43.512 294.666 43.512C294.122 43.512 293.605 43.6027 293.114 43.784C292.623 43.9653 292.207 44.2053 291.866 44.504L291.354 43.656C291.781 43.2933 292.293 43.016 292.89 42.824C293.487 42.6213 294.117 42.52 294.778 42.52C295.866 42.52 296.703 42.792 297.29 43.336C297.887 43.8693 298.186 44.6853 298.186 45.784V51H297.098ZM294.202 51.08C293.573 51.08 293.023 50.9787 292.554 50.776C292.095 50.5627 291.743 50.2747 291.498 49.912C291.253 49.5387 291.13 49.112 291.13 48.632C291.13 48.1947 291.231 47.8 291.434 47.448C291.647 47.0853 291.989 46.7973 292.458 46.584C292.938 46.36 293.578 46.248 294.378 46.248H297.274V47.096H294.41C293.599 47.096 293.034 47.24 292.714 47.528C292.405 47.816 292.25 48.1733 292.25 48.6C292.25 49.08 292.437 49.464 292.81 49.752C293.183 50.04 293.706 50.184 294.378 50.184C295.018 50.184 295.567 50.04 296.026 49.752C296.495 49.4533 296.837 49.0267 297.05 48.472L297.306 49.256C297.093 49.8107 296.719 50.2533 296.186 50.584C295.663 50.9147 295.002 51.08 294.202 51.08ZM305.56 42.52C306.242 42.52 306.84 42.6533 307.352 42.92C307.874 43.176 308.28 43.5707 308.568 44.104C308.866 44.6373 309.016 45.3093 309.016 46.12V51H307.88V46.232C307.88 45.3467 307.656 44.68 307.208 44.232C306.77 43.7733 306.152 43.544 305.352 43.544C304.754 43.544 304.232 43.6667 303.784 43.912C303.346 44.1467 303.005 44.4933 302.76 44.952C302.525 45.4 302.408 45.944 302.408 46.584V51H301.272V42.6H302.36V44.904L302.184 44.472C302.45 43.864 302.877 43.3893 303.464 43.048C304.05 42.696 304.749 42.52 305.56 42.52ZM315.572 51.08C314.74 51.08 313.993 50.8987 313.332 50.536C312.681 50.1627 312.169 49.656 311.796 49.016C311.423 48.3653 311.236 47.624 311.236 46.792C311.236 45.9493 311.423 45.208 311.796 44.568C312.169 43.928 312.681 43.4267 313.332 43.064C313.993 42.7013 314.74 42.52 315.572 42.52C316.287 42.52 316.932 42.6587 317.508 42.936C318.084 43.2133 318.537 43.6293 318.868 44.184L318.02 44.76C317.732 44.3333 317.375 44.0187 316.948 43.816C316.521 43.6133 316.057 43.512 315.556 43.512C314.959 43.512 314.42 43.6507 313.94 43.928C313.46 44.1947 313.081 44.5733 312.804 45.064C312.527 45.5547 312.388 46.1307 312.388 46.792C312.388 47.4533 312.527 48.0293 312.804 48.52C313.081 49.0107 313.46 49.3947 313.94 49.672C314.42 49.9387 314.959 50.072 315.556 50.072C316.057 50.072 316.521 49.9707 316.948 49.768C317.375 49.5653 317.732 49.256 318.02 48.84L318.868 49.416C318.537 49.96 318.084 50.376 317.508 50.664C316.932 50.9413 316.287 51.08 315.572 51.08ZM324.527 51.08C323.652 51.08 322.884 50.8987 322.223 50.536C321.562 50.1627 321.044 49.656 320.671 49.016C320.298 48.3653 320.111 47.624 320.111 46.792C320.111 45.96 320.287 45.224 320.639 44.584C321.002 43.944 321.492 43.4427 322.111 43.08C322.74 42.7067 323.444 42.52 324.223 42.52C325.012 42.52 325.711 42.7013 326.319 43.064C326.938 43.416 327.423 43.9173 327.775 44.568C328.127 45.208 328.303 45.9493 328.303 46.792C328.303 46.8453 328.298 46.904 328.287 46.968C328.287 47.0213 328.287 47.08 328.287 47.144H320.975V46.296H327.679L327.231 46.632C327.231 46.024 327.098 45.4853 326.831 45.016C326.575 44.536 326.223 44.1627 325.775 43.896C325.327 43.6293 324.81 43.496 324.223 43.496C323.647 43.496 323.13 43.6293 322.671 43.896C322.212 44.1627 321.855 44.536 321.599 45.016C321.343 45.496 321.215 46.0453 321.215 46.664V46.84C321.215 47.48 321.354 48.0453 321.631 48.536C321.919 49.016 322.314 49.3947 322.815 49.672C323.327 49.9387 323.908 50.072 324.559 50.072C325.071 50.072 325.546 49.9813 325.983 49.8C326.431 49.6187 326.815 49.3413 327.135 48.968L327.775 49.704C327.402 50.152 326.932 50.4933 326.367 50.728C325.812 50.9627 325.199 51.08 324.527 51.08ZM330.615 51V39.128H331.751V51H330.615ZM342.572 51.08C341.857 51.08 341.233 50.9467 340.7 50.68C340.166 50.4133 339.75 50.0133 339.452 49.48C339.164 48.9467 339.02 48.28 339.02 47.48V42.6H340.156V47.352C340.156 48.248 340.374 48.9253 340.812 49.384C341.26 49.832 341.884 50.056 342.684 50.056C343.27 50.056 343.777 49.9387 344.204 49.704C344.641 49.4587 344.972 49.1067 345.196 48.648C345.43 48.1893 345.548 47.64 345.548 47V42.6H346.684V51H345.596V48.696L345.772 49.112C345.505 49.7307 345.089 50.216 344.524 50.568C343.969 50.9093 343.318 51.08 342.572 51.08ZM354.138 42.52C354.82 42.52 355.418 42.6533 355.93 42.92C356.452 43.176 356.858 43.5707 357.146 44.104C357.444 44.6373 357.594 45.3093 357.594 46.12V51H356.458V46.232C356.458 45.3467 356.234 44.68 355.786 44.232C355.348 43.7733 354.73 43.544 353.93 43.544C353.332 43.544 352.81 43.6667 352.362 43.912C351.924 44.1467 351.583 44.4933 351.338 44.952C351.103 45.4 350.986 45.944 350.986 46.584V51H349.85V42.6H350.938V44.904L350.762 44.472C351.028 43.864 351.455 43.3893 352.042 43.048C352.628 42.696 353.327 42.52 354.138 42.52ZM362.218 51L359.05 42.6H360.138L363.018 50.392H362.522L365.482 42.6H366.458L369.386 50.392H368.89L371.818 42.6H372.858L369.674 51H368.602L365.786 43.672H366.122L363.29 51H362.218ZM379.582 51V49.144L379.534 48.84V45.736C379.534 45.0213 379.332 44.472 378.926 44.088C378.532 43.704 377.94 43.512 377.15 43.512C376.606 43.512 376.089 43.6027 375.598 43.784C375.108 43.9653 374.692 44.2053 374.35 44.504L373.838 43.656C374.265 43.2933 374.777 43.016 375.374 42.824C375.972 42.6213 376.601 42.52 377.262 42.52C378.35 42.52 379.188 42.792 379.774 43.336C380.372 43.8693 380.67 44.6853 380.67 45.784V51H379.582ZM376.686 51.08C376.057 51.08 375.508 50.9787 375.038 50.776C374.58 50.5627 374.228 50.2747 373.982 49.912C373.737 49.5387 373.614 49.112 373.614 48.632C373.614 48.1947 373.716 47.8 373.918 47.448C374.132 47.0853 374.473 46.7973 374.942 46.584C375.422 46.36 376.062 46.248 376.862 46.248H379.758V47.096H376.894C376.084 47.096 375.518 47.24 375.198 47.528C374.889 47.816 374.734 48.1733 374.734 48.6C374.734 49.08 374.921 49.464 375.294 49.752C375.668 50.04 376.19 50.184 376.862 50.184C377.502 50.184 378.052 50.04 378.51 49.752C378.98 49.4533 379.321 49.0267 379.534 48.472L379.79 49.256C379.577 49.8107 379.204 50.2533 378.67 50.584C378.148 50.9147 377.486 51.08 376.686 51.08ZM388.044 42.52C388.727 42.52 389.324 42.6533 389.836 42.92C390.359 43.176 390.764 43.5707 391.052 44.104C391.351 44.6373 391.5 45.3093 391.5 46.12V51H390.364V46.232C390.364 45.3467 390.14 44.68 389.692 44.232C389.255 43.7733 388.636 43.544 387.836 43.544C387.239 43.544 386.716 43.6667 386.268 43.912C385.831 44.1467 385.489 44.4933 385.244 44.952C385.009 45.4 384.892 45.944 384.892 46.584V51H383.756V42.6H384.844V44.904L384.668 44.472C384.935 43.864 385.361 43.3893 385.948 43.048C386.535 42.696 387.233 42.52 388.044 42.52ZM397.224 51.08C396.435 51.08 395.827 50.8667 395.4 50.44C394.974 50.0133 394.76 49.4107 394.76 48.632V40.744H395.896V48.568C395.896 49.0587 396.019 49.4373 396.264 49.704C396.52 49.9707 396.883 50.104 397.352 50.104C397.854 50.104 398.27 49.96 398.6 49.672L399 50.488C398.776 50.6907 398.504 50.84 398.184 50.936C397.875 51.032 397.555 51.08 397.224 51.08ZM393.256 43.544V42.6H398.456V43.544H393.256ZM404.34 51.08C403.465 51.08 402.697 50.8987 402.036 50.536C401.374 50.1627 400.857 49.656 400.484 49.016C400.11 48.3653 399.924 47.624 399.924 46.792C399.924 45.96 400.1 45.224 400.452 44.584C400.814 43.944 401.305 43.4427 401.924 43.08C402.553 42.7067 403.257 42.52 404.036 42.52C404.825 42.52 405.524 42.7013 406.132 43.064C406.75 43.416 407.236 43.9173 407.588 44.568C407.94 45.208 408.116 45.9493 408.116 46.792C408.116 46.8453 408.11 46.904 408.1 46.968C408.1 47.0213 408.1 47.08 408.1 47.144H400.788V46.296H407.492L407.044 46.632C407.044 46.024 406.91 45.4853 406.644 45.016C406.388 44.536 406.036 44.1627 405.588 43.896C405.14 43.6293 404.622 43.496 404.036 43.496C403.46 43.496 402.942 43.6293 402.484 43.896C402.025 44.1627 401.668 44.536 401.412 45.016C401.156 45.496 401.028 46.0453 401.028 46.664V46.84C401.028 47.48 401.166 48.0453 401.444 48.536C401.732 49.016 402.126 49.3947 402.628 49.672C403.14 49.9387 403.721 50.072 404.372 50.072C404.884 50.072 405.358 49.9813 405.796 49.8C406.244 49.6187 406.628 49.3413 406.948 48.968L407.588 49.704C407.214 50.152 406.745 50.4933 406.18 50.728C405.625 50.9627 405.012 51.08 404.34 51.08ZM413.772 51.08C412.972 51.08 412.252 50.8987 411.612 50.536C410.982 50.1733 410.486 49.672 410.124 49.032C409.761 48.3813 409.58 47.6347 409.58 46.792C409.58 45.9387 409.761 45.192 410.124 44.552C410.486 43.912 410.982 43.416 411.612 43.064C412.252 42.7013 412.972 42.52 413.772 42.52C414.508 42.52 415.164 42.6853 415.74 43.016C416.326 43.3467 416.79 43.832 417.132 44.472C417.484 45.1013 417.66 45.8747 417.66 46.792C417.66 47.6987 417.489 48.472 417.148 49.112C416.806 49.752 416.342 50.2427 415.756 50.584C415.18 50.9147 414.518 51.08 413.772 51.08ZM413.852 50.072C414.449 50.072 414.982 49.9387 415.452 49.672C415.932 49.3947 416.305 49.0107 416.572 48.52C416.849 48.0187 416.988 47.4427 416.988 46.792C416.988 46.1307 416.849 45.5547 416.572 45.064C416.305 44.5733 415.932 44.1947 415.452 43.928C414.982 43.6507 414.449 43.512 413.852 43.512C413.265 43.512 412.737 43.6507 412.268 43.928C411.798 44.1947 411.425 44.5733 411.148 45.064C410.87 45.5547 410.732 46.1307 410.732 46.792C410.732 47.4427 410.87 48.0187 411.148 48.52C411.425 49.0107 411.798 49.3947 412.268 49.672C412.737 49.9387 413.265 50.072 413.852 50.072ZM417.02 51V48.472L417.132 46.776L416.972 45.08V39.128H418.108V51H417.02ZM96.84 71.08C96.1467 71.08 95.4907 70.984 94.872 70.792C94.2533 70.5893 93.768 70.3387 93.416 70.04L93.928 69.144C94.2693 69.4 94.7067 69.624 95.24 69.816C95.7733 69.9973 96.3333 70.088 96.92 70.088C97.72 70.088 98.296 69.9653 98.648 69.72C99 69.464 99.176 69.128 99.176 68.712C99.176 68.4027 99.0747 68.1627 98.872 67.992C98.68 67.8107 98.424 67.6773 98.104 67.592C97.784 67.496 97.4267 67.416 97.032 67.352C96.6373 67.288 96.2427 67.2133 95.848 67.128C95.464 67.0427 95.112 66.92 94.792 66.76C94.472 66.5893 94.2107 66.36 94.008 66.072C93.816 65.784 93.72 65.4 93.72 64.92C93.72 64.4613 93.848 64.0507 94.104 63.688C94.36 63.3253 94.7333 63.0427 95.224 62.84C95.7253 62.6267 96.3333 62.52 97.048 62.52C97.592 62.52 98.136 62.5947 98.68 62.744C99.224 62.8827 99.672 63.0693 100.024 63.304L99.528 64.216C99.1547 63.96 98.7547 63.7787 98.328 63.672C97.9013 63.5547 97.4747 63.496 97.048 63.496C96.2907 63.496 95.7307 63.6293 95.368 63.896C95.016 64.152 94.84 64.4827 94.84 64.888C94.84 65.208 94.936 65.4587 95.128 65.64C95.3307 65.8213 95.592 65.9653 95.912 66.072C96.2427 66.168 96.6 66.248 96.984 66.312C97.3787 66.376 97.768 66.456 98.152 66.552C98.5467 66.6373 98.904 66.76 99.224 66.92C99.5547 67.0693 99.816 67.288 100.008 67.576C100.211 67.8533 100.312 68.2213 100.312 68.68C100.312 69.1707 100.173 69.5973 99.896 69.96C99.6293 70.312 99.2347 70.5893 98.712 70.792C98.2 70.984 97.576 71.08 96.84 71.08ZM105.869 71.08C105.154 71.08 104.53 70.9467 103.997 70.68C103.463 70.4133 103.047 70.0133 102.749 69.48C102.461 68.9467 102.317 68.28 102.317 67.48V62.6H103.453V67.352C103.453 68.248 103.671 68.9253 104.109 69.384C104.557 69.832 105.181 70.056 105.981 70.056C106.567 70.056 107.074 69.9387 107.501 69.704C107.938 69.4587 108.269 69.1067 108.493 68.648C108.727 68.1893 108.845 67.64 108.845 67V62.6H109.981V71H108.892V68.696L109.069 69.112C108.802 69.7307 108.386 70.216 107.821 70.568C107.266 70.9093 106.615 71.08 105.869 71.08ZM117.483 71.08C116.747 71.08 116.085 70.9147 115.499 70.584C114.912 70.2427 114.448 69.752 114.107 69.112C113.765 68.472 113.595 67.6987 113.595 66.792C113.595 65.8747 113.765 65.1013 114.107 64.472C114.459 63.832 114.928 63.3467 115.515 63.016C116.101 62.6853 116.757 62.52 117.483 62.52C118.283 62.52 118.997 62.7013 119.627 63.064C120.267 63.416 120.768 63.912 121.131 64.552C121.493 65.192 121.675 65.9387 121.675 66.792C121.675 67.6347 121.493 68.3813 121.131 69.032C120.768 69.672 120.267 70.1733 119.627 70.536C118.997 70.8987 118.283 71.08 117.483 71.08ZM113.147 71V59.128H114.283V65.08L114.123 66.776L114.235 68.472V71H113.147ZM117.403 70.072C118 70.072 118.533 69.9387 119.003 69.672C119.472 69.3947 119.845 69.0107 120.123 68.52C120.4 68.0187 120.539 67.4427 120.539 66.792C120.539 66.1307 120.4 65.5547 120.123 65.064C119.845 64.5733 119.472 64.1947 119.003 63.928C118.533 63.6507 118 63.512 117.403 63.512C116.805 63.512 116.267 63.6507 115.786 63.928C115.317 64.1947 114.944 64.5733 114.667 65.064C114.4 65.5547 114.267 66.1307 114.267 66.792C114.267 67.4427 114.4 68.0187 114.667 68.52C114.944 69.0107 115.317 69.3947 115.786 69.672C116.267 69.9387 116.805 70.072 117.403 70.072ZM126.246 71.08C125.553 71.08 124.897 70.984 124.278 70.792C123.66 70.5893 123.174 70.3387 122.822 70.04L123.334 69.144C123.676 69.4 124.113 69.624 124.646 69.816C125.18 69.9973 125.74 70.088 126.326 70.088C127.126 70.088 127.702 69.9653 128.054 69.72C128.406 69.464 128.582 69.128 128.582 68.712C128.582 68.4027 128.481 68.1627 128.278 67.992C128.086 67.8107 127.83 67.6773 127.51 67.592C127.19 67.496 126.833 67.416 126.438 67.352C126.044 67.288 125.649 67.2133 125.254 67.128C124.87 67.0427 124.518 66.92 124.198 66.76C123.878 66.5893 123.617 66.36 123.414 66.072C123.222 65.784 123.126 65.4 123.126 64.92C123.126 64.4613 123.254 64.0507 123.51 63.688C123.766 63.3253 124.14 63.0427 124.63 62.84C125.132 62.6267 125.74 62.52 126.454 62.52C126.998 62.52 127.542 62.5947 128.086 62.744C128.63 62.8827 129.078 63.0693 129.43 63.304L128.934 64.216C128.561 63.96 128.161 63.7787 127.734 63.672C127.308 63.5547 126.881 63.496 126.454 63.496C125.697 63.496 125.137 63.6293 124.774 63.896C124.422 64.152 124.246 64.4827 124.246 64.888C124.246 65.208 124.342 65.4587 124.534 65.64C124.737 65.8213 124.998 65.9653 125.318 66.072C125.649 66.168 126.006 66.248 126.39 66.312C126.785 66.376 127.174 66.456 127.558 66.552C127.953 66.6373 128.31 66.76 128.63 66.92C128.961 67.0693 129.222 67.288 129.414 67.576C129.617 67.8533 129.718 68.2213 129.718 68.68C129.718 69.1707 129.58 69.5973 129.302 69.96C129.036 70.312 128.641 70.5893 128.118 70.792C127.606 70.984 126.982 71.08 126.246 71.08ZM135.291 71.08C134.459 71.08 133.712 70.8987 133.051 70.536C132.4 70.1627 131.888 69.656 131.515 69.016C131.141 68.3653 130.955 67.624 130.955 66.792C130.955 65.9493 131.141 65.208 131.515 64.568C131.888 63.928 132.4 63.4267 133.051 63.064C133.712 62.7013 134.459 62.52 135.291 62.52C136.005 62.52 136.651 62.6587 137.227 62.936C137.803 63.2133 138.256 63.6293 138.587 64.184L137.739 64.76C137.451 64.3333 137.093 64.0187 136.667 63.816C136.24 63.6133 135.776 63.512 135.275 63.512C134.677 63.512 134.139 63.6507 133.659 63.928C133.179 64.1947 132.8 64.5733 132.523 65.064C132.245 65.5547 132.107 66.1307 132.107 66.792C132.107 67.4533 132.245 68.0293 132.523 68.52C132.8 69.0107 133.179 69.3947 133.659 69.672C134.139 69.9387 134.677 70.072 135.275 70.072C135.776 70.072 136.24 69.9707 136.667 69.768C137.093 69.5653 137.451 69.256 137.739 68.84L138.587 69.416C138.256 69.96 137.803 70.376 137.227 70.664C136.651 70.9413 136.005 71.08 135.291 71.08ZM140.818 71V62.6H141.906V64.888L141.794 64.488C142.029 63.848 142.424 63.3627 142.978 63.032C143.533 62.6907 144.221 62.52 145.042 62.52V63.624C145 63.624 144.957 63.624 144.914 63.624C144.872 63.6133 144.829 63.608 144.786 63.608C143.901 63.608 143.208 63.88 142.706 64.424C142.205 64.9573 141.954 65.72 141.954 66.712V71H140.818ZM147.115 71V62.6H148.251V71H147.115ZM147.691 60.744C147.457 60.744 147.259 60.664 147.099 60.504C146.939 60.344 146.859 60.152 146.859 59.928C146.859 59.704 146.939 59.5173 147.099 59.368C147.259 59.208 147.457 59.128 147.691 59.128C147.926 59.128 148.123 59.2027 148.283 59.352C148.443 59.5013 148.523 59.688 148.523 59.912C148.523 60.1467 148.443 60.344 148.283 60.504C148.134 60.664 147.937 60.744 147.691 60.744ZM155.748 71.08C155.023 71.08 154.367 70.9147 153.78 70.584C153.193 70.2427 152.724 69.7573 152.372 69.128C152.031 68.488 151.86 67.7093 151.86 66.792C151.86 65.8747 152.031 65.1013 152.372 64.472C152.713 63.832 153.177 63.3467 153.764 63.016C154.351 62.6853 155.012 62.52 155.748 62.52C156.548 62.52 157.263 62.7013 157.892 63.064C158.532 63.416 159.033 63.9173 159.396 64.568C159.759 65.208 159.94 65.9493 159.94 66.792C159.94 67.6453 159.759 68.392 159.396 69.032C159.033 69.672 158.532 70.1733 157.892 70.536C157.263 70.8987 156.548 71.08 155.748 71.08ZM151.412 74.104V62.6H152.5V65.128L152.388 66.808L152.548 68.504V74.104H151.412ZM155.668 70.072C156.265 70.072 156.799 69.9387 157.268 69.672C157.737 69.3947 158.111 69.0107 158.388 68.52C158.665 68.0187 158.804 67.4427 158.804 66.792C158.804 66.1413 158.665 65.5707 158.388 65.08C158.111 64.5893 157.737 64.2053 157.268 63.928C156.799 63.6507 156.265 63.512 155.668 63.512C155.071 63.512 154.532 63.6507 154.052 63.928C153.583 64.2053 153.209 64.5893 152.932 65.08C152.665 65.5707 152.532 66.1413 152.532 66.792C152.532 67.4427 152.665 68.0187 152.932 68.52C153.209 69.0107 153.583 69.3947 154.052 69.672C154.532 69.9387 155.071 70.072 155.668 70.072ZM164.912 71.08C164.123 71.08 163.515 70.8667 163.088 70.44C162.661 70.0133 162.448 69.4107 162.448 68.632V60.744H163.584V68.568C163.584 69.0587 163.707 69.4373 163.952 69.704C164.208 69.9707 164.571 70.104 165.04 70.104C165.541 70.104 165.957 69.96 166.288 69.672L166.688 70.488C166.464 70.6907 166.192 70.84 165.872 70.936C165.563 71.032 165.243 71.08 164.912 71.08ZM160.944 63.544V62.6H166.144V63.544H160.944ZM168.756 71V62.6H169.892V71H168.756ZM169.332 60.744C169.097 60.744 168.9 60.664 168.74 60.504C168.58 60.344 168.5 60.152 168.5 59.928C168.5 59.704 168.58 59.5173 168.74 59.368C168.9 59.208 169.097 59.128 169.332 59.128C169.567 59.128 169.764 59.2027 169.924 59.352C170.084 59.5013 170.164 59.688 170.164 59.912C170.164 60.1467 170.084 60.344 169.924 60.504C169.775 60.664 169.577 60.744 169.332 60.744ZM176.477 71.08C175.666 71.08 174.935 70.8987 174.285 70.536C173.645 70.1627 173.138 69.656 172.765 69.016C172.391 68.3653 172.205 67.624 172.205 66.792C172.205 65.9493 172.391 65.208 172.765 64.568C173.138 63.928 173.645 63.4267 174.285 63.064C174.925 62.7013 175.655 62.52 176.477 62.52C177.309 62.52 178.045 62.7013 178.685 63.064C179.335 63.4267 179.842 63.928 180.205 64.568C180.578 65.208 180.765 65.9493 180.765 66.792C180.765 67.624 180.578 68.3653 180.205 69.016C179.842 69.656 179.335 70.1627 178.685 70.536C178.034 70.8987 177.298 71.08 176.477 71.08ZM176.477 70.072C177.085 70.072 177.623 69.9387 178.093 69.672C178.562 69.3947 178.93 69.0107 179.197 68.52C179.474 68.0187 179.613 67.4427 179.613 66.792C179.613 66.1307 179.474 65.5547 179.197 65.064C178.93 64.5733 178.562 64.1947 178.093 63.928C177.623 63.6507 177.09 63.512 176.493 63.512C175.895 63.512 175.362 63.6507 174.893 63.928C174.423 64.1947 174.05 64.5733 173.773 65.064C173.495 65.5547 173.357 66.1307 173.357 66.792C173.357 67.4427 173.495 68.0187 173.773 68.52C174.05 69.0107 174.423 69.3947 174.893 69.672C175.362 69.9387 175.89 70.072 176.477 70.072ZM187.372 62.52C188.055 62.52 188.652 62.6533 189.164 62.92C189.687 63.176 190.092 63.5707 190.38 64.104C190.679 64.6373 190.828 65.3093 190.828 66.12V71H189.692V66.232C189.692 65.3467 189.468 64.68 189.02 64.232C188.583 63.7733 187.964 63.544 187.164 63.544C186.567 63.544 186.044 63.6667 185.596 63.912C185.159 64.1467 184.817 64.4933 184.572 64.952C184.337 65.4 184.22 65.944 184.22 66.584V71H183.084V62.6H184.172V64.904L183.996 64.472C184.263 63.864 184.689 63.3893 185.276 63.048C185.863 62.696 186.561 62.52 187.372 62.52ZM196.153 71.08C195.459 71.08 194.803 70.984 194.185 70.792C193.566 70.5893 193.081 70.3387 192.729 70.04L193.241 69.144C193.582 69.4 194.019 69.624 194.553 69.816C195.086 69.9973 195.646 70.088 196.233 70.088C197.033 70.088 197.609 69.9653 197.961 69.72C198.313 69.464 198.489 69.128 198.489 68.712C198.489 68.4027 198.387 68.1627 198.185 67.992C197.993 67.8107 197.737 67.6773 197.417 67.592C197.097 67.496 196.739 67.416 196.345 67.352C195.95 67.288 195.555 67.2133 195.161 67.128C194.777 67.0427 194.425 66.92 194.105 66.76C193.785 66.5893 193.523 66.36 193.321 66.072C193.129 65.784 193.033 65.4 193.033 64.92C193.033 64.4613 193.161 64.0507 193.417 63.688C193.673 63.3253 194.046 63.0427 194.537 62.84C195.038 62.6267 195.646 62.52 196.361 62.52C196.905 62.52 197.449 62.5947 197.993 62.744C198.537 62.8827 198.985 63.0693 199.337 63.304L198.841 64.216C198.467 63.96 198.067 63.7787 197.641 63.672C197.214 63.5547 196.787 63.496 196.361 63.496C195.603 63.496 195.043 63.6293 194.681 63.896C194.329 64.152 194.153 64.4827 194.153 64.888C194.153 65.208 194.249 65.4587 194.441 65.64C194.643 65.8213 194.905 65.9653 195.225 66.072C195.555 66.168 195.913 66.248 196.297 66.312C196.691 66.376 197.081 66.456 197.465 66.552C197.859 66.6373 198.217 66.76 198.537 66.92C198.867 67.0693 199.129 67.288 199.321 67.576C199.523 67.8533 199.625 68.2213 199.625 68.68C199.625 69.1707 199.486 69.5973 199.209 69.96C198.942 70.312 198.547 70.5893 198.025 70.792C197.513 70.984 196.889 71.08 196.153 71.08ZM211.161 71V69.144L211.113 68.84V65.736C211.113 65.0213 210.91 64.472 210.505 64.088C210.11 63.704 209.518 63.512 208.729 63.512C208.185 63.512 207.667 63.6027 207.177 63.784C206.686 63.9653 206.27 64.2053 205.929 64.504L205.417 63.656C205.843 63.2933 206.355 63.016 206.953 62.824C207.55 62.6213 208.179 62.52 208.841 62.52C209.929 62.52 210.766 62.792 211.353 63.336C211.95 63.8693 212.249 64.6853 212.249 65.784V71H211.161ZM208.265 71.08C207.635 71.08 207.086 70.9787 206.617 70.776C206.158 70.5627 205.806 70.2747 205.561 69.912C205.315 69.5387 205.193 69.112 205.193 68.632C205.193 68.1947 205.294 67.8 205.497 67.448C205.71 67.0853 206.051 66.7973 206.521 66.584C207.001 66.36 207.641 66.248 208.441 66.248H211.337V67.096H208.473C207.662 67.096 207.097 67.24 206.777 67.528C206.467 67.816 206.312 68.1733 206.312 68.6C206.312 69.08 206.499 69.464 206.873 69.752C207.246 70.04 207.769 70.184 208.441 70.184C209.081 70.184 209.63 70.04 210.089 69.752C210.558 69.4533 210.899 69.0267 211.113 68.472L211.369 69.256C211.155 69.8107 210.782 70.2533 210.249 70.584C209.726 70.9147 209.065 71.08 208.265 71.08ZM219.622 62.52C220.305 62.52 220.902 62.6533 221.414 62.92C221.937 63.176 222.342 63.5707 222.63 64.104C222.929 64.6373 223.078 65.3093 223.078 66.12V71H221.942V66.232C221.942 65.3467 221.718 64.68 221.27 64.232C220.833 63.7733 220.214 63.544 219.414 63.544C218.817 63.544 218.294 63.6667 217.846 63.912C217.409 64.1467 217.067 64.4933 216.822 64.952C216.587 65.4 216.47 65.944 216.47 66.584V71H215.334V62.6H216.422V64.904L216.246 64.472C216.513 63.864 216.939 63.3893 217.526 63.048C218.113 62.696 218.811 62.52 219.622 62.52ZM229.491 71.08C228.691 71.08 227.971 70.8987 227.331 70.536C226.701 70.1733 226.205 69.672 225.843 69.032C225.48 68.3813 225.299 67.6347 225.299 66.792C225.299 65.9387 225.48 65.192 225.843 64.552C226.205 63.912 226.701 63.416 227.331 63.064C227.971 62.7013 228.691 62.52 229.491 62.52C230.227 62.52 230.883 62.6853 231.459 63.016C232.045 63.3467 232.509 63.832 232.851 64.472C233.203 65.1013 233.378 65.8747 233.378 66.792C233.378 67.6987 233.208 68.472 232.867 69.112C232.525 69.752 232.061 70.2427 231.475 70.584C230.899 70.9147 230.237 71.08 229.491 71.08ZM229.571 70.072C230.168 70.072 230.701 69.9387 231.171 69.672C231.651 69.3947 232.024 69.0107 232.291 68.52C232.568 68.0187 232.707 67.4427 232.707 66.792C232.707 66.1307 232.568 65.5547 232.291 65.064C232.024 64.5733 231.651 64.1947 231.171 63.928C230.701 63.6507 230.168 63.512 229.571 63.512C228.984 63.512 228.456 63.6507 227.987 63.928C227.517 64.1947 227.144 64.5733 226.867 65.064C226.589 65.5547 226.451 66.1307 226.451 66.792C226.451 67.4427 226.589 68.0187 226.867 68.52C227.144 69.0107 227.517 69.3947 227.987 69.672C228.456 69.9387 228.984 70.072 229.571 70.072ZM232.739 71V68.472L232.851 66.776L232.691 65.08V59.128H233.827V71H232.739ZM251.674 62.52C252.356 62.52 252.948 62.6533 253.45 62.92C253.962 63.176 254.356 63.5707 254.634 64.104C254.922 64.6373 255.066 65.3093 255.066 66.12V71H253.93V66.232C253.93 65.3467 253.716 64.68 253.29 64.232C252.874 63.7733 252.282 63.544 251.514 63.544C250.938 63.544 250.436 63.6667 250.01 63.912C249.594 64.1467 249.268 64.4933 249.034 64.952C248.81 65.4 248.698 65.944 248.698 66.584V71H247.562V66.232C247.562 65.3467 247.348 64.68 246.922 64.232C246.495 63.7733 245.898 63.544 245.13 63.544C244.564 63.544 244.068 63.6667 243.642 63.912C243.215 64.1467 242.884 64.4933 242.65 64.952C242.426 65.4 242.314 65.944 242.314 66.584V71H241.178V62.6H242.266V64.872L242.09 64.472C242.346 63.864 242.756 63.3893 243.322 63.048C243.898 62.696 244.575 62.52 245.354 62.52C246.175 62.52 246.874 62.728 247.45 63.144C248.026 63.5493 248.399 64.1627 248.57 64.984L248.122 64.808C248.367 64.1253 248.799 63.576 249.418 63.16C250.047 62.7333 250.799 62.52 251.674 62.52ZM263.411 71V69.144L263.363 68.84V65.736C263.363 65.0213 263.16 64.472 262.755 64.088C262.36 63.704 261.768 63.512 260.979 63.512C260.435 63.512 259.917 63.6027 259.427 63.784C258.936 63.9653 258.52 64.2053 258.179 64.504L257.667 63.656C258.093 63.2933 258.605 63.016 259.203 62.824C259.8 62.6213 260.429 62.52 261.091 62.52C262.179 62.52 263.016 62.792 263.603 63.336C264.2 63.8693 264.499 64.6853 264.499 65.784V71H263.411ZM260.515 71.08C259.885 71.08 259.336 70.9787 258.867 70.776C258.408 70.5627 258.056 70.2747 257.811 69.912C257.565 69.5387 257.443 69.112 257.443 68.632C257.443 68.1947 257.544 67.8 257.747 67.448C257.96 67.0853 258.301 66.7973 258.771 66.584C259.251 66.36 259.891 66.248 260.691 66.248H263.587V67.096H260.723C259.912 67.096 259.347 67.24 259.027 67.528C258.717 67.816 258.562 68.1733 258.562 68.6C258.562 69.08 258.749 69.464 259.123 69.752C259.496 70.04 260.019 70.184 260.691 70.184C261.331 70.184 261.88 70.04 262.339 69.752C262.808 69.4533 263.149 69.0267 263.363 68.472L263.619 69.256C263.405 69.8107 263.032 70.2533 262.499 70.584C261.976 70.9147 261.315 71.08 260.515 71.08ZM271.872 62.52C272.555 62.52 273.152 62.6533 273.664 62.92C274.187 63.176 274.592 63.5707 274.88 64.104C275.179 64.6373 275.328 65.3093 275.328 66.12V71H274.192V66.232C274.192 65.3467 273.968 64.68 273.52 64.232C273.083 63.7733 272.464 63.544 271.664 63.544C271.067 63.544 270.544 63.6667 270.096 63.912C269.659 64.1467 269.317 64.4933 269.072 64.952C268.837 65.4 268.72 65.944 268.72 66.584V71H267.584V62.6H268.672V64.904L268.496 64.472C268.763 63.864 269.189 63.3893 269.776 63.048C270.363 62.696 271.061 62.52 271.872 62.52ZM283.661 71V69.144L283.613 68.84V65.736C283.613 65.0213 283.41 64.472 283.005 64.088C282.61 63.704 282.018 63.512 281.229 63.512C280.685 63.512 280.167 63.6027 279.677 63.784C279.186 63.9653 278.77 64.2053 278.429 64.504L277.917 63.656C278.343 63.2933 278.855 63.016 279.453 62.824C280.05 62.6213 280.679 62.52 281.341 62.52C282.429 62.52 283.266 62.792 283.853 63.336C284.45 63.8693 284.749 64.6853 284.749 65.784V71H283.661ZM280.765 71.08C280.135 71.08 279.586 70.9787 279.117 70.776C278.658 70.5627 278.306 70.2747 278.061 69.912C277.815 69.5387 277.693 69.112 277.693 68.632C277.693 68.1947 277.794 67.8 277.997 67.448C278.21 67.0853 278.551 66.7973 279.021 66.584C279.501 66.36 280.141 66.248 280.941 66.248H283.837V67.096H280.973C280.162 67.096 279.597 67.24 279.277 67.528C278.967 67.816 278.812 68.1733 278.812 68.6C278.812 69.08 278.999 69.464 279.373 69.752C279.746 70.04 280.269 70.184 280.941 70.184C281.581 70.184 282.13 70.04 282.589 69.752C283.058 69.4533 283.399 69.0267 283.613 68.472L283.869 69.256C283.655 69.8107 283.282 70.2533 282.749 70.584C282.226 70.9147 281.565 71.08 280.765 71.08ZM291.418 74.184C290.65 74.184 289.914 74.072 289.21 73.848C288.506 73.624 287.935 73.304 287.498 72.888L288.074 72.024C288.469 72.376 288.954 72.6533 289.53 72.856C290.117 73.0693 290.735 73.176 291.386 73.176C292.453 73.176 293.237 72.9253 293.738 72.424C294.239 71.9333 294.49 71.1653 294.49 70.12V68.024L294.65 66.584L294.538 65.144V62.6H295.626V69.976C295.626 71.4267 295.269 72.488 294.554 73.16C293.85 73.8427 292.805 74.184 291.418 74.184ZM291.21 70.68C290.41 70.68 289.69 70.5093 289.05 70.168C288.41 69.816 287.903 69.3307 287.53 68.712C287.167 68.0933 286.986 67.384 286.986 66.584C286.986 65.784 287.167 65.08 287.53 64.472C287.903 63.8533 288.41 63.3733 289.05 63.032C289.69 62.6907 290.41 62.52 291.21 62.52C291.957 62.52 292.629 62.6747 293.226 62.984C293.823 63.2933 294.298 63.752 294.65 64.36C295.002 64.968 295.178 65.7093 295.178 66.584C295.178 67.4587 295.002 68.2 294.65 68.808C294.298 69.416 293.823 69.88 293.226 70.2C292.629 70.52 291.957 70.68 291.21 70.68ZM291.322 69.672C291.941 69.672 292.49 69.544 292.97 69.288C293.45 69.0213 293.829 68.6587 294.106 68.2C294.383 67.7307 294.522 67.192 294.522 66.584C294.522 65.976 294.383 65.4427 294.106 64.984C293.829 64.5253 293.45 64.168 292.97 63.912C292.49 63.6453 291.941 63.512 291.322 63.512C290.714 63.512 290.165 63.6453 289.674 63.912C289.194 64.168 288.815 64.5253 288.538 64.984C288.271 65.4427 288.138 65.976 288.138 66.584C288.138 67.192 288.271 67.7307 288.538 68.2C288.815 68.6587 289.194 69.0213 289.674 69.288C290.165 69.544 290.714 69.672 291.322 69.672ZM302.355 71.08C301.48 71.08 300.712 70.8987 300.051 70.536C299.39 70.1627 298.872 69.656 298.499 69.016C298.126 68.3653 297.939 67.624 297.939 66.792C297.939 65.96 298.115 65.224 298.467 64.584C298.83 63.944 299.32 63.4427 299.939 63.08C300.568 62.7067 301.272 62.52 302.051 62.52C302.84 62.52 303.539 62.7013 304.147 63.064C304.766 63.416 305.251 63.9173 305.603 64.568C305.955 65.208 306.131 65.9493 306.131 66.792C306.131 66.8453 306.126 66.904 306.115 66.968C306.115 67.0213 306.115 67.08 306.115 67.144H298.803V66.296H305.507L305.059 66.632C305.059 66.024 304.926 65.4853 304.659 65.016C304.403 64.536 304.051 64.1627 303.603 63.896C303.155 63.6293 302.638 63.496 302.051 63.496C301.475 63.496 300.958 63.6293 300.499 63.896C300.04 64.1627 299.683 64.536 299.427 65.016C299.171 65.496 299.043 66.0453 299.043 66.664V66.84C299.043 67.48 299.182 68.0453 299.459 68.536C299.747 69.016 300.142 69.3947 300.643 69.672C301.155 69.9387 301.736 70.072 302.387 70.072C302.899 70.072 303.374 69.9813 303.811 69.8C304.259 69.6187 304.643 69.3413 304.963 68.968L305.603 69.704C305.23 70.152 304.76 70.4933 304.195 70.728C303.64 70.9627 303.027 71.08 302.355 71.08ZM323.127 62.52C323.81 62.52 324.402 62.6533 324.903 62.92C325.415 63.176 325.81 63.5707 326.087 64.104C326.375 64.6373 326.519 65.3093 326.519 66.12V71H325.383V66.232C325.383 65.3467 325.17 64.68 324.743 64.232C324.327 63.7733 323.735 63.544 322.967 63.544C322.391 63.544 321.89 63.6667 321.463 63.912C321.047 64.1467 320.722 64.4933 320.487 64.952C320.263 65.4 320.151 65.944 320.151 66.584V71H319.015V66.232C319.015 65.3467 318.802 64.68 318.375 64.232C317.948 63.7733 317.351 63.544 316.583 63.544C316.018 63.544 315.522 63.6667 315.095 63.912C314.668 64.1467 314.338 64.4933 314.103 64.952C313.879 65.4 313.767 65.944 313.767 66.584V71H312.631V62.6H313.719V64.872L313.543 64.472C313.799 63.864 314.21 63.3893 314.775 63.048C315.351 62.696 316.028 62.52 316.807 62.52C317.628 62.52 318.327 62.728 318.903 63.144C319.479 63.5493 319.852 64.1627 320.023 64.984L319.575 64.808C319.82 64.1253 320.252 63.576 320.871 63.16C321.5 62.7333 322.252 62.52 323.127 62.52ZM329.507 74.184C329.113 74.184 328.734 74.12 328.371 73.992C328.019 73.864 327.715 73.672 327.459 73.416L327.987 72.568C328.201 72.7707 328.43 72.9253 328.675 73.032C328.931 73.1493 329.214 73.208 329.523 73.208C329.897 73.208 330.217 73.1013 330.483 72.888C330.761 72.6853 331.022 72.3227 331.267 71.8L331.811 70.568L331.939 70.392L335.395 62.6H336.515L332.307 72.008C332.073 72.552 331.811 72.984 331.523 73.304C331.246 73.624 330.942 73.848 330.611 73.976C330.281 74.1147 329.913 74.184 329.507 74.184ZM331.747 71.24L327.875 62.6H329.059L332.483 70.312L331.747 71.24ZM346.639 71.08C345.903 71.08 345.241 70.9147 344.655 70.584C344.068 70.2427 343.604 69.752 343.263 69.112C342.921 68.472 342.751 67.6987 342.751 66.792C342.751 65.8747 342.921 65.1013 343.263 64.472C343.615 63.832 344.084 63.3467 344.671 63.016C345.257 62.6853 345.913 62.52 346.639 62.52C347.439 62.52 348.153 62.7013 348.783 63.064C349.423 63.416 349.924 63.912 350.287 64.552C350.649 65.192 350.831 65.9387 350.831 66.792C350.831 67.6347 350.649 68.3813 350.287 69.032C349.924 69.672 349.423 70.1733 348.783 70.536C348.153 70.8987 347.439 71.08 346.639 71.08ZM342.303 71V59.128H343.439V65.08L343.279 66.776L343.391 68.472V71H342.303ZM346.559 70.072C347.156 70.072 347.689 69.9387 348.159 69.672C348.628 69.3947 349.001 69.0107 349.279 68.52C349.556 68.0187 349.695 67.4427 349.695 66.792C349.695 66.1307 349.556 65.5547 349.279 65.064C349.001 64.5733 348.628 64.1947 348.159 63.928C347.689 63.6507 347.156 63.512 346.559 63.512C345.961 63.512 345.423 63.6507 344.943 63.928C344.473 64.1947 344.1 64.5733 343.823 65.064C343.556 65.5547 343.423 66.1307 343.423 66.792C343.423 67.4427 343.556 68.0187 343.823 68.52C344.1 69.0107 344.473 69.3947 344.943 69.672C345.423 69.9387 345.961 70.072 346.559 70.072ZM356.619 71.08C355.904 71.08 355.28 70.9467 354.747 70.68C354.213 70.4133 353.797 70.0133 353.499 69.48C353.211 68.9467 353.067 68.28 353.067 67.48V62.6H354.203V67.352C354.203 68.248 354.421 68.9253 354.859 69.384C355.307 69.832 355.931 70.056 356.731 70.056C357.317 70.056 357.824 69.9387 358.251 69.704C358.688 69.4587 359.019 69.1067 359.243 68.648C359.477 68.1893 359.595 67.64 359.595 67V62.6H360.731V71H359.642V68.696L359.819 69.112C359.552 69.7307 359.136 70.216 358.571 70.568C358.016 70.9093 357.365 71.08 356.619 71.08ZM367.241 71.08C366.441 71.08 365.721 70.8987 365.081 70.536C364.451 70.1733 363.955 69.672 363.593 69.032C363.23 68.3813 363.049 67.6347 363.049 66.792C363.049 65.9387 363.23 65.192 363.593 64.552C363.955 63.912 364.451 63.416 365.081 63.064C365.721 62.7013 366.441 62.52 367.241 62.52C367.977 62.52 368.633 62.6853 369.209 63.016C369.795 63.3467 370.259 63.832 370.601 64.472C370.953 65.1013 371.128 65.8747 371.128 66.792C371.128 67.6987 370.958 68.472 370.617 69.112C370.275 69.752 369.811 70.2427 369.225 70.584C368.649 70.9147 367.987 71.08 367.241 71.08ZM367.321 70.072C367.918 70.072 368.451 69.9387 368.921 69.672C369.401 69.3947 369.774 69.0107 370.041 68.52C370.318 68.0187 370.457 67.4427 370.457 66.792C370.457 66.1307 370.318 65.5547 370.041 65.064C369.774 64.5733 369.401 64.1947 368.921 63.928C368.451 63.6507 367.918 63.512 367.321 63.512C366.734 63.512 366.206 63.6507 365.737 63.928C365.267 64.1947 364.894 64.5733 364.617 65.064C364.339 65.5547 364.201 66.1307 364.201 66.792C364.201 67.4427 364.339 68.0187 364.617 68.52C364.894 69.0107 365.267 69.3947 365.737 69.672C366.206 69.9387 366.734 70.072 367.321 70.072ZM370.489 71V68.472L370.601 66.776L370.441 65.08V59.128H371.577V71H370.489ZM378.324 74.184C377.556 74.184 376.82 74.072 376.116 73.848C375.412 73.624 374.842 73.304 374.404 72.888L374.98 72.024C375.375 72.376 375.86 72.6533 376.436 72.856C377.023 73.0693 377.642 73.176 378.292 73.176C379.359 73.176 380.143 72.9253 380.644 72.424C381.146 71.9333 381.396 71.1653 381.396 70.12V68.024L381.556 66.584L381.444 65.144V62.6H382.532V69.976C382.532 71.4267 382.175 72.488 381.46 73.16C380.756 73.8427 379.711 74.184 378.324 74.184ZM378.116 70.68C377.316 70.68 376.596 70.5093 375.956 70.168C375.316 69.816 374.81 69.3307 374.436 68.712C374.074 68.0933 373.892 67.384 373.892 66.584C373.892 65.784 374.074 65.08 374.436 64.472C374.81 63.8533 375.316 63.3733 375.956 63.032C376.596 62.6907 377.316 62.52 378.116 62.52C378.863 62.52 379.535 62.6747 380.132 62.984C380.73 63.2933 381.204 63.752 381.556 64.36C381.908 64.968 382.084 65.7093 382.084 66.584C382.084 67.4587 381.908 68.2 381.556 68.808C381.204 69.416 380.73 69.88 380.132 70.2C379.535 70.52 378.863 70.68 378.116 70.68ZM378.228 69.672C378.847 69.672 379.396 69.544 379.876 69.288C380.356 69.0213 380.735 68.6587 381.012 68.2C381.29 67.7307 381.428 67.192 381.428 66.584C381.428 65.976 381.29 65.4427 381.012 64.984C380.735 64.5253 380.356 64.168 379.876 63.912C379.396 63.6453 378.847 63.512 378.228 63.512C377.62 63.512 377.071 63.6453 376.58 63.912C376.1 64.168 375.722 64.5253 375.444 64.984C375.178 65.4427 375.044 65.976 375.044 66.584C375.044 67.192 375.178 67.7307 375.444 68.2C375.722 68.6587 376.1 69.0213 376.58 69.288C377.071 69.544 377.62 69.672 378.228 69.672ZM389.261 71.08C388.387 71.08 387.619 70.8987 386.957 70.536C386.296 70.1627 385.779 69.656 385.405 69.016C385.032 68.3653 384.845 67.624 384.845 66.792C384.845 65.96 385.021 65.224 385.373 64.584C385.736 63.944 386.227 63.4427 386.845 63.08C387.475 62.7067 388.179 62.52 388.957 62.52C389.747 62.52 390.445 62.7013 391.053 63.064C391.672 63.416 392.157 63.9173 392.509 64.568C392.861 65.208 393.037 65.9493 393.037 66.792C393.037 66.8453 393.032 66.904 393.021 66.968C393.021 67.0213 393.021 67.08 393.021 67.144H385.709V66.296H392.413L391.965 66.632C391.965 66.024 391.832 65.4853 391.565 65.016C391.309 64.536 390.957 64.1627 390.509 63.896C390.061 63.6293 389.544 63.496 388.957 63.496C388.381 63.496 387.864 63.6293 387.405 63.896C386.947 64.1627 386.589 64.536 386.333 65.016C386.077 65.496 385.949 66.0453 385.949 66.664V66.84C385.949 67.48 386.088 68.0453 386.365 68.536C386.653 69.016 387.048 69.3947 387.549 69.672C388.061 69.9387 388.643 70.072 389.293 70.072C389.805 70.072 390.28 69.9813 390.717 69.8C391.165 69.6187 391.549 69.3413 391.869 68.968L392.509 69.704C392.136 70.152 391.667 70.4933 391.101 70.728C390.547 70.9627 389.933 71.08 389.261 71.08ZM398.006 71.08C397.216 71.08 396.608 70.8667 396.182 70.44C395.755 70.0133 395.542 69.4107 395.542 68.632V60.744H396.678V68.568C396.678 69.0587 396.8 69.4373 397.046 69.704C397.302 69.9707 397.664 70.104 398.134 70.104C398.635 70.104 399.051 69.96 399.382 69.672L399.782 70.488C399.558 70.6907 399.286 70.84 398.966 70.936C398.656 71.032 398.336 71.08 398.006 71.08ZM394.038 63.544V62.6H399.238V63.544H394.038ZM401.162 63.032L401.866 60.088L401.994 60.76C401.748 60.76 401.54 60.6853 401.37 60.536C401.21 60.376 401.13 60.168 401.13 59.912C401.13 59.656 401.21 59.448 401.37 59.288C401.54 59.128 401.743 59.048 401.978 59.048C402.223 59.048 402.42 59.1333 402.57 59.304C402.73 59.464 402.81 59.6667 402.81 59.912C402.81 59.9973 402.804 60.0827 402.794 60.168C402.783 60.2533 402.762 60.3493 402.73 60.456C402.708 60.552 402.671 60.6747 402.618 60.824L401.93 63.032H401.162ZM403.882 63.032L404.586 60.088L404.714 60.76C404.468 60.76 404.26 60.6853 404.09 60.536C403.93 60.376 403.85 60.168 403.85 59.912C403.85 59.656 403.93 59.448 404.09 59.288C404.26 59.128 404.463 59.048 404.698 59.048C404.943 59.048 405.14 59.1333 405.29 59.304C405.45 59.464 405.53 59.6667 405.53 59.912C405.53 59.9973 405.524 60.0827 405.514 60.168C405.503 60.2533 405.482 60.3493 405.45 60.456C405.428 60.552 405.391 60.6747 405.338 60.824L404.65 63.032H403.882Z" fill="black"/>
<g clip-path="url(#clip0_134_8101)">
<g opacity="0.2">
<path fill-rule="evenodd" clip-rule="evenodd" d="M54.3253 34.6501C54.5023 34.6498 54.6746 34.7064 54.8169 34.8116C54.9592 34.9168 55.064 35.0649 55.1156 35.2342L58.2968 45.6836L67.8091 49.1602C67.9659 49.2176 68.1017 49.3214 68.1983 49.4576C68.2949 49.5939 68.3479 49.7563 68.3502 49.9233C68.3525 50.0904 68.3041 50.2542 68.2113 50.3931C68.1185 50.532 67.9857 50.6394 67.8305 50.7013L58.381 54.455L55.1156 65.411C55.0647 65.5811 54.9603 65.7302 54.818 65.8362C54.6756 65.9422 54.5028 65.9994 54.3253 65.9994C54.1478 65.9994 53.975 65.9422 53.8326 65.8362C53.6902 65.7302 53.5858 65.5811 53.5349 65.411L50.2696 54.455L40.82 50.7013C40.6648 50.6394 40.5321 50.532 40.4393 50.3931C40.3465 50.2542 40.298 50.0904 40.3004 49.9233C40.3027 49.7563 40.3557 49.5939 40.4523 49.4576C40.5489 49.3214 40.6846 49.2176 40.8415 49.1602L50.3537 45.6836L53.5366 35.2342C53.5882 35.0652 53.6927 34.9172 53.8346 34.8121C53.9766 34.7069 54.1486 34.6501 54.3253 34.6501Z" fill="#FFD53E"/>
<path d="M65.5944 65.9176C65.4129 65.9176 65.2644 65.7856 65.2479 65.6206C64.9179 62.3206 64.6704 61.2646 61.5684 60.9841C61.4821 60.9766 61.4017 60.9367 61.3436 60.8724C61.2854 60.8082 61.2538 60.7243 61.2549 60.6376C61.2549 60.4561 61.3869 60.3076 61.5684 60.2911C64.7034 59.9941 64.9179 59.1361 65.2479 55.9186C65.2644 55.7371 65.4129 55.6051 65.5944 55.6051C65.7759 55.6051 65.9244 55.7371 65.9409 55.9021C66.2709 59.1361 66.4854 59.9941 69.6204 60.2746C69.8019 60.2911 69.9339 60.4396 69.9339 60.6211C69.9339 60.8026 69.8019 60.9511 69.6204 60.9676C66.5349 61.2646 66.2709 62.3206 65.9574 65.6041C65.9409 65.7856 65.7924 65.9176 65.6109 65.9176H65.5944Z" fill="#FFD53E"/>
</g>
<path fill-rule="evenodd" clip-rule="evenodd" d="M51.8502 33.825C52.0272 33.8247 52.1995 33.8814 52.3418 33.9865C52.4841 34.0917 52.5889 34.2399 52.6405 34.4091L55.8217 44.8586L65.334 48.3351C65.4909 48.3926 65.6266 48.4963 65.7232 48.6326C65.8198 48.7689 65.8728 48.9312 65.8751 49.0983C65.8774 49.2653 65.829 49.4291 65.7362 49.568C65.6434 49.7069 65.5106 49.8144 65.3554 49.8762L55.9059 53.63L52.6405 64.586C52.5896 64.756 52.4852 64.9051 52.3429 65.0111C52.2005 65.1171 52.0277 65.1744 51.8502 65.1744C51.6727 65.1744 51.4999 65.1171 51.3575 65.0111C51.2151 64.9051 51.1107 64.756 51.0598 64.586L47.7945 53.63L38.3449 49.8762C38.1897 49.8144 38.057 49.7069 37.9642 49.568C37.8714 49.4291 37.823 49.2653 37.8253 49.0983C37.8276 48.9312 37.8806 48.7689 37.9772 48.6326C38.0738 48.4963 38.2095 48.3926 38.3664 48.3351L47.8786 44.8586L51.0615 34.4091C51.1131 34.2401 51.2176 34.0922 51.3595 33.987C51.5015 33.8819 51.6735 33.8251 51.8502 33.825ZM51.8502 37.4814L49.3372 45.7314C49.3 45.8537 49.2348 45.9656 49.1469 46.0584C49.059 46.1511 48.9508 46.2222 48.8307 46.266L40.9651 49.1436L48.7762 52.2456C48.892 52.2918 48.9957 52.3636 49.0798 52.4556C49.1638 52.5476 49.2259 52.6575 49.2613 52.7769L51.8518 61.4625L54.439 52.7769C54.4745 52.6575 54.5366 52.5476 54.6206 52.4556C54.7046 52.3636 54.8084 52.2918 54.9241 52.2456L62.7352 49.1436L54.8697 46.2693C54.7496 46.2255 54.6414 46.1544 54.5535 46.0617C54.4655 45.9689 54.4004 45.857 54.3631 45.7347L51.8502 37.4814Z" fill="#FFD53E"/>
<path d="M64.638 64.548C64.473 64.548 64.3245 64.416 64.308 64.251C64.011 61.248 63.78 60.291 61.0245 60.027C60.8595 60.0105 60.7275 59.862 60.7275 59.697C60.7275 59.532 60.8595 59.3835 61.0245 59.367C63.846 59.103 64.011 58.377 64.308 55.374C64.308 55.209 64.473 55.077 64.638 55.077C64.803 55.077 64.9515 55.209 64.968 55.374C65.265 58.377 65.4465 59.103 68.2515 59.367C68.4165 59.3835 68.5485 59.532 68.5485 59.697C68.5485 59.862 68.4165 60.0105 68.2515 60.027C65.4795 60.291 65.265 61.248 64.968 64.2675C64.968 64.4325 64.8195 64.5645 64.638 64.5645V64.548Z" fill="#FFD53E"/>
</g>
</g>
<defs>
<filter id="filter0_d_134_8101" x="0" y="0" width="513" height="133" filterUnits="userSpaceOnUse" color-interpolation-filters="sRGB">
<feFlood flood-opacity="0" result="BackgroundImageFix"/>
<feColorMatrix in="SourceAlpha" type="matrix" values="0 0 0 0 0 0 0 0 0 0 0 0 0 0 0 0 0 0 127 0" result="hardAlpha"/>
<feOffset dx="4" dy="8"/>
<feGaussianBlur stdDeviation="6"/>
<feComposite in2="hardAlpha" operator="out"/>
<feColorMatrix type="matrix" values="0 0 0 0 0.160784 0 0 0 0 0.188235 0 0 0 0 0.301961 0 0 0 0.2 0"/>
<feBlend mode="normal" in2="BackgroundImageFix" result="effect1_dropShadow_134_8101"/>
<feBlend mode="normal" in="SourceGraphic" in2="effect1_dropShadow_134_8101" result="shape"/>
</filter>
<clipPath id="clip0_134_8101">
<rect width="33" height="33" fill="white" transform="translate(37 33)"/>
</clipPath>
</defs>
</svg>
