<svg width="513" height="133" viewBox="0 0 513 133" fill="none" xmlns="http://www.w3.org/2000/svg">
<g filter="url(#filter0_d_134_8119)">
<rect x="8" y="4" width="489" height="109" rx="30" fill="#EBEFFF"/>
<path d="M98.496 40.128L97.792 43.088L97.664 42.4C97.92 42.4 98.128 42.48 98.288 42.64C98.448 42.7893 98.528 42.992 98.528 43.248C98.528 43.504 98.448 43.712 98.288 43.872C98.128 44.032 97.9307 44.112 97.696 44.112C97.44 44.112 97.232 44.032 97.072 43.872C96.9227 43.7013 96.848 43.4933 96.848 43.248C96.848 43.152 96.8533 43.0667 96.864 42.992C96.8747 42.9173 96.896 42.8267 96.928 42.72C96.96 42.6133 97.0027 42.4853 97.056 42.336L97.728 40.128H98.496ZM101.216 40.128L100.512 43.088L100.384 42.4C100.64 42.4 100.848 42.48 101.008 42.64C101.168 42.7893 101.248 42.992 101.248 43.248C101.248 43.504 101.168 43.712 101.008 43.872C100.848 44.032 100.651 44.112 100.416 44.112C100.16 44.112 99.952 44.032 99.792 43.872C99.6427 43.7013 99.568 43.4933 99.568 43.248C99.568 43.152 99.5733 43.0667 99.584 42.992C99.5947 42.9173 99.616 42.8267 99.648 42.72C99.68 42.6133 99.7227 42.4853 99.776 42.336L100.448 40.128H101.216ZM106.562 52V41.824H102.627V40.8H111.683V41.824H107.747V52H106.562ZM117.622 43.52C118.305 43.52 118.902 43.6533 119.414 43.92C119.937 44.176 120.342 44.5707 120.63 45.104C120.929 45.6373 121.078 46.3093 121.078 47.12V52H119.942V47.232C119.942 46.3467 119.718 45.68 119.27 45.232C118.833 44.7733 118.214 44.544 117.414 44.544C116.817 44.544 116.294 44.6667 115.846 44.912C115.409 45.1467 115.067 45.4933 114.822 45.952C114.587 46.4 114.47 46.944 114.47 47.584V52H113.334V40.128H114.47V45.904L114.246 45.472C114.513 44.864 114.939 44.3893 115.526 44.048C116.113 43.696 116.811 43.52 117.622 43.52ZM127.715 52.08C126.84 52.08 126.072 51.8987 125.411 51.536C124.749 51.1627 124.232 50.656 123.859 50.016C123.485 49.3653 123.299 48.624 123.299 47.792C123.299 46.96 123.475 46.224 123.827 45.584C124.189 44.944 124.68 44.4427 125.299 44.08C125.928 43.7067 126.632 43.52 127.411 43.52C128.2 43.52 128.899 43.7013 129.507 44.064C130.125 44.416 130.611 44.9173 130.963 45.568C131.315 46.208 131.491 46.9493 131.491 47.792C131.491 47.8453 131.485 47.904 131.475 47.968C131.475 48.0213 131.475 48.08 131.475 48.144H124.163V47.296H130.867L130.419 47.632C130.419 47.024 130.285 46.4853 130.019 46.016C129.763 45.536 129.411 45.1627 128.963 44.896C128.515 44.6293 127.997 44.496 127.411 44.496C126.835 44.496 126.317 44.6293 125.859 44.896C125.4 45.1627 125.043 45.536 124.787 46.016C124.531 46.496 124.403 47.0453 124.403 47.664V47.84C124.403 48.48 124.541 49.0453 124.819 49.536C125.107 50.016 125.501 50.3947 126.003 50.672C126.515 50.9387 127.096 51.072 127.747 51.072C128.259 51.072 128.733 50.9813 129.171 50.8C129.619 50.6187 130.003 50.3413 130.323 49.968L130.963 50.704C130.589 51.152 130.12 51.4933 129.555 51.728C129 51.9627 128.387 52.08 127.715 52.08ZM141.414 52.08C140.604 52.08 139.873 51.8987 139.222 51.536C138.582 51.1627 138.076 50.656 137.702 50.016C137.329 49.3653 137.142 48.624 137.142 47.792C137.142 46.9493 137.329 46.208 137.702 45.568C138.076 44.928 138.582 44.4267 139.222 44.064C139.862 43.7013 140.593 43.52 141.414 43.52C142.246 43.52 142.982 43.7013 143.622 44.064C144.273 44.4267 144.78 44.928 145.142 45.568C145.516 46.208 145.702 46.9493 145.702 47.792C145.702 48.624 145.516 49.3653 145.142 50.016C144.78 50.656 144.273 51.1627 143.622 51.536C142.972 51.8987 142.236 52.08 141.414 52.08ZM141.414 51.072C142.022 51.072 142.561 50.9387 143.03 50.672C143.5 50.3947 143.868 50.0107 144.134 49.52C144.412 49.0187 144.55 48.4427 144.55 47.792C144.55 47.1307 144.412 46.5547 144.134 46.064C143.868 45.5733 143.5 45.1947 143.03 44.928C142.561 44.6507 142.028 44.512 141.43 44.512C140.833 44.512 140.3 44.6507 139.83 44.928C139.361 45.1947 138.988 45.5733 138.71 46.064C138.433 46.5547 138.294 47.1307 138.294 47.792C138.294 48.4427 138.433 49.0187 138.71 49.52C138.988 50.0107 139.361 50.3947 139.83 50.672C140.3 50.9387 140.828 51.072 141.414 51.072ZM152.31 43.52C152.992 43.52 153.59 43.6533 154.102 43.92C154.624 44.176 155.03 44.5707 155.318 45.104C155.616 45.6373 155.766 46.3093 155.766 47.12V52H154.63V47.232C154.63 46.3467 154.406 45.68 153.958 45.232C153.52 44.7733 152.902 44.544 152.102 44.544C151.504 44.544 150.982 44.6667 150.534 44.912C150.096 45.1467 149.755 45.4933 149.51 45.952C149.275 46.4 149.158 46.944 149.158 47.584V52H148.022V43.6H149.11V45.904L148.934 45.472C149.2 44.864 149.627 44.3893 150.214 44.048C150.8 43.696 151.499 43.52 152.31 43.52ZM158.834 52V40.128H159.97V52H158.834ZM163.195 55.184C162.8 55.184 162.422 55.12 162.059 54.992C161.707 54.864 161.403 54.672 161.147 54.416L161.675 53.568C161.888 53.7707 162.118 53.9253 162.363 54.032C162.619 54.1493 162.902 54.208 163.211 54.208C163.584 54.208 163.904 54.1013 164.171 53.888C164.448 53.6853 164.71 53.3227 164.955 52.8L165.499 51.568L165.627 51.392L169.083 43.6H170.203L165.995 53.008C165.76 53.552 165.499 53.984 165.211 54.304C164.934 54.624 164.63 54.848 164.299 54.976C163.968 55.1147 163.6 55.184 163.195 55.184ZM165.435 52.24L161.563 43.6H162.747L166.171 51.312L165.435 52.24ZM178.646 52.08C177.857 52.08 177.249 51.8667 176.822 51.44C176.396 51.0133 176.182 50.4107 176.182 49.632V41.744H177.318V49.568C177.318 50.0587 177.441 50.4373 177.686 50.704C177.942 50.9707 178.305 51.104 178.774 51.104C179.276 51.104 179.692 50.96 180.022 50.672L180.422 51.488C180.198 51.6907 179.926 51.84 179.606 51.936C179.297 52.032 178.977 52.08 178.646 52.08ZM174.678 44.544V43.6H179.878V44.544H174.678ZM186.778 43.52C187.461 43.52 188.058 43.6533 188.57 43.92C189.093 44.176 189.498 44.5707 189.786 45.104C190.085 45.6373 190.234 46.3093 190.234 47.12V52H189.098V47.232C189.098 46.3467 188.874 45.68 188.426 45.232C187.989 44.7733 187.37 44.544 186.57 44.544C185.973 44.544 185.45 44.6667 185.002 44.912C184.565 45.1467 184.224 45.4933 183.978 45.952C183.744 46.4 183.626 46.944 183.626 47.584V52H182.49V40.128H183.626V45.904L183.402 45.472C183.669 44.864 184.096 44.3893 184.682 44.048C185.269 43.696 185.968 43.52 186.778 43.52ZM193.303 52V43.6H194.439V52H193.303ZM193.879 41.744C193.644 41.744 193.447 41.664 193.287 41.504C193.127 41.344 193.047 41.152 193.047 40.928C193.047 40.704 193.127 40.5173 193.287 40.368C193.447 40.208 193.644 40.128 193.879 40.128C194.113 40.128 194.311 40.2027 194.471 40.352C194.631 40.5013 194.711 40.688 194.711 40.912C194.711 41.1467 194.631 41.344 194.471 41.504C194.321 41.664 194.124 41.744 193.879 41.744ZM201.888 43.52C202.57 43.52 203.168 43.6533 203.68 43.92C204.202 44.176 204.608 44.5707 204.896 45.104C205.194 45.6373 205.344 46.3093 205.344 47.12V52H204.208V47.232C204.208 46.3467 203.984 45.68 203.536 45.232C203.098 44.7733 202.48 44.544 201.68 44.544C201.082 44.544 200.56 44.6667 200.112 44.912C199.674 45.1467 199.333 45.4933 199.088 45.952C198.853 46.4 198.736 46.944 198.736 47.584V52H197.6V43.6H198.688V45.904L198.512 45.472C198.778 44.864 199.205 44.3893 199.792 44.048C200.378 43.696 201.077 43.52 201.888 43.52ZM211.996 55.184C211.228 55.184 210.492 55.072 209.788 54.848C209.084 54.624 208.513 54.304 208.076 53.888L208.652 53.024C209.047 53.376 209.532 53.6533 210.108 53.856C210.695 54.0693 211.313 54.176 211.964 54.176C213.031 54.176 213.815 53.9253 214.316 53.424C214.817 52.9333 215.068 52.1653 215.068 51.12V49.024L215.228 47.584L215.116 46.144V43.6H216.204V50.976C216.204 52.4267 215.847 53.488 215.132 54.16C214.428 54.8427 213.383 55.184 211.996 55.184ZM211.788 51.68C210.988 51.68 210.268 51.5093 209.628 51.168C208.988 50.816 208.481 50.3307 208.108 49.712C207.745 49.0933 207.564 48.384 207.564 47.584C207.564 46.784 207.745 46.08 208.108 45.472C208.481 44.8533 208.988 44.3733 209.628 44.032C210.268 43.6907 210.988 43.52 211.788 43.52C212.535 43.52 213.207 43.6747 213.804 43.984C214.401 44.2933 214.876 44.752 215.228 45.36C215.58 45.968 215.756 46.7093 215.756 47.584C215.756 48.4587 215.58 49.2 215.228 49.808C214.876 50.416 214.401 50.88 213.804 51.2C213.207 51.52 212.535 51.68 211.788 51.68ZM211.9 50.672C212.519 50.672 213.068 50.544 213.548 50.288C214.028 50.0213 214.407 49.6587 214.684 49.2C214.961 48.7307 215.1 48.192 215.1 47.584C215.1 46.976 214.961 46.4427 214.684 45.984C214.407 45.5253 214.028 45.168 213.548 44.912C213.068 44.6453 212.519 44.512 211.9 44.512C211.292 44.512 210.743 44.6453 210.252 44.912C209.772 45.168 209.393 45.5253 209.116 45.984C208.849 46.4427 208.716 46.976 208.716 47.584C208.716 48.192 208.849 48.7307 209.116 49.2C209.393 49.6587 209.772 50.0213 210.252 50.288C210.743 50.544 211.292 50.672 211.9 50.672ZM223.793 52V40.8H224.977V52H223.793ZM227.693 44.032L228.397 41.088L228.525 41.76C228.28 41.76 228.072 41.6853 227.901 41.536C227.741 41.376 227.661 41.168 227.661 40.912C227.661 40.656 227.741 40.448 227.901 40.288C228.072 40.128 228.274 40.048 228.509 40.048C228.754 40.048 228.952 40.1333 229.101 40.304C229.261 40.464 229.341 40.6667 229.341 40.912C229.341 40.9973 229.336 41.0827 229.325 41.168C229.314 41.2533 229.293 41.3493 229.261 41.456C229.24 41.552 229.202 41.6747 229.149 41.824L228.461 44.032H227.693ZM234.213 52L230.485 43.6H231.669L235.093 51.392H234.533L238.005 43.6H239.125L235.381 52H234.213ZM244.058 52.08C243.184 52.08 242.416 51.8987 241.754 51.536C241.093 51.1627 240.576 50.656 240.202 50.016C239.829 49.3653 239.642 48.624 239.642 47.792C239.642 46.96 239.818 46.224 240.17 45.584C240.533 44.944 241.024 44.4427 241.642 44.08C242.272 43.7067 242.976 43.52 243.754 43.52C244.544 43.52 245.242 43.7013 245.85 44.064C246.469 44.416 246.954 44.9173 247.306 45.568C247.658 46.208 247.834 46.9493 247.834 47.792C247.834 47.8453 247.829 47.904 247.818 47.968C247.818 48.0213 247.818 48.08 247.818 48.144H240.506V47.296H247.21L246.762 47.632C246.762 47.024 246.629 46.4853 246.362 46.016C246.106 45.536 245.754 45.1627 245.306 44.896C244.858 44.6293 244.341 44.496 243.754 44.496C243.178 44.496 242.661 44.6293 242.202 44.896C241.744 45.1627 241.386 45.536 241.13 46.016C240.874 46.496 240.746 47.0453 240.746 47.664V47.84C240.746 48.48 240.885 49.0453 241.162 49.536C241.45 50.016 241.845 50.3947 242.346 50.672C242.858 50.9387 243.44 51.072 244.09 51.072C244.602 51.072 245.077 50.9813 245.514 50.8C245.962 50.6187 246.346 50.3413 246.666 49.968L247.306 50.704C246.933 51.152 246.464 51.4933 245.898 51.728C245.344 51.9627 244.73 52.08 244.058 52.08ZM257.902 52.08C257.027 52.08 256.259 51.8987 255.598 51.536C254.937 51.1627 254.419 50.656 254.046 50.016C253.673 49.3653 253.486 48.624 253.486 47.792C253.486 46.96 253.662 46.224 254.014 45.584C254.377 44.944 254.867 44.4427 255.486 44.08C256.115 43.7067 256.819 43.52 257.598 43.52C258.387 43.52 259.086 43.7013 259.694 44.064C260.313 44.416 260.798 44.9173 261.15 45.568C261.502 46.208 261.678 46.9493 261.678 47.792C261.678 47.8453 261.673 47.904 261.662 47.968C261.662 48.0213 261.662 48.08 261.662 48.144H254.35V47.296H261.054L260.606 47.632C260.606 47.024 260.473 46.4853 260.206 46.016C259.95 45.536 259.598 45.1627 259.15 44.896C258.702 44.6293 258.185 44.496 257.598 44.496C257.022 44.496 256.505 44.6293 256.046 44.896C255.587 45.1627 255.23 45.536 254.974 46.016C254.718 46.496 254.59 47.0453 254.59 47.664V47.84C254.59 48.48 254.729 49.0453 255.006 49.536C255.294 50.016 255.689 50.3947 256.19 50.672C256.702 50.9387 257.283 51.072 257.934 51.072C258.446 51.072 258.921 50.9813 259.358 50.8C259.806 50.6187 260.19 50.3413 260.51 49.968L261.15 50.704C260.777 51.152 260.307 51.4933 259.742 51.728C259.187 51.9627 258.574 52.08 257.902 52.08ZM265.994 52L262.266 43.6H263.45L266.874 51.392H266.314L269.786 43.6H270.906L267.162 52H265.994ZM275.84 52.08C274.965 52.08 274.197 51.8987 273.536 51.536C272.874 51.1627 272.357 50.656 271.984 50.016C271.61 49.3653 271.424 48.624 271.424 47.792C271.424 46.96 271.6 46.224 271.952 45.584C272.314 44.944 272.805 44.4427 273.424 44.08C274.053 43.7067 274.757 43.52 275.536 43.52C276.325 43.52 277.024 43.7013 277.632 44.064C278.25 44.416 278.736 44.9173 279.088 45.568C279.44 46.208 279.616 46.9493 279.616 47.792C279.616 47.8453 279.61 47.904 279.6 47.968C279.6 48.0213 279.6 48.08 279.6 48.144H272.288V47.296H278.992L278.544 47.632C278.544 47.024 278.41 46.4853 278.144 46.016C277.888 45.536 277.536 45.1627 277.088 44.896C276.64 44.6293 276.122 44.496 275.536 44.496C274.96 44.496 274.442 44.6293 273.984 44.896C273.525 45.1627 273.168 45.536 272.912 46.016C272.656 46.496 272.528 47.0453 272.528 47.664V47.84C272.528 48.48 272.666 49.0453 272.944 49.536C273.232 50.016 273.626 50.3947 274.128 50.672C274.64 50.9387 275.221 51.072 275.872 51.072C276.384 51.072 276.858 50.9813 277.296 50.8C277.744 50.6187 278.128 50.3413 278.448 49.968L279.088 50.704C278.714 51.152 278.245 51.4933 277.68 51.728C277.125 51.9627 276.512 52.08 275.84 52.08ZM281.928 52V43.6H283.016V45.888L282.904 45.488C283.138 44.848 283.533 44.3627 284.088 44.032C284.642 43.6907 285.33 43.52 286.152 43.52V44.624C286.109 44.624 286.066 44.624 286.024 44.624C285.981 44.6133 285.938 44.608 285.896 44.608C285.01 44.608 284.317 44.88 283.816 45.424C283.314 45.9573 283.064 46.72 283.064 47.712V52H281.928ZM296.121 55.184C295.353 55.184 294.617 55.072 293.913 54.848C293.209 54.624 292.638 54.304 292.201 53.888L292.777 53.024C293.172 53.376 293.657 53.6533 294.233 53.856C294.82 54.0693 295.438 54.176 296.089 54.176C297.156 54.176 297.94 53.9253 298.441 53.424C298.942 52.9333 299.193 52.1653 299.193 51.12V49.024L299.353 47.584L299.241 46.144V43.6H300.329V50.976C300.329 52.4267 299.972 53.488 299.257 54.16C298.553 54.8427 297.508 55.184 296.121 55.184ZM295.913 51.68C295.113 51.68 294.393 51.5093 293.753 51.168C293.113 50.816 292.606 50.3307 292.233 49.712C291.87 49.0933 291.689 48.384 291.689 47.584C291.689 46.784 291.87 46.08 292.233 45.472C292.606 44.8533 293.113 44.3733 293.753 44.032C294.393 43.6907 295.113 43.52 295.913 43.52C296.66 43.52 297.332 43.6747 297.929 43.984C298.526 44.2933 299.001 44.752 299.353 45.36C299.705 45.968 299.881 46.7093 299.881 47.584C299.881 48.4587 299.705 49.2 299.353 49.808C299.001 50.416 298.526 50.88 297.929 51.2C297.332 51.52 296.66 51.68 295.913 51.68ZM296.025 50.672C296.644 50.672 297.193 50.544 297.673 50.288C298.153 50.0213 298.532 49.6587 298.809 49.2C299.086 48.7307 299.225 48.192 299.225 47.584C299.225 46.976 299.086 46.4427 298.809 45.984C298.532 45.5253 298.153 45.168 297.673 44.912C297.193 44.6453 296.644 44.512 296.025 44.512C295.417 44.512 294.868 44.6453 294.377 44.912C293.897 45.168 293.518 45.5253 293.241 45.984C292.974 46.4427 292.841 46.976 292.841 47.584C292.841 48.192 292.974 48.7307 293.241 49.2C293.518 49.6587 293.897 50.0213 294.377 50.288C294.868 50.544 295.417 50.672 296.025 50.672ZM306.914 52.08C306.104 52.08 305.373 51.8987 304.722 51.536C304.082 51.1627 303.576 50.656 303.202 50.016C302.829 49.3653 302.642 48.624 302.642 47.792C302.642 46.9493 302.829 46.208 303.202 45.568C303.576 44.928 304.082 44.4267 304.722 44.064C305.362 43.7013 306.093 43.52 306.914 43.52C307.746 43.52 308.482 43.7013 309.122 44.064C309.773 44.4267 310.28 44.928 310.642 45.568C311.016 46.208 311.202 46.9493 311.202 47.792C311.202 48.624 311.016 49.3653 310.642 50.016C310.28 50.656 309.773 51.1627 309.122 51.536C308.472 51.8987 307.736 52.08 306.914 52.08ZM306.914 51.072C307.522 51.072 308.061 50.9387 308.53 50.672C309 50.3947 309.368 50.0107 309.634 49.52C309.912 49.0187 310.05 48.4427 310.05 47.792C310.05 47.1307 309.912 46.5547 309.634 46.064C309.368 45.5733 309 45.1947 308.53 44.928C308.061 44.6507 307.528 44.512 306.93 44.512C306.333 44.512 305.8 44.6507 305.33 44.928C304.861 45.1947 304.488 45.5733 304.21 46.064C303.933 46.5547 303.794 47.1307 303.794 47.792C303.794 48.4427 303.933 49.0187 304.21 49.52C304.488 50.0107 304.861 50.3947 305.33 50.672C305.8 50.9387 306.328 51.072 306.914 51.072ZM316.178 52.08C315.388 52.08 314.78 51.8667 314.354 51.44C313.927 51.0133 313.714 50.4107 313.714 49.632V41.744H314.85V49.568C314.85 50.0587 314.972 50.4373 315.218 50.704C315.474 50.9707 315.836 51.104 316.306 51.104C316.807 51.104 317.223 50.96 317.554 50.672L317.954 51.488C317.73 51.6907 317.458 51.84 317.138 51.936C316.828 52.032 316.508 52.08 316.178 52.08ZM312.21 44.544V43.6H317.41V44.544H312.21ZM322.459 52.08C321.669 52.08 321.061 51.8667 320.635 51.44C320.208 51.0133 319.995 50.4107 319.995 49.632V41.744H321.131V49.568C321.131 50.0587 321.253 50.4373 321.499 50.704C321.755 50.9707 322.117 51.104 322.587 51.104C323.088 51.104 323.504 50.96 323.835 50.672L324.235 51.488C324.011 51.6907 323.739 51.84 323.419 51.936C323.109 52.032 322.789 52.08 322.459 52.08ZM318.491 44.544V43.6H323.691V44.544H318.491ZM329.574 52.08C328.699 52.08 327.931 51.8987 327.27 51.536C326.609 51.1627 326.091 50.656 325.718 50.016C325.345 49.3653 325.158 48.624 325.158 47.792C325.158 46.96 325.334 46.224 325.686 45.584C326.049 44.944 326.539 44.4427 327.158 44.08C327.787 43.7067 328.491 43.52 329.27 43.52C330.059 43.52 330.758 43.7013 331.366 44.064C331.985 44.416 332.47 44.9173 332.822 45.568C333.174 46.208 333.35 46.9493 333.35 47.792C333.35 47.8453 333.345 47.904 333.334 47.968C333.334 48.0213 333.334 48.08 333.334 48.144H326.022V47.296H332.726L332.278 47.632C332.278 47.024 332.145 46.4853 331.878 46.016C331.622 45.536 331.27 45.1627 330.822 44.896C330.374 44.6293 329.857 44.496 329.27 44.496C328.694 44.496 328.177 44.6293 327.718 44.896C327.259 45.1627 326.902 45.536 326.646 46.016C326.39 46.496 326.262 47.0453 326.262 47.664V47.84C326.262 48.48 326.401 49.0453 326.678 49.536C326.966 50.016 327.361 50.3947 327.862 50.672C328.374 50.9387 328.955 51.072 329.606 51.072C330.118 51.072 330.593 50.9813 331.03 50.8C331.478 50.6187 331.862 50.3413 332.182 49.968L332.822 50.704C332.449 51.152 331.979 51.4933 331.414 51.728C330.859 51.9627 330.246 52.08 329.574 52.08ZM339.95 43.52C340.633 43.52 341.23 43.6533 341.742 43.92C342.265 44.176 342.67 44.5707 342.958 45.104C343.257 45.6373 343.406 46.3093 343.406 47.12V52H342.27V47.232C342.27 46.3467 342.046 45.68 341.598 45.232C341.161 44.7733 340.542 44.544 339.742 44.544C339.145 44.544 338.622 44.6667 338.174 44.912C337.737 45.1467 337.395 45.4933 337.15 45.952C336.915 46.4 336.798 46.944 336.798 47.584V52H335.662V43.6H336.75V45.904L336.574 45.472C336.841 44.864 337.267 44.3893 337.854 44.048C338.441 43.696 339.139 43.52 339.95 43.52ZM350.854 52V42.544C350.854 41.7973 351.073 41.1947 351.51 40.736C351.947 40.2773 352.577 40.048 353.398 40.048C353.718 40.048 354.027 40.0907 354.326 40.176C354.625 40.2613 354.875 40.3947 355.078 40.576L354.694 41.424C354.534 41.2853 354.347 41.184 354.134 41.12C353.921 41.0453 353.691 41.008 353.446 41.008C352.966 41.008 352.598 41.1413 352.342 41.408C352.086 41.6747 351.958 42.0693 351.958 42.592V43.872L351.99 44.4V52H350.854ZM349.35 44.544V43.6H354.55V44.544H349.35ZM356.084 52V43.6H357.172V45.888L357.06 45.488C357.295 44.848 357.689 44.3627 358.244 44.032C358.799 43.6907 359.487 43.52 360.308 43.52V44.624C360.265 44.624 360.223 44.624 360.18 44.624C360.137 44.6133 360.095 44.608 360.052 44.608C359.167 44.608 358.473 44.88 357.972 45.424C357.471 45.9573 357.22 46.72 357.22 47.712V52H356.084ZM365.727 52.08C364.916 52.08 364.185 51.8987 363.535 51.536C362.895 51.1627 362.388 50.656 362.015 50.016C361.641 49.3653 361.455 48.624 361.455 47.792C361.455 46.9493 361.641 46.208 362.015 45.568C362.388 44.928 362.895 44.4267 363.535 44.064C364.175 43.7013 364.905 43.52 365.727 43.52C366.559 43.52 367.295 43.7013 367.935 44.064C368.585 44.4267 369.092 44.928 369.455 45.568C369.828 46.208 370.015 46.9493 370.015 47.792C370.015 48.624 369.828 49.3653 369.455 50.016C369.092 50.656 368.585 51.1627 367.935 51.536C367.284 51.8987 366.548 52.08 365.727 52.08ZM365.727 51.072C366.335 51.072 366.873 50.9387 367.343 50.672C367.812 50.3947 368.18 50.0107 368.447 49.52C368.724 49.0187 368.863 48.4427 368.863 47.792C368.863 47.1307 368.724 46.5547 368.447 46.064C368.18 45.5733 367.812 45.1947 367.343 44.928C366.873 44.6507 366.34 44.512 365.743 44.512C365.145 44.512 364.612 44.6507 364.143 44.928C363.673 45.1947 363.3 45.5733 363.023 46.064C362.745 46.5547 362.607 47.1307 362.607 47.792C362.607 48.4427 362.745 49.0187 363.023 49.52C363.3 50.0107 363.673 50.3947 364.143 50.672C364.612 50.9387 365.14 51.072 365.727 51.072ZM382.83 43.52C383.513 43.52 384.105 43.6533 384.606 43.92C385.118 44.176 385.513 44.5707 385.79 45.104C386.078 45.6373 386.222 46.3093 386.222 47.12V52H385.086V47.232C385.086 46.3467 384.873 45.68 384.446 45.232C384.03 44.7733 383.438 44.544 382.67 44.544C382.094 44.544 381.593 44.6667 381.166 44.912C380.75 45.1467 380.425 45.4933 380.19 45.952C379.966 46.4 379.854 46.944 379.854 47.584V52H378.718V47.232C378.718 46.3467 378.505 45.68 378.078 45.232C377.651 44.7733 377.054 44.544 376.286 44.544C375.721 44.544 375.225 44.6667 374.798 44.912C374.371 45.1467 374.041 45.4933 373.806 45.952C373.582 46.4 373.47 46.944 373.47 47.584V52H372.334V43.6H373.422V45.872L373.246 45.472C373.502 44.864 373.913 44.3893 374.478 44.048C375.054 43.696 375.731 43.52 376.51 43.52C377.331 43.52 378.03 43.728 378.606 44.144C379.182 44.5493 379.555 45.1627 379.726 45.984L379.278 45.808C379.523 45.1253 379.955 44.576 380.574 44.16C381.203 43.7333 381.955 43.52 382.83 43.52ZM403.986 43.52C404.669 43.52 405.261 43.6533 405.762 43.92C406.274 44.176 406.669 44.5707 406.946 45.104C407.234 45.6373 407.378 46.3093 407.378 47.12V52H406.242V47.232C406.242 46.3467 406.029 45.68 405.602 45.232C405.186 44.7733 404.594 44.544 403.826 44.544C403.25 44.544 402.749 44.6667 402.322 44.912C401.906 45.1467 401.581 45.4933 401.346 45.952C401.122 46.4 401.01 46.944 401.01 47.584V52H399.874V47.232C399.874 46.3467 399.661 45.68 399.234 45.232C398.808 44.7733 398.21 44.544 397.442 44.544C396.877 44.544 396.381 44.6667 395.954 44.912C395.528 45.1467 395.197 45.4933 394.962 45.952C394.738 46.4 394.626 46.944 394.626 47.584V52H393.49V43.6H394.578V45.872L394.402 45.472C394.658 44.864 395.069 44.3893 395.634 44.048C396.21 43.696 396.888 43.52 397.666 43.52C398.488 43.52 399.186 43.728 399.762 44.144C400.338 44.5493 400.712 45.1627 400.882 45.984L400.434 45.808C400.68 45.1253 401.112 44.576 401.73 44.16C402.36 43.7333 403.112 43.52 403.986 43.52ZM410.367 55.184C409.972 55.184 409.593 55.12 409.231 54.992C408.879 54.864 408.575 54.672 408.319 54.416L408.847 53.568C409.06 53.7707 409.289 53.9253 409.535 54.032C409.791 54.1493 410.073 54.208 410.383 54.208C410.756 54.208 411.076 54.1013 411.343 53.888C411.62 53.6853 411.881 53.3227 412.127 52.8L412.671 51.568L412.799 51.392L416.255 43.6H417.375L413.167 53.008C412.932 53.552 412.671 53.984 412.383 54.304C412.105 54.624 411.801 54.848 411.471 54.976C411.14 55.1147 410.772 55.184 410.367 55.184ZM412.607 52.24L408.735 43.6H409.919L413.343 51.312L412.607 52.24ZM101.92 72.08C101.184 72.08 100.523 71.9147 99.936 71.584C99.3493 71.2427 98.8853 70.752 98.544 70.112C98.2027 69.472 98.032 68.6987 98.032 67.792C98.032 66.8747 98.2027 66.1013 98.544 65.472C98.896 64.832 99.3653 64.3467 99.952 64.016C100.539 63.6853 101.195 63.52 101.92 63.52C102.72 63.52 103.435 63.7013 104.064 64.064C104.704 64.416 105.205 64.912 105.568 65.552C105.931 66.192 106.112 66.9387 106.112 67.792C106.112 68.6347 105.931 69.3813 105.568 70.032C105.205 70.672 104.704 71.1733 104.064 71.536C103.435 71.8987 102.72 72.08 101.92 72.08ZM97.584 72V60.128H98.72V66.08L98.56 67.776L98.672 69.472V72H97.584ZM101.84 71.072C102.437 71.072 102.971 70.9387 103.44 70.672C103.909 70.3947 104.283 70.0107 104.56 69.52C104.837 69.0187 104.976 68.4427 104.976 67.792C104.976 67.1307 104.837 66.5547 104.56 66.064C104.283 65.5733 103.909 65.1947 103.44 64.928C102.971 64.6507 102.437 64.512 101.84 64.512C101.243 64.512 100.704 64.6507 100.224 64.928C99.7547 65.1947 99.3813 65.5733 99.104 66.064C98.8373 66.5547 98.704 67.1307 98.704 67.792C98.704 68.4427 98.8373 69.0187 99.104 69.52C99.3813 70.0107 99.7547 70.3947 100.224 70.672C100.704 70.9387 101.243 71.072 101.84 71.072ZM113.645 72V70.144L113.597 69.84V66.736C113.597 66.0213 113.394 65.472 112.989 65.088C112.594 64.704 112.002 64.512 111.213 64.512C110.669 64.512 110.152 64.6027 109.661 64.784C109.17 64.9653 108.754 65.2053 108.413 65.504L107.901 64.656C108.328 64.2933 108.84 64.016 109.437 63.824C110.034 63.6213 110.664 63.52 111.325 63.52C112.413 63.52 113.25 63.792 113.837 64.336C114.434 64.8693 114.733 65.6853 114.733 66.784V72H113.645ZM110.749 72.08C110.12 72.08 109.57 71.9787 109.101 71.776C108.642 71.5627 108.29 71.2747 108.045 70.912C107.8 70.5387 107.677 70.112 107.677 69.632C107.677 69.1947 107.778 68.8 107.981 68.448C108.194 68.0853 108.536 67.7973 109.005 67.584C109.485 67.36 110.125 67.248 110.925 67.248H113.821V68.096H110.957C110.146 68.096 109.581 68.24 109.261 68.528C108.952 68.816 108.797 69.1733 108.797 69.6C108.797 70.08 108.984 70.464 109.357 70.752C109.73 71.04 110.253 71.184 110.925 71.184C111.565 71.184 112.114 71.04 112.573 70.752C113.042 70.4533 113.384 70.0267 113.597 69.472L113.853 70.256C113.64 70.8107 113.266 71.2533 112.733 71.584C112.21 71.9147 111.549 72.08 110.749 72.08ZM122.106 63.52C122.789 63.52 123.386 63.6533 123.898 63.92C124.421 64.176 124.826 64.5707 125.114 65.104C125.413 65.6373 125.562 66.3093 125.562 67.12V72H124.426V67.232C124.426 66.3467 124.202 65.68 123.754 65.232C123.317 64.7733 122.698 64.544 121.898 64.544C121.301 64.544 120.778 64.6667 120.33 64.912C119.893 65.1467 119.552 65.4933 119.306 65.952C119.072 66.4 118.954 66.944 118.954 67.584V72H117.818V63.6H118.906V65.904L118.73 65.472C118.997 64.864 119.424 64.3893 120.01 64.048C120.597 63.696 121.296 63.52 122.106 63.52ZM129.527 69.824L129.559 68.368L134.791 63.6H136.183L132.487 67.136L131.847 67.68L129.527 69.824ZM128.631 72V60.128H129.767V72H128.631ZM135.143 72L131.639 67.632L132.375 66.752L136.535 72H135.143ZM142.428 72V63.6H143.564V72H142.428ZM143.004 61.744C142.769 61.744 142.572 61.664 142.412 61.504C142.252 61.344 142.172 61.152 142.172 60.928C142.172 60.704 142.252 60.5173 142.412 60.368C142.572 60.208 142.769 60.128 143.004 60.128C143.238 60.128 143.436 60.2027 143.596 60.352C143.756 60.5013 143.836 60.688 143.836 60.912C143.836 61.1467 143.756 61.344 143.596 61.504C143.446 61.664 143.249 61.744 143.004 61.744ZM148.981 72.08C148.287 72.08 147.631 71.984 147.013 71.792C146.394 71.5893 145.909 71.3387 145.557 71.04L146.069 70.144C146.41 70.4 146.847 70.624 147.381 70.816C147.914 70.9973 148.474 71.088 149.061 71.088C149.861 71.088 150.437 70.9653 150.789 70.72C151.141 70.464 151.317 70.128 151.317 69.712C151.317 69.4027 151.215 69.1627 151.013 68.992C150.821 68.8107 150.565 68.6773 150.245 68.592C149.925 68.496 149.567 68.416 149.173 68.352C148.778 68.288 148.383 68.2133 147.989 68.128C147.605 68.0427 147.253 67.92 146.933 67.76C146.613 67.5893 146.351 67.36 146.149 67.072C145.957 66.784 145.861 66.4 145.861 65.92C145.861 65.4613 145.989 65.0507 146.245 64.688C146.501 64.3253 146.874 64.0427 147.365 63.84C147.866 63.6267 148.474 63.52 149.189 63.52C149.733 63.52 150.277 63.5947 150.821 63.744C151.365 63.8827 151.813 64.0693 152.165 64.304L151.669 65.216C151.295 64.96 150.895 64.7787 150.469 64.672C150.042 64.5547 149.615 64.496 149.189 64.496C148.431 64.496 147.871 64.6293 147.509 64.896C147.157 65.152 146.981 65.4827 146.981 65.888C146.981 66.208 147.077 66.4587 147.269 66.64C147.471 66.8213 147.733 66.9653 148.053 67.072C148.383 67.168 148.741 67.248 149.125 67.312C149.519 67.376 149.909 67.456 150.293 67.552C150.687 67.6373 151.045 67.76 151.365 67.92C151.695 68.0693 151.957 68.288 152.149 68.576C152.351 68.8533 152.453 69.2213 152.453 69.68C152.453 70.1707 152.314 70.5973 152.037 70.96C151.77 71.312 151.375 71.5893 150.853 71.792C150.341 71.984 149.717 72.08 148.981 72.08ZM163.989 72V70.144L163.941 69.84V66.736C163.941 66.0213 163.738 65.472 163.333 65.088C162.938 64.704 162.346 64.512 161.557 64.512C161.013 64.512 160.495 64.6027 160.005 64.784C159.514 64.9653 159.098 65.2053 158.757 65.504L158.245 64.656C158.671 64.2933 159.183 64.016 159.781 63.824C160.378 63.6213 161.007 63.52 161.669 63.52C162.757 63.52 163.594 63.792 164.181 64.336C164.778 64.8693 165.077 65.6853 165.077 66.784V72H163.989ZM161.093 72.08C160.463 72.08 159.914 71.9787 159.445 71.776C158.986 71.5627 158.634 71.2747 158.389 70.912C158.143 70.5387 158.021 70.112 158.021 69.632C158.021 69.1947 158.122 68.8 158.325 68.448C158.538 68.0853 158.879 67.7973 159.349 67.584C159.829 67.36 160.469 67.248 161.269 67.248H164.165V68.096H161.301C160.49 68.096 159.925 68.24 159.605 68.528C159.295 68.816 159.141 69.1733 159.141 69.6C159.141 70.08 159.327 70.464 159.701 70.752C160.074 71.04 160.597 71.184 161.269 71.184C161.909 71.184 162.458 71.04 162.917 70.752C163.386 70.4533 163.727 70.0267 163.941 69.472L164.197 70.256C163.983 70.8107 163.61 71.2533 163.077 71.584C162.554 71.9147 161.893 72.08 161.093 72.08ZM175.838 72.08C175.006 72.08 174.259 71.8987 173.598 71.536C172.947 71.1627 172.435 70.656 172.062 70.016C171.688 69.3653 171.502 68.624 171.502 67.792C171.502 66.9493 171.688 66.208 172.062 65.568C172.435 64.928 172.947 64.4267 173.598 64.064C174.259 63.7013 175.006 63.52 175.838 63.52C176.552 63.52 177.198 63.6587 177.774 63.936C178.35 64.2133 178.803 64.6293 179.134 65.184L178.286 65.76C177.998 65.3333 177.64 65.0187 177.214 64.816C176.787 64.6133 176.323 64.512 175.822 64.512C175.224 64.512 174.686 64.6507 174.206 64.928C173.726 65.1947 173.347 65.5733 173.07 66.064C172.792 66.5547 172.654 67.1307 172.654 67.792C172.654 68.4533 172.792 69.0293 173.07 69.52C173.347 70.0107 173.726 70.3947 174.206 70.672C174.686 70.9387 175.224 71.072 175.822 71.072C176.323 71.072 176.787 70.9707 177.214 70.768C177.64 70.5653 177.998 70.256 178.286 69.84L179.134 70.416C178.803 70.96 178.35 71.376 177.774 71.664C177.198 71.9413 176.552 72.08 175.838 72.08ZM184.649 72.08C183.838 72.08 183.107 71.8987 182.457 71.536C181.817 71.1627 181.31 70.656 180.937 70.016C180.563 69.3653 180.377 68.624 180.377 67.792C180.377 66.9493 180.563 66.208 180.937 65.568C181.31 64.928 181.817 64.4267 182.457 64.064C183.097 63.7013 183.827 63.52 184.649 63.52C185.481 63.52 186.217 63.7013 186.857 64.064C187.507 64.4267 188.014 64.928 188.377 65.568C188.75 66.208 188.937 66.9493 188.937 67.792C188.937 68.624 188.75 69.3653 188.377 70.016C188.014 70.656 187.507 71.1627 186.857 71.536C186.206 71.8987 185.47 72.08 184.649 72.08ZM184.649 71.072C185.257 71.072 185.795 70.9387 186.265 70.672C186.734 70.3947 187.102 70.0107 187.369 69.52C187.646 69.0187 187.785 68.4427 187.785 67.792C187.785 67.1307 187.646 66.5547 187.369 66.064C187.102 65.5733 186.734 65.1947 186.265 64.928C185.795 64.6507 185.262 64.512 184.665 64.512C184.067 64.512 183.534 64.6507 183.065 64.928C182.595 65.1947 182.222 65.5733 181.945 66.064C181.667 66.5547 181.529 67.1307 181.529 67.792C181.529 68.4427 181.667 69.0187 181.945 69.52C182.222 70.0107 182.595 70.3947 183.065 70.672C183.534 70.9387 184.062 71.072 184.649 71.072ZM195.544 63.52C196.227 63.52 196.824 63.6533 197.336 63.92C197.859 64.176 198.264 64.5707 198.552 65.104C198.851 65.6373 199 66.3093 199 67.12V72H197.864V67.232C197.864 66.3467 197.64 65.68 197.192 65.232C196.755 64.7733 196.136 64.544 195.336 64.544C194.739 64.544 194.216 64.6667 193.768 64.912C193.331 65.1467 192.989 65.4933 192.744 65.952C192.509 66.4 192.392 66.944 192.392 67.584V72H191.256V63.6H192.344V65.904L192.168 65.472C192.435 64.864 192.861 64.3893 193.448 64.048C194.035 63.696 194.733 63.52 195.544 63.52ZM204.324 72.08C203.631 72.08 202.975 71.984 202.356 71.792C201.738 71.5893 201.252 71.3387 200.9 71.04L201.412 70.144C201.754 70.4 202.191 70.624 202.724 70.816C203.258 70.9973 203.818 71.088 204.404 71.088C205.204 71.088 205.78 70.9653 206.132 70.72C206.484 70.464 206.66 70.128 206.66 69.712C206.66 69.4027 206.559 69.1627 206.356 68.992C206.164 68.8107 205.908 68.6773 205.588 68.592C205.268 68.496 204.911 68.416 204.516 68.352C204.122 68.288 203.727 68.2133 203.332 68.128C202.948 68.0427 202.596 67.92 202.276 67.76C201.956 67.5893 201.695 67.36 201.492 67.072C201.3 66.784 201.204 66.4 201.204 65.92C201.204 65.4613 201.332 65.0507 201.588 64.688C201.844 64.3253 202.218 64.0427 202.708 63.84C203.21 63.6267 203.818 63.52 204.532 63.52C205.076 63.52 205.62 63.5947 206.164 63.744C206.708 63.8827 207.156 64.0693 207.508 64.304L207.012 65.216C206.639 64.96 206.239 64.7787 205.812 64.672C205.386 64.5547 204.959 64.496 204.532 64.496C203.775 64.496 203.215 64.6293 202.852 64.896C202.5 65.152 202.324 65.4827 202.324 65.888C202.324 66.208 202.42 66.4587 202.612 66.64C202.815 66.8213 203.076 66.9653 203.396 67.072C203.727 67.168 204.084 67.248 204.468 67.312C204.863 67.376 205.252 67.456 205.636 67.552C206.031 67.6373 206.388 67.76 206.708 67.92C207.039 68.0693 207.3 68.288 207.492 68.576C207.695 68.8533 207.796 69.2213 207.796 69.68C207.796 70.1707 207.658 70.5973 207.38 70.96C207.114 71.312 206.719 71.5893 206.196 71.792C205.684 71.984 205.06 72.08 204.324 72.08ZM213.305 72.08C212.494 72.08 211.764 71.8987 211.113 71.536C210.473 71.1627 209.966 70.656 209.593 70.016C209.22 69.3653 209.033 68.624 209.033 67.792C209.033 66.9493 209.22 66.208 209.593 65.568C209.966 64.928 210.473 64.4267 211.113 64.064C211.753 63.7013 212.484 63.52 213.305 63.52C214.137 63.52 214.873 63.7013 215.513 64.064C216.164 64.4267 216.67 64.928 217.033 65.568C217.406 66.208 217.593 66.9493 217.593 67.792C217.593 68.624 217.406 69.3653 217.033 70.016C216.67 70.656 216.164 71.1627 215.513 71.536C214.862 71.8987 214.126 72.08 213.305 72.08ZM213.305 71.072C213.913 71.072 214.452 70.9387 214.921 70.672C215.39 70.3947 215.758 70.0107 216.025 69.52C216.302 69.0187 216.441 68.4427 216.441 67.792C216.441 67.1307 216.302 66.5547 216.025 66.064C215.758 65.5733 215.39 65.1947 214.921 64.928C214.452 64.6507 213.918 64.512 213.321 64.512C212.724 64.512 212.19 64.6507 211.721 64.928C211.252 65.1947 210.878 65.5733 210.601 66.064C210.324 66.5547 210.185 67.1307 210.185 67.792C210.185 68.4427 210.324 69.0187 210.601 69.52C210.878 70.0107 211.252 70.3947 211.721 70.672C212.19 70.9387 212.718 71.072 213.305 71.072ZM219.912 72V60.128H221.048V72H219.912ZM224.209 72V63.6H225.345V72H224.209ZM224.785 61.744C224.55 61.744 224.353 61.664 224.193 61.504C224.033 61.344 223.953 61.152 223.953 60.928C223.953 60.704 224.033 60.5173 224.193 60.368C224.353 60.208 224.55 60.128 224.785 60.128C225.02 60.128 225.217 60.2027 225.377 60.352C225.537 60.5013 225.617 60.688 225.617 60.912C225.617 61.1467 225.537 61.344 225.377 61.504C225.228 61.664 225.03 61.744 224.785 61.744ZM231.85 72.08C231.05 72.08 230.33 71.8987 229.69 71.536C229.061 71.1733 228.565 70.672 228.202 70.032C227.839 69.3813 227.658 68.6347 227.658 67.792C227.658 66.9387 227.839 66.192 228.202 65.552C228.565 64.912 229.061 64.416 229.69 64.064C230.33 63.7013 231.05 63.52 231.85 63.52C232.586 63.52 233.242 63.6853 233.818 64.016C234.405 64.3467 234.869 64.832 235.21 65.472C235.562 66.1013 235.738 66.8747 235.738 67.792C235.738 68.6987 235.567 69.472 235.226 70.112C234.885 70.752 234.421 71.2427 233.834 71.584C233.258 71.9147 232.597 72.08 231.85 72.08ZM231.93 71.072C232.527 71.072 233.061 70.9387 233.53 70.672C234.01 70.3947 234.383 70.0107 234.65 69.52C234.927 69.0187 235.066 68.4427 235.066 67.792C235.066 67.1307 234.927 66.5547 234.65 66.064C234.383 65.5733 234.01 65.1947 233.53 64.928C233.061 64.6507 232.527 64.512 231.93 64.512C231.343 64.512 230.815 64.6507 230.346 64.928C229.877 65.1947 229.503 65.5733 229.226 66.064C228.949 66.5547 228.81 67.1307 228.81 67.792C228.81 68.4427 228.949 69.0187 229.226 69.52C229.503 70.0107 229.877 70.3947 230.346 70.672C230.815 70.9387 231.343 71.072 231.93 71.072ZM235.098 72V69.472L235.21 67.776L235.05 66.08V60.128H236.186V72H235.098ZM244.614 72V70.144L244.566 69.84V66.736C244.566 66.0213 244.363 65.472 243.958 65.088C243.563 64.704 242.971 64.512 242.182 64.512C241.638 64.512 241.12 64.6027 240.63 64.784C240.139 64.9653 239.723 65.2053 239.382 65.504L238.87 64.656C239.296 64.2933 239.808 64.016 240.406 63.824C241.003 63.6213 241.632 63.52 242.294 63.52C243.382 63.52 244.219 63.792 244.806 64.336C245.403 64.8693 245.702 65.6853 245.702 66.784V72H244.614ZM241.718 72.08C241.088 72.08 240.539 71.9787 240.07 71.776C239.611 71.5627 239.259 71.2747 239.014 70.912C238.768 70.5387 238.646 70.112 238.646 69.632C238.646 69.1947 238.747 68.8 238.95 68.448C239.163 68.0853 239.504 67.7973 239.974 67.584C240.454 67.36 241.094 67.248 241.894 67.248H244.79V68.096H241.926C241.115 68.096 240.55 68.24 240.23 68.528C239.92 68.816 239.766 69.1733 239.766 69.6C239.766 70.08 239.952 70.464 240.326 70.752C240.699 71.04 241.222 71.184 241.894 71.184C242.534 71.184 243.083 71.04 243.542 70.752C244.011 70.4533 244.352 70.0267 244.566 69.472L244.822 70.256C244.608 70.8107 244.235 71.2533 243.702 71.584C243.179 71.9147 242.518 72.08 241.718 72.08ZM251.443 72.08C250.654 72.08 250.046 71.8667 249.619 71.44C249.192 71.0133 248.979 70.4107 248.979 69.632V61.744H250.115V69.568C250.115 70.0587 250.238 70.4373 250.483 70.704C250.739 70.9707 251.102 71.104 251.571 71.104C252.072 71.104 252.488 70.96 252.819 70.672L253.219 71.488C252.995 71.6907 252.723 71.84 252.403 71.936C252.094 72.032 251.774 72.08 251.443 72.08ZM247.475 64.544V63.6H252.675V64.544H247.475ZM255.287 72V63.6H256.423V72H255.287ZM255.863 61.744C255.628 61.744 255.431 61.664 255.271 61.504C255.111 61.344 255.031 61.152 255.031 60.928C255.031 60.704 255.111 60.5173 255.271 60.368C255.431 60.208 255.628 60.128 255.863 60.128C256.098 60.128 256.295 60.2027 256.455 60.352C256.615 60.5013 256.695 60.688 256.695 60.912C256.695 61.1467 256.615 61.344 256.455 61.504C256.306 61.664 256.108 61.744 255.863 61.744ZM263.008 72.08C262.197 72.08 261.467 71.8987 260.816 71.536C260.176 71.1627 259.669 70.656 259.296 70.016C258.923 69.3653 258.736 68.624 258.736 67.792C258.736 66.9493 258.923 66.208 259.296 65.568C259.669 64.928 260.176 64.4267 260.816 64.064C261.456 63.7013 262.187 63.52 263.008 63.52C263.84 63.52 264.576 63.7013 265.216 64.064C265.867 64.4267 266.373 64.928 266.736 65.568C267.109 66.208 267.296 66.9493 267.296 67.792C267.296 68.624 267.109 69.3653 266.736 70.016C266.373 70.656 265.867 71.1627 265.216 71.536C264.565 71.8987 263.829 72.08 263.008 72.08ZM263.008 71.072C263.616 71.072 264.155 70.9387 264.624 70.672C265.093 70.3947 265.461 70.0107 265.728 69.52C266.005 69.0187 266.144 68.4427 266.144 67.792C266.144 67.1307 266.005 66.5547 265.728 66.064C265.461 65.5733 265.093 65.1947 264.624 64.928C264.155 64.6507 263.621 64.512 263.024 64.512C262.427 64.512 261.893 64.6507 261.424 64.928C260.955 65.1947 260.581 65.5733 260.304 66.064C260.027 66.5547 259.888 67.1307 259.888 67.792C259.888 68.4427 260.027 69.0187 260.304 69.52C260.581 70.0107 260.955 70.3947 261.424 70.672C261.893 70.9387 262.421 71.072 263.008 71.072ZM273.903 63.52C274.586 63.52 275.183 63.6533 275.695 63.92C276.218 64.176 276.623 64.5707 276.911 65.104C277.21 65.6373 277.359 66.3093 277.359 67.12V72H276.223V67.232C276.223 66.3467 275.999 65.68 275.551 65.232C275.114 64.7733 274.495 64.544 273.695 64.544C273.098 64.544 272.575 64.6667 272.127 64.912C271.69 65.1467 271.349 65.4933 271.103 65.952C270.869 66.4 270.751 66.944 270.751 67.584V72H269.615V63.6H270.703V65.904L270.527 65.472C270.794 64.864 271.221 64.3893 271.807 64.048C272.394 63.696 273.093 63.52 273.903 63.52ZM284.615 72V60.128H285.751V72H284.615ZM292.336 72.08C291.525 72.08 290.795 71.8987 290.144 71.536C289.504 71.1627 288.997 70.656 288.624 70.016C288.251 69.3653 288.064 68.624 288.064 67.792C288.064 66.9493 288.251 66.208 288.624 65.568C288.997 64.928 289.504 64.4267 290.144 64.064C290.784 63.7013 291.515 63.52 292.336 63.52C293.168 63.52 293.904 63.7013 294.544 64.064C295.195 64.4267 295.701 64.928 296.064 65.568C296.437 66.208 296.624 66.9493 296.624 67.792C296.624 68.624 296.437 69.3653 296.064 70.016C295.701 70.656 295.195 71.1627 294.544 71.536C293.893 71.8987 293.157 72.08 292.336 72.08ZM292.336 71.072C292.944 71.072 293.483 70.9387 293.952 70.672C294.421 70.3947 294.789 70.0107 295.056 69.52C295.333 69.0187 295.472 68.4427 295.472 67.792C295.472 67.1307 295.333 66.5547 295.056 66.064C294.789 65.5733 294.421 65.1947 293.952 64.928C293.483 64.6507 292.949 64.512 292.352 64.512C291.755 64.512 291.221 64.6507 290.752 64.928C290.283 65.1947 289.909 65.5733 289.632 66.064C289.355 66.5547 289.216 67.1307 289.216 67.792C289.216 68.4427 289.355 69.0187 289.632 69.52C289.909 70.0107 290.283 70.3947 290.752 70.672C291.221 70.9387 291.749 71.072 292.336 71.072ZM304.161 72V70.144L304.113 69.84V66.736C304.113 66.0213 303.91 65.472 303.505 65.088C303.11 64.704 302.518 64.512 301.729 64.512C301.185 64.512 300.667 64.6027 300.177 64.784C299.686 64.9653 299.27 65.2053 298.929 65.504L298.417 64.656C298.843 64.2933 299.355 64.016 299.953 63.824C300.55 63.6213 301.179 63.52 301.841 63.52C302.929 63.52 303.766 63.792 304.353 64.336C304.95 64.8693 305.249 65.6853 305.249 66.784V72H304.161ZM301.265 72.08C300.635 72.08 300.086 71.9787 299.617 71.776C299.158 71.5627 298.806 71.2747 298.561 70.912C298.315 70.5387 298.193 70.112 298.193 69.632C298.193 69.1947 298.294 68.8 298.497 68.448C298.71 68.0853 299.051 67.7973 299.521 67.584C300.001 67.36 300.641 67.248 301.441 67.248H304.337V68.096H301.473C300.662 68.096 300.097 68.24 299.777 68.528C299.467 68.816 299.312 69.1733 299.312 69.6C299.312 70.08 299.499 70.464 299.873 70.752C300.246 71.04 300.769 71.184 301.441 71.184C302.081 71.184 302.63 71.04 303.089 70.752C303.558 70.4533 303.899 70.0267 304.113 69.472L304.369 70.256C304.155 70.8107 303.782 71.2533 303.249 71.584C302.726 71.9147 302.065 72.08 301.265 72.08ZM312.622 63.52C313.305 63.52 313.902 63.6533 314.414 63.92C314.937 64.176 315.342 64.5707 315.63 65.104C315.929 65.6373 316.078 66.3093 316.078 67.12V72H314.942V67.232C314.942 66.3467 314.718 65.68 314.27 65.232C313.833 64.7733 313.214 64.544 312.414 64.544C311.817 64.544 311.294 64.6667 310.846 64.912C310.409 65.1467 310.067 65.4933 309.822 65.952C309.587 66.4 309.47 66.944 309.47 67.584V72H308.334V63.6H309.422V65.904L309.246 65.472C309.513 64.864 309.939 64.3893 310.526 64.048C311.113 63.696 311.811 63.52 312.622 63.52ZM318.334 64.032L319.038 61.088L319.166 61.76C318.92 61.76 318.712 61.6853 318.542 61.536C318.382 61.376 318.302 61.168 318.302 60.912C318.302 60.656 318.382 60.448 318.542 60.288C318.712 60.128 318.915 60.048 319.15 60.048C319.395 60.048 319.592 60.1333 319.742 60.304C319.902 60.464 319.982 60.6667 319.982 60.912C319.982 60.9973 319.976 61.0827 319.966 61.168C319.955 61.2533 319.934 61.3493 319.902 61.456C319.88 61.552 319.843 61.6747 319.789 61.824L319.102 64.032H318.334ZM321.054 64.032L321.758 61.088L321.886 61.76C321.64 61.76 321.432 61.6853 321.262 61.536C321.102 61.376 321.022 61.168 321.022 60.912C321.022 60.656 321.102 60.448 321.262 60.288C321.432 60.128 321.635 60.048 321.87 60.048C322.115 60.048 322.312 60.1333 322.462 60.304C322.622 60.464 322.702 60.6667 322.702 60.912C322.702 60.9973 322.696 61.0827 322.686 61.168C322.675 61.2533 322.654 61.3493 322.622 61.456C322.6 61.552 322.563 61.6747 322.51 61.824L321.822 64.032H321.054Z" fill="black"/>
<g clip-path="url(#clip0_134_8119)">
<g opacity="0.2">
<path fill-rule="evenodd" clip-rule="evenodd" d="M54.3248 34.6501C54.5018 34.6498 54.6741 34.7064 54.8164 34.8116C54.9588 34.9168 55.0635 35.0649 55.1152 35.2342L58.2964 45.6836L67.8086 49.1602C67.9655 49.2176 68.1012 49.3214 68.1978 49.4576C68.2944 49.5939 68.3474 49.7563 68.3497 49.9233C68.352 50.0904 68.3036 50.2542 68.2108 50.3931C68.118 50.532 67.9852 50.6394 67.8301 50.7013L58.3805 54.455L55.1152 65.411C55.0642 65.5811 54.9599 65.7302 54.8175 65.8362C54.6751 65.9422 54.5023 65.9994 54.3248 65.9994C54.1473 65.9994 53.9745 65.9422 53.8321 65.8362C53.6898 65.7302 53.5854 65.5811 53.5345 65.411L50.2691 54.455L40.8196 50.7013C40.6644 50.6394 40.5316 50.532 40.4388 50.3931C40.346 50.2542 40.2976 50.0904 40.2999 49.9233C40.3022 49.7563 40.3552 49.5939 40.4518 49.4576C40.5484 49.3214 40.6841 49.2176 40.841 49.1602L50.3533 45.6836L53.5361 35.2342C53.5877 35.0652 53.6922 34.9172 53.8342 34.8121C53.9761 34.7069 54.1481 34.6501 54.3248 34.6501Z" fill="#FFD53E"/>
<path d="M65.5944 65.9176C65.4129 65.9176 65.2644 65.7856 65.2479 65.6206C64.9179 62.3206 64.6704 61.2646 61.5684 60.9841C61.4821 60.9766 61.4017 60.9367 61.3436 60.8724C61.2854 60.8082 61.2538 60.7243 61.2549 60.6376C61.2549 60.4561 61.3869 60.3076 61.5684 60.2911C64.7034 59.9941 64.9179 59.1361 65.2479 55.9186C65.2644 55.7371 65.4129 55.6051 65.5944 55.6051C65.7759 55.6051 65.9244 55.7371 65.9409 55.9021C66.2709 59.1361 66.4854 59.9941 69.6204 60.2746C69.8019 60.2911 69.9339 60.4396 69.9339 60.6211C69.9339 60.8026 69.8019 60.9511 69.6204 60.9676C66.5349 61.2646 66.2709 62.3206 65.9574 65.6041C65.9409 65.7856 65.7924 65.9176 65.6109 65.9176H65.5944Z" fill="#FFD53E"/>
</g>
<path fill-rule="evenodd" clip-rule="evenodd" d="M51.8502 33.825C52.0272 33.8247 52.1995 33.8814 52.3418 33.9865C52.4841 34.0917 52.5889 34.2399 52.6405 34.4091L55.8217 44.8586L65.334 48.3351C65.4909 48.3926 65.6266 48.4963 65.7232 48.6326C65.8198 48.7689 65.8728 48.9312 65.8751 49.0983C65.8774 49.2653 65.829 49.4291 65.7362 49.568C65.6434 49.7069 65.5106 49.8144 65.3554 49.8762L55.9059 53.63L52.6405 64.586C52.5896 64.756 52.4852 64.9051 52.3429 65.0111C52.2005 65.1171 52.0277 65.1744 51.8502 65.1744C51.6727 65.1744 51.4999 65.1171 51.3575 65.0111C51.2151 64.9051 51.1107 64.756 51.0598 64.586L47.7945 53.63L38.3449 49.8762C38.1897 49.8144 38.057 49.7069 37.9642 49.568C37.8714 49.4291 37.823 49.2653 37.8253 49.0983C37.8276 48.9312 37.8806 48.7689 37.9772 48.6326C38.0738 48.4963 38.2095 48.3926 38.3664 48.3351L47.8786 44.8586L51.0615 34.4091C51.1131 34.2401 51.2176 34.0922 51.3595 33.987C51.5015 33.8819 51.6735 33.8251 51.8502 33.825ZM51.8502 37.4814L49.3372 45.7314C49.3 45.8537 49.2348 45.9656 49.1469 46.0584C49.059 46.1511 48.9508 46.2222 48.8307 46.266L40.9651 49.1436L48.7762 52.2456C48.892 52.2918 48.9957 52.3636 49.0798 52.4556C49.1638 52.5476 49.2259 52.6575 49.2613 52.7769L51.8518 61.4625L54.439 52.7769C54.4745 52.6575 54.5366 52.5476 54.6206 52.4556C54.7046 52.3636 54.8084 52.2918 54.9241 52.2456L62.7352 49.1436L54.8697 46.2693C54.7496 46.2255 54.6414 46.1544 54.5535 46.0617C54.4655 45.9689 54.4004 45.857 54.3631 45.7347L51.8502 37.4814Z" fill="#FFD53E"/>
<path d="M64.638 64.548C64.473 64.548 64.3245 64.416 64.308 64.251C64.011 61.248 63.78 60.291 61.0245 60.027C60.8595 60.0105 60.7275 59.862 60.7275 59.697C60.7275 59.532 60.8595 59.3835 61.0245 59.367C63.846 59.103 64.011 58.377 64.308 55.374C64.308 55.209 64.473 55.077 64.638 55.077C64.803 55.077 64.9515 55.209 64.968 55.374C65.265 58.377 65.4465 59.103 68.2515 59.367C68.4165 59.3835 68.5485 59.532 68.5485 59.697C68.5485 59.862 68.4165 60.0105 68.2515 60.027C65.4795 60.291 65.265 61.248 64.968 64.2675C64.968 64.4325 64.8195 64.5645 64.638 64.5645V64.548Z" fill="#FFD53E"/>
</g>
</g>
<defs>
<filter id="filter0_d_134_8119" x="0" y="0" width="513" height="133" filterUnits="userSpaceOnUse" color-interpolation-filters="sRGB">
<feFlood flood-opacity="0" result="BackgroundImageFix"/>
<feColorMatrix in="SourceAlpha" type="matrix" values="0 0 0 0 0 0 0 0 0 0 0 0 0 0 0 0 0 0 127 0" result="hardAlpha"/>
<feOffset dx="4" dy="8"/>
<feGaussianBlur stdDeviation="6"/>
<feComposite in2="hardAlpha" operator="out"/>
<feColorMatrix type="matrix" values="0 0 0 0 0.160784 0 0 0 0 0.188235 0 0 0 0 0.301961 0 0 0 0.2 0"/>
<feBlend mode="normal" in2="BackgroundImageFix" result="effect1_dropShadow_134_8119"/>
<feBlend mode="normal" in="SourceGraphic" in2="effect1_dropShadow_134_8119" result="shape"/>
</filter>
<clipPath id="clip0_134_8119">
<rect width="33" height="33" fill="white" transform="translate(37 33)"/>
</clipPath>
</defs>
</svg>
