<svg width="513" height="129" viewBox="0 0 513 129" fill="none" xmlns="http://www.w3.org/2000/svg">
<g filter="url(#filter0_d_134_8110)">
<rect x="8" y="4" width="489" height="105" rx="30" fill="#EBEFFF"/>
<path d="M96.496 39.128L95.792 42.088L95.664 41.4C95.92 41.4 96.128 41.48 96.288 41.64C96.448 41.7893 96.528 41.992 96.528 42.248C96.528 42.504 96.448 42.712 96.288 42.872C96.128 43.032 95.9307 43.112 95.696 43.112C95.44 43.112 95.232 43.032 95.072 42.872C94.9227 42.7013 94.848 42.4933 94.848 42.248C94.848 42.152 94.8533 42.0667 94.864 41.992C94.8747 41.9173 94.896 41.8267 94.928 41.72C94.96 41.6133 95.0027 41.4853 95.056 41.336L95.728 39.128H96.496ZM99.216 39.128L98.512 42.088L98.384 41.4C98.64 41.4 98.848 41.48 99.008 41.64C99.168 41.7893 99.248 41.992 99.248 42.248C99.248 42.504 99.168 42.712 99.008 42.872C98.848 43.032 98.6507 43.112 98.416 43.112C98.16 43.112 97.952 43.032 97.792 42.872C97.6427 42.7013 97.568 42.4933 97.568 42.248C97.568 42.152 97.5733 42.0667 97.584 41.992C97.5947 41.9173 97.616 41.8267 97.648 41.72C97.68 41.6133 97.7227 41.4853 97.776 41.336L98.448 39.128H99.216ZM101.933 51V39.8H102.909L108.029 48.536H107.517L112.589 39.8H113.565V51H112.429V41.576H112.701L108.029 49.576H107.469L102.765 41.576H103.069V51H101.933ZM117.039 54.184C116.644 54.184 116.265 54.12 115.903 53.992C115.551 53.864 115.247 53.672 114.991 53.416L115.519 52.568C115.732 52.7707 115.961 52.9253 116.207 53.032C116.463 53.1493 116.745 53.208 117.055 53.208C117.428 53.208 117.748 53.1013 118.015 52.888C118.292 52.6853 118.553 52.3227 118.799 51.8L119.343 50.568L119.471 50.392L122.927 42.6H124.047L119.839 52.008C119.604 52.552 119.343 52.984 119.055 53.304C118.777 53.624 118.473 53.848 118.143 53.976C117.812 54.1147 117.444 54.184 117.039 54.184ZM119.279 51.24L115.407 42.6H116.591L120.015 50.312L119.279 51.24ZM133.322 51.08C132.49 51.08 131.743 50.8987 131.082 50.536C130.431 50.1627 129.919 49.656 129.546 49.016C129.173 48.3653 128.986 47.624 128.986 46.792C128.986 45.9493 129.173 45.208 129.546 44.568C129.919 43.928 130.431 43.4267 131.082 43.064C131.743 42.7013 132.49 42.52 133.322 42.52C134.037 42.52 134.682 42.6587 135.258 42.936C135.834 43.2133 136.287 43.6293 136.618 44.184L135.77 44.76C135.482 44.3333 135.125 44.0187 134.698 43.816C134.271 43.6133 133.807 43.512 133.306 43.512C132.709 43.512 132.17 43.6507 131.69 43.928C131.21 44.1947 130.831 44.5733 130.554 45.064C130.277 45.5547 130.138 46.1307 130.138 46.792C130.138 47.4533 130.277 48.0293 130.554 48.52C130.831 49.0107 131.21 49.3947 131.69 49.672C132.17 49.9387 132.709 50.072 133.306 50.072C133.807 50.072 134.271 49.9707 134.698 49.768C135.125 49.5653 135.482 49.256 135.77 48.84L136.618 49.416C136.287 49.96 135.834 50.376 135.258 50.664C134.682 50.9413 134.037 51.08 133.322 51.08ZM138.85 51V42.6H139.938V44.888L139.826 44.488C140.06 43.848 140.455 43.3627 141.01 43.032C141.564 42.6907 142.252 42.52 143.074 42.52V43.624C143.031 43.624 142.988 43.624 142.946 43.624C142.903 43.6133 142.86 43.608 142.818 43.608C141.932 43.608 141.239 43.88 140.738 44.424C140.236 44.9573 139.986 45.72 139.986 46.712V51H138.85ZM148.636 51.08C147.762 51.08 146.994 50.8987 146.332 50.536C145.671 50.1627 145.154 49.656 144.78 49.016C144.407 48.3653 144.22 47.624 144.22 46.792C144.22 45.96 144.396 45.224 144.748 44.584C145.111 43.944 145.602 43.4427 146.22 43.08C146.85 42.7067 147.554 42.52 148.332 42.52C149.122 42.52 149.82 42.7013 150.428 43.064C151.047 43.416 151.532 43.9173 151.884 44.568C152.236 45.208 152.412 45.9493 152.412 46.792C152.412 46.8453 152.407 46.904 152.396 46.968C152.396 47.0213 152.396 47.08 152.396 47.144H145.084V46.296H151.788L151.34 46.632C151.34 46.024 151.207 45.4853 150.94 45.016C150.684 44.536 150.332 44.1627 149.884 43.896C149.436 43.6293 148.919 43.496 148.332 43.496C147.756 43.496 147.239 43.6293 146.78 43.896C146.322 44.1627 145.964 44.536 145.708 45.016C145.452 45.496 145.324 46.0453 145.324 46.664V46.84C145.324 47.48 145.463 48.0453 145.74 48.536C146.028 49.016 146.423 49.3947 146.924 49.672C147.436 49.9387 148.018 50.072 148.668 50.072C149.18 50.072 149.655 49.9813 150.092 49.8C150.54 49.6187 150.924 49.3413 151.244 48.968L151.884 49.704C151.511 50.152 151.042 50.4933 150.476 50.728C149.922 50.9627 149.308 51.08 148.636 51.08ZM158.069 51.08C157.269 51.08 156.549 50.8987 155.909 50.536C155.279 50.1733 154.783 49.672 154.421 49.032C154.058 48.3813 153.877 47.6347 153.877 46.792C153.877 45.9387 154.058 45.192 154.421 44.552C154.783 43.912 155.279 43.416 155.909 43.064C156.549 42.7013 157.269 42.52 158.069 42.52C158.805 42.52 159.461 42.6853 160.037 43.016C160.623 43.3467 161.087 43.832 161.429 44.472C161.781 45.1013 161.957 45.8747 161.957 46.792C161.957 47.6987 161.786 48.472 161.445 49.112C161.103 49.752 160.639 50.2427 160.053 50.584C159.477 50.9147 158.815 51.08 158.069 51.08ZM158.149 50.072C158.746 50.072 159.279 49.9387 159.749 49.672C160.229 49.3947 160.602 49.0107 160.869 48.52C161.146 48.0187 161.285 47.4427 161.285 46.792C161.285 46.1307 161.146 45.5547 160.869 45.064C160.602 44.5733 160.229 44.1947 159.749 43.928C159.279 43.6507 158.746 43.512 158.149 43.512C157.562 43.512 157.034 43.6507 156.565 43.928C156.095 44.1947 155.722 44.5733 155.445 45.064C155.167 45.5547 155.029 46.1307 155.029 46.792C155.029 47.4427 155.167 48.0187 155.445 48.52C155.722 49.0107 156.095 49.3947 156.565 49.672C157.034 49.9387 157.562 50.072 158.149 50.072ZM161.317 51V48.472L161.429 46.776L161.269 45.08V39.128H162.405V51H161.317ZM165.568 51V42.6H166.704V51H165.568ZM166.144 40.744C165.91 40.744 165.712 40.664 165.552 40.504C165.392 40.344 165.312 40.152 165.312 39.928C165.312 39.704 165.392 39.5173 165.552 39.368C165.712 39.208 165.91 39.128 166.144 39.128C166.379 39.128 166.576 39.2027 166.736 39.352C166.896 39.5013 166.976 39.688 166.976 39.912C166.976 40.1467 166.896 40.344 166.736 40.504C166.587 40.664 166.39 40.744 166.144 40.744ZM172.521 51.08C171.732 51.08 171.124 50.8667 170.697 50.44C170.271 50.0133 170.057 49.4107 170.057 48.632V40.744H171.193V48.568C171.193 49.0587 171.316 49.4373 171.561 49.704C171.817 49.9707 172.18 50.104 172.649 50.104C173.151 50.104 173.567 49.96 173.897 49.672L174.297 50.488C174.073 50.6907 173.801 50.84 173.481 50.936C173.172 51.032 172.852 51.08 172.521 51.08ZM168.553 43.544V42.6H173.753V43.544H168.553ZM184.041 51.08C183.209 51.08 182.462 50.8987 181.801 50.536C181.15 50.1627 180.638 49.656 180.265 49.016C179.891 48.3653 179.705 47.624 179.705 46.792C179.705 45.9493 179.891 45.208 180.265 44.568C180.638 43.928 181.15 43.4267 181.801 43.064C182.462 42.7013 183.209 42.52 184.041 42.52C184.755 42.52 185.401 42.6587 185.977 42.936C186.553 43.2133 187.006 43.6293 187.337 44.184L186.489 44.76C186.201 44.3333 185.843 44.0187 185.417 43.816C184.99 43.6133 184.526 43.512 184.025 43.512C183.427 43.512 182.889 43.6507 182.409 43.928C181.929 44.1947 181.55 44.5733 181.273 45.064C180.995 45.5547 180.857 46.1307 180.857 46.792C180.857 47.4533 180.995 48.0293 181.273 48.52C181.55 49.0107 181.929 49.3947 182.409 49.672C182.889 49.9387 183.427 50.072 184.025 50.072C184.526 50.072 184.99 49.9707 185.417 49.768C185.843 49.5653 186.201 49.256 186.489 48.84L187.337 49.416C187.006 49.96 186.553 50.376 185.977 50.664C185.401 50.9413 184.755 51.08 184.041 51.08ZM194.832 51V49.144L194.784 48.84V45.736C194.784 45.0213 194.582 44.472 194.176 44.088C193.782 43.704 193.19 43.512 192.4 43.512C191.856 43.512 191.339 43.6027 190.848 43.784C190.358 43.9653 189.942 44.2053 189.6 44.504L189.088 43.656C189.515 43.2933 190.027 43.016 190.624 42.824C191.222 42.6213 191.851 42.52 192.512 42.52C193.6 42.52 194.438 42.792 195.024 43.336C195.622 43.8693 195.92 44.6853 195.92 45.784V51H194.832ZM191.936 51.08C191.307 51.08 190.758 50.9787 190.288 50.776C189.83 50.5627 189.478 50.2747 189.232 49.912C188.987 49.5387 188.864 49.112 188.864 48.632C188.864 48.1947 188.966 47.8 189.168 47.448C189.382 47.0853 189.723 46.7973 190.192 46.584C190.672 46.36 191.312 46.248 192.112 46.248H195.008V47.096H192.144C191.334 47.096 190.768 47.24 190.448 47.528C190.139 47.816 189.984 48.1733 189.984 48.6C189.984 49.08 190.171 49.464 190.544 49.752C190.918 50.04 191.44 50.184 192.112 50.184C192.752 50.184 193.302 50.04 193.76 49.752C194.23 49.4533 194.571 49.0267 194.784 48.472L195.04 49.256C194.827 49.8107 194.454 50.2533 193.92 50.584C193.398 50.9147 192.736 51.08 191.936 51.08ZM199.006 51V42.6H200.094V44.888L199.982 44.488C200.217 43.848 200.611 43.3627 201.166 43.032C201.721 42.6907 202.409 42.52 203.23 42.52V43.624C203.187 43.624 203.145 43.624 203.102 43.624C203.059 43.6133 203.017 43.608 202.974 43.608C202.089 43.608 201.395 43.88 200.894 44.424C200.393 44.9573 200.142 45.72 200.142 46.712V51H199.006ZM208.569 51.08C207.769 51.08 207.049 50.8987 206.409 50.536C205.779 50.1733 205.283 49.672 204.921 49.032C204.558 48.3813 204.377 47.6347 204.377 46.792C204.377 45.9387 204.558 45.192 204.921 44.552C205.283 43.912 205.779 43.416 206.409 43.064C207.049 42.7013 207.769 42.52 208.569 42.52C209.305 42.52 209.961 42.6853 210.537 43.016C211.123 43.3467 211.587 43.832 211.929 44.472C212.281 45.1013 212.457 45.8747 212.457 46.792C212.457 47.6987 212.286 48.472 211.945 49.112C211.603 49.752 211.139 50.2427 210.553 50.584C209.977 50.9147 209.315 51.08 208.569 51.08ZM208.649 50.072C209.246 50.072 209.779 49.9387 210.249 49.672C210.729 49.3947 211.102 49.0107 211.369 48.52C211.646 48.0187 211.785 47.4427 211.785 46.792C211.785 46.1307 211.646 45.5547 211.369 45.064C211.102 44.5733 210.729 44.1947 210.249 43.928C209.779 43.6507 209.246 43.512 208.649 43.512C208.062 43.512 207.534 43.6507 207.065 43.928C206.595 44.1947 206.222 44.5733 205.945 45.064C205.667 45.5547 205.529 46.1307 205.529 46.792C205.529 47.4427 205.667 48.0187 205.945 48.52C206.222 49.0107 206.595 49.3947 207.065 49.672C207.534 49.9387 208.062 50.072 208.649 50.072ZM211.817 51V48.472L211.929 46.776L211.769 45.08V39.128H212.905V51H211.817ZM225.52 51V49.144L225.472 48.84V45.736C225.472 45.0213 225.269 44.472 224.864 44.088C224.469 43.704 223.877 43.512 223.088 43.512C222.544 43.512 222.027 43.6027 221.536 43.784C221.045 43.9653 220.629 44.2053 220.288 44.504L219.776 43.656C220.203 43.2933 220.715 43.016 221.312 42.824C221.909 42.6213 222.539 42.52 223.2 42.52C224.288 42.52 225.125 42.792 225.712 43.336C226.309 43.8693 226.608 44.6853 226.608 45.784V51H225.52ZM222.624 51.08C221.995 51.08 221.445 50.9787 220.976 50.776C220.517 50.5627 220.165 50.2747 219.92 49.912C219.675 49.5387 219.552 49.112 219.552 48.632C219.552 48.1947 219.653 47.8 219.856 47.448C220.069 47.0853 220.411 46.7973 220.88 46.584C221.36 46.36 222 46.248 222.8 46.248H225.696V47.096H222.832C222.021 47.096 221.456 47.24 221.136 47.528C220.827 47.816 220.672 48.1733 220.672 48.6C220.672 49.08 220.859 49.464 221.232 49.752C221.605 50.04 222.128 50.184 222.8 50.184C223.44 50.184 223.989 50.04 224.448 49.752C224.917 49.4533 225.259 49.0267 225.472 48.472L225.728 49.256C225.515 49.8107 225.141 50.2533 224.608 50.584C224.085 50.9147 223.424 51.08 222.624 51.08ZM233.981 42.52C234.664 42.52 235.261 42.6533 235.773 42.92C236.296 43.176 236.701 43.5707 236.989 44.104C237.288 44.6373 237.437 45.3093 237.437 46.12V51H236.301V46.232C236.301 45.3467 236.077 44.68 235.629 44.232C235.192 43.7733 234.573 43.544 233.773 43.544C233.176 43.544 232.653 43.6667 232.205 43.912C231.768 44.1467 231.427 44.4933 231.181 44.952C230.947 45.4 230.829 45.944 230.829 46.584V51H229.693V42.6H230.781V44.904L230.605 44.472C230.872 43.864 231.299 43.3893 231.885 43.048C232.472 42.696 233.171 42.52 233.981 42.52ZM243.85 51.08C243.05 51.08 242.33 50.8987 241.69 50.536C241.061 50.1733 240.565 49.672 240.202 49.032C239.839 48.3813 239.658 47.6347 239.658 46.792C239.658 45.9387 239.839 45.192 240.202 44.552C240.565 43.912 241.061 43.416 241.69 43.064C242.33 42.7013 243.05 42.52 243.85 42.52C244.586 42.52 245.242 42.6853 245.818 43.016C246.405 43.3467 246.869 43.832 247.21 44.472C247.562 45.1013 247.738 45.8747 247.738 46.792C247.738 47.6987 247.567 48.472 247.226 49.112C246.885 49.752 246.421 50.2427 245.834 50.584C245.258 50.9147 244.597 51.08 243.85 51.08ZM243.93 50.072C244.527 50.072 245.061 49.9387 245.53 49.672C246.01 49.3947 246.383 49.0107 246.65 48.52C246.927 48.0187 247.066 47.4427 247.066 46.792C247.066 46.1307 246.927 45.5547 246.65 45.064C246.383 44.5733 246.01 44.1947 245.53 43.928C245.061 43.6507 244.527 43.512 243.93 43.512C243.343 43.512 242.815 43.6507 242.346 43.928C241.877 44.1947 241.503 44.5733 241.226 45.064C240.949 45.5547 240.81 46.1307 240.81 46.792C240.81 47.4427 240.949 48.0187 241.226 48.52C241.503 49.0107 241.877 49.3947 242.346 49.672C242.815 49.9387 243.343 50.072 243.93 50.072ZM247.098 51V48.472L247.21 46.776L247.05 45.08V39.128H248.186V51H247.098ZM258.881 51.08C258.081 51.08 257.361 50.8987 256.721 50.536C256.092 50.1733 255.596 49.672 255.233 49.032C254.87 48.3813 254.689 47.6347 254.689 46.792C254.689 45.9387 254.87 45.192 255.233 44.552C255.596 43.912 256.092 43.416 256.721 43.064C257.361 42.7013 258.081 42.52 258.881 42.52C259.617 42.52 260.273 42.6853 260.849 43.016C261.436 43.3467 261.9 43.832 262.241 44.472C262.593 45.1013 262.769 45.8747 262.769 46.792C262.769 47.6987 262.598 48.472 262.257 49.112C261.916 49.752 261.452 50.2427 260.865 50.584C260.289 50.9147 259.628 51.08 258.881 51.08ZM258.961 50.072C259.558 50.072 260.092 49.9387 260.561 49.672C261.041 49.3947 261.414 49.0107 261.681 48.52C261.958 48.0187 262.097 47.4427 262.097 46.792C262.097 46.1307 261.958 45.5547 261.681 45.064C261.414 44.5733 261.041 44.1947 260.561 43.928C260.092 43.6507 259.558 43.512 258.961 43.512C258.374 43.512 257.846 43.6507 257.377 43.928C256.908 44.1947 256.534 44.5733 256.257 45.064C255.98 45.5547 255.841 46.1307 255.841 46.792C255.841 47.4427 255.98 48.0187 256.257 48.52C256.534 49.0107 256.908 49.3947 257.377 49.672C257.846 49.9387 258.374 50.072 258.961 50.072ZM262.129 51V48.472L262.241 46.776L262.081 45.08V39.128H263.217V51H262.129ZM269.949 51.08C269.074 51.08 268.306 50.8987 267.645 50.536C266.984 50.1627 266.466 49.656 266.093 49.016C265.72 48.3653 265.533 47.624 265.533 46.792C265.533 45.96 265.709 45.224 266.061 44.584C266.424 43.944 266.914 43.4427 267.533 43.08C268.162 42.7067 268.866 42.52 269.645 42.52C270.434 42.52 271.133 42.7013 271.741 43.064C272.36 43.416 272.845 43.9173 273.197 44.568C273.549 45.208 273.725 45.9493 273.725 46.792C273.725 46.8453 273.72 46.904 273.709 46.968C273.709 47.0213 273.709 47.08 273.709 47.144H266.397V46.296H273.101L272.653 46.632C272.653 46.024 272.52 45.4853 272.253 45.016C271.997 44.536 271.645 44.1627 271.197 43.896C270.749 43.6293 270.232 43.496 269.645 43.496C269.069 43.496 268.552 43.6293 268.093 43.896C267.634 44.1627 267.277 44.536 267.021 45.016C266.765 45.496 266.637 46.0453 266.637 46.664V46.84C266.637 47.48 266.776 48.0453 267.053 48.536C267.341 49.016 267.736 49.3947 268.237 49.672C268.749 49.9387 269.33 50.072 269.981 50.072C270.493 50.072 270.968 49.9813 271.405 49.8C271.853 49.6187 272.237 49.3413 272.557 48.968L273.197 49.704C272.824 50.152 272.354 50.4933 271.789 50.728C271.234 50.9627 270.621 51.08 269.949 51.08ZM280.373 51.08C279.637 51.08 278.976 50.9147 278.389 50.584C277.802 50.2427 277.338 49.752 276.997 49.112C276.656 48.472 276.485 47.6987 276.485 46.792C276.485 45.8747 276.656 45.1013 276.997 44.472C277.349 43.832 277.818 43.3467 278.405 43.016C278.992 42.6853 279.648 42.52 280.373 42.52C281.173 42.52 281.888 42.7013 282.517 43.064C283.157 43.416 283.658 43.912 284.021 44.552C284.384 45.192 284.565 45.9387 284.565 46.792C284.565 47.6347 284.384 48.3813 284.021 49.032C283.658 49.672 283.157 50.1733 282.517 50.536C281.888 50.8987 281.173 51.08 280.373 51.08ZM276.037 51V39.128H277.173V45.08L277.013 46.776L277.125 48.472V51H276.037ZM280.293 50.072C280.89 50.072 281.424 49.9387 281.893 49.672C282.362 49.3947 282.736 49.0107 283.013 48.52C283.29 48.0187 283.429 47.4427 283.429 46.792C283.429 46.1307 283.29 45.5547 283.013 45.064C282.736 44.5733 282.362 44.1947 281.893 43.928C281.424 43.6507 280.89 43.512 280.293 43.512C279.696 43.512 279.157 43.6507 278.677 43.928C278.208 44.1947 277.834 44.5733 277.557 45.064C277.29 45.5547 277.157 46.1307 277.157 46.792C277.157 47.4427 277.29 48.0187 277.557 48.52C277.834 49.0107 278.208 49.3947 278.677 49.672C279.157 49.9387 279.696 50.072 280.293 50.072ZM289.537 51.08C288.748 51.08 288.14 50.8667 287.713 50.44C287.286 50.0133 287.073 49.4107 287.073 48.632V40.744H288.209V48.568C288.209 49.0587 288.332 49.4373 288.577 49.704C288.833 49.9707 289.196 50.104 289.665 50.104C290.166 50.104 290.582 49.96 290.913 49.672L291.313 50.488C291.089 50.6907 290.817 50.84 290.497 50.936C290.188 51.032 289.868 51.08 289.537 51.08ZM285.569 43.544V42.6H290.769V43.544H285.569ZM301.056 51.08C300.224 51.08 299.478 50.8987 298.816 50.536C298.166 50.1627 297.654 49.656 297.28 49.016C296.907 48.3653 296.72 47.624 296.72 46.792C296.72 45.9493 296.907 45.208 297.28 44.568C297.654 43.928 298.166 43.4267 298.816 43.064C299.478 42.7013 300.224 42.52 301.056 42.52C301.771 42.52 302.416 42.6587 302.992 42.936C303.568 43.2133 304.022 43.6293 304.352 44.184L303.504 44.76C303.216 44.3333 302.859 44.0187 302.432 43.816C302.006 43.6133 301.542 43.512 301.04 43.512C300.443 43.512 299.904 43.6507 299.424 43.928C298.944 44.1947 298.566 44.5733 298.288 45.064C298.011 45.5547 297.872 46.1307 297.872 46.792C297.872 47.4533 298.011 48.0293 298.288 48.52C298.566 49.0107 298.944 49.3947 299.424 49.672C299.904 49.9387 300.443 50.072 301.04 50.072C301.542 50.072 302.006 49.9707 302.432 49.768C302.859 49.5653 303.216 49.256 303.504 48.84L304.352 49.416C304.022 49.96 303.568 50.376 302.992 50.664C302.416 50.9413 301.771 51.08 301.056 51.08ZM311.848 51V49.144L311.8 48.84V45.736C311.8 45.0213 311.597 44.472 311.192 44.088C310.797 43.704 310.205 43.512 309.416 43.512C308.872 43.512 308.355 43.6027 307.864 43.784C307.373 43.9653 306.957 44.2053 306.616 44.504L306.104 43.656C306.531 43.2933 307.043 43.016 307.64 42.824C308.237 42.6213 308.867 42.52 309.528 42.52C310.616 42.52 311.453 42.792 312.04 43.336C312.637 43.8693 312.936 44.6853 312.936 45.784V51H311.848ZM308.952 51.08C308.323 51.08 307.773 50.9787 307.304 50.776C306.845 50.5627 306.493 50.2747 306.248 49.912C306.003 49.5387 305.88 49.112 305.88 48.632C305.88 48.1947 305.981 47.8 306.184 47.448C306.397 47.0853 306.739 46.7973 307.208 46.584C307.688 46.36 308.328 46.248 309.128 46.248H312.024V47.096H309.16C308.349 47.096 307.784 47.24 307.464 47.528C307.155 47.816 307 48.1733 307 48.6C307 49.08 307.187 49.464 307.56 49.752C307.933 50.04 308.456 50.184 309.128 50.184C309.768 50.184 310.317 50.04 310.776 49.752C311.245 49.4533 311.587 49.0267 311.8 48.472L312.056 49.256C311.843 49.8107 311.469 50.2533 310.936 50.584C310.413 50.9147 309.752 51.08 308.952 51.08ZM316.022 51V42.6H317.11V44.888L316.998 44.488C317.232 43.848 317.627 43.3627 318.182 43.032C318.736 42.6907 319.424 42.52 320.246 42.52V43.624C320.203 43.624 320.16 43.624 320.118 43.624C320.075 43.6133 320.032 43.608 319.99 43.608C319.104 43.608 318.411 43.88 317.91 44.424C317.408 44.9573 317.158 45.72 317.158 46.712V51H316.022ZM325.584 51.08C324.784 51.08 324.064 50.8987 323.424 50.536C322.795 50.1733 322.299 49.672 321.936 49.032C321.574 48.3813 321.392 47.6347 321.392 46.792C321.392 45.9387 321.574 45.192 321.936 44.552C322.299 43.912 322.795 43.416 323.424 43.064C324.064 42.7013 324.784 42.52 325.584 42.52C326.32 42.52 326.976 42.6853 327.552 43.016C328.139 43.3467 328.603 43.832 328.944 44.472C329.296 45.1013 329.472 45.8747 329.472 46.792C329.472 47.6987 329.302 48.472 328.96 49.112C328.619 49.752 328.155 50.2427 327.568 50.584C326.992 50.9147 326.331 51.08 325.584 51.08ZM325.664 50.072C326.262 50.072 326.795 49.9387 327.264 49.672C327.744 49.3947 328.118 49.0107 328.384 48.52C328.662 48.0187 328.8 47.4427 328.8 46.792C328.8 46.1307 328.662 45.5547 328.384 45.064C328.118 44.5733 327.744 44.1947 327.264 43.928C326.795 43.6507 326.262 43.512 325.664 43.512C325.078 43.512 324.55 43.6507 324.08 43.928C323.611 44.1947 323.238 44.5733 322.96 45.064C322.683 45.5547 322.544 46.1307 322.544 46.792C322.544 47.4427 322.683 48.0187 322.96 48.52C323.238 49.0107 323.611 49.3947 324.08 49.672C324.55 49.9387 325.078 50.072 325.664 50.072ZM328.832 51V48.472L328.944 46.776L328.784 45.08V39.128H329.92V51H328.832ZM342.536 51V49.144L342.488 48.84V45.736C342.488 45.0213 342.285 44.472 341.88 44.088C341.485 43.704 340.893 43.512 340.104 43.512C339.56 43.512 339.042 43.6027 338.552 43.784C338.061 43.9653 337.645 44.2053 337.304 44.504L336.792 43.656C337.218 43.2933 337.73 43.016 338.328 42.824C338.925 42.6213 339.554 42.52 340.216 42.52C341.304 42.52 342.141 42.792 342.728 43.336C343.325 43.8693 343.624 44.6853 343.624 45.784V51H342.536ZM339.64 51.08C339.01 51.08 338.461 50.9787 337.992 50.776C337.533 50.5627 337.181 50.2747 336.936 49.912C336.69 49.5387 336.568 49.112 336.568 48.632C336.568 48.1947 336.669 47.8 336.872 47.448C337.085 47.0853 337.426 46.7973 337.896 46.584C338.376 46.36 339.016 46.248 339.816 46.248H342.712V47.096H339.848C339.037 47.096 338.472 47.24 338.152 47.528C337.842 47.816 337.688 48.1733 337.688 48.6C337.688 49.08 337.874 49.464 338.248 49.752C338.621 50.04 339.144 50.184 339.816 50.184C340.456 50.184 341.005 50.04 341.464 49.752C341.933 49.4533 342.274 49.0267 342.488 48.472L342.744 49.256C342.53 49.8107 342.157 50.2533 341.624 50.584C341.101 50.9147 340.44 51.08 339.64 51.08ZM346.709 51V42.6H347.797V44.888L347.685 44.488C347.92 43.848 348.314 43.3627 348.869 43.032C349.424 42.6907 350.112 42.52 350.933 42.52V43.624C350.89 43.624 350.848 43.624 350.805 43.624C350.762 43.6133 350.72 43.608 350.677 43.608C349.792 43.608 349.098 43.88 348.597 44.424C348.096 44.9573 347.845 45.72 347.845 46.712V51H346.709ZM356.496 51.08C355.621 51.08 354.853 50.8987 354.192 50.536C353.53 50.1627 353.013 49.656 352.64 49.016C352.266 48.3653 352.08 47.624 352.08 46.792C352.08 45.96 352.256 45.224 352.608 44.584C352.97 43.944 353.461 43.4427 354.08 43.08C354.709 42.7067 355.413 42.52 356.192 42.52C356.981 42.52 357.68 42.7013 358.288 43.064C358.906 43.416 359.392 43.9173 359.744 44.568C360.096 45.208 360.272 45.9493 360.272 46.792C360.272 46.8453 360.266 46.904 360.256 46.968C360.256 47.0213 360.256 47.08 360.256 47.144H352.944V46.296H359.648L359.2 46.632C359.2 46.024 359.066 45.4853 358.8 45.016C358.544 44.536 358.192 44.1627 357.744 43.896C357.296 43.6293 356.778 43.496 356.192 43.496C355.616 43.496 355.098 43.6293 354.64 43.896C354.181 44.1627 353.824 44.536 353.568 45.016C353.312 45.496 353.184 46.0453 353.184 46.664V46.84C353.184 47.48 353.322 48.0453 353.6 48.536C353.888 49.016 354.282 49.3947 354.784 49.672C355.296 49.9387 355.877 50.072 356.528 50.072C357.04 50.072 357.514 49.9813 357.952 49.8C358.4 49.6187 358.784 49.3413 359.104 48.968L359.744 49.704C359.37 50.152 358.901 50.4933 358.336 50.728C357.781 50.9627 357.168 51.08 356.496 51.08ZM369.428 51.08C368.638 51.08 368.03 50.8667 367.604 50.44C367.177 50.0133 366.964 49.4107 366.964 48.632V40.744H368.1V48.568C368.1 49.0587 368.222 49.4373 368.468 49.704C368.724 49.9707 369.086 50.104 369.556 50.104C370.057 50.104 370.473 49.96 370.804 49.672L371.204 50.488C370.98 50.6907 370.708 50.84 370.388 50.936C370.078 51.032 369.758 51.08 369.428 51.08ZM365.46 43.544V42.6H370.66V43.544H365.46ZM377.56 42.52C378.242 42.52 378.84 42.6533 379.352 42.92C379.874 43.176 380.28 43.5707 380.568 44.104C380.866 44.6373 381.016 45.3093 381.016 46.12V51H379.88V46.232C379.88 45.3467 379.656 44.68 379.208 44.232C378.77 43.7733 378.152 43.544 377.352 43.544C376.754 43.544 376.232 43.6667 375.784 43.912C375.346 44.1467 375.005 44.4933 374.76 44.952C374.525 45.4 374.408 45.944 374.408 46.584V51H373.272V39.128H374.408V44.904L374.184 44.472C374.45 43.864 374.877 43.3893 375.464 43.048C376.05 42.696 376.749 42.52 377.56 42.52ZM384.084 51V42.6H385.172V44.888L385.06 44.488C385.295 43.848 385.689 43.3627 386.244 43.032C386.799 42.6907 387.487 42.52 388.308 42.52V43.624C388.265 43.624 388.223 43.624 388.18 43.624C388.137 43.6133 388.095 43.608 388.052 43.608C387.167 43.608 386.473 43.88 385.972 44.424C385.471 44.9573 385.22 45.72 385.22 46.712V51H384.084ZM393.727 51.08C392.916 51.08 392.185 50.8987 391.535 50.536C390.895 50.1627 390.388 49.656 390.015 49.016C389.641 48.3653 389.455 47.624 389.455 46.792C389.455 45.9493 389.641 45.208 390.015 44.568C390.388 43.928 390.895 43.4267 391.535 43.064C392.175 42.7013 392.905 42.52 393.727 42.52C394.559 42.52 395.295 42.7013 395.935 43.064C396.585 43.4267 397.092 43.928 397.455 44.568C397.828 45.208 398.015 45.9493 398.015 46.792C398.015 47.624 397.828 48.3653 397.455 49.016C397.092 49.656 396.585 50.1627 395.935 50.536C395.284 50.8987 394.548 51.08 393.727 51.08ZM393.727 50.072C394.335 50.072 394.873 49.9387 395.343 49.672C395.812 49.3947 396.18 49.0107 396.447 48.52C396.724 48.0187 396.863 47.4427 396.863 46.792C396.863 46.1307 396.724 45.5547 396.447 45.064C396.18 44.5733 395.812 44.1947 395.343 43.928C394.873 43.6507 394.34 43.512 393.743 43.512C393.145 43.512 392.612 43.6507 392.143 43.928C391.673 44.1947 391.3 44.5733 391.023 45.064C390.745 45.5547 390.607 46.1307 390.607 46.792C390.607 47.4427 390.745 48.0187 391.023 48.52C391.3 49.0107 391.673 49.3947 392.143 49.672C392.612 49.9387 393.14 50.072 393.727 50.072ZM403.806 51.08C403.091 51.08 402.467 50.9467 401.934 50.68C401.401 50.4133 400.985 50.0133 400.686 49.48C400.398 48.9467 400.254 48.28 400.254 47.48V42.6H401.39V47.352C401.39 48.248 401.609 48.9253 402.046 49.384C402.494 49.832 403.118 50.056 403.918 50.056C404.505 50.056 405.011 49.9387 405.438 49.704C405.875 49.4587 406.206 49.1067 406.43 48.648C406.665 48.1893 406.782 47.64 406.782 47V42.6H407.918V51H406.83V48.696L407.006 49.112C406.739 49.7307 406.323 50.216 405.758 50.568C405.203 50.9093 404.553 51.08 403.806 51.08ZM414.668 54.184C413.9 54.184 413.164 54.072 412.46 53.848C411.756 53.624 411.185 53.304 410.748 52.888L411.324 52.024C411.719 52.376 412.204 52.6533 412.78 52.856C413.367 53.0693 413.985 53.176 414.636 53.176C415.703 53.176 416.487 52.9253 416.988 52.424C417.489 51.9333 417.74 51.1653 417.74 50.12V48.024L417.9 46.584L417.788 45.144V42.6H418.876V49.976C418.876 51.4267 418.519 52.488 417.804 53.16C417.1 53.8427 416.055 54.184 414.668 54.184ZM414.46 50.68C413.66 50.68 412.94 50.5093 412.3 50.168C411.66 49.816 411.153 49.3307 410.78 48.712C410.417 48.0933 410.236 47.384 410.236 46.584C410.236 45.784 410.417 45.08 410.78 44.472C411.153 43.8533 411.66 43.3733 412.3 43.032C412.94 42.6907 413.66 42.52 414.46 42.52C415.207 42.52 415.879 42.6747 416.476 42.984C417.073 43.2933 417.548 43.752 417.9 44.36C418.252 44.968 418.428 45.7093 418.428 46.584C418.428 47.4587 418.252 48.2 417.9 48.808C417.548 49.416 417.073 49.88 416.476 50.2C415.879 50.52 415.207 50.68 414.46 50.68ZM414.572 49.672C415.191 49.672 415.74 49.544 416.22 49.288C416.7 49.0213 417.079 48.6587 417.356 48.2C417.633 47.7307 417.772 47.192 417.772 46.584C417.772 45.976 417.633 45.4427 417.356 44.984C417.079 44.5253 416.7 44.168 416.22 43.912C415.74 43.6453 415.191 43.512 414.572 43.512C413.964 43.512 413.415 43.6453 412.924 43.912C412.444 44.168 412.065 44.5253 411.788 44.984C411.521 45.4427 411.388 45.976 411.388 46.584C411.388 47.192 411.521 47.7307 411.788 48.2C412.065 48.6587 412.444 49.0213 412.924 49.288C413.415 49.544 413.964 49.672 414.572 49.672ZM426.325 42.52C427.008 42.52 427.605 42.6533 428.117 42.92C428.64 43.176 429.045 43.5707 429.333 44.104C429.632 44.6373 429.781 45.3093 429.781 46.12V51H428.645V46.232C428.645 45.3467 428.421 44.68 427.973 44.232C427.536 43.7733 426.917 43.544 426.117 43.544C425.52 43.544 424.997 43.6667 424.549 43.912C424.112 44.1467 423.77 44.4933 423.525 44.952C423.29 45.4 423.173 45.944 423.173 46.584V51H422.037V39.128H423.173V44.904L422.949 44.472C423.216 43.864 423.642 43.3893 424.229 43.048C424.816 42.696 425.514 42.52 426.325 42.52ZM98.928 71.08C98.128 71.08 97.408 70.8987 96.768 70.536C96.1387 70.1733 95.6427 69.672 95.28 69.032C94.9173 68.3813 94.736 67.6347 94.736 66.792C94.736 65.9387 94.9173 65.192 95.28 64.552C95.6427 63.912 96.1387 63.416 96.768 63.064C97.408 62.7013 98.128 62.52 98.928 62.52C99.664 62.52 100.32 62.6853 100.896 63.016C101.483 63.3467 101.947 63.832 102.288 64.472C102.64 65.1013 102.816 65.8747 102.816 66.792C102.816 67.6987 102.645 68.472 102.304 69.112C101.963 69.752 101.499 70.2427 100.912 70.584C100.336 70.9147 99.6747 71.08 98.928 71.08ZM99.008 70.072C99.6053 70.072 100.139 69.9387 100.608 69.672C101.088 69.3947 101.461 69.0107 101.728 68.52C102.005 68.0187 102.144 67.4427 102.144 66.792C102.144 66.1307 102.005 65.5547 101.728 65.064C101.461 64.5733 101.088 64.1947 100.608 63.928C100.139 63.6507 99.6053 63.512 99.008 63.512C98.4213 63.512 97.8933 63.6507 97.424 63.928C96.9547 64.1947 96.5813 64.5733 96.304 65.064C96.0267 65.5547 95.888 66.1307 95.888 66.792C95.888 67.4427 96.0267 68.0187 96.304 68.52C96.5813 69.0107 96.9547 69.3947 97.424 69.672C97.8933 69.9387 98.4213 70.072 99.008 70.072ZM102.176 71V68.472L102.288 66.776L102.128 65.08V59.128H103.264V71H102.176ZM106.428 71V62.6H107.564V71H106.428ZM107.004 60.744C106.769 60.744 106.572 60.664 106.412 60.504C106.252 60.344 106.172 60.152 106.172 59.928C106.172 59.704 106.252 59.5173 106.412 59.368C106.572 59.208 106.769 59.128 107.004 59.128C107.238 59.128 107.436 59.2027 107.596 59.352C107.756 59.5013 107.836 59.688 107.836 59.912C107.836 60.1467 107.756 60.344 107.596 60.504C107.446 60.664 107.249 60.744 107.004 60.744ZM110.917 71V61.544C110.917 60.7973 111.135 60.1947 111.573 59.736C112.01 59.2773 112.639 59.048 113.461 59.048C113.781 59.048 114.09 59.0907 114.389 59.176C114.687 59.2613 114.938 59.3947 115.141 59.576L114.757 60.424C114.597 60.2853 114.41 60.184 114.197 60.12C113.983 60.0453 113.754 60.008 113.509 60.008C113.029 60.008 112.661 60.1413 112.405 60.408C112.149 60.6747 112.021 61.0693 112.021 61.592V62.872L112.053 63.4V71H110.917ZM109.413 63.544V62.6H114.613V63.544H109.413ZM116.37 71V61.544C116.37 60.7973 116.588 60.1947 117.026 59.736C117.463 59.2773 118.092 59.048 118.914 59.048C119.234 59.048 119.543 59.0907 119.842 59.176C120.14 59.2613 120.391 59.3947 120.594 59.576L120.21 60.424C120.05 60.2853 119.863 60.184 119.65 60.12C119.436 60.0453 119.207 60.008 118.962 60.008C118.482 60.008 118.114 60.1413 117.858 60.408C117.602 60.6747 117.474 61.0693 117.474 61.592V62.872L117.506 63.4V71H116.37ZM114.866 63.544V62.6H120.066V63.544H114.866ZM125.027 71.08C124.152 71.08 123.384 70.8987 122.723 70.536C122.062 70.1627 121.544 69.656 121.171 69.016C120.798 68.3653 120.611 67.624 120.611 66.792C120.611 65.96 120.787 65.224 121.139 64.584C121.502 63.944 121.992 63.4427 122.611 63.08C123.24 62.7067 123.944 62.52 124.723 62.52C125.512 62.52 126.211 62.7013 126.819 63.064C127.438 63.416 127.923 63.9173 128.275 64.568C128.627 65.208 128.803 65.9493 128.803 66.792C128.803 66.8453 128.798 66.904 128.787 66.968C128.787 67.0213 128.787 67.08 128.787 67.144H121.475V66.296H128.179L127.731 66.632C127.731 66.024 127.598 65.4853 127.331 65.016C127.075 64.536 126.723 64.1627 126.275 63.896C125.827 63.6293 125.31 63.496 124.723 63.496C124.147 63.496 123.63 63.6293 123.171 63.896C122.712 64.1627 122.355 64.536 122.099 65.016C121.843 65.496 121.715 66.0453 121.715 66.664V66.84C121.715 67.48 121.854 68.0453 122.131 68.536C122.419 69.016 122.814 69.3947 123.315 69.672C123.827 69.9387 124.408 70.072 125.059 70.072C125.571 70.072 126.046 69.9813 126.483 69.8C126.931 69.6187 127.315 69.3413 127.635 68.968L128.275 69.704C127.902 70.152 127.432 70.4933 126.867 70.728C126.312 70.9627 125.699 71.08 125.027 71.08ZM131.115 71V62.6H132.203V64.888L132.091 64.488C132.326 63.848 132.721 63.3627 133.275 63.032C133.83 62.6907 134.518 62.52 135.339 62.52V63.624C135.297 63.624 135.254 63.624 135.211 63.624C135.169 63.6133 135.126 63.608 135.083 63.608C134.198 63.608 133.505 63.88 133.003 64.424C132.502 64.9573 132.251 65.72 132.251 66.712V71H131.115ZM140.902 71.08C140.027 71.08 139.259 70.8987 138.598 70.536C137.937 70.1627 137.419 69.656 137.046 69.016C136.673 68.3653 136.486 67.624 136.486 66.792C136.486 65.96 136.662 65.224 137.014 64.584C137.377 63.944 137.867 63.4427 138.486 63.08C139.115 62.7067 139.819 62.52 140.598 62.52C141.387 62.52 142.086 62.7013 142.694 63.064C143.313 63.416 143.798 63.9173 144.15 64.568C144.502 65.208 144.678 65.9493 144.678 66.792C144.678 66.8453 144.673 66.904 144.662 66.968C144.662 67.0213 144.662 67.08 144.662 67.144H137.35V66.296H144.054L143.606 66.632C143.606 66.024 143.473 65.4853 143.206 65.016C142.95 64.536 142.598 64.1627 142.15 63.896C141.702 63.6293 141.185 63.496 140.598 63.496C140.022 63.496 139.505 63.6293 139.046 63.896C138.587 64.1627 138.23 64.536 137.974 65.016C137.718 65.496 137.59 66.0453 137.59 66.664V66.84C137.59 67.48 137.729 68.0453 138.006 68.536C138.294 69.016 138.689 69.3947 139.19 69.672C139.702 69.9387 140.283 70.072 140.934 70.072C141.446 70.072 141.921 69.9813 142.358 69.8C142.806 69.6187 143.19 69.3413 143.51 68.968L144.15 69.704C143.777 70.152 143.307 70.4933 142.742 70.728C142.187 70.9627 141.574 71.08 140.902 71.08ZM151.278 62.52C151.961 62.52 152.558 62.6533 153.07 62.92C153.593 63.176 153.998 63.5707 154.286 64.104C154.585 64.6373 154.734 65.3093 154.734 66.12V71H153.598V66.232C153.598 65.3467 153.374 64.68 152.926 64.232C152.489 63.7733 151.87 63.544 151.07 63.544C150.473 63.544 149.95 63.6667 149.502 63.912C149.065 64.1467 148.724 64.4933 148.478 64.952C148.244 65.4 148.126 65.944 148.126 66.584V71H146.99V62.6H148.078V64.904L147.902 64.472C148.169 63.864 148.596 63.3893 149.182 63.048C149.769 62.696 150.468 62.52 151.278 62.52ZM160.459 71.08C159.669 71.08 159.061 70.8667 158.635 70.44C158.208 70.0133 157.995 69.4107 157.995 68.632V60.744H159.131V68.568C159.131 69.0587 159.253 69.4373 159.499 69.704C159.755 69.9707 160.117 70.104 160.587 70.104C161.088 70.104 161.504 69.96 161.835 69.672L162.235 70.488C162.011 70.6907 161.739 70.84 161.419 70.936C161.109 71.032 160.789 71.08 160.459 71.08ZM156.491 63.544V62.6H161.691V63.544H156.491ZM172.826 71.08C172.101 71.08 171.445 70.9147 170.858 70.584C170.272 70.2427 169.802 69.7573 169.45 69.128C169.109 68.488 168.938 67.7093 168.938 66.792C168.938 65.8747 169.109 65.1013 169.45 64.472C169.792 63.832 170.256 63.3467 170.842 63.016C171.429 62.6853 172.09 62.52 172.826 62.52C173.626 62.52 174.341 62.7013 174.97 63.064C175.61 63.416 176.112 63.9173 176.474 64.568C176.837 65.208 177.018 65.9493 177.018 66.792C177.018 67.6453 176.837 68.392 176.474 69.032C176.112 69.672 175.61 70.1733 174.97 70.536C174.341 70.8987 173.626 71.08 172.826 71.08ZM168.49 74.104V62.6H169.578V65.128L169.466 66.808L169.626 68.504V74.104H168.49ZM172.746 70.072C173.344 70.072 173.877 69.9387 174.346 69.672C174.816 69.3947 175.189 69.0107 175.466 68.52C175.744 68.0187 175.882 67.4427 175.882 66.792C175.882 66.1413 175.744 65.5707 175.466 65.08C175.189 64.5893 174.816 64.2053 174.346 63.928C173.877 63.6507 173.344 63.512 172.746 63.512C172.149 63.512 171.61 63.6507 171.13 63.928C170.661 64.2053 170.288 64.5893 170.01 65.08C169.744 65.5707 169.61 66.1413 169.61 66.792C169.61 67.4427 169.744 68.0187 170.01 68.52C170.288 69.0107 170.661 69.3947 171.13 69.672C171.61 69.9387 172.149 70.072 172.746 70.072ZM179.334 71V59.128H180.47V71H179.334ZM188.895 71V69.144L188.847 68.84V65.736C188.847 65.0213 188.644 64.472 188.239 64.088C187.844 63.704 187.252 63.512 186.463 63.512C185.919 63.512 185.402 63.6027 184.911 63.784C184.42 63.9653 184.004 64.2053 183.663 64.504L183.151 63.656C183.578 63.2933 184.09 63.016 184.687 62.824C185.284 62.6213 185.914 62.52 186.575 62.52C187.663 62.52 188.5 62.792 189.087 63.336C189.684 63.8693 189.983 64.6853 189.983 65.784V71H188.895ZM185.999 71.08C185.37 71.08 184.82 70.9787 184.351 70.776C183.892 70.5627 183.54 70.2747 183.295 69.912C183.05 69.5387 182.927 69.112 182.927 68.632C182.927 68.1947 183.028 67.8 183.231 67.448C183.444 67.0853 183.786 66.7973 184.255 66.584C184.735 66.36 185.375 66.248 186.175 66.248H189.071V67.096H186.207C185.396 67.096 184.831 67.24 184.511 67.528C184.202 67.816 184.047 68.1733 184.047 68.6C184.047 69.08 184.234 69.464 184.607 69.752C184.98 70.04 185.503 70.184 186.175 70.184C186.815 70.184 187.364 70.04 187.823 69.752C188.292 69.4533 188.634 69.0267 188.847 68.472L189.103 69.256C188.89 69.8107 188.516 70.2533 187.983 70.584C187.46 70.9147 186.799 71.08 185.999 71.08ZM196.556 71.08C195.724 71.08 194.978 70.8987 194.316 70.536C193.666 70.1627 193.154 69.656 192.78 69.016C192.407 68.3653 192.22 67.624 192.22 66.792C192.22 65.9493 192.407 65.208 192.78 64.568C193.154 63.928 193.666 63.4267 194.316 63.064C194.978 62.7013 195.724 62.52 196.556 62.52C197.271 62.52 197.916 62.6587 198.492 62.936C199.068 63.2133 199.522 63.6293 199.852 64.184L199.004 64.76C198.716 64.3333 198.359 64.0187 197.932 63.816C197.506 63.6133 197.042 63.512 196.54 63.512C195.943 63.512 195.404 63.6507 194.924 63.928C194.444 64.1947 194.066 64.5733 193.788 65.064C193.511 65.5547 193.372 66.1307 193.372 66.792C193.372 67.4533 193.511 68.0293 193.788 68.52C194.066 69.0107 194.444 69.3947 194.924 69.672C195.404 69.9387 195.943 70.072 196.54 70.072C197.042 70.072 197.506 69.9707 197.932 69.768C198.359 69.5653 198.716 69.256 199.004 68.84L199.852 69.416C199.522 69.96 199.068 70.376 198.492 70.664C197.916 70.9413 197.271 71.08 196.556 71.08ZM205.511 71.08C204.637 71.08 203.869 70.8987 203.207 70.536C202.546 70.1627 202.029 69.656 201.655 69.016C201.282 68.3653 201.095 67.624 201.095 66.792C201.095 65.96 201.271 65.224 201.623 64.584C201.986 63.944 202.477 63.4427 203.095 63.08C203.725 62.7067 204.429 62.52 205.207 62.52C205.997 62.52 206.695 62.7013 207.303 63.064C207.922 63.416 208.407 63.9173 208.759 64.568C209.111 65.208 209.287 65.9493 209.287 66.792C209.287 66.8453 209.282 66.904 209.271 66.968C209.271 67.0213 209.271 67.08 209.271 67.144H201.959V66.296H208.663L208.215 66.632C208.215 66.024 208.082 65.4853 207.815 65.016C207.559 64.536 207.207 64.1627 206.759 63.896C206.311 63.6293 205.794 63.496 205.207 63.496C204.631 63.496 204.114 63.6293 203.655 63.896C203.197 64.1627 202.839 64.536 202.583 65.016C202.327 65.496 202.199 66.0453 202.199 66.664V66.84C202.199 67.48 202.338 68.0453 202.615 68.536C202.903 69.016 203.298 69.3947 203.799 69.672C204.311 69.9387 204.893 70.072 205.543 70.072C206.055 70.072 206.53 69.9813 206.967 69.8C207.415 69.6187 207.799 69.3413 208.119 68.968L208.759 69.704C208.386 70.152 207.917 70.4933 207.351 70.728C206.797 70.9627 206.183 71.08 205.511 71.08ZM213.856 71.08C213.162 71.08 212.506 70.984 211.888 70.792C211.269 70.5893 210.784 70.3387 210.432 70.04L210.944 69.144C211.285 69.4 211.722 69.624 212.256 69.816C212.789 69.9973 213.349 70.088 213.936 70.088C214.736 70.088 215.312 69.9653 215.664 69.72C216.016 69.464 216.192 69.128 216.192 68.712C216.192 68.4027 216.09 68.1627 215.888 67.992C215.696 67.8107 215.44 67.6773 215.12 67.592C214.8 67.496 214.442 67.416 214.048 67.352C213.653 67.288 213.258 67.2133 212.864 67.128C212.48 67.0427 212.128 66.92 211.808 66.76C211.488 66.5893 211.226 66.36 211.024 66.072C210.832 65.784 210.736 65.4 210.736 64.92C210.736 64.4613 210.864 64.0507 211.12 63.688C211.376 63.3253 211.749 63.0427 212.24 62.84C212.741 62.6267 213.349 62.52 214.064 62.52C214.608 62.52 215.152 62.5947 215.696 62.744C216.24 62.8827 216.688 63.0693 217.04 63.304L216.544 64.216C216.17 63.96 215.77 63.7787 215.344 63.672C214.917 63.5547 214.49 63.496 214.064 63.496C213.306 63.496 212.746 63.6293 212.384 63.896C212.032 64.152 211.856 64.4827 211.856 64.888C211.856 65.208 211.952 65.4587 212.144 65.64C212.346 65.8213 212.608 65.9653 212.928 66.072C213.258 66.168 213.616 66.248 214 66.312C214.394 66.376 214.784 66.456 215.168 66.552C215.562 66.6373 215.92 66.76 216.24 66.92C216.57 67.0693 216.832 67.288 217.024 67.576C217.226 67.8533 217.328 68.2213 217.328 68.68C217.328 69.1707 217.189 69.5973 216.912 69.96C216.645 70.312 216.25 70.5893 215.728 70.792C215.216 70.984 214.592 71.08 213.856 71.08ZM218.724 63.032L219.428 60.088L219.556 60.76C219.311 60.76 219.103 60.6853 218.932 60.536C218.772 60.376 218.692 60.168 218.692 59.912C218.692 59.656 218.772 59.448 218.932 59.288C219.103 59.128 219.305 59.048 219.54 59.048C219.785 59.048 219.983 59.1333 220.132 59.304C220.292 59.464 220.372 59.6667 220.372 59.912C220.372 59.9973 220.367 60.0827 220.356 60.168C220.345 60.2533 220.324 60.3493 220.292 60.456C220.271 60.552 220.233 60.6747 220.18 60.824L219.492 63.032H218.724ZM221.444 63.032L222.148 60.088L222.276 60.76C222.031 60.76 221.823 60.6853 221.652 60.536C221.492 60.376 221.412 60.168 221.412 59.912C221.412 59.656 221.492 59.448 221.652 59.288C221.823 59.128 222.025 59.048 222.26 59.048C222.505 59.048 222.703 59.1333 222.852 59.304C223.012 59.464 223.092 59.6667 223.092 59.912C223.092 59.9973 223.087 60.0827 223.076 60.168C223.065 60.2533 223.044 60.3493 223.012 60.456C222.991 60.552 222.953 60.6747 222.9 60.824L222.212 63.032H221.444Z" fill="black"/>
<g clip-path="url(#clip0_134_8110)">
<g opacity="0.2">
<path fill-rule="evenodd" clip-rule="evenodd" d="M54.3253 34.6501C54.5023 34.6498 54.6746 34.7064 54.8169 34.8116C54.9592 34.9168 55.064 35.0649 55.1156 35.2342L58.2968 45.6836L67.8091 49.1602C67.9659 49.2176 68.1017 49.3214 68.1983 49.4576C68.2949 49.5939 68.3479 49.7563 68.3502 49.9233C68.3525 50.0904 68.3041 50.2542 68.2113 50.3931C68.1185 50.532 67.9857 50.6394 67.8305 50.7013L58.381 54.455L55.1156 65.411C55.0647 65.5811 54.9603 65.7302 54.818 65.8362C54.6756 65.9422 54.5028 65.9994 54.3253 65.9994C54.1478 65.9994 53.975 65.9422 53.8326 65.8362C53.6902 65.7302 53.5858 65.5811 53.5349 65.411L50.2696 54.455L40.82 50.7013C40.6648 50.6394 40.5321 50.532 40.4393 50.3931C40.3465 50.2542 40.298 50.0904 40.3004 49.9233C40.3027 49.7563 40.3557 49.5939 40.4523 49.4576C40.5489 49.3214 40.6846 49.2176 40.8415 49.1602L50.3537 45.6836L53.5366 35.2342C53.5882 35.0652 53.6927 34.9172 53.8346 34.8121C53.9766 34.7069 54.1486 34.6501 54.3253 34.6501Z" fill="#FFD53E"/>
<path d="M65.5944 65.9176C65.4129 65.9176 65.2644 65.7856 65.2479 65.6206C64.9179 62.3206 64.6704 61.2646 61.5684 60.9841C61.4821 60.9766 61.4017 60.9367 61.3436 60.8724C61.2854 60.8082 61.2538 60.7243 61.2549 60.6376C61.2549 60.4561 61.3869 60.3076 61.5684 60.2911C64.7034 59.9941 64.9179 59.1361 65.2479 55.9186C65.2644 55.7371 65.4129 55.6051 65.5944 55.6051C65.7759 55.6051 65.9244 55.7371 65.9409 55.9021C66.2709 59.1361 66.4854 59.9941 69.6204 60.2746C69.8019 60.2911 69.9339 60.4396 69.9339 60.6211C69.9339 60.8026 69.8019 60.9511 69.6204 60.9676C66.5349 61.2646 66.2709 62.3206 65.9574 65.6041C65.9409 65.7856 65.7924 65.9176 65.6109 65.9176H65.5944Z" fill="#FFD53E"/>
</g>
<path fill-rule="evenodd" clip-rule="evenodd" d="M51.8502 33.825C52.0272 33.8247 52.1995 33.8814 52.3418 33.9865C52.4841 34.0917 52.5889 34.2399 52.6405 34.4091L55.8217 44.8586L65.334 48.3351C65.4909 48.3926 65.6266 48.4963 65.7232 48.6326C65.8198 48.7689 65.8728 48.9313 65.8751 49.0983C65.8774 49.2653 65.829 49.4291 65.7362 49.568C65.6434 49.7069 65.5106 49.8144 65.3554 49.8762L55.9059 53.63L52.6405 64.586C52.5896 64.756 52.4852 64.9051 52.3429 65.0111C52.2005 65.1171 52.0277 65.1744 51.8502 65.1744C51.6727 65.1744 51.4999 65.1171 51.3575 65.0111C51.2151 64.9051 51.1107 64.756 51.0598 64.586L47.7945 53.63L38.3449 49.8762C38.1897 49.8144 38.057 49.7069 37.9642 49.568C37.8714 49.4291 37.823 49.2653 37.8253 49.0983C37.8276 48.9313 37.8806 48.7689 37.9772 48.6326C38.0738 48.4963 38.2095 48.3926 38.3664 48.3351L47.8786 44.8586L51.0615 34.4091C51.1131 34.2401 51.2176 34.0922 51.3595 33.987C51.5015 33.8819 51.6735 33.8251 51.8502 33.825ZM51.8502 37.4814L49.3372 45.7314C49.3 45.8537 49.2348 45.9656 49.1469 46.0584C49.059 46.1512 48.9508 46.2222 48.8307 46.266L40.9651 49.1436L48.7762 52.2456C48.892 52.2918 48.9957 52.3636 49.0798 52.4556C49.1638 52.5476 49.2259 52.6575 49.2613 52.7769L51.8518 61.4625L54.439 52.7769C54.4745 52.6575 54.5366 52.5476 54.6206 52.4556C54.7046 52.3636 54.8084 52.2918 54.9241 52.2456L62.7352 49.1436L54.8697 46.2693C54.7496 46.2255 54.6414 46.1545 54.5535 46.0617C54.4655 45.9689 54.4004 45.857 54.3631 45.7347L51.8502 37.4814Z" fill="#FFD53E"/>
<path d="M64.638 64.548C64.473 64.548 64.3245 64.416 64.308 64.251C64.011 61.248 63.78 60.291 61.0245 60.027C60.8595 60.0105 60.7275 59.862 60.7275 59.697C60.7275 59.532 60.8595 59.3835 61.0245 59.367C63.846 59.103 64.011 58.377 64.308 55.374C64.308 55.209 64.473 55.077 64.638 55.077C64.803 55.077 64.9515 55.209 64.968 55.374C65.265 58.377 65.4465 59.103 68.2515 59.367C68.4165 59.3835 68.5485 59.532 68.5485 59.697C68.5485 59.862 68.4165 60.0105 68.2515 60.027C65.4795 60.291 65.265 61.248 64.968 64.2675C64.968 64.4325 64.8195 64.5645 64.638 64.5645V64.548Z" fill="#FFD53E"/>
</g>
</g>
<defs>
<filter id="filter0_d_134_8110" x="0" y="0" width="513" height="129" filterUnits="userSpaceOnUse" color-interpolation-filters="sRGB">
<feFlood flood-opacity="0" result="BackgroundImageFix"/>
<feColorMatrix in="SourceAlpha" type="matrix" values="0 0 0 0 0 0 0 0 0 0 0 0 0 0 0 0 0 0 127 0" result="hardAlpha"/>
<feOffset dx="4" dy="8"/>
<feGaussianBlur stdDeviation="6"/>
<feComposite in2="hardAlpha" operator="out"/>
<feColorMatrix type="matrix" values="0 0 0 0 0.160784 0 0 0 0 0.188235 0 0 0 0 0.301961 0 0 0 0.2 0"/>
<feBlend mode="normal" in2="BackgroundImageFix" result="effect1_dropShadow_134_8110"/>
<feBlend mode="normal" in="SourceGraphic" in2="effect1_dropShadow_134_8110" result="shape"/>
</filter>
<clipPath id="clip0_134_8110">
<rect width="33" height="33" fill="white" transform="translate(37 33)"/>
</clipPath>
</defs>
</svg>
