<svg width="513" height="123" viewBox="0 0 513 123" fill="none" xmlns="http://www.w3.org/2000/svg">
<g filter="url(#filter0_d_134_8083)">
<rect x="8" y="4" width="489" height="99" rx="30" fill="#EBEFFF"/>
<path d="M96.496 39.128L95.792 42.088L95.664 41.4C95.92 41.4 96.128 41.48 96.288 41.64C96.448 41.7893 96.528 41.992 96.528 42.248C96.528 42.504 96.448 42.712 96.288 42.872C96.128 43.032 95.9307 43.112 95.696 43.112C95.44 43.112 95.232 43.032 95.072 42.872C94.9227 42.7013 94.848 42.4933 94.848 42.248C94.848 42.152 94.8533 42.0667 94.864 41.992C94.8747 41.9173 94.896 41.8267 94.928 41.72C94.96 41.6133 95.0027 41.4853 95.056 41.336L95.728 39.128H96.496ZM99.216 39.128L98.512 42.088L98.384 41.4C98.64 41.4 98.848 41.48 99.008 41.64C99.168 41.7893 99.248 41.992 99.248 42.248C99.248 42.504 99.168 42.712 99.008 42.872C98.848 43.032 98.6507 43.112 98.416 43.112C98.16 43.112 97.952 43.032 97.792 42.872C97.6427 42.7013 97.568 42.4933 97.568 42.248C97.568 42.152 97.5733 42.0667 97.584 41.992C97.5947 41.9173 97.616 41.8267 97.648 41.72C97.68 41.6133 97.7227 41.4853 97.776 41.336L98.448 39.128H99.216ZM101.933 51V39.8H103.117V51H101.933ZM114.133 51.08C113.322 51.08 112.592 50.8987 111.941 50.536C111.301 50.1627 110.794 49.656 110.421 49.016C110.048 48.3653 109.861 47.624 109.861 46.792C109.861 45.9493 110.048 45.208 110.421 44.568C110.794 43.928 111.301 43.4267 111.941 43.064C112.581 42.7013 113.312 42.52 114.133 42.52C114.965 42.52 115.701 42.7013 116.341 43.064C116.992 43.4267 117.498 43.928 117.861 44.568C118.234 45.208 118.421 45.9493 118.421 46.792C118.421 47.624 118.234 48.3653 117.861 49.016C117.498 49.656 116.992 50.1627 116.341 50.536C115.69 50.8987 114.954 51.08 114.133 51.08ZM114.133 50.072C114.741 50.072 115.28 49.9387 115.749 49.672C116.218 49.3947 116.586 49.0107 116.853 48.52C117.13 48.0187 117.269 47.4427 117.269 46.792C117.269 46.1307 117.13 45.5547 116.853 45.064C116.586 44.5733 116.218 44.1947 115.749 43.928C115.28 43.6507 114.746 43.512 114.149 43.512C113.552 43.512 113.018 43.6507 112.549 43.928C112.08 44.1947 111.706 44.5733 111.429 45.064C111.152 45.5547 111.013 46.1307 111.013 46.792C111.013 47.4427 111.152 48.0187 111.429 48.52C111.706 49.0107 112.08 49.3947 112.549 49.672C113.018 49.9387 113.546 50.072 114.133 50.072ZM125.028 42.52C125.711 42.52 126.308 42.6533 126.82 42.92C127.343 43.176 127.748 43.5707 128.036 44.104C128.335 44.6373 128.484 45.3093 128.484 46.12V51H127.348V46.232C127.348 45.3467 127.124 44.68 126.676 44.232C126.239 43.7733 125.62 43.544 124.82 43.544C124.223 43.544 123.7 43.6667 123.252 43.912C122.815 44.1467 122.474 44.4933 122.228 44.952C121.994 45.4 121.876 45.944 121.876 46.584V51H120.74V42.6H121.828V44.904L121.652 44.472C121.919 43.864 122.346 43.3893 122.932 43.048C123.519 42.696 124.218 42.52 125.028 42.52ZM131.553 51V39.128H132.689V51H131.553ZM135.914 54.184C135.519 54.184 135.14 54.12 134.778 53.992C134.426 53.864 134.122 53.672 133.866 53.416L134.394 52.568C134.607 52.7707 134.836 52.9253 135.082 53.032C135.338 53.1493 135.62 53.208 135.93 53.208C136.303 53.208 136.623 53.1013 136.89 52.888C137.167 52.6853 137.428 52.3227 137.674 51.8L138.218 50.568L138.346 50.392L141.802 42.6H142.922L138.714 52.008C138.479 52.552 138.218 52.984 137.93 53.304C137.652 53.624 137.348 53.848 137.018 53.976C136.687 54.1147 136.319 54.184 135.914 54.184ZM138.154 51.24L134.282 42.6H135.466L138.89 50.312L138.154 51.24ZM152.181 51.08C151.466 51.08 150.842 50.9467 150.309 50.68C149.776 50.4133 149.36 50.0133 149.061 49.48C148.773 48.9467 148.629 48.28 148.629 47.48V42.6H149.765V47.352C149.765 48.248 149.984 48.9253 150.421 49.384C150.869 49.832 151.493 50.056 152.293 50.056C152.88 50.056 153.386 49.9387 153.813 49.704C154.25 49.4587 154.581 49.1067 154.805 48.648C155.04 48.1893 155.157 47.64 155.157 47V42.6H156.293V51H155.205V48.696L155.381 49.112C155.114 49.7307 154.698 50.216 154.133 50.568C153.578 50.9093 152.928 51.08 152.181 51.08ZM161.715 51.08C161.022 51.08 160.366 50.984 159.747 50.792C159.128 50.5893 158.643 50.3387 158.291 50.04L158.803 49.144C159.144 49.4 159.582 49.624 160.115 49.816C160.648 49.9973 161.208 50.088 161.795 50.088C162.595 50.088 163.171 49.9653 163.523 49.72C163.875 49.464 164.051 49.128 164.051 48.712C164.051 48.4027 163.95 48.1627 163.747 47.992C163.555 47.8107 163.299 47.6773 162.979 47.592C162.659 47.496 162.302 47.416 161.907 47.352C161.512 47.288 161.118 47.2133 160.723 47.128C160.339 47.0427 159.987 46.92 159.667 46.76C159.347 46.5893 159.086 46.36 158.883 46.072C158.691 45.784 158.595 45.4 158.595 44.92C158.595 44.4613 158.723 44.0507 158.979 43.688C159.235 43.3253 159.608 43.0427 160.099 42.84C160.6 42.6267 161.208 42.52 161.923 42.52C162.467 42.52 163.011 42.5947 163.555 42.744C164.099 42.8827 164.547 43.0693 164.899 43.304L164.403 44.216C164.03 43.96 163.63 43.7787 163.203 43.672C162.776 43.5547 162.35 43.496 161.923 43.496C161.166 43.496 160.606 43.6293 160.243 43.896C159.891 44.152 159.715 44.4827 159.715 44.888C159.715 45.208 159.811 45.4587 160.003 45.64C160.206 45.8213 160.467 45.9653 160.787 46.072C161.118 46.168 161.475 46.248 161.859 46.312C162.254 46.376 162.643 46.456 163.027 46.552C163.422 46.6373 163.779 46.76 164.099 46.92C164.43 47.0693 164.691 47.288 164.883 47.576C165.086 47.8533 165.187 48.2213 165.187 48.68C165.187 49.1707 165.048 49.5973 164.771 49.96C164.504 50.312 164.11 50.5893 163.587 50.792C163.075 50.984 162.451 51.08 161.715 51.08ZM170.84 51.08C169.965 51.08 169.197 50.8987 168.536 50.536C167.874 50.1627 167.357 49.656 166.984 49.016C166.61 48.3653 166.424 47.624 166.424 46.792C166.424 45.96 166.6 45.224 166.952 44.584C167.314 43.944 167.805 43.4427 168.424 43.08C169.053 42.7067 169.757 42.52 170.536 42.52C171.325 42.52 172.024 42.7013 172.632 43.064C173.25 43.416 173.736 43.9173 174.088 44.568C174.44 45.208 174.616 45.9493 174.616 46.792C174.616 46.8453 174.61 46.904 174.6 46.968C174.6 47.0213 174.6 47.08 174.6 47.144H167.288V46.296H173.992L173.544 46.632C173.544 46.024 173.41 45.4853 173.144 45.016C172.888 44.536 172.536 44.1627 172.088 43.896C171.64 43.6293 171.122 43.496 170.536 43.496C169.96 43.496 169.442 43.6293 168.984 43.896C168.525 44.1627 168.168 44.536 167.912 45.016C167.656 45.496 167.528 46.0453 167.528 46.664V46.84C167.528 47.48 167.666 48.0453 167.944 48.536C168.232 49.016 168.626 49.3947 169.128 49.672C169.64 49.9387 170.221 50.072 170.872 50.072C171.384 50.072 171.858 49.9813 172.296 49.8C172.744 49.6187 173.128 49.3413 173.448 48.968L174.088 49.704C173.714 50.152 173.245 50.4933 172.68 50.728C172.125 50.9627 171.512 51.08 170.84 51.08ZM191.611 42.52C192.294 42.52 192.886 42.6533 193.387 42.92C193.899 43.176 194.294 43.5707 194.571 44.104C194.859 44.6373 195.003 45.3093 195.003 46.12V51H193.867V46.232C193.867 45.3467 193.654 44.68 193.227 44.232C192.811 43.7733 192.219 43.544 191.451 43.544C190.875 43.544 190.374 43.6667 189.947 43.912C189.531 44.1467 189.206 44.4933 188.971 44.952C188.747 45.4 188.635 45.944 188.635 46.584V51H187.499V46.232C187.499 45.3467 187.286 44.68 186.859 44.232C186.433 43.7733 185.835 43.544 185.067 43.544C184.502 43.544 184.006 43.6667 183.579 43.912C183.153 44.1467 182.822 44.4933 182.587 44.952C182.363 45.4 182.251 45.944 182.251 46.584V51H181.115V42.6H182.203V44.872L182.027 44.472C182.283 43.864 182.694 43.3893 183.259 43.048C183.835 42.696 184.513 42.52 185.291 42.52C186.113 42.52 186.811 42.728 187.387 43.144C187.963 43.5493 188.337 44.1627 188.507 44.984L188.059 44.808C188.305 44.1253 188.737 43.576 189.355 43.16C189.985 42.7333 190.737 42.52 191.611 42.52ZM197.992 54.184C197.597 54.184 197.218 54.12 196.856 53.992C196.504 53.864 196.2 53.672 195.944 53.416L196.472 52.568C196.685 52.7707 196.914 52.9253 197.16 53.032C197.416 53.1493 197.698 53.208 198.008 53.208C198.381 53.208 198.701 53.1013 198.968 52.888C199.245 52.6853 199.506 52.3227 199.752 51.8L200.296 50.568L200.424 50.392L203.88 42.6H205L200.792 52.008C200.557 52.552 200.296 52.984 200.008 53.304C199.73 53.624 199.426 53.848 199.096 53.976C198.765 54.1147 198.397 54.184 197.992 54.184ZM200.232 51.24L196.36 42.6H197.544L200.968 50.312L200.232 51.24ZM215.123 51.08C214.387 51.08 213.726 50.9147 213.139 50.584C212.552 50.2427 212.088 49.752 211.747 49.112C211.406 48.472 211.235 47.6987 211.235 46.792C211.235 45.8747 211.406 45.1013 211.747 44.472C212.099 43.832 212.568 43.3467 213.155 43.016C213.742 42.6853 214.398 42.52 215.123 42.52C215.923 42.52 216.638 42.7013 217.267 43.064C217.907 43.416 218.408 43.912 218.771 44.552C219.134 45.192 219.315 45.9387 219.315 46.792C219.315 47.6347 219.134 48.3813 218.771 49.032C218.408 49.672 217.907 50.1733 217.267 50.536C216.638 50.8987 215.923 51.08 215.123 51.08ZM210.787 51V39.128H211.923V45.08L211.763 46.776L211.875 48.472V51H210.787ZM215.043 50.072C215.64 50.072 216.174 49.9387 216.643 49.672C217.112 49.3947 217.486 49.0107 217.763 48.52C218.04 48.0187 218.179 47.4427 218.179 46.792C218.179 46.1307 218.04 45.5547 217.763 45.064C217.486 44.5733 217.112 44.1947 216.643 43.928C216.174 43.6507 215.64 43.512 215.043 43.512C214.446 43.512 213.907 43.6507 213.427 43.928C212.958 44.1947 212.584 44.5733 212.307 45.064C212.04 45.5547 211.907 46.1307 211.907 46.792C211.907 47.4427 212.04 48.0187 212.307 48.52C212.584 49.0107 212.958 49.3947 213.427 49.672C213.907 49.9387 214.446 50.072 215.043 50.072ZM226.848 51V49.144L226.8 48.84V45.736C226.8 45.0213 226.597 44.472 226.192 44.088C225.797 43.704 225.205 43.512 224.416 43.512C223.872 43.512 223.355 43.6027 222.864 43.784C222.373 43.9653 221.957 44.2053 221.616 44.504L221.104 43.656C221.531 43.2933 222.043 43.016 222.64 42.824C223.237 42.6213 223.867 42.52 224.528 42.52C225.616 42.52 226.453 42.792 227.04 43.336C227.637 43.8693 227.936 44.6853 227.936 45.784V51H226.848ZM223.952 51.08C223.323 51.08 222.773 50.9787 222.304 50.776C221.845 50.5627 221.493 50.2747 221.248 49.912C221.003 49.5387 220.88 49.112 220.88 48.632C220.88 48.1947 220.981 47.8 221.184 47.448C221.397 47.0853 221.739 46.7973 222.208 46.584C222.688 46.36 223.328 46.248 224.128 46.248H227.024V47.096H224.16C223.349 47.096 222.784 47.24 222.464 47.528C222.155 47.816 222 48.1733 222 48.6C222 49.08 222.187 49.464 222.56 49.752C222.933 50.04 223.456 50.184 224.128 50.184C224.768 50.184 225.317 50.04 225.776 49.752C226.245 49.4533 226.587 49.0267 226.8 48.472L227.056 49.256C226.843 49.8107 226.469 50.2533 225.936 50.584C225.413 50.9147 224.752 51.08 223.952 51.08ZM235.31 42.52C235.992 42.52 236.59 42.6533 237.102 42.92C237.624 43.176 238.03 43.5707 238.318 44.104C238.616 44.6373 238.766 45.3093 238.766 46.12V51H237.63V46.232C237.63 45.3467 237.406 44.68 236.958 44.232C236.52 43.7733 235.902 43.544 235.102 43.544C234.504 43.544 233.982 43.6667 233.534 43.912C233.096 44.1467 232.755 44.4933 232.51 44.952C232.275 45.4 232.158 45.944 232.158 46.584V51H231.022V42.6H232.11V44.904L231.934 44.472C232.2 43.864 232.627 43.3893 233.214 43.048C233.8 42.696 234.499 42.52 235.31 42.52ZM242.73 48.824L242.762 47.368L247.994 42.6H249.386L245.69 46.136L245.05 46.68L242.73 48.824ZM241.834 51V39.128H242.97V51H241.834ZM248.346 51L244.842 46.632L245.578 45.752L249.738 51H248.346ZM251.443 51V42.6H252.579V51H251.443ZM252.019 40.744C251.785 40.744 251.587 40.664 251.427 40.504C251.267 40.344 251.187 40.152 251.187 39.928C251.187 39.704 251.267 39.5173 251.427 39.368C251.587 39.208 251.785 39.128 252.019 39.128C252.254 39.128 252.451 39.2027 252.611 39.352C252.771 39.5013 252.851 39.688 252.851 39.912C252.851 40.1467 252.771 40.344 252.611 40.504C252.462 40.664 252.265 40.744 252.019 40.744ZM260.028 42.52C260.711 42.52 261.308 42.6533 261.82 42.92C262.343 43.176 262.748 43.5707 263.036 44.104C263.335 44.6373 263.484 45.3093 263.484 46.12V51H262.348V46.232C262.348 45.3467 262.124 44.68 261.676 44.232C261.239 43.7733 260.62 43.544 259.82 43.544C259.223 43.544 258.7 43.6667 258.252 43.912C257.815 44.1467 257.474 44.4933 257.228 44.952C256.994 45.4 256.876 45.944 256.876 46.584V51H255.74V42.6H256.828V44.904L256.652 44.472C256.919 43.864 257.346 43.3893 257.932 43.048C258.519 42.696 259.218 42.52 260.028 42.52ZM270.137 54.184C269.369 54.184 268.633 54.072 267.929 53.848C267.225 53.624 266.654 53.304 266.217 52.888L266.793 52.024C267.187 52.376 267.673 52.6533 268.249 52.856C268.835 53.0693 269.454 53.176 270.105 53.176C271.171 53.176 271.955 52.9253 272.457 52.424C272.958 51.9333 273.209 51.1653 273.209 50.12V48.024L273.369 46.584L273.257 45.144V42.6H274.345V49.976C274.345 51.4267 273.987 52.488 273.273 53.16C272.569 53.8427 271.523 54.184 270.137 54.184ZM269.929 50.68C269.129 50.68 268.409 50.5093 267.769 50.168C267.129 49.816 266.622 49.3307 266.249 48.712C265.886 48.0933 265.705 47.384 265.705 46.584C265.705 45.784 265.886 45.08 266.249 44.472C266.622 43.8533 267.129 43.3733 267.769 43.032C268.409 42.6907 269.129 42.52 269.929 42.52C270.675 42.52 271.347 42.6747 271.945 42.984C272.542 43.2933 273.017 43.752 273.369 44.36C273.721 44.968 273.897 45.7093 273.897 46.584C273.897 47.4587 273.721 48.2 273.369 48.808C273.017 49.416 272.542 49.88 271.945 50.2C271.347 50.52 270.675 50.68 269.929 50.68ZM270.041 49.672C270.659 49.672 271.209 49.544 271.689 49.288C272.169 49.0213 272.547 48.6587 272.825 48.2C273.102 47.7307 273.241 47.192 273.241 46.584C273.241 45.976 273.102 45.4427 272.825 44.984C272.547 44.5253 272.169 44.168 271.689 43.912C271.209 43.6453 270.659 43.512 270.041 43.512C269.433 43.512 268.883 43.6453 268.393 43.912C267.913 44.168 267.534 44.5253 267.257 44.984C266.99 45.4427 266.857 45.976 266.857 46.584C266.857 47.192 266.99 47.7307 267.257 48.2C267.534 48.6587 267.913 49.0213 268.393 49.288C268.883 49.544 269.433 49.672 270.041 49.672ZM286.957 51V49.144L286.909 48.84V45.736C286.909 45.0213 286.707 44.472 286.301 44.088C285.907 43.704 285.315 43.512 284.525 43.512C283.981 43.512 283.464 43.6027 282.973 43.784C282.483 43.9653 282.067 44.2053 281.725 44.504L281.213 43.656C281.64 43.2933 282.152 43.016 282.749 42.824C283.347 42.6213 283.976 42.52 284.637 42.52C285.725 42.52 286.563 42.792 287.149 43.336C287.747 43.8693 288.045 44.6853 288.045 45.784V51H286.957ZM284.061 51.08C283.432 51.08 282.883 50.9787 282.413 50.776C281.955 50.5627 281.603 50.2747 281.357 49.912C281.112 49.5387 280.989 49.112 280.989 48.632C280.989 48.1947 281.091 47.8 281.293 47.448C281.507 47.0853 281.848 46.7973 282.317 46.584C282.797 46.36 283.437 46.248 284.237 46.248H287.133V47.096H284.269C283.459 47.096 282.893 47.24 282.573 47.528C282.264 47.816 282.109 48.1733 282.109 48.6C282.109 49.08 282.296 49.464 282.669 49.752C283.043 50.04 283.565 50.184 284.237 50.184C284.877 50.184 285.427 50.04 285.885 49.752C286.355 49.4533 286.696 49.0267 286.909 48.472L287.165 49.256C286.952 49.8107 286.579 50.2533 286.045 50.584C285.523 50.9147 284.861 51.08 284.061 51.08ZM295.467 51.08C294.742 51.08 294.086 50.9147 293.499 50.584C292.912 50.2427 292.443 49.7573 292.091 49.128C291.75 48.488 291.579 47.7093 291.579 46.792C291.579 45.8747 291.75 45.1013 292.091 44.472C292.432 43.832 292.896 43.3467 293.483 43.016C294.07 42.6853 294.731 42.52 295.467 42.52C296.267 42.52 296.982 42.7013 297.611 43.064C298.251 43.416 298.752 43.9173 299.115 44.568C299.478 45.208 299.659 45.9493 299.659 46.792C299.659 47.6453 299.478 48.392 299.115 49.032C298.752 49.672 298.251 50.1733 297.611 50.536C296.982 50.8987 296.267 51.08 295.467 51.08ZM291.131 54.104V42.6H292.219V45.128L292.107 46.808L292.267 48.504V54.104H291.131ZM295.387 50.072C295.984 50.072 296.518 49.9387 296.987 49.672C297.456 49.3947 297.83 49.0107 298.107 48.52C298.384 48.0187 298.523 47.4427 298.523 46.792C298.523 46.1413 298.384 45.5707 298.107 45.08C297.83 44.5893 297.456 44.2053 296.987 43.928C296.518 43.6507 295.984 43.512 295.387 43.512C294.79 43.512 294.251 43.6507 293.771 43.928C293.302 44.2053 292.928 44.5893 292.651 45.08C292.384 45.5707 292.251 46.1413 292.251 46.792C292.251 47.4427 292.384 48.0187 292.651 48.52C292.928 49.0107 293.302 49.3947 293.771 49.672C294.251 49.9387 294.79 50.072 295.387 50.072ZM306.311 51.08C305.585 51.08 304.929 50.9147 304.343 50.584C303.756 50.2427 303.287 49.7573 302.935 49.128C302.593 48.488 302.423 47.7093 302.423 46.792C302.423 45.8747 302.593 45.1013 302.935 44.472C303.276 43.832 303.74 43.3467 304.327 43.016C304.913 42.6853 305.575 42.52 306.311 42.52C307.111 42.52 307.825 42.7013 308.455 43.064C309.095 43.416 309.596 43.9173 309.959 44.568C310.321 45.208 310.503 45.9493 310.503 46.792C310.503 47.6453 310.321 48.392 309.959 49.032C309.596 49.672 309.095 50.1733 308.455 50.536C307.825 50.8987 307.111 51.08 306.311 51.08ZM301.975 54.104V42.6H303.063V45.128L302.951 46.808L303.111 48.504V54.104H301.975ZM306.231 50.072C306.828 50.072 307.361 49.9387 307.831 49.672C308.3 49.3947 308.673 49.0107 308.951 48.52C309.228 48.0187 309.367 47.4427 309.367 46.792C309.367 46.1413 309.228 45.5707 308.951 45.08C308.673 44.5893 308.3 44.2053 307.831 43.928C307.361 43.6507 306.828 43.512 306.231 43.512C305.633 43.512 305.095 43.6507 304.615 43.928C304.145 44.2053 303.772 44.5893 303.495 45.08C303.228 45.5707 303.095 46.1413 303.095 46.792C303.095 47.4427 303.228 48.0187 303.495 48.52C303.772 49.0107 304.145 49.3947 304.615 49.672C305.095 49.9387 305.633 50.072 306.231 50.072ZM319.662 51.08C318.873 51.08 318.265 50.8667 317.838 50.44C317.411 50.0133 317.198 49.4107 317.198 48.632V40.744H318.334V48.568C318.334 49.0587 318.457 49.4373 318.702 49.704C318.958 49.9707 319.321 50.104 319.79 50.104C320.291 50.104 320.707 49.96 321.038 49.672L321.438 50.488C321.214 50.6907 320.942 50.84 320.622 50.936C320.313 51.032 319.993 51.08 319.662 51.08ZM315.694 43.544V42.6H320.894V43.544H315.694ZM326.633 51.08C325.822 51.08 325.092 50.8987 324.441 50.536C323.801 50.1627 323.294 49.656 322.921 49.016C322.548 48.3653 322.361 47.624 322.361 46.792C322.361 45.9493 322.548 45.208 322.921 44.568C323.294 43.928 323.801 43.4267 324.441 43.064C325.081 42.7013 325.812 42.52 326.633 42.52C327.465 42.52 328.201 42.7013 328.841 43.064C329.492 43.4267 329.998 43.928 330.361 44.568C330.734 45.208 330.921 45.9493 330.921 46.792C330.921 47.624 330.734 48.3653 330.361 49.016C329.998 49.656 329.492 50.1627 328.841 50.536C328.19 50.8987 327.454 51.08 326.633 51.08ZM326.633 50.072C327.241 50.072 327.78 49.9387 328.249 49.672C328.718 49.3947 329.086 49.0107 329.353 48.52C329.63 48.0187 329.769 47.4427 329.769 46.792C329.769 46.1307 329.63 45.5547 329.353 45.064C329.086 44.5733 328.718 44.1947 328.249 43.928C327.78 43.6507 327.246 43.512 326.649 43.512C326.052 43.512 325.518 43.6507 325.049 43.928C324.58 44.1947 324.206 44.5733 323.929 45.064C323.652 45.5547 323.513 46.1307 323.513 46.792C323.513 47.4427 323.652 48.0187 323.929 48.52C324.206 49.0107 324.58 49.3947 325.049 49.672C325.518 49.9387 326.046 50.072 326.633 50.072ZM340.916 51.08C340.084 51.08 339.337 50.8987 338.676 50.536C338.025 50.1627 337.513 49.656 337.14 49.016C336.766 48.3653 336.58 47.624 336.58 46.792C336.58 45.9493 336.766 45.208 337.14 44.568C337.513 43.928 338.025 43.4267 338.676 43.064C339.337 42.7013 340.084 42.52 340.916 42.52C341.63 42.52 342.276 42.6587 342.852 42.936C343.428 43.2133 343.881 43.6293 344.212 44.184L343.364 44.76C343.076 44.3333 342.718 44.0187 342.292 43.816C341.865 43.6133 341.401 43.512 340.9 43.512C340.302 43.512 339.764 43.6507 339.284 43.928C338.804 44.1947 338.425 44.5733 338.148 45.064C337.87 45.5547 337.732 46.1307 337.732 46.792C337.732 47.4533 337.87 48.0293 338.148 48.52C338.425 49.0107 338.804 49.3947 339.284 49.672C339.764 49.9387 340.302 50.072 340.9 50.072C341.401 50.072 341.865 49.9707 342.292 49.768C342.718 49.5653 343.076 49.256 343.364 48.84L344.212 49.416C343.881 49.96 343.428 50.376 342.852 50.664C342.276 50.9413 341.63 51.08 340.916 51.08ZM350.606 42.52C351.289 42.52 351.886 42.6533 352.398 42.92C352.921 43.176 353.326 43.5707 353.614 44.104C353.913 44.6373 354.062 45.3093 354.062 46.12V51H352.926V46.232C352.926 45.3467 352.702 44.68 352.254 44.232C351.817 43.7733 351.198 43.544 350.398 43.544C349.801 43.544 349.278 43.6667 348.83 43.912C348.393 44.1467 348.052 44.4933 347.806 44.952C347.572 45.4 347.454 45.944 347.454 46.584V51H346.318V39.128H347.454V44.904L347.23 44.472C347.497 43.864 347.924 43.3893 348.51 43.048C349.097 42.696 349.796 42.52 350.606 42.52ZM360.699 51.08C359.824 51.08 359.056 50.8987 358.395 50.536C357.734 50.1627 357.216 49.656 356.843 49.016C356.47 48.3653 356.283 47.624 356.283 46.792C356.283 45.96 356.459 45.224 356.811 44.584C357.174 43.944 357.664 43.4427 358.283 43.08C358.912 42.7067 359.616 42.52 360.395 42.52C361.184 42.52 361.883 42.7013 362.491 43.064C363.11 43.416 363.595 43.9173 363.947 44.568C364.299 45.208 364.475 45.9493 364.475 46.792C364.475 46.8453 364.47 46.904 364.459 46.968C364.459 47.0213 364.459 47.08 364.459 47.144H357.147V46.296H363.851L363.403 46.632C363.403 46.024 363.27 45.4853 363.003 45.016C362.747 44.536 362.395 44.1627 361.947 43.896C361.499 43.6293 360.982 43.496 360.395 43.496C359.819 43.496 359.302 43.6293 358.843 43.896C358.384 44.1627 358.027 44.536 357.771 45.016C357.515 45.496 357.387 46.0453 357.387 46.664V46.84C357.387 47.48 357.526 48.0453 357.803 48.536C358.091 49.016 358.486 49.3947 358.987 49.672C359.499 49.9387 360.08 50.072 360.731 50.072C361.243 50.072 361.718 49.9813 362.155 49.8C362.603 49.6187 362.987 49.3413 363.307 48.968L363.947 49.704C363.574 50.152 363.104 50.4933 362.539 50.728C361.984 50.9627 361.371 51.08 360.699 51.08ZM370.275 51.08C369.443 51.08 368.696 50.8987 368.035 50.536C367.384 50.1627 366.872 49.656 366.499 49.016C366.126 48.3653 365.939 47.624 365.939 46.792C365.939 45.9493 366.126 45.208 366.499 44.568C366.872 43.928 367.384 43.4267 368.035 43.064C368.696 42.7013 369.443 42.52 370.275 42.52C370.99 42.52 371.635 42.6587 372.211 42.936C372.787 43.2133 373.24 43.6293 373.571 44.184L372.723 44.76C372.435 44.3333 372.078 44.0187 371.651 43.816C371.224 43.6133 370.76 43.512 370.259 43.512C369.662 43.512 369.123 43.6507 368.643 43.928C368.163 44.1947 367.784 44.5733 367.507 45.064C367.23 45.5547 367.091 46.1307 367.091 46.792C367.091 47.4533 367.23 48.0293 367.507 48.52C367.784 49.0107 368.163 49.3947 368.643 49.672C369.123 49.9387 369.662 50.072 370.259 50.072C370.76 50.072 371.224 49.9707 371.651 49.768C372.078 49.5653 372.435 49.256 372.723 48.84L373.571 49.416C373.24 49.96 372.787 50.376 372.211 50.664C371.635 50.9413 370.99 51.08 370.275 51.08ZM376.574 48.824L376.606 47.368L381.838 42.6H383.23L379.534 46.136L378.894 46.68L376.574 48.824ZM375.678 51V39.128H376.814V51H375.678ZM382.19 51L378.686 46.632L379.422 45.752L383.582 51H382.19ZM399.971 42.52C400.653 42.52 401.245 42.6533 401.747 42.92C402.259 43.176 402.653 43.5707 402.931 44.104C403.219 44.6373 403.363 45.3093 403.363 46.12V51H402.227V46.232C402.227 45.3467 402.013 44.68 401.587 44.232C401.171 43.7733 400.579 43.544 399.811 43.544C399.235 43.544 398.733 43.6667 398.307 43.912C397.891 44.1467 397.565 44.4933 397.331 44.952C397.107 45.4 396.995 45.944 396.995 46.584V51H395.859V46.232C395.859 45.3467 395.645 44.68 395.219 44.232C394.792 43.7733 394.195 43.544 393.427 43.544C392.861 43.544 392.365 43.6667 391.939 43.912C391.512 44.1467 391.181 44.4933 390.947 44.952C390.723 45.4 390.611 45.944 390.611 46.584V51H389.475V42.6H390.563V44.872L390.387 44.472C390.643 43.864 391.053 43.3893 391.619 43.048C392.195 42.696 392.872 42.52 393.651 42.52C394.472 42.52 395.171 42.728 395.747 43.144C396.323 43.5493 396.696 44.1627 396.867 44.984L396.419 44.808C396.664 44.1253 397.096 43.576 397.715 43.16C398.344 42.7333 399.096 42.52 399.971 42.52ZM406.351 54.184C405.956 54.184 405.578 54.12 405.215 53.992C404.863 53.864 404.559 53.672 404.303 53.416L404.831 52.568C405.044 52.7707 405.274 52.9253 405.519 53.032C405.775 53.1493 406.058 53.208 406.367 53.208C406.74 53.208 407.06 53.1013 407.327 52.888C407.604 52.6853 407.866 52.3227 408.111 51.8L408.655 50.568L408.783 50.392L412.239 42.6H413.359L409.151 52.008C408.916 52.552 408.655 52.984 408.367 53.304C408.09 53.624 407.786 53.848 407.455 53.976C407.124 54.1147 406.756 54.184 406.351 54.184ZM408.591 51.24L404.719 42.6H405.903L409.327 50.312L408.591 51.24ZM99.92 71.08C99.184 71.08 98.5227 70.9147 97.936 70.584C97.3493 70.2427 96.8853 69.752 96.544 69.112C96.2027 68.472 96.032 67.6987 96.032 66.792C96.032 65.8747 96.2027 65.1013 96.544 64.472C96.896 63.832 97.3653 63.3467 97.952 63.016C98.5387 62.6853 99.1947 62.52 99.92 62.52C100.72 62.52 101.435 62.7013 102.064 63.064C102.704 63.416 103.205 63.912 103.568 64.552C103.931 65.192 104.112 65.9387 104.112 66.792C104.112 67.6347 103.931 68.3813 103.568 69.032C103.205 69.672 102.704 70.1733 102.064 70.536C101.435 70.8987 100.72 71.08 99.92 71.08ZM95.584 71V59.128H96.72V65.08L96.56 66.776L96.672 68.472V71H95.584ZM99.84 70.072C100.437 70.072 100.971 69.9387 101.44 69.672C101.909 69.3947 102.283 69.0107 102.56 68.52C102.837 68.0187 102.976 67.4427 102.976 66.792C102.976 66.1307 102.837 65.5547 102.56 65.064C102.283 64.5733 101.909 64.1947 101.44 63.928C100.971 63.6507 100.437 63.512 99.84 63.512C99.2427 63.512 98.704 63.6507 98.224 63.928C97.7547 64.1947 97.3813 64.5733 97.104 65.064C96.8373 65.5547 96.704 66.1307 96.704 66.792C96.704 67.4427 96.8373 68.0187 97.104 68.52C97.3813 69.0107 97.7547 69.3947 98.224 69.672C98.704 69.9387 99.2427 70.072 99.84 70.072ZM111.645 71V69.144L111.597 68.84V65.736C111.597 65.0213 111.394 64.472 110.989 64.088C110.594 63.704 110.002 63.512 109.213 63.512C108.669 63.512 108.152 63.6027 107.661 63.784C107.17 63.9653 106.754 64.2053 106.413 64.504L105.901 63.656C106.328 63.2933 106.84 63.016 107.437 62.824C108.034 62.6213 108.664 62.52 109.325 62.52C110.413 62.52 111.25 62.792 111.837 63.336C112.434 63.8693 112.733 64.6853 112.733 65.784V71H111.645ZM108.749 71.08C108.12 71.08 107.57 70.9787 107.101 70.776C106.642 70.5627 106.29 70.2747 106.045 69.912C105.8 69.5387 105.677 69.112 105.677 68.632C105.677 68.1947 105.778 67.8 105.981 67.448C106.194 67.0853 106.536 66.7973 107.005 66.584C107.485 66.36 108.125 66.248 108.925 66.248H111.821V67.096H108.957C108.146 67.096 107.581 67.24 107.261 67.528C106.952 67.816 106.797 68.1733 106.797 68.6C106.797 69.08 106.984 69.464 107.357 69.752C107.73 70.04 108.253 70.184 108.925 70.184C109.565 70.184 110.114 70.04 110.573 69.752C111.042 69.4533 111.384 69.0267 111.597 68.472L111.853 69.256C111.64 69.8107 111.266 70.2533 110.733 70.584C110.21 70.9147 109.549 71.08 108.749 71.08ZM115.818 71V59.128H116.954V71H115.818ZM125.379 71V69.144L125.331 68.84V65.736C125.331 65.0213 125.129 64.472 124.723 64.088C124.329 63.704 123.737 63.512 122.947 63.512C122.403 63.512 121.886 63.6027 121.395 63.784C120.905 63.9653 120.489 64.2053 120.147 64.504L119.635 63.656C120.062 63.2933 120.574 63.016 121.171 62.824C121.769 62.6213 122.398 62.52 123.059 62.52C124.147 62.52 124.985 62.792 125.571 63.336C126.169 63.8693 126.467 64.6853 126.467 65.784V71H125.379ZM122.483 71.08C121.854 71.08 121.305 70.9787 120.835 70.776C120.377 70.5627 120.025 70.2747 119.779 69.912C119.534 69.5387 119.411 69.112 119.411 68.632C119.411 68.1947 119.513 67.8 119.715 67.448C119.929 67.0853 120.27 66.7973 120.739 66.584C121.219 66.36 121.859 66.248 122.659 66.248H125.555V67.096H122.691C121.881 67.096 121.315 67.24 120.995 67.528C120.686 67.816 120.531 68.1733 120.531 68.6C120.531 69.08 120.718 69.464 121.091 69.752C121.465 70.04 121.987 70.184 122.659 70.184C123.299 70.184 123.849 70.04 124.307 69.752C124.777 69.4533 125.118 69.0267 125.331 68.472L125.587 69.256C125.374 69.8107 125.001 70.2533 124.467 70.584C123.945 70.9147 123.283 71.08 122.483 71.08ZM133.841 62.52C134.523 62.52 135.121 62.6533 135.633 62.92C136.155 63.176 136.561 63.5707 136.849 64.104C137.147 64.6373 137.297 65.3093 137.297 66.12V71H136.161V66.232C136.161 65.3467 135.937 64.68 135.489 64.232C135.051 63.7733 134.433 63.544 133.633 63.544C133.035 63.544 132.513 63.6667 132.065 63.912C131.627 64.1467 131.286 64.4933 131.041 64.952C130.806 65.4 130.689 65.944 130.689 66.584V71H129.553V62.6H130.641V64.904L130.465 64.472C130.731 63.864 131.158 63.3893 131.745 63.048C132.331 62.696 133.03 62.52 133.841 62.52ZM143.853 71.08C143.021 71.08 142.275 70.8987 141.613 70.536C140.963 70.1627 140.451 69.656 140.077 69.016C139.704 68.3653 139.517 67.624 139.517 66.792C139.517 65.9493 139.704 65.208 140.077 64.568C140.451 63.928 140.963 63.4267 141.613 63.064C142.275 62.7013 143.021 62.52 143.853 62.52C144.568 62.52 145.213 62.6587 145.789 62.936C146.365 63.2133 146.819 63.6293 147.149 64.184L146.301 64.76C146.013 64.3333 145.656 64.0187 145.229 63.816C144.803 63.6133 144.339 63.512 143.837 63.512C143.24 63.512 142.701 63.6507 142.221 63.928C141.741 64.1947 141.363 64.5733 141.085 65.064C140.808 65.5547 140.669 66.1307 140.669 66.792C140.669 67.4533 140.808 68.0293 141.085 68.52C141.363 69.0107 141.741 69.3947 142.221 69.672C142.701 69.9387 143.24 70.072 143.837 70.072C144.339 70.072 144.803 69.9707 145.229 69.768C145.656 69.5653 146.013 69.256 146.301 68.84L147.149 69.416C146.819 69.96 146.365 70.376 145.789 70.664C145.213 70.9413 144.568 71.08 143.853 71.08ZM152.808 71.08C151.934 71.08 151.166 70.8987 150.504 70.536C149.843 70.1627 149.326 69.656 148.952 69.016C148.579 68.3653 148.392 67.624 148.392 66.792C148.392 65.96 148.568 65.224 148.92 64.584C149.283 63.944 149.774 63.4427 150.392 63.08C151.022 62.7067 151.726 62.52 152.504 62.52C153.294 62.52 153.992 62.7013 154.6 63.064C155.219 63.416 155.704 63.9173 156.056 64.568C156.408 65.208 156.584 65.9493 156.584 66.792C156.584 66.8453 156.579 66.904 156.568 66.968C156.568 67.0213 156.568 67.08 156.568 67.144H149.256V66.296H155.96L155.512 66.632C155.512 66.024 155.379 65.4853 155.112 65.016C154.856 64.536 154.504 64.1627 154.056 63.896C153.608 63.6293 153.091 63.496 152.504 63.496C151.928 63.496 151.411 63.6293 150.952 63.896C150.494 64.1627 150.136 64.536 149.88 65.016C149.624 65.496 149.496 66.0453 149.496 66.664V66.84C149.496 67.48 149.635 68.0453 149.912 68.536C150.2 69.016 150.595 69.3947 151.096 69.672C151.608 69.9387 152.19 70.072 152.84 70.072C153.352 70.072 153.827 69.9813 154.264 69.8C154.712 69.6187 155.096 69.3413 155.416 68.968L156.056 69.704C155.683 70.152 155.214 70.4933 154.648 70.728C154.094 70.9627 153.48 71.08 152.808 71.08ZM168.348 71V69.144L168.3 68.84V65.736C168.3 65.0213 168.097 64.472 167.692 64.088C167.297 63.704 166.705 63.512 165.916 63.512C165.372 63.512 164.855 63.6027 164.364 63.784C163.873 63.9653 163.457 64.2053 163.116 64.504L162.604 63.656C163.031 63.2933 163.543 63.016 164.14 62.824C164.737 62.6213 165.367 62.52 166.028 62.52C167.116 62.52 167.953 62.792 168.54 63.336C169.137 63.8693 169.436 64.6853 169.436 65.784V71H168.348ZM165.452 71.08C164.823 71.08 164.273 70.9787 163.804 70.776C163.345 70.5627 162.993 70.2747 162.748 69.912C162.503 69.5387 162.38 69.112 162.38 68.632C162.38 68.1947 162.481 67.8 162.684 67.448C162.897 67.0853 163.239 66.7973 163.708 66.584C164.188 66.36 164.828 66.248 165.628 66.248H168.524V67.096H165.66C164.849 67.096 164.284 67.24 163.964 67.528C163.655 67.816 163.5 68.1733 163.5 68.6C163.5 69.08 163.687 69.464 164.06 69.752C164.433 70.04 164.956 70.184 165.628 70.184C166.268 70.184 166.817 70.04 167.276 69.752C167.745 69.4533 168.087 69.0267 168.3 68.472L168.556 69.256C168.343 69.8107 167.969 70.2533 167.436 70.584C166.913 70.9147 166.252 71.08 165.452 71.08ZM176.81 62.52C177.492 62.52 178.09 62.6533 178.602 62.92C179.124 63.176 179.53 63.5707 179.818 64.104C180.116 64.6373 180.266 65.3093 180.266 66.12V71H179.13V66.232C179.13 65.3467 178.906 64.68 178.458 64.232C178.02 63.7733 177.402 63.544 176.602 63.544C176.004 63.544 175.482 63.6667 175.034 63.912C174.596 64.1467 174.255 64.4933 174.01 64.952C173.775 65.4 173.658 65.944 173.658 66.584V71H172.522V62.6H173.61V64.904L173.434 64.472C173.7 63.864 174.127 63.3893 174.714 63.048C175.3 62.696 175.999 62.52 176.81 62.52ZM186.678 71.08C185.878 71.08 185.158 70.8987 184.518 70.536C183.889 70.1733 183.393 69.672 183.03 69.032C182.667 68.3813 182.486 67.6347 182.486 66.792C182.486 65.9387 182.667 65.192 183.03 64.552C183.393 63.912 183.889 63.416 184.518 63.064C185.158 62.7013 185.878 62.52 186.678 62.52C187.414 62.52 188.07 62.6853 188.646 63.016C189.233 63.3467 189.697 63.832 190.038 64.472C190.39 65.1013 190.566 65.8747 190.566 66.792C190.566 67.6987 190.395 68.472 190.054 69.112C189.713 69.752 189.249 70.2427 188.662 70.584C188.086 70.9147 187.425 71.08 186.678 71.08ZM186.758 70.072C187.355 70.072 187.889 69.9387 188.358 69.672C188.838 69.3947 189.211 69.0107 189.478 68.52C189.755 68.0187 189.894 67.4427 189.894 66.792C189.894 66.1307 189.755 65.5547 189.478 65.064C189.211 64.5733 188.838 64.1947 188.358 63.928C187.889 63.6507 187.355 63.512 186.758 63.512C186.171 63.512 185.643 63.6507 185.174 63.928C184.705 64.1947 184.331 64.5733 184.054 65.064C183.777 65.5547 183.638 66.1307 183.638 66.792C183.638 67.4427 183.777 68.0187 184.054 68.52C184.331 69.0107 184.705 69.3947 185.174 69.672C185.643 69.9387 186.171 70.072 186.758 70.072ZM189.926 71V68.472L190.038 66.776L189.878 65.08V59.128H191.014V71H189.926ZM201.021 71.08C200.232 71.08 199.624 70.8667 199.197 70.44C198.771 70.0133 198.557 69.4107 198.557 68.632V60.744H199.693V68.568C199.693 69.0587 199.816 69.4373 200.061 69.704C200.317 69.9707 200.68 70.104 201.149 70.104C201.651 70.104 202.067 69.96 202.397 69.672L202.797 70.488C202.573 70.6907 202.301 70.84 201.981 70.936C201.672 71.032 201.352 71.08 201.021 71.08ZM197.053 63.544V62.6H202.253V63.544H197.053ZM204.865 71V62.6H205.953V64.888L205.841 64.488C206.076 63.848 206.471 63.3627 207.025 63.032C207.58 62.6907 208.268 62.52 209.089 62.52V63.624C209.047 63.624 209.004 63.624 208.961 63.624C208.919 63.6133 208.876 63.608 208.833 63.608C207.948 63.608 207.255 63.88 206.753 64.424C206.252 64.9573 206.001 65.72 206.001 66.712V71H204.865ZM215.801 71V69.144L215.753 68.84V65.736C215.753 65.0213 215.55 64.472 215.145 64.088C214.75 63.704 214.158 63.512 213.369 63.512C212.825 63.512 212.308 63.6027 211.817 63.784C211.326 63.9653 210.91 64.2053 210.569 64.504L210.057 63.656C210.484 63.2933 210.996 63.016 211.593 62.824C212.19 62.6213 212.82 62.52 213.481 62.52C214.569 62.52 215.406 62.792 215.993 63.336C216.59 63.8693 216.889 64.6853 216.889 65.784V71H215.801ZM212.905 71.08C212.276 71.08 211.726 70.9787 211.257 70.776C210.798 70.5627 210.446 70.2747 210.201 69.912C209.956 69.5387 209.833 69.112 209.833 68.632C209.833 68.1947 209.934 67.8 210.137 67.448C210.35 67.0853 210.692 66.7973 211.161 66.584C211.641 66.36 212.281 66.248 213.081 66.248H215.977V67.096H213.113C212.302 67.096 211.737 67.24 211.417 67.528C211.108 67.816 210.953 68.1733 210.953 68.6C210.953 69.08 211.14 69.464 211.513 69.752C211.886 70.04 212.409 70.184 213.081 70.184C213.721 70.184 214.27 70.04 214.729 69.752C215.198 69.4533 215.54 69.0267 215.753 68.472L216.009 69.256C215.796 69.8107 215.422 70.2533 214.889 70.584C214.366 70.9147 213.705 71.08 212.905 71.08ZM224.263 62.52C224.945 62.52 225.543 62.6533 226.055 62.92C226.577 63.176 226.983 63.5707 227.271 64.104C227.569 64.6373 227.719 65.3093 227.719 66.12V71H226.583V66.232C226.583 65.3467 226.359 64.68 225.911 64.232C225.473 63.7733 224.855 63.544 224.055 63.544C223.457 63.544 222.935 63.6667 222.487 63.912C222.049 64.1467 221.708 64.4933 221.463 64.952C221.228 65.4 221.111 65.944 221.111 66.584V71H219.975V62.6H221.063V64.904L220.887 64.472C221.153 63.864 221.58 63.3893 222.167 63.048C222.753 62.696 223.452 62.52 224.263 62.52ZM233.043 71.08C232.35 71.08 231.694 70.984 231.075 70.792C230.456 70.5893 229.971 70.3387 229.619 70.04L230.131 69.144C230.472 69.4 230.91 69.624 231.443 69.816C231.976 69.9973 232.536 70.088 233.123 70.088C233.923 70.088 234.499 69.9653 234.851 69.72C235.203 69.464 235.379 69.128 235.379 68.712C235.379 68.4027 235.278 68.1627 235.075 67.992C234.883 67.8107 234.627 67.6773 234.307 67.592C233.987 67.496 233.63 67.416 233.235 67.352C232.84 67.288 232.446 67.2133 232.051 67.128C231.667 67.0427 231.315 66.92 230.995 66.76C230.675 66.5893 230.414 66.36 230.211 66.072C230.019 65.784 229.923 65.4 229.923 64.92C229.923 64.4613 230.051 64.0507 230.307 63.688C230.563 63.3253 230.936 63.0427 231.427 62.84C231.928 62.6267 232.536 62.52 233.251 62.52C233.795 62.52 234.339 62.5947 234.883 62.744C235.427 62.8827 235.875 63.0693 236.227 63.304L235.731 64.216C235.358 63.96 234.958 63.7787 234.531 63.672C234.104 63.5547 233.678 63.496 233.251 63.496C232.494 63.496 231.934 63.6293 231.571 63.896C231.219 64.152 231.043 64.4827 231.043 64.888C231.043 65.208 231.139 65.4587 231.331 65.64C231.534 65.8213 231.795 65.9653 232.115 66.072C232.446 66.168 232.803 66.248 233.187 66.312C233.582 66.376 233.971 66.456 234.355 66.552C234.75 66.6373 235.107 66.76 235.427 66.92C235.758 67.0693 236.019 67.288 236.211 67.576C236.414 67.8533 236.515 68.2213 236.515 68.68C236.515 69.1707 236.376 69.5973 236.099 69.96C235.832 70.312 235.438 70.5893 234.915 70.792C234.403 70.984 233.779 71.08 233.043 71.08ZM238.792 71V61.544C238.792 60.7973 239.01 60.1947 239.448 59.736C239.885 59.2773 240.514 59.048 241.336 59.048C241.656 59.048 241.965 59.0907 242.264 59.176C242.562 59.2613 242.813 59.3947 243.016 59.576L242.632 60.424C242.472 60.2853 242.285 60.184 242.072 60.12C241.858 60.0453 241.629 60.008 241.384 60.008C240.904 60.008 240.536 60.1413 240.28 60.408C240.024 60.6747 239.896 61.0693 239.896 61.592V62.872L239.928 63.4V71H238.792ZM237.288 63.544V62.6H242.488V63.544H237.288ZM247.449 71.08C246.574 71.08 245.806 70.8987 245.145 70.536C244.484 70.1627 243.966 69.656 243.593 69.016C243.22 68.3653 243.033 67.624 243.033 66.792C243.033 65.96 243.209 65.224 243.561 64.584C243.924 63.944 244.414 63.4427 245.033 63.08C245.662 62.7067 246.366 62.52 247.145 62.52C247.934 62.52 248.633 62.7013 249.241 63.064C249.86 63.416 250.345 63.9173 250.697 64.568C251.049 65.208 251.225 65.9493 251.225 66.792C251.225 66.8453 251.22 66.904 251.209 66.968C251.209 67.0213 251.209 67.08 251.209 67.144H243.897V66.296H250.601L250.153 66.632C250.153 66.024 250.02 65.4853 249.753 65.016C249.497 64.536 249.145 64.1627 248.697 63.896C248.249 63.6293 247.732 63.496 247.145 63.496C246.569 63.496 246.052 63.6293 245.593 63.896C245.134 64.1627 244.777 64.536 244.521 65.016C244.265 65.496 244.137 66.0453 244.137 66.664V66.84C244.137 67.48 244.276 68.0453 244.553 68.536C244.841 69.016 245.236 69.3947 245.737 69.672C246.249 69.9387 246.83 70.072 247.481 70.072C247.993 70.072 248.468 69.9813 248.905 69.8C249.353 69.6187 249.737 69.3413 250.057 68.968L250.697 69.704C250.324 70.152 249.854 70.4933 249.289 70.728C248.734 70.9627 248.121 71.08 247.449 71.08ZM253.537 71V62.6H254.625V64.888L254.513 64.488C254.748 63.848 255.142 63.3627 255.697 63.032C256.252 62.6907 256.94 62.52 257.761 62.52V63.624C257.718 63.624 257.676 63.624 257.633 63.624C257.59 63.6133 257.548 63.608 257.505 63.608C256.62 63.608 255.926 63.88 255.425 64.424C254.924 64.9573 254.673 65.72 254.673 66.712V71H253.537ZM274.643 62.52C275.325 62.52 275.917 62.6533 276.419 62.92C276.931 63.176 277.325 63.5707 277.603 64.104C277.891 64.6373 278.035 65.3093 278.035 66.12V71H276.899V66.232C276.899 65.3467 276.685 64.68 276.259 64.232C275.843 63.7733 275.251 63.544 274.483 63.544C273.907 63.544 273.405 63.6667 272.979 63.912C272.563 64.1467 272.237 64.4933 272.003 64.952C271.779 65.4 271.667 65.944 271.667 66.584V71H270.531V66.232C270.531 65.3467 270.317 64.68 269.891 64.232C269.464 63.7733 268.867 63.544 268.099 63.544C267.533 63.544 267.037 63.6667 266.611 63.912C266.184 64.1467 265.853 64.4933 265.619 64.952C265.395 65.4 265.283 65.944 265.283 66.584V71H264.147V62.6H265.235V64.872L265.059 64.472C265.315 63.864 265.725 63.3893 266.291 63.048C266.867 62.696 267.544 62.52 268.323 62.52C269.144 62.52 269.843 62.728 270.419 63.144C270.995 63.5493 271.368 64.1627 271.539 64.984L271.091 64.808C271.336 64.1253 271.768 63.576 272.387 63.16C273.016 62.7333 273.768 62.52 274.643 62.52ZM284.539 71.08C283.729 71.08 282.998 70.8987 282.347 70.536C281.707 70.1627 281.201 69.656 280.827 69.016C280.454 68.3653 280.267 67.624 280.267 66.792C280.267 65.9493 280.454 65.208 280.827 64.568C281.201 63.928 281.707 63.4267 282.347 63.064C282.987 62.7013 283.718 62.52 284.539 62.52C285.371 62.52 286.107 62.7013 286.747 63.064C287.398 63.4267 287.905 63.928 288.267 64.568C288.641 65.208 288.827 65.9493 288.827 66.792C288.827 67.624 288.641 68.3653 288.267 69.016C287.905 69.656 287.398 70.1627 286.747 70.536C286.097 70.8987 285.361 71.08 284.539 71.08ZM284.539 70.072C285.147 70.072 285.686 69.9387 286.155 69.672C286.625 69.3947 286.993 69.0107 287.259 68.52C287.537 68.0187 287.675 67.4427 287.675 66.792C287.675 66.1307 287.537 65.5547 287.259 65.064C286.993 64.5733 286.625 64.1947 286.155 63.928C285.686 63.6507 285.153 63.512 284.555 63.512C283.958 63.512 283.425 63.6507 282.955 63.928C282.486 64.1947 282.113 64.5733 281.835 65.064C281.558 65.5547 281.419 66.1307 281.419 66.792C281.419 67.4427 281.558 68.0187 281.835 68.52C282.113 69.0107 282.486 69.3947 282.955 69.672C283.425 69.9387 283.953 70.072 284.539 70.072ZM295.435 62.52C296.117 62.52 296.715 62.6533 297.227 62.92C297.749 63.176 298.155 63.5707 298.443 64.104C298.741 64.6373 298.891 65.3093 298.891 66.12V71H297.755V66.232C297.755 65.3467 297.531 64.68 297.083 64.232C296.645 63.7733 296.027 63.544 295.227 63.544C294.629 63.544 294.107 63.6667 293.659 63.912C293.221 64.1467 292.88 64.4933 292.635 64.952C292.4 65.4 292.283 65.944 292.283 66.584V71H291.147V62.6H292.235V64.904L292.059 64.472C292.325 63.864 292.752 63.3893 293.339 63.048C293.925 62.696 294.624 62.52 295.435 62.52ZM305.527 71.08C304.652 71.08 303.884 70.8987 303.223 70.536C302.562 70.1627 302.044 69.656 301.671 69.016C301.298 68.3653 301.111 67.624 301.111 66.792C301.111 65.96 301.287 65.224 301.639 64.584C302.002 63.944 302.492 63.4427 303.111 63.08C303.74 62.7067 304.444 62.52 305.223 62.52C306.012 62.52 306.711 62.7013 307.319 63.064C307.938 63.416 308.423 63.9173 308.775 64.568C309.127 65.208 309.303 65.9493 309.303 66.792C309.303 66.8453 309.298 66.904 309.287 66.968C309.287 67.0213 309.287 67.08 309.287 67.144H301.975V66.296H308.679L308.231 66.632C308.231 66.024 308.098 65.4853 307.831 65.016C307.575 64.536 307.223 64.1627 306.775 63.896C306.327 63.6293 305.81 63.496 305.223 63.496C304.647 63.496 304.13 63.6293 303.671 63.896C303.212 64.1627 302.855 64.536 302.599 65.016C302.343 65.496 302.215 66.0453 302.215 66.664V66.84C302.215 67.48 302.354 68.0453 302.631 68.536C302.919 69.016 303.314 69.3947 303.815 69.672C304.327 69.9387 304.908 70.072 305.559 70.072C306.071 70.072 306.546 69.9813 306.983 69.8C307.431 69.6187 307.815 69.3413 308.135 68.968L308.775 69.704C308.402 70.152 307.932 70.4933 307.367 70.728C306.812 70.9627 306.199 71.08 305.527 71.08ZM311.523 74.184C311.128 74.184 310.75 74.12 310.387 73.992C310.035 73.864 309.731 73.672 309.475 73.416L310.003 72.568C310.216 72.7707 310.446 72.9253 310.691 73.032C310.947 73.1493 311.23 73.208 311.539 73.208C311.912 73.208 312.232 73.1013 312.499 72.888C312.776 72.6853 313.038 72.3227 313.283 71.8L313.827 70.568L313.955 70.392L317.411 62.6H318.531L314.323 72.008C314.088 72.552 313.827 72.984 313.539 73.304C313.262 73.624 312.958 73.848 312.627 73.976C312.296 74.1147 311.928 74.184 311.523 74.184ZM313.763 71.24L309.891 62.6H311.075L314.499 70.312L313.763 71.24ZM319.724 63.032L320.428 60.088L320.556 60.76C320.311 60.76 320.103 60.6853 319.932 60.536C319.772 60.376 319.692 60.168 319.692 59.912C319.692 59.656 319.772 59.448 319.932 59.288C320.103 59.128 320.305 59.048 320.54 59.048C320.785 59.048 320.983 59.1333 321.132 59.304C321.292 59.464 321.372 59.6667 321.372 59.912C321.372 59.9973 321.367 60.0827 321.356 60.168C321.345 60.2533 321.324 60.3493 321.292 60.456C321.271 60.552 321.233 60.6747 321.18 60.824L320.492 63.032H319.724ZM322.444 63.032L323.148 60.088L323.276 60.76C323.031 60.76 322.823 60.6853 322.652 60.536C322.492 60.376 322.412 60.168 322.412 59.912C322.412 59.656 322.492 59.448 322.652 59.288C322.823 59.128 323.025 59.048 323.26 59.048C323.505 59.048 323.703 59.1333 323.852 59.304C324.012 59.464 324.092 59.6667 324.092 59.912C324.092 59.9973 324.087 60.0827 324.076 60.168C324.065 60.2533 324.044 60.3493 324.012 60.456C323.991 60.552 323.953 60.6747 323.9 60.824L323.212 63.032H322.444Z" fill="#2E2E2E"/>
<g clip-path="url(#clip0_134_8083)">
<g opacity="0.2">
<path fill-rule="evenodd" clip-rule="evenodd" d="M54.3253 34.6501C54.5023 34.6498 54.6746 34.7064 54.8169 34.8116C54.9592 34.9168 55.064 35.0649 55.1156 35.2342L58.2968 45.6836L67.8091 49.1602C67.9659 49.2176 68.1017 49.3214 68.1983 49.4576C68.2949 49.5939 68.3479 49.7563 68.3502 49.9233C68.3525 50.0904 68.3041 50.2542 68.2113 50.3931C68.1185 50.532 67.9857 50.6394 67.8305 50.7013L58.381 54.455L55.1156 65.411C55.0647 65.5811 54.9603 65.7302 54.818 65.8362C54.6756 65.9422 54.5028 65.9994 54.3253 65.9994C54.1478 65.9994 53.975 65.9422 53.8326 65.8362C53.6902 65.7302 53.5858 65.5811 53.5349 65.411L50.2696 54.455L40.82 50.7013C40.6648 50.6394 40.5321 50.532 40.4393 50.3931C40.3465 50.2542 40.298 50.0904 40.3004 49.9233C40.3027 49.7563 40.3557 49.5939 40.4523 49.4576C40.5489 49.3214 40.6846 49.2176 40.8415 49.1602L50.3537 45.6836L53.5366 35.2342C53.5882 35.0652 53.6927 34.9172 53.8346 34.8121C53.9766 34.7069 54.1486 34.6501 54.3253 34.6501Z" fill="#FFD53E"/>
<path d="M65.5944 65.9176C65.4129 65.9176 65.2644 65.7856 65.2479 65.6206C64.9179 62.3206 64.6704 61.2646 61.5684 60.9841C61.4821 60.9766 61.4017 60.9367 61.3436 60.8724C61.2854 60.8082 61.2538 60.7243 61.2549 60.6376C61.2549 60.4561 61.3869 60.3076 61.5684 60.2911C64.7034 59.9941 64.9179 59.1361 65.2479 55.9186C65.2644 55.7371 65.4129 55.6051 65.5944 55.6051C65.7759 55.6051 65.9244 55.7371 65.9409 55.9021C66.2709 59.1361 66.4854 59.9941 69.6204 60.2746C69.8019 60.2911 69.9339 60.4396 69.9339 60.6211C69.9339 60.8026 69.8019 60.9511 69.6204 60.9676C66.5349 61.2646 66.2709 62.3206 65.9574 65.6041C65.9409 65.7856 65.7924 65.9176 65.6109 65.9176H65.5944Z" fill="#FFD53E"/>
</g>
<path fill-rule="evenodd" clip-rule="evenodd" d="M51.8502 33.825C52.0272 33.8247 52.1995 33.8814 52.3418 33.9865C52.4841 34.0917 52.5889 34.2399 52.6405 34.4091L55.8217 44.8586L65.334 48.3351C65.4909 48.3926 65.6266 48.4963 65.7232 48.6326C65.8198 48.7689 65.8728 48.9312 65.8751 49.0983C65.8774 49.2653 65.829 49.4291 65.7362 49.568C65.6434 49.7069 65.5106 49.8144 65.3554 49.8762L55.9059 53.63L52.6405 64.586C52.5896 64.756 52.4852 64.9051 52.3429 65.0111C52.2005 65.1171 52.0277 65.1744 51.8502 65.1744C51.6727 65.1744 51.4999 65.1171 51.3575 65.0111C51.2151 64.9051 51.1107 64.756 51.0598 64.586L47.7945 53.63L38.3449 49.8762C38.1897 49.8144 38.057 49.7069 37.9642 49.568C37.8714 49.4291 37.823 49.2653 37.8253 49.0983C37.8276 48.9312 37.8806 48.7689 37.9772 48.6326C38.0738 48.4963 38.2095 48.3926 38.3664 48.3351L47.8786 44.8586L51.0615 34.4091C51.1131 34.2401 51.2176 34.0922 51.3595 33.987C51.5015 33.8819 51.6735 33.8251 51.8502 33.825ZM51.8502 37.4814L49.3372 45.7314C49.3 45.8537 49.2348 45.9656 49.1469 46.0584C49.059 46.1511 48.9508 46.2222 48.8307 46.266L40.9651 49.1436L48.7762 52.2456C48.892 52.2918 48.9957 52.3636 49.0798 52.4556C49.1638 52.5476 49.2259 52.6575 49.2613 52.7769L51.8518 61.4625L54.439 52.7769C54.4745 52.6575 54.5366 52.5476 54.6206 52.4556C54.7046 52.3636 54.8084 52.2918 54.9241 52.2456L62.7352 49.1436L54.8697 46.2693C54.7496 46.2255 54.6414 46.1544 54.5535 46.0617C54.4655 45.9689 54.4004 45.857 54.3631 45.7347L51.8502 37.4814Z" fill="#FFD53E"/>
<path d="M64.638 64.548C64.473 64.548 64.3245 64.416 64.308 64.251C64.011 61.248 63.78 60.291 61.0245 60.027C60.8595 60.0105 60.7275 59.862 60.7275 59.697C60.7275 59.532 60.8595 59.3835 61.0245 59.367C63.846 59.103 64.011 58.377 64.308 55.374C64.308 55.209 64.473 55.077 64.638 55.077C64.803 55.077 64.9515 55.209 64.968 55.374C65.265 58.377 65.4465 59.103 68.2515 59.367C68.4165 59.3835 68.5485 59.532 68.5485 59.697C68.5485 59.862 68.4165 60.0105 68.2515 60.027C65.4795 60.291 65.265 61.248 64.968 64.2675C64.968 64.4325 64.8195 64.5645 64.638 64.5645V64.548Z" fill="#FFD53E"/>
</g>
</g>
<defs>
<filter id="filter0_d_134_8083" x="0" y="0" width="513" height="123" filterUnits="userSpaceOnUse" color-interpolation-filters="sRGB">
<feFlood flood-opacity="0" result="BackgroundImageFix"/>
<feColorMatrix in="SourceAlpha" type="matrix" values="0 0 0 0 0 0 0 0 0 0 0 0 0 0 0 0 0 0 127 0" result="hardAlpha"/>
<feOffset dx="4" dy="8"/>
<feGaussianBlur stdDeviation="6"/>
<feComposite in2="hardAlpha" operator="out"/>
<feColorMatrix type="matrix" values="0 0 0 0 0.160784 0 0 0 0 0.188235 0 0 0 0 0.301961 0 0 0 0.2 0"/>
<feBlend mode="normal" in2="BackgroundImageFix" result="effect1_dropShadow_134_8083"/>
<feBlend mode="normal" in="SourceGraphic" in2="effect1_dropShadow_134_8083" result="shape"/>
</filter>
<clipPath id="clip0_134_8083">
<rect width="33" height="33" fill="white" transform="translate(37 33)"/>
</clipPath>
</defs>
</svg>
