<svg width="414" height="868" viewBox="0 0 414 868" fill="none" xmlns="http://www.w3.org/2000/svg">
<g filter="url(#filter0_d_46_2383)">
<g clip-path="url(#clip0_46_2383)">
<rect x="8" y="4" width="390" height="844" rx="30" fill="url(#paint0_radial_46_2383)"/>
<rect x="8" y="4" width="390" height="844" rx="30" fill="url(#paint1_radial_46_2383)"/>
<rect x="62" y="728" width="283" height="69" rx="30" fill="white" fill-opacity="0.15"/>
<g filter="url(#filter1_bd_46_2383)">
<rect x="49" y="288" width="309" height="489" rx="30" fill="white" fill-opacity="0.3" shape-rendering="crispEdges"/>
</g>
<g clip-path="url(#clip1_46_2383)">
<g opacity="0.2">
<path fill-rule="evenodd" clip-rule="evenodd" d="M194.69 41.1528C195.402 41.1517 196.095 41.3795 196.667 41.8026C197.24 42.2256 197.661 42.8216 197.869 43.5024L210.665 85.5352L248.928 99.5196C249.559 99.7508 250.105 100.168 250.494 100.716C250.883 101.264 251.096 101.918 251.105 102.589C251.114 103.261 250.92 103.92 250.546 104.479C250.173 105.038 249.639 105.47 249.015 105.719L211.004 120.818L197.869 164.889C197.664 165.573 197.244 166.172 196.672 166.599C196.099 167.025 195.404 167.255 194.69 167.255C193.976 167.255 193.281 167.025 192.708 166.599C192.135 166.172 191.715 165.573 191.511 164.889L178.376 120.818L140.365 105.719C139.741 105.47 139.207 105.038 138.833 104.479C138.46 103.92 138.265 103.261 138.275 102.589C138.284 101.918 138.497 101.264 138.886 100.716C139.275 100.168 139.82 99.7508 140.451 99.5196L178.714 85.5352L191.517 43.5024C191.725 42.8227 192.145 42.2275 192.716 41.8045C193.287 41.3816 193.979 41.1531 194.69 41.1528Z" fill="#FFD53E" fill-opacity="0.15"/>
<path d="M240.022 166.926C239.292 166.926 238.694 166.395 238.628 165.732C237.3 152.457 236.305 148.21 223.827 147.081C223.48 147.051 223.157 146.891 222.923 146.632C222.689 146.374 222.561 146.036 222.566 145.688C222.566 144.957 223.097 144.36 223.827 144.294C236.438 143.099 237.3 139.648 238.628 126.705C238.694 125.975 239.292 125.444 240.022 125.444C240.752 125.444 241.349 125.975 241.415 126.639C242.743 139.648 243.606 143.099 256.216 144.227C256.946 144.294 257.477 144.891 257.477 145.621C257.477 146.351 256.946 146.949 256.216 147.015C243.805 148.21 242.743 152.457 241.482 165.665C241.415 166.395 240.818 166.926 240.088 166.926H240.022Z" fill="#FFD53E" fill-opacity="0.15"/>
</g>
<path fill-rule="evenodd" clip-rule="evenodd" d="M184.734 37.8345C185.446 37.8334 186.139 38.0611 186.712 38.4842C187.284 38.9073 187.706 39.5032 187.913 40.184L200.71 82.2169L238.973 96.2013C239.604 96.4324 240.15 96.8497 240.538 97.3978C240.927 97.946 241.14 98.5992 241.149 99.2711C241.159 99.943 240.964 100.602 240.591 101.161C240.217 101.719 239.683 102.152 239.059 102.4L201.048 117.5L187.913 161.57C187.709 162.254 187.289 162.854 186.716 163.28C186.143 163.707 185.448 163.937 184.734 163.937C184.02 163.937 183.325 163.707 182.753 163.28C182.18 162.854 181.76 162.254 181.555 161.57L168.42 117.5L130.41 102.4C129.785 102.152 129.251 101.719 128.878 101.161C128.505 100.602 128.31 99.943 128.319 99.2711C128.329 98.5992 128.542 97.946 128.93 97.3978C129.319 96.8497 129.865 96.4324 130.496 96.2013L168.759 82.2169L181.562 40.184C181.769 39.5043 182.19 38.9092 182.761 38.4862C183.332 38.0632 184.024 37.8348 184.734 37.8345ZM184.734 52.5423L174.626 85.7279C174.476 86.2197 174.214 86.6699 173.86 87.0431C173.507 87.4163 173.071 87.7022 172.588 87.8783L140.949 99.4534L172.369 111.931C172.835 112.117 173.252 112.406 173.59 112.776C173.928 113.146 174.178 113.588 174.321 114.068L184.741 149.006L195.148 114.068C195.291 113.588 195.54 113.146 195.878 112.776C196.216 112.406 196.634 112.117 197.099 111.931L228.519 99.4534L196.88 87.8916C196.397 87.7155 195.962 87.4295 195.608 87.0564C195.255 86.6832 194.992 86.2329 194.843 85.7412L184.734 52.5423Z" fill="#FFD53E" fill-opacity="0.15"/>
<path d="M236.172 161.417C235.508 161.417 234.911 160.886 234.844 160.223C233.65 148.143 232.721 144.294 221.637 143.232C220.973 143.165 220.442 142.568 220.442 141.904C220.442 141.241 220.973 140.643 221.637 140.577C232.986 139.515 233.65 136.595 234.844 124.515C234.844 123.851 235.508 123.32 236.172 123.32C236.836 123.32 237.433 123.851 237.499 124.515C238.694 136.595 239.424 139.515 250.707 140.577C251.371 140.643 251.902 141.241 251.902 141.904C251.902 142.568 251.371 143.165 250.707 143.232C239.557 144.294 238.694 148.143 237.499 160.289C237.499 160.953 236.902 161.484 236.172 161.484V161.417Z" fill="#FFD53E" fill-opacity="0.15"/>
</g>
<g opacity="0.2">
<path fill-rule="evenodd" clip-rule="evenodd" d="M295.391 173.896C296.102 173.894 296.796 174.122 297.368 174.545C297.941 174.968 298.362 175.564 298.57 176.245L311.366 218.278L349.629 232.262C350.26 232.493 350.806 232.911 351.195 233.459C351.583 234.007 351.796 234.66 351.806 235.332C351.815 236.004 351.62 236.663 351.247 237.222C350.874 237.78 350.34 238.213 349.715 238.461L311.705 253.561L298.57 297.631C298.365 298.315 297.945 298.915 297.372 299.341C296.8 299.768 296.105 299.998 295.391 299.998C294.677 299.998 293.982 299.768 293.409 299.341C292.836 298.915 292.416 298.315 292.211 297.631L279.077 253.561L241.066 238.461C240.442 238.213 239.907 237.78 239.534 237.222C239.161 236.663 238.966 236.004 238.975 235.332C238.985 234.66 239.198 234.007 239.587 233.459C239.975 232.911 240.521 232.493 241.152 232.262L279.415 218.278L292.218 176.245C292.426 175.565 292.846 174.97 293.417 174.547C293.988 174.124 294.68 173.896 295.391 173.896Z" fill="#664A75" fill-opacity="0.2"/>
</g>
<path fill-rule="evenodd" clip-rule="evenodd" d="M285.435 170.577C286.147 170.576 286.84 170.803 287.413 171.226C287.985 171.649 288.406 172.245 288.614 172.926L301.411 214.959L339.673 228.943C340.304 229.175 340.85 229.592 341.239 230.14C341.628 230.688 341.841 231.341 341.85 232.013C341.859 232.685 341.665 233.344 341.291 233.903C340.918 234.462 340.384 234.894 339.76 235.143L301.749 250.242L288.614 294.312C288.409 294.996 287.989 295.596 287.417 296.023C286.844 296.449 286.149 296.679 285.435 296.679C284.721 296.679 284.026 296.449 283.453 296.023C282.881 295.596 282.461 294.996 282.256 294.312L269.121 250.242L231.11 235.143C230.486 234.894 229.952 234.462 229.579 233.903C229.205 233.344 229.011 232.685 229.02 232.013C229.029 231.341 229.242 230.688 229.631 230.14C230.02 229.592 230.566 229.175 231.196 228.943L269.459 214.959L282.262 172.926C282.47 172.246 282.89 171.651 283.461 171.228C284.032 170.805 284.724 170.577 285.435 170.577ZM285.435 185.285L275.327 218.47C275.177 218.962 274.915 219.412 274.561 219.785C274.208 220.158 273.772 220.444 273.289 220.62L241.65 232.196L273.07 244.673C273.536 244.859 273.953 245.148 274.291 245.518C274.629 245.888 274.879 246.33 275.021 246.811L285.442 281.748L295.849 246.811C295.991 246.33 296.241 245.888 296.579 245.518C296.917 245.148 297.334 244.859 297.8 244.673L329.22 232.196L297.581 220.634C297.098 220.458 296.662 220.172 296.309 219.799C295.955 219.425 295.693 218.975 295.543 218.483L285.435 185.285Z" fill="#664A75" fill-opacity="0.2"/>
<path d="M336.873 294.16C336.209 294.16 335.611 293.629 335.545 292.965C334.35 280.885 333.421 277.036 322.337 275.974C321.674 275.907 321.143 275.31 321.143 274.646C321.143 273.983 321.674 273.385 322.337 273.319C333.687 272.257 334.35 269.337 335.545 257.257C335.545 256.593 336.209 256.062 336.873 256.062C337.536 256.062 338.134 256.593 338.2 257.257C339.395 269.337 340.125 272.257 351.408 273.319C352.072 273.385 352.603 273.983 352.603 274.646C352.603 275.31 352.072 275.907 351.408 275.974C340.257 277.036 339.395 280.885 338.2 293.031C338.2 293.695 337.603 294.226 336.873 294.226V294.16Z" fill="#664A75" fill-opacity="0.2"/>
<path fill-rule="evenodd" clip-rule="evenodd" d="M321.749 7.4712C322.493 7.47002 323.218 7.70828 323.817 8.1508C324.416 8.59332 324.856 9.21665 325.074 9.92876L338.459 53.8941L378.481 68.5215C379.141 68.7633 379.712 69.1997 380.118 69.7731C380.525 70.3464 380.748 71.0297 380.757 71.7325C380.767 72.4353 380.563 73.1245 380.173 73.7089C379.783 74.2934 379.224 74.7455 378.571 75.0056L338.813 90.7993L325.074 136.896C324.86 137.611 324.42 138.239 323.821 138.685C323.222 139.131 322.495 139.372 321.749 139.372C321.002 139.372 320.275 139.131 319.676 138.685C319.077 138.239 318.637 137.611 318.423 136.896L304.684 90.7993L264.926 75.0056C264.273 74.7455 263.714 74.2934 263.324 73.7089C262.934 73.1245 262.73 72.4353 262.74 71.7325C262.749 71.0297 262.972 70.3464 263.379 69.7731C263.785 69.1997 264.356 68.7633 265.016 68.5215L305.038 53.8941L318.43 9.92876C318.647 9.21779 319.087 8.59528 319.684 8.15287C320.282 7.71045 321.005 7.47151 321.749 7.4712ZM321.749 22.8553L311.175 57.5666C311.019 58.081 310.745 58.5519 310.375 58.9423C310.005 59.3326 309.549 59.6317 309.044 59.8159L275.95 71.9232L308.815 84.9747C309.302 85.169 309.739 85.471 310.092 85.8582C310.446 86.2453 310.707 86.7076 310.856 87.2101L321.755 123.754L332.641 87.2101C332.79 86.7076 333.051 86.2453 333.405 85.8582C333.758 85.471 334.195 85.169 334.682 84.9747L367.547 71.9232L334.453 59.8298C333.948 59.6456 333.492 59.3465 333.122 58.9562C332.752 58.5658 332.478 58.0949 332.322 57.5805L321.749 22.8553Z" fill="#664A75" fill-opacity="0.2"/>
<path d="M375.551 136.736C374.857 136.736 374.232 136.181 374.163 135.487C372.913 122.852 371.941 118.825 360.348 117.714C359.654 117.645 359.098 117.02 359.098 116.326C359.098 115.632 359.654 115.007 360.348 114.938C372.219 113.827 372.913 110.772 374.163 98.1373C374.163 97.4431 374.857 96.8877 375.551 96.8877C376.246 96.8877 376.87 97.4431 376.94 98.1373C378.189 110.772 378.953 113.827 390.755 114.938C391.449 115.007 392.005 115.632 392.005 116.326C392.005 117.02 391.449 117.645 390.755 117.714C379.092 118.825 378.189 122.852 376.94 135.556C376.94 136.25 376.315 136.806 375.551 136.806V136.736Z" fill="#664A75" fill-opacity="0.2"/>
<path fill-rule="evenodd" clip-rule="evenodd" d="M327 24H328C328.552 24 329 24.4477 329 25V31C329 31.5523 328.552 32 328 32H327C326.448 32 326 31.5523 326 31V25C326 24.4477 326.448 24 327 24Z" fill="#D1D1D6"/>
<path fill-rule="evenodd" clip-rule="evenodd" d="M322.5 26H323.5C324.052 26 324.5 26.4477 324.5 27V31C324.5 31.5523 324.052 32 323.5 32H322.5C321.948 32 321.5 31.5523 321.5 31V27C321.5 26.4477 321.948 26 322.5 26Z" fill="#D1D1D6"/>
<path fill-rule="evenodd" clip-rule="evenodd" d="M318 27.5H319C319.552 27.5 320 27.9477 320 28.5V31C320 31.5523 319.552 32 319 32H318C317.448 32 317 31.5523 317 31V28.5C317 27.9477 317.448 27.5 318 27.5Z" fill="#D1D1D6"/>
<path fill-rule="evenodd" clip-rule="evenodd" d="M331.5 22H332.5C333.052 22 333.5 22.4477 333.5 23V31C333.5 31.5523 333.052 32 332.5 32H331.5C330.948 32 330.5 31.5523 330.5 31V23C330.5 22.4477 330.948 22 331.5 22Z" fill="#EBEBF5" fill-opacity="0.3"/>
<path fill-rule="evenodd" clip-rule="evenodd" d="M327 24H328C328.552 24 329 24.4477 329 25V31C329 31.5523 328.552 32 328 32H327C326.448 32 326 31.5523 326 31V25C326 24.4477 326.448 24 327 24Z" fill="white"/>
<path fill-rule="evenodd" clip-rule="evenodd" d="M322.5 26H323.5C324.052 26 324.5 26.4477 324.5 27V31C324.5 31.5523 324.052 32 323.5 32H322.5C321.948 32 321.5 31.5523 321.5 31V27C321.5 26.4477 321.948 26 322.5 26Z" fill="white"/>
<path fill-rule="evenodd" clip-rule="evenodd" d="M318 27.5H319C319.552 27.5 320 27.9477 320 28.5V31C320 31.5523 319.552 32 319 32H318C317.448 32 317 31.5523 317 31V28.5C317 27.9477 317.448 27.5 318 27.5Z" fill="white"/>
<path d="M347.133 28.9395C347.772 28.9395 348.394 29.1075 348.941 29.4279L349.163 29.5577C349.331 29.6562 349.361 29.8865 349.223 30.024L347.329 31.9129C347.213 32.0289 347.024 32.0289 346.908 31.9129L345.026 30.0362C344.888 29.8993 344.917 29.6701 345.084 29.5709L345.303 29.4405C345.856 29.112 346.485 28.9395 347.133 28.9395Z" fill="white"/>
<path d="M347.133 25.4697C348.724 25.4697 350.251 25.9975 351.495 26.9748L351.671 27.1129C351.811 27.223 351.824 27.4305 351.697 27.5564L350.567 28.684C350.462 28.7883 350.297 28.8003 350.178 28.7121L350.04 28.6097C349.2 27.9851 348.186 27.6501 347.133 27.6501C346.073 27.6501 345.053 27.9893 344.21 28.621L344.072 28.7244C343.953 28.8133 343.787 28.8016 343.682 28.697L342.552 27.5697C342.426 27.4442 342.438 27.2372 342.578 27.1269L342.753 26.9886C344 26.0026 345.534 25.4697 347.133 25.4697Z" fill="white"/>
<path d="M347.133 22C349.657 22 352.072 22.8906 353.983 24.5229L354.146 24.6623C354.278 24.7749 354.285 24.9756 354.163 25.098L353.036 26.2219C352.926 26.3308 352.752 26.3385 352.634 26.2395L352.494 26.1228C350.989 24.8647 349.104 24.1804 347.133 24.1804C345.155 24.1804 343.263 24.8694 341.756 26.1354L341.617 26.2527C341.498 26.3521 341.324 26.3447 341.214 26.2356L340.087 25.1118C339.965 24.9895 339.972 24.7892 340.104 24.6765L340.266 24.5371C342.18 22.8959 344.601 22 347.133 22Z" fill="white"/>
<path d="M383 25C383.552 25 384 25.4477 384 26V28C384 28.5523 383.552 29 383 29V25Z" fill="#EBEBF5" fill-opacity="0.3"/>
<path fill-rule="evenodd" clip-rule="evenodd" d="M362 21H379C380.657 21 382 22.3431 382 24V30C382 31.6569 380.657 33 379 33H362C360.343 33 359 31.6569 359 30V24C359 22.3431 360.343 21 362 21ZM362 22C360.895 22 360 22.8954 360 24V30C360 31.1046 360.895 32 362 32H379C380.105 32 381 31.1046 381 30V24C381 22.8954 380.105 22 379 22H362Z" fill="#EBEBF5" fill-opacity="0.3"/>
<rect x="361" y="23" width="19" height="8" rx="1" fill="white"/>
<path d="M45.8672 32.0889C48.5552 32.0889 50.1519 29.9868 50.1519 26.4272C50.1519 25.0869 49.8955 23.959 49.4048 23.0874C48.6943 21.7324 47.4712 21 45.9258 21C43.626 21 42 22.5454 42 24.7134C42 26.7495 43.4648 28.229 45.479 28.229C46.7168 28.229 47.7202 27.6504 48.2183 26.647H48.2402C48.2402 26.647 48.2695 26.647 48.2769 26.647C48.2915 26.647 48.3428 26.647 48.3428 26.647C48.3428 29.064 47.4272 30.5068 45.8818 30.5068C44.9736 30.5068 44.2705 30.0088 44.0288 29.2104H42.1465C42.4614 30.9463 43.9336 32.0889 45.8672 32.0889ZM45.9331 26.7275C44.7173 26.7275 43.853 25.8633 43.853 24.6548C43.853 23.4756 44.7612 22.5747 45.9404 22.5747C47.1196 22.5747 48.0278 23.4902 48.0278 24.6841C48.0278 25.8633 47.1416 26.7275 45.9331 26.7275Z" fill="white"/>
<path d="M53.243 31.9863C53.9388 31.9863 54.4148 31.4883 54.4148 30.8291C54.4148 30.1626 53.9388 29.6719 53.243 29.6719C52.5545 29.6719 52.0711 30.1626 52.0711 30.8291C52.0711 31.4883 52.5545 31.9863 53.243 31.9863ZM53.243 26.4932C53.9388 26.4932 54.4148 26.0024 54.4148 25.3433C54.4148 24.6768 53.9388 24.186 53.243 24.186C52.5545 24.186 52.0711 24.6768 52.0711 25.3433C52.0711 26.0024 52.5545 26.4932 53.243 26.4932Z" fill="white"/>
<path d="M61.2706 31.8325H63.0797V29.8623H64.5079V28.2656H63.0797V21.2637H60.4137C58.546 24.0762 57.0592 26.4272 56.107 28.1777V29.8623H61.2706V31.8325ZM57.8575 28.1997C59.088 26.0317 60.1866 24.2959 61.1974 22.8018H61.2999V28.3096H57.8575V28.1997Z" fill="white"/>
<path d="M68.5365 31.8325H70.4262V21.2637H68.5438L65.7826 23.1973V25.0137L68.412 23.168H68.5365V31.8325Z" fill="white"/>
<path d="M38.736 104.128C37.8827 104.128 37.088 103.984 36.352 103.696C35.6267 103.408 34.9973 103.008 34.464 102.496C33.9307 101.973 33.5147 101.365 33.216 100.672C32.9173 99.9787 32.768 99.2213 32.768 98.4C32.768 97.5787 32.9173 96.8213 33.216 96.128C33.5147 95.4347 33.9307 94.832 34.464 94.32C34.9973 93.7973 35.6267 93.392 36.352 93.104C37.0773 92.816 37.872 92.672 38.736 92.672C39.5893 92.672 40.3733 92.816 41.088 93.104C41.8133 93.3813 42.4427 93.7813 42.976 94.304C43.52 94.816 43.936 95.4187 44.224 96.112C44.5227 96.8053 44.672 97.568 44.672 98.4C44.672 99.232 44.5227 99.9947 44.224 100.688C43.936 101.381 43.52 101.989 42.976 102.512C42.4427 103.024 41.8133 103.424 41.088 103.712C40.3733 103.989 39.5893 104.128 38.736 104.128ZM42.4 106.336C42.0267 106.336 41.6693 106.288 41.328 106.192C40.9867 106.107 40.6453 105.963 40.304 105.76C39.9627 105.568 39.6107 105.312 39.248 104.992C38.8853 104.683 38.4907 104.299 38.064 103.84L39.776 103.392C40.096 103.787 40.4 104.107 40.688 104.352C40.9867 104.608 41.28 104.789 41.568 104.896C41.856 105.013 42.1387 105.072 42.416 105.072C43.216 105.072 43.8987 104.752 44.464 104.112L45.216 105.024C44.4907 105.899 43.552 106.336 42.4 106.336ZM38.736 102.704C39.3547 102.704 39.9253 102.597 40.448 102.384C40.9813 102.171 41.44 101.867 41.824 101.472C42.2187 101.077 42.5227 100.619 42.736 100.096C42.96 99.5733 43.072 99.008 43.072 98.4C43.072 97.7813 42.96 97.2107 42.736 96.688C42.5227 96.1653 42.2187 95.712 41.824 95.328C41.44 94.9333 40.9813 94.6293 40.448 94.416C39.9253 94.2027 39.3547 94.096 38.736 94.096C38.1067 94.096 37.5253 94.2027 36.992 94.416C36.4693 94.6293 36.0107 94.9333 35.616 95.328C35.2213 95.712 34.912 96.1653 34.688 96.688C34.4747 97.2107 34.368 97.7813 34.368 98.4C34.368 99.008 34.4747 99.5733 34.688 100.096C34.912 100.619 35.2213 101.077 35.616 101.472C36.0107 101.867 36.4693 102.171 36.992 102.384C37.5253 102.597 38.1067 102.704 38.736 102.704ZM50.4615 104.096C49.7362 104.096 49.0962 103.963 48.5415 103.696C47.9975 103.429 47.5708 103.024 47.2615 102.48C46.9628 101.925 46.8135 101.232 46.8135 100.4V95.52H48.3495V100.224C48.3495 101.056 48.5468 101.68 48.9415 102.096C49.3468 102.512 49.9122 102.72 50.6375 102.72C51.1708 102.72 51.6348 102.613 52.0295 102.4C52.4242 102.176 52.7282 101.856 52.9415 101.44C53.1548 101.013 53.2615 100.501 53.2615 99.904V95.52H54.7975V104H53.3415V101.712L53.5815 102.32C53.3042 102.885 52.8882 103.323 52.3335 103.632C51.7788 103.941 51.1548 104.096 50.4615 104.096ZM61.4976 104.096C60.591 104.096 59.791 103.909 59.0976 103.536C58.415 103.163 57.8816 102.651 57.4976 102C57.1243 101.349 56.9376 100.603 56.9376 99.76C56.9376 98.9173 57.119 98.1707 57.4816 97.52C57.855 96.8693 58.3616 96.3627 59.0016 96C59.6523 95.6267 60.383 95.44 61.1936 95.44C62.015 95.44 62.7403 95.6213 63.3696 95.984C63.999 96.3467 64.4896 96.8587 64.8416 97.52C65.2043 98.1707 65.3856 98.9333 65.3856 99.808C65.3856 99.872 65.3803 99.9467 65.3696 100.032C65.3696 100.117 65.3643 100.197 65.3536 100.272H58.1376V99.168H64.5536L63.9296 99.552C63.9403 99.008 63.8283 98.5227 63.5936 98.096C63.359 97.6693 63.0336 97.3387 62.6176 97.104C62.2123 96.8587 61.7376 96.736 61.1936 96.736C60.6603 96.736 60.1856 96.8587 59.7696 97.104C59.3536 97.3387 59.0283 97.6747 58.7936 98.112C58.559 98.5387 58.4416 99.0293 58.4416 99.584V99.84C58.4416 100.405 58.5696 100.912 58.8256 101.36C59.0923 101.797 59.4603 102.139 59.9296 102.384C60.399 102.629 60.9376 102.752 61.5456 102.752C62.047 102.752 62.5003 102.667 62.9056 102.496C63.3216 102.325 63.6843 102.069 63.9936 101.728L64.8416 102.72C64.4576 103.168 63.9776 103.509 63.4016 103.744C62.8363 103.979 62.2016 104.096 61.4976 104.096ZM69.9505 104.096C69.2465 104.096 68.5745 104 67.9345 103.808C67.3052 103.616 66.8092 103.381 66.4465 103.104L67.0865 101.888C67.4492 102.133 67.8972 102.341 68.4305 102.512C68.9638 102.683 69.5078 102.768 70.0625 102.768C70.7772 102.768 71.2892 102.667 71.5985 102.464C71.9185 102.261 72.0785 101.979 72.0785 101.616C72.0785 101.349 71.9825 101.141 71.7905 100.992C71.5985 100.843 71.3425 100.731 71.0225 100.656C70.7132 100.581 70.3665 100.517 69.9825 100.464C69.5985 100.4 69.2145 100.325 68.8305 100.24C68.4465 100.144 68.0945 100.016 67.7745 99.856C67.4545 99.6853 67.1985 99.456 67.0065 99.168C66.8145 98.8693 66.7185 98.4747 66.7185 97.984C66.7185 97.472 66.8625 97.024 67.1505 96.64C67.4385 96.256 67.8438 95.9627 68.3665 95.76C68.8998 95.5467 69.5292 95.44 70.2545 95.44C70.8092 95.44 71.3692 95.5093 71.9345 95.648C72.5105 95.776 72.9798 95.9627 73.3425 96.208L72.6865 97.424C72.3025 97.168 71.9025 96.992 71.4865 96.896C71.0705 96.8 70.6545 96.752 70.2385 96.752C69.5665 96.752 69.0652 96.864 68.7345 97.088C68.4038 97.3013 68.2385 97.5787 68.2385 97.92C68.2385 98.208 68.3345 98.432 68.5265 98.592C68.7292 98.7413 68.9852 98.8587 69.2945 98.944C69.6145 99.0293 69.9665 99.104 70.3505 99.168C70.7345 99.2213 71.1185 99.296 71.5025 99.392C71.8865 99.4773 72.2332 99.6 72.5425 99.76C72.8625 99.92 73.1185 100.144 73.3105 100.432C73.5132 100.72 73.6145 101.104 73.6145 101.584C73.6145 102.096 73.4652 102.539 73.1665 102.912C72.8678 103.285 72.4465 103.579 71.9025 103.792C71.3585 103.995 70.7078 104.096 69.9505 104.096ZM78.4461 104.096C77.5928 104.096 76.9315 103.867 76.4621 103.408C75.9928 102.949 75.7581 102.293 75.7581 101.44V93.664H77.2941V101.376C77.2941 101.835 77.4061 102.187 77.6301 102.432C77.8648 102.677 78.1955 102.8 78.6221 102.8C79.1021 102.8 79.5021 102.667 79.8221 102.4L80.3021 103.504C80.0675 103.707 79.7848 103.856 79.4541 103.952C79.1341 104.048 78.7981 104.096 78.4461 104.096ZM74.3181 96.784V95.52H79.7261V96.784H74.3181ZM82.1591 104V95.52H83.6951V104H82.1591ZM82.9271 93.888C82.6285 93.888 82.3778 93.792 82.1751 93.6C81.9831 93.408 81.8871 93.1733 81.8871 92.896C81.8871 92.608 81.9831 92.368 82.1751 92.176C82.3778 91.984 82.6285 91.888 82.9271 91.888C83.2258 91.888 83.4711 91.984 83.6631 92.176C83.8658 92.3573 83.9671 92.5867 83.9671 92.864C83.9671 93.152 83.8711 93.3973 83.6791 93.6C83.4871 93.792 83.2365 93.888 82.9271 93.888ZM90.2599 104.096C89.4065 104.096 88.6492 103.909 87.9879 103.536C87.3265 103.163 86.8039 102.651 86.4199 102C86.0359 101.339 85.8439 100.592 85.8439 99.76C85.8439 98.9173 86.0359 98.1707 86.4199 97.52C86.8039 96.8693 87.3265 96.3627 87.9879 96C88.6492 95.6267 89.4065 95.44 90.2599 95.44C91.1025 95.44 91.8545 95.6267 92.5159 96C93.1879 96.3627 93.7105 96.8693 94.0839 97.52C94.4679 98.16 94.6599 98.9067 94.6599 99.76C94.6599 100.603 94.4679 101.349 94.0839 102C93.7105 102.651 93.1879 103.163 92.5159 103.536C91.8545 103.909 91.1025 104.096 90.2599 104.096ZM90.2599 102.752C90.8039 102.752 91.2892 102.629 91.7159 102.384C92.1532 102.139 92.4945 101.792 92.7399 101.344C92.9852 100.885 93.1079 100.357 93.1079 99.76C93.1079 99.152 92.9852 98.6293 92.7399 98.192C92.4945 97.744 92.1532 97.3973 91.7159 97.152C91.2892 96.9067 90.8039 96.784 90.2599 96.784C89.7159 96.784 89.2305 96.9067 88.8039 97.152C88.3772 97.3973 88.0359 97.744 87.7799 98.192C87.5239 98.6293 87.3959 99.152 87.3959 99.76C87.3959 100.357 87.5239 100.885 87.7799 101.344C88.0359 101.792 88.3772 102.139 88.8039 102.384C89.2305 102.629 89.7159 102.752 90.2599 102.752ZM101.312 95.44C102.005 95.44 102.613 95.5733 103.136 95.84C103.669 96.1067 104.085 96.512 104.384 97.056C104.683 97.6 104.832 98.288 104.832 99.12V104H103.296V99.296C103.296 98.4747 103.093 97.856 102.688 97.44C102.293 97.024 101.733 96.816 101.008 96.816C100.464 96.816 99.9895 96.9227 99.5841 97.136C99.1788 97.3493 98.8641 97.664 98.6401 98.08C98.4268 98.496 98.3201 99.0133 98.3201 99.632V104H96.7841V95.52H98.2561V97.808L98.0161 97.2C98.2935 96.6453 98.7201 96.2133 99.2961 95.904C99.8721 95.5947 100.544 95.44 101.312 95.44ZM111.124 101.248V100.128L116.852 92.8H118.58L112.9 100.128L112.084 99.872H121.028V101.248H111.124ZM117.348 104V101.248L117.396 99.872V97.44H118.9V104H117.348ZM121.208 105.6L126.488 90.528H127.88L122.6 105.6H121.208ZM130.422 104V93.44L131.11 94.192H127.894V92.8H132.006V104H130.422ZM138.072 104.128C137.282 104.128 136.514 104.005 135.768 103.76C135.032 103.515 134.429 103.184 133.96 102.768L134.696 101.504C135.069 101.856 135.554 102.144 136.152 102.368C136.749 102.592 137.384 102.704 138.056 102.704C138.909 102.704 139.565 102.523 140.024 102.16C140.482 101.797 140.712 101.312 140.712 100.704C140.712 100.288 140.61 99.9253 140.408 99.616C140.205 99.3067 139.853 99.072 139.352 98.912C138.861 98.7413 138.184 98.656 137.32 98.656H134.776L135.368 92.8H141.688V94.192H135.96L136.792 93.408L136.328 98.032L135.496 97.264H137.656C138.776 97.264 139.677 97.408 140.36 97.696C141.042 97.984 141.538 98.384 141.848 98.896C142.157 99.3973 142.312 99.9787 142.312 100.64C142.312 101.28 142.157 101.867 141.848 102.4C141.538 102.923 141.069 103.344 140.44 103.664C139.821 103.973 139.032 104.128 138.072 104.128Z" fill="white"/>
<rect x="32" y="117" width="342" height="8" rx="4" fill="white"/>
<rect x="32" y="117" width="75" height="8" rx="4" fill="#FFD53E"/>
<g filter="url(#filter2_d_46_2383)">
<rect x="32" y="211" width="342" height="542" rx="30" fill="white"/>
<rect x="32" y="211" width="342" height="542" rx="30" fill="url(#paint2_radial_46_2383)" fill-opacity="0.75"/>
<rect x="51.5" y="440.5" width="302" height="45" rx="7.5" fill="#E1C1EB" fill-opacity="0.35"/>
<rect x="51.5" y="440.5" width="302" height="45" rx="7.5" stroke="#7E5989"/>
<path d="M65.032 469L70.152 457.8H71.32L76.44 469H75.192L70.488 458.488H70.968L66.264 469H65.032ZM67.048 466.008L67.4 465.048H73.912L74.264 466.008H67.048ZM82.3888 469.08C81.6528 469.08 80.9914 468.915 80.4048 468.584C79.8181 468.243 79.3541 467.752 79.0128 467.112C78.6714 466.472 78.5008 465.699 78.5008 464.792C78.5008 463.875 78.6714 463.101 79.0128 462.472C79.3648 461.832 79.8341 461.347 80.4208 461.016C81.0074 460.685 81.6634 460.52 82.3888 460.52C83.1888 460.52 83.9034 460.701 84.5328 461.064C85.1728 461.416 85.6741 461.912 86.0368 462.552C86.3994 463.192 86.5808 463.939 86.5808 464.792C86.5808 465.635 86.3994 466.381 86.0368 467.032C85.6741 467.672 85.1728 468.173 84.5328 468.536C83.9034 468.899 83.1888 469.08 82.3888 469.08ZM78.0528 469V457.128H79.1888V463.08L79.0288 464.776L79.1408 466.472V469H78.0528ZM82.3088 468.072C82.9061 468.072 83.4394 467.939 83.9088 467.672C84.3781 467.395 84.7514 467.011 85.0288 466.52C85.3061 466.019 85.4448 465.443 85.4448 464.792C85.4448 464.131 85.3061 463.555 85.0288 463.064C84.7514 462.573 84.3781 462.195 83.9088 461.928C83.4394 461.651 82.9061 461.512 82.3088 461.512C81.7114 461.512 81.1728 461.651 80.6927 461.928C80.2234 462.195 79.8501 462.573 79.5728 463.064C79.3061 463.555 79.1728 464.131 79.1728 464.792C79.1728 465.443 79.3061 466.019 79.5728 466.52C79.8501 467.011 80.2234 467.395 80.6927 467.672C81.1728 467.939 81.7114 468.072 82.3088 468.072ZM91.1525 469.08C90.4592 469.08 89.8032 468.984 89.1845 468.792C88.5658 468.589 88.0805 468.339 87.7285 468.04L88.2405 467.144C88.5818 467.4 89.0192 467.624 89.5525 467.816C90.0858 467.997 90.6458 468.088 91.2325 468.088C92.0325 468.088 92.6085 467.965 92.9605 467.72C93.3125 467.464 93.4885 467.128 93.4885 466.712C93.4885 466.403 93.3872 466.163 93.1845 465.992C92.9925 465.811 92.7365 465.677 92.4165 465.592C92.0965 465.496 91.7392 465.416 91.3445 465.352C90.9498 465.288 90.5552 465.213 90.1605 465.128C89.7765 465.043 89.4245 464.92 89.1045 464.76C88.7845 464.589 88.5232 464.36 88.3205 464.072C88.1285 463.784 88.0325 463.4 88.0325 462.92C88.0325 462.461 88.1605 462.051 88.4165 461.688C88.6725 461.325 89.0458 461.043 89.5365 460.84C90.0378 460.627 90.6458 460.52 91.3605 460.52C91.9045 460.52 92.4485 460.595 92.9925 460.744C93.5365 460.883 93.9845 461.069 94.3365 461.304L93.8405 462.216C93.4672 461.96 93.0672 461.779 92.6405 461.672C92.2138 461.555 91.7872 461.496 91.3605 461.496C90.6032 461.496 90.0432 461.629 89.6805 461.896C89.3285 462.152 89.1525 462.483 89.1525 462.888C89.1525 463.208 89.2485 463.459 89.4405 463.64C89.6432 463.821 89.9045 463.965 90.2245 464.072C90.5552 464.168 90.9125 464.248 91.2965 464.312C91.6912 464.376 92.0805 464.456 92.4645 464.552C92.8592 464.637 93.2165 464.76 93.5365 464.92C93.8672 465.069 94.1285 465.288 94.3205 465.576C94.5232 465.853 94.6245 466.221 94.6245 466.68C94.6245 467.171 94.4858 467.597 94.2085 467.96C93.9418 468.312 93.5472 468.589 93.0245 468.792C92.5125 468.984 91.8885 469.08 91.1525 469.08ZM100.133 469.08C99.3223 469.08 98.5917 468.899 97.941 468.536C97.301 468.163 96.7943 467.656 96.421 467.016C96.0477 466.365 95.861 465.624 95.861 464.792C95.861 463.949 96.0477 463.208 96.421 462.568C96.7943 461.928 97.301 461.427 97.941 461.064C98.581 460.701 99.3117 460.52 100.133 460.52C100.965 460.52 101.701 460.701 102.341 461.064C102.992 461.427 103.498 461.928 103.861 462.568C104.234 463.208 104.421 463.949 104.421 464.792C104.421 465.624 104.234 466.365 103.861 467.016C103.498 467.656 102.992 468.163 102.341 468.536C101.69 468.899 100.954 469.08 100.133 469.08ZM100.133 468.072C100.741 468.072 101.28 467.939 101.749 467.672C102.218 467.395 102.586 467.011 102.853 466.52C103.13 466.019 103.269 465.443 103.269 464.792C103.269 464.131 103.13 463.555 102.853 463.064C102.586 462.573 102.218 462.195 101.749 461.928C101.28 461.651 100.746 461.512 100.149 461.512C99.5517 461.512 99.0183 461.651 98.549 461.928C98.0797 462.195 97.7063 462.573 97.429 463.064C97.1517 463.555 97.013 464.131 97.013 464.792C97.013 465.443 97.1517 466.019 97.429 466.52C97.7063 467.011 98.0797 467.395 98.549 467.672C99.0183 467.939 99.5463 468.072 100.133 468.072ZM106.74 469V457.128H107.876V469H106.74ZM114.509 469.08C113.794 469.08 113.17 468.947 112.637 468.68C112.104 468.413 111.688 468.013 111.389 467.48C111.101 466.947 110.957 466.28 110.957 465.48V460.6H112.093V465.352C112.093 466.248 112.312 466.925 112.749 467.384C113.197 467.832 113.821 468.056 114.621 468.056C115.208 468.056 115.714 467.939 116.141 467.704C116.578 467.459 116.909 467.107 117.133 466.648C117.368 466.189 117.485 465.64 117.485 465V460.6H118.621V469H117.533V466.696L117.709 467.112C117.442 467.731 117.026 468.216 116.461 468.568C115.906 468.909 115.256 469.08 114.509 469.08ZM124.443 469.08C123.654 469.08 123.046 468.867 122.619 468.44C122.192 468.013 121.979 467.411 121.979 466.632V458.744H123.115V466.568C123.115 467.059 123.238 467.437 123.483 467.704C123.739 467.971 124.102 468.104 124.571 468.104C125.072 468.104 125.488 467.96 125.819 467.672L126.219 468.488C125.995 468.691 125.723 468.84 125.403 468.936C125.094 469.032 124.774 469.08 124.443 469.08ZM120.475 461.544V460.6H125.675V461.544H120.475ZM131.558 469.08C130.684 469.08 129.916 468.899 129.254 468.536C128.593 468.163 128.076 467.656 127.702 467.016C127.329 466.365 127.142 465.624 127.142 464.792C127.142 463.96 127.318 463.224 127.67 462.584C128.033 461.944 128.524 461.443 129.142 461.08C129.772 460.707 130.476 460.52 131.254 460.52C132.044 460.52 132.742 460.701 133.35 461.064C133.969 461.416 134.454 461.917 134.806 462.568C135.158 463.208 135.334 463.949 135.334 464.792C135.334 464.845 135.329 464.904 135.318 464.968C135.318 465.021 135.318 465.08 135.318 465.144H128.006V464.296H134.71L134.262 464.632C134.262 464.024 134.129 463.485 133.862 463.016C133.606 462.536 133.254 462.163 132.806 461.896C132.358 461.629 131.841 461.496 131.254 461.496C130.678 461.496 130.161 461.629 129.702 461.896C129.244 462.163 128.886 462.536 128.63 463.016C128.374 463.496 128.246 464.045 128.246 464.664V464.84C128.246 465.48 128.385 466.045 128.662 466.536C128.95 467.016 129.345 467.395 129.846 467.672C130.358 467.939 130.94 468.072 131.59 468.072C132.102 468.072 132.577 467.981 133.014 467.8C133.462 467.619 133.846 467.341 134.166 466.968L134.806 467.704C134.433 468.152 133.964 468.493 133.398 468.728C132.844 468.963 132.23 469.08 131.558 469.08ZM137.647 469V457.128H138.783V469H137.647ZM142.007 472.184C141.613 472.184 141.234 472.12 140.871 471.992C140.519 471.864 140.215 471.672 139.959 471.416L140.487 470.568C140.701 470.771 140.93 470.925 141.175 471.032C141.431 471.149 141.714 471.208 142.023 471.208C142.397 471.208 142.717 471.101 142.983 470.888C143.261 470.685 143.522 470.323 143.767 469.8L144.311 468.568L144.439 468.392L147.895 460.6H149.015L144.807 470.008C144.573 470.552 144.311 470.984 144.023 471.304C143.746 471.624 143.442 471.848 143.111 471.976C142.781 472.115 142.413 472.184 142.007 472.184ZM144.247 469.24L140.375 460.6H141.559L144.983 468.312L144.247 469.24ZM150.663 465.64L150.439 457.8H151.783L151.543 465.64H150.663ZM151.111 469.08C150.877 469.08 150.674 469 150.503 468.84C150.343 468.669 150.263 468.472 150.263 468.248C150.263 468.013 150.343 467.821 150.503 467.672C150.674 467.512 150.877 467.432 151.111 467.432C151.357 467.432 151.554 467.512 151.703 467.672C151.863 467.821 151.943 468.013 151.943 468.248C151.943 468.472 151.863 468.669 151.703 468.84C151.554 469 151.357 469.08 151.111 469.08Z" fill="#2E2E2E"/>
<rect x="51.5" y="506.5" width="302" height="45" rx="7.5" stroke="#7E5989"/>
<path d="M69.912 535.096C69.08 535.096 68.28 534.963 67.512 534.696C66.7547 534.419 66.168 534.067 65.752 533.64L66.216 532.728C66.6107 533.112 67.1387 533.437 67.8 533.704C68.472 533.96 69.176 534.088 69.912 534.088C70.616 534.088 71.1867 534.003 71.624 533.832C72.072 533.651 72.3973 533.411 72.6 533.112C72.8133 532.813 72.92 532.483 72.92 532.12C72.92 531.683 72.792 531.331 72.536 531.064C72.2907 530.797 71.9653 530.589 71.56 530.44C71.1547 530.28 70.7067 530.141 70.216 530.024C69.7253 529.907 69.2347 529.784 68.744 529.656C68.2533 529.517 67.8 529.336 67.384 529.112C66.9787 528.888 66.648 528.595 66.392 528.232C66.1467 527.859 66.024 527.373 66.024 526.776C66.024 526.221 66.168 525.715 66.456 525.256C66.7547 524.787 67.208 524.413 67.816 524.136C68.424 523.848 69.2027 523.704 70.152 523.704C70.7813 523.704 71.4053 523.795 72.024 523.976C72.6427 524.147 73.176 524.387 73.624 524.696L73.224 525.64C72.744 525.32 72.232 525.085 71.688 524.936C71.1547 524.787 70.6373 524.712 70.136 524.712C69.464 524.712 68.9093 524.803 68.472 524.984C68.0347 525.165 67.7093 525.411 67.496 525.72C67.2933 526.019 67.192 526.36 67.192 526.744C67.192 527.181 67.3147 527.533 67.56 527.8C67.816 528.067 68.1467 528.275 68.552 528.424C68.968 528.573 69.4213 528.707 69.912 528.824C70.4027 528.941 70.888 529.069 71.368 529.208C71.8587 529.347 72.3067 529.528 72.712 529.752C73.128 529.965 73.4587 530.253 73.704 530.616C73.96 530.979 74.088 531.453 74.088 532.04C74.088 532.584 73.9387 533.091 73.64 533.56C73.3413 534.019 72.8827 534.392 72.264 534.68C71.656 534.957 70.872 535.096 69.912 535.096ZM79.8518 535.08C79.0411 535.08 78.3104 534.899 77.6598 534.536C77.0198 534.163 76.5131 533.656 76.1398 533.016C75.7664 532.365 75.5798 531.624 75.5798 530.792C75.5798 529.949 75.7664 529.208 76.1398 528.568C76.5131 527.928 77.0198 527.427 77.6598 527.064C78.2998 526.701 79.0304 526.52 79.8518 526.52C80.6838 526.52 81.4198 526.701 82.0598 527.064C82.7104 527.427 83.2171 527.928 83.5798 528.568C83.9531 529.208 84.1398 529.949 84.1398 530.792C84.1398 531.624 83.9531 532.365 83.5798 533.016C83.2171 533.656 82.7104 534.163 82.0598 534.536C81.4091 534.899 80.6731 535.08 79.8518 535.08ZM79.8518 534.072C80.4598 534.072 80.9984 533.939 81.4678 533.672C81.9371 533.395 82.3051 533.011 82.5718 532.52C82.8491 532.019 82.9878 531.443 82.9878 530.792C82.9878 530.131 82.8491 529.555 82.5718 529.064C82.3051 528.573 81.9371 528.195 81.4678 527.928C80.9984 527.651 80.4651 527.512 79.8678 527.512C79.2704 527.512 78.7371 527.651 78.2678 527.928C77.7984 528.195 77.4251 528.573 77.1478 529.064C76.8704 529.555 76.7318 530.131 76.7318 530.792C76.7318 531.443 76.8704 532.019 77.1478 532.52C77.4251 533.011 77.7984 533.395 78.2678 533.672C78.7371 533.939 79.2651 534.072 79.8518 534.072ZM96.955 526.52C97.6377 526.52 98.2297 526.653 98.731 526.92C99.243 527.176 99.6377 527.571 99.915 528.104C100.203 528.637 100.347 529.309 100.347 530.12V535H99.211V530.232C99.211 529.347 98.9977 528.68 98.571 528.232C98.155 527.773 97.563 527.544 96.795 527.544C96.219 527.544 95.7177 527.667 95.291 527.912C94.875 528.147 94.5497 528.493 94.315 528.952C94.091 529.4 93.979 529.944 93.979 530.584V535H92.843V530.232C92.843 529.347 92.6297 528.68 92.203 528.232C91.7763 527.773 91.179 527.544 90.411 527.544C89.8457 527.544 89.3497 527.667 88.923 527.912C88.4963 528.147 88.1657 528.493 87.931 528.952C87.707 529.4 87.595 529.944 87.595 530.584V535H86.459V526.6H87.547V528.872L87.371 528.472C87.627 527.864 88.0377 527.389 88.603 527.048C89.179 526.696 89.8563 526.52 90.635 526.52C91.4563 526.52 92.155 526.728 92.731 527.144C93.307 527.549 93.6803 528.163 93.851 528.984L93.403 528.808C93.6483 528.125 94.0803 527.576 94.699 527.16C95.3283 526.733 96.0803 526.52 96.955 526.52ZM106.996 535.08C106.121 535.08 105.353 534.899 104.692 534.536C104.03 534.163 103.513 533.656 103.14 533.016C102.766 532.365 102.58 531.624 102.58 530.792C102.58 529.96 102.756 529.224 103.108 528.584C103.47 527.944 103.961 527.443 104.58 527.08C105.209 526.707 105.913 526.52 106.692 526.52C107.481 526.52 108.18 526.701 108.788 527.064C109.406 527.416 109.892 527.917 110.244 528.568C110.596 529.208 110.772 529.949 110.772 530.792C110.772 530.845 110.766 530.904 110.756 530.968C110.756 531.021 110.756 531.08 110.756 531.144H103.444V530.296H110.148L109.7 530.632C109.7 530.024 109.566 529.485 109.3 529.016C109.044 528.536 108.692 528.163 108.244 527.896C107.796 527.629 107.278 527.496 106.692 527.496C106.116 527.496 105.598 527.629 105.14 527.896C104.681 528.163 104.324 528.536 104.068 529.016C103.812 529.496 103.684 530.045 103.684 530.664V530.84C103.684 531.48 103.822 532.045 104.1 532.536C104.388 533.016 104.782 533.395 105.284 533.672C105.796 533.939 106.377 534.072 107.028 534.072C107.54 534.072 108.014 533.981 108.452 533.8C108.9 533.619 109.284 533.341 109.604 532.968L110.244 533.704C109.87 534.152 109.401 534.493 108.836 534.728C108.281 534.963 107.668 535.08 106.996 535.08ZM115.74 535.08C114.951 535.08 114.343 534.867 113.916 534.44C113.489 534.013 113.276 533.411 113.276 532.632V524.744H114.412V532.568C114.412 533.059 114.535 533.437 114.78 533.704C115.036 533.971 115.399 534.104 115.868 534.104C116.369 534.104 116.785 533.96 117.116 533.672L117.516 534.488C117.292 534.691 117.02 534.84 116.7 534.936C116.391 535.032 116.071 535.08 115.74 535.08ZM111.772 527.544V526.6H116.972V527.544H111.772ZM119.584 535V526.6H120.72V535H119.584ZM120.16 524.744C119.925 524.744 119.728 524.664 119.568 524.504C119.408 524.344 119.328 524.152 119.328 523.928C119.328 523.704 119.408 523.517 119.568 523.368C119.728 523.208 119.925 523.128 120.16 523.128C120.395 523.128 120.592 523.203 120.752 523.352C120.912 523.501 120.992 523.688 120.992 523.912C120.992 524.147 120.912 524.344 120.752 524.504C120.603 524.664 120.405 524.744 120.16 524.744ZM134.377 526.52C135.06 526.52 135.652 526.653 136.153 526.92C136.665 527.176 137.06 527.571 137.337 528.104C137.625 528.637 137.769 529.309 137.769 530.12V535H136.633V530.232C136.633 529.347 136.42 528.68 135.993 528.232C135.577 527.773 134.985 527.544 134.217 527.544C133.641 527.544 133.14 527.667 132.713 527.912C132.297 528.147 131.972 528.493 131.737 528.952C131.513 529.4 131.401 529.944 131.401 530.584V535H130.265V530.232C130.265 529.347 130.052 528.68 129.625 528.232C129.198 527.773 128.601 527.544 127.833 527.544C127.268 527.544 126.772 527.667 126.345 527.912C125.918 528.147 125.588 528.493 125.353 528.952C125.129 529.4 125.017 529.944 125.017 530.584V535H123.881V526.6H124.969V528.872L124.793 528.472C125.049 527.864 125.46 527.389 126.025 527.048C126.601 526.696 127.278 526.52 128.057 526.52C128.878 526.52 129.577 526.728 130.153 527.144C130.729 527.549 131.102 528.163 131.273 528.984L130.825 528.808C131.07 528.125 131.502 527.576 132.121 527.16C132.75 526.733 133.502 526.52 134.377 526.52ZM144.418 535.08C143.543 535.08 142.775 534.899 142.114 534.536C141.452 534.163 140.935 533.656 140.562 533.016C140.188 532.365 140.002 531.624 140.002 530.792C140.002 529.96 140.178 529.224 140.53 528.584C140.892 527.944 141.383 527.443 142.002 527.08C142.631 526.707 143.335 526.52 144.114 526.52C144.903 526.52 145.602 526.701 146.21 527.064C146.828 527.416 147.314 527.917 147.666 528.568C148.018 529.208 148.194 529.949 148.194 530.792C148.194 530.845 148.188 530.904 148.178 530.968C148.178 531.021 148.178 531.08 148.178 531.144H140.866V530.296H147.57L147.122 530.632C147.122 530.024 146.988 529.485 146.722 529.016C146.466 528.536 146.114 528.163 145.666 527.896C145.218 527.629 144.7 527.496 144.114 527.496C143.538 527.496 143.02 527.629 142.562 527.896C142.103 528.163 141.746 528.536 141.49 529.016C141.234 529.496 141.106 530.045 141.106 530.664V530.84C141.106 531.48 141.244 532.045 141.522 532.536C141.81 533.016 142.204 533.395 142.706 533.672C143.218 533.939 143.799 534.072 144.45 534.072C144.962 534.072 145.436 533.981 145.874 533.8C146.322 533.619 146.706 533.341 147.026 532.968L147.666 533.704C147.292 534.152 146.823 534.493 146.258 534.728C145.703 534.963 145.09 535.08 144.418 535.08ZM152.762 535.08C152.069 535.08 151.413 534.984 150.794 534.792C150.175 534.589 149.69 534.339 149.338 534.04L149.85 533.144C150.191 533.4 150.629 533.624 151.162 533.816C151.695 533.997 152.255 534.088 152.842 534.088C153.642 534.088 154.218 533.965 154.57 533.72C154.922 533.464 155.098 533.128 155.098 532.712C155.098 532.403 154.997 532.163 154.794 531.992C154.602 531.811 154.346 531.677 154.026 531.592C153.706 531.496 153.349 531.416 152.954 531.352C152.559 531.288 152.165 531.213 151.77 531.128C151.386 531.043 151.034 530.92 150.714 530.76C150.394 530.589 150.133 530.36 149.93 530.072C149.738 529.784 149.642 529.4 149.642 528.92C149.642 528.461 149.77 528.051 150.026 527.688C150.282 527.325 150.655 527.043 151.146 526.84C151.647 526.627 152.255 526.52 152.97 526.52C153.514 526.52 154.058 526.595 154.602 526.744C155.146 526.883 155.594 527.069 155.946 527.304L155.45 528.216C155.077 527.96 154.677 527.779 154.25 527.672C153.823 527.555 153.397 527.496 152.97 527.496C152.213 527.496 151.653 527.629 151.29 527.896C150.938 528.152 150.762 528.483 150.762 528.888C150.762 529.208 150.858 529.459 151.05 529.64C151.253 529.821 151.514 529.965 151.834 530.072C152.165 530.168 152.522 530.248 152.906 530.312C153.301 530.376 153.69 530.456 154.074 530.552C154.469 530.637 154.826 530.76 155.146 530.92C155.477 531.069 155.738 531.288 155.93 531.576C156.133 531.853 156.234 532.221 156.234 532.68C156.234 533.171 156.095 533.597 155.818 533.96C155.551 534.312 155.157 534.589 154.634 534.792C154.122 534.984 153.498 535.08 152.762 535.08Z" fill="#2E2E2E"/>
<rect x="51.5" y="572.5" width="302" height="45" rx="7.5" stroke="#7E5989"/>
<path d="M66.824 601V589.8H67.8L75.528 599.528H75.016V589.8H76.184V601H75.208L67.496 591.272H68.008V601H66.824ZM83.0236 601.08C82.213 601.08 81.4823 600.899 80.8316 600.536C80.1916 600.163 79.685 599.656 79.3116 599.016C78.9383 598.365 78.7516 597.624 78.7516 596.792C78.7516 595.949 78.9383 595.208 79.3116 594.568C79.685 593.928 80.1916 593.427 80.8316 593.064C81.4716 592.701 82.2023 592.52 83.0236 592.52C83.8556 592.52 84.5916 592.701 85.2316 593.064C85.8823 593.427 86.389 593.928 86.7516 594.568C87.125 595.208 87.3116 595.949 87.3116 596.792C87.3116 597.624 87.125 598.365 86.7516 599.016C86.389 599.656 85.8823 600.163 85.2316 600.536C84.581 600.899 83.845 601.08 83.0236 601.08ZM83.0236 600.072C83.6316 600.072 84.1703 599.939 84.6396 599.672C85.109 599.395 85.477 599.011 85.7436 598.52C86.021 598.019 86.1596 597.443 86.1596 596.792C86.1596 596.131 86.021 595.555 85.7436 595.064C85.477 594.573 85.109 594.195 84.6396 593.928C84.1703 593.651 83.637 593.512 83.0396 593.512C82.4423 593.512 81.909 593.651 81.4396 593.928C80.9703 594.195 80.597 594.573 80.3196 595.064C80.0423 595.555 79.9036 596.131 79.9036 596.792C79.9036 597.443 80.0423 598.019 80.3196 598.52C80.597 599.011 80.9703 599.395 81.4396 599.672C81.909 599.939 82.437 600.072 83.0236 600.072ZM92.2869 601.08C91.4975 601.08 90.8895 600.867 90.4629 600.44C90.0362 600.013 89.8229 599.411 89.8229 598.632V590.744H90.9589V598.568C90.9589 599.059 91.0815 599.437 91.3269 599.704C91.5829 599.971 91.9455 600.104 92.4149 600.104C92.9162 600.104 93.3322 599.96 93.6629 599.672L94.0629 600.488C93.8389 600.691 93.5669 600.84 93.2469 600.936C92.9375 601.032 92.6175 601.08 92.2869 601.08ZM88.3189 593.544V592.6H93.5189V593.544H88.3189ZM103.662 601.08C102.862 601.08 102.142 600.899 101.502 600.536C100.873 600.173 100.377 599.672 100.014 599.032C99.6517 598.392 99.4704 597.645 99.4704 596.792C99.4704 595.949 99.6517 595.208 100.014 594.568C100.377 593.917 100.873 593.416 101.502 593.064C102.142 592.701 102.862 592.52 103.662 592.52C104.409 592.52 105.07 592.685 105.646 593.016C106.233 593.347 106.697 593.832 107.038 594.472C107.38 595.101 107.55 595.875 107.55 596.792C107.55 597.709 107.374 598.488 107.022 599.128C106.681 599.757 106.217 600.243 105.63 600.584C105.054 600.915 104.398 601.08 103.662 601.08ZM103.742 600.072C104.34 600.072 104.873 599.939 105.342 599.672C105.822 599.395 106.196 599.011 106.462 598.52C106.74 598.019 106.878 597.443 106.878 596.792C106.878 596.141 106.74 595.571 106.462 595.08C106.196 594.589 105.822 594.205 105.342 593.928C104.873 593.651 104.34 593.512 103.742 593.512C103.156 593.512 102.628 593.651 102.158 593.928C101.689 594.205 101.316 594.589 101.038 595.08C100.761 595.571 100.622 596.141 100.622 596.792C100.622 597.443 100.761 598.019 101.038 598.52C101.316 599.011 101.689 599.395 102.158 599.672C102.628 599.939 103.156 600.072 103.742 600.072ZM106.862 604.104V598.504L107.022 596.808L106.91 595.128V592.6H107.998V604.104H106.862ZM114.634 601.08C113.919 601.08 113.295 600.947 112.762 600.68C112.229 600.413 111.813 600.013 111.514 599.48C111.226 598.947 111.082 598.28 111.082 597.48V592.6H112.218V597.352C112.218 598.248 112.437 598.925 112.874 599.384C113.322 599.832 113.946 600.056 114.746 600.056C115.333 600.056 115.839 599.939 116.266 599.704C116.703 599.459 117.034 599.107 117.258 598.648C117.493 598.189 117.61 597.64 117.61 597V592.6H118.746V601H117.658V598.696L117.834 599.112C117.567 599.731 117.151 600.216 116.586 600.568C116.031 600.909 115.381 601.08 114.634 601.08ZM121.912 601V592.6H123.048V601H121.912ZM122.488 590.744C122.253 590.744 122.056 590.664 121.896 590.504C121.736 590.344 121.656 590.152 121.656 589.928C121.656 589.704 121.736 589.517 121.896 589.368C122.056 589.208 122.253 589.128 122.488 589.128C122.723 589.128 122.92 589.203 123.08 589.352C123.24 589.501 123.32 589.688 123.32 589.912C123.32 590.147 123.24 590.344 123.08 590.504C122.931 590.664 122.733 590.744 122.488 590.744ZM128.865 601.08C128.076 601.08 127.468 600.867 127.041 600.44C126.614 600.013 126.401 599.411 126.401 598.632V590.744H127.537V598.568C127.537 599.059 127.66 599.437 127.905 599.704C128.161 599.971 128.524 600.104 128.993 600.104C129.494 600.104 129.91 599.96 130.241 599.672L130.641 600.488C130.417 600.691 130.145 600.84 129.825 600.936C129.516 601.032 129.196 601.08 128.865 601.08ZM124.897 593.544V592.6H130.097V593.544H124.897ZM135.98 601.08C135.105 601.08 134.337 600.899 133.676 600.536C133.015 600.163 132.497 599.656 132.124 599.016C131.751 598.365 131.564 597.624 131.564 596.792C131.564 595.96 131.74 595.224 132.092 594.584C132.455 593.944 132.945 593.443 133.564 593.08C134.193 592.707 134.897 592.52 135.676 592.52C136.465 592.52 137.164 592.701 137.772 593.064C138.391 593.416 138.876 593.917 139.228 594.568C139.58 595.208 139.756 595.949 139.756 596.792C139.756 596.845 139.751 596.904 139.74 596.968C139.74 597.021 139.74 597.08 139.74 597.144H132.428V596.296H139.132L138.684 596.632C138.684 596.024 138.551 595.485 138.284 595.016C138.028 594.536 137.676 594.163 137.228 593.896C136.78 593.629 136.263 593.496 135.676 593.496C135.1 593.496 134.583 593.629 134.124 593.896C133.665 594.163 133.308 594.536 133.052 595.016C132.796 595.496 132.668 596.045 132.668 596.664V596.84C132.668 597.48 132.807 598.045 133.084 598.536C133.372 599.016 133.767 599.395 134.268 599.672C134.78 599.939 135.361 600.072 136.012 600.072C136.524 600.072 136.999 599.981 137.436 599.8C137.884 599.619 138.268 599.341 138.588 598.968L139.228 599.704C138.855 600.152 138.385 600.493 137.82 600.728C137.265 600.963 136.652 601.08 135.98 601.08Z" fill="#2E2E2E"/>
<rect x="51.5" y="638.5" width="302" height="45" rx="7.5" stroke="#7E5989"/>
<path d="M66.824 667V655.8H67.8L75.528 665.528H75.016V655.8H76.184V667H75.208L67.496 657.272H68.008V667H66.824ZM83.1676 667.08C82.293 667.08 81.525 666.899 80.8636 666.536C80.2023 666.163 79.685 665.656 79.3116 665.016C78.9383 664.365 78.7516 663.624 78.7516 662.792C78.7516 661.96 78.9276 661.224 79.2796 660.584C79.6423 659.944 80.133 659.443 80.7516 659.08C81.381 658.707 82.085 658.52 82.8636 658.52C83.653 658.52 84.3516 658.701 84.9596 659.064C85.5783 659.416 86.0636 659.917 86.4156 660.568C86.7676 661.208 86.9436 661.949 86.9436 662.792C86.9436 662.845 86.9383 662.904 86.9276 662.968C86.9276 663.021 86.9276 663.08 86.9276 663.144H79.6156V662.296H86.3196L85.8716 662.632C85.8716 662.024 85.7383 661.485 85.4716 661.016C85.2156 660.536 84.8636 660.163 84.4156 659.896C83.9676 659.629 83.4503 659.496 82.8636 659.496C82.2876 659.496 81.7703 659.629 81.3116 659.896C80.853 660.163 80.4956 660.536 80.2396 661.016C79.9836 661.496 79.8556 662.045 79.8556 662.664V662.84C79.8556 663.48 79.9943 664.045 80.2716 664.536C80.5596 665.016 80.9543 665.395 81.4556 665.672C81.9676 665.939 82.549 666.072 83.1996 666.072C83.7116 666.072 84.1863 665.981 84.6236 665.8C85.0716 665.619 85.4556 665.341 85.7756 664.968L86.4156 665.704C86.0423 666.152 85.573 666.493 85.0076 666.728C84.453 666.963 83.8396 667.08 83.1676 667.08ZM91.2596 667L87.5316 658.6H88.7156L92.1396 666.392H91.5796L95.0516 658.6H96.1716L92.4276 667H91.2596ZM101.105 667.08C100.23 667.08 99.4625 666.899 98.8011 666.536C98.1398 666.163 97.6225 665.656 97.2491 665.016C96.8758 664.365 96.6891 663.624 96.6891 662.792C96.6891 661.96 96.8651 661.224 97.2171 660.584C97.5798 659.944 98.0705 659.443 98.6891 659.08C99.3185 658.707 100.022 658.52 100.801 658.52C101.59 658.52 102.289 658.701 102.897 659.064C103.516 659.416 104.001 659.917 104.353 660.568C104.705 661.208 104.881 661.949 104.881 662.792C104.881 662.845 104.876 662.904 104.865 662.968C104.865 663.021 104.865 663.08 104.865 663.144H97.5531V662.296H104.257L103.809 662.632C103.809 662.024 103.676 661.485 103.409 661.016C103.153 660.536 102.801 660.163 102.353 659.896C101.905 659.629 101.388 659.496 100.801 659.496C100.225 659.496 99.7078 659.629 99.2491 659.896C98.7905 660.163 98.4331 660.536 98.1771 661.016C97.9211 661.496 97.7931 662.045 97.7931 662.664V662.84C97.7931 663.48 97.9318 664.045 98.2091 664.536C98.4971 665.016 98.8918 665.395 99.3931 665.672C99.9051 665.939 100.486 666.072 101.137 666.072C101.649 666.072 102.124 665.981 102.561 665.8C103.009 665.619 103.393 665.341 103.713 664.968L104.353 665.704C103.98 666.152 103.51 666.493 102.945 666.728C102.39 666.963 101.777 667.08 101.105 667.08ZM107.193 667V658.6H108.281V660.888L108.169 660.488C108.404 659.848 108.799 659.363 109.353 659.032C109.908 658.691 110.596 658.52 111.417 658.52V659.624C111.375 659.624 111.332 659.624 111.289 659.624C111.247 659.613 111.204 659.608 111.161 659.608C110.276 659.608 109.583 659.88 109.081 660.424C108.58 660.957 108.329 661.72 108.329 662.712V667H107.193Z" fill="#2E2E2E"/>
<path d="M55.704 292L52.008 269.32H54.64L57.076 285.616L60.128 269.404H62.368L65.448 285.7L67.828 269.32H70.404L66.764 292H64.468L61.304 275.2L58.112 292H55.704ZM72.9944 292V269.32H75.9904V277.496C76.5318 276.973 77.1384 276.525 77.8104 276.152C78.4824 275.779 79.2291 275.592 80.0504 275.592C80.6851 275.592 81.1704 275.76 81.5064 276.096C81.8611 276.432 82.1038 276.852 82.2344 277.356C82.3838 277.86 82.4584 278.373 82.4584 278.896V292H79.4624V279.764C79.4624 279.185 79.3784 278.737 79.2104 278.42C79.0424 278.103 78.6971 277.944 78.1744 277.944C77.8198 277.944 77.4464 278.047 77.0544 278.252C76.6811 278.457 76.3264 278.709 75.9904 279.008V292H72.9944ZM89.8592 292.224C88.5899 292.224 87.6099 291.981 86.9192 291.496C86.2285 290.992 85.7432 290.264 85.4632 289.312C85.2019 288.341 85.0712 287.156 85.0712 285.756V282.06C85.0712 280.623 85.2112 279.428 85.4912 278.476C85.7712 277.524 86.2565 276.805 86.9472 276.32C87.6565 275.835 88.6272 275.592 89.8592 275.592C91.2219 275.592 92.2205 275.872 92.8552 276.432C93.5085 276.992 93.9379 277.804 94.1432 278.868C94.3485 279.913 94.4512 281.173 94.4512 282.648V283.964H88.0672V287.212C88.0672 287.865 88.1232 288.397 88.2352 288.808C88.3659 289.219 88.5619 289.527 88.8232 289.732C89.1032 289.919 89.4579 290.012 89.8872 290.012C90.3352 290.012 90.6712 289.909 90.8952 289.704C91.1379 289.48 91.2965 289.172 91.3712 288.78C91.4645 288.369 91.5112 287.893 91.5112 287.352V286.372H94.4232V286.988C94.4232 288.612 94.0779 289.891 93.3872 290.824C92.6965 291.757 91.5205 292.224 89.8592 292.224ZM88.0672 282.34H91.5112V280.884C91.5112 280.212 91.4739 279.652 91.3992 279.204C91.3245 278.737 91.1659 278.392 90.9232 278.168C90.6992 277.925 90.3352 277.804 89.8312 277.804C89.3459 277.804 88.9725 277.916 88.7112 278.14C88.4685 278.364 88.3005 278.747 88.2072 279.288C88.1139 279.811 88.0672 280.539 88.0672 281.472V282.34ZM97.1643 292V275.816H100.16V277.412C100.702 276.908 101.299 276.479 101.952 276.124C102.606 275.769 103.324 275.592 104.108 275.592C104.762 275.592 105.256 275.76 105.592 276.096C105.947 276.432 106.19 276.852 106.32 277.356C106.47 277.86 106.544 278.373 106.544 278.896V292H103.548V279.764C103.548 279.185 103.464 278.737 103.296 278.42C103.128 278.103 102.783 277.944 102.26 277.944C101.924 277.944 101.57 278.047 101.196 278.252C100.842 278.439 100.496 278.672 100.16 278.952V292H97.1643ZM116.287 292V269.32H119.395V292H116.287ZM123.485 276.74L122.953 275.62C123.531 275.583 123.923 275.312 124.129 274.808C124.353 274.304 124.465 273.529 124.465 272.484H122.981V269.32H126.257C126.257 269.768 126.257 270.225 126.257 270.692C126.257 271.14 126.257 271.588 126.257 272.036C126.257 273.492 126.051 274.631 125.641 275.452C125.23 276.255 124.511 276.684 123.485 276.74ZM128.637 292V275.816H131.409V277.356C131.95 276.74 132.548 276.283 133.201 275.984C133.854 275.685 134.526 275.536 135.217 275.536C135.814 275.536 136.346 275.685 136.813 275.984C137.298 276.283 137.644 276.815 137.849 277.58C138.428 276.871 139.053 276.357 139.725 276.04C140.416 275.704 141.134 275.536 141.881 275.536C142.404 275.536 142.88 275.667 143.309 275.928C143.738 276.171 144.084 276.572 144.345 277.132C144.606 277.673 144.737 278.392 144.737 279.288V292H141.993V279.484C141.993 278.7 141.862 278.177 141.601 277.916C141.358 277.636 141.022 277.496 140.593 277.496C140.182 277.496 139.753 277.617 139.305 277.86C138.857 278.084 138.446 278.401 138.073 278.812C138.073 278.887 138.073 278.961 138.073 279.036C138.073 279.111 138.073 279.195 138.073 279.288V292H135.329V279.484C135.329 278.7 135.198 278.177 134.937 277.916C134.694 277.636 134.358 277.496 133.929 277.496C133.518 277.496 133.089 277.617 132.641 277.86C132.212 278.084 131.801 278.401 131.409 278.812V292H128.637ZM155.019 292V278.028H153.087V275.816H155.019V274.976C155.019 273.968 155.093 273.109 155.243 272.4C155.411 271.672 155.747 271.112 156.251 270.72C156.755 270.328 157.511 270.132 158.519 270.132C158.892 270.132 159.219 270.151 159.499 270.188C159.797 270.207 160.124 270.253 160.479 270.328V272.512C160.311 272.475 160.124 272.447 159.919 272.428C159.713 272.391 159.527 272.372 159.359 272.372C158.78 272.372 158.407 272.568 158.239 272.96C158.089 273.333 158.015 273.837 158.015 274.472V275.816H160.479V278.028H158.015V292H155.019ZM166.586 292.224C165.316 292.224 164.336 291.981 163.646 291.496C162.955 290.992 162.47 290.264 162.19 289.312C161.928 288.341 161.798 287.156 161.798 285.756V282.06C161.798 280.623 161.938 279.428 162.218 278.476C162.498 277.524 162.983 276.805 163.674 276.32C164.383 275.835 165.354 275.592 166.586 275.592C167.948 275.592 168.947 275.872 169.582 276.432C170.235 276.992 170.664 277.804 170.87 278.868C171.075 279.913 171.178 281.173 171.178 282.648V283.964H164.794V287.212C164.794 287.865 164.85 288.397 164.962 288.808C165.092 289.219 165.288 289.527 165.55 289.732C165.83 289.919 166.184 290.012 166.614 290.012C167.062 290.012 167.398 289.909 167.622 289.704C167.864 289.48 168.023 289.172 168.098 288.78C168.191 288.369 168.238 287.893 168.238 287.352V286.372H171.15V286.988C171.15 288.612 170.804 289.891 170.114 290.824C169.423 291.757 168.247 292.224 166.586 292.224ZM164.794 282.34H168.238V280.884C168.238 280.212 168.2 279.652 168.126 279.204C168.051 278.737 167.892 278.392 167.65 278.168C167.426 277.925 167.062 277.804 166.558 277.804C166.072 277.804 165.699 277.916 165.438 278.14C165.195 278.364 165.027 278.747 164.934 279.288C164.84 279.811 164.794 280.539 164.794 281.472V282.34ZM178.371 292.224C177.102 292.224 176.122 291.981 175.431 291.496C174.74 290.992 174.255 290.264 173.975 289.312C173.714 288.341 173.583 287.156 173.583 285.756V282.06C173.583 280.623 173.723 279.428 174.003 278.476C174.283 277.524 174.768 276.805 175.459 276.32C176.168 275.835 177.139 275.592 178.371 275.592C179.734 275.592 180.732 275.872 181.367 276.432C182.02 276.992 182.45 277.804 182.655 278.868C182.86 279.913 182.963 281.173 182.963 282.648V283.964H176.579V287.212C176.579 287.865 176.635 288.397 176.747 288.808C176.878 289.219 177.074 289.527 177.335 289.732C177.615 289.919 177.97 290.012 178.399 290.012C178.847 290.012 179.183 289.909 179.407 289.704C179.65 289.48 179.808 289.172 179.883 288.78C179.976 288.369 180.023 287.893 180.023 287.352V286.372H182.935V286.988C182.935 288.612 182.59 289.891 181.899 290.824C181.208 291.757 180.032 292.224 178.371 292.224ZM176.579 282.34H180.023V280.884C180.023 280.212 179.986 279.652 179.911 279.204C179.836 278.737 179.678 278.392 179.435 278.168C179.211 277.925 178.847 277.804 178.343 277.804C177.858 277.804 177.484 277.916 177.223 278.14C176.98 278.364 176.812 278.747 176.719 279.288C176.626 279.811 176.579 280.539 176.579 281.472V282.34ZM185.956 292V269.32H188.952V292H185.956ZM192.271 292V275.816H195.267V292H192.271ZM192.271 273.408V270.272H195.267V273.408H192.271ZM198.473 292V275.816H201.469V277.412C202.01 276.908 202.608 276.479 203.261 276.124C203.914 275.769 204.633 275.592 205.417 275.592C206.07 275.592 206.565 275.76 206.901 276.096C207.256 276.432 207.498 276.852 207.629 277.356C207.778 277.86 207.853 278.373 207.853 278.896V292H204.857V279.764C204.857 279.185 204.773 278.737 204.605 278.42C204.437 278.103 204.092 277.944 203.569 277.944C203.233 277.944 202.878 278.047 202.505 278.252C202.15 278.439 201.805 278.672 201.469 278.952V292H198.473ZM214.978 297.012C214.007 297.012 213.13 296.909 212.346 296.704C211.562 296.499 210.946 296.172 210.498 295.724C210.05 295.276 209.826 294.688 209.826 293.96C209.826 293.437 209.938 292.98 210.162 292.588C210.386 292.196 210.675 291.86 211.03 291.58C211.384 291.281 211.758 291.039 212.15 290.852C211.627 290.703 211.235 290.469 210.974 290.152C210.712 289.816 210.582 289.471 210.582 289.116C210.582 288.519 210.74 288.005 211.058 287.576C211.375 287.147 211.814 286.68 212.374 286.176C211.758 285.709 211.291 285.112 210.974 284.384C210.656 283.656 210.498 282.648 210.498 281.36C210.498 280.091 210.666 279.036 211.002 278.196C211.356 277.337 211.87 276.693 212.542 276.264C213.232 275.816 214.072 275.592 215.062 275.592C215.939 275.592 216.639 275.741 217.162 276.04C217.703 276.339 218.114 276.787 218.394 277.384C218.487 277.235 218.739 276.983 219.15 276.628C219.56 276.255 220.036 275.947 220.578 275.704L221.026 275.508L221.782 277.44C221.539 277.477 221.212 277.571 220.802 277.72C220.41 277.851 220.036 277.991 219.682 278.14C219.346 278.271 219.131 278.383 219.038 278.476C219.168 278.793 219.28 279.251 219.374 279.848C219.486 280.445 219.542 280.977 219.542 281.444C219.542 282.545 219.402 283.516 219.122 284.356C218.842 285.196 218.375 285.859 217.722 286.344C217.087 286.811 216.2 287.044 215.062 287.044C214.819 287.044 214.558 287.025 214.278 286.988C213.998 286.951 213.746 286.904 213.522 286.848C213.41 287.016 213.288 287.212 213.158 287.436C213.046 287.66 212.99 287.875 212.99 288.08C212.99 288.285 213.092 288.453 213.298 288.584C213.522 288.696 213.867 288.771 214.334 288.808L216.854 289.032C218.123 289.144 219.066 289.527 219.682 290.18C220.298 290.833 220.606 291.767 220.606 292.98C220.606 293.857 220.4 294.595 219.99 295.192C219.579 295.808 218.954 296.265 218.114 296.564C217.292 296.863 216.247 297.012 214.978 297.012ZM215.202 294.66C216.266 294.66 217.05 294.529 217.554 294.268C218.058 294.025 218.31 293.624 218.31 293.064C218.31 292.728 218.244 292.448 218.114 292.224C218.002 292 217.787 291.823 217.47 291.692C217.152 291.561 216.695 291.468 216.098 291.412L213.55 291.188C213.344 291.393 213.148 291.599 212.962 291.804C212.775 292.009 212.626 292.224 212.514 292.448C212.402 292.691 212.346 292.943 212.346 293.204C212.346 293.689 212.551 294.053 212.962 294.296C213.372 294.539 214.119 294.66 215.202 294.66ZM215.062 284.944C215.491 284.944 215.827 284.869 216.07 284.72C216.331 284.552 216.527 284.319 216.658 284.02C216.788 283.703 216.872 283.32 216.91 282.872C216.966 282.424 216.994 281.92 216.994 281.36C216.994 280.8 216.966 280.296 216.91 279.848C216.872 279.381 216.788 278.989 216.658 278.672C216.546 278.336 216.359 278.084 216.098 277.916C215.855 277.748 215.519 277.664 215.09 277.664C214.679 277.664 214.334 277.748 214.054 277.916C213.792 278.084 213.596 278.327 213.466 278.644C213.335 278.943 213.242 279.325 213.186 279.792C213.13 280.24 213.102 280.763 213.102 281.36C213.102 281.864 213.12 282.34 213.158 282.788C213.214 283.217 213.307 283.591 213.438 283.908C213.587 284.225 213.792 284.477 214.054 284.664C214.315 284.851 214.651 284.944 215.062 284.944ZM232.256 292.224C231.621 292.224 231.061 292.047 230.576 291.692C230.091 291.319 229.708 290.852 229.428 290.292C229.148 289.713 229.008 289.107 229.008 288.472C229.008 287.464 229.176 286.615 229.512 285.924C229.848 285.233 230.305 284.655 230.884 284.188C231.481 283.703 232.163 283.283 232.928 282.928C233.712 282.573 234.533 282.228 235.392 281.892V280.744C235.392 280.091 235.355 279.549 235.28 279.12C235.205 278.691 235.047 278.373 234.804 278.168C234.58 277.944 234.235 277.832 233.768 277.832C233.357 277.832 233.021 277.925 232.76 278.112C232.517 278.299 232.34 278.569 232.228 278.924C232.116 279.26 232.06 279.661 232.06 280.128V280.94L229.092 280.828C229.129 279.036 229.54 277.72 230.324 276.88C231.108 276.021 232.321 275.592 233.964 275.592C235.569 275.592 236.708 276.031 237.38 276.908C238.052 277.785 238.388 279.055 238.388 280.716V288.108C238.388 288.612 238.397 289.097 238.416 289.564C238.453 290.031 238.491 290.469 238.528 290.88C238.584 291.272 238.631 291.645 238.668 292H235.924C235.868 291.701 235.793 291.328 235.7 290.88C235.625 290.413 235.569 289.993 235.532 289.62C235.345 290.255 234.981 290.852 234.44 291.412C233.917 291.953 233.189 292.224 232.256 292.224ZM233.432 289.648C233.731 289.648 234.011 289.564 234.272 289.396C234.533 289.228 234.767 289.041 234.972 288.836C235.177 288.612 235.317 288.435 235.392 288.304V283.712C234.925 283.973 234.487 284.235 234.076 284.496C233.665 284.757 233.301 285.037 232.984 285.336C232.685 285.616 232.443 285.943 232.256 286.316C232.088 286.671 232.004 287.081 232.004 287.548C232.004 288.201 232.125 288.715 232.368 289.088C232.611 289.461 232.965 289.648 233.432 289.648ZM241.266 292V275.816H244.262V277.412C244.803 276.908 245.401 276.479 246.054 276.124C246.707 275.769 247.426 275.592 248.21 275.592C248.863 275.592 249.358 275.76 249.694 276.096C250.049 276.432 250.291 276.852 250.422 277.356C250.571 277.86 250.646 278.373 250.646 278.896V292H247.65V279.764C247.65 279.185 247.566 278.737 247.398 278.42C247.23 278.103 246.885 277.944 246.362 277.944C246.026 277.944 245.671 278.047 245.298 278.252C244.943 278.439 244.598 278.672 244.262 278.952V292H241.266ZM252.311 292L255.951 283.488L252.395 275.816H255.251L257.631 280.94L259.731 275.816H262.671L258.975 283.852L262.727 292H259.871L257.323 286.512L255.139 292H252.311ZM264.649 292V275.816H267.645V292H264.649ZM264.649 273.408V270.272H267.645V273.408H264.649ZM275.304 292.224C274.109 292.224 273.167 291.981 272.476 291.496C271.785 291.011 271.291 290.32 270.992 289.424C270.712 288.528 270.572 287.473 270.572 286.26V281.556C270.572 280.343 270.712 279.288 270.992 278.392C271.291 277.496 271.785 276.805 272.476 276.32C273.167 275.835 274.109 275.592 275.304 275.592C276.499 275.592 277.432 275.835 278.104 276.32C278.795 276.805 279.28 277.496 279.56 278.392C279.859 279.288 280.008 280.343 280.008 281.556V286.26C280.008 287.473 279.859 288.528 279.56 289.424C279.28 290.32 278.795 291.011 278.104 291.496C277.432 291.981 276.499 292.224 275.304 292.224ZM275.304 290.012C275.883 290.012 276.284 289.844 276.508 289.508C276.751 289.172 276.891 288.733 276.928 288.192C276.984 287.632 277.012 287.053 277.012 286.456V281.388C277.012 280.772 276.984 280.193 276.928 279.652C276.891 279.111 276.751 278.672 276.508 278.336C276.284 277.981 275.883 277.804 275.304 277.804C274.725 277.804 274.315 277.981 274.072 278.336C273.829 278.672 273.68 279.111 273.624 279.652C273.587 280.193 273.568 280.772 273.568 281.388V286.456C273.568 287.053 273.587 287.632 273.624 288.192C273.68 288.733 273.829 289.172 274.072 289.508C274.315 289.844 274.725 290.012 275.304 290.012ZM285.07 292.224C284.436 292.224 283.941 292.056 283.586 291.72C283.232 291.384 282.98 290.964 282.83 290.46C282.7 289.956 282.634 289.443 282.634 288.92V275.816H285.63V288.024C285.63 288.603 285.714 289.06 285.882 289.396C286.05 289.713 286.396 289.872 286.918 289.872C287.254 289.872 287.6 289.779 287.954 289.592C288.328 289.387 288.682 289.144 289.018 288.864V275.816H292.014V292H289.018V290.404C288.496 290.908 287.898 291.337 287.226 291.692C286.573 292.047 285.854 292.224 285.07 292.224ZM298.83 292.224C297.505 292.224 296.441 291.813 295.638 290.992C294.836 290.152 294.378 289.051 294.266 287.688L296.758 286.932C296.908 287.959 297.16 288.733 297.514 289.256C297.869 289.76 298.392 290.012 299.082 290.012C299.624 290.012 300.034 289.863 300.314 289.564C300.594 289.247 300.734 288.827 300.734 288.304C300.734 287.837 300.632 287.417 300.426 287.044C300.221 286.671 299.885 286.288 299.418 285.896L296.646 283.516C296.086 283.031 295.61 282.489 295.218 281.892C294.845 281.295 294.658 280.52 294.658 279.568C294.658 278.709 294.826 277.991 295.162 277.412C295.517 276.815 296.002 276.367 296.618 276.068C297.253 275.751 297.99 275.592 298.83 275.592C300.118 275.592 301.098 276.012 301.77 276.852C302.461 277.673 302.853 278.672 302.946 279.848L300.93 280.604C300.856 280.044 300.744 279.559 300.594 279.148C300.445 278.719 300.24 278.392 299.978 278.168C299.717 277.925 299.372 277.804 298.942 277.804C298.457 277.804 298.065 277.972 297.766 278.308C297.486 278.625 297.346 279.008 297.346 279.456C297.346 279.736 297.402 280.016 297.514 280.296C297.645 280.557 297.86 280.819 298.158 281.08L301.014 283.712C301.406 284.067 301.77 284.449 302.106 284.86C302.461 285.271 302.75 285.737 302.974 286.26C303.198 286.783 303.31 287.389 303.31 288.08C303.31 288.995 303.124 289.76 302.75 290.376C302.377 290.992 301.854 291.459 301.182 291.776C300.51 292.075 299.726 292.224 298.83 292.224ZM305.635 295.668L305.159 294.38C305.663 294.212 306.055 293.913 306.335 293.484C306.634 293.073 306.783 292.579 306.783 292H305.187V288.78H308.267V291.944C308.267 292.933 308.052 293.717 307.623 294.296C307.194 294.893 306.531 295.351 305.635 295.668ZM56.264 333.224C54.9387 333.224 53.8747 332.813 53.072 331.992C52.2693 331.152 51.812 330.051 51.7 328.688L54.192 327.932C54.3413 328.959 54.5933 329.733 54.948 330.256C55.3027 330.76 55.8253 331.012 56.516 331.012C57.0573 331.012 57.468 330.863 57.748 330.564C58.028 330.247 58.168 329.827 58.168 329.304C58.168 328.837 58.0653 328.417 57.86 328.044C57.6547 327.671 57.3187 327.288 56.852 326.896L54.08 324.516C53.52 324.031 53.044 323.489 52.652 322.892C52.2787 322.295 52.092 321.52 52.092 320.568C52.092 319.709 52.26 318.991 52.596 318.412C52.9507 317.815 53.436 317.367 54.052 317.068C54.6867 316.751 55.424 316.592 56.264 316.592C57.552 316.592 58.532 317.012 59.204 317.852C59.8947 318.673 60.2867 319.672 60.38 320.848L58.364 321.604C58.2893 321.044 58.1773 320.559 58.028 320.148C57.8787 319.719 57.6733 319.392 57.412 319.168C57.1507 318.925 56.8053 318.804 56.376 318.804C55.8907 318.804 55.4987 318.972 55.2 319.308C54.92 319.625 54.78 320.008 54.78 320.456C54.78 320.736 54.836 321.016 54.948 321.296C55.0787 321.557 55.2933 321.819 55.592 322.08L58.448 324.712C58.84 325.067 59.204 325.449 59.54 325.86C59.8947 326.271 60.184 326.737 60.408 327.26C60.632 327.783 60.744 328.389 60.744 329.08C60.744 329.995 60.5573 330.76 60.184 331.376C59.8107 331.992 59.288 332.459 58.616 332.776C57.944 333.075 57.16 333.224 56.264 333.224ZM62.9847 338.32V316.816H65.9807V318.104C66.3353 317.693 66.7647 317.339 67.2687 317.04C67.7727 316.741 68.37 316.592 69.0607 316.592C69.9007 316.592 70.5633 316.816 71.0487 317.264C71.5527 317.693 71.926 318.244 72.1687 318.916C72.4113 319.569 72.57 320.241 72.6447 320.932C72.7193 321.604 72.7567 322.183 72.7567 322.668V326.588C72.7567 327.727 72.6447 328.809 72.4207 329.836C72.1967 330.844 71.786 331.665 71.1887 332.3C70.61 332.916 69.7887 333.224 68.7247 333.224C68.146 333.224 67.6327 333.084 67.1847 332.804C66.7367 332.505 66.3353 332.169 65.9807 331.796V338.32H62.9847ZM68.1367 330.872C68.6593 330.872 69.0327 330.685 69.2567 330.312C69.4807 329.92 69.6207 329.397 69.6767 328.744C69.7327 328.091 69.7607 327.372 69.7607 326.588V322.668C69.7607 321.996 69.7233 321.38 69.6487 320.82C69.574 320.241 69.4153 319.784 69.1727 319.448C68.93 319.112 68.5473 318.944 68.0247 318.944C67.6327 318.944 67.2593 319.028 66.9047 319.196C66.55 319.364 66.242 319.56 65.9807 319.784V330.144C66.2607 330.349 66.578 330.527 66.9327 330.676C67.2873 330.807 67.6887 330.872 68.1367 330.872ZM79.9608 333.224C78.6914 333.224 77.7114 332.981 77.0208 332.496C76.3301 331.992 75.8448 331.264 75.5648 330.312C75.3034 329.341 75.1728 328.156 75.1728 326.756V323.06C75.1728 321.623 75.3128 320.428 75.5928 319.476C75.8728 318.524 76.3581 317.805 77.0488 317.32C77.7581 316.835 78.7288 316.592 79.9608 316.592C81.3234 316.592 82.3221 316.872 82.9568 317.432C83.6101 317.992 84.0394 318.804 84.2448 319.868C84.4501 320.913 84.5528 322.173 84.5528 323.648V324.964H78.1688V328.212C78.1688 328.865 78.2248 329.397 78.3368 329.808C78.4674 330.219 78.6634 330.527 78.9248 330.732C79.2048 330.919 79.5594 331.012 79.9888 331.012C80.4368 331.012 80.7728 330.909 80.9968 330.704C81.2394 330.48 81.3981 330.172 81.4728 329.78C81.5661 329.369 81.6128 328.893 81.6128 328.352V327.372H84.5248V327.988C84.5248 329.612 84.1794 330.891 83.4888 331.824C82.7981 332.757 81.6221 333.224 79.9608 333.224ZM78.1688 323.34H81.6128V321.884C81.6128 321.212 81.5754 320.652 81.5008 320.204C81.4261 319.737 81.2674 319.392 81.0248 319.168C80.8008 318.925 80.4368 318.804 79.9328 318.804C79.4474 318.804 79.0741 318.916 78.8128 319.14C78.5701 319.364 78.4021 319.747 78.3088 320.288C78.2154 320.811 78.1688 321.539 78.1688 322.472V323.34ZM87.2659 333V316.816H90.2619V318.412C90.8032 317.908 91.4006 317.479 92.0539 317.124C92.7072 316.769 93.4259 316.592 94.2099 316.592C94.8632 316.592 95.3579 316.76 95.6939 317.096C96.0486 317.432 96.2912 317.852 96.4219 318.356C96.5712 318.86 96.6459 319.373 96.6459 319.896V333H93.6499V320.764C93.6499 320.185 93.5659 319.737 93.3979 319.42C93.2299 319.103 92.8846 318.944 92.3619 318.944C92.0259 318.944 91.6712 319.047 91.2979 319.252C90.9432 319.439 90.5979 319.672 90.2619 319.952V333H87.2659ZM103.323 333.224C101.96 333.224 100.943 332.729 100.271 331.74C99.5986 330.732 99.2626 329.033 99.2626 326.644V323.508C99.2626 322.276 99.3653 321.137 99.5706 320.092C99.7759 319.028 100.159 318.179 100.719 317.544C101.297 316.909 102.137 316.592 103.239 316.592C103.78 316.592 104.275 316.713 104.723 316.956C105.171 317.199 105.572 317.497 105.927 317.852V310.32H108.923V333H105.927V331.964C105.572 332.337 105.18 332.645 104.751 332.888C104.34 333.112 103.864 333.224 103.323 333.224ZM104.079 330.872C104.359 330.872 104.657 330.825 104.975 330.732C105.292 330.62 105.609 330.461 105.927 330.256V319.644C105.665 319.457 105.376 319.299 105.059 319.168C104.741 319.019 104.396 318.944 104.023 318.944C103.332 318.944 102.865 319.28 102.623 319.952C102.38 320.605 102.259 321.399 102.259 322.332V326.896C102.259 327.643 102.296 328.324 102.371 328.94C102.464 329.537 102.641 330.013 102.903 330.368C103.164 330.704 103.556 330.872 104.079 330.872ZM112.153 333V316.816H115.149V333H112.153ZM112.153 314.408V311.272H115.149V314.408H112.153ZM118.356 333V316.816H121.352V318.412C121.893 317.908 122.49 317.479 123.144 317.124C123.797 316.769 124.516 316.592 125.3 316.592C125.953 316.592 126.448 316.76 126.784 317.096C127.138 317.432 127.381 317.852 127.512 318.356C127.661 318.86 127.736 319.373 127.736 319.896V333H124.74V320.764C124.74 320.185 124.656 319.737 124.488 319.42C124.32 319.103 123.974 318.944 123.452 318.944C123.116 318.944 122.761 319.047 122.388 319.252C122.033 319.439 121.688 319.672 121.352 319.952V333H118.356ZM134.86 338.012C133.89 338.012 133.012 337.909 132.228 337.704C131.444 337.499 130.828 337.172 130.38 336.724C129.932 336.276 129.708 335.688 129.708 334.96C129.708 334.437 129.82 333.98 130.044 333.588C130.268 333.196 130.558 332.86 130.912 332.58C131.267 332.281 131.64 332.039 132.032 331.852C131.51 331.703 131.118 331.469 130.856 331.152C130.595 330.816 130.464 330.471 130.464 330.116C130.464 329.519 130.623 329.005 130.94 328.576C131.258 328.147 131.696 327.68 132.256 327.176C131.64 326.709 131.174 326.112 130.856 325.384C130.539 324.656 130.38 323.648 130.38 322.36C130.38 321.091 130.548 320.036 130.884 319.196C131.239 318.337 131.752 317.693 132.424 317.264C133.115 316.816 133.955 316.592 134.944 316.592C135.822 316.592 136.522 316.741 137.044 317.04C137.586 317.339 137.996 317.787 138.276 318.384C138.37 318.235 138.622 317.983 139.032 317.628C139.443 317.255 139.919 316.947 140.46 316.704L140.908 316.508L141.664 318.44C141.422 318.477 141.095 318.571 140.684 318.72C140.292 318.851 139.919 318.991 139.564 319.14C139.228 319.271 139.014 319.383 138.92 319.476C139.051 319.793 139.163 320.251 139.256 320.848C139.368 321.445 139.424 321.977 139.424 322.444C139.424 323.545 139.284 324.516 139.004 325.356C138.724 326.196 138.258 326.859 137.604 327.344C136.97 327.811 136.083 328.044 134.944 328.044C134.702 328.044 134.44 328.025 134.16 327.988C133.88 327.951 133.628 327.904 133.404 327.848C133.292 328.016 133.171 328.212 133.04 328.436C132.928 328.66 132.872 328.875 132.872 329.08C132.872 329.285 132.975 329.453 133.18 329.584C133.404 329.696 133.75 329.771 134.216 329.808L136.736 330.032C138.006 330.144 138.948 330.527 139.564 331.18C140.18 331.833 140.488 332.767 140.488 333.98C140.488 334.857 140.283 335.595 139.872 336.192C139.462 336.808 138.836 337.265 137.996 337.564C137.175 337.863 136.13 338.012 134.86 338.012ZM135.084 335.66C136.148 335.66 136.932 335.529 137.436 335.268C137.94 335.025 138.192 334.624 138.192 334.064C138.192 333.728 138.127 333.448 137.996 333.224C137.884 333 137.67 332.823 137.352 332.692C137.035 332.561 136.578 332.468 135.98 332.412L133.432 332.188C133.227 332.393 133.031 332.599 132.844 332.804C132.658 333.009 132.508 333.224 132.396 333.448C132.284 333.691 132.228 333.943 132.228 334.204C132.228 334.689 132.434 335.053 132.844 335.296C133.255 335.539 134.002 335.66 135.084 335.66ZM134.944 325.944C135.374 325.944 135.71 325.869 135.952 325.72C136.214 325.552 136.41 325.319 136.54 325.02C136.671 324.703 136.755 324.32 136.792 323.872C136.848 323.424 136.876 322.92 136.876 322.36C136.876 321.8 136.848 321.296 136.792 320.848C136.755 320.381 136.671 319.989 136.54 319.672C136.428 319.336 136.242 319.084 135.98 318.916C135.738 318.748 135.402 318.664 134.972 318.664C134.562 318.664 134.216 318.748 133.936 318.916C133.675 319.084 133.479 319.327 133.348 319.644C133.218 319.943 133.124 320.325 133.068 320.792C133.012 321.24 132.984 321.763 132.984 322.36C132.984 322.864 133.003 323.34 133.04 323.788C133.096 324.217 133.19 324.591 133.32 324.908C133.47 325.225 133.675 325.477 133.936 325.664C134.198 325.851 134.534 325.944 134.944 325.944ZM149.227 333V316.816H151.999V318.356C152.54 317.74 153.138 317.283 153.791 316.984C154.444 316.685 155.116 316.536 155.807 316.536C156.404 316.536 156.936 316.685 157.403 316.984C157.888 317.283 158.234 317.815 158.439 318.58C159.018 317.871 159.643 317.357 160.315 317.04C161.006 316.704 161.724 316.536 162.471 316.536C162.994 316.536 163.47 316.667 163.899 316.928C164.328 317.171 164.674 317.572 164.935 318.132C165.196 318.673 165.327 319.392 165.327 320.288V333H162.583V320.484C162.583 319.7 162.452 319.177 162.191 318.916C161.948 318.636 161.612 318.496 161.183 318.496C160.772 318.496 160.343 318.617 159.895 318.86C159.447 319.084 159.036 319.401 158.663 319.812C158.663 319.887 158.663 319.961 158.663 320.036C158.663 320.111 158.663 320.195 158.663 320.288V333H155.919V320.484C155.919 319.7 155.788 319.177 155.527 318.916C155.284 318.636 154.948 318.496 154.519 318.496C154.108 318.496 153.679 318.617 153.231 318.86C152.802 319.084 152.391 319.401 151.999 319.812V333H149.227ZM172.71 333.224C171.515 333.224 170.573 332.981 169.882 332.496C169.191 332.011 168.697 331.32 168.398 330.424C168.118 329.528 167.978 328.473 167.978 327.26V322.556C167.978 321.343 168.118 320.288 168.398 319.392C168.697 318.496 169.191 317.805 169.882 317.32C170.573 316.835 171.515 316.592 172.71 316.592C173.905 316.592 174.838 316.835 175.51 317.32C176.201 317.805 176.686 318.496 176.966 319.392C177.265 320.288 177.414 321.343 177.414 322.556V327.26C177.414 328.473 177.265 329.528 176.966 330.424C176.686 331.32 176.201 332.011 175.51 332.496C174.838 332.981 173.905 333.224 172.71 333.224ZM172.71 331.012C173.289 331.012 173.69 330.844 173.914 330.508C174.157 330.172 174.297 329.733 174.334 329.192C174.39 328.632 174.418 328.053 174.418 327.456V322.388C174.418 321.772 174.39 321.193 174.334 320.652C174.297 320.111 174.157 319.672 173.914 319.336C173.69 318.981 173.289 318.804 172.71 318.804C172.131 318.804 171.721 318.981 171.478 319.336C171.235 319.672 171.086 320.111 171.03 320.652C170.993 321.193 170.974 321.772 170.974 322.388V327.456C170.974 328.053 170.993 328.632 171.03 329.192C171.086 329.733 171.235 330.172 171.478 330.508C171.721 330.844 172.131 331.012 172.71 331.012ZM180.153 333V316.816H183.149V318.412C183.69 317.908 184.287 317.479 184.941 317.124C185.594 316.769 186.313 316.592 187.097 316.592C187.75 316.592 188.245 316.76 188.581 317.096C188.935 317.432 189.178 317.852 189.309 318.356C189.458 318.86 189.533 319.373 189.533 319.896V333H186.537V320.764C186.537 320.185 186.453 319.737 186.285 319.42C186.117 319.103 185.771 318.944 185.249 318.944C184.913 318.944 184.558 319.047 184.185 319.252C183.83 319.439 183.485 319.672 183.149 319.952V333H180.153ZM196.937 333.224C195.668 333.224 194.688 332.981 193.997 332.496C193.307 331.992 192.821 331.264 192.541 330.312C192.28 329.341 192.149 328.156 192.149 326.756V323.06C192.149 321.623 192.289 320.428 192.569 319.476C192.849 318.524 193.335 317.805 194.025 317.32C194.735 316.835 195.705 316.592 196.937 316.592C198.3 316.592 199.299 316.872 199.933 317.432C200.587 317.992 201.016 318.804 201.221 319.868C201.427 320.913 201.529 322.173 201.529 323.648V324.964H195.145V328.212C195.145 328.865 195.201 329.397 195.313 329.808C195.444 330.219 195.64 330.527 195.901 330.732C196.181 330.919 196.536 331.012 196.965 331.012C197.413 331.012 197.749 330.909 197.973 330.704C198.216 330.48 198.375 330.172 198.449 329.78C198.543 329.369 198.589 328.893 198.589 328.352V327.372H201.501V327.988C201.501 329.612 201.156 330.891 200.465 331.824C199.775 332.757 198.599 333.224 196.937 333.224ZM195.145 323.34H198.589V321.884C198.589 321.212 198.552 320.652 198.477 320.204C198.403 319.737 198.244 319.392 198.001 319.168C197.777 318.925 197.413 318.804 196.909 318.804C196.424 318.804 196.051 318.916 195.789 319.14C195.547 319.364 195.379 319.747 195.285 320.288C195.192 320.811 195.145 321.539 195.145 322.472V323.34ZM203.99 337.06V334.764C204.718 334.764 205.297 334.727 205.726 334.652C206.156 334.596 206.464 334.475 206.65 334.288C206.837 334.12 206.93 333.877 206.93 333.56C206.93 333.392 206.865 333.019 206.734 332.44C206.604 331.861 206.464 331.245 206.314 330.592L203.066 316.816H206.09L208.274 328.912L210.374 316.816H213.398L209.534 333.896C209.366 334.68 209.058 335.296 208.61 335.744C208.162 336.211 207.584 336.547 206.874 336.752C206.184 336.957 205.344 337.06 204.354 337.06H203.99ZM221.606 333V316.816H224.378V318.356C224.919 317.74 225.516 317.283 226.17 316.984C226.823 316.685 227.495 316.536 228.186 316.536C228.783 316.536 229.315 316.685 229.782 316.984C230.267 317.283 230.612 317.815 230.818 318.58C231.396 317.871 232.022 317.357 232.694 317.04C233.384 316.704 234.103 316.536 234.85 316.536C235.372 316.536 235.848 316.667 236.278 316.928C236.707 317.171 237.052 317.572 237.314 318.132C237.575 318.673 237.706 319.392 237.706 320.288V333H234.962V320.484C234.962 319.7 234.831 319.177 234.57 318.916C234.327 318.636 233.991 318.496 233.562 318.496C233.151 318.496 232.722 318.617 232.274 318.86C231.826 319.084 231.415 319.401 231.042 319.812C231.042 319.887 231.042 319.961 231.042 320.036C231.042 320.111 231.042 320.195 231.042 320.288V333H228.298V320.484C228.298 319.7 228.167 319.177 227.906 318.916C227.663 318.636 227.327 318.496 226.898 318.496C226.487 318.496 226.058 318.617 225.61 318.86C225.18 319.084 224.77 319.401 224.378 319.812V333H221.606ZM243.549 333.224C242.914 333.224 242.354 333.047 241.869 332.692C241.384 332.319 241.001 331.852 240.721 331.292C240.441 330.713 240.301 330.107 240.301 329.472C240.301 328.464 240.469 327.615 240.805 326.924C241.141 326.233 241.598 325.655 242.177 325.188C242.774 324.703 243.456 324.283 244.221 323.928C245.005 323.573 245.826 323.228 246.685 322.892V321.744C246.685 321.091 246.648 320.549 246.573 320.12C246.498 319.691 246.34 319.373 246.097 319.168C245.873 318.944 245.528 318.832 245.061 318.832C244.65 318.832 244.314 318.925 244.053 319.112C243.81 319.299 243.633 319.569 243.521 319.924C243.409 320.26 243.353 320.661 243.353 321.128V321.94L240.385 321.828C240.422 320.036 240.833 318.72 241.617 317.88C242.401 317.021 243.614 316.592 245.257 316.592C246.862 316.592 248.001 317.031 248.673 317.908C249.345 318.785 249.681 320.055 249.681 321.716V329.108C249.681 329.612 249.69 330.097 249.709 330.564C249.746 331.031 249.784 331.469 249.821 331.88C249.877 332.272 249.924 332.645 249.961 333H247.217C247.161 332.701 247.086 332.328 246.993 331.88C246.918 331.413 246.862 330.993 246.825 330.62C246.638 331.255 246.274 331.852 245.733 332.412C245.21 332.953 244.482 333.224 243.549 333.224ZM244.725 330.648C245.024 330.648 245.304 330.564 245.565 330.396C245.826 330.228 246.06 330.041 246.265 329.836C246.47 329.612 246.61 329.435 246.685 329.304V324.712C246.218 324.973 245.78 325.235 245.369 325.496C244.958 325.757 244.594 326.037 244.277 326.336C243.978 326.616 243.736 326.943 243.549 327.316C243.381 327.671 243.297 328.081 243.297 328.548C243.297 329.201 243.418 329.715 243.661 330.088C243.904 330.461 244.258 330.648 244.725 330.648ZM252.615 332.972V310.292H255.611V323.816L259.979 316.816H263.115L259.307 323.144L263.003 333H260.007L256.983 324.712L255.611 326.784V332.972H252.615ZM269.043 333.224C267.773 333.224 266.793 332.981 266.103 332.496C265.412 331.992 264.927 331.264 264.647 330.312C264.385 329.341 264.255 328.156 264.255 326.756V323.06C264.255 321.623 264.395 320.428 264.675 319.476C264.955 318.524 265.44 317.805 266.131 317.32C266.84 316.835 267.811 316.592 269.043 316.592C270.405 316.592 271.404 316.872 272.039 317.432C272.692 317.992 273.121 318.804 273.327 319.868C273.532 320.913 273.635 322.173 273.635 323.648V324.964H267.251V328.212C267.251 328.865 267.307 329.397 267.419 329.808C267.549 330.219 267.745 330.527 268.007 330.732C268.287 330.919 268.641 331.012 269.071 331.012C269.519 331.012 269.855 330.909 270.079 330.704C270.321 330.48 270.48 330.172 270.555 329.78C270.648 329.369 270.695 328.893 270.695 328.352V327.372H273.607V327.988C273.607 329.612 273.261 330.891 272.571 331.824C271.88 332.757 270.704 333.224 269.043 333.224ZM267.251 323.34H270.695V321.884C270.695 321.212 270.657 320.652 270.583 320.204C270.508 319.737 270.349 319.392 270.107 319.168C269.883 318.925 269.519 318.804 269.015 318.804C268.529 318.804 268.156 318.916 267.895 319.14C267.652 319.364 267.484 319.747 267.391 320.288C267.297 320.811 267.251 321.539 267.251 322.472V323.34ZM280.1 333.224C278.775 333.224 277.711 332.813 276.908 331.992C276.105 331.152 275.648 330.051 275.536 328.688L278.028 327.932C278.177 328.959 278.429 329.733 278.784 330.256C279.139 330.76 279.661 331.012 280.352 331.012C280.893 331.012 281.304 330.863 281.584 330.564C281.864 330.247 282.004 329.827 282.004 329.304C282.004 328.837 281.901 328.417 281.696 328.044C281.491 327.671 281.155 327.288 280.688 326.896L277.916 324.516C277.356 324.031 276.88 323.489 276.488 322.892C276.115 322.295 275.928 321.52 275.928 320.568C275.928 319.709 276.096 318.991 276.432 318.412C276.787 317.815 277.272 317.367 277.888 317.068C278.523 316.751 279.26 316.592 280.1 316.592C281.388 316.592 282.368 317.012 283.04 317.852C283.731 318.673 284.123 319.672 284.216 320.848L282.2 321.604C282.125 321.044 282.013 320.559 281.864 320.148C281.715 319.719 281.509 319.392 281.248 319.168C280.987 318.925 280.641 318.804 280.212 318.804C279.727 318.804 279.335 318.972 279.036 319.308C278.756 319.625 278.616 320.008 278.616 320.456C278.616 320.736 278.672 321.016 278.784 321.296C278.915 321.557 279.129 321.819 279.428 322.08L282.284 324.712C282.676 325.067 283.04 325.449 283.376 325.86C283.731 326.271 284.02 326.737 284.244 327.26C284.468 327.783 284.58 328.389 284.58 329.08C284.58 329.995 284.393 330.76 284.02 331.376C283.647 331.992 283.124 332.459 282.452 332.776C281.78 333.075 280.996 333.224 280.1 333.224ZM293.219 333V316.816H295.991V318.356C296.532 317.74 297.13 317.283 297.783 316.984C298.436 316.685 299.108 316.536 299.799 316.536C300.396 316.536 300.928 316.685 301.395 316.984C301.88 317.283 302.226 317.815 302.431 318.58C303.01 317.871 303.635 317.357 304.307 317.04C304.998 316.704 305.716 316.536 306.463 316.536C306.986 316.536 307.462 316.667 307.891 316.928C308.32 317.171 308.666 317.572 308.927 318.132C309.188 318.673 309.319 319.392 309.319 320.288V333H306.575V320.484C306.575 319.7 306.444 319.177 306.183 318.916C305.94 318.636 305.604 318.496 305.175 318.496C304.764 318.496 304.335 318.617 303.887 318.86C303.439 319.084 303.028 319.401 302.655 319.812C302.655 319.887 302.655 319.961 302.655 320.036C302.655 320.111 302.655 320.195 302.655 320.288V333H299.911V320.484C299.911 319.7 299.78 319.177 299.519 318.916C299.276 318.636 298.94 318.496 298.511 318.496C298.1 318.496 297.671 318.617 297.223 318.86C296.794 319.084 296.383 319.401 295.991 319.812V333H293.219ZM316.73 333.224C315.461 333.224 314.481 332.981 313.79 332.496C313.1 331.992 312.614 331.264 312.334 330.312C312.073 329.341 311.942 328.156 311.942 326.756V323.06C311.942 321.623 312.082 320.428 312.362 319.476C312.642 318.524 313.128 317.805 313.818 317.32C314.528 316.835 315.498 316.592 316.73 316.592C318.093 316.592 319.092 316.872 319.726 317.432C320.38 317.992 320.809 318.804 321.014 319.868C321.22 320.913 321.322 322.173 321.322 323.648V324.964H314.938V328.212C314.938 328.865 314.994 329.397 315.106 329.808C315.237 330.219 315.433 330.527 315.694 330.732C315.974 330.919 316.329 331.012 316.758 331.012C317.206 331.012 317.542 330.909 317.766 330.704C318.009 330.48 318.168 330.172 318.242 329.78C318.336 329.369 318.382 328.893 318.382 328.352V327.372H321.294V327.988C321.294 329.612 320.949 330.891 320.258 331.824C319.568 332.757 318.392 333.224 316.73 333.224ZM314.938 323.34H318.382V321.884C318.382 321.212 318.345 320.652 318.27 320.204C318.196 319.737 318.037 319.392 317.794 319.168C317.57 318.925 317.206 318.804 316.702 318.804C316.217 318.804 315.844 318.916 315.582 319.14C315.34 319.364 315.172 319.747 315.078 320.288C314.985 320.811 314.938 321.539 314.938 322.472V323.34ZM53.464 374V360.028H51.532V357.816H53.464V356.976C53.464 355.968 53.5387 355.109 53.688 354.4C53.856 353.672 54.192 353.112 54.696 352.72C55.2 352.328 55.956 352.132 56.964 352.132C57.3373 352.132 57.664 352.151 57.944 352.188C58.2427 352.207 58.5693 352.253 58.924 352.328V354.512C58.756 354.475 58.5693 354.447 58.364 354.428C58.1587 354.391 57.972 354.372 57.804 354.372C57.2253 354.372 56.852 354.568 56.684 354.96C56.5347 355.333 56.46 355.837 56.46 356.472V357.816H58.924V360.028H56.46V374H53.464ZM65.0311 374.224C63.7617 374.224 62.7817 373.981 62.0911 373.496C61.4004 372.992 60.9151 372.264 60.6351 371.312C60.3737 370.341 60.2431 369.156 60.2431 367.756V364.06C60.2431 362.623 60.3831 361.428 60.6631 360.476C60.9431 359.524 61.4284 358.805 62.1191 358.32C62.8284 357.835 63.7991 357.592 65.0311 357.592C66.3937 357.592 67.3924 357.872 68.0271 358.432C68.6804 358.992 69.1097 359.804 69.3151 360.868C69.5204 361.913 69.6231 363.173 69.6231 364.648V365.964H63.2391V369.212C63.2391 369.865 63.2951 370.397 63.4071 370.808C63.5377 371.219 63.7337 371.527 63.9951 371.732C64.2751 371.919 64.6297 372.012 65.0591 372.012C65.5071 372.012 65.8431 371.909 66.0671 371.704C66.3097 371.48 66.4684 371.172 66.5431 370.78C66.6364 370.369 66.6831 369.893 66.6831 369.352V368.372H69.5951V368.988C69.5951 370.612 69.2497 371.891 68.5591 372.824C67.8684 373.757 66.6924 374.224 65.0311 374.224ZM63.2391 364.34H66.6831V362.884C66.6831 362.212 66.6457 361.652 66.5711 361.204C66.4964 360.737 66.3377 360.392 66.0951 360.168C65.8711 359.925 65.5071 359.804 65.0031 359.804C64.5177 359.804 64.1444 359.916 63.8831 360.14C63.6404 360.364 63.4724 360.747 63.3791 361.288C63.2857 361.811 63.2391 362.539 63.2391 363.472V364.34ZM76.8162 374.224C75.5469 374.224 74.5669 373.981 73.8762 373.496C73.1856 372.992 72.7002 372.264 72.4202 371.312C72.1589 370.341 72.0282 369.156 72.0282 367.756V364.06C72.0282 362.623 72.1682 361.428 72.4482 360.476C72.7282 359.524 73.2136 358.805 73.9042 358.32C74.6136 357.835 75.5842 357.592 76.8162 357.592C78.1789 357.592 79.1776 357.872 79.8122 358.432C80.4656 358.992 80.8949 359.804 81.1002 360.868C81.3056 361.913 81.4082 363.173 81.4082 364.648V365.964H75.0242V369.212C75.0242 369.865 75.0802 370.397 75.1922 370.808C75.3229 371.219 75.5189 371.527 75.7802 371.732C76.0602 371.919 76.4149 372.012 76.8442 372.012C77.2922 372.012 77.6282 371.909 77.8522 371.704C78.0949 371.48 78.2536 371.172 78.3282 370.78C78.4216 370.369 78.4682 369.893 78.4682 369.352V368.372H81.3802V368.988C81.3802 370.612 81.0349 371.891 80.3442 372.824C79.6536 373.757 78.4776 374.224 76.8162 374.224ZM75.0242 364.34H78.4682V362.884C78.4682 362.212 78.4309 361.652 78.3562 361.204C78.2816 360.737 78.1229 360.392 77.8802 360.168C77.6562 359.925 77.2922 359.804 76.7882 359.804C76.3029 359.804 75.9296 359.916 75.6682 360.14C75.4256 360.364 75.2576 360.747 75.1642 361.288C75.0709 361.811 75.0242 362.539 75.0242 363.472V364.34ZM84.4014 374V351.32H87.3974V374H84.4014ZM102.714 374.224C102.136 374.224 101.613 374.084 101.146 373.804C100.698 373.505 100.306 373.179 99.9703 372.824V374H96.9743V351.32H99.9703V359.104C100.325 358.693 100.745 358.339 101.23 358.04C101.734 357.741 102.332 357.592 103.022 357.592C103.862 357.592 104.525 357.816 105.01 358.264C105.514 358.693 105.888 359.244 106.13 359.916C106.373 360.569 106.532 361.241 106.606 361.932C106.681 362.604 106.718 363.183 106.718 363.668V367.588C106.718 368.727 106.606 369.809 106.382 370.836C106.158 371.844 105.757 372.665 105.178 373.3C104.6 373.916 103.778 374.224 102.714 374.224ZM102.098 371.872C102.621 371.872 102.994 371.685 103.218 371.312C103.442 370.92 103.582 370.397 103.638 369.744C103.694 369.091 103.722 368.372 103.722 367.588V363.668C103.722 362.996 103.685 362.38 103.61 361.82C103.536 361.241 103.377 360.784 103.134 360.448C102.892 360.112 102.509 359.944 101.986 359.944C101.594 359.944 101.221 360.028 100.866 360.196C100.53 360.364 100.232 360.551 99.9703 360.756V371.144C100.232 371.349 100.54 371.527 100.894 371.676C101.268 371.807 101.669 371.872 102.098 371.872ZM113.922 374.224C112.652 374.224 111.672 373.981 110.982 373.496C110.291 372.992 109.806 372.264 109.526 371.312C109.264 370.341 109.134 369.156 109.134 367.756V364.06C109.134 362.623 109.274 361.428 109.554 360.476C109.834 359.524 110.319 358.805 111.01 358.32C111.719 357.835 112.69 357.592 113.922 357.592C115.284 357.592 116.283 357.872 116.918 358.432C117.571 358.992 118 359.804 118.206 360.868C118.411 361.913 118.514 363.173 118.514 364.648V365.964H112.13V369.212C112.13 369.865 112.186 370.397 112.298 370.808C112.428 371.219 112.624 371.527 112.886 371.732C113.166 371.919 113.52 372.012 113.95 372.012C114.398 372.012 114.734 371.909 114.958 371.704C115.2 371.48 115.359 371.172 115.434 370.78C115.527 370.369 115.574 369.893 115.574 369.352V368.372H118.486V368.988C118.486 370.612 118.14 371.891 117.45 372.824C116.759 373.757 115.583 374.224 113.922 374.224ZM112.13 364.34H115.574V362.884C115.574 362.212 115.536 361.652 115.462 361.204C115.387 360.737 115.228 360.392 114.986 360.168C114.762 359.925 114.398 359.804 113.894 359.804C113.408 359.804 113.035 359.916 112.774 360.14C112.531 360.364 112.363 360.747 112.27 361.288C112.176 361.811 112.13 362.539 112.13 363.472V364.34ZM125.539 374.224C124.699 374.224 124.018 374.065 123.495 373.748C122.991 373.431 122.618 372.983 122.375 372.404C122.151 371.825 122.039 371.144 122.039 370.36V359.804H120.331V357.816H122.039V353.084H125.035V357.816H127.639V359.804H125.035V370.164C125.035 370.799 125.138 371.256 125.343 371.536C125.548 371.797 125.94 371.928 126.519 371.928C126.668 371.928 126.836 371.919 127.023 371.9C127.228 371.881 127.424 371.863 127.611 371.844V374.056C127.238 374.112 126.892 374.149 126.575 374.168C126.258 374.205 125.912 374.224 125.539 374.224ZM134.152 374.224C133.312 374.224 132.631 374.065 132.108 373.748C131.604 373.431 131.231 372.983 130.988 372.404C130.764 371.825 130.652 371.144 130.652 370.36V359.804H128.944V357.816H130.652V353.084H133.648V357.816H136.252V359.804H133.648V370.164C133.648 370.799 133.751 371.256 133.956 371.536C134.161 371.797 134.553 371.928 135.132 371.928C135.281 371.928 135.449 371.919 135.636 371.9C135.841 371.881 136.037 371.863 136.224 371.844V374.056C135.851 374.112 135.505 374.149 135.188 374.168C134.871 374.205 134.525 374.224 134.152 374.224ZM142.933 374.224C141.664 374.224 140.684 373.981 139.993 373.496C139.303 372.992 138.817 372.264 138.537 371.312C138.276 370.341 138.145 369.156 138.145 367.756V364.06C138.145 362.623 138.285 361.428 138.565 360.476C138.845 359.524 139.331 358.805 140.021 358.32C140.731 357.835 141.701 357.592 142.933 357.592C144.296 357.592 145.295 357.872 145.929 358.432C146.583 358.992 147.012 359.804 147.217 360.868C147.423 361.913 147.525 363.173 147.525 364.648V365.964H141.141V369.212C141.141 369.865 141.197 370.397 141.309 370.808C141.44 371.219 141.636 371.527 141.897 371.732C142.177 371.919 142.532 372.012 142.961 372.012C143.409 372.012 143.745 371.909 143.969 371.704C144.212 371.48 144.371 371.172 144.445 370.78C144.539 370.369 144.585 369.893 144.585 369.352V368.372H147.497V368.988C147.497 370.612 147.152 371.891 146.461 372.824C145.771 373.757 144.595 374.224 142.933 374.224ZM141.141 364.34H144.585V362.884C144.585 362.212 144.548 361.652 144.473 361.204C144.399 360.737 144.24 360.392 143.997 360.168C143.773 359.925 143.409 359.804 142.905 359.804C142.42 359.804 142.047 359.916 141.785 360.14C141.543 360.364 141.375 360.747 141.281 361.288C141.188 361.811 141.141 362.539 141.141 363.472V364.34ZM150.323 374V357.816H153.319V360.112C153.916 359.123 154.513 358.46 155.111 358.124C155.708 357.788 156.305 357.62 156.903 357.62C156.977 357.62 157.043 357.62 157.099 357.62C157.173 357.62 157.267 357.629 157.379 357.648V360.952C157.155 360.859 156.893 360.784 156.595 360.728C156.315 360.653 156.025 360.616 155.727 360.616C155.26 360.616 154.831 360.728 154.439 360.952C154.065 361.157 153.692 361.568 153.319 362.184V374H150.323ZM159.095 374V370.668H162.091V374H159.095Z" fill="#2E2E2E"/>
</g>
</g>
</g>
<defs>
<filter id="filter0_d_46_2383" x="0" y="0" width="414" height="868" filterUnits="userSpaceOnUse" color-interpolation-filters="sRGB">
<feFlood flood-opacity="0" result="BackgroundImageFix"/>
<feColorMatrix in="SourceAlpha" type="matrix" values="0 0 0 0 0 0 0 0 0 0 0 0 0 0 0 0 0 0 127 0" result="hardAlpha"/>
<feOffset dx="4" dy="8"/>
<feGaussianBlur stdDeviation="6"/>
<feComposite in2="hardAlpha" operator="out"/>
<feColorMatrix type="matrix" values="0 0 0 0 0 0 0 0 0 0 0 0 0 0 0 0 0 0 0.25 0"/>
<feBlend mode="normal" in2="BackgroundImageFix" result="effect1_dropShadow_46_2383"/>
<feBlend mode="normal" in="SourceGraphic" in2="effect1_dropShadow_46_2383" result="shape"/>
</filter>
<filter id="filter1_bd_46_2383" x="31" y="270" width="345" height="525" filterUnits="userSpaceOnUse" color-interpolation-filters="sRGB">
<feFlood flood-opacity="0" result="BackgroundImageFix"/>
<feGaussianBlur in="BackgroundImageFix" stdDeviation="9"/>
<feComposite in2="SourceAlpha" operator="in" result="effect1_backgroundBlur_46_2383"/>
<feColorMatrix in="SourceAlpha" type="matrix" values="0 0 0 0 0 0 0 0 0 0 0 0 0 0 0 0 0 0 127 0" result="hardAlpha"/>
<feOffset dy="4"/>
<feGaussianBlur stdDeviation="2"/>
<feComposite in2="hardAlpha" operator="out"/>
<feColorMatrix type="matrix" values="0 0 0 0 0.251058 0 0 0 0 0.251058 0 0 0 0 0.251058 0 0 0 0.25 0"/>
<feBlend mode="normal" in2="effect1_backgroundBlur_46_2383" result="effect2_dropShadow_46_2383"/>
<feBlend mode="normal" in="SourceGraphic" in2="effect2_dropShadow_46_2383" result="shape"/>
</filter>
<filter id="filter2_d_46_2383" x="25" y="209" width="358" height="558" filterUnits="userSpaceOnUse" color-interpolation-filters="sRGB">
<feFlood flood-opacity="0" result="BackgroundImageFix"/>
<feColorMatrix in="SourceAlpha" type="matrix" values="0 0 0 0 0 0 0 0 0 0 0 0 0 0 0 0 0 0 127 0" result="hardAlpha"/>
<feOffset dx="1" dy="6"/>
<feGaussianBlur stdDeviation="4"/>
<feComposite in2="hardAlpha" operator="out"/>
<feColorMatrix type="matrix" values="0 0 0 0 0.237256 0 0 0 0 0.237256 0 0 0 0 0.237256 0 0 0 0.25 0"/>
<feBlend mode="normal" in2="BackgroundImageFix" result="effect1_dropShadow_46_2383"/>
<feBlend mode="normal" in="SourceGraphic" in2="effect1_dropShadow_46_2383" result="shape"/>
</filter>
<radialGradient id="paint0_radial_46_2383" cx="0" cy="0" r="1" gradientUnits="userSpaceOnUse" gradientTransform="translate(203 346.5) rotate(90) scale(501.5 312.665)">
<stop stop-color="#7E5989"/>
<stop offset="1" stop-color="#664A75"/>
</radialGradient>
<radialGradient id="paint1_radial_46_2383" cx="0" cy="0" r="1" gradientUnits="userSpaceOnUse" gradientTransform="translate(77.5 101) rotate(42.7795) scale(392.385 587.424)">
<stop stop-color="#FFF0DD" stop-opacity="0.15"/>
<stop offset="1" stop-color="#FFF0DD" stop-opacity="0"/>
</radialGradient>
<radialGradient id="paint2_radial_46_2383" cx="0" cy="0" r="1" gradientUnits="userSpaceOnUse" gradientTransform="translate(74 248.5) rotate(58.0367) scale(216.293 321.366)">
<stop stop-color="#FFF0DD"/>
<stop offset="1" stop-color="white" stop-opacity="0"/>
</radialGradient>
<clipPath id="clip0_46_2383">
<rect x="8" y="4" width="390" height="844" rx="30" fill="white"/>
</clipPath>
<clipPath id="clip1_46_2383">
<rect width="132.742" height="132.742" fill="white" transform="translate(125 34.5156)"/>
</clipPath>
</defs>
</svg>
