<svg width="414" height="868" viewBox="0 0 414 868" fill="none" xmlns="http://www.w3.org/2000/svg">
<g filter="url(#filter0_d_46_2337)">
<g clip-path="url(#clip0_46_2337)">
<rect x="8" y="4" width="390" height="844" rx="30" fill="url(#paint0_radial_46_2337)"/>
<rect x="8" y="4" width="390" height="844" rx="30" fill="url(#paint1_radial_46_2337)"/>
<path d="M178.352 785L176.504 773.66H177.82L179.038 781.808L180.564 773.702H181.684L183.224 781.85L184.414 773.66H185.702L183.882 785H182.734L181.152 776.6L179.556 785H178.352ZM188.206 785.112C187.889 785.112 187.609 785.023 187.366 784.846C187.123 784.659 186.932 784.426 186.792 784.146C186.652 783.857 186.582 783.553 186.582 783.236C186.582 782.732 186.666 782.307 186.834 781.962C187.002 781.617 187.231 781.327 187.52 781.094C187.819 780.851 188.159 780.641 188.542 780.464C188.934 780.287 189.345 780.114 189.774 779.946V779.372C189.774 779.045 189.755 778.775 189.718 778.56C189.681 778.345 189.601 778.187 189.48 778.084C189.368 777.972 189.195 777.916 188.962 777.916C188.757 777.916 188.589 777.963 188.458 778.056C188.337 778.149 188.248 778.285 188.192 778.462C188.136 778.63 188.108 778.831 188.108 779.064V779.47L186.624 779.414C186.643 778.518 186.848 777.86 187.24 777.44C187.632 777.011 188.239 776.796 189.06 776.796C189.863 776.796 190.432 777.015 190.768 777.454C191.104 777.893 191.272 778.527 191.272 779.358V783.054C191.272 783.306 191.277 783.549 191.286 783.782C191.305 784.015 191.323 784.235 191.342 784.44C191.37 784.636 191.393 784.823 191.412 785H190.04C190.012 784.851 189.975 784.664 189.928 784.44C189.891 784.207 189.863 783.997 189.844 783.81C189.751 784.127 189.569 784.426 189.298 784.706C189.037 784.977 188.673 785.112 188.206 785.112ZM188.794 783.824C188.943 783.824 189.083 783.782 189.214 783.698C189.345 783.614 189.461 783.521 189.564 783.418C189.667 783.306 189.737 783.217 189.774 783.152V780.856C189.541 780.987 189.321 781.117 189.116 781.248C188.911 781.379 188.729 781.519 188.57 781.668C188.421 781.808 188.299 781.971 188.206 782.158C188.122 782.335 188.08 782.541 188.08 782.774C188.08 783.101 188.141 783.357 188.262 783.544C188.383 783.731 188.561 783.824 188.794 783.824ZM192.851 785V773.66H194.349V785H192.851ZM196.05 785V773.66H197.548V785H196.05ZM201.35 785.112C200.715 785.112 200.225 784.991 199.88 784.748C199.534 784.496 199.292 784.132 199.152 783.656C199.021 783.171 198.956 782.578 198.956 781.878V780.03C198.956 779.311 199.026 778.714 199.166 778.238C199.306 777.762 199.548 777.403 199.894 777.16C200.248 776.917 200.734 776.796 201.35 776.796C202.031 776.796 202.53 776.936 202.848 777.216C203.174 777.496 203.389 777.902 203.492 778.434C203.594 778.957 203.646 779.587 203.646 780.324V780.982H200.454V782.606C200.454 782.933 200.482 783.199 200.538 783.404C200.603 783.609 200.701 783.763 200.832 783.866C200.972 783.959 201.149 784.006 201.364 784.006C201.588 784.006 201.756 783.955 201.868 783.852C201.989 783.74 202.068 783.586 202.106 783.39C202.152 783.185 202.176 782.947 202.176 782.676V782.186H203.632V782.494C203.632 783.306 203.459 783.945 203.114 784.412C202.768 784.879 202.18 785.112 201.35 785.112ZM200.454 780.17H202.176V779.442C202.176 779.106 202.157 778.826 202.12 778.602C202.082 778.369 202.003 778.196 201.882 778.084C201.77 777.963 201.588 777.902 201.336 777.902C201.093 777.902 200.906 777.958 200.776 778.07C200.654 778.182 200.57 778.373 200.524 778.644C200.477 778.905 200.454 779.269 200.454 779.736V780.17ZM207.158 785.112C206.738 785.112 206.397 785.033 206.136 784.874C205.884 784.715 205.697 784.491 205.576 784.202C205.464 783.913 205.408 783.572 205.408 783.18V777.902H204.554V776.908H205.408V774.542H206.906V776.908H208.208V777.902H206.906V783.082C206.906 783.399 206.957 783.628 207.06 783.768C207.163 783.899 207.359 783.964 207.648 783.964C207.723 783.964 207.807 783.959 207.9 783.95C208.003 783.941 208.101 783.931 208.194 783.922V785.028C208.007 785.056 207.835 785.075 207.676 785.084C207.517 785.103 207.345 785.112 207.158 785.112ZM214.104 785L212.256 773.66H213.572L214.79 781.808L216.316 773.702H217.436L218.976 781.85L220.166 773.66H221.454L219.634 785H218.486L216.904 776.6L215.308 785H214.104ZM222.819 785V776.908H224.317V785H222.819ZM222.819 775.704V774.136H224.317V775.704H222.819ZM225.612 785V783.992L228.09 778.028H225.864V776.908H229.7V777.72L227.208 783.866H229.644V785H225.612Z" fill="white"/>
<path fill-rule="evenodd" clip-rule="evenodd" d="M327 24H328C328.552 24 329 24.4477 329 25V31C329 31.5523 328.552 32 328 32H327C326.448 32 326 31.5523 326 31V25C326 24.4477 326.448 24 327 24Z" fill="#D1D1D6"/>
<path fill-rule="evenodd" clip-rule="evenodd" d="M322.5 26H323.5C324.052 26 324.5 26.4477 324.5 27V31C324.5 31.5523 324.052 32 323.5 32H322.5C321.948 32 321.5 31.5523 321.5 31V27C321.5 26.4477 321.948 26 322.5 26Z" fill="#D1D1D6"/>
<path fill-rule="evenodd" clip-rule="evenodd" d="M318 27.5H319C319.552 27.5 320 27.9477 320 28.5V31C320 31.5523 319.552 32 319 32H318C317.448 32 317 31.5523 317 31V28.5C317 27.9477 317.448 27.5 318 27.5Z" fill="#D1D1D6"/>
<path fill-rule="evenodd" clip-rule="evenodd" d="M331.5 22H332.5C333.052 22 333.5 22.4477 333.5 23V31C333.5 31.5523 333.052 32 332.5 32H331.5C330.948 32 330.5 31.5523 330.5 31V23C330.5 22.4477 330.948 22 331.5 22Z" fill="#EBEBF5" fill-opacity="0.3"/>
<path fill-rule="evenodd" clip-rule="evenodd" d="M327 24H328C328.552 24 329 24.4477 329 25V31C329 31.5523 328.552 32 328 32H327C326.448 32 326 31.5523 326 31V25C326 24.4477 326.448 24 327 24Z" fill="white"/>
<path fill-rule="evenodd" clip-rule="evenodd" d="M322.5 26H323.5C324.052 26 324.5 26.4477 324.5 27V31C324.5 31.5523 324.052 32 323.5 32H322.5C321.948 32 321.5 31.5523 321.5 31V27C321.5 26.4477 321.948 26 322.5 26Z" fill="white"/>
<path fill-rule="evenodd" clip-rule="evenodd" d="M318 27.5H319C319.552 27.5 320 27.9477 320 28.5V31C320 31.5523 319.552 32 319 32H318C317.448 32 317 31.5523 317 31V28.5C317 27.9477 317.448 27.5 318 27.5Z" fill="white"/>
<path d="M347.133 28.9395C347.772 28.9395 348.394 29.1075 348.941 29.4279L349.163 29.5577C349.331 29.6562 349.361 29.8865 349.223 30.024L347.329 31.9129C347.213 32.0289 347.024 32.0289 346.908 31.9129L345.026 30.0362C344.888 29.8993 344.917 29.6701 345.084 29.5709L345.303 29.4405C345.856 29.112 346.485 28.9395 347.133 28.9395Z" fill="white"/>
<path d="M347.133 25.4697C348.724 25.4697 350.251 25.9975 351.495 26.9748L351.671 27.1129C351.811 27.223 351.824 27.4305 351.697 27.5564L350.567 28.684C350.462 28.7883 350.297 28.8003 350.178 28.7121L350.04 28.6097C349.2 27.9851 348.186 27.6501 347.133 27.6501C346.073 27.6501 345.053 27.9893 344.21 28.621L344.072 28.7244C343.953 28.8133 343.787 28.8016 343.682 28.697L342.552 27.5697C342.426 27.4442 342.438 27.2372 342.578 27.1269L342.753 26.9886C344 26.0026 345.534 25.4697 347.133 25.4697Z" fill="white"/>
<path d="M347.133 22C349.657 22 352.072 22.8906 353.983 24.5229L354.146 24.6623C354.278 24.7749 354.285 24.9756 354.163 25.098L353.036 26.2219C352.926 26.3308 352.752 26.3385 352.634 26.2395L352.494 26.1228C350.989 24.8647 349.104 24.1804 347.133 24.1804C345.155 24.1804 343.263 24.8694 341.756 26.1354L341.617 26.2527C341.498 26.3521 341.324 26.3447 341.214 26.2356L340.087 25.1118C339.965 24.9895 339.972 24.7892 340.104 24.6765L340.266 24.5371C342.18 22.8959 344.601 22 347.133 22Z" fill="white"/>
<path d="M383 25C383.552 25 384 25.4477 384 26V28C384 28.5523 383.552 29 383 29V25Z" fill="#EBEBF5" fill-opacity="0.3"/>
<path fill-rule="evenodd" clip-rule="evenodd" d="M362 21H379C380.657 21 382 22.3431 382 24V30C382 31.6569 380.657 33 379 33H362C360.343 33 359 31.6569 359 30V24C359 22.3431 360.343 21 362 21ZM362 22C360.895 22 360 22.8954 360 24V30C360 31.1046 360.895 32 362 32H379C380.105 32 381 31.1046 381 30V24C381 22.8954 380.105 22 379 22H362Z" fill="#EBEBF5" fill-opacity="0.3"/>
<rect x="361" y="23" width="19" height="8" rx="1" fill="white"/>
<path d="M45.8672 32.0889C48.5552 32.0889 50.1519 29.9868 50.1519 26.4272C50.1519 25.0869 49.8955 23.959 49.4048 23.0874C48.6943 21.7324 47.4712 21 45.9258 21C43.626 21 42 22.5454 42 24.7134C42 26.7495 43.4648 28.229 45.479 28.229C46.7168 28.229 47.7202 27.6504 48.2183 26.647H48.2402C48.2402 26.647 48.2695 26.647 48.2769 26.647C48.2915 26.647 48.3428 26.647 48.3428 26.647C48.3428 29.064 47.4272 30.5068 45.8818 30.5068C44.9736 30.5068 44.2705 30.0088 44.0288 29.2104H42.1465C42.4614 30.9463 43.9336 32.0889 45.8672 32.0889ZM45.9331 26.7275C44.7173 26.7275 43.853 25.8633 43.853 24.6548C43.853 23.4756 44.7612 22.5747 45.9404 22.5747C47.1196 22.5747 48.0278 23.4902 48.0278 24.6841C48.0278 25.8633 47.1416 26.7275 45.9331 26.7275Z" fill="white"/>
<path d="M53.243 31.9863C53.9388 31.9863 54.4148 31.4883 54.4148 30.8291C54.4148 30.1626 53.9388 29.6719 53.243 29.6719C52.5545 29.6719 52.0711 30.1626 52.0711 30.8291C52.0711 31.4883 52.5545 31.9863 53.243 31.9863ZM53.243 26.4932C53.9388 26.4932 54.4148 26.0024 54.4148 25.3433C54.4148 24.6768 53.9388 24.186 53.243 24.186C52.5545 24.186 52.0711 24.6768 52.0711 25.3433C52.0711 26.0024 52.5545 26.4932 53.243 26.4932Z" fill="white"/>
<path d="M61.2706 31.8325H63.0797V29.8623H64.5079V28.2656H63.0797V21.2637H60.4137C58.546 24.0762 57.0592 26.4272 56.107 28.1777V29.8623H61.2706V31.8325ZM57.8575 28.1997C59.088 26.0317 60.1866 24.2959 61.1974 22.8018H61.2999V28.3096H57.8575V28.1997Z" fill="white"/>
<path d="M68.5365 31.8325H70.4262V21.2637H68.5438L65.7826 23.1973V25.0137L68.412 23.168H68.5365V31.8325Z" fill="white"/>
<g clip-path="url(#clip1_46_2337)">
<g opacity="0.2">
<path fill-rule="evenodd" clip-rule="evenodd" d="M171.427 334.82C171.769 334.82 172.101 334.929 172.376 335.132C172.65 335.335 172.852 335.621 172.952 335.947L179.09 356.109L197.443 362.816C197.745 362.927 198.007 363.127 198.194 363.39C198.38 363.653 198.482 363.966 198.487 364.289C198.491 364.611 198.398 364.927 198.219 365.195C198.04 365.463 197.784 365.67 197.484 365.79L179.252 373.032L172.952 394.171C172.854 394.499 172.652 394.786 172.378 394.991C172.103 395.195 171.77 395.306 171.427 395.306C171.085 395.306 170.751 395.195 170.477 394.991C170.202 394.786 170 394.499 169.902 394.171L163.602 373.032L145.37 365.79C145.071 365.67 144.814 365.463 144.635 365.195C144.456 364.927 144.363 364.611 144.367 364.289C144.372 363.966 144.474 363.653 144.66 363.39C144.847 363.127 145.109 362.927 145.411 362.816L163.764 356.109L169.905 335.947C170.005 335.621 170.206 335.336 170.48 335.133C170.754 334.93 171.086 334.82 171.427 334.82Z" fill="white"/>
<path d="M193.171 395.148C192.82 395.148 192.534 394.893 192.502 394.575C191.865 388.208 191.388 386.17 185.403 385.629C185.236 385.615 185.081 385.538 184.969 385.414C184.857 385.29 184.796 385.128 184.798 384.961C184.798 384.611 185.053 384.324 185.403 384.292C191.451 383.719 191.865 382.064 192.502 375.856C192.534 375.506 192.82 375.251 193.171 375.251C193.521 375.251 193.807 375.506 193.839 375.824C194.476 382.064 194.89 383.719 200.938 384.26C201.289 384.292 201.543 384.579 201.543 384.929C201.543 385.279 201.289 385.566 200.938 385.597C194.985 386.17 194.476 388.208 193.871 394.543C193.839 394.893 193.553 395.148 193.202 395.148H193.171Z" fill="black"/>
</g>
<path fill-rule="evenodd" clip-rule="evenodd" d="M166.652 333.229C166.993 333.228 167.326 333.337 167.6 333.54C167.875 333.743 168.077 334.029 168.177 334.355L174.314 354.517L192.667 361.224C192.97 361.335 193.232 361.535 193.418 361.798C193.605 362.061 193.707 362.375 193.711 362.697C193.716 363.019 193.622 363.335 193.443 363.603C193.264 363.871 193.008 364.079 192.709 364.198L174.477 371.44L168.177 392.579C168.078 392.907 167.877 393.195 167.602 393.399C167.328 393.604 166.994 393.714 166.652 393.714C166.309 393.714 165.976 393.604 165.701 393.399C165.426 393.195 165.225 392.907 165.127 392.579L158.827 371.44L140.595 364.198C140.295 364.079 140.039 363.871 139.86 363.603C139.681 363.335 139.587 363.019 139.592 362.697C139.596 362.375 139.699 362.061 139.885 361.798C140.072 361.535 140.333 361.335 140.636 361.224L158.989 354.517L165.13 334.355C165.23 334.029 165.431 333.744 165.705 333.541C165.979 333.338 166.311 333.229 166.652 333.229ZM166.652 340.283L161.803 356.201C161.731 356.437 161.606 356.653 161.436 356.832C161.266 357.011 161.058 357.148 160.826 357.232L145.65 362.784L160.721 368.769C160.944 368.858 161.144 368.997 161.306 369.174C161.469 369.352 161.588 369.564 161.657 369.794L166.655 386.552L171.647 369.794C171.715 369.564 171.835 369.352 171.997 369.174C172.159 368.997 172.359 368.858 172.583 368.769L187.653 362.784L172.478 357.239C172.246 357.154 172.037 357.017 171.867 356.838C171.698 356.659 171.572 356.443 171.5 356.207L166.652 340.283Z" fill="#FFD53E"/>
<path d="M191.324 392.506C191.006 392.506 190.719 392.251 190.688 391.933C190.114 386.139 189.669 384.292 184.352 383.783C184.034 383.751 183.779 383.465 183.779 383.146C183.779 382.828 184.034 382.541 184.352 382.51C189.796 382 190.114 380.599 190.688 374.805C190.688 374.487 191.006 374.232 191.324 374.232C191.643 374.232 191.929 374.487 191.961 374.805C192.534 380.599 192.884 382 198.296 382.51C198.614 382.541 198.869 382.828 198.869 383.146C198.869 383.465 198.614 383.751 198.296 383.783C192.948 384.292 192.534 386.139 191.961 391.965C191.961 392.283 191.674 392.538 191.324 392.538V392.506Z" fill="#FFD53E"/>
</g>
<g clip-path="url(#clip2_46_2337)">
<g opacity="0.2">
<path fill-rule="evenodd" clip-rule="evenodd" d="M219.729 398.491C220.07 398.49 220.403 398.599 220.677 398.802C220.952 399.005 221.154 399.291 221.254 399.618L227.392 419.779L245.745 426.487C246.047 426.597 246.309 426.798 246.495 427.061C246.682 427.323 246.784 427.637 246.789 427.959C246.793 428.281 246.7 428.597 246.521 428.865C246.342 429.133 246.085 429.341 245.786 429.46L227.554 436.703L221.254 457.841C221.156 458.169 220.954 458.457 220.679 458.661C220.405 458.866 220.071 458.976 219.729 458.976C219.386 458.976 219.053 458.866 218.778 458.661C218.504 458.457 218.302 458.169 218.204 457.841L211.904 436.703L193.672 429.46C193.372 429.341 193.116 429.133 192.937 428.865C192.758 428.597 192.665 428.281 192.669 427.959C192.674 427.637 192.776 427.323 192.962 427.061C193.149 426.798 193.41 426.597 193.713 426.487L212.066 419.779L218.207 399.618C218.307 399.292 218.508 399.006 218.782 398.803C219.056 398.6 219.388 398.491 219.729 398.491Z" fill="white"/>
<path d="M241.472 458.818C241.122 458.818 240.836 458.564 240.804 458.245C240.167 451.878 239.69 449.841 233.705 449.3C233.538 449.285 233.383 449.208 233.271 449.084C233.159 448.96 233.097 448.798 233.1 448.631C233.1 448.281 233.354 447.994 233.705 447.963C239.753 447.39 240.167 445.734 240.804 439.526C240.836 439.176 241.122 438.921 241.472 438.921C241.823 438.921 242.109 439.176 242.141 439.494C242.778 445.734 243.191 447.39 249.24 447.931C249.59 447.963 249.845 448.249 249.845 448.599C249.845 448.949 249.59 449.236 249.24 449.268C243.287 449.841 242.778 451.878 242.173 458.214C242.141 458.564 241.854 458.818 241.504 458.818H241.472Z" fill="black"/>
</g>
<path fill-rule="evenodd" clip-rule="evenodd" d="M214.953 396.899C215.295 396.898 215.627 397.008 215.902 397.211C216.177 397.414 216.379 397.699 216.478 398.026L222.616 418.187L240.969 424.895C241.272 425.006 241.534 425.206 241.72 425.469C241.907 425.732 242.009 426.045 242.013 426.367C242.018 426.69 241.924 427.006 241.745 427.274C241.566 427.542 241.31 427.749 241.011 427.868L222.779 435.111L216.478 456.249C216.38 456.577 216.179 456.865 215.904 457.07C215.629 457.274 215.296 457.385 214.953 457.385C214.611 457.385 214.278 457.274 214.003 457.07C213.728 456.865 213.527 456.577 213.429 456.249L207.128 435.111L188.896 427.868C188.597 427.749 188.341 427.542 188.162 427.274C187.983 427.006 187.889 426.69 187.894 426.367C187.898 426.045 188 425.732 188.187 425.469C188.373 425.206 188.635 425.006 188.938 424.895L207.291 418.187L213.432 398.026C213.531 397.7 213.733 397.414 214.007 397.212C214.281 397.009 214.613 396.899 214.953 396.899ZM214.953 403.954L210.105 419.871C210.033 420.107 209.907 420.323 209.738 420.502C209.568 420.681 209.359 420.818 209.128 420.903L193.952 426.455L209.023 432.44C209.246 432.529 209.446 432.667 209.608 432.845C209.77 433.022 209.89 433.234 209.959 433.465L214.957 450.223L219.948 433.465C220.017 433.234 220.137 433.022 220.299 432.845C220.461 432.667 220.661 432.529 220.884 432.44L235.955 426.455L220.779 420.909C220.548 420.825 220.339 420.687 220.169 420.508C220 420.329 219.874 420.113 219.802 419.878L214.953 403.954Z" fill="#FFD53E"/>
<path d="M239.626 456.176C239.307 456.176 239.021 455.922 238.989 455.603C238.416 449.809 237.97 447.963 232.654 447.453C232.335 447.422 232.081 447.135 232.081 446.817C232.081 446.498 232.335 446.212 232.654 446.18C238.097 445.671 238.416 444.27 238.989 438.476C238.989 438.158 239.307 437.903 239.626 437.903C239.944 437.903 240.23 438.158 240.262 438.476C240.835 444.27 241.185 445.671 246.597 446.18C246.916 446.212 247.17 446.498 247.17 446.817C247.17 447.135 246.916 447.422 246.597 447.453C241.249 447.963 240.835 449.809 240.262 455.635C240.262 455.953 239.976 456.208 239.626 456.208V456.176Z" fill="#FFD53E"/>
</g>
<path fill-rule="evenodd" clip-rule="evenodd" d="M232.371 318.665C232.729 318.664 233.076 318.779 233.364 318.991C233.651 319.203 233.862 319.502 233.966 319.844L240.386 340.932L259.583 347.948C259.9 348.064 260.174 348.273 260.369 348.548C260.564 348.823 260.671 349.151 260.675 349.488C260.68 349.825 260.582 350.156 260.395 350.436C260.208 350.717 259.94 350.933 259.627 351.058L240.556 358.634L233.966 380.744C233.864 381.087 233.653 381.388 233.366 381.602C233.078 381.816 232.73 381.932 232.371 381.932C232.013 381.932 231.665 381.816 231.377 381.602C231.09 381.388 230.879 381.087 230.776 380.744L224.187 358.634L205.116 351.058C204.803 350.933 204.535 350.717 204.348 350.436C204.161 350.156 204.063 349.825 204.068 349.488C204.072 349.151 204.179 348.823 204.374 348.548C204.569 348.273 204.843 348.064 205.16 347.948L224.356 340.932L230.78 319.844C230.884 319.503 231.095 319.204 231.381 318.992C231.668 318.78 232.015 318.665 232.371 318.665ZM232.371 326.044L227.3 342.694C227.225 342.94 227.093 343.166 226.916 343.353C226.739 343.541 226.52 343.684 226.278 343.772L210.404 349.58L226.168 355.84C226.401 355.933 226.611 356.078 226.78 356.264C226.95 356.449 227.075 356.671 227.147 356.912L232.375 374.441L237.596 356.912C237.668 356.671 237.793 356.449 237.962 356.264C238.132 356.078 238.341 355.933 238.575 355.84L254.339 349.58L238.465 343.779C238.223 343.691 238.004 343.547 237.827 343.36C237.65 343.173 237.518 342.947 237.443 342.7L232.371 326.044Z" fill="white"/>
<path d="M258.178 380.668C257.845 380.668 257.545 380.401 257.512 380.068C256.913 374.008 256.446 372.077 250.886 371.544C250.553 371.511 250.286 371.211 250.286 370.878C250.286 370.545 250.553 370.245 250.886 370.212C256.58 369.679 256.913 368.214 257.512 362.154C257.512 361.821 257.845 361.554 258.178 361.554C258.511 361.554 258.811 361.821 258.844 362.154C259.443 368.214 259.81 369.679 265.47 370.212C265.803 370.245 266.07 370.545 266.07 370.878C266.07 371.211 265.803 371.511 265.47 371.544C259.876 372.077 259.443 374.008 258.844 380.102C258.844 380.435 258.544 380.701 258.178 380.701V380.668Z" fill="white"/>
</g>
</g>
<defs>
<filter id="filter0_d_46_2337" x="0" y="0" width="414" height="868" filterUnits="userSpaceOnUse" color-interpolation-filters="sRGB">
<feFlood flood-opacity="0" result="BackgroundImageFix"/>
<feColorMatrix in="SourceAlpha" type="matrix" values="0 0 0 0 0 0 0 0 0 0 0 0 0 0 0 0 0 0 127 0" result="hardAlpha"/>
<feOffset dx="4" dy="8"/>
<feGaussianBlur stdDeviation="6"/>
<feComposite in2="hardAlpha" operator="out"/>
<feColorMatrix type="matrix" values="0 0 0 0 0 0 0 0 0 0 0 0 0 0 0 0 0 0 0.25 0"/>
<feBlend mode="normal" in2="BackgroundImageFix" result="effect1_dropShadow_46_2337"/>
<feBlend mode="normal" in="SourceGraphic" in2="effect1_dropShadow_46_2337" result="shape"/>
</filter>
<radialGradient id="paint0_radial_46_2337" cx="0" cy="0" r="1" gradientUnits="userSpaceOnUse" gradientTransform="translate(203 346.5) rotate(90) scale(501.5 312.665)">
<stop stop-color="#7E5989"/>
<stop offset="1" stop-color="#664A75"/>
</radialGradient>
<radialGradient id="paint1_radial_46_2337" cx="0" cy="0" r="1" gradientUnits="userSpaceOnUse" gradientTransform="translate(77.5 101) rotate(42.7795) scale(392.385 587.424)">
<stop stop-color="#FFF0DD" stop-opacity="0.15"/>
<stop offset="1" stop-color="#FFF0DD" stop-opacity="0"/>
</radialGradient>
<clipPath id="clip0_46_2337">
<rect x="8" y="4" width="390" height="844" rx="30" fill="white"/>
</clipPath>
<clipPath id="clip1_46_2337">
<rect width="63.6704" height="63.6704" fill="white" transform="translate(138 331.637)"/>
</clipPath>
<clipPath id="clip2_46_2337">
<rect width="63.6704" height="63.6704" fill="white" transform="translate(186.302 395.307)"/>
</clipPath>
</defs>
</svg>
