<svg width="513" height="169" viewBox="0 0 513 169" fill="none" xmlns="http://www.w3.org/2000/svg">
<g filter="url(#filter0_d_35_1149)">
<rect x="8" y="4" width="489" height="145" rx="30" fill="#F5D7FF" fill-opacity="0.29" shape-rendering="crispEdges"/>
<path d="M99 61V50.824H95.064V49.8H104.12V50.824H100.184V61H99ZM110.06 52.52C110.742 52.52 111.34 52.6533 111.852 52.92C112.374 53.176 112.78 53.5707 113.068 54.104C113.366 54.6373 113.516 55.3093 113.516 56.12V61H112.38V56.232C112.38 55.3467 112.156 54.68 111.708 54.232C111.27 53.7733 110.652 53.544 109.852 53.544C109.254 53.544 108.732 53.6667 108.284 53.912C107.846 54.1467 107.505 54.4933 107.26 54.952C107.025 55.4 106.908 55.944 106.908 56.584V61H105.772V49.128H106.908V54.904L106.684 54.472C106.95 53.864 107.377 53.3893 107.964 53.048C108.55 52.696 109.249 52.52 110.06 52.52ZM116.584 61V52.6H117.672V54.888L117.56 54.488C117.795 53.848 118.189 53.3627 118.744 53.032C119.299 52.6907 119.987 52.52 120.808 52.52V53.624C120.765 53.624 120.723 53.624 120.68 53.624C120.637 53.6133 120.595 53.608 120.552 53.608C119.667 53.608 118.973 53.88 118.472 54.424C117.971 54.9573 117.72 55.72 117.72 56.712V61H116.584ZM126.371 61.08C125.496 61.08 124.728 60.8987 124.067 60.536C123.405 60.1627 122.888 59.656 122.515 59.016C122.141 58.3653 121.955 57.624 121.955 56.792C121.955 55.96 122.131 55.224 122.483 54.584C122.845 53.944 123.336 53.4427 123.955 53.08C124.584 52.7067 125.288 52.52 126.067 52.52C126.856 52.52 127.555 52.7013 128.163 53.064C128.781 53.416 129.267 53.9173 129.619 54.568C129.971 55.208 130.147 55.9493 130.147 56.792C130.147 56.8453 130.141 56.904 130.131 56.968C130.131 57.0213 130.131 57.08 130.131 57.144H122.819V56.296H129.523L129.075 56.632C129.075 56.024 128.941 55.4853 128.675 55.016C128.419 54.536 128.067 54.1627 127.619 53.896C127.171 53.6293 126.653 53.496 126.067 53.496C125.491 53.496 124.973 53.6293 124.515 53.896C124.056 54.1627 123.699 54.536 123.443 55.016C123.187 55.496 123.059 56.0453 123.059 56.664V56.84C123.059 57.48 123.197 58.0453 123.475 58.536C123.763 59.016 124.157 59.3947 124.659 59.672C125.171 59.9387 125.752 60.072 126.403 60.072C126.915 60.072 127.389 59.9813 127.827 59.8C128.275 59.6187 128.659 59.3413 128.979 58.968L129.619 59.704C129.245 60.152 128.776 60.4933 128.211 60.728C127.656 60.9627 127.043 61.08 126.371 61.08ZM136.027 61.08C135.152 61.08 134.384 60.8987 133.723 60.536C133.062 60.1627 132.544 59.656 132.171 59.016C131.798 58.3653 131.611 57.624 131.611 56.792C131.611 55.96 131.787 55.224 132.139 54.584C132.502 53.944 132.992 53.4427 133.611 53.08C134.24 52.7067 134.944 52.52 135.723 52.52C136.512 52.52 137.211 52.7013 137.819 53.064C138.438 53.416 138.923 53.9173 139.275 54.568C139.627 55.208 139.803 55.9493 139.803 56.792C139.803 56.8453 139.798 56.904 139.787 56.968C139.787 57.0213 139.787 57.08 139.787 57.144H132.475V56.296H139.179L138.731 56.632C138.731 56.024 138.598 55.4853 138.331 55.016C138.075 54.536 137.723 54.1627 137.275 53.896C136.827 53.6293 136.31 53.496 135.723 53.496C135.147 53.496 134.63 53.6293 134.171 53.896C133.712 54.1627 133.355 54.536 133.099 55.016C132.843 55.496 132.715 56.0453 132.715 56.664V56.84C132.715 57.48 132.854 58.0453 133.131 58.536C133.419 59.016 133.814 59.3947 134.315 59.672C134.827 59.9387 135.408 60.072 136.059 60.072C136.571 60.072 137.046 59.9813 137.483 59.8C137.931 59.6187 138.315 59.3413 138.635 58.968L139.275 59.704C138.902 60.152 138.432 60.4933 137.867 60.728C137.312 60.9627 136.699 61.08 136.027 61.08ZM149.647 61.08C148.847 61.08 148.127 60.8987 147.487 60.536C146.857 60.1733 146.361 59.672 145.999 59.032C145.636 58.392 145.455 57.6453 145.455 56.792C145.455 55.9493 145.636 55.208 145.999 54.568C146.361 53.9173 146.857 53.416 147.487 53.064C148.127 52.7013 148.847 52.52 149.647 52.52C150.393 52.52 151.055 52.6853 151.631 53.016C152.217 53.3467 152.681 53.832 153.023 54.472C153.364 55.1013 153.535 55.8747 153.535 56.792C153.535 57.7093 153.359 58.488 153.007 59.128C152.665 59.7573 152.201 60.2427 151.615 60.584C151.039 60.9147 150.383 61.08 149.647 61.08ZM149.727 60.072C150.324 60.072 150.857 59.9387 151.327 59.672C151.807 59.3947 152.18 59.0107 152.447 58.52C152.724 58.0187 152.863 57.4427 152.863 56.792C152.863 56.1413 152.724 55.5707 152.447 55.08C152.18 54.5893 151.807 54.2053 151.327 53.928C150.857 53.6507 150.324 53.512 149.727 53.512C149.14 53.512 148.612 53.6507 148.143 53.928C147.673 54.2053 147.3 54.5893 147.023 55.08C146.745 55.5707 146.607 56.1413 146.607 56.792C146.607 57.4427 146.745 58.0187 147.023 58.52C147.3 59.0107 147.673 59.3947 148.143 59.672C148.612 59.9387 149.14 60.072 149.727 60.072ZM152.847 64.104V58.504L153.007 56.808L152.895 55.128V52.6H153.983V64.104H152.847ZM160.619 61.08C159.904 61.08 159.28 60.9467 158.747 60.68C158.213 60.4133 157.797 60.0133 157.499 59.48C157.211 58.9467 157.067 58.28 157.067 57.48V52.6H158.203V57.352C158.203 58.248 158.421 58.9253 158.859 59.384C159.307 59.832 159.931 60.056 160.731 60.056C161.317 60.056 161.824 59.9387 162.251 59.704C162.688 59.4587 163.019 59.1067 163.243 58.648C163.477 58.1893 163.595 57.64 163.595 57V52.6H164.731V61H163.642V58.696L163.819 59.112C163.552 59.7307 163.136 60.216 162.571 60.568C162.016 60.9093 161.365 61.08 160.619 61.08ZM173.161 61V59.144L173.113 58.84V55.736C173.113 55.0213 172.91 54.472 172.505 54.088C172.11 53.704 171.518 53.512 170.729 53.512C170.185 53.512 169.667 53.6027 169.177 53.784C168.686 53.9653 168.27 54.2053 167.929 54.504L167.417 53.656C167.843 53.2933 168.355 53.016 168.953 52.824C169.55 52.6213 170.179 52.52 170.841 52.52C171.929 52.52 172.766 52.792 173.353 53.336C173.95 53.8693 174.249 54.6853 174.249 55.784V61H173.161ZM170.265 61.08C169.635 61.08 169.086 60.9787 168.617 60.776C168.158 60.5627 167.806 60.2747 167.561 59.912C167.315 59.5387 167.193 59.112 167.193 58.632C167.193 58.1947 167.294 57.8 167.497 57.448C167.71 57.0853 168.051 56.7973 168.521 56.584C169.001 56.36 169.641 56.248 170.441 56.248H173.337V57.096H170.473C169.662 57.096 169.097 57.24 168.777 57.528C168.467 57.816 168.312 58.1733 168.312 58.6C168.312 59.08 168.499 59.464 168.873 59.752C169.246 60.04 169.769 60.184 170.441 60.184C171.081 60.184 171.63 60.04 172.089 59.752C172.558 59.4533 172.899 59.0267 173.113 58.472L173.369 59.256C173.155 59.8107 172.782 60.2533 172.249 60.584C171.726 60.9147 171.065 61.08 170.265 61.08ZM177.334 61V52.6H178.422V54.888L178.31 54.488C178.545 53.848 178.939 53.3627 179.494 53.032C180.049 52.6907 180.737 52.52 181.558 52.52V53.624C181.515 53.624 181.473 53.624 181.43 53.624C181.387 53.6133 181.345 53.608 181.302 53.608C180.417 53.608 179.723 53.88 179.222 54.424C178.721 54.9573 178.47 55.72 178.47 56.712V61H177.334ZM186.646 61.08C185.857 61.08 185.249 60.8667 184.822 60.44C184.396 60.0133 184.182 59.4107 184.182 58.632V50.744H185.318V58.568C185.318 59.0587 185.441 59.4373 185.686 59.704C185.942 59.9707 186.305 60.104 186.774 60.104C187.276 60.104 187.692 59.96 188.022 59.672L188.422 60.488C188.198 60.6907 187.926 60.84 187.606 60.936C187.297 61.032 186.977 61.08 186.646 61.08ZM182.678 53.544V52.6H187.878V53.544H182.678ZM193.761 61.08C192.887 61.08 192.119 60.8987 191.457 60.536C190.796 60.1627 190.279 59.656 189.905 59.016C189.532 58.3653 189.345 57.624 189.345 56.792C189.345 55.96 189.521 55.224 189.873 54.584C190.236 53.944 190.727 53.4427 191.345 53.08C191.975 52.7067 192.679 52.52 193.457 52.52C194.247 52.52 194.945 52.7013 195.553 53.064C196.172 53.416 196.657 53.9173 197.009 54.568C197.361 55.208 197.537 55.9493 197.537 56.792C197.537 56.8453 197.532 56.904 197.521 56.968C197.521 57.0213 197.521 57.08 197.521 57.144H190.209V56.296H196.913L196.465 56.632C196.465 56.024 196.332 55.4853 196.065 55.016C195.809 54.536 195.457 54.1627 195.009 53.896C194.561 53.6293 194.044 53.496 193.457 53.496C192.881 53.496 192.364 53.6293 191.905 53.896C191.447 54.1627 191.089 54.536 190.833 55.016C190.577 55.496 190.449 56.0453 190.449 56.664V56.84C190.449 57.48 190.588 58.0453 190.865 58.536C191.153 59.016 191.548 59.3947 192.049 59.672C192.561 59.9387 193.143 60.072 193.793 60.072C194.305 60.072 194.78 59.9813 195.217 59.8C195.665 59.6187 196.049 59.3413 196.369 58.968L197.009 59.704C196.636 60.152 196.167 60.4933 195.601 60.728C195.047 60.9627 194.433 61.08 193.761 61.08ZM199.85 61V52.6H200.938V54.888L200.826 54.488C201.06 53.848 201.455 53.3627 202.01 53.032C202.564 52.6907 203.252 52.52 204.074 52.52V53.624C204.031 53.624 203.988 53.624 203.946 53.624C203.903 53.6133 203.86 53.608 203.818 53.608C202.932 53.608 202.239 53.88 201.738 54.424C201.236 54.9573 200.986 55.72 200.986 56.712V61H199.85ZM208.496 61.08C207.803 61.08 207.147 60.984 206.528 60.792C205.91 60.5893 205.424 60.3387 205.072 60.04L205.584 59.144C205.926 59.4 206.363 59.624 206.896 59.816C207.43 59.9973 207.99 60.088 208.576 60.088C209.376 60.088 209.952 59.9653 210.304 59.72C210.656 59.464 210.832 59.128 210.832 58.712C210.832 58.4027 210.731 58.1627 210.528 57.992C210.336 57.8107 210.08 57.6773 209.76 57.592C209.44 57.496 209.083 57.416 208.688 57.352C208.294 57.288 207.899 57.2133 207.504 57.128C207.12 57.0427 206.768 56.92 206.448 56.76C206.128 56.5893 205.867 56.36 205.664 56.072C205.472 55.784 205.376 55.4 205.376 54.92C205.376 54.4613 205.504 54.0507 205.76 53.688C206.016 53.3253 206.39 53.0427 206.88 52.84C207.382 52.6267 207.99 52.52 208.704 52.52C209.248 52.52 209.792 52.5947 210.336 52.744C210.88 52.8827 211.328 53.0693 211.68 53.304L211.184 54.216C210.811 53.96 210.411 53.7787 209.984 53.672C209.558 53.5547 209.131 53.496 208.704 53.496C207.947 53.496 207.387 53.6293 207.024 53.896C206.672 54.152 206.496 54.4827 206.496 54.888C206.496 55.208 206.592 55.4587 206.784 55.64C206.987 55.8213 207.248 55.9653 207.568 56.072C207.899 56.168 208.256 56.248 208.64 56.312C209.035 56.376 209.424 56.456 209.808 56.552C210.203 56.6373 210.56 56.76 210.88 56.92C211.211 57.0693 211.472 57.288 211.664 57.576C211.867 57.8533 211.968 58.2213 211.968 58.68C211.968 59.1707 211.83 59.5973 211.552 59.96C211.286 60.312 210.891 60.5893 210.368 60.792C209.856 60.984 209.232 61.08 208.496 61.08ZM221.664 61.08C220.854 61.08 220.123 60.8987 219.472 60.536C218.832 60.1627 218.326 59.656 217.952 59.016C217.579 58.3653 217.392 57.624 217.392 56.792C217.392 55.9493 217.579 55.208 217.952 54.568C218.326 53.928 218.832 53.4267 219.472 53.064C220.112 52.7013 220.843 52.52 221.664 52.52C222.496 52.52 223.232 52.7013 223.872 53.064C224.523 53.4267 225.03 53.928 225.392 54.568C225.766 55.208 225.952 55.9493 225.952 56.792C225.952 57.624 225.766 58.3653 225.392 59.016C225.03 59.656 224.523 60.1627 223.872 60.536C223.222 60.8987 222.486 61.08 221.664 61.08ZM221.664 60.072C222.272 60.072 222.811 59.9387 223.28 59.672C223.75 59.3947 224.118 59.0107 224.384 58.52C224.662 58.0187 224.8 57.4427 224.8 56.792C224.8 56.1307 224.662 55.5547 224.384 55.064C224.118 54.5733 223.75 54.1947 223.28 53.928C222.811 53.6507 222.278 53.512 221.68 53.512C221.083 53.512 220.55 53.6507 220.08 53.928C219.611 54.1947 219.238 54.5733 218.96 55.064C218.683 55.5547 218.544 56.1307 218.544 56.792C218.544 57.4427 218.683 58.0187 218.96 58.52C219.238 59.0107 219.611 59.3947 220.08 59.672C220.55 59.9387 221.078 60.072 221.664 60.072ZM228.464 61V51.544C228.464 50.7973 228.682 50.1947 229.12 49.736C229.557 49.2773 230.186 49.048 231.008 49.048C231.328 49.048 231.637 49.0907 231.936 49.176C232.234 49.2613 232.485 49.3947 232.688 49.576L232.304 50.424C232.144 50.2853 231.957 50.184 231.744 50.12C231.53 50.0453 231.301 50.008 231.056 50.008C230.576 50.008 230.208 50.1413 229.952 50.408C229.696 50.6747 229.568 51.0693 229.568 51.592V52.872L229.6 53.4V61H228.464ZM226.96 53.544V52.6H232.16V53.544H226.96ZM242.633 61.096C241.204 61.096 240.078 60.6853 239.257 59.864C238.436 59.0427 238.025 57.8267 238.025 56.216V49.8H239.209V56.168C239.209 57.4907 239.508 58.4667 240.105 59.096C240.702 59.7253 241.545 60.04 242.633 60.04C243.732 60.04 244.58 59.7253 245.177 59.096C245.774 58.4667 246.073 57.4907 246.073 56.168V49.8H247.225V56.216C247.225 57.8267 246.814 59.0427 245.993 59.864C245.182 60.6853 244.062 61.096 242.633 61.096ZM250.524 61.08C250.289 61.08 250.087 60.9947 249.916 60.824C249.756 60.6533 249.676 60.4453 249.676 60.2C249.676 59.944 249.756 59.736 249.916 59.576C250.087 59.416 250.289 59.336 250.524 59.336C250.759 59.336 250.956 59.416 251.116 59.576C251.287 59.736 251.372 59.944 251.372 60.2C251.372 60.4453 251.287 60.6533 251.116 60.824C250.956 60.9947 250.759 61.08 250.524 61.08ZM257.287 61.096C256.455 61.096 255.655 60.9627 254.887 60.696C254.13 60.4187 253.543 60.0667 253.127 59.64L253.591 58.728C253.986 59.112 254.514 59.4373 255.175 59.704C255.847 59.96 256.551 60.088 257.287 60.088C257.991 60.088 258.562 60.0027 258.999 59.832C259.447 59.6507 259.772 59.4107 259.975 59.112C260.188 58.8133 260.295 58.4827 260.295 58.12C260.295 57.6827 260.167 57.3307 259.911 57.064C259.666 56.7973 259.34 56.5893 258.935 56.44C258.53 56.28 258.082 56.1413 257.591 56.024C257.1 55.9067 256.61 55.784 256.119 55.656C255.628 55.5173 255.175 55.336 254.759 55.112C254.354 54.888 254.023 54.5947 253.767 54.232C253.522 53.8587 253.399 53.3733 253.399 52.776C253.399 52.2213 253.543 51.7147 253.831 51.256C254.13 50.7867 254.583 50.4133 255.191 50.136C255.799 49.848 256.578 49.704 257.527 49.704C258.156 49.704 258.78 49.7947 259.399 49.976C260.018 50.1467 260.551 50.3867 260.999 50.696L260.599 51.64C260.119 51.32 259.607 51.0853 259.063 50.936C258.53 50.7867 258.012 50.712 257.511 50.712C256.839 50.712 256.284 50.8027 255.847 50.984C255.41 51.1653 255.084 51.4107 254.871 51.72C254.668 52.0187 254.567 52.36 254.567 52.744C254.567 53.1813 254.69 53.5333 254.935 53.8C255.191 54.0667 255.522 54.2747 255.927 54.424C256.343 54.5733 256.796 54.7067 257.287 54.824C257.778 54.9413 258.263 55.0693 258.743 55.208C259.234 55.3467 259.682 55.528 260.087 55.752C260.503 55.9653 260.834 56.2533 261.079 56.616C261.335 56.9787 261.463 57.4533 261.463 58.04C261.463 58.584 261.314 59.0907 261.015 59.56C260.716 60.0187 260.258 60.392 259.639 60.68C259.031 60.9573 258.247 61.096 257.287 61.096ZM264.227 61.08C263.993 61.08 263.79 60.9947 263.619 60.824C263.459 60.6533 263.379 60.4453 263.379 60.2C263.379 59.944 263.459 59.736 263.619 59.576C263.79 59.416 263.993 59.336 264.227 59.336C264.462 59.336 264.659 59.416 264.819 59.576C264.99 59.736 265.075 59.944 265.075 60.2C265.075 60.4453 264.99 60.6533 264.819 60.824C264.659 60.9947 264.462 61.08 264.227 61.08ZM275.181 61.08C274.349 61.08 273.603 60.8987 272.941 60.536C272.291 60.1627 271.779 59.656 271.405 59.016C271.032 58.3653 270.845 57.624 270.845 56.792C270.845 55.9493 271.032 55.208 271.405 54.568C271.779 53.928 272.291 53.4267 272.941 53.064C273.603 52.7013 274.349 52.52 275.181 52.52C275.896 52.52 276.541 52.6587 277.117 52.936C277.693 53.2133 278.147 53.6293 278.477 54.184L277.629 54.76C277.341 54.3333 276.984 54.0187 276.557 53.816C276.131 53.6133 275.667 53.512 275.165 53.512C274.568 53.512 274.029 53.6507 273.549 53.928C273.069 54.1947 272.691 54.5733 272.413 55.064C272.136 55.5547 271.997 56.1307 271.997 56.792C271.997 57.4533 272.136 58.0293 272.413 58.52C272.691 59.0107 273.069 59.3947 273.549 59.672C274.029 59.9387 274.568 60.072 275.165 60.072C275.667 60.072 276.131 59.9707 276.557 59.768C276.984 59.5653 277.341 59.256 277.629 58.84L278.477 59.416C278.147 59.96 277.693 60.376 277.117 60.664C276.541 60.9413 275.896 61.08 275.181 61.08ZM283.992 61.08C283.182 61.08 282.451 60.8987 281.8 60.536C281.16 60.1627 280.654 59.656 280.28 59.016C279.907 58.3653 279.72 57.624 279.72 56.792C279.72 55.9493 279.907 55.208 280.28 54.568C280.654 53.928 281.16 53.4267 281.8 53.064C282.44 52.7013 283.171 52.52 283.992 52.52C284.824 52.52 285.56 52.7013 286.2 53.064C286.851 53.4267 287.358 53.928 287.72 54.568C288.094 55.208 288.28 55.9493 288.28 56.792C288.28 57.624 288.094 58.3653 287.72 59.016C287.358 59.656 286.851 60.1627 286.2 60.536C285.55 60.8987 284.814 61.08 283.992 61.08ZM283.992 60.072C284.6 60.072 285.139 59.9387 285.608 59.672C286.078 59.3947 286.446 59.0107 286.712 58.52C286.99 58.0187 287.128 57.4427 287.128 56.792C287.128 56.1307 286.99 55.5547 286.712 55.064C286.446 54.5733 286.078 54.1947 285.608 53.928C285.139 53.6507 284.606 53.512 284.008 53.512C283.411 53.512 282.878 53.6507 282.408 53.928C281.939 54.1947 281.566 54.5733 281.288 55.064C281.011 55.5547 280.872 56.1307 280.872 56.792C280.872 57.4427 281.011 58.0187 281.288 58.52C281.566 59.0107 281.939 59.3947 282.408 59.672C282.878 59.9387 283.406 60.072 283.992 60.072ZM294.888 52.52C295.57 52.52 296.168 52.6533 296.68 52.92C297.202 53.176 297.608 53.5707 297.896 54.104C298.194 54.6373 298.344 55.3093 298.344 56.12V61H297.208V56.232C297.208 55.3467 296.984 54.68 296.536 54.232C296.098 53.7733 295.48 53.544 294.68 53.544C294.082 53.544 293.56 53.6667 293.112 53.912C292.674 54.1467 292.333 54.4933 292.088 54.952C291.853 55.4 291.736 55.944 291.736 56.584V61H290.6V52.6H291.688V54.904L291.512 54.472C291.778 53.864 292.205 53.3893 292.792 53.048C293.378 52.696 294.077 52.52 294.888 52.52ZM303.668 61.08C302.975 61.08 302.319 60.984 301.7 60.792C301.081 60.5893 300.596 60.3387 300.244 60.04L300.756 59.144C301.097 59.4 301.535 59.624 302.068 59.816C302.601 59.9973 303.161 60.088 303.748 60.088C304.548 60.088 305.124 59.9653 305.476 59.72C305.828 59.464 306.004 59.128 306.004 58.712C306.004 58.4027 305.903 58.1627 305.7 57.992C305.508 57.8107 305.252 57.6773 304.932 57.592C304.612 57.496 304.255 57.416 303.86 57.352C303.465 57.288 303.071 57.2133 302.676 57.128C302.292 57.0427 301.94 56.92 301.62 56.76C301.3 56.5893 301.039 56.36 300.836 56.072C300.644 55.784 300.548 55.4 300.548 54.92C300.548 54.4613 300.676 54.0507 300.932 53.688C301.188 53.3253 301.561 53.0427 302.052 52.84C302.553 52.6267 303.161 52.52 303.876 52.52C304.42 52.52 304.964 52.5947 305.508 52.744C306.052 52.8827 306.5 53.0693 306.852 53.304L306.356 54.216C305.983 53.96 305.583 53.7787 305.156 53.672C304.729 53.5547 304.303 53.496 303.876 53.496C303.119 53.496 302.559 53.6293 302.196 53.896C301.844 54.152 301.668 54.4827 301.668 54.888C301.668 55.208 301.764 55.4587 301.956 55.64C302.159 55.8213 302.42 55.9653 302.74 56.072C303.071 56.168 303.428 56.248 303.812 56.312C304.207 56.376 304.596 56.456 304.98 56.552C305.375 56.6373 305.732 56.76 306.052 56.92C306.383 57.0693 306.644 57.288 306.836 57.576C307.039 57.8533 307.14 58.2213 307.14 58.68C307.14 59.1707 307.001 59.5973 306.724 59.96C306.457 60.312 306.063 60.5893 305.54 60.792C305.028 60.984 304.404 61.08 303.668 61.08ZM312.697 61.08C311.982 61.08 311.358 60.9467 310.825 60.68C310.291 60.4133 309.875 60.0133 309.577 59.48C309.289 58.9467 309.145 58.28 309.145 57.48V52.6H310.281V57.352C310.281 58.248 310.499 58.9253 310.937 59.384C311.385 59.832 312.009 60.056 312.809 60.056C313.395 60.056 313.902 59.9387 314.329 59.704C314.766 59.4587 315.097 59.1067 315.321 58.648C315.555 58.1893 315.673 57.64 315.673 57V52.6H316.809V61H315.721V58.696L315.897 59.112C315.63 59.7307 315.214 60.216 314.649 60.568C314.094 60.9093 313.443 61.08 312.697 61.08ZM330.471 52.52C331.153 52.52 331.745 52.6533 332.247 52.92C332.759 53.176 333.153 53.5707 333.431 54.104C333.719 54.6373 333.863 55.3093 333.863 56.12V61H332.727V56.232C332.727 55.3467 332.513 54.68 332.087 54.232C331.671 53.7733 331.079 53.544 330.311 53.544C329.735 53.544 329.233 53.6667 328.807 53.912C328.391 54.1467 328.065 54.4933 327.831 54.952C327.607 55.4 327.495 55.944 327.495 56.584V61H326.359V56.232C326.359 55.3467 326.145 54.68 325.719 54.232C325.292 53.7733 324.695 53.544 323.927 53.544C323.361 53.544 322.865 53.6667 322.439 53.912C322.012 54.1467 321.681 54.4933 321.447 54.952C321.223 55.4 321.111 55.944 321.111 56.584V61H319.975V52.6H321.063V54.872L320.887 54.472C321.143 53.864 321.553 53.3893 322.119 53.048C322.695 52.696 323.372 52.52 324.151 52.52C324.972 52.52 325.671 52.728 326.247 53.144C326.823 53.5493 327.196 54.1627 327.367 54.984L326.919 54.808C327.164 54.1253 327.596 53.576 328.215 53.16C328.844 52.7333 329.596 52.52 330.471 52.52ZM340.511 61.08C339.637 61.08 338.869 60.8987 338.207 60.536C337.546 60.1627 337.029 59.656 336.655 59.016C336.282 58.3653 336.095 57.624 336.095 56.792C336.095 55.96 336.271 55.224 336.623 54.584C336.986 53.944 337.477 53.4427 338.095 53.08C338.725 52.7067 339.429 52.52 340.207 52.52C340.997 52.52 341.695 52.7013 342.303 53.064C342.922 53.416 343.407 53.9173 343.759 54.568C344.111 55.208 344.287 55.9493 344.287 56.792C344.287 56.8453 344.282 56.904 344.271 56.968C344.271 57.0213 344.271 57.08 344.271 57.144H336.959V56.296H343.663L343.215 56.632C343.215 56.024 343.082 55.4853 342.815 55.016C342.559 54.536 342.207 54.1627 341.759 53.896C341.311 53.6293 340.794 53.496 340.207 53.496C339.631 53.496 339.114 53.6293 338.655 53.896C338.197 54.1627 337.839 54.536 337.583 55.016C337.327 55.496 337.199 56.0453 337.199 56.664V56.84C337.199 57.48 337.338 58.0453 337.615 58.536C337.903 59.016 338.298 59.3947 338.799 59.672C339.311 59.9387 339.893 60.072 340.543 60.072C341.055 60.072 341.53 59.9813 341.967 59.8C342.415 59.6187 342.799 59.3413 343.119 58.968L343.759 59.704C343.386 60.152 342.917 60.4933 342.351 60.728C341.797 60.9627 341.183 61.08 340.511 61.08ZM346.6 61V52.6H347.688V54.888L347.576 54.488C347.81 53.848 348.205 53.3627 348.76 53.032C349.314 52.6907 350.002 52.52 350.824 52.52V53.624C350.781 53.624 350.738 53.624 350.696 53.624C350.653 53.6133 350.61 53.608 350.568 53.608C349.682 53.608 348.989 53.88 348.488 54.424C347.986 54.9573 347.736 55.72 347.736 56.712V61H346.6ZM355.246 61.08C354.553 61.08 353.897 60.984 353.278 60.792C352.66 60.5893 352.174 60.3387 351.822 60.04L352.334 59.144C352.676 59.4 353.113 59.624 353.646 59.816C354.18 59.9973 354.74 60.088 355.326 60.088C356.126 60.088 356.702 59.9653 357.054 59.72C357.406 59.464 357.582 59.128 357.582 58.712C357.582 58.4027 357.481 58.1627 357.278 57.992C357.086 57.8107 356.83 57.6773 356.51 57.592C356.19 57.496 355.833 57.416 355.438 57.352C355.044 57.288 354.649 57.2133 354.254 57.128C353.87 57.0427 353.518 56.92 353.198 56.76C352.878 56.5893 352.617 56.36 352.414 56.072C352.222 55.784 352.126 55.4 352.126 54.92C352.126 54.4613 352.254 54.0507 352.51 53.688C352.766 53.3253 353.14 53.0427 353.63 52.84C354.132 52.6267 354.74 52.52 355.454 52.52C355.998 52.52 356.542 52.5947 357.086 52.744C357.63 52.8827 358.078 53.0693 358.43 53.304L357.934 54.216C357.561 53.96 357.161 53.7787 356.734 53.672C356.308 53.5547 355.881 53.496 355.454 53.496C354.697 53.496 354.137 53.6293 353.774 53.896C353.422 54.152 353.246 54.4827 353.246 54.888C353.246 55.208 353.342 55.4587 353.534 55.64C353.737 55.8213 353.998 55.9653 354.318 56.072C354.649 56.168 355.006 56.248 355.39 56.312C355.785 56.376 356.174 56.456 356.558 56.552C356.953 56.6373 357.31 56.76 357.63 56.92C357.961 57.0693 358.222 57.288 358.414 57.576C358.617 57.8533 358.718 58.2213 358.718 58.68C358.718 59.1707 358.58 59.5973 358.302 59.96C358.036 60.312 357.641 60.5893 357.118 60.792C356.606 60.984 355.982 61.08 355.246 61.08ZM366.926 64.104C366.34 63.1333 365.881 62.0133 365.55 60.744C365.23 59.464 365.07 58.088 365.07 56.616C365.07 55.144 365.23 53.768 365.55 52.488C365.881 51.1973 366.34 50.0773 366.926 49.128H368.014C367.385 50.2267 366.921 51.3947 366.622 52.632C366.334 53.8587 366.19 55.1867 366.19 56.616C366.19 58.0453 366.334 59.3787 366.622 60.616C366.921 61.8427 367.385 63.0053 368.014 64.104H366.926ZM371.472 61L376.304 50.312L376.656 50.824H369.728L370.32 50.264V52.92H369.184V49.8H377.408V50.616L372.72 61H371.472ZM383.205 61.096C382.213 61.096 381.376 60.8773 380.693 60.44C380.011 59.992 379.493 59.352 379.141 58.52C378.789 57.6773 378.613 56.6693 378.613 55.496C378.613 54.2267 378.827 53.1653 379.253 52.312C379.691 51.448 380.293 50.7973 381.061 50.36C381.829 49.9227 382.72 49.704 383.733 49.704C384.235 49.704 384.715 49.752 385.173 49.848C385.632 49.944 386.037 50.0987 386.389 50.312L385.925 51.24C385.637 51.048 385.307 50.9147 384.933 50.84C384.56 50.7547 384.165 50.712 383.749 50.712C382.544 50.712 381.579 51.096 380.853 51.864C380.139 52.632 379.781 53.7787 379.781 55.304C379.781 55.5387 379.792 55.832 379.813 56.184C379.845 56.5253 379.909 56.8667 380.005 57.208L379.605 56.904C379.723 56.3493 379.952 55.88 380.293 55.496C380.635 55.1013 381.061 54.8027 381.573 54.6C382.085 54.3973 382.645 54.296 383.253 54.296C384 54.296 384.656 54.4347 385.221 54.712C385.787 54.9893 386.229 55.3787 386.549 55.88C386.869 56.3813 387.029 56.9733 387.029 57.656C387.029 58.3493 386.864 58.9573 386.533 59.48C386.203 59.992 385.744 60.392 385.157 60.68C384.581 60.9573 383.931 61.096 383.205 61.096ZM383.157 60.12C383.691 60.12 384.16 60.024 384.565 59.832C384.981 59.6293 385.307 59.3467 385.541 58.984C385.776 58.6107 385.893 58.1787 385.893 57.688C385.893 56.952 385.637 56.3653 385.125 55.928C384.624 55.4907 383.941 55.272 383.077 55.272C382.501 55.272 382 55.3787 381.573 55.592C381.147 55.8053 380.811 56.0987 380.565 56.472C380.32 56.8347 380.197 57.2507 380.197 57.72C380.197 58.1253 380.309 58.5147 380.533 58.888C380.757 59.2507 381.088 59.5493 381.525 59.784C381.973 60.008 382.517 60.12 383.157 60.12ZM389.555 61L397.203 49.8H398.147L390.499 61H389.555ZM390.419 55.8C389.917 55.8 389.475 55.6773 389.091 55.432C388.707 55.176 388.408 54.8187 388.195 54.36C387.992 53.9013 387.891 53.368 387.891 52.76C387.891 52.152 387.992 51.6187 388.195 51.16C388.408 50.7013 388.707 50.3493 389.091 50.104C389.475 49.848 389.917 49.72 390.419 49.72C390.92 49.72 391.357 49.848 391.731 50.104C392.115 50.3493 392.413 50.7013 392.627 51.16C392.84 51.6187 392.947 52.152 392.947 52.76C392.947 53.368 392.84 53.9013 392.627 54.36C392.413 54.8187 392.115 55.176 391.731 55.432C391.357 55.6773 390.92 55.8 390.419 55.8ZM390.419 55.08C390.941 55.08 391.357 54.8773 391.667 54.472C391.987 54.056 392.147 53.4853 392.147 52.76C392.147 52.0347 391.987 51.4693 391.667 51.064C391.357 50.648 390.941 50.44 390.419 50.44C389.885 50.44 389.464 50.648 389.155 51.064C388.845 51.4693 388.691 52.0347 388.691 52.76C388.691 53.4853 388.845 54.056 389.155 54.472C389.464 54.8773 389.885 55.08 390.419 55.08ZM397.283 61.08C396.792 61.08 396.355 60.9573 395.971 60.712C395.587 60.456 395.288 60.0987 395.075 59.64C394.861 59.1813 394.755 58.648 394.755 58.04C394.755 57.432 394.861 56.8987 395.075 56.44C395.288 55.9813 395.587 55.6293 395.971 55.384C396.355 55.128 396.792 55 397.283 55C397.795 55 398.237 55.128 398.611 55.384C398.995 55.6293 399.288 55.9813 399.491 56.44C399.704 56.8987 399.811 57.432 399.811 58.04C399.811 58.648 399.704 59.1813 399.491 59.64C399.288 60.0987 398.995 60.456 398.611 60.712C398.237 60.9573 397.795 61.08 397.283 61.08ZM397.283 60.36C397.805 60.36 398.221 60.1573 398.531 59.752C398.851 59.336 399.011 58.7653 399.011 58.04C399.011 57.3147 398.851 56.7493 398.531 56.344C398.221 55.928 397.805 55.72 397.283 55.72C396.76 55.72 396.339 55.928 396.019 56.344C395.709 56.7493 395.555 57.3147 395.555 58.04C395.555 58.7653 395.709 59.336 396.019 59.752C396.339 60.1573 396.76 60.36 397.283 60.36ZM401.9 64.104H400.812C401.452 63.0053 401.916 61.8427 402.204 60.616C402.503 59.3787 402.652 58.0453 402.652 56.616C402.652 55.1867 402.503 53.8587 402.204 52.632C401.916 51.3947 401.452 50.2267 400.812 49.128H401.9C402.508 50.0773 402.972 51.1973 403.292 52.488C403.612 53.768 403.772 55.144 403.772 56.616C403.772 58.088 403.612 59.464 403.292 60.744C402.972 62.0133 402.508 63.1333 401.9 64.104ZM413.465 61.08C412.772 61.08 412.116 60.984 411.497 60.792C410.878 60.5893 410.393 60.3387 410.041 60.04L410.553 59.144C410.894 59.4 411.332 59.624 411.865 59.816C412.398 59.9973 412.958 60.088 413.545 60.088C414.345 60.088 414.921 59.9653 415.273 59.72C415.625 59.464 415.801 59.128 415.801 58.712C415.801 58.4027 415.7 58.1627 415.497 57.992C415.305 57.8107 415.049 57.6773 414.729 57.592C414.409 57.496 414.052 57.416 413.657 57.352C413.262 57.288 412.868 57.2133 412.473 57.128C412.089 57.0427 411.737 56.92 411.417 56.76C411.097 56.5893 410.836 56.36 410.633 56.072C410.441 55.784 410.345 55.4 410.345 54.92C410.345 54.4613 410.473 54.0507 410.729 53.688C410.985 53.3253 411.358 53.0427 411.849 52.84C412.35 52.6267 412.958 52.52 413.673 52.52C414.217 52.52 414.761 52.5947 415.305 52.744C415.849 52.8827 416.297 53.0693 416.649 53.304L416.153 54.216C415.78 53.96 415.38 53.7787 414.953 53.672C414.526 53.5547 414.1 53.496 413.673 53.496C412.916 53.496 412.356 53.6293 411.993 53.896C411.641 54.152 411.465 54.4827 411.465 54.888C411.465 55.208 411.561 55.4587 411.753 55.64C411.956 55.8213 412.217 55.9653 412.537 56.072C412.868 56.168 413.225 56.248 413.609 56.312C414.004 56.376 414.393 56.456 414.777 56.552C415.172 56.6373 415.529 56.76 415.849 56.92C416.18 57.0693 416.441 57.288 416.633 57.576C416.836 57.8533 416.937 58.2213 416.937 58.68C416.937 59.1707 416.798 59.5973 416.521 59.96C416.254 60.312 415.86 60.5893 415.337 60.792C414.825 60.984 414.201 61.08 413.465 61.08ZM424.286 61V59.144L424.238 58.84V55.736C424.238 55.0213 424.035 54.472 423.63 54.088C423.235 53.704 422.643 53.512 421.854 53.512C421.31 53.512 420.792 53.6027 420.302 53.784C419.811 53.9653 419.395 54.2053 419.054 54.504L418.542 53.656C418.968 53.2933 419.48 53.016 420.078 52.824C420.675 52.6213 421.304 52.52 421.966 52.52C423.054 52.52 423.891 52.792 424.478 53.336C425.075 53.8693 425.374 54.6853 425.374 55.784V61H424.286ZM421.39 61.08C420.76 61.08 420.211 60.9787 419.742 60.776C419.283 60.5627 418.931 60.2747 418.686 59.912C418.44 59.5387 418.318 59.112 418.318 58.632C418.318 58.1947 418.419 57.8 418.622 57.448C418.835 57.0853 419.176 56.7973 419.646 56.584C420.126 56.36 420.766 56.248 421.566 56.248H424.462V57.096H421.598C420.787 57.096 420.222 57.24 419.902 57.528C419.592 57.816 419.438 58.1733 419.438 58.6C419.438 59.08 419.624 59.464 419.998 59.752C420.371 60.04 420.894 60.184 421.566 60.184C422.206 60.184 422.755 60.04 423.214 59.752C423.683 59.4533 424.024 59.0267 424.238 58.472L424.494 59.256C424.28 59.8107 423.907 60.2533 423.374 60.584C422.851 60.9147 422.19 61.08 421.39 61.08ZM428.367 64.184C427.972 64.184 427.593 64.12 427.231 63.992C426.879 63.864 426.575 63.672 426.319 63.416L426.847 62.568C427.06 62.7707 427.289 62.9253 427.535 63.032C427.791 63.1493 428.073 63.208 428.383 63.208C428.756 63.208 429.076 63.1013 429.343 62.888C429.62 62.6853 429.881 62.3227 430.127 61.8L430.671 60.568L430.799 60.392L434.255 52.6H435.375L431.167 62.008C430.932 62.552 430.671 62.984 430.383 63.304C430.105 63.624 429.801 63.848 429.471 63.976C429.14 64.1147 428.772 64.184 428.367 64.184ZM430.607 61.24L426.735 52.6H427.919L431.343 60.312L430.607 61.24ZM99.24 81.08C98.4507 81.08 97.8427 80.8667 97.416 80.44C96.9893 80.0133 96.776 79.4107 96.776 78.632V70.744H97.912V78.568C97.912 79.0587 98.0347 79.4373 98.28 79.704C98.536 79.9707 98.8987 80.104 99.368 80.104C99.8693 80.104 100.285 79.96 100.616 79.672L101.016 80.488C100.792 80.6907 100.52 80.84 100.2 80.936C99.8907 81.032 99.5707 81.08 99.24 81.08ZM95.272 73.544V72.6H100.472V73.544H95.272ZM107.372 72.52C108.055 72.52 108.652 72.6533 109.164 72.92C109.687 73.176 110.092 73.5707 110.38 74.104C110.679 74.6373 110.828 75.3093 110.828 76.12V81H109.692V76.232C109.692 75.3467 109.468 74.68 109.02 74.232C108.583 73.7733 107.964 73.544 107.164 73.544C106.567 73.544 106.044 73.6667 105.596 73.912C105.159 74.1467 104.817 74.4933 104.572 74.952C104.337 75.4 104.22 75.944 104.22 76.584V81H103.084V69.128H104.22V74.904L103.996 74.472C104.263 73.864 104.689 73.3893 105.276 73.048C105.863 72.696 106.561 72.52 107.372 72.52ZM117.465 81.08C116.59 81.08 115.822 80.8987 115.161 80.536C114.499 80.1627 113.982 79.656 113.609 79.016C113.235 78.3653 113.049 77.624 113.049 76.792C113.049 75.96 113.225 75.224 113.577 74.584C113.939 73.944 114.43 73.4427 115.049 73.08C115.678 72.7067 116.382 72.52 117.161 72.52C117.95 72.52 118.649 72.7013 119.257 73.064C119.875 73.416 120.361 73.9173 120.713 74.568C121.065 75.208 121.241 75.9493 121.241 76.792C121.241 76.8453 121.235 76.904 121.225 76.968C121.225 77.0213 121.225 77.08 121.225 77.144H113.913V76.296H120.617L120.169 76.632C120.169 76.024 120.035 75.4853 119.769 75.016C119.513 74.536 119.161 74.1627 118.713 73.896C118.265 73.6293 117.747 73.496 117.161 73.496C116.585 73.496 116.067 73.6293 115.609 73.896C115.15 74.1627 114.793 74.536 114.537 75.016C114.281 75.496 114.153 76.0453 114.153 76.664V76.84C114.153 77.48 114.291 78.0453 114.569 78.536C114.857 79.016 115.251 79.3947 115.753 79.672C116.265 79.9387 116.846 80.072 117.497 80.072C118.009 80.072 118.483 79.9813 118.921 79.8C119.369 79.6187 119.753 79.3413 120.073 78.968L120.713 79.704C120.339 80.152 119.87 80.4933 119.305 80.728C118.75 80.9627 118.137 81.08 117.465 81.08ZM138.236 72.52C138.919 72.52 139.511 72.6533 140.012 72.92C140.524 73.176 140.919 73.5707 141.196 74.104C141.484 74.6373 141.628 75.3093 141.628 76.12V81H140.492V76.232C140.492 75.3467 140.279 74.68 139.852 74.232C139.436 73.7733 138.844 73.544 138.076 73.544C137.5 73.544 136.999 73.6667 136.572 73.912C136.156 74.1467 135.831 74.4933 135.596 74.952C135.372 75.4 135.26 75.944 135.26 76.584V81H134.124V76.232C134.124 75.3467 133.911 74.68 133.484 74.232C133.058 73.7733 132.46 73.544 131.692 73.544C131.127 73.544 130.631 73.6667 130.204 73.912C129.778 74.1467 129.447 74.4933 129.212 74.952C128.988 75.4 128.876 75.944 128.876 76.584V81H127.74V72.6H128.828V74.872L128.652 74.472C128.908 73.864 129.319 73.3893 129.884 73.048C130.46 72.696 131.138 72.52 131.916 72.52C132.738 72.52 133.436 72.728 134.012 73.144C134.588 73.5493 134.962 74.1627 135.132 74.984L134.684 74.808C134.93 74.1253 135.362 73.576 135.98 73.16C136.61 72.7333 137.362 72.52 138.236 72.52ZM148.133 81.08C147.322 81.08 146.592 80.8987 145.941 80.536C145.301 80.1627 144.794 79.656 144.421 79.016C144.048 78.3653 143.861 77.624 143.861 76.792C143.861 75.9493 144.048 75.208 144.421 74.568C144.794 73.928 145.301 73.4267 145.941 73.064C146.581 72.7013 147.312 72.52 148.133 72.52C148.965 72.52 149.701 72.7013 150.341 73.064C150.992 73.4267 151.498 73.928 151.861 74.568C152.234 75.208 152.421 75.9493 152.421 76.792C152.421 77.624 152.234 78.3653 151.861 79.016C151.498 79.656 150.992 80.1627 150.341 80.536C149.69 80.8987 148.954 81.08 148.133 81.08ZM148.133 80.072C148.741 80.072 149.28 79.9387 149.749 79.672C150.218 79.3947 150.586 79.0107 150.853 78.52C151.13 78.0187 151.269 77.4427 151.269 76.792C151.269 76.1307 151.13 75.5547 150.853 75.064C150.586 74.5733 150.218 74.1947 149.749 73.928C149.28 73.6507 148.746 73.512 148.149 73.512C147.552 73.512 147.018 73.6507 146.549 73.928C146.08 74.1947 145.706 74.5733 145.429 75.064C145.152 75.5547 145.013 76.1307 145.013 76.792C145.013 77.4427 145.152 78.0187 145.429 78.52C145.706 79.0107 146.08 79.3947 146.549 79.672C147.018 79.9387 147.546 80.072 148.133 80.072ZM154.74 81V72.6H155.828V74.888L155.716 74.488C155.951 73.848 156.346 73.3627 156.9 73.032C157.455 72.6907 158.143 72.52 158.964 72.52V73.624C158.922 73.624 158.879 73.624 158.836 73.624C158.794 73.6133 158.751 73.608 158.708 73.608C157.823 73.608 157.13 73.88 156.628 74.424C156.127 74.9573 155.876 75.72 155.876 76.712V81H154.74ZM164.527 81.08C163.652 81.08 162.884 80.8987 162.223 80.536C161.562 80.1627 161.044 79.656 160.671 79.016C160.298 78.3653 160.111 77.624 160.111 76.792C160.111 75.96 160.287 75.224 160.639 74.584C161.002 73.944 161.492 73.4427 162.111 73.08C162.74 72.7067 163.444 72.52 164.223 72.52C165.012 72.52 165.711 72.7013 166.319 73.064C166.938 73.416 167.423 73.9173 167.775 74.568C168.127 75.208 168.303 75.9493 168.303 76.792C168.303 76.8453 168.298 76.904 168.287 76.968C168.287 77.0213 168.287 77.08 168.287 77.144H160.975V76.296H167.679L167.231 76.632C167.231 76.024 167.098 75.4853 166.831 75.016C166.575 74.536 166.223 74.1627 165.775 73.896C165.327 73.6293 164.81 73.496 164.223 73.496C163.647 73.496 163.13 73.6293 162.671 73.896C162.212 74.1627 161.855 74.536 161.599 75.016C161.343 75.496 161.215 76.0453 161.215 76.664V76.84C161.215 77.48 161.354 78.0453 161.631 78.536C161.919 79.016 162.314 79.3947 162.815 79.672C163.327 79.9387 163.908 80.072 164.559 80.072C165.071 80.072 165.546 79.9813 165.983 79.8C166.431 79.6187 166.815 79.3413 167.135 78.968L167.775 79.704C167.402 80.152 166.932 80.4933 166.367 80.728C165.812 80.9627 165.199 81.08 164.527 81.08ZM177.459 81.08C176.669 81.08 176.061 80.8667 175.635 80.44C175.208 80.0133 174.995 79.4107 174.995 78.632V70.744H176.131V78.568C176.131 79.0587 176.253 79.4373 176.499 79.704C176.755 79.9707 177.117 80.104 177.587 80.104C178.088 80.104 178.504 79.96 178.835 79.672L179.235 80.488C179.011 80.6907 178.739 80.84 178.419 80.936C178.109 81.032 177.789 81.08 177.459 81.08ZM173.491 73.544V72.6H178.691V73.544H173.491ZM185.591 72.52C186.273 72.52 186.871 72.6533 187.383 72.92C187.905 73.176 188.311 73.5707 188.599 74.104C188.897 74.6373 189.047 75.3093 189.047 76.12V81H187.911V76.232C187.911 75.3467 187.687 74.68 187.239 74.232C186.801 73.7733 186.183 73.544 185.383 73.544C184.785 73.544 184.263 73.6667 183.815 73.912C183.377 74.1467 183.036 74.4933 182.791 74.952C182.556 75.4 182.439 75.944 182.439 76.584V81H181.303V69.128H182.439V74.904L182.215 74.472C182.481 73.864 182.908 73.3893 183.495 73.048C184.081 72.696 184.78 72.52 185.591 72.52ZM195.683 81.08C194.809 81.08 194.041 80.8987 193.379 80.536C192.718 80.1627 192.201 79.656 191.827 79.016C191.454 78.3653 191.267 77.624 191.267 76.792C191.267 75.96 191.443 75.224 191.795 74.584C192.158 73.944 192.649 73.4427 193.267 73.08C193.897 72.7067 194.601 72.52 195.379 72.52C196.169 72.52 196.867 72.7013 197.475 73.064C198.094 73.416 198.579 73.9173 198.931 74.568C199.283 75.208 199.459 75.9493 199.459 76.792C199.459 76.8453 199.454 76.904 199.443 76.968C199.443 77.0213 199.443 77.08 199.443 77.144H192.131V76.296H198.835L198.387 76.632C198.387 76.024 198.254 75.4853 197.987 75.016C197.731 74.536 197.379 74.1627 196.931 73.896C196.483 73.6293 195.966 73.496 195.379 73.496C194.803 73.496 194.286 73.6293 193.827 73.896C193.369 74.1627 193.011 74.536 192.755 75.016C192.499 75.496 192.371 76.0453 192.371 76.664V76.84C192.371 77.48 192.51 78.0453 192.787 78.536C193.075 79.016 193.47 79.3947 193.971 79.672C194.483 79.9387 195.065 80.072 195.715 80.072C196.227 80.072 196.702 79.9813 197.139 79.8C197.587 79.6187 197.971 79.3413 198.291 78.968L198.931 79.704C198.558 80.152 198.089 80.4933 197.523 80.728C196.969 80.9627 196.355 81.08 195.683 81.08ZM201.679 84.184C201.285 84.184 200.906 84.12 200.543 83.992C200.191 83.864 199.887 83.672 199.631 83.416L200.159 82.568C200.373 82.7707 200.602 82.9253 200.847 83.032C201.103 83.1493 201.386 83.208 201.695 83.208C202.069 83.208 202.389 83.1013 202.655 82.888C202.933 82.6853 203.194 82.3227 203.439 81.8L203.983 80.568L204.111 80.392L207.567 72.6H208.687L204.479 82.008C204.245 82.552 203.983 82.984 203.695 83.304C203.418 83.624 203.114 83.848 202.783 83.976C202.453 84.1147 202.085 84.184 201.679 84.184ZM203.919 81.24L200.047 72.6H201.231L204.655 80.312L203.919 81.24ZM217.947 81.08C217.232 81.08 216.608 80.9467 216.075 80.68C215.541 80.4133 215.125 80.0133 214.827 79.48C214.539 78.9467 214.395 78.28 214.395 77.48V72.6H215.531V77.352C215.531 78.248 215.749 78.9253 216.187 79.384C216.635 79.832 217.259 80.056 218.059 80.056C218.645 80.056 219.152 79.9387 219.579 79.704C220.016 79.4587 220.347 79.1067 220.571 78.648C220.805 78.1893 220.923 77.64 220.923 77V72.6H222.059V81H220.971V78.696L221.147 79.112C220.88 79.7307 220.464 80.216 219.899 80.568C219.344 80.9093 218.693 81.08 217.947 81.08ZM227.481 81.08C226.787 81.08 226.131 80.984 225.513 80.792C224.894 80.5893 224.409 80.3387 224.057 80.04L224.569 79.144C224.91 79.4 225.347 79.624 225.881 79.816C226.414 79.9973 226.974 80.088 227.561 80.088C228.361 80.088 228.937 79.9653 229.289 79.72C229.641 79.464 229.817 79.128 229.817 78.712C229.817 78.4027 229.715 78.1627 229.513 77.992C229.321 77.8107 229.065 77.6773 228.745 77.592C228.425 77.496 228.067 77.416 227.673 77.352C227.278 77.288 226.883 77.2133 226.489 77.128C226.105 77.0427 225.753 76.92 225.433 76.76C225.113 76.5893 224.851 76.36 224.649 76.072C224.457 75.784 224.361 75.4 224.361 74.92C224.361 74.4613 224.489 74.0507 224.745 73.688C225.001 73.3253 225.374 73.0427 225.865 72.84C226.366 72.6267 226.974 72.52 227.689 72.52C228.233 72.52 228.777 72.5947 229.321 72.744C229.865 72.8827 230.313 73.0693 230.665 73.304L230.169 74.216C229.795 73.96 229.395 73.7787 228.969 73.672C228.542 73.5547 228.115 73.496 227.689 73.496C226.931 73.496 226.371 73.6293 226.009 73.896C225.657 74.152 225.481 74.4827 225.481 74.888C225.481 75.208 225.577 75.4587 225.769 75.64C225.971 75.8213 226.233 75.9653 226.553 76.072C226.883 76.168 227.241 76.248 227.625 76.312C228.019 76.376 228.409 76.456 228.793 76.552C229.187 76.6373 229.545 76.76 229.865 76.92C230.195 77.0693 230.457 77.288 230.649 77.576C230.851 77.8533 230.953 78.2213 230.953 78.68C230.953 79.1707 230.814 79.5973 230.537 79.96C230.27 80.312 229.875 80.5893 229.353 80.792C228.841 80.984 228.217 81.08 227.481 81.08ZM236.605 81.08C235.73 81.08 234.962 80.8987 234.301 80.536C233.64 80.1627 233.122 79.656 232.749 79.016C232.376 78.3653 232.189 77.624 232.189 76.792C232.189 75.96 232.365 75.224 232.717 74.584C233.08 73.944 233.57 73.4427 234.189 73.08C234.818 72.7067 235.522 72.52 236.301 72.52C237.09 72.52 237.789 72.7013 238.397 73.064C239.016 73.416 239.501 73.9173 239.853 74.568C240.205 75.208 240.381 75.9493 240.381 76.792C240.381 76.8453 240.376 76.904 240.365 76.968C240.365 77.0213 240.365 77.08 240.365 77.144H233.053V76.296H239.757L239.309 76.632C239.309 76.024 239.176 75.4853 238.909 75.016C238.653 74.536 238.301 74.1627 237.853 73.896C237.405 73.6293 236.888 73.496 236.301 73.496C235.725 73.496 235.208 73.6293 234.749 73.896C234.29 74.1627 233.933 74.536 233.677 75.016C233.421 75.496 233.293 76.0453 233.293 76.664V76.84C233.293 77.48 233.432 78.0453 233.709 78.536C233.997 79.016 234.392 79.3947 234.893 79.672C235.405 79.9387 235.986 80.072 236.637 80.072C237.149 80.072 237.624 79.9813 238.061 79.8C238.509 79.6187 238.893 79.3413 239.213 78.968L239.853 79.704C239.48 80.152 239.01 80.4933 238.445 80.728C237.89 80.9627 237.277 81.08 236.605 81.08ZM250.225 81.08C249.425 81.08 248.705 80.8987 248.065 80.536C247.436 80.1733 246.94 79.672 246.577 79.032C246.214 78.3813 246.033 77.6347 246.033 76.792C246.033 75.9387 246.214 75.192 246.577 74.552C246.94 73.912 247.436 73.416 248.065 73.064C248.705 72.7013 249.425 72.52 250.225 72.52C250.961 72.52 251.617 72.6853 252.193 73.016C252.78 73.3467 253.244 73.832 253.585 74.472C253.937 75.1013 254.113 75.8747 254.113 76.792C254.113 77.6987 253.942 78.472 253.601 79.112C253.26 79.752 252.796 80.2427 252.209 80.584C251.633 80.9147 250.972 81.08 250.225 81.08ZM250.305 80.072C250.902 80.072 251.436 79.9387 251.905 79.672C252.385 79.3947 252.758 79.0107 253.025 78.52C253.302 78.0187 253.441 77.4427 253.441 76.792C253.441 76.1307 253.302 75.5547 253.025 75.064C252.758 74.5733 252.385 74.1947 251.905 73.928C251.436 73.6507 250.902 73.512 250.305 73.512C249.718 73.512 249.19 73.6507 248.721 73.928C248.252 74.1947 247.878 74.5733 247.601 75.064C247.324 75.5547 247.185 76.1307 247.185 76.792C247.185 77.4427 247.324 78.0187 247.601 78.52C247.878 79.0107 248.252 79.3947 248.721 79.672C249.19 79.9387 249.718 80.072 250.305 80.072ZM253.473 81V78.472L253.585 76.776L253.425 75.08V69.128H254.561V81H253.473ZM257.725 81V72.6H258.861V81H257.725ZM258.301 70.744C258.066 70.744 257.869 70.664 257.709 70.504C257.549 70.344 257.469 70.152 257.469 69.928C257.469 69.704 257.549 69.5173 257.709 69.368C257.869 69.208 258.066 69.128 258.301 69.128C258.535 69.128 258.733 69.2027 258.893 69.352C259.053 69.5013 259.133 69.688 259.133 69.912C259.133 70.1467 259.053 70.344 258.893 70.504C258.743 70.664 258.546 70.744 258.301 70.744ZM265.606 84.184C264.838 84.184 264.102 84.072 263.398 83.848C262.694 83.624 262.123 83.304 261.686 82.888L262.262 82.024C262.656 82.376 263.142 82.6533 263.718 82.856C264.304 83.0693 264.923 83.176 265.574 83.176C266.64 83.176 267.424 82.9253 267.926 82.424C268.427 81.9333 268.678 81.1653 268.678 80.12V78.024L268.838 76.584L268.726 75.144V72.6H269.814V79.976C269.814 81.4267 269.456 82.488 268.742 83.16C268.038 83.8427 266.992 84.184 265.606 84.184ZM265.398 80.68C264.598 80.68 263.878 80.5093 263.238 80.168C262.598 79.816 262.091 79.3307 261.718 78.712C261.355 78.0933 261.174 77.384 261.174 76.584C261.174 75.784 261.355 75.08 261.718 74.472C262.091 73.8533 262.598 73.3733 263.238 73.032C263.878 72.6907 264.598 72.52 265.398 72.52C266.144 72.52 266.816 72.6747 267.414 72.984C268.011 73.2933 268.486 73.752 268.838 74.36C269.19 74.968 269.366 75.7093 269.366 76.584C269.366 77.4587 269.19 78.2 268.838 78.808C268.486 79.416 268.011 79.88 267.414 80.2C266.816 80.52 266.144 80.68 265.398 80.68ZM265.51 79.672C266.128 79.672 266.678 79.544 267.158 79.288C267.638 79.0213 268.016 78.6587 268.294 78.2C268.571 77.7307 268.71 77.192 268.71 76.584C268.71 75.976 268.571 75.4427 268.294 74.984C268.016 74.5253 267.638 74.168 267.158 73.912C266.678 73.6453 266.128 73.512 265.51 73.512C264.902 73.512 264.352 73.6453 263.862 73.912C263.382 74.168 263.003 74.5253 262.726 74.984C262.459 75.4427 262.326 75.976 262.326 76.584C262.326 77.192 262.459 77.7307 262.726 78.2C263.003 78.6587 263.382 79.0213 263.862 79.288C264.352 79.544 264.902 79.672 265.51 79.672ZM272.975 81V72.6H274.111V81H272.975ZM273.551 70.744C273.316 70.744 273.119 70.664 272.959 70.504C272.799 70.344 272.719 70.152 272.719 69.928C272.719 69.704 272.799 69.5173 272.959 69.368C273.119 69.208 273.316 69.128 273.551 69.128C273.785 69.128 273.983 69.2027 274.143 69.352C274.303 69.5013 274.383 69.688 274.383 69.912C274.383 70.1467 274.303 70.344 274.143 70.504C273.993 70.664 273.796 70.744 273.551 70.744ZM279.928 81.08C279.138 81.08 278.53 80.8667 278.104 80.44C277.677 80.0133 277.464 79.4107 277.464 78.632V70.744H278.6V78.568C278.6 79.0587 278.722 79.4373 278.968 79.704C279.224 79.9707 279.586 80.104 280.056 80.104C280.557 80.104 280.973 79.96 281.304 79.672L281.704 80.488C281.48 80.6907 281.208 80.84 280.888 80.936C280.578 81.032 280.258 81.08 279.928 81.08ZM275.96 73.544V72.6H281.16V73.544H275.96ZM289.036 81V79.144L288.988 78.84V75.736C288.988 75.0213 288.785 74.472 288.38 74.088C287.985 73.704 287.393 73.512 286.604 73.512C286.06 73.512 285.542 73.6027 285.052 73.784C284.561 73.9653 284.145 74.2053 283.804 74.504L283.292 73.656C283.718 73.2933 284.23 73.016 284.828 72.824C285.425 72.6213 286.054 72.52 286.716 72.52C287.804 72.52 288.641 72.792 289.228 73.336C289.825 73.8693 290.124 74.6853 290.124 75.784V81H289.036ZM286.14 81.08C285.51 81.08 284.961 80.9787 284.492 80.776C284.033 80.5627 283.681 80.2747 283.436 79.912C283.19 79.5387 283.068 79.112 283.068 78.632C283.068 78.1947 283.169 77.8 283.372 77.448C283.585 77.0853 283.926 76.7973 284.396 76.584C284.876 76.36 285.516 76.248 286.316 76.248H289.212V77.096H286.348C285.537 77.096 284.972 77.24 284.652 77.528C284.342 77.816 284.188 78.1733 284.188 78.6C284.188 79.08 284.374 79.464 284.748 79.752C285.121 80.04 285.644 80.184 286.316 80.184C286.956 80.184 287.505 80.04 287.964 79.752C288.433 79.4533 288.774 79.0267 288.988 78.472L289.244 79.256C289.03 79.8107 288.657 80.2533 288.124 80.584C287.601 80.9147 286.94 81.08 286.14 81.08ZM293.209 81V69.128H294.345V81H293.209ZM304.349 81.08C303.56 81.08 302.952 80.8667 302.525 80.44C302.099 80.0133 301.885 79.4107 301.885 78.632V70.744H303.021V78.568C303.021 79.0587 303.144 79.4373 303.389 79.704C303.645 79.9707 304.008 80.104 304.477 80.104C304.979 80.104 305.395 79.96 305.725 79.672L306.125 80.488C305.901 80.6907 305.629 80.84 305.309 80.936C305 81.032 304.68 81.08 304.349 81.08ZM300.381 73.544V72.6H305.581V73.544H300.381ZM311.321 81.08C310.51 81.08 309.779 80.8987 309.129 80.536C308.489 80.1627 307.982 79.656 307.609 79.016C307.235 78.3653 307.049 77.624 307.049 76.792C307.049 75.9493 307.235 75.208 307.609 74.568C307.982 73.928 308.489 73.4267 309.129 73.064C309.769 72.7013 310.499 72.52 311.321 72.52C312.153 72.52 312.889 72.7013 313.529 73.064C314.179 73.4267 314.686 73.928 315.049 74.568C315.422 75.208 315.609 75.9493 315.609 76.792C315.609 77.624 315.422 78.3653 315.049 79.016C314.686 79.656 314.179 80.1627 313.529 80.536C312.878 80.8987 312.142 81.08 311.321 81.08ZM311.321 80.072C311.929 80.072 312.467 79.9387 312.937 79.672C313.406 79.3947 313.774 79.0107 314.041 78.52C314.318 78.0187 314.457 77.4427 314.457 76.792C314.457 76.1307 314.318 75.5547 314.041 75.064C313.774 74.5733 313.406 74.1947 312.937 73.928C312.467 73.6507 311.934 73.512 311.337 73.512C310.739 73.512 310.206 73.6507 309.737 73.928C309.267 74.1947 308.894 74.5733 308.617 75.064C308.339 75.5547 308.201 76.1307 308.201 76.792C308.201 77.4427 308.339 78.0187 308.617 78.52C308.894 79.0107 309.267 79.3947 309.737 79.672C310.206 79.9387 310.734 80.072 311.321 80.072ZM321.352 81.08C320.541 81.08 319.81 80.8987 319.16 80.536C318.52 80.1627 318.013 79.656 317.64 79.016C317.266 78.3653 317.08 77.624 317.08 76.792C317.08 75.9493 317.266 75.208 317.64 74.568C318.013 73.928 318.52 73.4267 319.16 73.064C319.8 72.7013 320.53 72.52 321.352 72.52C322.184 72.52 322.92 72.7013 323.56 73.064C324.21 73.4267 324.717 73.928 325.08 74.568C325.453 75.208 325.64 75.9493 325.64 76.792C325.64 77.624 325.453 78.3653 325.08 79.016C324.717 79.656 324.21 80.1627 323.56 80.536C322.909 80.8987 322.173 81.08 321.352 81.08ZM321.352 80.072C321.96 80.072 322.498 79.9387 322.968 79.672C323.437 79.3947 323.805 79.0107 324.072 78.52C324.349 78.0187 324.488 77.4427 324.488 76.792C324.488 76.1307 324.349 75.5547 324.072 75.064C323.805 74.5733 323.437 74.1947 322.968 73.928C322.498 73.6507 321.965 73.512 321.368 73.512C320.77 73.512 320.237 73.6507 319.768 73.928C319.298 74.1947 318.925 74.5733 318.648 75.064C318.37 75.5547 318.232 76.1307 318.232 76.792C318.232 77.4427 318.37 78.0187 318.648 78.52C318.925 79.0107 319.298 79.3947 319.768 79.672C320.237 79.9387 320.765 80.072 321.352 80.072ZM327.959 81V69.128H329.095V81H327.959ZM334.512 81.08C333.819 81.08 333.163 80.984 332.544 80.792C331.925 80.5893 331.44 80.3387 331.088 80.04L331.6 79.144C331.941 79.4 332.379 79.624 332.912 79.816C333.445 79.9973 334.005 80.088 334.592 80.088C335.392 80.088 335.968 79.9653 336.32 79.72C336.672 79.464 336.848 79.128 336.848 78.712C336.848 78.4027 336.747 78.1627 336.544 77.992C336.352 77.8107 336.096 77.6773 335.776 77.592C335.456 77.496 335.099 77.416 334.704 77.352C334.309 77.288 333.915 77.2133 333.52 77.128C333.136 77.0427 332.784 76.92 332.464 76.76C332.144 76.5893 331.883 76.36 331.68 76.072C331.488 75.784 331.392 75.4 331.392 74.92C331.392 74.4613 331.52 74.0507 331.776 73.688C332.032 73.3253 332.405 73.0427 332.896 72.84C333.397 72.6267 334.005 72.52 334.72 72.52C335.264 72.52 335.808 72.5947 336.352 72.744C336.896 72.8827 337.344 73.0693 337.696 73.304L337.2 74.216C336.827 73.96 336.427 73.7787 336 73.672C335.573 73.5547 335.147 73.496 334.72 73.496C333.963 73.496 333.403 73.6293 333.04 73.896C332.688 74.152 332.512 74.4827 332.512 74.888C332.512 75.208 332.608 75.4587 332.8 75.64C333.003 75.8213 333.264 75.9653 333.584 76.072C333.915 76.168 334.272 76.248 334.656 76.312C335.051 76.376 335.44 76.456 335.824 76.552C336.219 76.6373 336.576 76.76 336.896 76.92C337.227 77.0693 337.488 77.288 337.68 77.576C337.883 77.8533 337.984 78.2213 337.984 78.68C337.984 79.1707 337.845 79.5973 337.568 79.96C337.301 80.312 336.907 80.5893 336.384 80.792C335.872 80.984 335.248 81.08 334.512 81.08ZM346.912 81.08C346.123 81.08 345.515 80.8667 345.088 80.44C344.661 80.0133 344.448 79.4107 344.448 78.632V70.744H345.584V78.568C345.584 79.0587 345.707 79.4373 345.952 79.704C346.208 79.9707 346.571 80.104 347.04 80.104C347.541 80.104 347.957 79.96 348.288 79.672L348.688 80.488C348.464 80.6907 348.192 80.84 347.872 80.936C347.563 81.032 347.243 81.08 346.912 81.08ZM342.944 73.544V72.6H348.144V73.544H342.944ZM353.883 81.08C353.072 81.08 352.342 80.8987 351.691 80.536C351.051 80.1627 350.544 79.656 350.171 79.016C349.798 78.3653 349.611 77.624 349.611 76.792C349.611 75.9493 349.798 75.208 350.171 74.568C350.544 73.928 351.051 73.4267 351.691 73.064C352.331 72.7013 353.062 72.52 353.883 72.52C354.715 72.52 355.451 72.7013 356.091 73.064C356.742 73.4267 357.248 73.928 357.611 74.568C357.984 75.208 358.171 75.9493 358.171 76.792C358.171 77.624 357.984 78.3653 357.611 79.016C357.248 79.656 356.742 80.1627 356.091 80.536C355.44 80.8987 354.704 81.08 353.883 81.08ZM353.883 80.072C354.491 80.072 355.03 79.9387 355.499 79.672C355.968 79.3947 356.336 79.0107 356.603 78.52C356.88 78.0187 357.019 77.4427 357.019 76.792C357.019 76.1307 356.88 75.5547 356.603 75.064C356.336 74.5733 355.968 74.1947 355.499 73.928C355.03 73.6507 354.496 73.512 353.899 73.512C353.302 73.512 352.768 73.6507 352.299 73.928C351.83 74.1947 351.456 74.5733 351.179 75.064C350.902 75.5547 350.763 76.1307 350.763 76.792C350.763 77.4427 350.902 78.0187 351.179 78.52C351.456 79.0107 351.83 79.3947 352.299 79.672C352.768 79.9387 353.296 80.072 353.883 80.072ZM375.174 72.52C375.856 72.52 376.448 72.6533 376.95 72.92C377.462 73.176 377.856 73.5707 378.134 74.104C378.422 74.6373 378.566 75.3093 378.566 76.12V81H377.43V76.232C377.43 75.3467 377.216 74.68 376.79 74.232C376.374 73.7733 375.782 73.544 375.014 73.544C374.438 73.544 373.936 73.6667 373.51 73.912C373.094 74.1467 372.768 74.4933 372.534 74.952C372.31 75.4 372.198 75.944 372.198 76.584V81H371.062V76.232C371.062 75.3467 370.848 74.68 370.422 74.232C369.995 73.7733 369.398 73.544 368.63 73.544C368.064 73.544 367.568 73.6667 367.142 73.912C366.715 74.1467 366.384 74.4933 366.15 74.952C365.926 75.4 365.814 75.944 365.814 76.584V81H364.678V72.6H365.766V74.872L365.59 74.472C365.846 73.864 366.256 73.3893 366.822 73.048C367.398 72.696 368.075 72.52 368.854 72.52C369.675 72.52 370.374 72.728 370.95 73.144C371.526 73.5493 371.899 74.1627 372.07 74.984L371.622 74.808C371.867 74.1253 372.299 73.576 372.918 73.16C373.547 72.7333 374.299 72.52 375.174 72.52ZM386.911 81V79.144L386.863 78.84V75.736C386.863 75.0213 386.66 74.472 386.255 74.088C385.86 73.704 385.268 73.512 384.479 73.512C383.935 73.512 383.417 73.6027 382.927 73.784C382.436 73.9653 382.02 74.2053 381.679 74.504L381.167 73.656C381.593 73.2933 382.105 73.016 382.703 72.824C383.3 72.6213 383.929 72.52 384.591 72.52C385.679 72.52 386.516 72.792 387.103 73.336C387.7 73.8693 387.999 74.6853 387.999 75.784V81H386.911ZM384.015 81.08C383.385 81.08 382.836 80.9787 382.367 80.776C381.908 80.5627 381.556 80.2747 381.311 79.912C381.065 79.5387 380.943 79.112 380.943 78.632C380.943 78.1947 381.044 77.8 381.247 77.448C381.46 77.0853 381.801 76.7973 382.271 76.584C382.751 76.36 383.391 76.248 384.191 76.248H387.087V77.096H384.223C383.412 77.096 382.847 77.24 382.527 77.528C382.217 77.816 382.062 78.1733 382.062 78.6C382.062 79.08 382.249 79.464 382.623 79.752C382.996 80.04 383.519 80.184 384.191 80.184C384.831 80.184 385.38 80.04 385.839 79.752C386.308 79.4533 386.649 79.0267 386.863 78.472L387.119 79.256C386.905 79.8107 386.532 80.2533 385.999 80.584C385.476 80.9147 384.815 81.08 384.015 81.08ZM395.372 72.52C396.055 72.52 396.652 72.6533 397.164 72.92C397.687 73.176 398.092 73.5707 398.38 74.104C398.679 74.6373 398.828 75.3093 398.828 76.12V81H397.692V76.232C397.692 75.3467 397.468 74.68 397.02 74.232C396.583 73.7733 395.964 73.544 395.164 73.544C394.567 73.544 394.044 73.6667 393.596 73.912C393.159 74.1467 392.817 74.4933 392.572 74.952C392.337 75.4 392.22 75.944 392.22 76.584V81H391.084V72.6H392.172V74.904L391.996 74.472C392.263 73.864 392.689 73.3893 393.276 73.048C393.863 72.696 394.561 72.52 395.372 72.52ZM407.161 81V79.144L407.113 78.84V75.736C407.113 75.0213 406.91 74.472 406.505 74.088C406.11 73.704 405.518 73.512 404.729 73.512C404.185 73.512 403.667 73.6027 403.177 73.784C402.686 73.9653 402.27 74.2053 401.929 74.504L401.417 73.656C401.843 73.2933 402.355 73.016 402.953 72.824C403.55 72.6213 404.179 72.52 404.841 72.52C405.929 72.52 406.766 72.792 407.353 73.336C407.95 73.8693 408.249 74.6853 408.249 75.784V81H407.161ZM404.265 81.08C403.635 81.08 403.086 80.9787 402.617 80.776C402.158 80.5627 401.806 80.2747 401.561 79.912C401.315 79.5387 401.193 79.112 401.193 78.632C401.193 78.1947 401.294 77.8 401.497 77.448C401.71 77.0853 402.051 76.7973 402.521 76.584C403.001 76.36 403.641 76.248 404.441 76.248H407.337V77.096H404.473C403.662 77.096 403.097 77.24 402.777 77.528C402.467 77.816 402.312 78.1733 402.312 78.6C402.312 79.08 402.499 79.464 402.873 79.752C403.246 80.04 403.769 80.184 404.441 80.184C405.081 80.184 405.63 80.04 406.089 79.752C406.558 79.4533 406.899 79.0267 407.113 78.472L407.369 79.256C407.155 79.8107 406.782 80.2533 406.249 80.584C405.726 80.9147 405.065 81.08 404.265 81.08ZM414.918 84.184C414.15 84.184 413.414 84.072 412.71 83.848C412.006 83.624 411.435 83.304 410.998 82.888L411.574 82.024C411.969 82.376 412.454 82.6533 413.03 82.856C413.617 83.0693 414.235 83.176 414.886 83.176C415.953 83.176 416.737 82.9253 417.238 82.424C417.739 81.9333 417.99 81.1653 417.99 80.12V78.024L418.15 76.584L418.038 75.144V72.6H419.126V79.976C419.126 81.4267 418.769 82.488 418.054 83.16C417.35 83.8427 416.305 84.184 414.918 84.184ZM414.71 80.68C413.91 80.68 413.19 80.5093 412.55 80.168C411.91 79.816 411.403 79.3307 411.03 78.712C410.667 78.0933 410.486 77.384 410.486 76.584C410.486 75.784 410.667 75.08 411.03 74.472C411.403 73.8533 411.91 73.3733 412.55 73.032C413.19 72.6907 413.91 72.52 414.71 72.52C415.457 72.52 416.129 72.6747 416.726 72.984C417.323 73.2933 417.798 73.752 418.15 74.36C418.502 74.968 418.678 75.7093 418.678 76.584C418.678 77.4587 418.502 78.2 418.15 78.808C417.798 79.416 417.323 79.88 416.726 80.2C416.129 80.52 415.457 80.68 414.71 80.68ZM414.822 79.672C415.441 79.672 415.99 79.544 416.47 79.288C416.95 79.0213 417.329 78.6587 417.606 78.2C417.883 77.7307 418.022 77.192 418.022 76.584C418.022 75.976 417.883 75.4427 417.606 74.984C417.329 74.5253 416.95 74.168 416.47 73.912C415.99 73.6453 415.441 73.512 414.822 73.512C414.214 73.512 413.665 73.6453 413.174 73.912C412.694 74.168 412.315 74.5253 412.038 74.984C411.771 75.4427 411.638 75.976 411.638 76.584C411.638 77.192 411.771 77.7307 412.038 78.2C412.315 78.6587 412.694 79.0213 413.174 79.288C413.665 79.544 414.214 79.672 414.822 79.672ZM425.855 81.08C424.98 81.08 424.212 80.8987 423.551 80.536C422.89 80.1627 422.372 79.656 421.999 79.016C421.626 78.3653 421.439 77.624 421.439 76.792C421.439 75.96 421.615 75.224 421.967 74.584C422.33 73.944 422.82 73.4427 423.439 73.08C424.068 72.7067 424.772 72.52 425.551 72.52C426.34 72.52 427.039 72.7013 427.647 73.064C428.266 73.416 428.751 73.9173 429.103 74.568C429.455 75.208 429.631 75.9493 429.631 76.792C429.631 76.8453 429.626 76.904 429.615 76.968C429.615 77.0213 429.615 77.08 429.615 77.144H422.303V76.296H429.007L428.559 76.632C428.559 76.024 428.426 75.4853 428.159 75.016C427.903 74.536 427.551 74.1627 427.103 73.896C426.655 73.6293 426.138 73.496 425.551 73.496C424.975 73.496 424.458 73.6293 423.999 73.896C423.54 74.1627 423.183 74.536 422.927 75.016C422.671 75.496 422.543 76.0453 422.543 76.664V76.84C422.543 77.48 422.682 78.0453 422.959 78.536C423.247 79.016 423.642 79.3947 424.143 79.672C424.655 79.9387 425.236 80.072 425.887 80.072C426.399 80.072 426.874 79.9813 427.311 79.8C427.759 79.6187 428.143 79.3413 428.463 78.968L429.103 79.704C428.73 80.152 428.26 80.4933 427.695 80.728C427.14 80.9627 426.527 81.08 425.855 81.08ZM99.24 101.08C98.4507 101.08 97.8427 100.867 97.416 100.44C96.9893 100.013 96.776 99.4107 96.776 98.632V90.744H97.912V98.568C97.912 99.0587 98.0347 99.4373 98.28 99.704C98.536 99.9707 98.8987 100.104 99.368 100.104C99.8693 100.104 100.285 99.96 100.616 99.672L101.016 100.488C100.792 100.691 100.52 100.84 100.2 100.936C99.8907 101.032 99.5707 101.08 99.24 101.08ZM95.272 93.544V92.6H100.472V93.544H95.272ZM107.372 92.52C108.055 92.52 108.652 92.6533 109.164 92.92C109.687 93.176 110.092 93.5707 110.38 94.104C110.679 94.6373 110.828 95.3093 110.828 96.12V101H109.692V96.232C109.692 95.3467 109.468 94.68 109.02 94.232C108.583 93.7733 107.964 93.544 107.164 93.544C106.567 93.544 106.044 93.6667 105.596 93.912C105.159 94.1467 104.817 94.4933 104.572 94.952C104.337 95.4 104.22 95.944 104.22 96.584V101H103.084V89.128H104.22V94.904L103.996 94.472C104.263 93.864 104.689 93.3893 105.276 93.048C105.863 92.696 106.561 92.52 107.372 92.52ZM117.465 101.08C116.59 101.08 115.822 100.899 115.161 100.536C114.499 100.163 113.982 99.656 113.609 99.016C113.235 98.3653 113.049 97.624 113.049 96.792C113.049 95.96 113.225 95.224 113.577 94.584C113.939 93.944 114.43 93.4427 115.049 93.08C115.678 92.7067 116.382 92.52 117.161 92.52C117.95 92.52 118.649 92.7013 119.257 93.064C119.875 93.416 120.361 93.9173 120.713 94.568C121.065 95.208 121.241 95.9493 121.241 96.792C121.241 96.8453 121.235 96.904 121.225 96.968C121.225 97.0213 121.225 97.08 121.225 97.144H113.913V96.296H120.617L120.169 96.632C120.169 96.024 120.035 95.4853 119.769 95.016C119.513 94.536 119.161 94.1627 118.713 93.896C118.265 93.6293 117.747 93.496 117.161 93.496C116.585 93.496 116.067 93.6293 115.609 93.896C115.15 94.1627 114.793 94.536 114.537 95.016C114.281 95.496 114.153 96.0453 114.153 96.664V96.84C114.153 97.48 114.291 98.0453 114.569 98.536C114.857 99.016 115.251 99.3947 115.753 99.672C116.265 99.9387 116.846 100.072 117.497 100.072C118.009 100.072 118.483 99.9813 118.921 99.8C119.369 99.6187 119.753 99.3413 120.073 98.968L120.713 99.704C120.339 100.152 119.87 100.493 119.305 100.728C118.75 100.963 118.137 101.08 117.465 101.08ZM123.553 101V92.6H124.689V101H123.553ZM124.129 90.744C123.894 90.744 123.697 90.664 123.537 90.504C123.377 90.344 123.297 90.152 123.297 89.928C123.297 89.704 123.377 89.5173 123.537 89.368C123.697 89.208 123.894 89.128 124.129 89.128C124.363 89.128 124.561 89.2027 124.721 89.352C124.881 89.5013 124.961 89.688 124.961 89.912C124.961 90.1467 124.881 90.344 124.721 90.504C124.571 90.664 124.374 90.744 124.129 90.744ZM127.85 101V92.6H128.938V94.888L128.826 94.488C129.06 93.848 129.455 93.3627 130.01 93.032C130.564 92.6907 131.252 92.52 132.074 92.52V93.624C132.031 93.624 131.988 93.624 131.946 93.624C131.903 93.6133 131.86 93.608 131.818 93.608C130.932 93.608 130.239 93.88 129.738 94.424C129.236 94.9573 128.986 95.72 128.986 96.712V101H127.85ZM148.955 92.52C149.638 92.52 150.23 92.6533 150.731 92.92C151.243 93.176 151.638 93.5707 151.915 94.104C152.203 94.6373 152.347 95.3093 152.347 96.12V101H151.211V96.232C151.211 95.3467 150.998 94.68 150.571 94.232C150.155 93.7733 149.563 93.544 148.795 93.544C148.219 93.544 147.718 93.6667 147.291 93.912C146.875 94.1467 146.55 94.4933 146.315 94.952C146.091 95.4 145.979 95.944 145.979 96.584V101H144.843V96.232C144.843 95.3467 144.63 94.68 144.203 94.232C143.776 93.7733 143.179 93.544 142.411 93.544C141.846 93.544 141.35 93.6667 140.923 93.912C140.496 94.1467 140.166 94.4933 139.931 94.952C139.707 95.4 139.595 95.944 139.595 96.584V101H138.459V92.6H139.547V94.872L139.371 94.472C139.627 93.864 140.038 93.3893 140.603 93.048C141.179 92.696 141.856 92.52 142.635 92.52C143.456 92.52 144.155 92.728 144.731 93.144C145.307 93.5493 145.68 94.1627 145.851 94.984L145.403 94.808C145.648 94.1253 146.08 93.576 146.699 93.16C147.328 92.7333 148.08 92.52 148.955 92.52ZM158.852 101.08C158.041 101.08 157.31 100.899 156.66 100.536C156.02 100.163 155.513 99.656 155.14 99.016C154.766 98.3653 154.58 97.624 154.58 96.792C154.58 95.9493 154.766 95.208 155.14 94.568C155.513 93.928 156.02 93.4267 156.66 93.064C157.3 92.7013 158.03 92.52 158.852 92.52C159.684 92.52 160.42 92.7013 161.06 93.064C161.71 93.4267 162.217 93.928 162.58 94.568C162.953 95.208 163.14 95.9493 163.14 96.792C163.14 97.624 162.953 98.3653 162.58 99.016C162.217 99.656 161.71 100.163 161.06 100.536C160.409 100.899 159.673 101.08 158.852 101.08ZM158.852 100.072C159.46 100.072 159.998 99.9387 160.468 99.672C160.937 99.3947 161.305 99.0107 161.572 98.52C161.849 98.0187 161.988 97.4427 161.988 96.792C161.988 96.1307 161.849 95.5547 161.572 95.064C161.305 94.5733 160.937 94.1947 160.468 93.928C159.998 93.6507 159.465 93.512 158.868 93.512C158.27 93.512 157.737 93.6507 157.268 93.928C156.798 94.1947 156.425 94.5733 156.148 95.064C155.87 95.5547 155.732 96.1307 155.732 96.792C155.732 97.4427 155.87 98.0187 156.148 98.52C156.425 99.0107 156.798 99.3947 157.268 99.672C157.737 99.9387 158.265 100.072 158.852 100.072ZM169.747 92.52C170.43 92.52 171.027 92.6533 171.539 92.92C172.062 93.176 172.467 93.5707 172.755 94.104C173.054 94.6373 173.203 95.3093 173.203 96.12V101H172.067V96.232C172.067 95.3467 171.843 94.68 171.395 94.232C170.958 93.7733 170.339 93.544 169.539 93.544C168.942 93.544 168.419 93.6667 167.971 93.912C167.534 94.1467 167.192 94.4933 166.947 94.952C166.712 95.4 166.595 95.944 166.595 96.584V101H165.459V92.6H166.547V94.904L166.371 94.472C166.638 93.864 167.064 93.3893 167.651 93.048C168.238 92.696 168.936 92.52 169.747 92.52ZM179.84 101.08C178.965 101.08 178.197 100.899 177.536 100.536C176.874 100.163 176.357 99.656 175.984 99.016C175.61 98.3653 175.424 97.624 175.424 96.792C175.424 95.96 175.6 95.224 175.952 94.584C176.314 93.944 176.805 93.4427 177.424 93.08C178.053 92.7067 178.757 92.52 179.536 92.52C180.325 92.52 181.024 92.7013 181.632 93.064C182.25 93.416 182.736 93.9173 183.088 94.568C183.44 95.208 183.616 95.9493 183.616 96.792C183.616 96.8453 183.61 96.904 183.6 96.968C183.6 97.0213 183.6 97.08 183.6 97.144H176.288V96.296H182.992L182.544 96.632C182.544 96.024 182.41 95.4853 182.144 95.016C181.888 94.536 181.536 94.1627 181.088 93.896C180.64 93.6293 180.122 93.496 179.536 93.496C178.96 93.496 178.442 93.6293 177.984 93.896C177.525 94.1627 177.168 94.536 176.912 95.016C176.656 95.496 176.528 96.0453 176.528 96.664V96.84C176.528 97.48 176.666 98.0453 176.944 98.536C177.232 99.016 177.626 99.3947 178.128 99.672C178.64 99.9387 179.221 100.072 179.872 100.072C180.384 100.072 180.858 99.9813 181.296 99.8C181.744 99.6187 182.128 99.3413 182.448 98.968L183.088 99.704C182.714 100.152 182.245 100.493 181.68 100.728C181.125 100.963 180.512 101.08 179.84 101.08ZM185.836 104.184C185.441 104.184 185.062 104.12 184.7 103.992C184.348 103.864 184.043 103.672 183.787 103.416L184.316 102.568C184.529 102.771 184.758 102.925 185.004 103.032C185.26 103.149 185.542 103.208 185.852 103.208C186.225 103.208 186.545 103.101 186.812 102.888C187.089 102.685 187.35 102.323 187.596 101.8L188.14 100.568L188.268 100.392L191.724 92.6H192.844L188.636 102.008C188.401 102.552 188.14 102.984 187.852 103.304C187.574 103.624 187.27 103.848 186.94 103.976C186.609 104.115 186.241 104.184 185.836 104.184ZM188.076 101.24L184.204 92.6H185.388L188.812 100.312L188.076 101.24ZM201.287 101.08C200.498 101.08 199.89 100.867 199.463 100.44C199.036 100.013 198.823 99.4107 198.823 98.632V90.744H199.959V98.568C199.959 99.0587 200.082 99.4373 200.327 99.704C200.583 99.9707 200.946 100.104 201.415 100.104C201.916 100.104 202.332 99.96 202.663 99.672L203.063 100.488C202.839 100.691 202.567 100.84 202.247 100.936C201.938 101.032 201.618 101.08 201.287 101.08ZM197.319 93.544V92.6H202.519V93.544H197.319ZM209.419 92.52C210.102 92.52 210.699 92.6533 211.211 92.92C211.734 93.176 212.139 93.5707 212.427 94.104C212.726 94.6373 212.875 95.3093 212.875 96.12V101H211.739V96.232C211.739 95.3467 211.515 94.68 211.067 94.232C210.63 93.7733 210.011 93.544 209.211 93.544C208.614 93.544 208.091 93.6667 207.643 93.912C207.206 94.1467 206.864 94.4933 206.619 94.952C206.384 95.4 206.267 95.944 206.267 96.584V101H205.131V89.128H206.267V94.904L206.043 94.472C206.31 93.864 206.736 93.3893 207.323 93.048C207.91 92.696 208.608 92.52 209.419 92.52ZM219.511 101.08C218.637 101.08 217.869 100.899 217.207 100.536C216.546 100.163 216.029 99.656 215.655 99.016C215.282 98.3653 215.095 97.624 215.095 96.792C215.095 95.96 215.271 95.224 215.623 94.584C215.986 93.944 216.477 93.4427 217.095 93.08C217.725 92.7067 218.429 92.52 219.207 92.52C219.997 92.52 220.695 92.7013 221.303 93.064C221.922 93.416 222.407 93.9173 222.759 94.568C223.111 95.208 223.287 95.9493 223.287 96.792C223.287 96.8453 223.282 96.904 223.271 96.968C223.271 97.0213 223.271 97.08 223.271 97.144H215.959V96.296H222.663L222.215 96.632C222.215 96.024 222.082 95.4853 221.815 95.016C221.559 94.536 221.207 94.1627 220.759 93.896C220.311 93.6293 219.794 93.496 219.207 93.496C218.631 93.496 218.114 93.6293 217.655 93.896C217.197 94.1627 216.839 94.536 216.583 95.016C216.327 95.496 216.199 96.0453 216.199 96.664V96.84C216.199 97.48 216.338 98.0453 216.615 98.536C216.903 99.016 217.298 99.3947 217.799 99.672C218.311 99.9387 218.893 100.072 219.543 100.072C220.055 100.072 220.53 99.9813 220.967 99.8C221.415 99.6187 221.799 99.3413 222.119 98.968L222.759 99.704C222.386 100.152 221.917 100.493 221.351 100.728C220.797 100.963 220.183 101.08 219.511 101.08ZM240.283 92.52C240.966 92.52 241.558 92.6533 242.059 92.92C242.571 93.176 242.966 93.5707 243.243 94.104C243.531 94.6373 243.675 95.3093 243.675 96.12V101H242.539V96.232C242.539 95.3467 242.326 94.68 241.899 94.232C241.483 93.7733 240.891 93.544 240.123 93.544C239.547 93.544 239.046 93.6667 238.619 93.912C238.203 94.1467 237.878 94.4933 237.643 94.952C237.419 95.4 237.307 95.944 237.307 96.584V101H236.171V96.232C236.171 95.3467 235.958 94.68 235.531 94.232C235.104 93.7733 234.507 93.544 233.739 93.544C233.174 93.544 232.678 93.6667 232.251 93.912C231.824 94.1467 231.494 94.4933 231.259 94.952C231.035 95.4 230.923 95.944 230.923 96.584V101H229.787V92.6H230.875V94.872L230.699 94.472C230.955 93.864 231.366 93.3893 231.931 93.048C232.507 92.696 233.184 92.52 233.963 92.52C234.784 92.52 235.483 92.728 236.059 93.144C236.635 93.5493 237.008 94.1627 237.179 94.984L236.731 94.808C236.976 94.1253 237.408 93.576 238.027 93.16C238.656 92.7333 239.408 92.52 240.283 92.52ZM250.18 101.08C249.369 101.08 248.639 100.899 247.988 100.536C247.348 100.163 246.841 99.656 246.468 99.016C246.095 98.3653 245.908 97.624 245.908 96.792C245.908 95.9493 246.095 95.208 246.468 94.568C246.841 93.928 247.348 93.4267 247.988 93.064C248.628 92.7013 249.359 92.52 250.18 92.52C251.012 92.52 251.748 92.7013 252.388 93.064C253.039 93.4267 253.545 93.928 253.908 94.568C254.281 95.208 254.468 95.9493 254.468 96.792C254.468 97.624 254.281 98.3653 253.908 99.016C253.545 99.656 253.039 100.163 252.388 100.536C251.737 100.899 251.001 101.08 250.18 101.08ZM250.18 100.072C250.788 100.072 251.327 99.9387 251.796 99.672C252.265 99.3947 252.633 99.0107 252.9 98.52C253.177 98.0187 253.316 97.4427 253.316 96.792C253.316 96.1307 253.177 95.5547 252.9 95.064C252.633 94.5733 252.265 94.1947 251.796 93.928C251.327 93.6507 250.793 93.512 250.196 93.512C249.599 93.512 249.065 93.6507 248.596 93.928C248.127 94.1947 247.753 94.5733 247.476 95.064C247.199 95.5547 247.06 96.1307 247.06 96.792C247.06 97.4427 247.199 98.0187 247.476 98.52C247.753 99.0107 248.127 99.3947 248.596 99.672C249.065 99.9387 249.593 100.072 250.18 100.072ZM256.787 101V92.6H257.875V94.888L257.763 94.488C257.998 93.848 258.392 93.3627 258.947 93.032C259.502 92.6907 260.19 92.52 261.011 92.52V93.624C260.968 93.624 260.926 93.624 260.883 93.624C260.84 93.6133 260.798 93.608 260.755 93.608C259.87 93.608 259.176 93.88 258.675 94.424C258.174 94.9573 257.923 95.72 257.923 96.712V101H256.787ZM266.574 101.08C265.699 101.08 264.931 100.899 264.27 100.536C263.609 100.163 263.091 99.656 262.718 99.016C262.345 98.3653 262.158 97.624 262.158 96.792C262.158 95.96 262.334 95.224 262.686 94.584C263.049 93.944 263.539 93.4427 264.158 93.08C264.787 92.7067 265.491 92.52 266.27 92.52C267.059 92.52 267.758 92.7013 268.366 93.064C268.985 93.416 269.47 93.9173 269.822 94.568C270.174 95.208 270.35 95.9493 270.35 96.792C270.35 96.8453 270.345 96.904 270.334 96.968C270.334 97.0213 270.334 97.08 270.334 97.144H263.022V96.296H269.726L269.278 96.632C269.278 96.024 269.145 95.4853 268.878 95.016C268.622 94.536 268.27 94.1627 267.822 93.896C267.374 93.6293 266.857 93.496 266.27 93.496C265.694 93.496 265.177 93.6293 264.718 93.896C264.259 94.1627 263.902 94.536 263.646 95.016C263.39 95.496 263.262 96.0453 263.262 96.664V96.84C263.262 97.48 263.401 98.0453 263.678 98.536C263.966 99.016 264.361 99.3947 264.862 99.672C265.374 99.9387 265.955 100.072 266.606 100.072C267.118 100.072 267.593 99.9813 268.03 99.8C268.478 99.6187 268.862 99.3413 269.182 98.968L269.822 99.704C269.449 100.152 268.979 100.493 268.414 100.728C267.859 100.963 267.246 101.08 266.574 101.08ZM279.506 101.08C278.716 101.08 278.108 100.867 277.682 100.44C277.255 100.013 277.042 99.4107 277.042 98.632V90.744H278.178V98.568C278.178 99.0587 278.3 99.4373 278.546 99.704C278.802 99.9707 279.164 100.104 279.634 100.104C280.135 100.104 280.551 99.96 280.882 99.672L281.282 100.488C281.058 100.691 280.786 100.84 280.466 100.936C280.156 101.032 279.836 101.08 279.506 101.08ZM275.538 93.544V92.6H280.738V93.544H275.538ZM287.638 92.52C288.32 92.52 288.918 92.6533 289.43 92.92C289.952 93.176 290.358 93.5707 290.646 94.104C290.944 94.6373 291.094 95.3093 291.094 96.12V101H289.958V96.232C289.958 95.3467 289.734 94.68 289.286 94.232C288.848 93.7733 288.23 93.544 287.43 93.544C286.832 93.544 286.31 93.6667 285.862 93.912C285.424 94.1467 285.083 94.4933 284.838 94.952C284.603 95.4 284.486 95.944 284.486 96.584V101H283.35V89.128H284.486V94.904L284.262 94.472C284.528 93.864 284.955 93.3893 285.542 93.048C286.128 92.696 286.827 92.52 287.638 92.52ZM297.73 101.08C296.855 101.08 296.087 100.899 295.426 100.536C294.765 100.163 294.247 99.656 293.874 99.016C293.501 98.3653 293.314 97.624 293.314 96.792C293.314 95.96 293.49 95.224 293.842 94.584C294.205 93.944 294.695 93.4427 295.314 93.08C295.943 92.7067 296.647 92.52 297.426 92.52C298.215 92.52 298.914 92.7013 299.522 93.064C300.141 93.416 300.626 93.9173 300.978 94.568C301.33 95.208 301.506 95.9493 301.506 96.792C301.506 96.8453 301.501 96.904 301.49 96.968C301.49 97.0213 301.49 97.08 301.49 97.144H294.178V96.296H300.882L300.434 96.632C300.434 96.024 300.301 95.4853 300.034 95.016C299.778 94.536 299.426 94.1627 298.978 93.896C298.53 93.6293 298.013 93.496 297.426 93.496C296.85 93.496 296.333 93.6293 295.874 93.896C295.415 94.1627 295.058 94.536 294.802 95.016C294.546 95.496 294.418 96.0453 294.418 96.664V96.84C294.418 97.48 294.557 98.0453 294.834 98.536C295.122 99.016 295.517 99.3947 296.018 99.672C296.53 99.9387 297.111 100.072 297.762 100.072C298.274 100.072 298.749 99.9813 299.186 99.8C299.634 99.6187 300.018 99.3413 300.338 98.968L300.978 99.704C300.605 100.152 300.135 100.493 299.57 100.728C299.015 100.963 298.402 101.08 297.73 101.08ZM303.726 104.184C303.331 104.184 302.953 104.12 302.59 103.992C302.238 103.864 301.934 103.672 301.678 103.416L302.206 102.568C302.419 102.771 302.649 102.925 302.894 103.032C303.15 103.149 303.433 103.208 303.742 103.208C304.115 103.208 304.435 103.101 304.702 102.888C304.979 102.685 305.241 102.323 305.486 101.8L306.03 100.568L306.158 100.392L309.614 92.6H310.734L306.526 102.008C306.291 102.552 306.03 102.984 305.742 103.304C305.465 103.624 305.161 103.848 304.83 103.976C304.499 104.115 304.131 104.184 303.726 104.184ZM305.966 101.24L302.094 92.6H303.278L306.702 100.312L305.966 101.24ZM319.178 101.08C318.388 101.08 317.78 100.867 317.354 100.44C316.927 100.013 316.714 99.4107 316.714 98.632V90.744H317.85V98.568C317.85 99.0587 317.972 99.4373 318.218 99.704C318.474 99.9707 318.836 100.104 319.306 100.104C319.807 100.104 320.223 99.96 320.554 99.672L320.954 100.488C320.73 100.691 320.458 100.84 320.138 100.936C319.828 101.032 319.508 101.08 319.178 101.08ZM315.21 93.544V92.6H320.41V93.544H315.21ZM323.022 101V92.6H324.11V94.888L323.998 94.488C324.232 93.848 324.627 93.3627 325.182 93.032C325.736 92.6907 326.424 92.52 327.246 92.52V93.624C327.203 93.624 327.16 93.624 327.118 93.624C327.075 93.6133 327.032 93.608 326.99 93.608C326.104 93.608 325.411 93.88 324.91 94.424C324.408 94.9573 324.158 95.72 324.158 96.712V101H323.022ZM332.915 101.08C332.201 101.08 331.577 100.947 331.043 100.68C330.51 100.413 330.094 100.013 329.795 99.48C329.507 98.9467 329.363 98.28 329.363 97.48V92.6H330.499V97.352C330.499 98.248 330.718 98.9253 331.155 99.384C331.603 99.832 332.227 100.056 333.027 100.056C333.614 100.056 334.121 99.9387 334.547 99.704C334.985 99.4587 335.315 99.1067 335.539 98.648C335.774 98.1893 335.891 97.64 335.891 97V92.6H337.027V101H335.939V98.696L336.115 99.112C335.849 99.7307 335.433 100.216 334.867 100.568C334.313 100.909 333.662 101.08 332.915 101.08ZM342.449 101.08C341.756 101.08 341.1 100.984 340.481 100.792C339.863 100.589 339.377 100.339 339.025 100.04L339.537 99.144C339.879 99.4 340.316 99.624 340.849 99.816C341.383 99.9973 341.943 100.088 342.529 100.088C343.329 100.088 343.905 99.9653 344.257 99.72C344.609 99.464 344.785 99.128 344.785 98.712C344.785 98.4027 344.684 98.1627 344.481 97.992C344.289 97.8107 344.033 97.6773 343.713 97.592C343.393 97.496 343.036 97.416 342.641 97.352C342.247 97.288 341.852 97.2133 341.457 97.128C341.073 97.0427 340.721 96.92 340.401 96.76C340.081 96.5893 339.82 96.36 339.617 96.072C339.425 95.784 339.329 95.4 339.329 94.92C339.329 94.4613 339.457 94.0507 339.713 93.688C339.969 93.3253 340.343 93.0427 340.833 92.84C341.335 92.6267 341.943 92.52 342.657 92.52C343.201 92.52 343.745 92.5947 344.289 92.744C344.833 92.8827 345.281 93.0693 345.633 93.304L345.137 94.216C344.764 93.96 344.364 93.7787 343.937 93.672C343.511 93.5547 343.084 93.496 342.657 93.496C341.9 93.496 341.34 93.6293 340.977 93.896C340.625 94.152 340.449 94.4827 340.449 94.888C340.449 95.208 340.545 95.4587 340.737 95.64C340.94 95.8213 341.201 95.9653 341.521 96.072C341.852 96.168 342.209 96.248 342.593 96.312C342.988 96.376 343.377 96.456 343.761 96.552C344.156 96.6373 344.513 96.76 344.833 96.92C345.164 97.0693 345.425 97.288 345.617 97.576C345.82 97.8533 345.921 98.2213 345.921 98.68C345.921 99.1707 345.783 99.5973 345.505 99.96C345.239 100.312 344.844 100.589 344.321 100.792C343.809 100.984 343.185 101.08 342.449 101.08ZM350.662 101.08C349.873 101.08 349.265 100.867 348.838 100.44C348.411 100.013 348.198 99.4107 348.198 98.632V90.744H349.334V98.568C349.334 99.0587 349.457 99.4373 349.702 99.704C349.958 99.9707 350.321 100.104 350.79 100.104C351.291 100.104 351.707 99.96 352.038 99.672L352.438 100.488C352.214 100.691 351.942 100.84 351.622 100.936C351.313 101.032 350.993 101.08 350.662 101.08ZM346.694 93.544V92.6H351.894V93.544H346.694ZM361.349 101.08C360.56 101.08 359.952 100.867 359.525 100.44C359.099 100.013 358.885 99.4107 358.885 98.632V90.744H360.021V98.568C360.021 99.0587 360.144 99.4373 360.389 99.704C360.645 99.9707 361.008 100.104 361.477 100.104C361.979 100.104 362.395 99.96 362.725 99.672L363.125 100.488C362.901 100.691 362.629 100.84 362.309 100.936C362 101.032 361.68 101.08 361.349 101.08ZM357.381 93.544V92.6H362.581V93.544H357.381ZM369.481 92.52C370.164 92.52 370.761 92.6533 371.273 92.92C371.796 93.176 372.201 93.5707 372.489 94.104C372.788 94.6373 372.937 95.3093 372.937 96.12V101H371.801V96.232C371.801 95.3467 371.577 94.68 371.129 94.232C370.692 93.7733 370.073 93.544 369.273 93.544C368.676 93.544 368.153 93.6667 367.705 93.912C367.268 94.1467 366.927 94.4933 366.681 94.952C366.447 95.4 366.329 95.944 366.329 96.584V101H365.193V89.128H366.329V94.904L366.105 94.472C366.372 93.864 366.799 93.3893 367.385 93.048C367.972 92.696 368.671 92.52 369.481 92.52ZM379.574 101.08C378.699 101.08 377.931 100.899 377.27 100.536C376.609 100.163 376.091 99.656 375.718 99.016C375.345 98.3653 375.158 97.624 375.158 96.792C375.158 95.96 375.334 95.224 375.686 94.584C376.049 93.944 376.539 93.4427 377.158 93.08C377.787 92.7067 378.491 92.52 379.27 92.52C380.059 92.52 380.758 92.7013 381.366 93.064C381.985 93.416 382.47 93.9173 382.822 94.568C383.174 95.208 383.35 95.9493 383.35 96.792C383.35 96.8453 383.345 96.904 383.334 96.968C383.334 97.0213 383.334 97.08 383.334 97.144H376.022V96.296H382.726L382.278 96.632C382.278 96.024 382.145 95.4853 381.878 95.016C381.622 94.536 381.27 94.1627 380.822 93.896C380.374 93.6293 379.857 93.496 379.27 93.496C378.694 93.496 378.177 93.6293 377.718 93.896C377.259 94.1627 376.902 94.536 376.646 95.016C376.39 95.496 376.262 96.0453 376.262 96.664V96.84C376.262 97.48 376.401 98.0453 376.678 98.536C376.966 99.016 377.361 99.3947 377.862 99.672C378.374 99.9387 378.955 100.072 379.606 100.072C380.118 100.072 380.593 99.9813 381.03 99.8C381.478 99.6187 381.862 99.3413 382.182 98.968L382.822 99.704C382.449 100.152 381.979 100.493 381.414 100.728C380.859 100.963 380.246 101.08 379.574 101.08ZM396.158 92.52C396.841 92.52 397.433 92.6533 397.934 92.92C398.446 93.176 398.841 93.5707 399.118 94.104C399.406 94.6373 399.55 95.3093 399.55 96.12V101H398.414V96.232C398.414 95.3467 398.201 94.68 397.774 94.232C397.358 93.7733 396.766 93.544 395.998 93.544C395.422 93.544 394.921 93.6667 394.494 93.912C394.078 94.1467 393.753 94.4933 393.518 94.952C393.294 95.4 393.182 95.944 393.182 96.584V101H392.046V96.232C392.046 95.3467 391.833 94.68 391.406 94.232C390.979 93.7733 390.382 93.544 389.614 93.544C389.049 93.544 388.553 93.6667 388.126 93.912C387.699 94.1467 387.369 94.4933 387.134 94.952C386.91 95.4 386.798 95.944 386.798 96.584V101H385.662V92.6H386.75V94.872L386.574 94.472C386.83 93.864 387.241 93.3893 387.806 93.048C388.382 92.696 389.059 92.52 389.838 92.52C390.659 92.52 391.358 92.728 391.934 93.144C392.51 93.5493 392.883 94.1627 393.054 94.984L392.606 94.808C392.851 94.1253 393.283 93.576 393.902 93.16C394.531 92.7333 395.283 92.52 396.158 92.52ZM402.743 101.08C402.508 101.08 402.306 100.995 402.135 100.824C401.975 100.653 401.895 100.445 401.895 100.2C401.895 99.944 401.975 99.736 402.135 99.576C402.306 99.416 402.508 99.336 402.743 99.336C402.978 99.336 403.175 99.416 403.335 99.576C403.506 99.736 403.591 99.944 403.591 100.2C403.591 100.445 403.506 100.653 403.335 100.824C403.175 100.995 402.978 101.08 402.743 101.08Z" fill="black"/>
<g clip-path="url(#clip0_35_1149)">
<g opacity="0.2">
<path fill-rule="evenodd" clip-rule="evenodd" d="M54.3253 34.6501C54.5023 34.6498 54.6746 34.7064 54.8169 34.8116C54.9592 34.9168 55.064 35.0649 55.1156 35.2342L58.2968 45.6836L67.8091 49.1602C67.966 49.2176 68.1017 49.3214 68.1983 49.4576C68.2949 49.5939 68.3479 49.7563 68.3502 49.9233C68.3525 50.0904 68.3041 50.2542 68.2113 50.3931C68.1185 50.532 67.9857 50.6394 67.8305 50.7013L58.381 54.455L55.1156 65.411C55.0647 65.5811 54.9603 65.7302 54.818 65.8362C54.6756 65.9422 54.5028 65.9994 54.3253 65.9994C54.1478 65.9994 53.975 65.9422 53.8326 65.8362C53.6902 65.7302 53.5858 65.5811 53.5349 65.411L50.2696 54.455L40.82 50.7013C40.6648 50.6394 40.5321 50.532 40.4393 50.3931C40.3465 50.2542 40.298 50.0904 40.3004 49.9233C40.3027 49.7563 40.3557 49.5939 40.4523 49.4576C40.5489 49.3214 40.6846 49.2176 40.8415 49.1602L50.3537 45.6836L53.5366 35.2342C53.5882 35.0652 53.6927 34.9172 53.8346 34.8121C53.9766 34.7069 54.1486 34.6501 54.3253 34.6501Z" fill="#FFD53E"/>
<path d="M65.5949 65.9176C65.4134 65.9176 65.2649 65.7856 65.2484 65.6206C64.9184 62.3206 64.6709 61.2646 61.5689 60.9841C61.4825 60.9766 61.4022 60.9367 61.3441 60.8724C61.2859 60.8082 61.2542 60.7243 61.2554 60.6376C61.2554 60.4561 61.3874 60.3076 61.5689 60.2911C64.7039 59.9941 64.9184 59.1361 65.2484 55.9186C65.2649 55.7371 65.4134 55.6051 65.5949 55.6051C65.7764 55.6051 65.9249 55.7371 65.9414 55.9021C66.2714 59.1361 66.4859 59.9941 69.6209 60.2746C69.8024 60.2911 69.9344 60.4396 69.9344 60.6211C69.9344 60.8026 69.8024 60.9511 69.6209 60.9676C66.5354 61.2646 66.2714 62.3206 65.9579 65.6041C65.9414 65.7856 65.7929 65.9176 65.6114 65.9176H65.5949Z" fill="#FFD53E"/>
</g>
<path fill-rule="evenodd" clip-rule="evenodd" d="M51.8502 33.825C52.0272 33.8247 52.1995 33.8814 52.3418 33.9865C52.4841 34.0917 52.5889 34.2399 52.6405 34.4091L55.8217 44.8586L65.334 48.3351C65.4909 48.3926 65.6266 48.4963 65.7232 48.6326C65.8198 48.7689 65.8728 48.9312 65.8751 49.0983C65.8774 49.2653 65.829 49.4291 65.7362 49.568C65.6434 49.7069 65.5106 49.8144 65.3554 49.8762L55.9059 53.63L52.6405 64.586C52.5896 64.756 52.4852 64.9051 52.3429 65.0111C52.2005 65.1171 52.0277 65.1744 51.8502 65.1744C51.6727 65.1744 51.4999 65.1171 51.3575 65.0111C51.2151 64.9051 51.1107 64.756 51.0598 64.586L47.7945 53.63L38.3449 49.8762C38.1897 49.8144 38.057 49.7069 37.9642 49.568C37.8714 49.4291 37.823 49.2653 37.8253 49.0983C37.8276 48.9312 37.8806 48.7689 37.9772 48.6326C38.0738 48.4963 38.2095 48.3926 38.3664 48.3351L47.8786 44.8586L51.0615 34.4091C51.1131 34.2401 51.2176 34.0922 51.3595 33.987C51.5015 33.8819 51.6735 33.8251 51.8502 33.825ZM51.8502 37.4814L49.3372 45.7314C49.3 45.8537 49.2348 45.9656 49.1469 46.0584C49.059 46.1511 48.9508 46.2222 48.8307 46.266L40.9651 49.1436L48.7762 52.2456C48.892 52.2918 48.9957 52.3636 49.0798 52.4556C49.1638 52.5476 49.2259 52.6575 49.2613 52.7769L51.8518 61.4625L54.439 52.7769C54.4745 52.6575 54.5366 52.5476 54.6206 52.4556C54.7046 52.3636 54.8084 52.2918 54.9241 52.2456L62.7352 49.1436L54.8697 46.2693C54.7496 46.2255 54.6414 46.1544 54.5535 46.0617C54.4655 45.9689 54.4004 45.857 54.3631 45.7347L51.8502 37.4814Z" fill="#FFD53E"/>
<path d="M64.6376 64.548C64.4726 64.548 64.324 64.416 64.3075 64.251C64.0105 61.248 63.7796 60.291 61.0241 60.027C60.8591 60.0105 60.7271 59.862 60.7271 59.697C60.7271 59.532 60.8591 59.3835 61.0241 59.367C63.8456 59.103 64.0105 58.377 64.3075 55.374C64.3075 55.209 64.4726 55.077 64.6376 55.077C64.8026 55.077 64.9511 55.209 64.9676 55.374C65.2646 58.377 65.4461 59.103 68.2511 59.367C68.4161 59.3835 68.5481 59.532 68.5481 59.697C68.5481 59.862 68.4161 60.0105 68.2511 60.027C65.4791 60.291 65.2646 61.248 64.9676 64.2675C64.9676 64.4325 64.8191 64.5645 64.6376 64.5645V64.548Z" fill="#FFD53E"/>
</g>
</g>
<defs>
<filter id="filter0_d_35_1149" x="0" y="0" width="513" height="169" filterUnits="userSpaceOnUse" color-interpolation-filters="sRGB">
<feFlood flood-opacity="0" result="BackgroundImageFix"/>
<feColorMatrix in="SourceAlpha" type="matrix" values="0 0 0 0 0 0 0 0 0 0 0 0 0 0 0 0 0 0 127 0" result="hardAlpha"/>
<feOffset dx="4" dy="8"/>
<feGaussianBlur stdDeviation="6"/>
<feComposite in2="hardAlpha" operator="out"/>
<feColorMatrix type="matrix" values="0 0 0 0 0 0 0 0 0 0 0 0 0 0 0 0 0 0 0.25 0"/>
<feBlend mode="normal" in2="BackgroundImageFix" result="effect1_dropShadow_35_1149"/>
<feBlend mode="normal" in="SourceGraphic" in2="effect1_dropShadow_35_1149" result="shape"/>
</filter>
<clipPath id="clip0_35_1149">
<rect width="33" height="33" fill="white" transform="translate(37 33)"/>
</clipPath>
</defs>
</svg>
