<svg width="513" height="169" viewBox="0 0 513 169" fill="none" xmlns="http://www.w3.org/2000/svg">
<g filter="url(#filter0_d_35_1158)">
<rect x="8" y="4" width="489" height="145" rx="30" fill="#F5D7FF" fill-opacity="0.29" shape-rendering="crispEdges"/>
<path d="M102.556 51.096C101.756 51.096 100.993 50.968 100.268 50.712C99.5422 50.4453 98.9662 50.0933 98.5395 49.656L99.0995 48.744C99.4515 49.1173 99.9315 49.4267 100.539 49.672C101.158 49.9173 101.825 50.04 102.54 50.04C103.489 50.04 104.209 49.832 104.7 49.416C105.201 48.9893 105.452 48.4347 105.452 47.752C105.452 47.272 105.334 46.8613 105.1 46.52C104.876 46.168 104.492 45.896 103.948 45.704C103.404 45.512 102.657 45.416 101.708 45.416H99.3235L99.8995 39.8H106.028V40.824H100.364L100.956 40.264L100.46 44.968L99.8675 44.392H101.964C103.094 44.392 104.001 44.5307 104.684 44.808C105.366 45.0853 105.857 45.4747 106.156 45.976C106.465 46.4667 106.62 47.0427 106.62 47.704C106.62 48.3333 106.47 48.9093 106.172 49.432C105.873 49.944 105.425 50.3493 104.828 50.648C104.23 50.9467 103.473 51.096 102.556 51.096ZM112.338 51.096C111.442 51.096 110.669 50.968 110.018 50.712C109.378 50.456 108.882 50.088 108.53 49.608C108.189 49.1173 108.018 48.5413 108.018 47.88C108.018 47.24 108.183 46.696 108.514 46.248C108.855 45.7893 109.346 45.4373 109.986 45.192C110.637 44.9467 111.421 44.824 112.338 44.824C113.245 44.824 114.023 44.9467 114.674 45.192C115.325 45.4373 115.821 45.7893 116.162 46.248C116.514 46.696 116.69 47.24 116.69 47.88C116.69 48.5413 116.514 49.1173 116.162 49.608C115.81 50.088 115.309 50.456 114.658 50.712C114.007 50.968 113.234 51.096 112.338 51.096ZM112.338 50.12C113.33 50.12 114.103 49.9173 114.658 49.512C115.223 49.1067 115.506 48.5573 115.506 47.864C115.506 47.1707 115.223 46.6267 114.658 46.232C114.103 45.8267 113.33 45.624 112.338 45.624C111.346 45.624 110.573 45.8267 110.018 46.232C109.463 46.6267 109.186 47.1707 109.186 47.864C109.186 48.5573 109.463 49.1067 110.018 49.512C110.573 49.9173 111.346 50.12 112.338 50.12ZM112.338 45.48C111.506 45.48 110.797 45.368 110.21 45.144C109.634 44.92 109.191 44.6 108.882 44.184C108.573 43.7573 108.418 43.2507 108.418 42.664C108.418 42.0453 108.578 41.5173 108.898 41.08C109.229 40.632 109.687 40.2907 110.274 40.056C110.861 39.8213 111.549 39.704 112.338 39.704C113.127 39.704 113.815 39.8213 114.402 40.056C114.999 40.2907 115.463 40.632 115.794 41.08C116.125 41.5173 116.29 42.0453 116.29 42.664C116.29 43.2507 116.135 43.7573 115.826 44.184C115.517 44.6 115.063 44.92 114.466 45.144C113.879 45.368 113.17 45.48 112.338 45.48ZM112.338 44.712C113.213 44.712 113.895 44.5307 114.386 44.168C114.877 43.8053 115.122 43.32 115.122 42.712C115.122 42.072 114.866 41.576 114.354 41.224C113.853 40.8613 113.181 40.68 112.338 40.68C111.495 40.68 110.823 40.8613 110.322 41.224C109.821 41.576 109.57 42.0667 109.57 42.696C109.57 43.3147 109.81 43.8053 110.29 44.168C110.781 44.5307 111.463 44.712 112.338 44.712ZM119.633 51L127.281 39.8H128.225L120.577 51H119.633ZM120.497 45.8C119.996 45.8 119.553 45.6773 119.169 45.432C118.785 45.176 118.486 44.8187 118.273 44.36C118.07 43.9013 117.969 43.368 117.969 42.76C117.969 42.152 118.07 41.6187 118.273 41.16C118.486 40.7013 118.785 40.3493 119.169 40.104C119.553 39.848 119.996 39.72 120.497 39.72C120.998 39.72 121.436 39.848 121.809 40.104C122.193 40.3493 122.492 40.7013 122.705 41.16C122.918 41.6187 123.025 42.152 123.025 42.76C123.025 43.368 122.918 43.9013 122.705 44.36C122.492 44.8187 122.193 45.176 121.809 45.432C121.436 45.6773 120.998 45.8 120.497 45.8ZM120.497 45.08C121.02 45.08 121.436 44.8773 121.745 44.472C122.065 44.056 122.225 43.4853 122.225 42.76C122.225 42.0347 122.065 41.4693 121.745 41.064C121.436 40.648 121.02 40.44 120.497 40.44C119.964 40.44 119.542 40.648 119.233 41.064C118.924 41.4693 118.769 42.0347 118.769 42.76C118.769 43.4853 118.924 44.056 119.233 44.472C119.542 44.8773 119.964 45.08 120.497 45.08ZM127.361 51.08C126.87 51.08 126.433 50.9573 126.049 50.712C125.665 50.456 125.366 50.0987 125.153 49.64C124.94 49.1813 124.833 48.648 124.833 48.04C124.833 47.432 124.94 46.8987 125.153 46.44C125.366 45.9813 125.665 45.6293 126.049 45.384C126.433 45.128 126.87 45 127.361 45C127.873 45 128.316 45.128 128.689 45.384C129.073 45.6293 129.366 45.9813 129.569 46.44C129.782 46.8987 129.889 47.432 129.889 48.04C129.889 48.648 129.782 49.1813 129.569 49.64C129.366 50.0987 129.073 50.456 128.689 50.712C128.316 50.9573 127.873 51.08 127.361 51.08ZM127.361 50.36C127.884 50.36 128.3 50.1573 128.609 49.752C128.929 49.336 129.089 48.7653 129.089 48.04C129.089 47.3147 128.929 46.7493 128.609 46.344C128.3 45.928 127.884 45.72 127.361 45.72C126.838 45.72 126.417 45.928 126.097 46.344C125.788 46.7493 125.633 47.3147 125.633 48.04C125.633 48.7653 125.788 49.336 126.097 49.752C126.417 50.1573 126.838 50.36 127.361 50.36ZM139.758 51.08C138.947 51.08 138.217 50.8987 137.566 50.536C136.926 50.1627 136.419 49.656 136.046 49.016C135.673 48.3653 135.486 47.624 135.486 46.792C135.486 45.9493 135.673 45.208 136.046 44.568C136.419 43.928 136.926 43.4267 137.566 43.064C138.206 42.7013 138.937 42.52 139.758 42.52C140.59 42.52 141.326 42.7013 141.966 43.064C142.617 43.4267 143.123 43.928 143.486 44.568C143.859 45.208 144.046 45.9493 144.046 46.792C144.046 47.624 143.859 48.3653 143.486 49.016C143.123 49.656 142.617 50.1627 141.966 50.536C141.315 50.8987 140.579 51.08 139.758 51.08ZM139.758 50.072C140.366 50.072 140.905 49.9387 141.374 49.672C141.843 49.3947 142.211 49.0107 142.478 48.52C142.755 48.0187 142.894 47.4427 142.894 46.792C142.894 46.1307 142.755 45.5547 142.478 45.064C142.211 44.5733 141.843 44.1947 141.374 43.928C140.905 43.6507 140.371 43.512 139.774 43.512C139.177 43.512 138.643 43.6507 138.174 43.928C137.705 44.1947 137.331 44.5733 137.054 45.064C136.777 45.5547 136.638 46.1307 136.638 46.792C136.638 47.4427 136.777 48.0187 137.054 48.52C137.331 49.0107 137.705 49.3947 138.174 49.672C138.643 49.9387 139.171 50.072 139.758 50.072ZM146.557 51V41.544C146.557 40.7973 146.776 40.1947 147.213 39.736C147.651 39.2773 148.28 39.048 149.101 39.048C149.421 39.048 149.731 39.0907 150.029 39.176C150.328 39.2613 150.579 39.3947 150.781 39.576L150.397 40.424C150.237 40.2853 150.051 40.184 149.837 40.12C149.624 40.0453 149.395 40.008 149.149 40.008C148.669 40.008 148.301 40.1413 148.045 40.408C147.789 40.6747 147.661 41.0693 147.661 41.592V42.872L147.693 43.4V51H146.557ZM145.053 43.544V42.6H150.253V43.544H145.053ZM166.471 42.52C167.153 42.52 167.745 42.6533 168.247 42.92C168.759 43.176 169.153 43.5707 169.431 44.104C169.719 44.6373 169.863 45.3093 169.863 46.12V51H168.727V46.232C168.727 45.3467 168.513 44.68 168.087 44.232C167.671 43.7733 167.079 43.544 166.311 43.544C165.735 43.544 165.233 43.6667 164.807 43.912C164.391 44.1467 164.065 44.4933 163.831 44.952C163.607 45.4 163.495 45.944 163.495 46.584V51H162.359V46.232C162.359 45.3467 162.145 44.68 161.719 44.232C161.292 43.7733 160.695 43.544 159.927 43.544C159.361 43.544 158.865 43.6667 158.439 43.912C158.012 44.1467 157.681 44.4933 157.447 44.952C157.223 45.4 157.111 45.944 157.111 46.584V51H155.975V42.6H157.063V44.872L156.887 44.472C157.143 43.864 157.553 43.3893 158.119 43.048C158.695 42.696 159.372 42.52 160.151 42.52C160.972 42.52 161.671 42.728 162.247 43.144C162.823 43.5493 163.196 44.1627 163.367 44.984L162.919 44.808C163.164 44.1253 163.596 43.576 164.215 43.16C164.844 42.7333 165.596 42.52 166.471 42.52ZM172.943 51V42.6H174.079V51H172.943ZM173.519 40.744C173.285 40.744 173.087 40.664 172.927 40.504C172.767 40.344 172.687 40.152 172.687 39.928C172.687 39.704 172.767 39.5173 172.927 39.368C173.087 39.208 173.285 39.128 173.519 39.128C173.754 39.128 173.951 39.2027 174.111 39.352C174.271 39.5013 174.351 39.688 174.351 39.912C174.351 40.1467 174.271 40.344 174.111 40.504C173.962 40.664 173.765 40.744 173.519 40.744ZM177.24 51V39.128H178.376V51H177.24ZM181.537 51V39.128H182.673V51H181.537ZM189.402 51.08C188.527 51.08 187.759 50.8987 187.098 50.536C186.437 50.1627 185.919 49.656 185.546 49.016C185.173 48.3653 184.986 47.624 184.986 46.792C184.986 45.96 185.162 45.224 185.514 44.584C185.877 43.944 186.367 43.4427 186.986 43.08C187.615 42.7067 188.319 42.52 189.098 42.52C189.887 42.52 190.586 42.7013 191.194 43.064C191.813 43.416 192.298 43.9173 192.65 44.568C193.002 45.208 193.178 45.9493 193.178 46.792C193.178 46.8453 193.173 46.904 193.162 46.968C193.162 47.0213 193.162 47.08 193.162 47.144H185.85V46.296H192.554L192.106 46.632C192.106 46.024 191.973 45.4853 191.706 45.016C191.45 44.536 191.098 44.1627 190.65 43.896C190.202 43.6293 189.685 43.496 189.098 43.496C188.522 43.496 188.005 43.6293 187.546 43.896C187.087 44.1627 186.73 44.536 186.474 45.016C186.218 45.496 186.09 46.0453 186.09 46.664V46.84C186.09 47.48 186.229 48.0453 186.506 48.536C186.794 49.016 187.189 49.3947 187.69 49.672C188.202 49.9387 188.783 50.072 189.434 50.072C189.946 50.072 190.421 49.9813 190.858 49.8C191.306 49.6187 191.69 49.3413 192.01 48.968L192.65 49.704C192.277 50.152 191.807 50.4933 191.242 50.728C190.687 50.9627 190.074 51.08 189.402 51.08ZM199.778 42.52C200.461 42.52 201.058 42.6533 201.57 42.92C202.093 43.176 202.498 43.5707 202.786 44.104C203.085 44.6373 203.234 45.3093 203.234 46.12V51H202.098V46.232C202.098 45.3467 201.874 44.68 201.426 44.232C200.989 43.7733 200.37 43.544 199.57 43.544C198.973 43.544 198.45 43.6667 198.002 43.912C197.565 44.1467 197.224 44.4933 196.978 44.952C196.744 45.4 196.626 45.944 196.626 46.584V51H195.49V42.6H196.578V44.904L196.402 44.472C196.669 43.864 197.096 43.3893 197.682 43.048C198.269 42.696 198.968 42.52 199.778 42.52ZM210.591 42.52C211.273 42.52 211.871 42.6533 212.383 42.92C212.905 43.176 213.311 43.5707 213.599 44.104C213.897 44.6373 214.047 45.3093 214.047 46.12V51H212.911V46.232C212.911 45.3467 212.687 44.68 212.239 44.232C211.801 43.7733 211.183 43.544 210.383 43.544C209.785 43.544 209.263 43.6667 208.815 43.912C208.377 44.1467 208.036 44.4933 207.791 44.952C207.556 45.4 207.439 45.944 207.439 46.584V51H206.303V42.6H207.391V44.904L207.215 44.472C207.481 43.864 207.908 43.3893 208.495 43.048C209.081 42.696 209.78 42.52 210.591 42.52ZM217.115 51V42.6H218.251V51H217.115ZM217.691 40.744C217.457 40.744 217.259 40.664 217.099 40.504C216.939 40.344 216.859 40.152 216.859 39.928C216.859 39.704 216.939 39.5173 217.099 39.368C217.259 39.208 217.457 39.128 217.691 39.128C217.926 39.128 218.123 39.2027 218.283 39.352C218.443 39.5013 218.523 39.688 218.523 39.912C218.523 40.1467 218.443 40.344 218.283 40.504C218.134 40.664 217.937 40.744 217.691 40.744ZM226.676 51V49.144L226.628 48.84V45.736C226.628 45.0213 226.425 44.472 226.02 44.088C225.625 43.704 225.033 43.512 224.244 43.512C223.7 43.512 223.183 43.6027 222.692 43.784C222.201 43.9653 221.785 44.2053 221.444 44.504L220.932 43.656C221.359 43.2933 221.871 43.016 222.468 42.824C223.065 42.6213 223.695 42.52 224.356 42.52C225.444 42.52 226.281 42.792 226.868 43.336C227.465 43.8693 227.764 44.6853 227.764 45.784V51H226.676ZM223.78 51.08C223.151 51.08 222.601 50.9787 222.132 50.776C221.673 50.5627 221.321 50.2747 221.076 49.912C220.831 49.5387 220.708 49.112 220.708 48.632C220.708 48.1947 220.809 47.8 221.012 47.448C221.225 47.0853 221.567 46.7973 222.036 46.584C222.516 46.36 223.156 46.248 223.956 46.248H226.852V47.096H223.988C223.177 47.096 222.612 47.24 222.292 47.528C221.983 47.816 221.828 48.1733 221.828 48.6C221.828 49.08 222.015 49.464 222.388 49.752C222.761 50.04 223.284 50.184 223.956 50.184C224.596 50.184 225.145 50.04 225.604 49.752C226.073 49.4533 226.415 49.0267 226.628 48.472L226.884 49.256C226.671 49.8107 226.297 50.2533 225.764 50.584C225.241 50.9147 224.58 51.08 223.78 51.08ZM230.85 51V39.128H231.986V51H230.85ZM237.403 51.08C236.709 51.08 236.053 50.984 235.435 50.792C234.816 50.5893 234.331 50.3387 233.979 50.04L234.491 49.144C234.832 49.4 235.269 49.624 235.803 49.816C236.336 49.9973 236.896 50.088 237.483 50.088C238.283 50.088 238.859 49.9653 239.211 49.72C239.563 49.464 239.739 49.128 239.739 48.712C239.739 48.4027 239.637 48.1627 239.435 47.992C239.243 47.8107 238.987 47.6773 238.667 47.592C238.347 47.496 237.989 47.416 237.595 47.352C237.2 47.288 236.805 47.2133 236.411 47.128C236.027 47.0427 235.675 46.92 235.355 46.76C235.035 46.5893 234.773 46.36 234.571 46.072C234.379 45.784 234.283 45.4 234.283 44.92C234.283 44.4613 234.411 44.0507 234.667 43.688C234.923 43.3253 235.296 43.0427 235.787 42.84C236.288 42.6267 236.896 42.52 237.611 42.52C238.155 42.52 238.699 42.5947 239.243 42.744C239.787 42.8827 240.235 43.0693 240.587 43.304L240.091 44.216C239.717 43.96 239.317 43.7787 238.891 43.672C238.464 43.5547 238.037 43.496 237.611 43.496C236.853 43.496 236.293 43.6293 235.931 43.896C235.579 44.152 235.403 44.4827 235.403 44.888C235.403 45.208 235.499 45.4587 235.691 45.64C235.893 45.8213 236.155 45.9653 236.475 46.072C236.805 46.168 237.163 46.248 237.547 46.312C237.941 46.376 238.331 46.456 238.715 46.552C239.109 46.6373 239.467 46.76 239.787 46.92C240.117 47.0693 240.379 47.288 240.571 47.576C240.773 47.8533 240.875 48.2213 240.875 48.68C240.875 49.1707 240.736 49.5973 240.459 49.96C240.192 50.312 239.797 50.5893 239.275 50.792C238.763 50.984 238.139 51.08 237.403 51.08ZM248.859 51L245.691 42.6H246.779L249.659 50.392H249.163L252.123 42.6H253.099L256.027 50.392H255.531L258.459 42.6H259.499L256.315 51H255.243L252.427 43.672H252.763L249.931 51H248.859ZM266.223 51V49.144L266.175 48.84V45.736C266.175 45.0213 265.972 44.472 265.567 44.088C265.172 43.704 264.58 43.512 263.791 43.512C263.247 43.512 262.73 43.6027 262.239 43.784C261.748 43.9653 261.332 44.2053 260.991 44.504L260.479 43.656C260.906 43.2933 261.418 43.016 262.015 42.824C262.612 42.6213 263.242 42.52 263.903 42.52C264.991 42.52 265.828 42.792 266.415 43.336C267.012 43.8693 267.311 44.6853 267.311 45.784V51H266.223ZM263.327 51.08C262.698 51.08 262.148 50.9787 261.679 50.776C261.22 50.5627 260.868 50.2747 260.623 49.912C260.378 49.5387 260.255 49.112 260.255 48.632C260.255 48.1947 260.356 47.8 260.559 47.448C260.772 47.0853 261.114 46.7973 261.583 46.584C262.063 46.36 262.703 46.248 263.503 46.248H266.399V47.096H263.535C262.724 47.096 262.159 47.24 261.839 47.528C261.53 47.816 261.375 48.1733 261.375 48.6C261.375 49.08 261.562 49.464 261.935 49.752C262.308 50.04 262.831 50.184 263.503 50.184C264.143 50.184 264.692 50.04 265.151 49.752C265.62 49.4533 265.962 49.0267 266.175 48.472L266.431 49.256C266.218 49.8107 265.844 50.2533 265.311 50.584C264.788 50.9147 264.127 51.08 263.327 51.08ZM274.685 42.52C275.367 42.52 275.965 42.6533 276.477 42.92C276.999 43.176 277.405 43.5707 277.693 44.104C277.991 44.6373 278.141 45.3093 278.141 46.12V51H277.005V46.232C277.005 45.3467 276.781 44.68 276.333 44.232C275.895 43.7733 275.277 43.544 274.477 43.544C273.879 43.544 273.357 43.6667 272.909 43.912C272.471 44.1467 272.13 44.4933 271.885 44.952C271.65 45.4 271.533 45.944 271.533 46.584V51H270.397V42.6H271.485V44.904L271.309 44.472C271.575 43.864 272.002 43.3893 272.589 43.048C273.175 42.696 273.874 42.52 274.685 42.52ZM283.865 51.08C283.076 51.08 282.468 50.8667 282.041 50.44C281.614 50.0133 281.401 49.4107 281.401 48.632V40.744H282.537V48.568C282.537 49.0587 282.66 49.4373 282.905 49.704C283.161 49.9707 283.524 50.104 283.993 50.104C284.494 50.104 284.91 49.96 285.241 49.672L285.641 50.488C285.417 50.6907 285.145 50.84 284.825 50.936C284.516 51.032 284.196 51.08 283.865 51.08ZM279.897 43.544V42.6H285.097V43.544H279.897ZM294.553 51.08C293.763 51.08 293.155 50.8667 292.729 50.44C292.302 50.0133 292.089 49.4107 292.089 48.632V40.744H293.225V48.568C293.225 49.0587 293.347 49.4373 293.593 49.704C293.849 49.9707 294.211 50.104 294.681 50.104C295.182 50.104 295.598 49.96 295.929 49.672L296.329 50.488C296.105 50.6907 295.833 50.84 295.513 50.936C295.203 51.032 294.883 51.08 294.553 51.08ZM290.585 43.544V42.6H295.785V43.544H290.585ZM302.685 42.52C303.367 42.52 303.965 42.6533 304.477 42.92C304.999 43.176 305.405 43.5707 305.693 44.104C305.991 44.6373 306.141 45.3093 306.141 46.12V51H305.005V46.232C305.005 45.3467 304.781 44.68 304.333 44.232C303.895 43.7733 303.277 43.544 302.477 43.544C301.879 43.544 301.357 43.6667 300.909 43.912C300.471 44.1467 300.13 44.4933 299.885 44.952C299.65 45.4 299.533 45.944 299.533 46.584V51H298.397V39.128H299.533V44.904L299.309 44.472C299.575 43.864 300.002 43.3893 300.589 43.048C301.175 42.696 301.874 42.52 302.685 42.52ZM312.777 51.08C311.902 51.08 311.134 50.8987 310.473 50.536C309.812 50.1627 309.294 49.656 308.921 49.016C308.548 48.3653 308.361 47.624 308.361 46.792C308.361 45.96 308.537 45.224 308.889 44.584C309.252 43.944 309.742 43.4427 310.361 43.08C310.99 42.7067 311.694 42.52 312.473 42.52C313.262 42.52 313.961 42.7013 314.569 43.064C315.188 43.416 315.673 43.9173 316.025 44.568C316.377 45.208 316.553 45.9493 316.553 46.792C316.553 46.8453 316.548 46.904 316.537 46.968C316.537 47.0213 316.537 47.08 316.537 47.144H309.225V46.296H315.929L315.481 46.632C315.481 46.024 315.348 45.4853 315.081 45.016C314.825 44.536 314.473 44.1627 314.025 43.896C313.577 43.6293 313.06 43.496 312.473 43.496C311.897 43.496 311.38 43.6293 310.921 43.896C310.462 44.1627 310.105 44.536 309.849 45.016C309.593 45.496 309.465 46.0453 309.465 46.664V46.84C309.465 47.48 309.604 48.0453 309.881 48.536C310.169 49.016 310.564 49.3947 311.065 49.672C311.577 49.9387 312.158 50.072 312.809 50.072C313.321 50.072 313.796 49.9813 314.233 49.8C314.681 49.6187 315.065 49.3413 315.385 48.968L316.025 49.704C315.652 50.152 315.182 50.4933 314.617 50.728C314.062 50.9627 313.449 51.08 312.777 51.08ZM318.865 51V42.6H320.001V51H318.865ZM319.441 40.744C319.207 40.744 319.009 40.664 318.849 40.504C318.689 40.344 318.609 40.152 318.609 39.928C318.609 39.704 318.689 39.5173 318.849 39.368C319.009 39.208 319.207 39.128 319.441 39.128C319.676 39.128 319.873 39.2027 320.033 39.352C320.193 39.5013 320.273 39.688 320.273 39.912C320.273 40.1467 320.193 40.344 320.033 40.504C319.884 40.664 319.687 40.744 319.441 40.744ZM323.162 51V42.6H324.25V44.888L324.138 44.488C324.373 43.848 324.767 43.3627 325.322 43.032C325.877 42.6907 326.565 42.52 327.386 42.52V43.624C327.343 43.624 327.301 43.624 327.258 43.624C327.215 43.6133 327.173 43.608 327.13 43.608C326.245 43.608 325.551 43.88 325.05 44.424C324.549 44.9573 324.298 45.72 324.298 46.712V51H323.162ZM338.108 51.08C337.372 51.08 336.71 50.9147 336.124 50.584C335.537 50.2427 335.073 49.752 334.732 49.112C334.39 48.472 334.22 47.6987 334.22 46.792C334.22 45.8747 334.39 45.1013 334.732 44.472C335.084 43.832 335.553 43.3467 336.14 43.016C336.726 42.6853 337.382 42.52 338.108 42.52C338.908 42.52 339.622 42.7013 340.252 43.064C340.892 43.416 341.393 43.912 341.756 44.552C342.118 45.192 342.3 45.9387 342.3 46.792C342.3 47.6347 342.118 48.3813 341.756 49.032C341.393 49.672 340.892 50.1733 340.252 50.536C339.622 50.8987 338.908 51.08 338.108 51.08ZM333.772 51V39.128H334.908V45.08L334.748 46.776L334.86 48.472V51H333.772ZM338.028 50.072C338.625 50.072 339.158 49.9387 339.628 49.672C340.097 49.3947 340.47 49.0107 340.748 48.52C341.025 48.0187 341.164 47.4427 341.164 46.792C341.164 46.1307 341.025 45.5547 340.748 45.064C340.47 44.5733 340.097 44.1947 339.628 43.928C339.158 43.6507 338.625 43.512 338.028 43.512C337.43 43.512 336.892 43.6507 336.411 43.928C335.942 44.1947 335.569 44.5733 335.292 45.064C335.025 45.5547 334.892 46.1307 334.892 46.792C334.892 47.4427 335.025 48.0187 335.292 48.52C335.569 49.0107 335.942 49.3947 336.411 49.672C336.892 49.9387 337.43 50.072 338.028 50.072ZM349.832 51V49.144L349.784 48.84V45.736C349.784 45.0213 349.582 44.472 349.176 44.088C348.782 43.704 348.19 43.512 347.4 43.512C346.856 43.512 346.339 43.6027 345.848 43.784C345.358 43.9653 344.942 44.2053 344.6 44.504L344.088 43.656C344.515 43.2933 345.027 43.016 345.624 42.824C346.222 42.6213 346.851 42.52 347.512 42.52C348.6 42.52 349.438 42.792 350.024 43.336C350.622 43.8693 350.92 44.6853 350.92 45.784V51H349.832ZM346.936 51.08C346.307 51.08 345.758 50.9787 345.288 50.776C344.83 50.5627 344.478 50.2747 344.232 49.912C343.987 49.5387 343.864 49.112 343.864 48.632C343.864 48.1947 343.966 47.8 344.168 47.448C344.382 47.0853 344.723 46.7973 345.192 46.584C345.672 46.36 346.312 46.248 347.112 46.248H350.008V47.096H347.144C346.334 47.096 345.768 47.24 345.448 47.528C345.139 47.816 344.984 48.1733 344.984 48.6C344.984 49.08 345.171 49.464 345.544 49.752C345.918 50.04 346.44 50.184 347.112 50.184C347.752 50.184 348.302 50.04 348.76 49.752C349.23 49.4533 349.571 49.0267 349.784 48.472L350.04 49.256C349.827 49.8107 349.454 50.2533 348.92 50.584C348.398 50.9147 347.736 51.08 346.936 51.08ZM358.294 42.52C358.977 42.52 359.574 42.6533 360.086 42.92C360.609 43.176 361.014 43.5707 361.302 44.104C361.601 44.6373 361.75 45.3093 361.75 46.12V51H360.614V46.232C360.614 45.3467 360.39 44.68 359.942 44.232C359.505 43.7733 358.886 43.544 358.086 43.544C357.489 43.544 356.966 43.6667 356.518 43.912C356.081 44.1467 355.739 44.4933 355.494 44.952C355.259 45.4 355.142 45.944 355.142 46.584V51H354.006V42.6H355.094V44.904L354.918 44.472C355.185 43.864 355.611 43.3893 356.198 43.048C356.785 42.696 357.483 42.52 358.294 42.52ZM365.714 48.824L365.746 47.368L370.978 42.6H372.37L368.674 46.136L368.034 46.68L365.714 48.824ZM364.818 51V39.128H365.954V51H364.818ZM371.33 51L367.826 46.632L368.562 45.752L372.722 51H371.33ZM381.271 51.08C380.482 51.08 379.874 50.8667 379.447 50.44C379.021 50.0133 378.807 49.4107 378.807 48.632V40.744H379.943V48.568C379.943 49.0587 380.066 49.4373 380.311 49.704C380.567 49.9707 380.93 50.104 381.399 50.104C381.901 50.104 382.317 49.96 382.647 49.672L383.047 50.488C382.823 50.6907 382.551 50.84 382.231 50.936C381.922 51.032 381.602 51.08 381.271 51.08ZM377.303 43.544V42.6H382.503V43.544H377.303ZM388.242 51.08C387.432 51.08 386.701 50.8987 386.05 50.536C385.41 50.1627 384.904 49.656 384.53 49.016C384.157 48.3653 383.97 47.624 383.97 46.792C383.97 45.9493 384.157 45.208 384.53 44.568C384.904 43.928 385.41 43.4267 386.05 43.064C386.69 42.7013 387.421 42.52 388.242 42.52C389.074 42.52 389.81 42.7013 390.45 43.064C391.101 43.4267 391.608 43.928 391.97 44.568C392.344 45.208 392.53 45.9493 392.53 46.792C392.53 47.624 392.344 48.3653 391.97 49.016C391.608 49.656 391.101 50.1627 390.45 50.536C389.8 50.8987 389.064 51.08 388.242 51.08ZM388.242 50.072C388.85 50.072 389.389 49.9387 389.858 49.672C390.328 49.3947 390.696 49.0107 390.962 48.52C391.24 48.0187 391.378 47.4427 391.378 46.792C391.378 46.1307 391.24 45.5547 390.962 45.064C390.696 44.5733 390.328 44.1947 389.858 43.928C389.389 43.6507 388.856 43.512 388.258 43.512C387.661 43.512 387.128 43.6507 386.658 43.928C386.189 44.1947 385.816 44.5733 385.538 45.064C385.261 45.5547 385.122 46.1307 385.122 46.792C385.122 47.4427 385.261 48.0187 385.538 48.52C385.816 49.0107 386.189 49.3947 386.658 49.672C387.128 49.9387 387.656 50.072 388.242 50.072ZM402.461 51.08C401.65 51.08 400.92 50.8987 400.269 50.536C399.629 50.1627 399.122 49.656 398.749 49.016C398.376 48.3653 398.189 47.624 398.189 46.792C398.189 45.9493 398.376 45.208 398.749 44.568C399.122 43.928 399.629 43.4267 400.269 43.064C400.909 42.7013 401.64 42.52 402.461 42.52C403.293 42.52 404.029 42.7013 404.669 43.064C405.32 43.4267 405.826 43.928 406.189 44.568C406.562 45.208 406.749 45.9493 406.749 46.792C406.749 47.624 406.562 48.3653 406.189 49.016C405.826 49.656 405.32 50.1627 404.669 50.536C404.018 50.8987 403.282 51.08 402.461 51.08ZM402.461 50.072C403.069 50.072 403.608 49.9387 404.077 49.672C404.546 49.3947 404.914 49.0107 405.181 48.52C405.458 48.0187 405.597 47.4427 405.597 46.792C405.597 46.1307 405.458 45.5547 405.181 45.064C404.914 44.5733 404.546 44.1947 404.077 43.928C403.608 43.6507 403.074 43.512 402.477 43.512C401.88 43.512 401.346 43.6507 400.877 43.928C400.408 44.1947 400.034 44.5733 399.757 45.064C399.48 45.5547 399.341 46.1307 399.341 46.792C399.341 47.4427 399.48 48.0187 399.757 48.52C400.034 49.0107 400.408 49.3947 400.877 49.672C401.346 49.9387 401.874 50.072 402.461 50.072ZM409.26 51V41.544C409.26 40.7973 409.479 40.1947 409.916 39.736C410.354 39.2773 410.983 39.048 411.804 39.048C412.124 39.048 412.434 39.0907 412.732 39.176C413.031 39.2613 413.282 39.3947 413.484 39.576L413.1 40.424C412.94 40.2853 412.754 40.184 412.54 40.12C412.327 40.0453 412.098 40.008 411.852 40.008C411.372 40.008 411.004 40.1413 410.748 40.408C410.492 40.6747 410.364 41.0693 410.364 41.592V42.872L410.396 43.4V51H409.26ZM407.756 43.544V42.6H412.956V43.544H407.756ZM414.714 51V41.544C414.714 40.7973 414.932 40.1947 415.37 39.736C415.807 39.2773 416.436 39.048 417.258 39.048C417.578 39.048 417.887 39.0907 418.186 39.176C418.484 39.2613 418.735 39.3947 418.938 39.576L418.554 40.424C418.394 40.2853 418.207 40.184 417.994 40.12C417.78 40.0453 417.551 40.008 417.306 40.008C416.826 40.008 416.458 40.1413 416.202 40.408C415.946 40.6747 415.818 41.0693 415.818 41.592V42.872L415.85 43.4V51H414.714ZM413.21 43.544V42.6H418.41V43.544H413.21ZM423.371 51.08C422.496 51.08 421.728 50.8987 421.067 50.536C420.405 50.1627 419.888 49.656 419.515 49.016C419.141 48.3653 418.955 47.624 418.955 46.792C418.955 45.96 419.131 45.224 419.483 44.584C419.845 43.944 420.336 43.4427 420.955 43.08C421.584 42.7067 422.288 42.52 423.067 42.52C423.856 42.52 424.555 42.7013 425.163 43.064C425.781 43.416 426.267 43.9173 426.619 44.568C426.971 45.208 427.147 45.9493 427.147 46.792C427.147 46.8453 427.141 46.904 427.131 46.968C427.131 47.0213 427.131 47.08 427.131 47.144H419.819V46.296H426.523L426.075 46.632C426.075 46.024 425.941 45.4853 425.675 45.016C425.419 44.536 425.067 44.1627 424.619 43.896C424.171 43.6293 423.653 43.496 423.067 43.496C422.491 43.496 421.973 43.6293 421.515 43.896C421.056 44.1627 420.699 44.536 420.443 45.016C420.187 45.496 420.059 46.0453 420.059 46.664V46.84C420.059 47.48 420.197 48.0453 420.475 48.536C420.763 49.016 421.157 49.3947 421.659 49.672C422.171 49.9387 422.752 50.072 423.403 50.072C423.915 50.072 424.389 49.9813 424.827 49.8C425.275 49.6187 425.659 49.3413 425.979 48.968L426.619 49.704C426.245 50.152 425.776 50.4933 425.211 50.728C424.656 50.9627 424.043 51.08 423.371 51.08ZM429.459 51V42.6H430.547V44.888L430.435 44.488C430.67 43.848 431.064 43.3627 431.619 43.032C432.174 42.6907 432.862 42.52 433.683 42.52V43.624C433.64 43.624 433.598 43.624 433.555 43.624C433.512 43.6133 433.47 43.608 433.427 43.608C432.542 43.608 431.848 43.88 431.347 44.424C430.846 44.9573 430.595 45.72 430.595 46.712V51H429.459ZM98.24 71.08C97.4507 71.08 96.8427 70.8667 96.416 70.44C95.9893 70.0133 95.776 69.4107 95.776 68.632V60.744H96.912V68.568C96.912 69.0587 97.0347 69.4373 97.28 69.704C97.536 69.9707 97.8987 70.104 98.368 70.104C98.8693 70.104 99.2853 69.96 99.616 69.672L100.016 70.488C99.792 70.6907 99.52 70.84 99.2 70.936C98.8907 71.032 98.5707 71.08 98.24 71.08ZM94.272 63.544V62.6H99.472V63.544H94.272ZM106.372 62.52C107.055 62.52 107.652 62.6533 108.164 62.92C108.687 63.176 109.092 63.5707 109.38 64.104C109.679 64.6373 109.828 65.3093 109.828 66.12V71H108.692V66.232C108.692 65.3467 108.468 64.68 108.02 64.232C107.583 63.7733 106.964 63.544 106.164 63.544C105.567 63.544 105.044 63.6667 104.596 63.912C104.159 64.1467 103.817 64.4933 103.572 64.952C103.337 65.4 103.22 65.944 103.22 66.584V71H102.084V59.128H103.22V64.904L102.996 64.472C103.263 63.864 103.689 63.3893 104.276 63.048C104.863 62.696 105.561 62.52 106.372 62.52ZM116.465 71.08C115.59 71.08 114.822 70.8987 114.161 70.536C113.499 70.1627 112.982 69.656 112.609 69.016C112.235 68.3653 112.049 67.624 112.049 66.792C112.049 65.96 112.225 65.224 112.577 64.584C112.939 63.944 113.43 63.4427 114.049 63.08C114.678 62.7067 115.382 62.52 116.161 62.52C116.95 62.52 117.649 62.7013 118.257 63.064C118.875 63.416 119.361 63.9173 119.713 64.568C120.065 65.208 120.241 65.9493 120.241 66.792C120.241 66.8453 120.235 66.904 120.225 66.968C120.225 67.0213 120.225 67.08 120.225 67.144H112.913V66.296H119.617L119.169 66.632C119.169 66.024 119.035 65.4853 118.769 65.016C118.513 64.536 118.161 64.1627 117.713 63.896C117.265 63.6293 116.747 63.496 116.161 63.496C115.585 63.496 115.067 63.6293 114.609 63.896C114.15 64.1627 113.793 64.536 113.537 65.016C113.281 65.496 113.153 66.0453 113.153 66.664V66.84C113.153 67.48 113.291 68.0453 113.569 68.536C113.857 69.016 114.251 69.3947 114.753 69.672C115.265 69.9387 115.846 70.072 116.497 70.072C117.009 70.072 117.483 69.9813 117.921 69.8C118.369 69.6187 118.753 69.3413 119.073 68.968L119.713 69.704C119.339 70.152 118.87 70.4933 118.305 70.728C117.75 70.9627 117.137 71.08 116.465 71.08ZM133.049 62.52C133.731 62.52 134.323 62.6533 134.825 62.92C135.337 63.176 135.731 63.5707 136.009 64.104C136.297 64.6373 136.441 65.3093 136.441 66.12V71H135.305V66.232C135.305 65.3467 135.091 64.68 134.665 64.232C134.249 63.7733 133.657 63.544 132.889 63.544C132.313 63.544 131.811 63.6667 131.385 63.912C130.969 64.1467 130.643 64.4933 130.409 64.952C130.185 65.4 130.073 65.944 130.073 66.584V71H128.937V66.232C128.937 65.3467 128.723 64.68 128.297 64.232C127.87 63.7733 127.273 63.544 126.505 63.544C125.939 63.544 125.443 63.6667 125.017 63.912C124.59 64.1467 124.259 64.4933 124.025 64.952C123.801 65.4 123.689 65.944 123.689 66.584V71H122.553V62.6H123.641V64.872L123.465 64.472C123.721 63.864 124.131 63.3893 124.697 63.048C125.273 62.696 125.95 62.52 126.729 62.52C127.55 62.52 128.249 62.728 128.825 63.144C129.401 63.5493 129.774 64.1627 129.945 64.984L129.497 64.808C129.742 64.1253 130.174 63.576 130.793 63.16C131.422 62.7333 132.174 62.52 133.049 62.52ZM154.205 62.52C154.888 62.52 155.48 62.6533 155.981 62.92C156.493 63.176 156.888 63.5707 157.165 64.104C157.453 64.6373 157.597 65.3093 157.597 66.12V71H156.461V66.232C156.461 65.3467 156.248 64.68 155.821 64.232C155.405 63.7733 154.813 63.544 154.045 63.544C153.469 63.544 152.968 63.6667 152.541 63.912C152.125 64.1467 151.8 64.4933 151.565 64.952C151.341 65.4 151.229 65.944 151.229 66.584V71H150.093V66.232C150.093 65.3467 149.88 64.68 149.453 64.232C149.026 63.7733 148.429 63.544 147.661 63.544C147.096 63.544 146.6 63.6667 146.173 63.912C145.746 64.1467 145.416 64.4933 145.181 64.952C144.957 65.4 144.845 65.944 144.845 66.584V71H143.709V62.6H144.797V64.872L144.621 64.472C144.877 63.864 145.288 63.3893 145.853 63.048C146.429 62.696 147.106 62.52 147.885 62.52C148.706 62.52 149.405 62.728 149.981 63.144C150.557 63.5493 150.93 64.1627 151.101 64.984L150.653 64.808C150.898 64.1253 151.33 63.576 151.949 63.16C152.578 62.7333 153.33 62.52 154.205 62.52ZM164.102 71.08C163.291 71.08 162.56 70.8987 161.91 70.536C161.27 70.1627 160.763 69.656 160.39 69.016C160.016 68.3653 159.83 67.624 159.83 66.792C159.83 65.9493 160.016 65.208 160.39 64.568C160.763 63.928 161.27 63.4267 161.91 63.064C162.55 62.7013 163.28 62.52 164.102 62.52C164.934 62.52 165.67 62.7013 166.31 63.064C166.96 63.4267 167.467 63.928 167.83 64.568C168.203 65.208 168.39 65.9493 168.39 66.792C168.39 67.624 168.203 68.3653 167.83 69.016C167.467 69.656 166.96 70.1627 166.31 70.536C165.659 70.8987 164.923 71.08 164.102 71.08ZM164.102 70.072C164.71 70.072 165.248 69.9387 165.718 69.672C166.187 69.3947 166.555 69.0107 166.822 68.52C167.099 68.0187 167.238 67.4427 167.238 66.792C167.238 66.1307 167.099 65.5547 166.822 65.064C166.555 64.5733 166.187 64.1947 165.718 63.928C165.248 63.6507 164.715 63.512 164.118 63.512C163.52 63.512 162.987 63.6507 162.518 63.928C162.048 64.1947 161.675 64.5733 161.398 65.064C161.12 65.5547 160.982 66.1307 160.982 66.792C160.982 67.4427 161.12 68.0187 161.398 68.52C161.675 69.0107 162.048 69.3947 162.518 69.672C162.987 69.9387 163.515 70.072 164.102 70.072ZM170.709 71V62.6H171.797V64.888L171.685 64.488C171.92 63.848 172.314 63.3627 172.869 63.032C173.424 62.6907 174.112 62.52 174.933 62.52V63.624C174.89 63.624 174.848 63.624 174.805 63.624C174.762 63.6133 174.72 63.608 174.677 63.608C173.792 63.608 173.098 63.88 172.597 64.424C172.096 64.9573 171.845 65.72 171.845 66.712V71H170.709ZM180.496 71.08C179.621 71.08 178.853 70.8987 178.192 70.536C177.53 70.1627 177.013 69.656 176.64 69.016C176.266 68.3653 176.08 67.624 176.08 66.792C176.08 65.96 176.256 65.224 176.608 64.584C176.97 63.944 177.461 63.4427 178.08 63.08C178.709 62.7067 179.413 62.52 180.192 62.52C180.981 62.52 181.68 62.7013 182.288 63.064C182.906 63.416 183.392 63.9173 183.744 64.568C184.096 65.208 184.272 65.9493 184.272 66.792C184.272 66.8453 184.266 66.904 184.256 66.968C184.256 67.0213 184.256 67.08 184.256 67.144H176.944V66.296H183.648L183.2 66.632C183.2 66.024 183.066 65.4853 182.8 65.016C182.544 64.536 182.192 64.1627 181.744 63.896C181.296 63.6293 180.778 63.496 180.192 63.496C179.616 63.496 179.098 63.6293 178.64 63.896C178.181 64.1627 177.824 64.536 177.568 65.016C177.312 65.496 177.184 66.0453 177.184 66.664V66.84C177.184 67.48 177.322 68.0453 177.6 68.536C177.888 69.016 178.282 69.3947 178.784 69.672C179.296 69.9387 179.877 70.072 180.528 70.072C181.04 70.072 181.514 69.9813 181.952 69.8C182.4 69.6187 182.784 69.3413 183.104 68.968L183.744 69.704C183.37 70.152 182.901 70.4933 182.336 70.728C181.781 70.9627 181.168 71.08 180.496 71.08ZM195.108 71.08C194.382 71.08 193.726 70.9147 193.14 70.584C192.553 70.2427 192.084 69.7573 191.732 69.128C191.39 68.488 191.22 67.7093 191.22 66.792C191.22 65.8747 191.39 65.1013 191.732 64.472C192.073 63.832 192.537 63.3467 193.124 63.016C193.71 62.6853 194.372 62.52 195.108 62.52C195.908 62.52 196.622 62.7013 197.252 63.064C197.892 63.416 198.393 63.9173 198.756 64.568C199.118 65.208 199.3 65.9493 199.3 66.792C199.3 67.6453 199.118 68.392 198.756 69.032C198.393 69.672 197.892 70.1733 197.252 70.536C196.622 70.8987 195.908 71.08 195.108 71.08ZM190.772 74.104V62.6H191.86V65.128L191.748 66.808L191.908 68.504V74.104H190.772ZM195.028 70.072C195.625 70.072 196.158 69.9387 196.628 69.672C197.097 69.3947 197.47 69.0107 197.748 68.52C198.025 68.0187 198.164 67.4427 198.164 66.792C198.164 66.1413 198.025 65.5707 197.748 65.08C197.47 64.5893 197.097 64.2053 196.628 63.928C196.158 63.6507 195.625 63.512 195.028 63.512C194.43 63.512 193.892 63.6507 193.411 63.928C192.942 64.2053 192.569 64.5893 192.292 65.08C192.025 65.5707 191.892 66.1413 191.892 66.792C191.892 67.4427 192.025 68.0187 192.292 68.52C192.569 69.0107 192.942 69.3947 193.411 69.672C193.892 69.9387 194.43 70.072 195.028 70.072ZM205.183 71.08C204.309 71.08 203.541 70.8987 202.879 70.536C202.218 70.1627 201.701 69.656 201.327 69.016C200.954 68.3653 200.767 67.624 200.767 66.792C200.767 65.96 200.943 65.224 201.295 64.584C201.658 63.944 202.149 63.4427 202.767 63.08C203.397 62.7067 204.101 62.52 204.879 62.52C205.669 62.52 206.367 62.7013 206.975 63.064C207.594 63.416 208.079 63.9173 208.431 64.568C208.783 65.208 208.959 65.9493 208.959 66.792C208.959 66.8453 208.954 66.904 208.943 66.968C208.943 67.0213 208.943 67.08 208.943 67.144H201.631V66.296H208.335L207.887 66.632C207.887 66.024 207.754 65.4853 207.487 65.016C207.231 64.536 206.879 64.1627 206.431 63.896C205.983 63.6293 205.466 63.496 204.879 63.496C204.303 63.496 203.786 63.6293 203.327 63.896C202.869 64.1627 202.511 64.536 202.255 65.016C201.999 65.496 201.871 66.0453 201.871 66.664V66.84C201.871 67.48 202.01 68.0453 202.287 68.536C202.575 69.016 202.97 69.3947 203.471 69.672C203.983 69.9387 204.565 70.072 205.215 70.072C205.727 70.072 206.202 69.9813 206.639 69.8C207.087 69.6187 207.471 69.3413 207.791 68.968L208.431 69.704C208.058 70.152 207.589 70.4933 207.023 70.728C206.469 70.9627 205.855 71.08 205.183 71.08ZM211.272 71V62.6H212.36V64.888L212.248 64.488C212.482 63.848 212.877 63.3627 213.432 63.032C213.986 62.6907 214.674 62.52 215.496 62.52V63.624C215.453 63.624 215.41 63.624 215.368 63.624C215.325 63.6133 215.282 63.608 215.24 63.608C214.354 63.608 213.661 63.88 213.16 64.424C212.658 64.9573 212.408 65.72 212.408 66.712V71H211.272ZM219.918 71.08C219.225 71.08 218.569 70.984 217.95 70.792C217.331 70.5893 216.846 70.3387 216.494 70.04L217.006 69.144C217.347 69.4 217.785 69.624 218.318 69.816C218.851 69.9973 219.411 70.088 219.998 70.088C220.798 70.088 221.374 69.9653 221.726 69.72C222.078 69.464 222.254 69.128 222.254 68.712C222.254 68.4027 222.153 68.1627 221.95 67.992C221.758 67.8107 221.502 67.6773 221.182 67.592C220.862 67.496 220.505 67.416 220.11 67.352C219.715 67.288 219.321 67.2133 218.926 67.128C218.542 67.0427 218.19 66.92 217.87 66.76C217.55 66.5893 217.289 66.36 217.086 66.072C216.894 65.784 216.798 65.4 216.798 64.92C216.798 64.4613 216.926 64.0507 217.182 63.688C217.438 63.3253 217.811 63.0427 218.302 62.84C218.803 62.6267 219.411 62.52 220.126 62.52C220.67 62.52 221.214 62.5947 221.758 62.744C222.302 62.8827 222.75 63.0693 223.102 63.304L222.606 64.216C222.233 63.96 221.833 63.7787 221.406 63.672C220.979 63.5547 220.553 63.496 220.126 63.496C219.369 63.496 218.809 63.6293 218.446 63.896C218.094 64.152 217.918 64.4827 217.918 64.888C217.918 65.208 218.014 65.4587 218.206 65.64C218.409 65.8213 218.67 65.9653 218.99 66.072C219.321 66.168 219.678 66.248 220.062 66.312C220.457 66.376 220.846 66.456 221.23 66.552C221.625 66.6373 221.982 66.76 222.302 66.92C222.633 67.0693 222.894 67.288 223.086 67.576C223.289 67.8533 223.39 68.2213 223.39 68.68C223.39 69.1707 223.251 69.5973 222.974 69.96C222.707 70.312 222.313 70.5893 221.79 70.792C221.278 70.984 220.654 71.08 219.918 71.08ZM228.899 71.08C228.088 71.08 227.357 70.8987 226.707 70.536C226.067 70.1627 225.56 69.656 225.187 69.016C224.813 68.3653 224.627 67.624 224.627 66.792C224.627 65.9493 224.813 65.208 225.187 64.568C225.56 63.928 226.067 63.4267 226.707 63.064C227.347 62.7013 228.077 62.52 228.899 62.52C229.731 62.52 230.467 62.7013 231.107 63.064C231.757 63.4267 232.264 63.928 232.627 64.568C233 65.208 233.187 65.9493 233.187 66.792C233.187 67.624 233 68.3653 232.627 69.016C232.264 69.656 231.757 70.1627 231.107 70.536C230.456 70.8987 229.72 71.08 228.899 71.08ZM228.899 70.072C229.507 70.072 230.045 69.9387 230.515 69.672C230.984 69.3947 231.352 69.0107 231.619 68.52C231.896 68.0187 232.035 67.4427 232.035 66.792C232.035 66.1307 231.896 65.5547 231.619 65.064C231.352 64.5733 230.984 64.1947 230.515 63.928C230.045 63.6507 229.512 63.512 228.915 63.512C228.317 63.512 227.784 63.6507 227.315 63.928C226.845 64.1947 226.472 64.5733 226.195 65.064C225.917 65.5547 225.779 66.1307 225.779 66.792C225.779 67.4427 225.917 68.0187 226.195 68.52C226.472 69.0107 226.845 69.3947 227.315 69.672C227.784 69.9387 228.312 70.072 228.899 70.072ZM239.794 62.52C240.477 62.52 241.074 62.6533 241.586 62.92C242.109 63.176 242.514 63.5707 242.802 64.104C243.101 64.6373 243.25 65.3093 243.25 66.12V71H242.114V66.232C242.114 65.3467 241.89 64.68 241.442 64.232C241.005 63.7733 240.386 63.544 239.586 63.544C238.989 63.544 238.466 63.6667 238.018 63.912C237.581 64.1467 237.239 64.4933 236.994 64.952C236.759 65.4 236.642 65.944 236.642 66.584V71H235.506V62.6H236.594V64.904L236.418 64.472C236.685 63.864 237.111 63.3893 237.698 63.048C238.285 62.696 238.983 62.52 239.794 62.52ZM251.582 71V69.144L251.534 68.84V65.736C251.534 65.0213 251.332 64.472 250.926 64.088C250.532 63.704 249.94 63.512 249.15 63.512C248.606 63.512 248.089 63.6027 247.598 63.784C247.108 63.9653 246.692 64.2053 246.35 64.504L245.838 63.656C246.265 63.2933 246.777 63.016 247.374 62.824C247.972 62.6213 248.601 62.52 249.262 62.52C250.35 62.52 251.188 62.792 251.774 63.336C252.372 63.8693 252.67 64.6853 252.67 65.784V71H251.582ZM248.686 71.08C248.057 71.08 247.508 70.9787 247.038 70.776C246.58 70.5627 246.228 70.2747 245.982 69.912C245.737 69.5387 245.614 69.112 245.614 68.632C245.614 68.1947 245.716 67.8 245.918 67.448C246.132 67.0853 246.473 66.7973 246.942 66.584C247.422 66.36 248.062 66.248 248.862 66.248H251.758V67.096H248.894C248.084 67.096 247.518 67.24 247.198 67.528C246.889 67.816 246.734 68.1733 246.734 68.6C246.734 69.08 246.921 69.464 247.294 69.752C247.668 70.04 248.19 70.184 248.862 70.184C249.502 70.184 250.052 70.04 250.51 69.752C250.98 69.4533 251.321 69.0267 251.534 68.472L251.79 69.256C251.577 69.8107 251.204 70.2533 250.67 70.584C250.148 70.9147 249.486 71.08 248.686 71.08ZM255.756 71V59.128H256.892V71H255.756ZM260.053 71V62.6H261.189V71H260.053ZM260.629 60.744C260.394 60.744 260.197 60.664 260.037 60.504C259.877 60.344 259.797 60.152 259.797 59.928C259.797 59.704 259.877 59.5173 260.037 59.368C260.197 59.208 260.394 59.128 260.629 59.128C260.863 59.128 261.061 59.2027 261.221 59.352C261.381 59.5013 261.461 59.688 261.461 59.912C261.461 60.1467 261.381 60.344 261.221 60.504C261.071 60.664 260.874 60.744 260.629 60.744ZM263.438 71V70.248L269.038 63.16L269.278 63.544H263.534V62.6H270.174V63.336L264.59 70.44L264.302 70.056H270.286V71H263.438ZM275.949 71.08C275.074 71.08 274.306 70.8987 273.645 70.536C272.984 70.1627 272.466 69.656 272.093 69.016C271.72 68.3653 271.533 67.624 271.533 66.792C271.533 65.96 271.709 65.224 272.061 64.584C272.424 63.944 272.914 63.4427 273.533 63.08C274.162 62.7067 274.866 62.52 275.645 62.52C276.434 62.52 277.133 62.7013 277.741 63.064C278.36 63.416 278.845 63.9173 279.197 64.568C279.549 65.208 279.725 65.9493 279.725 66.792C279.725 66.8453 279.72 66.904 279.709 66.968C279.709 67.0213 279.709 67.08 279.709 67.144H272.397V66.296H279.101L278.653 66.632C278.653 66.024 278.52 65.4853 278.253 65.016C277.997 64.536 277.645 64.1627 277.197 63.896C276.749 63.6293 276.232 63.496 275.645 63.496C275.069 63.496 274.552 63.6293 274.093 63.896C273.634 64.1627 273.277 64.536 273.021 65.016C272.765 65.496 272.637 66.0453 272.637 66.664V66.84C272.637 67.48 272.776 68.0453 273.053 68.536C273.341 69.016 273.736 69.3947 274.237 69.672C274.749 69.9387 275.33 70.072 275.981 70.072C276.493 70.072 276.968 69.9813 277.405 69.8C277.853 69.6187 278.237 69.3413 278.557 68.968L279.197 69.704C278.824 70.152 278.354 70.4933 277.789 70.728C277.234 70.9627 276.621 71.08 275.949 71.08ZM285.381 71.08C284.581 71.08 283.861 70.8987 283.221 70.536C282.592 70.1733 282.096 69.672 281.733 69.032C281.37 68.3813 281.189 67.6347 281.189 66.792C281.189 65.9387 281.37 65.192 281.733 64.552C282.096 63.912 282.592 63.416 283.221 63.064C283.861 62.7013 284.581 62.52 285.381 62.52C286.117 62.52 286.773 62.6853 287.349 63.016C287.936 63.3467 288.4 63.832 288.741 64.472C289.093 65.1013 289.269 65.8747 289.269 66.792C289.269 67.6987 289.098 68.472 288.757 69.112C288.416 69.752 287.952 70.2427 287.365 70.584C286.789 70.9147 286.128 71.08 285.381 71.08ZM285.461 70.072C286.058 70.072 286.592 69.9387 287.061 69.672C287.541 69.3947 287.914 69.0107 288.181 68.52C288.458 68.0187 288.597 67.4427 288.597 66.792C288.597 66.1307 288.458 65.5547 288.181 65.064C287.914 64.5733 287.541 64.1947 287.061 63.928C286.592 63.6507 286.058 63.512 285.461 63.512C284.874 63.512 284.346 63.6507 283.877 63.928C283.408 64.1947 283.034 64.5733 282.757 65.064C282.48 65.5547 282.341 66.1307 282.341 66.792C282.341 67.4427 282.48 68.0187 282.757 68.52C283.034 69.0107 283.408 69.3947 283.877 69.672C284.346 69.9387 284.874 70.072 285.461 70.072ZM288.629 71V68.472L288.741 66.776L288.581 65.08V59.128H289.717V71H288.629ZM302.332 71V69.144L302.284 68.84V65.736C302.284 65.0213 302.082 64.472 301.676 64.088C301.282 63.704 300.69 63.512 299.9 63.512C299.356 63.512 298.839 63.6027 298.348 63.784C297.858 63.9653 297.442 64.2053 297.1 64.504L296.588 63.656C297.015 63.2933 297.527 63.016 298.124 62.824C298.722 62.6213 299.351 62.52 300.012 62.52C301.1 62.52 301.938 62.792 302.524 63.336C303.122 63.8693 303.42 64.6853 303.42 65.784V71H302.332ZM299.436 71.08C298.807 71.08 298.258 70.9787 297.788 70.776C297.33 70.5627 296.978 70.2747 296.732 69.912C296.487 69.5387 296.364 69.112 296.364 68.632C296.364 68.1947 296.466 67.8 296.668 67.448C296.882 67.0853 297.223 66.7973 297.692 66.584C298.172 66.36 298.812 66.248 299.612 66.248H302.508V67.096H299.644C298.834 67.096 298.268 67.24 297.948 67.528C297.639 67.816 297.484 68.1733 297.484 68.6C297.484 69.08 297.671 69.464 298.044 69.752C298.418 70.04 298.94 70.184 299.612 70.184C300.252 70.184 300.802 70.04 301.26 69.752C301.73 69.4533 302.071 69.0267 302.284 68.472L302.54 69.256C302.327 69.8107 301.954 70.2533 301.42 70.584C300.898 70.9147 300.236 71.08 299.436 71.08ZM309.85 71.08C309.05 71.08 308.33 70.8987 307.69 70.536C307.061 70.1733 306.565 69.672 306.202 69.032C305.839 68.3813 305.658 67.6347 305.658 66.792C305.658 65.9387 305.839 65.192 306.202 64.552C306.565 63.912 307.061 63.416 307.69 63.064C308.33 62.7013 309.05 62.52 309.85 62.52C310.586 62.52 311.242 62.6853 311.818 63.016C312.405 63.3467 312.869 63.832 313.21 64.472C313.562 65.1013 313.738 65.8747 313.738 66.792C313.738 67.6987 313.567 68.472 313.226 69.112C312.885 69.752 312.421 70.2427 311.834 70.584C311.258 70.9147 310.597 71.08 309.85 71.08ZM309.93 70.072C310.527 70.072 311.061 69.9387 311.53 69.672C312.01 69.3947 312.383 69.0107 312.65 68.52C312.927 68.0187 313.066 67.4427 313.066 66.792C313.066 66.1307 312.927 65.5547 312.65 65.064C312.383 64.5733 312.01 64.1947 311.53 63.928C311.061 63.6507 310.527 63.512 309.93 63.512C309.343 63.512 308.815 63.6507 308.346 63.928C307.877 64.1947 307.503 64.5733 307.226 65.064C306.949 65.5547 306.81 66.1307 306.81 66.792C306.81 67.4427 306.949 68.0187 307.226 68.52C307.503 69.0107 307.877 69.3947 308.346 69.672C308.815 69.9387 309.343 70.072 309.93 70.072ZM313.098 71V68.472L313.21 66.776L313.05 65.08V59.128H314.186V71H313.098ZM319.51 71L315.782 62.6H316.966L320.39 70.392H319.83L323.302 62.6H324.422L320.678 71H319.51ZM326.022 71V62.6H327.158V71H326.022ZM326.598 60.744C326.363 60.744 326.166 60.664 326.006 60.504C325.846 60.344 325.766 60.152 325.766 59.928C325.766 59.704 325.846 59.5173 326.006 59.368C326.166 59.208 326.363 59.128 326.598 59.128C326.832 59.128 327.03 59.2027 327.19 59.352C327.35 59.5013 327.43 59.688 327.43 59.912C327.43 60.1467 327.35 60.344 327.19 60.504C327.04 60.664 326.843 60.744 326.598 60.744ZM333.806 71.08C332.974 71.08 332.228 70.8987 331.566 70.536C330.916 70.1627 330.404 69.656 330.03 69.016C329.657 68.3653 329.47 67.624 329.47 66.792C329.47 65.9493 329.657 65.208 330.03 64.568C330.404 63.928 330.916 63.4267 331.566 63.064C332.228 62.7013 332.974 62.52 333.806 62.52C334.521 62.52 335.166 62.6587 335.742 62.936C336.318 63.2133 336.772 63.6293 337.102 64.184L336.254 64.76C335.966 64.3333 335.609 64.0187 335.182 63.816C334.756 63.6133 334.292 63.512 333.79 63.512C333.193 63.512 332.654 63.6507 332.174 63.928C331.694 64.1947 331.316 64.5733 331.038 65.064C330.761 65.5547 330.622 66.1307 330.622 66.792C330.622 67.4533 330.761 68.0293 331.038 68.52C331.316 69.0107 331.694 69.3947 332.174 69.672C332.654 69.9387 333.193 70.072 333.79 70.072C334.292 70.072 334.756 69.9707 335.182 69.768C335.609 69.5653 335.966 69.256 336.254 68.84L337.102 69.416C336.772 69.96 336.318 70.376 335.742 70.664C335.166 70.9413 334.521 71.08 333.806 71.08ZM342.761 71.08C341.887 71.08 341.119 70.8987 340.457 70.536C339.796 70.1627 339.279 69.656 338.905 69.016C338.532 68.3653 338.345 67.624 338.345 66.792C338.345 65.96 338.521 65.224 338.873 64.584C339.236 63.944 339.727 63.4427 340.345 63.08C340.975 62.7067 341.679 62.52 342.457 62.52C343.247 62.52 343.945 62.7013 344.553 63.064C345.172 63.416 345.657 63.9173 346.009 64.568C346.361 65.208 346.537 65.9493 346.537 66.792C346.537 66.8453 346.532 66.904 346.521 66.968C346.521 67.0213 346.521 67.08 346.521 67.144H339.209V66.296H345.913L345.465 66.632C345.465 66.024 345.332 65.4853 345.065 65.016C344.809 64.536 344.457 64.1627 344.009 63.896C343.561 63.6293 343.044 63.496 342.457 63.496C341.881 63.496 341.364 63.6293 340.905 63.896C340.447 64.1627 340.089 64.536 339.833 65.016C339.577 65.496 339.449 66.0453 339.449 66.664V66.84C339.449 67.48 339.588 68.0453 339.865 68.536C340.153 69.016 340.548 69.3947 341.049 69.672C341.561 69.9387 342.143 70.072 342.793 70.072C343.305 70.072 343.78 69.9813 344.217 69.8C344.665 69.6187 345.049 69.3413 345.369 68.968L346.009 69.704C345.636 70.152 345.167 70.4933 344.601 70.728C344.047 70.9627 343.433 71.08 342.761 71.08ZM358.301 71V69.144L358.253 68.84V65.736C358.253 65.0213 358.05 64.472 357.645 64.088C357.25 63.704 356.658 63.512 355.869 63.512C355.325 63.512 354.808 63.6027 354.317 63.784C353.826 63.9653 353.41 64.2053 353.069 64.504L352.557 63.656C352.984 63.2933 353.496 63.016 354.093 62.824C354.69 62.6213 355.32 62.52 355.981 62.52C357.069 62.52 357.906 62.792 358.493 63.336C359.09 63.8693 359.389 64.6853 359.389 65.784V71H358.301ZM355.405 71.08C354.776 71.08 354.226 70.9787 353.757 70.776C353.298 70.5627 352.946 70.2747 352.701 69.912C352.456 69.5387 352.333 69.112 352.333 68.632C352.333 68.1947 352.434 67.8 352.637 67.448C352.85 67.0853 353.192 66.7973 353.661 66.584C354.141 66.36 354.781 66.248 355.581 66.248H358.477V67.096H355.613C354.802 67.096 354.237 67.24 353.917 67.528C353.608 67.816 353.453 68.1733 353.453 68.6C353.453 69.08 353.64 69.464 354.013 69.752C354.386 70.04 354.909 70.184 355.581 70.184C356.221 70.184 356.77 70.04 357.229 69.752C357.698 69.4533 358.04 69.0267 358.253 68.472L358.509 69.256C358.296 69.8107 357.922 70.2533 357.389 70.584C356.866 70.9147 356.205 71.08 355.405 71.08ZM366.763 62.52C367.445 62.52 368.043 62.6533 368.555 62.92C369.077 63.176 369.483 63.5707 369.771 64.104C370.069 64.6373 370.219 65.3093 370.219 66.12V71H369.083V66.232C369.083 65.3467 368.859 64.68 368.411 64.232C367.973 63.7733 367.355 63.544 366.555 63.544C365.957 63.544 365.435 63.6667 364.987 63.912C364.549 64.1467 364.208 64.4933 363.963 64.952C363.728 65.4 363.611 65.944 363.611 66.584V71H362.475V62.6H363.563V64.904L363.387 64.472C363.653 63.864 364.08 63.3893 364.667 63.048C365.253 62.696 365.952 62.52 366.763 62.52ZM376.631 71.08C375.831 71.08 375.111 70.8987 374.471 70.536C373.842 70.1733 373.346 69.672 372.983 69.032C372.62 68.3813 372.439 67.6347 372.439 66.792C372.439 65.9387 372.62 65.192 372.983 64.552C373.346 63.912 373.842 63.416 374.471 63.064C375.111 62.7013 375.831 62.52 376.631 62.52C377.367 62.52 378.023 62.6853 378.599 63.016C379.186 63.3467 379.65 63.832 379.991 64.472C380.343 65.1013 380.519 65.8747 380.519 66.792C380.519 67.6987 380.348 68.472 380.007 69.112C379.666 69.752 379.202 70.2427 378.615 70.584C378.039 70.9147 377.378 71.08 376.631 71.08ZM376.711 70.072C377.308 70.072 377.842 69.9387 378.311 69.672C378.791 69.3947 379.164 69.0107 379.431 68.52C379.708 68.0187 379.847 67.4427 379.847 66.792C379.847 66.1307 379.708 65.5547 379.431 65.064C379.164 64.5733 378.791 64.1947 378.311 63.928C377.842 63.6507 377.308 63.512 376.711 63.512C376.124 63.512 375.596 63.6507 375.127 63.928C374.658 64.1947 374.284 64.5733 374.007 65.064C373.73 65.5547 373.591 66.1307 373.591 66.792C373.591 67.4427 373.73 68.0187 374.007 68.52C374.284 69.0107 374.658 69.3947 375.127 69.672C375.596 69.9387 376.124 70.072 376.711 70.072ZM379.879 71V68.472L379.991 66.776L379.831 65.08V59.128H380.967V71H379.879ZM97.84 91.08C97.1467 91.08 96.4907 90.984 95.872 90.792C95.2533 90.5893 94.768 90.3387 94.416 90.04L94.928 89.144C95.2693 89.4 95.7067 89.624 96.24 89.816C96.7733 89.9973 97.3333 90.088 97.92 90.088C98.72 90.088 99.296 89.9653 99.648 89.72C100 89.464 100.176 89.128 100.176 88.712C100.176 88.4027 100.075 88.1627 99.872 87.992C99.68 87.8107 99.424 87.6773 99.104 87.592C98.784 87.496 98.4267 87.416 98.032 87.352C97.6373 87.288 97.2427 87.2133 96.848 87.128C96.464 87.0427 96.112 86.92 95.792 86.76C95.472 86.5893 95.2107 86.36 95.008 86.072C94.816 85.784 94.72 85.4 94.72 84.92C94.72 84.4613 94.848 84.0507 95.104 83.688C95.36 83.3253 95.7333 83.0427 96.224 82.84C96.7253 82.6267 97.3333 82.52 98.048 82.52C98.592 82.52 99.136 82.5947 99.68 82.744C100.224 82.8827 100.672 83.0693 101.024 83.304L100.528 84.216C100.155 83.96 99.7547 83.7787 99.328 83.672C98.9013 83.5547 98.4747 83.496 98.048 83.496C97.2907 83.496 96.7307 83.6293 96.368 83.896C96.016 84.152 95.84 84.4827 95.84 84.888C95.84 85.208 95.936 85.4587 96.128 85.64C96.3307 85.8213 96.592 85.9653 96.912 86.072C97.2427 86.168 97.6 86.248 97.984 86.312C98.3787 86.376 98.768 86.456 99.152 86.552C99.5467 86.6373 99.904 86.76 100.224 86.92C100.555 87.0693 100.816 87.288 101.008 87.576C101.211 87.8533 101.312 88.2213 101.312 88.68C101.312 89.1707 101.173 89.5973 100.896 89.96C100.629 90.312 100.235 90.5893 99.712 90.792C99.2 90.984 98.576 91.08 97.84 91.08ZM106.821 91.08C106.01 91.08 105.279 90.8987 104.629 90.536C103.989 90.1627 103.482 89.656 103.109 89.016C102.735 88.3653 102.549 87.624 102.549 86.792C102.549 85.9493 102.735 85.208 103.109 84.568C103.482 83.928 103.989 83.4267 104.629 83.064C105.269 82.7013 105.999 82.52 106.821 82.52C107.653 82.52 108.389 82.7013 109.029 83.064C109.679 83.4267 110.186 83.928 110.549 84.568C110.922 85.208 111.109 85.9493 111.109 86.792C111.109 87.624 110.922 88.3653 110.549 89.016C110.186 89.656 109.679 90.1627 109.029 90.536C108.378 90.8987 107.642 91.08 106.821 91.08ZM106.821 90.072C107.429 90.072 107.967 89.9387 108.437 89.672C108.906 89.3947 109.274 89.0107 109.541 88.52C109.818 88.0187 109.957 87.4427 109.957 86.792C109.957 86.1307 109.818 85.5547 109.541 85.064C109.274 84.5733 108.906 84.1947 108.437 83.928C107.967 83.6507 107.434 83.512 106.837 83.512C106.239 83.512 105.706 83.6507 105.237 83.928C104.767 84.1947 104.394 84.5733 104.117 85.064C103.839 85.5547 103.701 86.1307 103.701 86.792C103.701 87.4427 103.839 88.0187 104.117 88.52C104.394 89.0107 104.767 89.3947 105.237 89.672C105.706 89.9387 106.234 90.072 106.821 90.072ZM113.428 91V79.128H114.564V91H113.428ZM121.197 91.08C120.482 91.08 119.858 90.9467 119.325 90.68C118.791 90.4133 118.375 90.0133 118.077 89.48C117.789 88.9467 117.645 88.28 117.645 87.48V82.6H118.781V87.352C118.781 88.248 118.999 88.9253 119.437 89.384C119.885 89.832 120.509 90.056 121.309 90.056C121.895 90.056 122.402 89.9387 122.829 89.704C123.266 89.4587 123.597 89.1067 123.821 88.648C124.055 88.1893 124.173 87.64 124.173 87V82.6H125.309V91H124.221V88.696L124.397 89.112C124.13 89.7307 123.714 90.216 123.149 90.568C122.594 90.9093 121.943 91.08 121.197 91.08ZM131.131 91.08C130.341 91.08 129.733 90.8667 129.307 90.44C128.88 90.0133 128.667 89.4107 128.667 88.632V80.744H129.803V88.568C129.803 89.0587 129.925 89.4373 130.171 89.704C130.427 89.9707 130.789 90.104 131.259 90.104C131.76 90.104 132.176 89.96 132.507 89.672L132.907 90.488C132.683 90.6907 132.411 90.84 132.091 90.936C131.781 91.032 131.461 91.08 131.131 91.08ZM127.163 83.544V82.6H132.363V83.544H127.163ZM134.975 91V82.6H136.111V91H134.975ZM135.551 80.744C135.316 80.744 135.119 80.664 134.959 80.504C134.799 80.344 134.719 80.152 134.719 79.928C134.719 79.704 134.799 79.5173 134.959 79.368C135.119 79.208 135.316 79.128 135.551 79.128C135.785 79.128 135.983 79.2027 136.143 79.352C136.303 79.5013 136.383 79.688 136.383 79.912C136.383 80.1467 136.303 80.344 136.143 80.504C135.993 80.664 135.796 80.744 135.551 80.744ZM142.696 91.08C141.885 91.08 141.154 90.8987 140.504 90.536C139.864 90.1627 139.357 89.656 138.984 89.016C138.61 88.3653 138.424 87.624 138.424 86.792C138.424 85.9493 138.61 85.208 138.984 84.568C139.357 83.928 139.864 83.4267 140.504 83.064C141.144 82.7013 141.874 82.52 142.696 82.52C143.528 82.52 144.264 82.7013 144.904 83.064C145.554 83.4267 146.061 83.928 146.424 84.568C146.797 85.208 146.984 85.9493 146.984 86.792C146.984 87.624 146.797 88.3653 146.424 89.016C146.061 89.656 145.554 90.1627 144.904 90.536C144.253 90.8987 143.517 91.08 142.696 91.08ZM142.696 90.072C143.304 90.072 143.842 89.9387 144.312 89.672C144.781 89.3947 145.149 89.0107 145.416 88.52C145.693 88.0187 145.832 87.4427 145.832 86.792C145.832 86.1307 145.693 85.5547 145.416 85.064C145.149 84.5733 144.781 84.1947 144.312 83.928C143.842 83.6507 143.309 83.512 142.712 83.512C142.114 83.512 141.581 83.6507 141.112 83.928C140.642 84.1947 140.269 84.5733 139.992 85.064C139.714 85.5547 139.576 86.1307 139.576 86.792C139.576 87.4427 139.714 88.0187 139.992 88.52C140.269 89.0107 140.642 89.3947 141.112 89.672C141.581 89.9387 142.109 90.072 142.696 90.072ZM153.591 82.52C154.273 82.52 154.871 82.6533 155.383 82.92C155.905 83.176 156.311 83.5707 156.599 84.104C156.897 84.6373 157.047 85.3093 157.047 86.12V91H155.911V86.232C155.911 85.3467 155.687 84.68 155.239 84.232C154.801 83.7733 154.183 83.544 153.383 83.544C152.785 83.544 152.263 83.6667 151.815 83.912C151.377 84.1467 151.036 84.4933 150.791 84.952C150.556 85.4 150.439 85.944 150.439 86.584V91H149.303V82.6H150.391V84.904L150.215 84.472C150.481 83.864 150.908 83.3893 151.495 83.048C152.081 82.696 152.78 82.52 153.591 82.52ZM162.371 91.08C161.678 91.08 161.022 90.984 160.403 90.792C159.785 90.5893 159.299 90.3387 158.947 90.04L159.459 89.144C159.801 89.4 160.238 89.624 160.771 89.816C161.305 89.9973 161.865 90.088 162.451 90.088C163.251 90.088 163.827 89.9653 164.179 89.72C164.531 89.464 164.707 89.128 164.707 88.712C164.707 88.4027 164.606 88.1627 164.403 87.992C164.211 87.8107 163.955 87.6773 163.635 87.592C163.315 87.496 162.958 87.416 162.563 87.352C162.169 87.288 161.774 87.2133 161.379 87.128C160.995 87.0427 160.643 86.92 160.323 86.76C160.003 86.5893 159.742 86.36 159.539 86.072C159.347 85.784 159.251 85.4 159.251 84.92C159.251 84.4613 159.379 84.0507 159.635 83.688C159.891 83.3253 160.265 83.0427 160.755 82.84C161.257 82.6267 161.865 82.52 162.579 82.52C163.123 82.52 163.667 82.5947 164.211 82.744C164.755 82.8827 165.203 83.0693 165.555 83.304L165.059 84.216C164.686 83.96 164.286 83.7787 163.859 83.672C163.433 83.5547 163.006 83.496 162.579 83.496C161.822 83.496 161.262 83.6293 160.899 83.896C160.547 84.152 160.371 84.4827 160.371 84.888C160.371 85.208 160.467 85.4587 160.659 85.64C160.862 85.8213 161.123 85.9653 161.443 86.072C161.774 86.168 162.131 86.248 162.515 86.312C162.91 86.376 163.299 86.456 163.683 86.552C164.078 86.6373 164.435 86.76 164.755 86.92C165.086 87.0693 165.347 87.288 165.539 87.576C165.742 87.8533 165.843 88.2213 165.843 88.68C165.843 89.1707 165.705 89.5973 165.427 89.96C165.161 90.312 164.766 90.5893 164.243 90.792C163.731 90.984 163.107 91.08 162.371 91.08ZM174.771 91.08C173.982 91.08 173.374 90.8667 172.947 90.44C172.521 90.0133 172.307 89.4107 172.307 88.632V80.744H173.443V88.568C173.443 89.0587 173.566 89.4373 173.811 89.704C174.067 89.9707 174.43 90.104 174.899 90.104C175.401 90.104 175.817 89.96 176.147 89.672L176.547 90.488C176.323 90.6907 176.051 90.84 175.731 90.936C175.422 91.032 175.102 91.08 174.771 91.08ZM170.803 83.544V82.6H176.003V83.544H170.803ZM182.903 82.52C183.586 82.52 184.183 82.6533 184.695 82.92C185.218 83.176 185.623 83.5707 185.911 84.104C186.21 84.6373 186.359 85.3093 186.359 86.12V91H185.223V86.232C185.223 85.3467 184.999 84.68 184.551 84.232C184.114 83.7733 183.495 83.544 182.695 83.544C182.098 83.544 181.575 83.6667 181.127 83.912C180.69 84.1467 180.349 84.4933 180.103 84.952C179.869 85.4 179.751 85.944 179.751 86.584V91H178.615V79.128H179.751V84.904L179.527 84.472C179.794 83.864 180.221 83.3893 180.807 83.048C181.394 82.696 182.093 82.52 182.903 82.52ZM194.692 91V89.144L194.644 88.84V85.736C194.644 85.0213 194.441 84.472 194.036 84.088C193.641 83.704 193.049 83.512 192.26 83.512C191.716 83.512 191.198 83.6027 190.708 83.784C190.217 83.9653 189.801 84.2053 189.46 84.504L188.948 83.656C189.374 83.2933 189.886 83.016 190.484 82.824C191.081 82.6213 191.71 82.52 192.372 82.52C193.46 82.52 194.297 82.792 194.884 83.336C195.481 83.8693 195.78 84.6853 195.78 85.784V91H194.692ZM191.796 91.08C191.166 91.08 190.617 90.9787 190.148 90.776C189.689 90.5627 189.337 90.2747 189.092 89.912C188.846 89.5387 188.724 89.112 188.724 88.632C188.724 88.1947 188.825 87.8 189.028 87.448C189.241 87.0853 189.582 86.7973 190.052 86.584C190.532 86.36 191.172 86.248 191.972 86.248H194.868V87.096H192.004C191.193 87.096 190.628 87.24 190.308 87.528C189.998 87.816 189.844 88.1733 189.844 88.6C189.844 89.08 190.03 89.464 190.404 89.752C190.777 90.04 191.3 90.184 191.972 90.184C192.612 90.184 193.161 90.04 193.62 89.752C194.089 89.4533 194.43 89.0267 194.644 88.472L194.9 89.256C194.686 89.8107 194.313 90.2533 193.78 90.584C193.257 90.9147 192.596 91.08 191.796 91.08ZM201.521 91.08C200.732 91.08 200.124 90.8667 199.697 90.44C199.271 90.0133 199.057 89.4107 199.057 88.632V80.744H200.193V88.568C200.193 89.0587 200.316 89.4373 200.561 89.704C200.817 89.9707 201.18 90.104 201.649 90.104C202.151 90.104 202.567 89.96 202.897 89.672L203.297 90.488C203.073 90.6907 202.801 90.84 202.481 90.936C202.172 91.032 201.852 91.08 201.521 91.08ZM197.553 83.544V82.6H202.753V83.544H197.553ZM213.841 82.52C214.523 82.52 215.121 82.6533 215.633 82.92C216.155 83.176 216.561 83.5707 216.849 84.104C217.147 84.6373 217.297 85.3093 217.297 86.12V91H216.161V86.232C216.161 85.3467 215.937 84.68 215.489 84.232C215.051 83.7733 214.433 83.544 213.633 83.544C213.035 83.544 212.513 83.6667 212.065 83.912C211.627 84.1467 211.286 84.4933 211.041 84.952C210.806 85.4 210.689 85.944 210.689 86.584V91H209.553V79.128H210.689V84.904L210.465 84.472C210.731 83.864 211.158 83.3893 211.745 83.048C212.331 82.696 213.03 82.52 213.841 82.52ZM223.933 91.08C223.059 91.08 222.291 90.8987 221.629 90.536C220.968 90.1627 220.451 89.656 220.077 89.016C219.704 88.3653 219.517 87.624 219.517 86.792C219.517 85.96 219.693 85.224 220.045 84.584C220.408 83.944 220.899 83.4427 221.517 83.08C222.147 82.7067 222.851 82.52 223.629 82.52C224.419 82.52 225.117 82.7013 225.725 83.064C226.344 83.416 226.829 83.9173 227.181 84.568C227.533 85.208 227.709 85.9493 227.709 86.792C227.709 86.8453 227.704 86.904 227.693 86.968C227.693 87.0213 227.693 87.08 227.693 87.144H220.381V86.296H227.085L226.637 86.632C226.637 86.024 226.504 85.4853 226.237 85.016C225.981 84.536 225.629 84.1627 225.181 83.896C224.733 83.6293 224.216 83.496 223.629 83.496C223.053 83.496 222.536 83.6293 222.077 83.896C221.619 84.1627 221.261 84.536 221.005 85.016C220.749 85.496 220.621 86.0453 220.621 86.664V86.84C220.621 87.48 220.76 88.0453 221.037 88.536C221.325 89.016 221.72 89.3947 222.221 89.672C222.733 89.9387 223.315 90.072 223.965 90.072C224.477 90.072 224.952 89.9813 225.389 89.8C225.837 89.6187 226.221 89.3413 226.541 88.968L227.181 89.704C226.808 90.152 226.339 90.4933 225.773 90.728C225.219 90.9627 224.605 91.08 223.933 91.08ZM230.022 91V79.128H231.158V91H230.022ZM238.654 91.08C237.929 91.08 237.273 90.9147 236.686 90.584C236.1 90.2427 235.63 89.7573 235.278 89.128C234.937 88.488 234.766 87.7093 234.766 86.792C234.766 85.8747 234.937 85.1013 235.278 84.472C235.62 83.832 236.084 83.3467 236.67 83.016C237.257 82.6853 237.918 82.52 238.654 82.52C239.454 82.52 240.169 82.7013 240.798 83.064C241.438 83.416 241.94 83.9173 242.302 84.568C242.665 85.208 242.846 85.9493 242.846 86.792C242.846 87.6453 242.665 88.392 242.302 89.032C241.94 89.672 241.438 90.1733 240.798 90.536C240.169 90.8987 239.454 91.08 238.654 91.08ZM234.318 94.104V82.6H235.406V85.128L235.294 86.808L235.454 88.504V94.104H234.318ZM238.574 90.072C239.172 90.072 239.705 89.9387 240.174 89.672C240.644 89.3947 241.017 89.0107 241.294 88.52C241.572 88.0187 241.71 87.4427 241.71 86.792C241.71 86.1413 241.572 85.5707 241.294 85.08C241.017 84.5893 240.644 84.2053 240.174 83.928C239.705 83.6507 239.172 83.512 238.574 83.512C237.977 83.512 237.438 83.6507 236.958 83.928C236.489 84.2053 236.116 84.5893 235.838 85.08C235.572 85.5707 235.438 86.1413 235.438 86.792C235.438 87.4427 235.572 88.0187 235.838 88.52C236.116 89.0107 236.489 89.3947 236.958 89.672C237.438 89.9387 237.977 90.072 238.574 90.072ZM252.006 91.08C251.216 91.08 250.608 90.8667 250.182 90.44C249.755 90.0133 249.542 89.4107 249.542 88.632V80.744H250.678V88.568C250.678 89.0587 250.8 89.4373 251.046 89.704C251.302 89.9707 251.664 90.104 252.134 90.104C252.635 90.104 253.051 89.96 253.382 89.672L253.782 90.488C253.558 90.6907 253.286 90.84 252.966 90.936C252.656 91.032 252.336 91.08 252.006 91.08ZM248.038 83.544V82.6H253.238V83.544H248.038ZM260.138 82.52C260.82 82.52 261.418 82.6533 261.93 82.92C262.452 83.176 262.858 83.5707 263.146 84.104C263.444 84.6373 263.594 85.3093 263.594 86.12V91H262.458V86.232C262.458 85.3467 262.234 84.68 261.786 84.232C261.348 83.7733 260.73 83.544 259.93 83.544C259.332 83.544 258.81 83.6667 258.362 83.912C257.924 84.1467 257.583 84.4933 257.338 84.952C257.103 85.4 256.986 85.944 256.986 86.584V91H255.85V79.128H256.986V84.904L256.762 84.472C257.028 83.864 257.455 83.3893 258.042 83.048C258.628 82.696 259.327 82.52 260.138 82.52ZM270.23 91.08C269.355 91.08 268.587 90.8987 267.926 90.536C267.265 90.1627 266.747 89.656 266.374 89.016C266.001 88.3653 265.814 87.624 265.814 86.792C265.814 85.96 265.99 85.224 266.342 84.584C266.705 83.944 267.195 83.4427 267.814 83.08C268.443 82.7067 269.147 82.52 269.926 82.52C270.715 82.52 271.414 82.7013 272.022 83.064C272.641 83.416 273.126 83.9173 273.478 84.568C273.83 85.208 274.006 85.9493 274.006 86.792C274.006 86.8453 274.001 86.904 273.99 86.968C273.99 87.0213 273.99 87.08 273.99 87.144H266.678V86.296H273.382L272.934 86.632C272.934 86.024 272.801 85.4853 272.534 85.016C272.278 84.536 271.926 84.1627 271.478 83.896C271.03 83.6293 270.513 83.496 269.926 83.496C269.35 83.496 268.833 83.6293 268.374 83.896C267.915 84.1627 267.558 84.536 267.302 85.016C267.046 85.496 266.918 86.0453 266.918 86.664V86.84C266.918 87.48 267.057 88.0453 267.334 88.536C267.622 89.016 268.017 89.3947 268.518 89.672C269.03 89.9387 269.611 90.072 270.262 90.072C270.774 90.072 271.249 89.9813 271.686 89.8C272.134 89.6187 272.518 89.3413 272.838 88.968L273.478 89.704C273.105 90.152 272.635 90.4933 272.07 90.728C271.515 90.9627 270.902 91.08 270.23 91.08ZM286.814 82.52C287.497 82.52 288.089 82.6533 288.59 82.92C289.102 83.176 289.497 83.5707 289.774 84.104C290.062 84.6373 290.206 85.3093 290.206 86.12V91H289.07V86.232C289.07 85.3467 288.857 84.68 288.43 84.232C288.014 83.7733 287.422 83.544 286.654 83.544C286.078 83.544 285.577 83.6667 285.15 83.912C284.734 84.1467 284.409 84.4933 284.174 84.952C283.95 85.4 283.838 85.944 283.838 86.584V91H282.702V86.232C282.702 85.3467 282.489 84.68 282.062 84.232C281.636 83.7733 281.038 83.544 280.27 83.544C279.705 83.544 279.209 83.6667 278.782 83.912C278.356 84.1467 278.025 84.4933 277.79 84.952C277.566 85.4 277.454 85.944 277.454 86.584V91H276.318V82.6H277.406V84.872L277.23 84.472C277.486 83.864 277.897 83.3893 278.462 83.048C279.038 82.696 279.716 82.52 280.494 82.52C281.316 82.52 282.014 82.728 282.59 83.144C283.166 83.5493 283.54 84.1627 283.71 84.984L283.262 84.808C283.508 84.1253 283.94 83.576 284.558 83.16C285.188 82.7333 285.94 82.52 286.814 82.52ZM299.731 91.08C299.037 91.08 298.381 90.984 297.763 90.792C297.144 90.5893 296.659 90.3387 296.307 90.04L296.819 89.144C297.16 89.4 297.597 89.624 298.131 89.816C298.664 89.9973 299.224 90.088 299.811 90.088C300.611 90.088 301.187 89.9653 301.539 89.72C301.891 89.464 302.067 89.128 302.067 88.712C302.067 88.4027 301.965 88.1627 301.763 87.992C301.571 87.8107 301.315 87.6773 300.995 87.592C300.675 87.496 300.317 87.416 299.923 87.352C299.528 87.288 299.133 87.2133 298.739 87.128C298.355 87.0427 298.003 86.92 297.683 86.76C297.363 86.5893 297.101 86.36 296.899 86.072C296.707 85.784 296.611 85.4 296.611 84.92C296.611 84.4613 296.739 84.0507 296.995 83.688C297.251 83.3253 297.624 83.0427 298.115 82.84C298.616 82.6267 299.224 82.52 299.939 82.52C300.483 82.52 301.027 82.5947 301.571 82.744C302.115 82.8827 302.563 83.0693 302.915 83.304L302.419 84.216C302.045 83.96 301.645 83.7787 301.219 83.672C300.792 83.5547 300.365 83.496 299.939 83.496C299.181 83.496 298.621 83.6293 298.259 83.896C297.907 84.152 297.731 84.4827 297.731 84.888C297.731 85.208 297.827 85.4587 298.019 85.64C298.221 85.8213 298.483 85.9653 298.803 86.072C299.133 86.168 299.491 86.248 299.875 86.312C300.269 86.376 300.659 86.456 301.043 86.552C301.437 86.6373 301.795 86.76 302.115 86.92C302.445 87.0693 302.707 87.288 302.899 87.576C303.101 87.8533 303.203 88.2213 303.203 88.68C303.203 89.1707 303.064 89.5973 302.787 89.96C302.52 90.312 302.125 90.5893 301.603 90.792C301.091 90.984 300.467 91.08 299.731 91.08ZM308.759 91.08C308.044 91.08 307.42 90.9467 306.887 90.68C306.354 90.4133 305.938 90.0133 305.639 89.48C305.351 88.9467 305.207 88.28 305.207 87.48V82.6H306.343V87.352C306.343 88.248 306.562 88.9253 306.999 89.384C307.447 89.832 308.071 90.056 308.871 90.056C309.458 90.056 309.964 89.9387 310.391 89.704C310.828 89.4587 311.159 89.1067 311.383 88.648C311.618 88.1893 311.735 87.64 311.735 87V82.6H312.871V91H311.783V88.696L311.959 89.112C311.692 89.7307 311.276 90.216 310.711 90.568C310.156 90.9093 309.506 91.08 308.759 91.08ZM319.525 91.08C318.693 91.08 317.946 90.8987 317.285 90.536C316.634 90.1627 316.122 89.656 315.749 89.016C315.376 88.3653 315.189 87.624 315.189 86.792C315.189 85.9493 315.376 85.208 315.749 84.568C316.122 83.928 316.634 83.4267 317.285 83.064C317.946 82.7013 318.693 82.52 319.525 82.52C320.24 82.52 320.885 82.6587 321.461 82.936C322.037 83.2133 322.49 83.6293 322.821 84.184L321.973 84.76C321.685 84.3333 321.328 84.0187 320.901 83.816C320.474 83.6133 320.01 83.512 319.509 83.512C318.912 83.512 318.373 83.6507 317.893 83.928C317.413 84.1947 317.034 84.5733 316.757 85.064C316.48 85.5547 316.341 86.1307 316.341 86.792C316.341 87.4533 316.48 88.0293 316.757 88.52C317.034 89.0107 317.413 89.3947 317.893 89.672C318.373 89.9387 318.912 90.072 319.509 90.072C320.01 90.072 320.474 89.9707 320.901 89.768C321.328 89.5653 321.685 89.256 321.973 88.84L322.821 89.416C322.49 89.96 322.037 90.376 321.461 90.664C320.885 90.9413 320.24 91.08 319.525 91.08ZM328.4 91.08C327.568 91.08 326.821 90.8987 326.16 90.536C325.509 90.1627 324.997 89.656 324.624 89.016C324.251 88.3653 324.064 87.624 324.064 86.792C324.064 85.9493 324.251 85.208 324.624 84.568C324.997 83.928 325.509 83.4267 326.16 83.064C326.821 82.7013 327.568 82.52 328.4 82.52C329.115 82.52 329.76 82.6587 330.336 82.936C330.912 83.2133 331.365 83.6293 331.696 84.184L330.848 84.76C330.56 84.3333 330.203 84.0187 329.776 83.816C329.349 83.6133 328.885 83.512 328.384 83.512C327.787 83.512 327.248 83.6507 326.768 83.928C326.288 84.1947 325.909 84.5733 325.632 85.064C325.355 85.5547 325.216 86.1307 325.216 86.792C325.216 87.4533 325.355 88.0293 325.632 88.52C325.909 89.0107 326.288 89.3947 326.768 89.672C327.248 89.9387 327.787 90.072 328.384 90.072C328.885 90.072 329.349 89.9707 329.776 89.768C330.203 89.5653 330.56 89.256 330.848 88.84L331.696 89.416C331.365 89.96 330.912 90.376 330.336 90.664C329.76 90.9413 329.115 91.08 328.4 91.08ZM337.355 91.08C336.48 91.08 335.712 90.8987 335.051 90.536C334.39 90.1627 333.872 89.656 333.499 89.016C333.126 88.3653 332.939 87.624 332.939 86.792C332.939 85.96 333.115 85.224 333.467 84.584C333.83 83.944 334.32 83.4427 334.939 83.08C335.568 82.7067 336.272 82.52 337.051 82.52C337.84 82.52 338.539 82.7013 339.147 83.064C339.766 83.416 340.251 83.9173 340.603 84.568C340.955 85.208 341.131 85.9493 341.131 86.792C341.131 86.8453 341.126 86.904 341.115 86.968C341.115 87.0213 341.115 87.08 341.115 87.144H333.803V86.296H340.507L340.059 86.632C340.059 86.024 339.926 85.4853 339.659 85.016C339.403 84.536 339.051 84.1627 338.603 83.896C338.155 83.6293 337.638 83.496 337.051 83.496C336.475 83.496 335.958 83.6293 335.499 83.896C335.04 84.1627 334.683 84.536 334.427 85.016C334.171 85.496 334.043 86.0453 334.043 86.664V86.84C334.043 87.48 334.182 88.0453 334.459 88.536C334.747 89.016 335.142 89.3947 335.643 89.672C336.155 89.9387 336.736 90.072 337.387 90.072C337.899 90.072 338.374 89.9813 338.811 89.8C339.259 89.6187 339.643 89.3413 339.963 88.968L340.603 89.704C340.23 90.152 339.76 90.4933 339.195 90.728C338.64 90.9627 338.027 91.08 337.355 91.08ZM347.011 91.08C346.137 91.08 345.369 90.8987 344.707 90.536C344.046 90.1627 343.529 89.656 343.155 89.016C342.782 88.3653 342.595 87.624 342.595 86.792C342.595 85.96 342.771 85.224 343.123 84.584C343.486 83.944 343.977 83.4427 344.595 83.08C345.225 82.7067 345.929 82.52 346.707 82.52C347.497 82.52 348.195 82.7013 348.803 83.064C349.422 83.416 349.907 83.9173 350.259 84.568C350.611 85.208 350.787 85.9493 350.787 86.792C350.787 86.8453 350.782 86.904 350.771 86.968C350.771 87.0213 350.771 87.08 350.771 87.144H343.459V86.296H350.163L349.715 86.632C349.715 86.024 349.582 85.4853 349.315 85.016C349.059 84.536 348.707 84.1627 348.259 83.896C347.811 83.6293 347.294 83.496 346.707 83.496C346.131 83.496 345.614 83.6293 345.155 83.896C344.697 84.1627 344.339 84.536 344.083 85.016C343.827 85.496 343.699 86.0453 343.699 86.664V86.84C343.699 87.48 343.838 88.0453 344.115 88.536C344.403 89.016 344.798 89.3947 345.299 89.672C345.811 89.9387 346.393 90.072 347.043 90.072C347.555 90.072 348.03 89.9813 348.467 89.8C348.915 89.6187 349.299 89.3413 349.619 88.968L350.259 89.704C349.886 90.152 349.417 90.4933 348.851 90.728C348.297 90.9627 347.683 91.08 347.011 91.08ZM356.444 91.08C355.644 91.08 354.924 90.8987 354.284 90.536C353.654 90.1733 353.158 89.672 352.796 89.032C352.433 88.3813 352.252 87.6347 352.252 86.792C352.252 85.9387 352.433 85.192 352.796 84.552C353.158 83.912 353.654 83.416 354.284 83.064C354.924 82.7013 355.644 82.52 356.444 82.52C357.18 82.52 357.836 82.6853 358.412 83.016C358.998 83.3467 359.462 83.832 359.804 84.472C360.156 85.1013 360.332 85.8747 360.332 86.792C360.332 87.6987 360.161 88.472 359.82 89.112C359.478 89.752 359.014 90.2427 358.428 90.584C357.852 90.9147 357.19 91.08 356.444 91.08ZM356.524 90.072C357.121 90.072 357.654 89.9387 358.124 89.672C358.604 89.3947 358.977 89.0107 359.244 88.52C359.521 88.0187 359.66 87.4427 359.66 86.792C359.66 86.1307 359.521 85.5547 359.244 85.064C358.977 84.5733 358.604 84.1947 358.124 83.928C357.654 83.6507 357.121 83.512 356.524 83.512C355.937 83.512 355.409 83.6507 354.94 83.928C354.47 84.1947 354.097 84.5733 353.82 85.064C353.542 85.5547 353.404 86.1307 353.404 86.792C353.404 87.4427 353.542 88.0187 353.82 88.52C354.097 89.0107 354.47 89.3947 354.94 89.672C355.409 89.9387 355.937 90.072 356.524 90.072ZM359.692 91V88.472L359.804 86.776L359.644 85.08V79.128H360.78V91H359.692ZM95.776 111V101.544C95.776 100.797 95.9947 100.195 96.432 99.736C96.8693 99.2773 97.4987 99.048 98.32 99.048C98.64 99.048 98.9493 99.0907 99.248 99.176C99.5467 99.2613 99.7973 99.3947 100 99.576L99.616 100.424C99.456 100.285 99.2693 100.184 99.056 100.12C98.8427 100.045 98.6133 100.008 98.368 100.008C97.888 100.008 97.52 100.141 97.264 100.408C97.008 100.675 96.88 101.069 96.88 101.592V102.872L96.912 103.4V111H95.776ZM94.272 103.544V102.6H99.472V103.544H94.272ZM101.008 111V102.6H102.144V111H101.008ZM101.584 100.744C101.349 100.744 101.152 100.664 100.992 100.504C100.832 100.344 100.752 100.152 100.752 99.928C100.752 99.704 100.832 99.5173 100.992 99.368C101.152 99.208 101.349 99.128 101.584 99.128C101.819 99.128 102.016 99.2027 102.176 99.352C102.336 99.5013 102.416 99.688 102.416 99.912C102.416 100.147 102.336 100.344 102.176 100.504C102.027 100.664 101.829 100.744 101.584 100.744ZM109.622 102.52C110.305 102.52 110.902 102.653 111.414 102.92C111.937 103.176 112.342 103.571 112.63 104.104C112.929 104.637 113.078 105.309 113.078 106.12V111H111.942V106.232C111.942 105.347 111.718 104.68 111.27 104.232C110.833 103.773 110.214 103.544 109.414 103.544C108.817 103.544 108.294 103.667 107.846 103.912C107.409 104.147 107.067 104.493 106.822 104.952C106.587 105.4 106.47 105.944 106.47 106.584V111H105.334V102.6H106.422V104.904L106.246 104.472C106.513 103.864 106.939 103.389 107.526 103.048C108.113 102.696 108.811 102.52 109.622 102.52ZM121.411 111V109.144L121.363 108.84V105.736C121.363 105.021 121.16 104.472 120.755 104.088C120.36 103.704 119.768 103.512 118.979 103.512C118.435 103.512 117.917 103.603 117.427 103.784C116.936 103.965 116.52 104.205 116.179 104.504L115.667 103.656C116.093 103.293 116.605 103.016 117.203 102.824C117.8 102.621 118.429 102.52 119.091 102.52C120.179 102.52 121.016 102.792 121.603 103.336C122.2 103.869 122.499 104.685 122.499 105.784V111H121.411ZM118.515 111.08C117.885 111.08 117.336 110.979 116.867 110.776C116.408 110.563 116.056 110.275 115.811 109.912C115.565 109.539 115.443 109.112 115.443 108.632C115.443 108.195 115.544 107.8 115.747 107.448C115.96 107.085 116.301 106.797 116.771 106.584C117.251 106.36 117.891 106.248 118.691 106.248H121.587V107.096H118.723C117.912 107.096 117.347 107.24 117.027 107.528C116.717 107.816 116.562 108.173 116.562 108.6C116.562 109.08 116.749 109.464 117.123 109.752C117.496 110.04 118.019 110.184 118.691 110.184C119.331 110.184 119.88 110.04 120.339 109.752C120.808 109.453 121.149 109.027 121.363 108.472L121.619 109.256C121.405 109.811 121.032 110.253 120.499 110.584C119.976 110.915 119.315 111.08 118.515 111.08ZM129.872 102.52C130.555 102.52 131.152 102.653 131.664 102.92C132.187 103.176 132.592 103.571 132.88 104.104C133.179 104.637 133.328 105.309 133.328 106.12V111H132.192V106.232C132.192 105.347 131.968 104.68 131.52 104.232C131.083 103.773 130.464 103.544 129.664 103.544C129.067 103.544 128.544 103.667 128.096 103.912C127.659 104.147 127.317 104.493 127.072 104.952C126.837 105.4 126.72 105.944 126.72 106.584V111H125.584V102.6H126.672V104.904L126.496 104.472C126.763 103.864 127.189 103.389 127.776 103.048C128.363 102.696 129.061 102.52 129.872 102.52ZM139.885 111.08C139.053 111.08 138.306 110.899 137.645 110.536C136.994 110.163 136.482 109.656 136.109 109.016C135.735 108.365 135.549 107.624 135.549 106.792C135.549 105.949 135.735 105.208 136.109 104.568C136.482 103.928 136.994 103.427 137.645 103.064C138.306 102.701 139.053 102.52 139.885 102.52C140.599 102.52 141.245 102.659 141.821 102.936C142.397 103.213 142.85 103.629 143.181 104.184L142.333 104.76C142.045 104.333 141.687 104.019 141.261 103.816C140.834 103.613 140.37 103.512 139.869 103.512C139.271 103.512 138.733 103.651 138.253 103.928C137.773 104.195 137.394 104.573 137.117 105.064C136.839 105.555 136.701 106.131 136.701 106.792C136.701 107.453 136.839 108.029 137.117 108.52C137.394 109.011 137.773 109.395 138.253 109.672C138.733 109.939 139.271 110.072 139.869 110.072C140.37 110.072 140.834 109.971 141.261 109.768C141.687 109.565 142.045 109.256 142.333 108.84L143.181 109.416C142.85 109.96 142.397 110.376 141.821 110.664C141.245 110.941 140.599 111.08 139.885 111.08ZM145.287 111V102.6H146.423V111H145.287ZM145.863 100.744C145.628 100.744 145.431 100.664 145.271 100.504C145.111 100.344 145.031 100.152 145.031 99.928C145.031 99.704 145.111 99.5173 145.271 99.368C145.431 99.208 145.628 99.128 145.863 99.128C146.098 99.128 146.295 99.2027 146.455 99.352C146.615 99.5013 146.695 99.688 146.695 99.912C146.695 100.147 146.615 100.344 146.455 100.504C146.306 100.664 146.108 100.744 145.863 100.744ZM154.848 111V109.144L154.8 108.84V105.736C154.8 105.021 154.597 104.472 154.192 104.088C153.797 103.704 153.205 103.512 152.416 103.512C151.872 103.512 151.355 103.603 150.864 103.784C150.373 103.965 149.957 104.205 149.616 104.504L149.104 103.656C149.531 103.293 150.043 103.016 150.64 102.824C151.237 102.621 151.867 102.52 152.528 102.52C153.616 102.52 154.453 102.792 155.04 103.336C155.637 103.869 155.936 104.685 155.936 105.784V111H154.848ZM151.952 111.08C151.323 111.08 150.773 110.979 150.304 110.776C149.845 110.563 149.493 110.275 149.248 109.912C149.003 109.539 148.88 109.112 148.88 108.632C148.88 108.195 148.981 107.8 149.184 107.448C149.397 107.085 149.739 106.797 150.208 106.584C150.688 106.36 151.328 106.248 152.128 106.248H155.024V107.096H152.16C151.349 107.096 150.784 107.24 150.464 107.528C150.155 107.816 150 108.173 150 108.6C150 109.08 150.187 109.464 150.56 109.752C150.933 110.04 151.456 110.184 152.128 110.184C152.768 110.184 153.317 110.04 153.776 109.752C154.245 109.453 154.587 109.027 154.8 108.472L155.056 109.256C154.843 109.811 154.469 110.253 153.936 110.584C153.413 110.915 152.752 111.08 151.952 111.08ZM159.022 111V99.128H160.158V111H159.022ZM163.318 111V99.128H164.454V111H163.318ZM167.679 114.184C167.285 114.184 166.906 114.12 166.543 113.992C166.191 113.864 165.887 113.672 165.631 113.416L166.159 112.568C166.373 112.771 166.602 112.925 166.847 113.032C167.103 113.149 167.386 113.208 167.695 113.208C168.069 113.208 168.389 113.101 168.655 112.888C168.933 112.685 169.194 112.323 169.439 111.8L169.983 110.568L170.111 110.392L173.567 102.6H174.687L170.479 112.008C170.245 112.552 169.983 112.984 169.695 113.304C169.418 113.624 169.114 113.848 168.783 113.976C168.453 114.115 168.085 114.184 167.679 114.184ZM169.919 111.24L166.047 102.6H167.231L170.655 110.312L169.919 111.24Z" fill="black"/>
<path d="M98.1875 53H241.37V53.8H98.1875V53Z" fill="black"/>
<a href="http://www.accenture.com/microsite/everydaybank/Documents/media/Accenture-2014-NA-Consumer-Digita-Banking-Survey-Online.pdf">
<rect fill="black" fill-opacity="0" x="4.1875" y="0.248" width="143.183" height="19.504"/>
</a>
<g clip-path="url(#clip0_35_1158)">
<g opacity="0.2">
<path fill-rule="evenodd" clip-rule="evenodd" d="M54.3253 34.6501C54.5023 34.6498 54.6746 34.7064 54.8169 34.8116C54.9592 34.9168 55.064 35.0649 55.1156 35.2342L58.2968 45.6836L67.8091 49.1602C67.966 49.2176 68.1017 49.3214 68.1983 49.4576C68.2949 49.5939 68.3479 49.7563 68.3502 49.9233C68.3525 50.0904 68.3041 50.2542 68.2113 50.3931C68.1185 50.532 67.9857 50.6394 67.8305 50.7013L58.381 54.455L55.1156 65.411C55.0647 65.5811 54.9603 65.7302 54.818 65.8362C54.6756 65.9422 54.5028 65.9994 54.3253 65.9994C54.1478 65.9994 53.975 65.9422 53.8326 65.8362C53.6902 65.7302 53.5858 65.5811 53.5349 65.411L50.2696 54.455L40.82 50.7013C40.6648 50.6394 40.5321 50.532 40.4393 50.3931C40.3465 50.2542 40.298 50.0904 40.3004 49.9233C40.3027 49.7563 40.3557 49.5939 40.4523 49.4576C40.5489 49.3214 40.6846 49.2176 40.8415 49.1602L50.3537 45.6836L53.5366 35.2342C53.5882 35.0652 53.6927 34.9172 53.8346 34.8121C53.9766 34.7069 54.1486 34.6501 54.3253 34.6501Z" fill="#FFD53E"/>
<path d="M65.5949 65.9176C65.4134 65.9176 65.2649 65.7856 65.2484 65.6206C64.9184 62.3206 64.6709 61.2646 61.5689 60.9841C61.4825 60.9766 61.4022 60.9367 61.3441 60.8724C61.2859 60.8082 61.2542 60.7243 61.2554 60.6376C61.2554 60.4561 61.3874 60.3076 61.5689 60.2911C64.7039 59.9941 64.9184 59.1361 65.2484 55.9186C65.2649 55.7371 65.4134 55.6051 65.5949 55.6051C65.7764 55.6051 65.9249 55.7371 65.9414 55.9021C66.2714 59.1361 66.4859 59.9941 69.6209 60.2746C69.8024 60.2911 69.9344 60.4396 69.9344 60.6211C69.9344 60.8026 69.8024 60.9511 69.6209 60.9676C66.5354 61.2646 66.2714 62.3206 65.9579 65.6041C65.9414 65.7856 65.7929 65.9176 65.6114 65.9176H65.5949Z" fill="#FFD53E"/>
</g>
<path fill-rule="evenodd" clip-rule="evenodd" d="M51.8502 33.825C52.0272 33.8247 52.1995 33.8814 52.3418 33.9865C52.4841 34.0917 52.5889 34.2399 52.6405 34.4091L55.8217 44.8586L65.334 48.3351C65.4909 48.3926 65.6266 48.4963 65.7232 48.6326C65.8198 48.7689 65.8728 48.9313 65.8751 49.0983C65.8774 49.2653 65.829 49.4291 65.7362 49.568C65.6434 49.7069 65.5106 49.8144 65.3554 49.8762L55.9059 53.63L52.6405 64.586C52.5896 64.756 52.4852 64.9051 52.3429 65.0111C52.2005 65.1171 52.0277 65.1744 51.8502 65.1744C51.6727 65.1744 51.4999 65.1171 51.3575 65.0111C51.2151 64.9051 51.1107 64.756 51.0598 64.586L47.7945 53.63L38.3449 49.8762C38.1897 49.8144 38.057 49.7069 37.9642 49.568C37.8714 49.4291 37.823 49.2653 37.8253 49.0983C37.8276 48.9313 37.8806 48.7689 37.9772 48.6326C38.0738 48.4963 38.2095 48.3926 38.3664 48.3351L47.8786 44.8586L51.0615 34.4091C51.1131 34.2401 51.2176 34.0922 51.3595 33.987C51.5015 33.8819 51.6735 33.8251 51.8502 33.825ZM51.8502 37.4814L49.3372 45.7314C49.3 45.8537 49.2348 45.9656 49.1469 46.0584C49.059 46.1512 48.9508 46.2222 48.8307 46.266L40.9651 49.1436L48.7762 52.2456C48.892 52.2918 48.9957 52.3636 49.0798 52.4556C49.1638 52.5476 49.2259 52.6575 49.2613 52.7769L51.8518 61.4625L54.439 52.7769C54.4745 52.6575 54.5366 52.5476 54.6206 52.4556C54.7046 52.3636 54.8084 52.2918 54.9241 52.2456L62.7352 49.1436L54.8697 46.2693C54.7496 46.2255 54.6414 46.1545 54.5535 46.0617C54.4655 45.9689 54.4004 45.857 54.3631 45.7347L51.8502 37.4814Z" fill="#FFD53E"/>
<path d="M64.6376 64.548C64.4726 64.548 64.324 64.416 64.3075 64.251C64.0105 61.248 63.7796 60.291 61.0241 60.027C60.8591 60.0105 60.7271 59.862 60.7271 59.697C60.7271 59.532 60.8591 59.3835 61.0241 59.367C63.8456 59.103 64.0105 58.377 64.3075 55.374C64.3075 55.209 64.4726 55.077 64.6376 55.077C64.8026 55.077 64.9511 55.209 64.9676 55.374C65.2646 58.377 65.4461 59.103 68.2511 59.367C68.4161 59.3835 68.5481 59.532 68.5481 59.697C68.5481 59.862 68.4161 60.0105 68.2511 60.027C65.4791 60.291 65.2646 61.248 64.9676 64.2675C64.9676 64.4325 64.8191 64.5645 64.6376 64.5645V64.548Z" fill="#FFD53E"/>
</g>
</g>
<defs>
<filter id="filter0_d_35_1158" x="0" y="0" width="513" height="169" filterUnits="userSpaceOnUse" color-interpolation-filters="sRGB">
<feFlood flood-opacity="0" result="BackgroundImageFix"/>
<feColorMatrix in="SourceAlpha" type="matrix" values="0 0 0 0 0 0 0 0 0 0 0 0 0 0 0 0 0 0 127 0" result="hardAlpha"/>
<feOffset dx="4" dy="8"/>
<feGaussianBlur stdDeviation="6"/>
<feComposite in2="hardAlpha" operator="out"/>
<feColorMatrix type="matrix" values="0 0 0 0 0 0 0 0 0 0 0 0 0 0 0 0 0 0 0.25 0"/>
<feBlend mode="normal" in2="BackgroundImageFix" result="effect1_dropShadow_35_1158"/>
<feBlend mode="normal" in="SourceGraphic" in2="effect1_dropShadow_35_1158" result="shape"/>
</filter>
<clipPath id="clip0_35_1158">
<rect width="33" height="33" fill="white" transform="translate(37 33)"/>
</clipPath>
</defs>
</svg>
