<svg width="513" height="169" viewBox="0 0 513 169" fill="none" xmlns="http://www.w3.org/2000/svg">
<g filter="url(#filter0_d_35_1121)">
<rect x="8" y="4" width="489" height="145" rx="30" fill="#F5D7FF" fill-opacity="0.29" shape-rendering="crispEdges"/>
<path d="M98.368 51.096C97.568 51.096 96.8053 50.968 96.08 50.712C95.3547 50.4453 94.7787 50.0933 94.352 49.656L94.912 48.744C95.264 49.1173 95.744 49.4267 96.352 49.672C96.9707 49.9173 97.6373 50.04 98.352 50.04C99.3013 50.04 100.021 49.832 100.512 49.416C101.013 48.9893 101.264 48.4347 101.264 47.752C101.264 47.272 101.147 46.8613 100.912 46.52C100.688 46.168 100.304 45.896 99.76 45.704C99.216 45.512 98.4693 45.416 97.52 45.416H95.136L95.712 39.8H101.84V40.824H96.176L96.768 40.264L96.272 44.968L95.68 44.392H97.776C98.9067 44.392 99.8133 44.5307 100.496 44.808C101.179 45.0853 101.669 45.4747 101.968 45.976C102.277 46.4667 102.432 47.0427 102.432 47.704C102.432 48.3333 102.283 48.9093 101.984 49.432C101.685 49.944 101.237 50.3493 100.64 50.648C100.043 50.9467 99.2853 51.096 98.368 51.096ZM105.644 51L110.476 40.312L110.828 40.824H103.9L104.492 40.264V42.92H103.356V39.8H111.58V40.616L106.892 51H105.644ZM114.602 51L122.25 39.8H123.194L115.546 51H114.602ZM115.466 45.8C114.964 45.8 114.522 45.6773 114.138 45.432C113.754 45.176 113.455 44.8187 113.242 44.36C113.039 43.9013 112.938 43.368 112.938 42.76C112.938 42.152 113.039 41.6187 113.242 41.16C113.455 40.7013 113.754 40.3493 114.138 40.104C114.522 39.848 114.964 39.72 115.466 39.72C115.967 39.72 116.404 39.848 116.778 40.104C117.162 40.3493 117.46 40.7013 117.674 41.16C117.887 41.6187 117.994 42.152 117.994 42.76C117.994 43.368 117.887 43.9013 117.674 44.36C117.46 44.8187 117.162 45.176 116.778 45.432C116.404 45.6773 115.967 45.8 115.466 45.8ZM115.466 45.08C115.988 45.08 116.404 44.8773 116.714 44.472C117.034 44.056 117.194 43.4853 117.194 42.76C117.194 42.0347 117.034 41.4693 116.714 41.064C116.404 40.648 115.988 40.44 115.466 40.44C114.932 40.44 114.511 40.648 114.202 41.064C113.892 41.4693 113.738 42.0347 113.738 42.76C113.738 43.4853 113.892 44.056 114.202 44.472C114.511 44.8773 114.932 45.08 115.466 45.08ZM122.33 51.08C121.839 51.08 121.402 50.9573 121.018 50.712C120.634 50.456 120.335 50.0987 120.122 49.64C119.908 49.1813 119.802 48.648 119.802 48.04C119.802 47.432 119.908 46.8987 120.122 46.44C120.335 45.9813 120.634 45.6293 121.018 45.384C121.402 45.128 121.839 45 122.33 45C122.842 45 123.284 45.128 123.658 45.384C124.042 45.6293 124.335 45.9813 124.538 46.44C124.751 46.8987 124.858 47.432 124.858 48.04C124.858 48.648 124.751 49.1813 124.538 49.64C124.335 50.0987 124.042 50.456 123.658 50.712C123.284 50.9573 122.842 51.08 122.33 51.08ZM122.33 50.36C122.852 50.36 123.268 50.1573 123.578 49.752C123.898 49.336 124.058 48.7653 124.058 48.04C124.058 47.3147 123.898 46.7493 123.578 46.344C123.268 45.928 122.852 45.72 122.33 45.72C121.807 45.72 121.386 45.928 121.066 46.344C120.756 46.7493 120.602 47.3147 120.602 48.04C120.602 48.7653 120.756 49.336 121.066 49.752C121.386 50.1573 121.807 50.36 122.33 50.36ZM134.727 51.08C133.916 51.08 133.185 50.8987 132.535 50.536C131.895 50.1627 131.388 49.656 131.015 49.016C130.641 48.3653 130.455 47.624 130.455 46.792C130.455 45.9493 130.641 45.208 131.015 44.568C131.388 43.928 131.895 43.4267 132.535 43.064C133.175 42.7013 133.905 42.52 134.727 42.52C135.559 42.52 136.295 42.7013 136.935 43.064C137.585 43.4267 138.092 43.928 138.455 44.568C138.828 45.208 139.015 45.9493 139.015 46.792C139.015 47.624 138.828 48.3653 138.455 49.016C138.092 49.656 137.585 50.1627 136.935 50.536C136.284 50.8987 135.548 51.08 134.727 51.08ZM134.727 50.072C135.335 50.072 135.873 49.9387 136.343 49.672C136.812 49.3947 137.18 49.0107 137.447 48.52C137.724 48.0187 137.863 47.4427 137.863 46.792C137.863 46.1307 137.724 45.5547 137.447 45.064C137.18 44.5733 136.812 44.1947 136.343 43.928C135.873 43.6507 135.34 43.512 134.743 43.512C134.145 43.512 133.612 43.6507 133.143 43.928C132.673 44.1947 132.3 44.5733 132.023 45.064C131.745 45.5547 131.607 46.1307 131.607 46.792C131.607 47.4427 131.745 48.0187 132.023 48.52C132.3 49.0107 132.673 49.3947 133.143 49.672C133.612 49.9387 134.14 50.072 134.727 50.072ZM141.526 51V41.544C141.526 40.7973 141.745 40.1947 142.182 39.736C142.619 39.2773 143.249 39.048 144.07 39.048C144.39 39.048 144.699 39.0907 144.998 39.176C145.297 39.2613 145.547 39.3947 145.75 39.576L145.366 40.424C145.206 40.2853 145.019 40.184 144.806 40.12C144.593 40.0453 144.363 40.008 144.118 40.008C143.638 40.008 143.27 40.1413 143.014 40.408C142.758 40.6747 142.63 41.0693 142.63 41.592V42.872L142.662 43.4V51H141.526ZM140.022 43.544V42.6H145.222V43.544H140.022ZM151.007 54.184C150.613 54.184 150.234 54.12 149.871 53.992C149.519 53.864 149.215 53.672 148.959 53.416L149.487 52.568C149.701 52.7707 149.93 52.9253 150.175 53.032C150.431 53.1493 150.714 53.208 151.023 53.208C151.397 53.208 151.717 53.1013 151.983 52.888C152.261 52.6853 152.522 52.3227 152.767 51.8L153.311 50.568L153.439 50.392L156.895 42.6H158.015L153.807 52.008C153.573 52.552 153.311 52.984 153.023 53.304C152.746 53.624 152.442 53.848 152.111 53.976C151.781 54.1147 151.413 54.184 151.007 54.184ZM153.247 51.24L149.375 42.6H150.559L153.983 50.312L153.247 51.24ZM162.805 51.08C161.994 51.08 161.264 50.8987 160.613 50.536C159.973 50.1627 159.466 49.656 159.093 49.016C158.72 48.3653 158.533 47.624 158.533 46.792C158.533 45.9493 158.72 45.208 159.093 44.568C159.466 43.928 159.973 43.4267 160.613 43.064C161.253 42.7013 161.984 42.52 162.805 42.52C163.637 42.52 164.373 42.7013 165.013 43.064C165.664 43.4267 166.17 43.928 166.533 44.568C166.906 45.208 167.093 45.9493 167.093 46.792C167.093 47.624 166.906 48.3653 166.533 49.016C166.17 49.656 165.664 50.1627 165.013 50.536C164.362 50.8987 163.626 51.08 162.805 51.08ZM162.805 50.072C163.413 50.072 163.952 49.9387 164.421 49.672C164.89 49.3947 165.258 49.0107 165.525 48.52C165.802 48.0187 165.941 47.4427 165.941 46.792C165.941 46.1307 165.802 45.5547 165.525 45.064C165.258 44.5733 164.89 44.1947 164.421 43.928C163.952 43.6507 163.418 43.512 162.821 43.512C162.224 43.512 161.69 43.6507 161.221 43.928C160.752 44.1947 160.378 44.5733 160.101 45.064C159.824 45.5547 159.685 46.1307 159.685 46.792C159.685 47.4427 159.824 48.0187 160.101 48.52C160.378 49.0107 160.752 49.3947 161.221 49.672C161.69 49.9387 162.218 50.072 162.805 50.072ZM172.884 51.08C172.169 51.08 171.545 50.9467 171.012 50.68C170.479 50.4133 170.063 50.0133 169.764 49.48C169.476 48.9467 169.332 48.28 169.332 47.48V42.6H170.468V47.352C170.468 48.248 170.687 48.9253 171.124 49.384C171.572 49.832 172.196 50.056 172.996 50.056C173.583 50.056 174.089 49.9387 174.516 49.704C174.953 49.4587 175.284 49.1067 175.508 48.648C175.743 48.1893 175.86 47.64 175.86 47V42.6H176.996V51H175.908V48.696L176.084 49.112C175.817 49.7307 175.401 50.216 174.836 50.568C174.281 50.9093 173.631 51.08 172.884 51.08ZM184.45 42.52C185.133 42.52 185.73 42.6533 186.242 42.92C186.765 43.176 187.17 43.5707 187.458 44.104C187.757 44.6373 187.906 45.3093 187.906 46.12V51H186.77V46.232C186.77 45.3467 186.546 44.68 186.098 44.232C185.661 43.7733 185.042 43.544 184.242 43.544C183.645 43.544 183.122 43.6667 182.674 43.912C182.237 44.1467 181.895 44.4933 181.65 44.952C181.415 45.4 181.298 45.944 181.298 46.584V51H180.162V42.6H181.25V44.904L181.074 44.472C181.341 43.864 181.767 43.3893 182.354 43.048C182.941 42.696 183.639 42.52 184.45 42.52ZM194.559 54.184C193.791 54.184 193.055 54.072 192.351 53.848C191.647 53.624 191.076 53.304 190.639 52.888L191.215 52.024C191.609 52.376 192.095 52.6533 192.671 52.856C193.257 53.0693 193.876 53.176 194.527 53.176C195.593 53.176 196.377 52.9253 196.879 52.424C197.38 51.9333 197.631 51.1653 197.631 50.12V48.024L197.791 46.584L197.679 45.144V42.6H198.767V49.976C198.767 51.4267 198.409 52.488 197.695 53.16C196.991 53.8427 195.945 54.184 194.559 54.184ZM194.351 50.68C193.551 50.68 192.831 50.5093 192.191 50.168C191.551 49.816 191.044 49.3307 190.671 48.712C190.308 48.0933 190.127 47.384 190.127 46.584C190.127 45.784 190.308 45.08 190.671 44.472C191.044 43.8533 191.551 43.3733 192.191 43.032C192.831 42.6907 193.551 42.52 194.351 42.52C195.097 42.52 195.769 42.6747 196.367 42.984C196.964 43.2933 197.439 43.752 197.791 44.36C198.143 44.968 198.319 45.7093 198.319 46.584C198.319 47.4587 198.143 48.2 197.791 48.808C197.439 49.416 196.964 49.88 196.367 50.2C195.769 50.52 195.097 50.68 194.351 50.68ZM194.463 49.672C195.081 49.672 195.631 49.544 196.111 49.288C196.591 49.0213 196.969 48.6587 197.247 48.2C197.524 47.7307 197.663 47.192 197.663 46.584C197.663 45.976 197.524 45.4427 197.247 44.984C196.969 44.5253 196.591 44.168 196.111 43.912C195.631 43.6453 195.081 43.512 194.463 43.512C193.855 43.512 193.305 43.6453 192.815 43.912C192.335 44.168 191.956 44.5253 191.679 44.984C191.412 45.4427 191.279 45.976 191.279 46.584C191.279 47.192 191.412 47.7307 191.679 48.2C191.956 48.6587 192.335 49.0213 192.815 49.288C193.305 49.544 193.855 49.672 194.463 49.672ZM210.451 51.08C209.715 51.08 209.054 50.9147 208.467 50.584C207.881 50.2427 207.417 49.752 207.075 49.112C206.734 48.472 206.563 47.6987 206.563 46.792C206.563 45.8747 206.734 45.1013 207.075 44.472C207.427 43.832 207.897 43.3467 208.483 43.016C209.07 42.6853 209.726 42.52 210.451 42.52C211.251 42.52 211.966 42.7013 212.595 43.064C213.235 43.416 213.737 43.912 214.099 44.552C214.462 45.192 214.643 45.9387 214.643 46.792C214.643 47.6347 214.462 48.3813 214.099 49.032C213.737 49.672 213.235 50.1733 212.595 50.536C211.966 50.8987 211.251 51.08 210.451 51.08ZM206.115 51V39.128H207.251V45.08L207.091 46.776L207.203 48.472V51H206.115ZM210.371 50.072C210.969 50.072 211.502 49.9387 211.971 49.672C212.441 49.3947 212.814 49.0107 213.091 48.52C213.369 48.0187 213.507 47.4427 213.507 46.792C213.507 46.1307 213.369 45.5547 213.091 45.064C212.814 44.5733 212.441 44.1947 211.971 43.928C211.502 43.6507 210.969 43.512 210.371 43.512C209.774 43.512 209.235 43.6507 208.755 43.928C208.286 44.1947 207.913 44.5733 207.635 45.064C207.369 45.5547 207.235 46.1307 207.235 46.792C207.235 47.4427 207.369 48.0187 207.635 48.52C207.913 49.0107 208.286 49.3947 208.755 49.672C209.235 49.9387 209.774 50.072 210.371 50.072ZM222.176 51V49.144L222.128 48.84V45.736C222.128 45.0213 221.925 44.472 221.52 44.088C221.125 43.704 220.533 43.512 219.744 43.512C219.2 43.512 218.683 43.6027 218.192 43.784C217.701 43.9653 217.285 44.2053 216.944 44.504L216.432 43.656C216.859 43.2933 217.371 43.016 217.968 42.824C218.565 42.6213 219.195 42.52 219.856 42.52C220.944 42.52 221.781 42.792 222.368 43.336C222.965 43.8693 223.264 44.6853 223.264 45.784V51H222.176ZM219.28 51.08C218.651 51.08 218.101 50.9787 217.632 50.776C217.173 50.5627 216.821 50.2747 216.576 49.912C216.331 49.5387 216.208 49.112 216.208 48.632C216.208 48.1947 216.309 47.8 216.512 47.448C216.725 47.0853 217.067 46.7973 217.536 46.584C218.016 46.36 218.656 46.248 219.456 46.248H222.352V47.096H219.488C218.677 47.096 218.112 47.24 217.792 47.528C217.483 47.816 217.328 48.1733 217.328 48.6C217.328 49.08 217.515 49.464 217.888 49.752C218.261 50.04 218.784 50.184 219.456 50.184C220.096 50.184 220.645 50.04 221.104 49.752C221.573 49.4533 221.915 49.0267 222.128 48.472L222.384 49.256C222.171 49.8107 221.797 50.2533 221.264 50.584C220.741 50.9147 220.08 51.08 219.28 51.08ZM230.638 42.52C231.32 42.52 231.918 42.6533 232.43 42.92C232.952 43.176 233.358 43.5707 233.646 44.104C233.944 44.6373 234.094 45.3093 234.094 46.12V51H232.958V46.232C232.958 45.3467 232.734 44.68 232.286 44.232C231.848 43.7733 231.23 43.544 230.43 43.544C229.832 43.544 229.31 43.6667 228.862 43.912C228.424 44.1467 228.083 44.4933 227.838 44.952C227.603 45.4 227.486 45.944 227.486 46.584V51H226.35V42.6H227.438V44.904L227.262 44.472C227.528 43.864 227.955 43.3893 228.542 43.048C229.128 42.696 229.827 42.52 230.638 42.52ZM238.058 48.824L238.09 47.368L243.322 42.6H244.714L241.018 46.136L240.378 46.68L238.058 48.824ZM237.162 51V39.128H238.298V51H237.162ZM243.674 51L240.17 46.632L240.906 45.752L245.066 51H243.674ZM246.772 51V42.6H247.908V51H246.772ZM247.348 40.744C247.113 40.744 246.916 40.664 246.756 40.504C246.596 40.344 246.516 40.152 246.516 39.928C246.516 39.704 246.596 39.5173 246.756 39.368C246.916 39.208 247.113 39.128 247.348 39.128C247.582 39.128 247.78 39.2027 247.94 39.352C248.1 39.5013 248.18 39.688 248.18 39.912C248.18 40.1467 248.1 40.344 247.94 40.504C247.79 40.664 247.593 40.744 247.348 40.744ZM255.356 42.52C256.039 42.52 256.636 42.6533 257.148 42.92C257.671 43.176 258.076 43.5707 258.364 44.104C258.663 44.6373 258.812 45.3093 258.812 46.12V51H257.676V46.232C257.676 45.3467 257.452 44.68 257.004 44.232C256.567 43.7733 255.948 43.544 255.148 43.544C254.551 43.544 254.028 43.6667 253.58 43.912C253.143 44.1467 252.802 44.4933 252.556 44.952C252.322 45.4 252.204 45.944 252.204 46.584V51H251.068V42.6H252.156V44.904L251.98 44.472C252.247 43.864 252.674 43.3893 253.26 43.048C253.847 42.696 254.546 42.52 255.356 42.52ZM265.465 54.184C264.697 54.184 263.961 54.072 263.257 53.848C262.553 53.624 261.982 53.304 261.545 52.888L262.121 52.024C262.516 52.376 263.001 52.6533 263.577 52.856C264.164 53.0693 264.782 53.176 265.433 53.176C266.5 53.176 267.284 52.9253 267.785 52.424C268.286 51.9333 268.537 51.1653 268.537 50.12V48.024L268.697 46.584L268.585 45.144V42.6H269.673V49.976C269.673 51.4267 269.316 52.488 268.601 53.16C267.897 53.8427 266.852 54.184 265.465 54.184ZM265.257 50.68C264.457 50.68 263.737 50.5093 263.097 50.168C262.457 49.816 261.95 49.3307 261.577 48.712C261.214 48.0933 261.033 47.384 261.033 46.584C261.033 45.784 261.214 45.08 261.577 44.472C261.95 43.8533 262.457 43.3733 263.097 43.032C263.737 42.6907 264.457 42.52 265.257 42.52C266.004 42.52 266.676 42.6747 267.273 42.984C267.87 43.2933 268.345 43.752 268.697 44.36C269.049 44.968 269.225 45.7093 269.225 46.584C269.225 47.4587 269.049 48.2 268.697 48.808C268.345 49.416 267.87 49.88 267.273 50.2C266.676 50.52 266.004 50.68 265.257 50.68ZM265.369 49.672C265.988 49.672 266.537 49.544 267.017 49.288C267.497 49.0213 267.876 48.6587 268.153 48.2C268.43 47.7307 268.569 47.192 268.569 46.584C268.569 45.976 268.43 45.4427 268.153 44.984C267.876 44.5253 267.497 44.168 267.017 43.912C266.537 43.6453 265.988 43.512 265.369 43.512C264.761 43.512 264.212 43.6453 263.721 43.912C263.241 44.168 262.862 44.5253 262.585 44.984C262.318 45.4427 262.185 45.976 262.185 46.584C262.185 47.192 262.318 47.7307 262.585 48.2C262.862 48.6587 263.241 49.0213 263.721 49.288C264.212 49.544 264.761 49.672 265.369 49.672ZM280.51 51.08C279.678 51.08 278.931 50.8987 278.27 50.536C277.619 50.1627 277.107 49.656 276.734 49.016C276.36 48.3653 276.174 47.624 276.174 46.792C276.174 45.9493 276.36 45.208 276.734 44.568C277.107 43.928 277.619 43.4267 278.27 43.064C278.931 42.7013 279.678 42.52 280.51 42.52C281.224 42.52 281.87 42.6587 282.446 42.936C283.022 43.2133 283.475 43.6293 283.806 44.184L282.958 44.76C282.67 44.3333 282.312 44.0187 281.886 43.816C281.459 43.6133 280.995 43.512 280.494 43.512C279.896 43.512 279.358 43.6507 278.878 43.928C278.398 44.1947 278.019 44.5733 277.742 45.064C277.464 45.5547 277.326 46.1307 277.326 46.792C277.326 47.4533 277.464 48.0293 277.742 48.52C278.019 49.0107 278.398 49.3947 278.878 49.672C279.358 49.9387 279.896 50.072 280.494 50.072C280.995 50.072 281.459 49.9707 281.886 49.768C282.312 49.5653 282.67 49.256 282.958 48.84L283.806 49.416C283.475 49.96 283.022 50.376 282.446 50.664C281.87 50.9413 281.224 51.08 280.51 51.08ZM289.509 51.08C288.794 51.08 288.17 50.9467 287.637 50.68C287.104 50.4133 286.688 50.0133 286.389 49.48C286.101 48.9467 285.957 48.28 285.957 47.48V42.6H287.093V47.352C287.093 48.248 287.312 48.9253 287.749 49.384C288.197 49.832 288.821 50.056 289.621 50.056C290.208 50.056 290.714 49.9387 291.141 49.704C291.578 49.4587 291.909 49.1067 292.133 48.648C292.368 48.1893 292.485 47.64 292.485 47V42.6H293.621V51H292.533V48.696L292.709 49.112C292.442 49.7307 292.026 50.216 291.461 50.568C290.906 50.9093 290.256 51.08 289.509 51.08ZM299.043 51.08C298.35 51.08 297.694 50.984 297.075 50.792C296.456 50.5893 295.971 50.3387 295.619 50.04L296.131 49.144C296.472 49.4 296.91 49.624 297.443 49.816C297.976 49.9973 298.536 50.088 299.123 50.088C299.923 50.088 300.499 49.9653 300.851 49.72C301.203 49.464 301.379 49.128 301.379 48.712C301.379 48.4027 301.278 48.1627 301.075 47.992C300.883 47.8107 300.627 47.6773 300.307 47.592C299.987 47.496 299.63 47.416 299.235 47.352C298.84 47.288 298.446 47.2133 298.051 47.128C297.667 47.0427 297.315 46.92 296.995 46.76C296.675 46.5893 296.414 46.36 296.211 46.072C296.019 45.784 295.923 45.4 295.923 44.92C295.923 44.4613 296.051 44.0507 296.307 43.688C296.563 43.3253 296.936 43.0427 297.427 42.84C297.928 42.6267 298.536 42.52 299.251 42.52C299.795 42.52 300.339 42.5947 300.883 42.744C301.427 42.8827 301.875 43.0693 302.227 43.304L301.731 44.216C301.358 43.96 300.958 43.7787 300.531 43.672C300.104 43.5547 299.678 43.496 299.251 43.496C298.494 43.496 297.934 43.6293 297.571 43.896C297.219 44.152 297.043 44.4827 297.043 44.888C297.043 45.208 297.139 45.4587 297.331 45.64C297.534 45.8213 297.795 45.9653 298.115 46.072C298.446 46.168 298.803 46.248 299.187 46.312C299.582 46.376 299.971 46.456 300.355 46.552C300.75 46.6373 301.107 46.76 301.427 46.92C301.758 47.0693 302.019 47.288 302.211 47.576C302.414 47.8533 302.515 48.2213 302.515 48.68C302.515 49.1707 302.376 49.5973 302.099 49.96C301.832 50.312 301.438 50.5893 300.915 50.792C300.403 50.984 299.779 51.08 299.043 51.08ZM307.256 51.08C306.466 51.08 305.858 50.8667 305.432 50.44C305.005 50.0133 304.792 49.4107 304.792 48.632V40.744H305.928V48.568C305.928 49.0587 306.05 49.4373 306.296 49.704C306.552 49.9707 306.914 50.104 307.384 50.104C307.885 50.104 308.301 49.96 308.632 49.672L309.032 50.488C308.808 50.6907 308.536 50.84 308.216 50.936C307.906 51.032 307.586 51.08 307.256 51.08ZM303.288 43.544V42.6H308.488V43.544H303.288ZM314.227 51.08C313.416 51.08 312.685 50.8987 312.035 50.536C311.395 50.1627 310.888 49.656 310.515 49.016C310.141 48.3653 309.955 47.624 309.955 46.792C309.955 45.9493 310.141 45.208 310.515 44.568C310.888 43.928 311.395 43.4267 312.035 43.064C312.675 42.7013 313.405 42.52 314.227 42.52C315.059 42.52 315.795 42.7013 316.435 43.064C317.085 43.4267 317.592 43.928 317.955 44.568C318.328 45.208 318.515 45.9493 318.515 46.792C318.515 47.624 318.328 48.3653 317.955 49.016C317.592 49.656 317.085 50.1627 316.435 50.536C315.784 50.8987 315.048 51.08 314.227 51.08ZM314.227 50.072C314.835 50.072 315.373 49.9387 315.843 49.672C316.312 49.3947 316.68 49.0107 316.947 48.52C317.224 48.0187 317.363 47.4427 317.363 46.792C317.363 46.1307 317.224 45.5547 316.947 45.064C316.68 44.5733 316.312 44.1947 315.843 43.928C315.373 43.6507 314.84 43.512 314.243 43.512C313.645 43.512 313.112 43.6507 312.643 43.928C312.173 44.1947 311.8 44.5733 311.523 45.064C311.245 45.5547 311.107 46.1307 311.107 46.792C311.107 47.4427 311.245 48.0187 311.523 48.52C311.8 49.0107 312.173 49.3947 312.643 49.672C313.112 49.9387 313.64 50.072 314.227 50.072ZM331.33 42.52C332.013 42.52 332.605 42.6533 333.106 42.92C333.618 43.176 334.013 43.5707 334.29 44.104C334.578 44.6373 334.722 45.3093 334.722 46.12V51H333.586V46.232C333.586 45.3467 333.373 44.68 332.946 44.232C332.53 43.7733 331.938 43.544 331.17 43.544C330.594 43.544 330.093 43.6667 329.666 43.912C329.25 44.1467 328.925 44.4933 328.69 44.952C328.466 45.4 328.354 45.944 328.354 46.584V51H327.218V46.232C327.218 45.3467 327.005 44.68 326.578 44.232C326.151 43.7733 325.554 43.544 324.786 43.544C324.221 43.544 323.725 43.6667 323.298 43.912C322.871 44.1467 322.541 44.4933 322.306 44.952C322.082 45.4 321.97 45.944 321.97 46.584V51H320.834V42.6H321.922V44.872L321.746 44.472C322.002 43.864 322.413 43.3893 322.978 43.048C323.554 42.696 324.231 42.52 325.01 42.52C325.831 42.52 326.53 42.728 327.106 43.144C327.682 43.5493 328.055 44.1627 328.226 44.984L327.778 44.808C328.023 44.1253 328.455 43.576 329.074 43.16C329.703 42.7333 330.455 42.52 331.33 42.52ZM341.371 51.08C340.496 51.08 339.728 50.8987 339.067 50.536C338.405 50.1627 337.888 49.656 337.515 49.016C337.141 48.3653 336.955 47.624 336.955 46.792C336.955 45.96 337.131 45.224 337.483 44.584C337.845 43.944 338.336 43.4427 338.955 43.08C339.584 42.7067 340.288 42.52 341.067 42.52C341.856 42.52 342.555 42.7013 343.163 43.064C343.781 43.416 344.267 43.9173 344.619 44.568C344.971 45.208 345.147 45.9493 345.147 46.792C345.147 46.8453 345.141 46.904 345.131 46.968C345.131 47.0213 345.131 47.08 345.131 47.144H337.819V46.296H344.523L344.075 46.632C344.075 46.024 343.941 45.4853 343.675 45.016C343.419 44.536 343.067 44.1627 342.619 43.896C342.171 43.6293 341.653 43.496 341.067 43.496C340.491 43.496 339.973 43.6293 339.515 43.896C339.056 44.1627 338.699 44.536 338.443 45.016C338.187 45.496 338.059 46.0453 338.059 46.664V46.84C338.059 47.48 338.197 48.0453 338.475 48.536C338.763 49.016 339.157 49.3947 339.659 49.672C340.171 49.9387 340.752 50.072 341.403 50.072C341.915 50.072 342.389 49.9813 342.827 49.8C343.275 49.6187 343.659 49.3413 343.979 48.968L344.619 49.704C344.245 50.152 343.776 50.4933 343.211 50.728C342.656 50.9627 342.043 51.08 341.371 51.08ZM347.459 51V42.6H348.547V44.888L348.435 44.488C348.67 43.848 349.064 43.3627 349.619 43.032C350.174 42.6907 350.862 42.52 351.683 42.52V43.624C351.64 43.624 351.598 43.624 351.555 43.624C351.512 43.6133 351.47 43.608 351.427 43.608C350.542 43.608 349.848 43.88 349.347 44.424C348.846 44.9573 348.595 45.72 348.595 46.712V51H347.459ZM356.106 51.08C355.412 51.08 354.756 50.984 354.138 50.792C353.519 50.5893 353.034 50.3387 352.682 50.04L353.194 49.144C353.535 49.4 353.972 49.624 354.506 49.816C355.039 49.9973 355.599 50.088 356.186 50.088C356.986 50.088 357.562 49.9653 357.914 49.72C358.266 49.464 358.442 49.128 358.442 48.712C358.442 48.4027 358.34 48.1627 358.138 47.992C357.946 47.8107 357.69 47.6773 357.37 47.592C357.05 47.496 356.692 47.416 356.298 47.352C355.903 47.288 355.508 47.2133 355.114 47.128C354.73 47.0427 354.378 46.92 354.058 46.76C353.738 46.5893 353.476 46.36 353.274 46.072C353.082 45.784 352.986 45.4 352.986 44.92C352.986 44.4613 353.114 44.0507 353.37 43.688C353.626 43.3253 353.999 43.0427 354.49 42.84C354.991 42.6267 355.599 42.52 356.314 42.52C356.858 42.52 357.402 42.5947 357.946 42.744C358.49 42.8827 358.938 43.0693 359.29 43.304L358.794 44.216C358.42 43.96 358.02 43.7787 357.594 43.672C357.167 43.5547 356.74 43.496 356.314 43.496C355.556 43.496 354.996 43.6293 354.634 43.896C354.282 44.152 354.106 44.4827 354.106 44.888C354.106 45.208 354.202 45.4587 354.394 45.64C354.596 45.8213 354.858 45.9653 355.178 46.072C355.508 46.168 355.866 46.248 356.25 46.312C356.644 46.376 357.034 46.456 357.418 46.552C357.812 46.6373 358.17 46.76 358.49 46.92C358.82 47.0693 359.082 47.288 359.274 47.576C359.476 47.8533 359.578 48.2213 359.578 48.68C359.578 49.1707 359.439 49.5973 359.162 49.96C358.895 50.312 358.5 50.5893 357.978 50.792C357.466 50.984 356.842 51.08 356.106 51.08ZM365.85 51V42.6H366.938V44.888L366.826 44.488C367.06 43.848 367.455 43.3627 368.01 43.032C368.564 42.6907 369.252 42.52 370.074 42.52V43.624C370.031 43.624 369.988 43.624 369.946 43.624C369.903 43.6133 369.86 43.608 369.818 43.608C368.932 43.608 368.239 43.88 367.738 44.424C367.236 44.9573 366.986 45.72 366.986 46.712V51H365.85ZM375.636 51.08C374.762 51.08 373.994 50.8987 373.332 50.536C372.671 50.1627 372.154 49.656 371.78 49.016C371.407 48.3653 371.22 47.624 371.22 46.792C371.22 45.96 371.396 45.224 371.748 44.584C372.111 43.944 372.602 43.4427 373.22 43.08C373.85 42.7067 374.554 42.52 375.332 42.52C376.122 42.52 376.82 42.7013 377.428 43.064C378.047 43.416 378.532 43.9173 378.884 44.568C379.236 45.208 379.412 45.9493 379.412 46.792C379.412 46.8453 379.407 46.904 379.396 46.968C379.396 47.0213 379.396 47.08 379.396 47.144H372.084V46.296H378.788L378.34 46.632C378.34 46.024 378.207 45.4853 377.94 45.016C377.684 44.536 377.332 44.1627 376.884 43.896C376.436 43.6293 375.919 43.496 375.332 43.496C374.756 43.496 374.239 43.6293 373.78 43.896C373.322 44.1627 372.964 44.536 372.708 45.016C372.452 45.496 372.324 46.0453 372.324 46.664V46.84C372.324 47.48 372.463 48.0453 372.74 48.536C373.028 49.016 373.423 49.3947 373.924 49.672C374.436 49.9387 375.018 50.072 375.668 50.072C376.18 50.072 376.655 49.9813 377.092 49.8C377.54 49.6187 377.924 49.3413 378.244 48.968L378.884 49.704C378.511 50.152 378.042 50.4933 377.476 50.728C376.922 50.9627 376.308 51.08 375.636 51.08ZM386.061 51.08C385.335 51.08 384.679 50.9147 384.093 50.584C383.506 50.2427 383.037 49.7573 382.685 49.128C382.343 48.488 382.173 47.7093 382.173 46.792C382.173 45.8747 382.343 45.1013 382.685 44.472C383.026 43.832 383.49 43.3467 384.077 43.016C384.663 42.6853 385.325 42.52 386.061 42.52C386.861 42.52 387.575 42.7013 388.205 43.064C388.845 43.416 389.346 43.9173 389.709 44.568C390.071 45.208 390.253 45.9493 390.253 46.792C390.253 47.6453 390.071 48.392 389.709 49.032C389.346 49.672 388.845 50.1733 388.205 50.536C387.575 50.8987 386.861 51.08 386.061 51.08ZM381.725 54.104V42.6H382.813V45.128L382.701 46.808L382.861 48.504V54.104H381.725ZM385.981 50.072C386.578 50.072 387.111 49.9387 387.581 49.672C388.05 49.3947 388.423 49.0107 388.701 48.52C388.978 48.0187 389.117 47.4427 389.117 46.792C389.117 46.1413 388.978 45.5707 388.701 45.08C388.423 44.5893 388.05 44.2053 387.581 43.928C387.111 43.6507 386.578 43.512 385.981 43.512C385.383 43.512 384.845 43.6507 384.365 43.928C383.895 44.2053 383.522 44.5893 383.245 45.08C382.978 45.5707 382.845 46.1413 382.845 46.792C382.845 47.4427 382.978 48.0187 383.245 48.52C383.522 49.0107 383.895 49.3947 384.365 49.672C384.845 49.9387 385.383 50.072 385.981 50.072ZM395.992 51.08C395.182 51.08 394.451 50.8987 393.8 50.536C393.16 50.1627 392.654 49.656 392.28 49.016C391.907 48.3653 391.72 47.624 391.72 46.792C391.72 45.9493 391.907 45.208 392.28 44.568C392.654 43.928 393.16 43.4267 393.8 43.064C394.44 42.7013 395.171 42.52 395.992 42.52C396.824 42.52 397.56 42.7013 398.2 43.064C398.851 43.4267 399.358 43.928 399.72 44.568C400.094 45.208 400.28 45.9493 400.28 46.792C400.28 47.624 400.094 48.3653 399.72 49.016C399.358 49.656 398.851 50.1627 398.2 50.536C397.55 50.8987 396.814 51.08 395.992 51.08ZM395.992 50.072C396.6 50.072 397.139 49.9387 397.608 49.672C398.078 49.3947 398.446 49.0107 398.712 48.52C398.99 48.0187 399.128 47.4427 399.128 46.792C399.128 46.1307 398.99 45.5547 398.712 45.064C398.446 44.5733 398.078 44.1947 397.608 43.928C397.139 43.6507 396.606 43.512 396.008 43.512C395.411 43.512 394.878 43.6507 394.408 43.928C393.939 44.1947 393.566 44.5733 393.288 45.064C393.011 45.5547 392.872 46.1307 392.872 46.792C392.872 47.4427 393.011 48.0187 393.288 48.52C393.566 49.0107 393.939 49.3947 394.408 49.672C394.878 49.9387 395.406 50.072 395.992 50.072ZM402.6 51V42.6H403.688V44.888L403.576 44.488C403.81 43.848 404.205 43.3627 404.76 43.032C405.314 42.6907 406.002 42.52 406.824 42.52V43.624C406.781 43.624 406.738 43.624 406.696 43.624C406.653 43.6133 406.61 43.608 406.568 43.608C405.682 43.608 404.989 43.88 404.488 44.424C403.986 44.9573 403.736 45.72 403.736 46.712V51H402.6ZM411.912 51.08C411.123 51.08 410.515 50.8667 410.088 50.44C409.661 50.0133 409.448 49.4107 409.448 48.632V40.744H410.584V48.568C410.584 49.0587 410.707 49.4373 410.952 49.704C411.208 49.9707 411.571 50.104 412.04 50.104C412.541 50.104 412.957 49.96 413.288 49.672L413.688 50.488C413.464 50.6907 413.192 50.84 412.872 50.936C412.563 51.032 412.243 51.08 411.912 51.08ZM407.944 43.544V42.6H413.144V43.544H407.944ZM95.584 71V62.6H96.72V71H95.584ZM96.16 60.744C95.9253 60.744 95.728 60.664 95.568 60.504C95.408 60.344 95.328 60.152 95.328 59.928C95.328 59.704 95.408 59.5173 95.568 59.368C95.728 59.208 95.9253 59.128 96.16 59.128C96.3947 59.128 96.592 59.2027 96.752 59.352C96.912 59.5013 96.992 59.688 96.992 59.912C96.992 60.1467 96.912 60.344 96.752 60.504C96.6027 60.664 96.4053 60.744 96.16 60.744ZM102.537 71.08C101.748 71.08 101.14 70.8667 100.713 70.44C100.286 70.0133 100.073 69.4107 100.073 68.632V60.744H101.209V68.568C101.209 69.0587 101.332 69.4373 101.577 69.704C101.833 69.9707 102.196 70.104 102.665 70.104C103.166 70.104 103.582 69.96 103.913 69.672L104.313 70.488C104.089 70.6907 103.817 70.84 103.497 70.936C103.188 71.032 102.868 71.08 102.537 71.08ZM98.5689 63.544V62.6H103.769V63.544H98.5689ZM105.693 63.032L106.397 60.088L106.525 60.76C106.28 60.76 106.072 60.6853 105.901 60.536C105.741 60.376 105.661 60.168 105.661 59.912C105.661 59.656 105.741 59.448 105.901 59.288C106.072 59.128 106.274 59.048 106.509 59.048C106.754 59.048 106.952 59.1333 107.101 59.304C107.261 59.464 107.341 59.6667 107.341 59.912C107.341 59.9973 107.336 60.0827 107.325 60.168C107.314 60.2533 107.293 60.3493 107.261 60.456C107.24 60.552 107.202 60.6747 107.149 60.824L106.461 63.032H105.693ZM111.778 71.08C111.084 71.08 110.428 70.984 109.81 70.792C109.191 70.5893 108.706 70.3387 108.354 70.04L108.866 69.144C109.207 69.4 109.644 69.624 110.178 69.816C110.711 69.9973 111.271 70.088 111.858 70.088C112.658 70.088 113.234 69.9653 113.586 69.72C113.938 69.464 114.114 69.128 114.114 68.712C114.114 68.4027 114.012 68.1627 113.81 67.992C113.618 67.8107 113.362 67.6773 113.042 67.592C112.722 67.496 112.364 67.416 111.97 67.352C111.575 67.288 111.18 67.2133 110.786 67.128C110.402 67.0427 110.05 66.92 109.73 66.76C109.41 66.5893 109.148 66.36 108.946 66.072C108.754 65.784 108.658 65.4 108.658 64.92C108.658 64.4613 108.786 64.0507 109.042 63.688C109.298 63.3253 109.671 63.0427 110.162 62.84C110.663 62.6267 111.271 62.52 111.986 62.52C112.53 62.52 113.074 62.5947 113.618 62.744C114.162 62.8827 114.61 63.0693 114.962 63.304L114.466 64.216C114.092 63.96 113.692 63.7787 113.266 63.672C112.839 63.5547 112.412 63.496 111.986 63.496C111.228 63.496 110.668 63.6293 110.306 63.896C109.954 64.152 109.778 64.4827 109.778 64.888C109.778 65.208 109.874 65.4587 110.066 65.64C110.268 65.8213 110.53 65.9653 110.85 66.072C111.18 66.168 111.538 66.248 111.922 66.312C112.316 66.376 112.706 66.456 113.09 66.552C113.484 66.6373 113.842 66.76 114.162 66.92C114.492 67.0693 114.754 67.288 114.946 67.576C115.148 67.8533 115.25 68.2213 115.25 68.68C115.25 69.1707 115.111 69.5973 114.834 69.96C114.567 70.312 114.172 70.5893 113.65 70.792C113.138 70.984 112.514 71.08 111.778 71.08ZM121.522 71V62.6H122.658V71H121.522ZM122.098 60.744C121.863 60.744 121.666 60.664 121.506 60.504C121.346 60.344 121.266 60.152 121.266 59.928C121.266 59.704 121.346 59.5173 121.506 59.368C121.666 59.208 121.863 59.128 122.098 59.128C122.332 59.128 122.53 59.2027 122.69 59.352C122.85 59.5013 122.93 59.688 122.93 59.912C122.93 60.1467 122.85 60.344 122.69 60.504C122.54 60.664 122.343 60.744 122.098 60.744ZM130.106 62.52C130.789 62.52 131.386 62.6533 131.898 62.92C132.421 63.176 132.826 63.5707 133.114 64.104C133.413 64.6373 133.562 65.3093 133.562 66.12V71H132.426V66.232C132.426 65.3467 132.202 64.68 131.754 64.232C131.317 63.7733 130.698 63.544 129.898 63.544C129.301 63.544 128.778 63.6667 128.33 63.912C127.893 64.1467 127.552 64.4933 127.306 64.952C127.072 65.4 126.954 65.944 126.954 66.584V71H125.818V62.6H126.906V64.904L126.73 64.472C126.997 63.864 127.424 63.3893 128.01 63.048C128.597 62.696 129.296 62.52 130.106 62.52ZM140.119 71.08C139.287 71.08 138.54 70.8987 137.879 70.536C137.228 70.1627 136.716 69.656 136.343 69.016C135.97 68.3653 135.783 67.624 135.783 66.792C135.783 65.9493 135.97 65.208 136.343 64.568C136.716 63.928 137.228 63.4267 137.879 63.064C138.54 62.7013 139.287 62.52 140.119 62.52C140.834 62.52 141.479 62.6587 142.055 62.936C142.631 63.2133 143.084 63.6293 143.415 64.184L142.567 64.76C142.279 64.3333 141.922 64.0187 141.495 63.816C141.068 63.6133 140.604 63.512 140.103 63.512C139.506 63.512 138.967 63.6507 138.487 63.928C138.007 64.1947 137.628 64.5733 137.351 65.064C137.074 65.5547 136.935 66.1307 136.935 66.792C136.935 67.4533 137.074 68.0293 137.351 68.52C137.628 69.0107 138.007 69.3947 138.487 69.672C138.967 69.9387 139.506 70.072 140.103 70.072C140.604 70.072 141.068 69.9707 141.495 69.768C141.922 69.5653 142.279 69.256 142.567 68.84L143.415 69.416C143.084 69.96 142.631 70.376 142.055 70.664C141.479 70.9413 140.834 71.08 140.119 71.08ZM145.647 71V62.6H146.735V64.888L146.623 64.488C146.857 63.848 147.252 63.3627 147.807 63.032C148.361 62.6907 149.049 62.52 149.871 62.52V63.624C149.828 63.624 149.785 63.624 149.743 63.624C149.7 63.6133 149.657 63.608 149.615 63.608C148.729 63.608 148.036 63.88 147.535 64.424C147.033 64.9573 146.783 65.72 146.783 66.712V71H145.647ZM155.433 71.08C154.559 71.08 153.791 70.8987 153.129 70.536C152.468 70.1627 151.951 69.656 151.577 69.016C151.204 68.3653 151.017 67.624 151.017 66.792C151.017 65.96 151.193 65.224 151.545 64.584C151.908 63.944 152.399 63.4427 153.017 63.08C153.647 62.7067 154.351 62.52 155.129 62.52C155.919 62.52 156.617 62.7013 157.225 63.064C157.844 63.416 158.329 63.9173 158.681 64.568C159.033 65.208 159.209 65.9493 159.209 66.792C159.209 66.8453 159.204 66.904 159.193 66.968C159.193 67.0213 159.193 67.08 159.193 67.144H151.881V66.296H158.585L158.137 66.632C158.137 66.024 158.004 65.4853 157.737 65.016C157.481 64.536 157.129 64.1627 156.681 63.896C156.233 63.6293 155.716 63.496 155.129 63.496C154.553 63.496 154.036 63.6293 153.577 63.896C153.119 64.1627 152.761 64.536 152.505 65.016C152.249 65.496 152.121 66.0453 152.121 66.664V66.84C152.121 67.48 152.26 68.0453 152.537 68.536C152.825 69.016 153.22 69.3947 153.721 69.672C154.233 69.9387 154.815 70.072 155.465 70.072C155.977 70.072 156.452 69.9813 156.889 69.8C157.337 69.6187 157.721 69.3413 158.041 68.968L158.681 69.704C158.308 70.152 157.839 70.4933 157.273 70.728C156.719 70.9627 156.105 71.08 155.433 71.08ZM164.866 71.08C164.066 71.08 163.346 70.8987 162.706 70.536C162.076 70.1733 161.58 69.672 161.218 69.032C160.855 68.3813 160.674 67.6347 160.674 66.792C160.674 65.9387 160.855 65.192 161.218 64.552C161.58 63.912 162.076 63.416 162.706 63.064C163.346 62.7013 164.066 62.52 164.866 62.52C165.602 62.52 166.258 62.6853 166.834 63.016C167.42 63.3467 167.884 63.832 168.226 64.472C168.578 65.1013 168.753 65.8747 168.753 66.792C168.753 67.6987 168.583 68.472 168.242 69.112C167.9 69.752 167.436 70.2427 166.85 70.584C166.274 70.9147 165.612 71.08 164.866 71.08ZM164.946 70.072C165.543 70.072 166.076 69.9387 166.546 69.672C167.026 69.3947 167.399 69.0107 167.666 68.52C167.943 68.0187 168.082 67.4427 168.082 66.792C168.082 66.1307 167.943 65.5547 167.666 65.064C167.399 64.5733 167.026 64.1947 166.546 63.928C166.076 63.6507 165.543 63.512 164.946 63.512C164.359 63.512 163.831 63.6507 163.362 63.928C162.892 64.1947 162.519 64.5733 162.242 65.064C161.964 65.5547 161.826 66.1307 161.826 66.792C161.826 67.4427 161.964 68.0187 162.242 68.52C162.519 69.0107 162.892 69.3947 163.362 69.672C163.831 69.9387 164.359 70.072 164.946 70.072ZM168.114 71V68.472L168.226 66.776L168.066 65.08V59.128H169.202V71H168.114ZM172.365 71V62.6H173.501V71H172.365ZM172.941 60.744C172.707 60.744 172.509 60.664 172.349 60.504C172.189 60.344 172.109 60.152 172.109 59.928C172.109 59.704 172.189 59.5173 172.349 59.368C172.509 59.208 172.707 59.128 172.941 59.128C173.176 59.128 173.373 59.2027 173.533 59.352C173.693 59.5013 173.773 59.688 173.773 59.912C173.773 60.1467 173.693 60.344 173.533 60.504C173.384 60.664 173.187 60.744 172.941 60.744ZM180.998 71.08C180.262 71.08 179.601 70.9147 179.014 70.584C178.427 70.2427 177.963 69.752 177.622 69.112C177.281 68.472 177.11 67.6987 177.11 66.792C177.11 65.8747 177.281 65.1013 177.622 64.472C177.974 63.832 178.443 63.3467 179.03 63.016C179.617 62.6853 180.273 62.52 180.998 62.52C181.798 62.52 182.513 62.7013 183.142 63.064C183.782 63.416 184.283 63.912 184.646 64.552C185.009 65.192 185.19 65.9387 185.19 66.792C185.19 67.6347 185.009 68.3813 184.646 69.032C184.283 69.672 183.782 70.1733 183.142 70.536C182.513 70.8987 181.798 71.08 180.998 71.08ZM176.662 71V59.128H177.798V65.08L177.638 66.776L177.75 68.472V71H176.662ZM180.918 70.072C181.515 70.072 182.049 69.9387 182.518 69.672C182.987 69.3947 183.361 69.0107 183.638 68.52C183.915 68.0187 184.054 67.4427 184.054 66.792C184.054 66.1307 183.915 65.5547 183.638 65.064C183.361 64.5733 182.987 64.1947 182.518 63.928C182.049 63.6507 181.515 63.512 180.918 63.512C180.321 63.512 179.782 63.6507 179.302 63.928C178.833 64.1947 178.459 64.5733 178.182 65.064C177.915 65.5547 177.782 66.1307 177.782 66.792C177.782 67.4427 177.915 68.0187 178.182 68.52C178.459 69.0107 178.833 69.3947 179.302 69.672C179.782 69.9387 180.321 70.072 180.918 70.072ZM187.506 71V59.128H188.642V71H187.506ZM191.867 74.184C191.472 74.184 191.093 74.12 190.731 73.992C190.379 73.864 190.075 73.672 189.819 73.416L190.347 72.568C190.56 72.7707 190.789 72.9253 191.035 73.032C191.291 73.1493 191.573 73.208 191.883 73.208C192.256 73.208 192.576 73.1013 192.843 72.888C193.12 72.6853 193.381 72.3227 193.627 71.8L194.171 70.568L194.299 70.392L197.755 62.6H198.875L194.667 72.008C194.432 72.552 194.171 72.984 193.883 73.304C193.605 73.624 193.301 73.848 192.971 73.976C192.64 74.1147 192.272 74.184 191.867 74.184ZM194.107 71.24L190.235 62.6H191.419L194.843 70.312L194.107 71.24ZM204.662 71V62.6H205.798V71H204.662ZM205.238 60.744C205.003 60.744 204.806 60.664 204.646 60.504C204.486 60.344 204.406 60.152 204.406 59.928C204.406 59.704 204.486 59.5173 204.646 59.368C204.806 59.208 205.003 59.128 205.238 59.128C205.473 59.128 205.67 59.2027 205.83 59.352C205.99 59.5013 206.07 59.688 206.07 59.912C206.07 60.1467 205.99 60.344 205.83 60.504C205.681 60.664 205.483 60.744 205.238 60.744ZM219.455 62.52C220.138 62.52 220.73 62.6533 221.231 62.92C221.743 63.176 222.138 63.5707 222.415 64.104C222.703 64.6373 222.847 65.3093 222.847 66.12V71H221.711V66.232C221.711 65.3467 221.498 64.68 221.071 64.232C220.655 63.7733 220.063 63.544 219.295 63.544C218.719 63.544 218.218 63.6667 217.791 63.912C217.375 64.1467 217.05 64.4933 216.815 64.952C216.591 65.4 216.479 65.944 216.479 66.584V71H215.343V66.232C215.343 65.3467 215.13 64.68 214.703 64.232C214.276 63.7733 213.679 63.544 212.911 63.544C212.346 63.544 211.85 63.6667 211.423 63.912C210.996 64.1467 210.666 64.4933 210.431 64.952C210.207 65.4 210.095 65.944 210.095 66.584V71H208.959V62.6H210.047V64.872L209.871 64.472C210.127 63.864 210.538 63.3893 211.103 63.048C211.679 62.696 212.356 62.52 213.135 62.52C213.956 62.52 214.655 62.728 215.231 63.144C215.807 63.5493 216.18 64.1627 216.351 64.984L215.903 64.808C216.148 64.1253 216.58 63.576 217.199 63.16C217.828 62.7333 218.58 62.52 219.455 62.52ZM230.264 71.08C229.538 71.08 228.882 70.9147 228.296 70.584C227.709 70.2427 227.24 69.7573 226.888 69.128C226.546 68.488 226.376 67.7093 226.376 66.792C226.376 65.8747 226.546 65.1013 226.888 64.472C227.229 63.832 227.693 63.3467 228.28 63.016C228.866 62.6853 229.528 62.52 230.264 62.52C231.064 62.52 231.778 62.7013 232.408 63.064C233.048 63.416 233.549 63.9173 233.912 64.568C234.274 65.208 234.456 65.9493 234.456 66.792C234.456 67.6453 234.274 68.392 233.912 69.032C233.549 69.672 233.048 70.1733 232.408 70.536C231.778 70.8987 231.064 71.08 230.264 71.08ZM225.928 74.104V62.6H227.016V65.128L226.904 66.808L227.064 68.504V74.104H225.928ZM230.184 70.072C230.781 70.072 231.314 69.9387 231.784 69.672C232.253 69.3947 232.626 69.0107 232.904 68.52C233.181 68.0187 233.32 67.4427 233.32 66.792C233.32 66.1413 233.181 65.5707 232.904 65.08C232.626 64.5893 232.253 64.2053 231.784 63.928C231.314 63.6507 230.781 63.512 230.184 63.512C229.586 63.512 229.048 63.6507 228.568 63.928C228.098 64.2053 227.725 64.5893 227.448 65.08C227.181 65.5707 227.048 66.1413 227.048 66.792C227.048 67.4427 227.181 68.0187 227.448 68.52C227.725 69.0107 228.098 69.3947 228.568 69.672C229.048 69.9387 229.586 70.072 230.184 70.072ZM240.196 71.08C239.385 71.08 238.654 70.8987 238.004 70.536C237.364 70.1627 236.857 69.656 236.484 69.016C236.11 68.3653 235.924 67.624 235.924 66.792C235.924 65.9493 236.11 65.208 236.484 64.568C236.857 63.928 237.364 63.4267 238.004 63.064C238.644 62.7013 239.374 62.52 240.196 62.52C241.028 62.52 241.764 62.7013 242.404 63.064C243.054 63.4267 243.561 63.928 243.924 64.568C244.297 65.208 244.484 65.9493 244.484 66.792C244.484 67.624 244.297 68.3653 243.924 69.016C243.561 69.656 243.054 70.1627 242.404 70.536C241.753 70.8987 241.017 71.08 240.196 71.08ZM240.196 70.072C240.804 70.072 241.342 69.9387 241.812 69.672C242.281 69.3947 242.649 69.0107 242.916 68.52C243.193 68.0187 243.332 67.4427 243.332 66.792C243.332 66.1307 243.193 65.5547 242.916 65.064C242.649 64.5733 242.281 64.1947 241.812 63.928C241.342 63.6507 240.809 63.512 240.212 63.512C239.614 63.512 239.081 63.6507 238.612 63.928C238.142 64.1947 237.769 64.5733 237.492 65.064C237.214 65.5547 237.076 66.1307 237.076 66.792C237.076 67.4427 237.214 68.0187 237.492 68.52C237.769 69.0107 238.142 69.3947 238.612 69.672C239.081 69.9387 239.609 70.072 240.196 70.072ZM246.803 71V62.6H247.891V64.888L247.779 64.488C248.013 63.848 248.408 63.3627 248.963 63.032C249.517 62.6907 250.205 62.52 251.027 62.52V63.624C250.984 63.624 250.941 63.624 250.899 63.624C250.856 63.6133 250.813 63.608 250.771 63.608C249.885 63.608 249.192 63.88 248.691 64.424C248.189 64.9573 247.939 65.72 247.939 66.712V71H246.803ZM256.115 71.08C255.326 71.08 254.718 70.8667 254.291 70.44C253.864 70.0133 253.651 69.4107 253.651 68.632V60.744H254.787V68.568C254.787 69.0587 254.91 69.4373 255.155 69.704C255.411 69.9707 255.774 70.104 256.243 70.104C256.744 70.104 257.16 69.96 257.491 69.672L257.891 70.488C257.667 70.6907 257.395 70.84 257.075 70.936C256.766 71.032 256.446 71.08 256.115 71.08ZM252.147 63.544V62.6H257.347V63.544H252.147ZM265.223 71V69.144L265.175 68.84V65.736C265.175 65.0213 264.972 64.472 264.567 64.088C264.172 63.704 263.58 63.512 262.791 63.512C262.247 63.512 261.73 63.6027 261.239 63.784C260.748 63.9653 260.332 64.2053 259.991 64.504L259.479 63.656C259.906 63.2933 260.418 63.016 261.015 62.824C261.612 62.6213 262.242 62.52 262.903 62.52C263.991 62.52 264.828 62.792 265.415 63.336C266.012 63.8693 266.311 64.6853 266.311 65.784V71H265.223ZM262.327 71.08C261.698 71.08 261.148 70.9787 260.679 70.776C260.22 70.5627 259.868 70.2747 259.623 69.912C259.378 69.5387 259.255 69.112 259.255 68.632C259.255 68.1947 259.356 67.8 259.559 67.448C259.772 67.0853 260.114 66.7973 260.583 66.584C261.063 66.36 261.703 66.248 262.503 66.248H265.399V67.096H262.535C261.724 67.096 261.159 67.24 260.839 67.528C260.53 67.816 260.375 68.1733 260.375 68.6C260.375 69.08 260.562 69.464 260.935 69.752C261.308 70.04 261.831 70.184 262.503 70.184C263.143 70.184 263.692 70.04 264.151 69.752C264.62 69.4533 264.962 69.0267 265.175 68.472L265.431 69.256C265.218 69.8107 264.844 70.2533 264.311 70.584C263.788 70.9147 263.127 71.08 262.327 71.08ZM273.685 62.52C274.367 62.52 274.965 62.6533 275.477 62.92C275.999 63.176 276.405 63.5707 276.693 64.104C276.991 64.6373 277.141 65.3093 277.141 66.12V71H276.005V66.232C276.005 65.3467 275.781 64.68 275.333 64.232C274.895 63.7733 274.277 63.544 273.477 63.544C272.879 63.544 272.357 63.6667 271.909 63.912C271.471 64.1467 271.13 64.4933 270.885 64.952C270.65 65.4 270.533 65.944 270.533 66.584V71H269.397V62.6H270.485V64.904L270.309 64.472C270.575 63.864 271.002 63.3893 271.589 63.048C272.175 62.696 272.874 62.52 273.685 62.52ZM282.865 71.08C282.076 71.08 281.468 70.8667 281.041 70.44C280.614 70.0133 280.401 69.4107 280.401 68.632V60.744H281.537V68.568C281.537 69.0587 281.66 69.4373 281.905 69.704C282.161 69.9707 282.524 70.104 282.993 70.104C283.494 70.104 283.91 69.96 284.241 69.672L284.641 70.488C284.417 70.6907 284.145 70.84 283.825 70.936C283.516 71.032 283.196 71.08 282.865 71.08ZM278.897 63.544V62.6H284.097V63.544H278.897ZM293.553 71.08C292.763 71.08 292.155 70.8667 291.729 70.44C291.302 70.0133 291.089 69.4107 291.089 68.632V60.744H292.225V68.568C292.225 69.0587 292.347 69.4373 292.593 69.704C292.849 69.9707 293.211 70.104 293.681 70.104C294.182 70.104 294.598 69.96 294.929 69.672L295.329 70.488C295.105 70.6907 294.833 70.84 294.513 70.936C294.203 71.032 293.883 71.08 293.553 71.08ZM289.585 63.544V62.6H294.785V63.544H289.585ZM300.524 71.08C299.713 71.08 298.982 70.8987 298.332 70.536C297.692 70.1627 297.185 69.656 296.812 69.016C296.438 68.3653 296.252 67.624 296.252 66.792C296.252 65.9493 296.438 65.208 296.812 64.568C297.185 63.928 297.692 63.4267 298.332 63.064C298.972 62.7013 299.702 62.52 300.524 62.52C301.356 62.52 302.092 62.7013 302.732 63.064C303.382 63.4267 303.889 63.928 304.252 64.568C304.625 65.208 304.812 65.9493 304.812 66.792C304.812 67.624 304.625 68.3653 304.252 69.016C303.889 69.656 303.382 70.1627 302.732 70.536C302.081 70.8987 301.345 71.08 300.524 71.08ZM300.524 70.072C301.132 70.072 301.67 69.9387 302.14 69.672C302.609 69.3947 302.977 69.0107 303.244 68.52C303.521 68.0187 303.66 67.4427 303.66 66.792C303.66 66.1307 303.521 65.5547 303.244 65.064C302.977 64.5733 302.609 64.1947 302.14 63.928C301.67 63.6507 301.137 63.512 300.54 63.512C299.942 63.512 299.409 63.6507 298.94 63.928C298.47 64.1947 298.097 64.5733 297.82 65.064C297.542 65.5547 297.404 66.1307 297.404 66.792C297.404 67.4427 297.542 68.0187 297.82 68.52C298.097 69.0107 298.47 69.3947 298.94 69.672C299.409 69.9387 299.937 70.072 300.524 70.072ZM313.974 71.08C313.185 71.08 312.577 70.8667 312.15 70.44C311.724 70.0133 311.51 69.4107 311.51 68.632V60.744H312.646V68.568C312.646 69.0587 312.769 69.4373 313.014 69.704C313.27 69.9707 313.633 70.104 314.102 70.104C314.604 70.104 315.02 69.96 315.35 69.672L315.75 70.488C315.526 70.6907 315.254 70.84 314.934 70.936C314.625 71.032 314.305 71.08 313.974 71.08ZM310.006 63.544V62.6H315.206V63.544H310.006ZM322.106 62.52C322.789 62.52 323.386 62.6533 323.898 62.92C324.421 63.176 324.826 63.5707 325.114 64.104C325.413 64.6373 325.562 65.3093 325.562 66.12V71H324.426V66.232C324.426 65.3467 324.202 64.68 323.754 64.232C323.317 63.7733 322.698 63.544 321.898 63.544C321.301 63.544 320.778 63.6667 320.33 63.912C319.893 64.1467 319.552 64.4933 319.306 64.952C319.072 65.4 318.954 65.944 318.954 66.584V71H317.818V59.128H318.954V64.904L318.73 64.472C318.997 63.864 319.424 63.3893 320.01 63.048C320.597 62.696 321.296 62.52 322.106 62.52ZM332.199 71.08C331.324 71.08 330.556 70.8987 329.895 70.536C329.234 70.1627 328.716 69.656 328.343 69.016C327.97 68.3653 327.783 67.624 327.783 66.792C327.783 65.96 327.959 65.224 328.311 64.584C328.674 63.944 329.164 63.4427 329.783 63.08C330.412 62.7067 331.116 62.52 331.895 62.52C332.684 62.52 333.383 62.7013 333.991 63.064C334.61 63.416 335.095 63.9173 335.447 64.568C335.799 65.208 335.975 65.9493 335.975 66.792C335.975 66.8453 335.97 66.904 335.959 66.968C335.959 67.0213 335.959 67.08 335.959 67.144H328.647V66.296H335.351L334.903 66.632C334.903 66.024 334.77 65.4853 334.503 65.016C334.247 64.536 333.895 64.1627 333.447 63.896C332.999 63.6293 332.482 63.496 331.895 63.496C331.319 63.496 330.802 63.6293 330.343 63.896C329.884 64.1627 329.527 64.536 329.271 65.016C329.015 65.496 328.887 66.0453 328.887 66.664V66.84C328.887 67.48 329.026 68.0453 329.303 68.536C329.591 69.016 329.986 69.3947 330.487 69.672C330.999 69.9387 331.58 70.072 332.231 70.072C332.743 70.072 333.218 69.9813 333.655 69.8C334.103 69.6187 334.487 69.3413 334.807 68.968L335.447 69.704C335.074 70.152 334.604 70.4933 334.039 70.728C333.484 70.9627 332.871 71.08 332.199 71.08ZM348.783 62.52C349.466 62.52 350.058 62.6533 350.559 62.92C351.071 63.176 351.466 63.5707 351.743 64.104C352.031 64.6373 352.175 65.3093 352.175 66.12V71H351.039V66.232C351.039 65.3467 350.826 64.68 350.399 64.232C349.983 63.7733 349.391 63.544 348.623 63.544C348.047 63.544 347.546 63.6667 347.119 63.912C346.703 64.1467 346.378 64.4933 346.143 64.952C345.919 65.4 345.807 65.944 345.807 66.584V71H344.671V66.232C344.671 65.3467 344.458 64.68 344.031 64.232C343.604 63.7733 343.007 63.544 342.239 63.544C341.674 63.544 341.178 63.6667 340.751 63.912C340.324 64.1467 339.994 64.4933 339.759 64.952C339.535 65.4 339.423 65.944 339.423 66.584V71H338.287V62.6H339.375V64.872L339.199 64.472C339.455 63.864 339.866 63.3893 340.431 63.048C341.007 62.696 341.684 62.52 342.463 62.52C343.284 62.52 343.983 62.728 344.559 63.144C345.135 63.5493 345.508 64.1627 345.679 64.984L345.231 64.808C345.476 64.1253 345.908 63.576 346.527 63.16C347.156 62.7333 347.908 62.52 348.783 62.52ZM362.099 71.08C361.31 71.08 360.702 70.8667 360.275 70.44C359.849 70.0133 359.635 69.4107 359.635 68.632V60.744H360.771V68.568C360.771 69.0587 360.894 69.4373 361.139 69.704C361.395 69.9707 361.758 70.104 362.227 70.104C362.729 70.104 363.145 69.96 363.475 69.672L363.875 70.488C363.651 70.6907 363.379 70.84 363.059 70.936C362.75 71.032 362.43 71.08 362.099 71.08ZM358.131 63.544V62.6H363.331V63.544H358.131ZM370.231 62.52C370.914 62.52 371.511 62.6533 372.023 62.92C372.546 63.176 372.951 63.5707 373.239 64.104C373.538 64.6373 373.687 65.3093 373.687 66.12V71H372.551V66.232C372.551 65.3467 372.327 64.68 371.879 64.232C371.442 63.7733 370.823 63.544 370.023 63.544C369.426 63.544 368.903 63.6667 368.455 63.912C368.018 64.1467 367.677 64.4933 367.431 64.952C367.197 65.4 367.079 65.944 367.079 66.584V71H365.943V59.128H367.079V64.904L366.855 64.472C367.122 63.864 367.549 63.3893 368.135 63.048C368.722 62.696 369.421 62.52 370.231 62.52ZM382.02 71V69.144L381.972 68.84V65.736C381.972 65.0213 381.769 64.472 381.364 64.088C380.969 63.704 380.377 63.512 379.588 63.512C379.044 63.512 378.527 63.6027 378.036 63.784C377.545 63.9653 377.129 64.2053 376.788 64.504L376.276 63.656C376.703 63.2933 377.215 63.016 377.812 62.824C378.409 62.6213 379.039 62.52 379.7 62.52C380.788 62.52 381.625 62.792 382.212 63.336C382.809 63.8693 383.108 64.6853 383.108 65.784V71H382.02ZM379.124 71.08C378.495 71.08 377.945 70.9787 377.476 70.776C377.017 70.5627 376.665 70.2747 376.42 69.912C376.175 69.5387 376.052 69.112 376.052 68.632C376.052 68.1947 376.153 67.8 376.356 67.448C376.569 67.0853 376.911 66.7973 377.38 66.584C377.86 66.36 378.5 66.248 379.3 66.248H382.196V67.096H379.332C378.521 67.096 377.956 67.24 377.636 67.528C377.327 67.816 377.172 68.1733 377.172 68.6C377.172 69.08 377.359 69.464 377.732 69.752C378.105 70.04 378.628 70.184 379.3 70.184C379.94 70.184 380.489 70.04 380.948 69.752C381.417 69.4533 381.759 69.0267 381.972 68.472L382.228 69.256C382.015 69.8107 381.641 70.2533 381.108 70.584C380.585 70.9147 379.924 71.08 379.124 71.08ZM388.849 71.08C388.06 71.08 387.452 70.8667 387.025 70.44C386.599 70.0133 386.385 69.4107 386.385 68.632V60.744H387.521V68.568C387.521 69.0587 387.644 69.4373 387.889 69.704C388.145 69.9707 388.508 70.104 388.977 70.104C389.479 70.104 389.895 69.96 390.225 69.672L390.625 70.488C390.401 70.6907 390.129 70.84 389.809 70.936C389.5 71.032 389.18 71.08 388.849 71.08ZM384.881 63.544V62.6H390.081V63.544H384.881ZM399.537 71.08C398.748 71.08 398.14 70.8667 397.713 70.44C397.286 70.0133 397.073 69.4107 397.073 68.632V60.744H398.209V68.568C398.209 69.0587 398.332 69.4373 398.577 69.704C398.833 69.9707 399.196 70.104 399.665 70.104C400.166 70.104 400.582 69.96 400.913 69.672L401.313 70.488C401.089 70.6907 400.817 70.84 400.497 70.936C400.188 71.032 399.868 71.08 399.537 71.08ZM395.569 63.544V62.6H400.769V63.544H395.569ZM407.669 62.52C408.352 62.52 408.949 62.6533 409.461 62.92C409.984 63.176 410.389 63.5707 410.677 64.104C410.976 64.6373 411.125 65.3093 411.125 66.12V71H409.989V66.232C409.989 65.3467 409.765 64.68 409.317 64.232C408.88 63.7733 408.261 63.544 407.461 63.544C406.864 63.544 406.341 63.6667 405.893 63.912C405.456 64.1467 405.114 64.4933 404.869 64.952C404.634 65.4 404.517 65.944 404.517 66.584V71H403.381V59.128H404.517V64.904L404.293 64.472C404.56 63.864 404.986 63.3893 405.573 63.048C406.16 62.696 406.858 62.52 407.669 62.52ZM417.761 71.08C416.887 71.08 416.119 70.8987 415.457 70.536C414.796 70.1627 414.279 69.656 413.905 69.016C413.532 68.3653 413.345 67.624 413.345 66.792C413.345 65.96 413.521 65.224 413.873 64.584C414.236 63.944 414.727 63.4427 415.345 63.08C415.975 62.7067 416.679 62.52 417.457 62.52C418.247 62.52 418.945 62.7013 419.553 63.064C420.172 63.416 420.657 63.9173 421.009 64.568C421.361 65.208 421.537 65.9493 421.537 66.792C421.537 66.8453 421.532 66.904 421.521 66.968C421.521 67.0213 421.521 67.08 421.521 67.144H414.209V66.296H420.913L420.465 66.632C420.465 66.024 420.332 65.4853 420.065 65.016C419.809 64.536 419.457 64.1627 419.009 63.896C418.561 63.6293 418.044 63.496 417.457 63.496C416.881 63.496 416.364 63.6293 415.905 63.896C415.447 64.1627 415.089 64.536 414.833 65.016C414.577 65.496 414.449 66.0453 414.449 66.664V66.84C414.449 67.48 414.588 68.0453 414.865 68.536C415.153 69.016 415.548 69.3947 416.049 69.672C416.561 69.9387 417.143 70.072 417.793 70.072C418.305 70.072 418.78 69.9813 419.217 69.8C419.665 69.6187 420.049 69.3413 420.369 68.968L421.009 69.704C420.636 70.152 420.167 70.4933 419.601 70.728C419.047 70.9627 418.433 71.08 417.761 71.08ZM423.85 71V62.6H424.986V71H423.85ZM424.426 60.744C424.191 60.744 423.994 60.664 423.834 60.504C423.674 60.344 423.594 60.152 423.594 59.928C423.594 59.704 423.674 59.5173 423.834 59.368C423.994 59.208 424.191 59.128 424.426 59.128C424.66 59.128 424.858 59.2027 425.018 59.352C425.178 59.5013 425.258 59.688 425.258 59.912C425.258 60.1467 425.178 60.344 425.018 60.504C424.868 60.664 424.671 60.744 424.426 60.744ZM428.147 71V62.6H429.235V64.888L429.123 64.488C429.357 63.848 429.752 63.3627 430.307 63.032C430.861 62.6907 431.549 62.52 432.371 62.52V63.624C432.328 63.624 432.285 63.624 432.243 63.624C432.2 63.6133 432.157 63.608 432.115 63.608C431.229 63.608 430.536 63.88 430.035 64.424C429.533 64.9573 429.283 65.72 429.283 66.712V71H428.147ZM99.92 91.08C99.184 91.08 98.5227 90.9147 97.936 90.584C97.3493 90.2427 96.8853 89.752 96.544 89.112C96.2027 88.472 96.032 87.6987 96.032 86.792C96.032 85.8747 96.2027 85.1013 96.544 84.472C96.896 83.832 97.3653 83.3467 97.952 83.016C98.5387 82.6853 99.1947 82.52 99.92 82.52C100.72 82.52 101.435 82.7013 102.064 83.064C102.704 83.416 103.205 83.912 103.568 84.552C103.931 85.192 104.112 85.9387 104.112 86.792C104.112 87.6347 103.931 88.3813 103.568 89.032C103.205 89.672 102.704 90.1733 102.064 90.536C101.435 90.8987 100.72 91.08 99.92 91.08ZM95.584 91V79.128H96.72V85.08L96.56 86.776L96.672 88.472V91H95.584ZM99.84 90.072C100.437 90.072 100.971 89.9387 101.44 89.672C101.909 89.3947 102.283 89.0107 102.56 88.52C102.837 88.0187 102.976 87.4427 102.976 86.792C102.976 86.1307 102.837 85.5547 102.56 85.064C102.283 84.5733 101.909 84.1947 101.44 83.928C100.971 83.6507 100.437 83.512 99.84 83.512C99.2427 83.512 98.704 83.6507 98.224 83.928C97.7547 84.1947 97.3813 84.5733 97.104 85.064C96.8373 85.5547 96.704 86.1307 96.704 86.792C96.704 87.4427 96.8373 88.0187 97.104 88.52C97.3813 89.0107 97.7547 89.3947 98.224 89.672C98.704 89.9387 99.2427 90.072 99.84 90.072ZM111.645 91V89.144L111.597 88.84V85.736C111.597 85.0213 111.394 84.472 110.989 84.088C110.594 83.704 110.002 83.512 109.213 83.512C108.669 83.512 108.152 83.6027 107.661 83.784C107.17 83.9653 106.754 84.2053 106.413 84.504L105.901 83.656C106.328 83.2933 106.84 83.016 107.437 82.824C108.034 82.6213 108.664 82.52 109.325 82.52C110.413 82.52 111.25 82.792 111.837 83.336C112.434 83.8693 112.733 84.6853 112.733 85.784V91H111.645ZM108.749 91.08C108.12 91.08 107.57 90.9787 107.101 90.776C106.642 90.5627 106.29 90.2747 106.045 89.912C105.8 89.5387 105.677 89.112 105.677 88.632C105.677 88.1947 105.778 87.8 105.981 87.448C106.194 87.0853 106.536 86.7973 107.005 86.584C107.485 86.36 108.125 86.248 108.925 86.248H111.821V87.096H108.957C108.146 87.096 107.581 87.24 107.261 87.528C106.952 87.816 106.797 88.1733 106.797 88.6C106.797 89.08 106.984 89.464 107.357 89.752C107.73 90.04 108.253 90.184 108.925 90.184C109.565 90.184 110.114 90.04 110.573 89.752C111.042 89.4533 111.384 89.0267 111.597 88.472L111.853 89.256C111.64 89.8107 111.266 90.2533 110.733 90.584C110.21 90.9147 109.549 91.08 108.749 91.08ZM120.106 82.52C120.789 82.52 121.386 82.6533 121.898 82.92C122.421 83.176 122.826 83.5707 123.114 84.104C123.413 84.6373 123.562 85.3093 123.562 86.12V91H122.426V86.232C122.426 85.3467 122.202 84.68 121.754 84.232C121.317 83.7733 120.698 83.544 119.898 83.544C119.301 83.544 118.778 83.6667 118.33 83.912C117.893 84.1467 117.552 84.4933 117.306 84.952C117.072 85.4 116.954 85.944 116.954 86.584V91H115.818V82.6H116.906V84.904L116.73 84.472C116.997 83.864 117.424 83.3893 118.01 83.048C118.597 82.696 119.296 82.52 120.106 82.52ZM127.527 88.824L127.559 87.368L132.791 82.6H134.183L130.487 86.136L129.847 86.68L127.527 88.824ZM126.631 91V79.128H127.767V91H126.631ZM133.143 91L129.639 86.632L130.375 85.752L134.535 91H133.143ZM143.852 91.08C143.041 91.08 142.31 90.8987 141.66 90.536C141.02 90.1627 140.513 89.656 140.14 89.016C139.766 88.3653 139.58 87.624 139.58 86.792C139.58 85.9493 139.766 85.208 140.14 84.568C140.513 83.928 141.02 83.4267 141.66 83.064C142.3 82.7013 143.03 82.52 143.852 82.52C144.684 82.52 145.42 82.7013 146.06 83.064C146.71 83.4267 147.217 83.928 147.58 84.568C147.953 85.208 148.14 85.9493 148.14 86.792C148.14 87.624 147.953 88.3653 147.58 89.016C147.217 89.656 146.71 90.1627 146.06 90.536C145.409 90.8987 144.673 91.08 143.852 91.08ZM143.852 90.072C144.46 90.072 144.998 89.9387 145.468 89.672C145.937 89.3947 146.305 89.0107 146.572 88.52C146.849 88.0187 146.988 87.4427 146.988 86.792C146.988 86.1307 146.849 85.5547 146.572 85.064C146.305 84.5733 145.937 84.1947 145.468 83.928C144.998 83.6507 144.465 83.512 143.868 83.512C143.27 83.512 142.737 83.6507 142.268 83.928C141.798 84.1947 141.425 84.5733 141.148 85.064C140.87 85.5547 140.732 86.1307 140.732 86.792C140.732 87.4427 140.87 88.0187 141.148 88.52C141.425 89.0107 141.798 89.3947 142.268 89.672C142.737 89.9387 143.265 90.072 143.852 90.072ZM150.459 91V82.6H151.547V84.888L151.435 84.488C151.67 83.848 152.064 83.3627 152.619 83.032C153.174 82.6907 153.862 82.52 154.683 82.52V83.624C154.64 83.624 154.598 83.624 154.555 83.624C154.512 83.6133 154.47 83.608 154.427 83.608C153.542 83.608 152.848 83.88 152.347 84.424C151.846 84.9573 151.595 85.72 151.595 86.712V91H150.459ZM164.556 91.08C163.724 91.08 162.978 90.8987 162.316 90.536C161.666 90.1627 161.154 89.656 160.78 89.016C160.407 88.3653 160.22 87.624 160.22 86.792C160.22 85.9493 160.407 85.208 160.78 84.568C161.154 83.928 161.666 83.4267 162.316 83.064C162.978 82.7013 163.724 82.52 164.556 82.52C165.271 82.52 165.916 82.6587 166.492 82.936C167.068 83.2133 167.522 83.6293 167.852 84.184L167.004 84.76C166.716 84.3333 166.359 84.0187 165.932 83.816C165.506 83.6133 165.042 83.512 164.54 83.512C163.943 83.512 163.404 83.6507 162.924 83.928C162.444 84.1947 162.066 84.5733 161.788 85.064C161.511 85.5547 161.372 86.1307 161.372 86.792C161.372 87.4533 161.511 88.0293 161.788 88.52C162.066 89.0107 162.444 89.3947 162.924 89.672C163.404 89.9387 163.943 90.072 164.54 90.072C165.042 90.072 165.506 89.9707 165.932 89.768C166.359 89.5653 166.716 89.256 167.004 88.84L167.852 89.416C167.522 89.96 167.068 90.376 166.492 90.664C165.916 90.9413 165.271 91.08 164.556 91.08ZM170.084 91V82.6H171.172V84.888L171.06 84.488C171.295 83.848 171.689 83.3627 172.244 83.032C172.799 82.6907 173.487 82.52 174.308 82.52V83.624C174.265 83.624 174.223 83.624 174.18 83.624C174.137 83.6133 174.095 83.608 174.052 83.608C173.167 83.608 172.473 83.88 171.972 84.424C171.471 84.9573 171.22 85.72 171.22 86.712V91H170.084ZM179.871 91.08C178.996 91.08 178.228 90.8987 177.567 90.536C176.905 90.1627 176.388 89.656 176.015 89.016C175.641 88.3653 175.455 87.624 175.455 86.792C175.455 85.96 175.631 85.224 175.983 84.584C176.345 83.944 176.836 83.4427 177.455 83.08C178.084 82.7067 178.788 82.52 179.567 82.52C180.356 82.52 181.055 82.7013 181.663 83.064C182.281 83.416 182.767 83.9173 183.119 84.568C183.471 85.208 183.647 85.9493 183.647 86.792C183.647 86.8453 183.641 86.904 183.631 86.968C183.631 87.0213 183.631 87.08 183.631 87.144H176.319V86.296H183.023L182.575 86.632C182.575 86.024 182.441 85.4853 182.175 85.016C181.919 84.536 181.567 84.1627 181.119 83.896C180.671 83.6293 180.153 83.496 179.567 83.496C178.991 83.496 178.473 83.6293 178.015 83.896C177.556 84.1627 177.199 84.536 176.943 85.016C176.687 85.496 176.559 86.0453 176.559 86.664V86.84C176.559 87.48 176.697 88.0453 176.975 88.536C177.263 89.016 177.657 89.3947 178.159 89.672C178.671 89.9387 179.252 90.072 179.903 90.072C180.415 90.072 180.889 89.9813 181.327 89.8C181.775 89.6187 182.159 89.3413 182.479 88.968L183.119 89.704C182.745 90.152 182.276 90.4933 181.711 90.728C181.156 90.9627 180.543 91.08 179.871 91.08ZM189.303 91.08C188.503 91.08 187.783 90.8987 187.143 90.536C186.514 90.1733 186.018 89.672 185.655 89.032C185.292 88.3813 185.111 87.6347 185.111 86.792C185.111 85.9387 185.292 85.192 185.655 84.552C186.018 83.912 186.514 83.416 187.143 83.064C187.783 82.7013 188.503 82.52 189.303 82.52C190.039 82.52 190.695 82.6853 191.271 83.016C191.858 83.3467 192.322 83.832 192.663 84.472C193.015 85.1013 193.191 85.8747 193.191 86.792C193.191 87.6987 193.02 88.472 192.679 89.112C192.338 89.752 191.874 90.2427 191.287 90.584C190.711 90.9147 190.05 91.08 189.303 91.08ZM189.383 90.072C189.98 90.072 190.514 89.9387 190.983 89.672C191.463 89.3947 191.836 89.0107 192.103 88.52C192.38 88.0187 192.519 87.4427 192.519 86.792C192.519 86.1307 192.38 85.5547 192.103 85.064C191.836 84.5733 191.463 84.1947 190.983 83.928C190.514 83.6507 189.98 83.512 189.383 83.512C188.796 83.512 188.268 83.6507 187.799 83.928C187.33 84.1947 186.956 84.5733 186.679 85.064C186.402 85.5547 186.263 86.1307 186.263 86.792C186.263 87.4427 186.402 88.0187 186.679 88.52C186.956 89.0107 187.33 89.3947 187.799 89.672C188.268 89.9387 188.796 90.072 189.383 90.072ZM192.551 91V88.472L192.663 86.776L192.503 85.08V79.128H193.639V91H192.551ZM196.803 91V82.6H197.939V91H196.803ZM197.379 80.744C197.144 80.744 196.947 80.664 196.787 80.504C196.627 80.344 196.547 80.152 196.547 79.928C196.547 79.704 196.627 79.5173 196.787 79.368C196.947 79.208 197.144 79.128 197.379 79.128C197.613 79.128 197.811 79.2027 197.971 79.352C198.131 79.5013 198.211 79.688 198.211 79.912C198.211 80.1467 198.131 80.344 197.971 80.504C197.821 80.664 197.624 80.744 197.379 80.744ZM203.756 91.08C202.966 91.08 202.358 90.8667 201.932 90.44C201.505 90.0133 201.292 89.4107 201.292 88.632V80.744H202.428V88.568C202.428 89.0587 202.55 89.4373 202.796 89.704C203.052 89.9707 203.414 90.104 203.884 90.104C204.385 90.104 204.801 89.96 205.132 89.672L205.532 90.488C205.308 90.6907 205.036 90.84 204.716 90.936C204.406 91.032 204.086 91.08 203.756 91.08ZM199.788 83.544V82.6H204.988V83.544H199.788ZM215.259 91.08C214.544 91.08 213.92 90.9467 213.387 90.68C212.854 90.4133 212.438 90.0133 212.139 89.48C211.851 88.9467 211.707 88.28 211.707 87.48V82.6H212.843V87.352C212.843 88.248 213.062 88.9253 213.499 89.384C213.947 89.832 214.571 90.056 215.371 90.056C215.958 90.056 216.464 89.9387 216.891 89.704C217.328 89.4587 217.659 89.1067 217.883 88.648C218.118 88.1893 218.235 87.64 218.235 87V82.6H219.371V91H218.283V88.696L218.459 89.112C218.192 89.7307 217.776 90.216 217.211 90.568C216.656 90.9093 216.006 91.08 215.259 91.08ZM226.825 82.52C227.508 82.52 228.105 82.6533 228.617 82.92C229.14 83.176 229.545 83.5707 229.833 84.104C230.132 84.6373 230.281 85.3093 230.281 86.12V91H229.145V86.232C229.145 85.3467 228.921 84.68 228.473 84.232C228.036 83.7733 227.417 83.544 226.617 83.544C226.02 83.544 225.497 83.6667 225.049 83.912C224.612 84.1467 224.27 84.4933 224.025 84.952C223.79 85.4 223.673 85.944 223.673 86.584V91H222.537V82.6H223.625V84.904L223.449 84.472C223.716 83.864 224.142 83.3893 224.729 83.048C225.316 82.696 226.014 82.52 226.825 82.52ZM233.35 91V82.6H234.486V91H233.35ZM233.926 80.744C233.691 80.744 233.494 80.664 233.334 80.504C233.174 80.344 233.094 80.152 233.094 79.928C233.094 79.704 233.174 79.5173 233.334 79.368C233.494 79.208 233.691 79.128 233.926 79.128C234.16 79.128 234.358 79.2027 234.518 79.352C234.678 79.5013 234.758 79.688 234.758 79.912C234.758 80.1467 234.678 80.344 234.518 80.504C234.368 80.664 234.171 80.744 233.926 80.744ZM241.071 91.08C240.26 91.08 239.529 90.8987 238.879 90.536C238.239 90.1627 237.732 89.656 237.359 89.016C236.985 88.3653 236.799 87.624 236.799 86.792C236.799 85.9493 236.985 85.208 237.359 84.568C237.732 83.928 238.239 83.4267 238.879 83.064C239.519 82.7013 240.249 82.52 241.071 82.52C241.903 82.52 242.639 82.7013 243.279 83.064C243.929 83.4267 244.436 83.928 244.799 84.568C245.172 85.208 245.359 85.9493 245.359 86.792C245.359 87.624 245.172 88.3653 244.799 89.016C244.436 89.656 243.929 90.1627 243.279 90.536C242.628 90.8987 241.892 91.08 241.071 91.08ZM241.071 90.072C241.679 90.072 242.217 89.9387 242.687 89.672C243.156 89.3947 243.524 89.0107 243.791 88.52C244.068 88.0187 244.207 87.4427 244.207 86.792C244.207 86.1307 244.068 85.5547 243.791 85.064C243.524 84.5733 243.156 84.1947 242.687 83.928C242.217 83.6507 241.684 83.512 241.087 83.512C240.489 83.512 239.956 83.6507 239.487 83.928C239.017 84.1947 238.644 84.5733 238.367 85.064C238.089 85.5547 237.951 86.1307 237.951 86.792C237.951 87.4427 238.089 88.0187 238.367 88.52C238.644 89.0107 239.017 89.3947 239.487 89.672C239.956 89.9387 240.484 90.072 241.071 90.072ZM251.966 82.52C252.648 82.52 253.246 82.6533 253.758 82.92C254.28 83.176 254.686 83.5707 254.974 84.104C255.272 84.6373 255.422 85.3093 255.422 86.12V91H254.286V86.232C254.286 85.3467 254.062 84.68 253.614 84.232C253.176 83.7733 252.558 83.544 251.758 83.544C251.16 83.544 250.638 83.6667 250.19 83.912C249.752 84.1467 249.411 84.4933 249.166 84.952C248.931 85.4 248.814 85.944 248.814 86.584V91H247.678V82.6H248.766V84.904L248.59 84.472C248.856 83.864 249.283 83.3893 249.87 83.048C250.456 82.696 251.155 82.52 251.966 82.52ZM266.966 82.52C267.648 82.52 268.246 82.6533 268.758 82.92C269.28 83.176 269.686 83.5707 269.974 84.104C270.272 84.6373 270.422 85.3093 270.422 86.12V91H269.286V86.232C269.286 85.3467 269.062 84.68 268.614 84.232C268.176 83.7733 267.558 83.544 266.758 83.544C266.16 83.544 265.638 83.6667 265.19 83.912C264.752 84.1467 264.411 84.4933 264.166 84.952C263.931 85.4 263.814 85.944 263.814 86.584V91H262.678V79.128H263.814V84.904L263.59 84.472C263.856 83.864 264.283 83.3893 264.87 83.048C265.456 82.696 266.155 82.52 266.966 82.52ZM277.058 91.08C276.184 91.08 275.416 90.8987 274.754 90.536C274.093 90.1627 273.576 89.656 273.202 89.016C272.829 88.3653 272.642 87.624 272.642 86.792C272.642 85.96 272.818 85.224 273.17 84.584C273.533 83.944 274.024 83.4427 274.642 83.08C275.272 82.7067 275.976 82.52 276.754 82.52C277.544 82.52 278.242 82.7013 278.85 83.064C279.469 83.416 279.954 83.9173 280.306 84.568C280.658 85.208 280.834 85.9493 280.834 86.792C280.834 86.8453 280.829 86.904 280.818 86.968C280.818 87.0213 280.818 87.08 280.818 87.144H273.506V86.296H280.21L279.762 86.632C279.762 86.024 279.629 85.4853 279.362 85.016C279.106 84.536 278.754 84.1627 278.306 83.896C277.858 83.6293 277.341 83.496 276.754 83.496C276.178 83.496 275.661 83.6293 275.202 83.896C274.744 84.1627 274.386 84.536 274.13 85.016C273.874 85.496 273.746 86.0453 273.746 86.664V86.84C273.746 87.48 273.885 88.0453 274.162 88.536C274.45 89.016 274.845 89.3947 275.346 89.672C275.858 89.9387 276.44 90.072 277.09 90.072C277.602 90.072 278.077 89.9813 278.514 89.8C278.962 89.6187 279.346 89.3413 279.666 88.968L280.306 89.704C279.933 90.152 279.464 90.4933 278.898 90.728C278.344 90.9627 277.73 91.08 277.058 91.08ZM283.147 91V79.128H284.283V91H283.147ZM291.779 91.08C291.054 91.08 290.398 90.9147 289.811 90.584C289.225 90.2427 288.755 89.7573 288.403 89.128C288.062 88.488 287.891 87.7093 287.891 86.792C287.891 85.8747 288.062 85.1013 288.403 84.472C288.745 83.832 289.209 83.3467 289.795 83.016C290.382 82.6853 291.043 82.52 291.779 82.52C292.579 82.52 293.294 82.7013 293.923 83.064C294.563 83.416 295.065 83.9173 295.427 84.568C295.79 85.208 295.971 85.9493 295.971 86.792C295.971 87.6453 295.79 88.392 295.427 89.032C295.065 89.672 294.563 90.1733 293.923 90.536C293.294 90.8987 292.579 91.08 291.779 91.08ZM287.443 94.104V82.6H288.531V85.128L288.419 86.808L288.579 88.504V94.104H287.443ZM291.699 90.072C292.297 90.072 292.83 89.9387 293.299 89.672C293.769 89.3947 294.142 89.0107 294.419 88.52C294.697 88.0187 294.835 87.4427 294.835 86.792C294.835 86.1413 294.697 85.5707 294.419 85.08C294.142 84.5893 293.769 84.2053 293.299 83.928C292.83 83.6507 292.297 83.512 291.699 83.512C291.102 83.512 290.563 83.6507 290.083 83.928C289.614 84.2053 289.241 84.5893 288.963 85.08C288.697 85.5707 288.563 86.1413 288.563 86.792C288.563 87.4427 288.697 88.0187 288.963 88.52C289.241 89.0107 289.614 89.3947 290.083 89.672C290.563 89.9387 291.102 90.072 291.699 90.072ZM300.543 91.08C299.85 91.08 299.194 90.984 298.575 90.792C297.956 90.5893 297.471 90.3387 297.119 90.04L297.631 89.144C297.972 89.4 298.41 89.624 298.943 89.816C299.476 89.9973 300.036 90.088 300.623 90.088C301.423 90.088 301.999 89.9653 302.351 89.72C302.703 89.464 302.879 89.128 302.879 88.712C302.879 88.4027 302.778 88.1627 302.575 87.992C302.383 87.8107 302.127 87.6773 301.807 87.592C301.487 87.496 301.13 87.416 300.735 87.352C300.34 87.288 299.946 87.2133 299.551 87.128C299.167 87.0427 298.815 86.92 298.495 86.76C298.175 86.5893 297.914 86.36 297.711 86.072C297.519 85.784 297.423 85.4 297.423 84.92C297.423 84.4613 297.551 84.0507 297.807 83.688C298.063 83.3253 298.436 83.0427 298.927 82.84C299.428 82.6267 300.036 82.52 300.751 82.52C301.295 82.52 301.839 82.5947 302.383 82.744C302.927 82.8827 303.375 83.0693 303.727 83.304L303.231 84.216C302.858 83.96 302.458 83.7787 302.031 83.672C301.604 83.5547 301.178 83.496 300.751 83.496C299.994 83.496 299.434 83.6293 299.071 83.896C298.719 84.152 298.543 84.4827 298.543 84.888C298.543 85.208 298.639 85.4587 298.831 85.64C299.034 85.8213 299.295 85.9653 299.615 86.072C299.946 86.168 300.303 86.248 300.687 86.312C301.082 86.376 301.471 86.456 301.855 86.552C302.25 86.6373 302.607 86.76 302.927 86.92C303.258 87.0693 303.519 87.288 303.711 87.576C303.914 87.8533 304.015 88.2213 304.015 88.68C304.015 89.1707 303.876 89.5973 303.599 89.96C303.332 90.312 302.938 90.5893 302.415 90.792C301.903 90.984 301.279 91.08 300.543 91.08ZM312.943 91.08C312.154 91.08 311.546 90.8667 311.119 90.44C310.692 90.0133 310.479 89.4107 310.479 88.632V80.744H311.615V88.568C311.615 89.0587 311.738 89.4373 311.983 89.704C312.239 89.9707 312.602 90.104 313.071 90.104C313.572 90.104 313.988 89.96 314.319 89.672L314.719 90.488C314.495 90.6907 314.223 90.84 313.903 90.936C313.594 91.032 313.274 91.08 312.943 91.08ZM308.975 83.544V82.6H314.175V83.544H308.975ZM321.075 82.52C321.758 82.52 322.355 82.6533 322.867 82.92C323.39 83.176 323.795 83.5707 324.083 84.104C324.382 84.6373 324.531 85.3093 324.531 86.12V91H323.395V86.232C323.395 85.3467 323.171 84.68 322.723 84.232C322.286 83.7733 321.667 83.544 320.867 83.544C320.27 83.544 319.747 83.6667 319.299 83.912C318.862 84.1467 318.52 84.4933 318.275 84.952C318.04 85.4 317.923 85.944 317.923 86.584V91H316.787V79.128H317.923V84.904L317.699 84.472C317.966 83.864 318.392 83.3893 318.979 83.048C319.566 82.696 320.264 82.52 321.075 82.52ZM331.168 91.08C330.293 91.08 329.525 90.8987 328.864 90.536C328.202 90.1627 327.685 89.656 327.312 89.016C326.938 88.3653 326.752 87.624 326.752 86.792C326.752 85.96 326.928 85.224 327.28 84.584C327.642 83.944 328.133 83.4427 328.752 83.08C329.381 82.7067 330.085 82.52 330.864 82.52C331.653 82.52 332.352 82.7013 332.96 83.064C333.578 83.416 334.064 83.9173 334.416 84.568C334.768 85.208 334.944 85.9493 334.944 86.792C334.944 86.8453 334.938 86.904 334.928 86.968C334.928 87.0213 334.928 87.08 334.928 87.144H327.616V86.296H334.32L333.872 86.632C333.872 86.024 333.738 85.4853 333.472 85.016C333.216 84.536 332.864 84.1627 332.416 83.896C331.968 83.6293 331.45 83.496 330.864 83.496C330.288 83.496 329.77 83.6293 329.312 83.896C328.853 84.1627 328.496 84.536 328.24 85.016C327.984 85.496 327.856 86.0453 327.856 86.664V86.84C327.856 87.48 327.994 88.0453 328.272 88.536C328.56 89.016 328.954 89.3947 329.456 89.672C329.968 89.9387 330.549 90.072 331.2 90.072C331.712 90.072 332.186 89.9813 332.624 89.8C333.072 89.6187 333.456 89.3413 333.776 88.968L334.416 89.704C334.042 90.152 333.573 90.4933 333.008 90.728C332.453 90.9627 331.84 91.08 331.168 91.08ZM347.752 82.52C348.435 82.52 349.027 82.6533 349.528 82.92C350.04 83.176 350.435 83.5707 350.712 84.104C351 84.6373 351.144 85.3093 351.144 86.12V91H350.008V86.232C350.008 85.3467 349.795 84.68 349.368 84.232C348.952 83.7733 348.36 83.544 347.592 83.544C347.016 83.544 346.515 83.6667 346.088 83.912C345.672 84.1467 345.347 84.4933 345.112 84.952C344.888 85.4 344.776 85.944 344.776 86.584V91H343.64V86.232C343.64 85.3467 343.427 84.68 343 84.232C342.573 83.7733 341.976 83.544 341.208 83.544C340.643 83.544 340.147 83.6667 339.72 83.912C339.293 84.1467 338.963 84.4933 338.728 84.952C338.504 85.4 338.392 85.944 338.392 86.584V91H337.256V82.6H338.344V84.872L338.168 84.472C338.424 83.864 338.835 83.3893 339.4 83.048C339.976 82.696 340.653 82.52 341.432 82.52C342.253 82.52 342.952 82.728 343.528 83.144C344.104 83.5493 344.477 84.1627 344.648 84.984L344.2 84.808C344.445 84.1253 344.877 83.576 345.496 83.16C346.125 82.7333 346.877 82.52 347.752 82.52ZM358.412 91V82.6H359.548V91H358.412ZM358.988 80.744C358.753 80.744 358.556 80.664 358.396 80.504C358.236 80.344 358.156 80.152 358.156 79.928C358.156 79.704 358.236 79.5173 358.396 79.368C358.556 79.208 358.753 79.128 358.988 79.128C359.223 79.128 359.42 79.2027 359.58 79.352C359.74 79.5013 359.82 79.688 359.82 79.912C359.82 80.1467 359.74 80.344 359.58 80.504C359.431 80.664 359.233 80.744 358.988 80.744ZM373.205 82.52C373.888 82.52 374.48 82.6533 374.981 82.92C375.493 83.176 375.888 83.5707 376.165 84.104C376.453 84.6373 376.597 85.3093 376.597 86.12V91H375.461V86.232C375.461 85.3467 375.248 84.68 374.821 84.232C374.405 83.7733 373.813 83.544 373.045 83.544C372.469 83.544 371.968 83.6667 371.541 83.912C371.125 84.1467 370.8 84.4933 370.565 84.952C370.341 85.4 370.229 85.944 370.229 86.584V91H369.093V86.232C369.093 85.3467 368.88 84.68 368.453 84.232C368.026 83.7733 367.429 83.544 366.661 83.544C366.096 83.544 365.6 83.6667 365.173 83.912C364.746 84.1467 364.416 84.4933 364.181 84.952C363.957 85.4 363.845 85.944 363.845 86.584V91H362.709V82.6H363.797V84.872L363.621 84.472C363.877 83.864 364.288 83.3893 364.853 83.048C365.429 82.696 366.106 82.52 366.885 82.52C367.706 82.52 368.405 82.728 368.981 83.144C369.557 83.5493 369.93 84.1627 370.101 84.984L369.653 84.808C369.898 84.1253 370.33 83.576 370.949 83.16C371.578 82.7333 372.33 82.52 373.205 82.52ZM384.014 91.08C383.288 91.08 382.632 90.9147 382.046 90.584C381.459 90.2427 380.99 89.7573 380.638 89.128C380.296 88.488 380.126 87.7093 380.126 86.792C380.126 85.8747 380.296 85.1013 380.638 84.472C380.979 83.832 381.443 83.3467 382.03 83.016C382.616 82.6853 383.278 82.52 384.014 82.52C384.814 82.52 385.528 82.7013 386.158 83.064C386.798 83.416 387.299 83.9173 387.662 84.568C388.024 85.208 388.206 85.9493 388.206 86.792C388.206 87.6453 388.024 88.392 387.662 89.032C387.299 89.672 386.798 90.1733 386.158 90.536C385.528 90.8987 384.814 91.08 384.014 91.08ZM379.678 94.104V82.6H380.766V85.128L380.654 86.808L380.814 88.504V94.104H379.678ZM383.934 90.072C384.531 90.072 385.064 89.9387 385.534 89.672C386.003 89.3947 386.376 89.0107 386.654 88.52C386.931 88.0187 387.07 87.4427 387.07 86.792C387.07 86.1413 386.931 85.5707 386.654 85.08C386.376 84.5893 386.003 84.2053 385.534 83.928C385.064 83.6507 384.531 83.512 383.934 83.512C383.336 83.512 382.798 83.6507 382.318 83.928C381.848 84.2053 381.475 84.5893 381.198 85.08C380.931 85.5707 380.798 86.1413 380.798 86.792C380.798 87.4427 380.931 88.0187 381.198 88.52C381.475 89.0107 381.848 89.3947 382.318 89.672C382.798 89.9387 383.336 90.072 383.934 90.072ZM390.522 91V82.6H391.61V84.888L391.498 84.488C391.732 83.848 392.127 83.3627 392.682 83.032C393.236 82.6907 393.924 82.52 394.746 82.52V83.624C394.703 83.624 394.66 83.624 394.618 83.624C394.575 83.6133 394.532 83.608 394.49 83.608C393.604 83.608 392.911 83.88 392.41 84.424C391.908 84.9573 391.658 85.72 391.658 86.712V91H390.522ZM400.164 91.08C399.354 91.08 398.623 90.8987 397.972 90.536C397.332 90.1627 396.826 89.656 396.452 89.016C396.079 88.3653 395.892 87.624 395.892 86.792C395.892 85.9493 396.079 85.208 396.452 84.568C396.826 83.928 397.332 83.4267 397.972 83.064C398.612 82.7013 399.343 82.52 400.164 82.52C400.996 82.52 401.732 82.7013 402.372 83.064C403.023 83.4267 403.53 83.928 403.892 84.568C404.266 85.208 404.452 85.9493 404.452 86.792C404.452 87.624 404.266 88.3653 403.892 89.016C403.53 89.656 403.023 90.1627 402.372 90.536C401.722 90.8987 400.986 91.08 400.164 91.08ZM400.164 90.072C400.772 90.072 401.311 89.9387 401.78 89.672C402.25 89.3947 402.618 89.0107 402.884 88.52C403.162 88.0187 403.3 87.4427 403.3 86.792C403.3 86.1307 403.162 85.5547 402.884 85.064C402.618 84.5733 402.25 84.1947 401.78 83.928C401.311 83.6507 400.778 83.512 400.18 83.512C399.583 83.512 399.05 83.6507 398.58 83.928C398.111 84.1947 397.738 84.5733 397.46 85.064C397.183 85.5547 397.044 86.1307 397.044 86.792C397.044 87.4427 397.183 88.0187 397.46 88.52C397.738 89.0107 398.111 89.3947 398.58 89.672C399.05 89.9387 399.578 90.072 400.164 90.072ZM408.697 91L404.969 82.6H406.153L409.577 90.392H409.017L412.489 82.6H413.609L409.865 91H408.697ZM418.543 91.08C417.668 91.08 416.9 90.8987 416.239 90.536C415.577 90.1627 415.06 89.656 414.687 89.016C414.313 88.3653 414.127 87.624 414.127 86.792C414.127 85.96 414.303 85.224 414.655 84.584C415.017 83.944 415.508 83.4427 416.127 83.08C416.756 82.7067 417.46 82.52 418.239 82.52C419.028 82.52 419.727 82.7013 420.335 83.064C420.953 83.416 421.439 83.9173 421.791 84.568C422.143 85.208 422.319 85.9493 422.319 86.792C422.319 86.8453 422.313 86.904 422.303 86.968C422.303 87.0213 422.303 87.08 422.303 87.144H414.991V86.296H421.695L421.247 86.632C421.247 86.024 421.113 85.4853 420.847 85.016C420.591 84.536 420.239 84.1627 419.791 83.896C419.343 83.6293 418.825 83.496 418.239 83.496C417.663 83.496 417.145 83.6293 416.687 83.896C416.228 84.1627 415.871 84.536 415.615 85.016C415.359 85.496 415.231 86.0453 415.231 86.664V86.84C415.231 87.48 415.369 88.0453 415.647 88.536C415.935 89.016 416.329 89.3947 416.831 89.672C417.343 89.9387 417.924 90.072 418.575 90.072C419.087 90.072 419.561 89.9813 419.999 89.8C420.447 89.6187 420.831 89.3413 421.151 88.968L421.791 89.704C421.417 90.152 420.948 90.4933 420.383 90.728C419.828 90.9627 419.215 91.08 418.543 91.08ZM98.24 111.08C97.4507 111.08 96.8427 110.867 96.416 110.44C95.9893 110.013 95.776 109.411 95.776 108.632V100.744H96.912V108.568C96.912 109.059 97.0347 109.437 97.28 109.704C97.536 109.971 97.8987 110.104 98.368 110.104C98.8693 110.104 99.2853 109.96 99.616 109.672L100.016 110.488C99.792 110.691 99.52 110.84 99.2 110.936C98.8907 111.032 98.5707 111.08 98.24 111.08ZM94.272 103.544V102.6H99.472V103.544H94.272ZM106.372 102.52C107.055 102.52 107.652 102.653 108.164 102.92C108.687 103.176 109.092 103.571 109.38 104.104C109.679 104.637 109.828 105.309 109.828 106.12V111H108.692V106.232C108.692 105.347 108.468 104.68 108.02 104.232C107.583 103.773 106.964 103.544 106.164 103.544C105.567 103.544 105.044 103.667 104.596 103.912C104.159 104.147 103.817 104.493 103.572 104.952C103.337 105.4 103.22 105.944 103.22 106.584V111H102.084V99.128H103.22V104.904L102.996 104.472C103.263 103.864 103.689 103.389 104.276 103.048C104.863 102.696 105.561 102.52 106.372 102.52ZM116.465 111.08C115.59 111.08 114.822 110.899 114.161 110.536C113.499 110.163 112.982 109.656 112.609 109.016C112.235 108.365 112.049 107.624 112.049 106.792C112.049 105.96 112.225 105.224 112.577 104.584C112.939 103.944 113.43 103.443 114.049 103.08C114.678 102.707 115.382 102.52 116.161 102.52C116.95 102.52 117.649 102.701 118.257 103.064C118.875 103.416 119.361 103.917 119.713 104.568C120.065 105.208 120.241 105.949 120.241 106.792C120.241 106.845 120.235 106.904 120.225 106.968C120.225 107.021 120.225 107.08 120.225 107.144H112.913V106.296H119.617L119.169 106.632C119.169 106.024 119.035 105.485 118.769 105.016C118.513 104.536 118.161 104.163 117.713 103.896C117.265 103.629 116.747 103.496 116.161 103.496C115.585 103.496 115.067 103.629 114.609 103.896C114.15 104.163 113.793 104.536 113.537 105.016C113.281 105.496 113.153 106.045 113.153 106.664V106.84C113.153 107.48 113.291 108.045 113.569 108.536C113.857 109.016 114.251 109.395 114.753 109.672C115.265 109.939 115.846 110.072 116.497 110.072C117.009 110.072 117.483 109.981 117.921 109.8C118.369 109.619 118.753 109.341 119.073 108.968L119.713 109.704C119.339 110.152 118.87 110.493 118.305 110.728C117.75 110.963 117.137 111.08 116.465 111.08ZM122.553 111V102.6H123.689V111H122.553ZM123.129 100.744C122.894 100.744 122.697 100.664 122.537 100.504C122.377 100.344 122.297 100.152 122.297 99.928C122.297 99.704 122.377 99.5173 122.537 99.368C122.697 99.208 122.894 99.128 123.129 99.128C123.363 99.128 123.561 99.2027 123.721 99.352C123.881 99.5013 123.961 99.688 123.961 99.912C123.961 100.147 123.881 100.344 123.721 100.504C123.571 100.664 123.374 100.744 123.129 100.744ZM126.85 111V102.6H127.938V104.888L127.826 104.488C128.06 103.848 128.455 103.363 129.01 103.032C129.564 102.691 130.252 102.52 131.074 102.52V103.624C131.031 103.624 130.988 103.624 130.946 103.624C130.903 103.613 130.86 103.608 130.818 103.608C129.932 103.608 129.239 103.88 128.738 104.424C128.236 104.957 127.986 105.72 127.986 106.712V111H126.85ZM137.651 111V101.544C137.651 100.797 137.87 100.195 138.307 99.736C138.744 99.2773 139.374 99.048 140.195 99.048C140.515 99.048 140.824 99.0907 141.123 99.176C141.422 99.2613 141.672 99.3947 141.875 99.576L141.491 100.424C141.331 100.285 141.144 100.184 140.931 100.12C140.718 100.045 140.488 100.008 140.243 100.008C139.763 100.008 139.395 100.141 139.139 100.408C138.883 100.675 138.755 101.069 138.755 101.592V102.872L138.787 103.4V111H137.651ZM136.147 103.544V102.6H141.347V103.544H136.147ZM142.883 111V102.6H144.019V111H142.883ZM143.459 100.744C143.224 100.744 143.027 100.664 142.867 100.504C142.707 100.344 142.627 100.152 142.627 99.928C142.627 99.704 142.707 99.5173 142.867 99.368C143.027 99.208 143.224 99.128 143.459 99.128C143.694 99.128 143.891 99.2027 144.051 99.352C144.211 99.5013 144.291 99.688 144.291 99.912C144.291 100.147 144.211 100.344 144.051 100.504C143.902 100.664 143.704 100.744 143.459 100.744ZM151.497 102.52C152.18 102.52 152.777 102.653 153.289 102.92C153.812 103.176 154.217 103.571 154.505 104.104C154.804 104.637 154.953 105.309 154.953 106.12V111H153.817V106.232C153.817 105.347 153.593 104.68 153.145 104.232C152.708 103.773 152.089 103.544 151.289 103.544C150.692 103.544 150.169 103.667 149.721 103.912C149.284 104.147 148.942 104.493 148.697 104.952C148.462 105.4 148.345 105.944 148.345 106.584V111H147.209V102.6H148.297V104.904L148.121 104.472C148.388 103.864 148.814 103.389 149.401 103.048C149.988 102.696 150.686 102.52 151.497 102.52ZM163.286 111V109.144L163.238 108.84V105.736C163.238 105.021 163.035 104.472 162.63 104.088C162.235 103.704 161.643 103.512 160.854 103.512C160.31 103.512 159.792 103.603 159.302 103.784C158.811 103.965 158.395 104.205 158.054 104.504L157.542 103.656C157.968 103.293 158.48 103.016 159.078 102.824C159.675 102.621 160.304 102.52 160.966 102.52C162.054 102.52 162.891 102.792 163.478 103.336C164.075 103.869 164.374 104.685 164.374 105.784V111H163.286ZM160.39 111.08C159.76 111.08 159.211 110.979 158.742 110.776C158.283 110.563 157.931 110.275 157.686 109.912C157.44 109.539 157.318 109.112 157.318 108.632C157.318 108.195 157.419 107.8 157.622 107.448C157.835 107.085 158.176 106.797 158.646 106.584C159.126 106.36 159.766 106.248 160.566 106.248H163.462V107.096H160.598C159.787 107.096 159.222 107.24 158.902 107.528C158.592 107.816 158.438 108.173 158.438 108.6C158.438 109.08 158.624 109.464 158.998 109.752C159.371 110.04 159.894 110.184 160.566 110.184C161.206 110.184 161.755 110.04 162.214 109.752C162.683 109.453 163.024 109.027 163.238 108.472L163.494 109.256C163.28 109.811 162.907 110.253 162.374 110.584C161.851 110.915 161.19 111.08 160.39 111.08ZM171.747 102.52C172.43 102.52 173.027 102.653 173.539 102.92C174.062 103.176 174.467 103.571 174.755 104.104C175.054 104.637 175.203 105.309 175.203 106.12V111H174.067V106.232C174.067 105.347 173.843 104.68 173.395 104.232C172.958 103.773 172.339 103.544 171.539 103.544C170.942 103.544 170.419 103.667 169.971 103.912C169.534 104.147 169.192 104.493 168.947 104.952C168.712 105.4 168.595 105.944 168.595 106.584V111H167.459V102.6H168.547V104.904L168.371 104.472C168.638 103.864 169.064 103.389 169.651 103.048C170.238 102.696 170.936 102.52 171.747 102.52ZM181.76 111.08C180.928 111.08 180.181 110.899 179.52 110.536C178.869 110.163 178.357 109.656 177.984 109.016C177.61 108.365 177.424 107.624 177.424 106.792C177.424 105.949 177.61 105.208 177.984 104.568C178.357 103.928 178.869 103.427 179.52 103.064C180.181 102.701 180.928 102.52 181.76 102.52C182.474 102.52 183.12 102.659 183.696 102.936C184.272 103.213 184.725 103.629 185.056 104.184L184.208 104.76C183.92 104.333 183.562 104.019 183.136 103.816C182.709 103.613 182.245 103.512 181.744 103.512C181.146 103.512 180.608 103.651 180.128 103.928C179.648 104.195 179.269 104.573 178.992 105.064C178.714 105.555 178.576 106.131 178.576 106.792C178.576 107.453 178.714 108.029 178.992 108.52C179.269 109.011 179.648 109.395 180.128 109.672C180.608 109.939 181.146 110.072 181.744 110.072C182.245 110.072 182.709 109.971 183.136 109.768C183.562 109.565 183.92 109.256 184.208 108.84L185.056 109.416C184.725 109.96 184.272 110.376 183.696 110.664C183.12 110.941 182.474 111.08 181.76 111.08ZM187.162 111V102.6H188.298V111H187.162ZM187.738 100.744C187.503 100.744 187.306 100.664 187.146 100.504C186.986 100.344 186.906 100.152 186.906 99.928C186.906 99.704 186.986 99.5173 187.146 99.368C187.306 99.208 187.503 99.128 187.738 99.128C187.973 99.128 188.17 99.2027 188.33 99.352C188.49 99.5013 188.57 99.688 188.57 99.912C188.57 100.147 188.49 100.344 188.33 100.504C188.181 100.664 187.983 100.744 187.738 100.744ZM196.723 111V109.144L196.675 108.84V105.736C196.675 105.021 196.472 104.472 196.067 104.088C195.672 103.704 195.08 103.512 194.291 103.512C193.747 103.512 193.23 103.603 192.739 103.784C192.248 103.965 191.832 104.205 191.491 104.504L190.979 103.656C191.406 103.293 191.918 103.016 192.515 102.824C193.112 102.621 193.742 102.52 194.403 102.52C195.491 102.52 196.328 102.792 196.915 103.336C197.512 103.869 197.811 104.685 197.811 105.784V111H196.723ZM193.827 111.08C193.198 111.08 192.648 110.979 192.179 110.776C191.72 110.563 191.368 110.275 191.123 109.912C190.878 109.539 190.755 109.112 190.755 108.632C190.755 108.195 190.856 107.8 191.059 107.448C191.272 107.085 191.614 106.797 192.083 106.584C192.563 106.36 193.203 106.248 194.003 106.248H196.899V107.096H194.035C193.224 107.096 192.659 107.24 192.339 107.528C192.03 107.816 191.875 108.173 191.875 108.6C191.875 109.08 192.062 109.464 192.435 109.752C192.808 110.04 193.331 110.184 194.003 110.184C194.643 110.184 195.192 110.04 195.651 109.752C196.12 109.453 196.462 109.027 196.675 108.472L196.931 109.256C196.718 109.811 196.344 110.253 195.811 110.584C195.288 110.915 194.627 111.08 193.827 111.08ZM200.897 111V99.128H202.033V111H200.897ZM211.093 111L207.925 102.6H209.013L211.893 110.392H211.397L214.357 102.6H215.333L218.261 110.392H217.765L220.693 102.6H221.733L218.549 111H217.477L214.661 103.672H214.997L212.165 111H211.093ZM226.777 111.08C225.902 111.08 225.134 110.899 224.473 110.536C223.812 110.163 223.294 109.656 222.921 109.016C222.548 108.365 222.361 107.624 222.361 106.792C222.361 105.96 222.537 105.224 222.889 104.584C223.252 103.944 223.742 103.443 224.361 103.08C224.99 102.707 225.694 102.52 226.473 102.52C227.262 102.52 227.961 102.701 228.569 103.064C229.188 103.416 229.673 103.917 230.025 104.568C230.377 105.208 230.553 105.949 230.553 106.792C230.553 106.845 230.548 106.904 230.537 106.968C230.537 107.021 230.537 107.08 230.537 107.144H223.225V106.296H229.929L229.481 106.632C229.481 106.024 229.348 105.485 229.081 105.016C228.825 104.536 228.473 104.163 228.025 103.896C227.577 103.629 227.06 103.496 226.473 103.496C225.897 103.496 225.38 103.629 224.921 103.896C224.462 104.163 224.105 104.536 223.849 105.016C223.593 105.496 223.465 106.045 223.465 106.664V106.84C223.465 107.48 223.604 108.045 223.881 108.536C224.169 109.016 224.564 109.395 225.065 109.672C225.577 109.939 226.158 110.072 226.809 110.072C227.321 110.072 227.796 109.981 228.233 109.8C228.681 109.619 229.065 109.341 229.385 108.968L230.025 109.704C229.652 110.152 229.182 110.493 228.617 110.728C228.062 110.963 227.449 111.08 226.777 111.08ZM232.865 111V99.128H234.001V111H232.865ZM237.162 111V99.128H238.298V111H237.162ZM245.747 102.52C246.43 102.52 247.027 102.653 247.539 102.92C248.062 103.176 248.467 103.571 248.755 104.104C249.054 104.637 249.203 105.309 249.203 106.12V111H248.067V106.232C248.067 105.347 247.843 104.68 247.395 104.232C246.958 103.773 246.339 103.544 245.539 103.544C244.942 103.544 244.419 103.667 243.971 103.912C243.534 104.147 243.192 104.493 242.947 104.952C242.712 105.4 242.595 105.944 242.595 106.584V111H241.459V102.6H242.547V104.904L242.371 104.472C242.638 103.864 243.064 103.389 243.651 103.048C244.238 102.696 244.936 102.52 245.747 102.52ZM255.84 111.08C254.965 111.08 254.197 110.899 253.536 110.536C252.874 110.163 252.357 109.656 251.984 109.016C251.61 108.365 251.424 107.624 251.424 106.792C251.424 105.96 251.6 105.224 251.952 104.584C252.314 103.944 252.805 103.443 253.424 103.08C254.053 102.707 254.757 102.52 255.536 102.52C256.325 102.52 257.024 102.701 257.632 103.064C258.25 103.416 258.736 103.917 259.088 104.568C259.44 105.208 259.616 105.949 259.616 106.792C259.616 106.845 259.61 106.904 259.6 106.968C259.6 107.021 259.6 107.08 259.6 107.144H252.288V106.296H258.992L258.544 106.632C258.544 106.024 258.41 105.485 258.144 105.016C257.888 104.536 257.536 104.163 257.088 103.896C256.64 103.629 256.122 103.496 255.536 103.496C254.96 103.496 254.442 103.629 253.984 103.896C253.525 104.163 253.168 104.536 252.912 105.016C252.656 105.496 252.528 106.045 252.528 106.664V106.84C252.528 107.48 252.666 108.045 252.944 108.536C253.232 109.016 253.626 109.395 254.128 109.672C254.64 109.939 255.221 110.072 255.872 110.072C256.384 110.072 256.858 109.981 257.296 109.8C257.744 109.619 258.128 109.341 258.448 108.968L259.088 109.704C258.714 110.152 258.245 110.493 257.68 110.728C257.125 110.963 256.512 111.08 255.84 111.08ZM264.184 111.08C263.49 111.08 262.834 110.984 262.216 110.792C261.597 110.589 261.112 110.339 260.76 110.04L261.272 109.144C261.613 109.4 262.05 109.624 262.584 109.816C263.117 109.997 263.677 110.088 264.264 110.088C265.064 110.088 265.64 109.965 265.992 109.72C266.344 109.464 266.52 109.128 266.52 108.712C266.52 108.403 266.418 108.163 266.216 107.992C266.024 107.811 265.768 107.677 265.448 107.592C265.128 107.496 264.77 107.416 264.376 107.352C263.981 107.288 263.586 107.213 263.192 107.128C262.808 107.043 262.456 106.92 262.136 106.76C261.816 106.589 261.554 106.36 261.352 106.072C261.16 105.784 261.064 105.4 261.064 104.92C261.064 104.461 261.192 104.051 261.448 103.688C261.704 103.325 262.077 103.043 262.568 102.84C263.069 102.627 263.677 102.52 264.392 102.52C264.936 102.52 265.48 102.595 266.024 102.744C266.568 102.883 267.016 103.069 267.368 103.304L266.872 104.216C266.498 103.96 266.098 103.779 265.672 103.672C265.245 103.555 264.818 103.496 264.392 103.496C263.634 103.496 263.074 103.629 262.712 103.896C262.36 104.152 262.184 104.483 262.184 104.888C262.184 105.208 262.28 105.459 262.472 105.64C262.674 105.821 262.936 105.965 263.256 106.072C263.586 106.168 263.944 106.248 264.328 106.312C264.722 106.376 265.112 106.456 265.496 106.552C265.89 106.637 266.248 106.76 266.568 106.92C266.898 107.069 267.16 107.288 267.352 107.576C267.554 107.853 267.656 108.221 267.656 108.68C267.656 109.171 267.517 109.597 267.24 109.96C266.973 110.312 266.578 110.589 266.056 110.792C265.544 110.984 264.92 111.08 264.184 111.08ZM271.996 111.08C271.303 111.08 270.647 110.984 270.028 110.792C269.41 110.589 268.924 110.339 268.572 110.04L269.084 109.144C269.426 109.4 269.863 109.624 270.396 109.816C270.93 109.997 271.49 110.088 272.076 110.088C272.876 110.088 273.452 109.965 273.804 109.72C274.156 109.464 274.332 109.128 274.332 108.712C274.332 108.403 274.231 108.163 274.028 107.992C273.836 107.811 273.58 107.677 273.26 107.592C272.94 107.496 272.583 107.416 272.188 107.352C271.794 107.288 271.399 107.213 271.004 107.128C270.62 107.043 270.268 106.92 269.948 106.76C269.628 106.589 269.367 106.36 269.164 106.072C268.972 105.784 268.876 105.4 268.876 104.92C268.876 104.461 269.004 104.051 269.26 103.688C269.516 103.325 269.89 103.043 270.38 102.84C270.882 102.627 271.49 102.52 272.204 102.52C272.748 102.52 273.292 102.595 273.836 102.744C274.38 102.883 274.828 103.069 275.18 103.304L274.684 104.216C274.311 103.96 273.911 103.779 273.484 103.672C273.058 103.555 272.631 103.496 272.204 103.496C271.447 103.496 270.887 103.629 270.524 103.896C270.172 104.152 269.996 104.483 269.996 104.888C269.996 105.208 270.092 105.459 270.284 105.64C270.487 105.821 270.748 105.965 271.068 106.072C271.399 106.168 271.756 106.248 272.14 106.312C272.535 106.376 272.924 106.456 273.308 106.552C273.703 106.637 274.06 106.76 274.38 106.92C274.711 107.069 274.972 107.288 275.164 107.576C275.367 107.853 275.468 108.221 275.468 108.68C275.468 109.171 275.33 109.597 275.052 109.96C274.786 110.312 274.391 110.589 273.868 110.792C273.356 110.984 272.732 111.08 271.996 111.08Z" fill="black"/>
<path d="M94 53H125.53V53.8H94V53Z" fill="black"/>
<a href="https://www.americanbanker.com/opinion/banks-are-missing-their-millennial-opportunity#:~:text=Millennials%20have%20the%20lowest%20levels,other%20generation%2C%20according%20to%20Gallup.&#38;text=Yet%2C%20just%2014%25%20of%20millennials,financial%20institution%20is%20doing%20so.">
<rect fill="black" fill-opacity="0" y="0.248" width="31.5296" height="19.504"/>
</a>
<g clip-path="url(#clip0_35_1121)">
<g opacity="0.2">
<path fill-rule="evenodd" clip-rule="evenodd" d="M54.3253 34.6501C54.5023 34.6498 54.6746 34.7064 54.8169 34.8116C54.9592 34.9168 55.064 35.0649 55.1156 35.2342L58.2968 45.6836L67.8091 49.1602C67.966 49.2176 68.1017 49.3214 68.1983 49.4576C68.2949 49.5939 68.3479 49.7563 68.3502 49.9233C68.3525 50.0904 68.3041 50.2542 68.2113 50.3931C68.1185 50.532 67.9857 50.6394 67.8305 50.7013L58.381 54.455L55.1156 65.411C55.0647 65.5811 54.9603 65.7302 54.818 65.8362C54.6756 65.9422 54.5028 65.9994 54.3253 65.9994C54.1478 65.9994 53.975 65.9422 53.8326 65.8362C53.6902 65.7302 53.5858 65.5811 53.5349 65.411L50.2696 54.455L40.82 50.7013C40.6648 50.6394 40.5321 50.532 40.4393 50.3931C40.3465 50.2542 40.298 50.0904 40.3004 49.9233C40.3027 49.7563 40.3557 49.5939 40.4523 49.4576C40.5489 49.3214 40.6846 49.2176 40.8415 49.1602L50.3537 45.6836L53.5366 35.2342C53.5882 35.0652 53.6927 34.9172 53.8346 34.8121C53.9766 34.7069 54.1486 34.6501 54.3253 34.6501Z" fill="#FFD53E"/>
<path d="M65.5949 65.9176C65.4134 65.9176 65.2649 65.7856 65.2484 65.6206C64.9184 62.3206 64.6709 61.2646 61.5689 60.9841C61.4825 60.9766 61.4022 60.9367 61.3441 60.8724C61.2859 60.8082 61.2542 60.7243 61.2554 60.6376C61.2554 60.4561 61.3874 60.3076 61.5689 60.2911C64.7039 59.9941 64.9184 59.1361 65.2484 55.9186C65.2649 55.7371 65.4134 55.6051 65.5949 55.6051C65.7764 55.6051 65.9249 55.7371 65.9414 55.9021C66.2714 59.1361 66.4859 59.9941 69.6209 60.2746C69.8024 60.2911 69.9344 60.4396 69.9344 60.6211C69.9344 60.8026 69.8024 60.9511 69.6209 60.9676C66.5354 61.2646 66.2714 62.3206 65.9579 65.6041C65.9414 65.7856 65.7929 65.9176 65.6114 65.9176H65.5949Z" fill="#FFD53E"/>
</g>
<path fill-rule="evenodd" clip-rule="evenodd" d="M51.8502 33.825C52.0272 33.8247 52.1995 33.8814 52.3418 33.9865C52.4841 34.0917 52.5889 34.2399 52.6405 34.4091L55.8217 44.8586L65.334 48.3351C65.4909 48.3926 65.6266 48.4963 65.7232 48.6326C65.8198 48.7689 65.8728 48.9312 65.8751 49.0983C65.8774 49.2653 65.829 49.4291 65.7362 49.568C65.6434 49.7069 65.5106 49.8144 65.3554 49.8762L55.9059 53.63L52.6405 64.586C52.5896 64.756 52.4852 64.9051 52.3429 65.0111C52.2005 65.1171 52.0277 65.1744 51.8502 65.1744C51.6727 65.1744 51.4999 65.1171 51.3575 65.0111C51.2151 64.9051 51.1107 64.756 51.0598 64.586L47.7945 53.63L38.3449 49.8762C38.1897 49.8144 38.057 49.7069 37.9642 49.568C37.8714 49.4291 37.823 49.2653 37.8253 49.0983C37.8276 48.9312 37.8806 48.7689 37.9772 48.6326C38.0738 48.4963 38.2095 48.3926 38.3664 48.3351L47.8786 44.8586L51.0615 34.4091C51.1131 34.2401 51.2176 34.0922 51.3595 33.987C51.5015 33.8819 51.6735 33.8251 51.8502 33.825ZM51.8502 37.4814L49.3372 45.7314C49.3 45.8537 49.2348 45.9656 49.1469 46.0584C49.059 46.1511 48.9508 46.2222 48.8307 46.266L40.9651 49.1436L48.7762 52.2456C48.892 52.2918 48.9957 52.3636 49.0798 52.4556C49.1638 52.5476 49.2259 52.6575 49.2613 52.7769L51.8518 61.4625L54.439 52.7769C54.4745 52.6575 54.5366 52.5476 54.6206 52.4556C54.7046 52.3636 54.8084 52.2918 54.9241 52.2456L62.7352 49.1436L54.8697 46.2693C54.7496 46.2255 54.6414 46.1544 54.5535 46.0617C54.4655 45.9689 54.4004 45.857 54.3631 45.7347L51.8502 37.4814Z" fill="#FFD53E"/>
<path d="M64.6376 64.548C64.4726 64.548 64.324 64.416 64.3075 64.251C64.0105 61.248 63.7796 60.291 61.0241 60.027C60.8591 60.0105 60.7271 59.862 60.7271 59.697C60.7271 59.532 60.8591 59.3835 61.0241 59.367C63.8456 59.103 64.0105 58.377 64.3075 55.374C64.3075 55.209 64.4726 55.077 64.6376 55.077C64.8026 55.077 64.9511 55.209 64.9676 55.374C65.2646 58.377 65.4461 59.103 68.2511 59.367C68.4161 59.3835 68.5481 59.532 68.5481 59.697C68.5481 59.862 68.4161 60.0105 68.2511 60.027C65.4791 60.291 65.2646 61.248 64.9676 64.2675C64.9676 64.4325 64.8191 64.5645 64.6376 64.5645V64.548Z" fill="#FFD53E"/>
</g>
</g>
<defs>
<filter id="filter0_d_35_1121" x="0" y="0" width="513" height="169" filterUnits="userSpaceOnUse" color-interpolation-filters="sRGB">
<feFlood flood-opacity="0" result="BackgroundImageFix"/>
<feColorMatrix in="SourceAlpha" type="matrix" values="0 0 0 0 0 0 0 0 0 0 0 0 0 0 0 0 0 0 127 0" result="hardAlpha"/>
<feOffset dx="4" dy="8"/>
<feGaussianBlur stdDeviation="6"/>
<feComposite in2="hardAlpha" operator="out"/>
<feColorMatrix type="matrix" values="0 0 0 0 0 0 0 0 0 0 0 0 0 0 0 0 0 0 0.25 0"/>
<feBlend mode="normal" in2="BackgroundImageFix" result="effect1_dropShadow_35_1121"/>
<feBlend mode="normal" in="SourceGraphic" in2="effect1_dropShadow_35_1121" result="shape"/>
</filter>
<clipPath id="clip0_35_1121">
<rect width="33" height="33" fill="white" transform="translate(37 33)"/>
</clipPath>
</defs>
</svg>
