<svg width="513" height="169" viewBox="0 0 513 169" fill="none" xmlns="http://www.w3.org/2000/svg">
<g filter="url(#filter0_d_35_1131)">
<rect x="8" y="4" width="489" height="145" rx="30" fill="#F5D7FF" fill-opacity="0.29" shape-rendering="crispEdges"/>
<path d="M98.424 60.096C97.432 60.096 96.5947 59.8773 95.912 59.44C95.2293 58.992 94.712 58.352 94.36 57.52C94.008 56.6773 93.832 55.6693 93.832 54.496C93.832 53.2267 94.0453 52.1653 94.472 51.312C94.9093 50.448 95.512 49.7973 96.28 49.36C97.048 48.9227 97.9387 48.704 98.952 48.704C99.4533 48.704 99.9333 48.752 100.392 48.848C100.851 48.944 101.256 49.0987 101.608 49.312L101.144 50.24C100.856 50.048 100.525 49.9147 100.152 49.84C99.7787 49.7547 99.384 49.712 98.968 49.712C97.7627 49.712 96.7973 50.096 96.072 50.864C95.3573 51.632 95 52.7787 95 54.304C95 54.5387 95.0107 54.832 95.032 55.184C95.064 55.5253 95.128 55.8667 95.224 56.208L94.824 55.904C94.9413 55.3493 95.1707 54.88 95.512 54.496C95.8533 54.1013 96.28 53.8027 96.792 53.6C97.304 53.3973 97.864 53.296 98.472 53.296C99.2187 53.296 99.8747 53.4347 100.44 53.712C101.005 53.9893 101.448 54.3787 101.768 54.88C102.088 55.3813 102.248 55.9733 102.248 56.656C102.248 57.3493 102.083 57.9573 101.752 58.48C101.421 58.992 100.963 59.392 100.376 59.68C99.8 59.9573 99.1493 60.096 98.424 60.096ZM98.376 59.12C98.9093 59.12 99.3787 59.024 99.784 58.832C100.2 58.6293 100.525 58.3467 100.76 57.984C100.995 57.6107 101.112 57.1787 101.112 56.688C101.112 55.952 100.856 55.3653 100.344 54.928C99.8427 54.4907 99.16 54.272 98.296 54.272C97.72 54.272 97.2187 54.3787 96.792 54.592C96.3653 54.8053 96.0293 55.0987 95.784 55.472C95.5387 55.8347 95.416 56.2507 95.416 56.72C95.416 57.1253 95.528 57.5147 95.752 57.888C95.976 58.2507 96.3067 58.5493 96.744 58.784C97.192 59.008 97.736 59.12 98.376 59.12ZM105.425 60L110.257 49.312L110.609 49.824H103.681L104.273 49.264V51.92H103.137V48.8H111.361V49.616L106.673 60H105.425ZM114.383 60L122.031 48.8H122.975L115.327 60H114.383ZM115.247 54.8C114.746 54.8 114.303 54.6773 113.919 54.432C113.535 54.176 113.236 53.8187 113.023 53.36C112.82 52.9013 112.719 52.368 112.719 51.76C112.719 51.152 112.82 50.6187 113.023 50.16C113.236 49.7013 113.535 49.3493 113.919 49.104C114.303 48.848 114.746 48.72 115.247 48.72C115.748 48.72 116.186 48.848 116.559 49.104C116.943 49.3493 117.242 49.7013 117.455 50.16C117.668 50.6187 117.775 51.152 117.775 51.76C117.775 52.368 117.668 52.9013 117.455 53.36C117.242 53.8187 116.943 54.176 116.559 54.432C116.186 54.6773 115.748 54.8 115.247 54.8ZM115.247 54.08C115.77 54.08 116.186 53.8773 116.495 53.472C116.815 53.056 116.975 52.4853 116.975 51.76C116.975 51.0347 116.815 50.4693 116.495 50.064C116.186 49.648 115.77 49.44 115.247 49.44C114.714 49.44 114.292 49.648 113.983 50.064C113.674 50.4693 113.519 51.0347 113.519 51.76C113.519 52.4853 113.674 53.056 113.983 53.472C114.292 53.8773 114.714 54.08 115.247 54.08ZM122.111 60.08C121.62 60.08 121.183 59.9573 120.799 59.712C120.415 59.456 120.116 59.0987 119.903 58.64C119.69 58.1813 119.583 57.648 119.583 57.04C119.583 56.432 119.69 55.8987 119.903 55.44C120.116 54.9813 120.415 54.6293 120.799 54.384C121.183 54.128 121.62 54 122.111 54C122.623 54 123.066 54.128 123.439 54.384C123.823 54.6293 124.116 54.9813 124.319 55.44C124.532 55.8987 124.639 56.432 124.639 57.04C124.639 57.648 124.532 58.1813 124.319 58.64C124.116 59.0987 123.823 59.456 123.439 59.712C123.066 59.9573 122.623 60.08 122.111 60.08ZM122.111 59.36C122.634 59.36 123.05 59.1573 123.359 58.752C123.679 58.336 123.839 57.7653 123.839 57.04C123.839 56.3147 123.679 55.7493 123.359 55.344C123.05 54.928 122.634 54.72 122.111 54.72C121.588 54.72 121.167 54.928 120.847 55.344C120.538 55.7493 120.383 56.3147 120.383 57.04C120.383 57.7653 120.538 58.336 120.847 58.752C121.167 59.1573 121.588 59.36 122.111 59.36ZM141.58 51.52C142.263 51.52 142.855 51.6533 143.356 51.92C143.868 52.176 144.263 52.5707 144.54 53.104C144.828 53.6373 144.972 54.3093 144.972 55.12V60H143.836V55.232C143.836 54.3467 143.623 53.68 143.196 53.232C142.78 52.7733 142.188 52.544 141.42 52.544C140.844 52.544 140.343 52.6667 139.916 52.912C139.5 53.1467 139.175 53.4933 138.94 53.952C138.716 54.4 138.604 54.944 138.604 55.584V60H137.468V55.232C137.468 54.3467 137.255 53.68 136.828 53.232C136.401 52.7733 135.804 52.544 135.036 52.544C134.471 52.544 133.975 52.6667 133.548 52.912C133.121 53.1467 132.791 53.4933 132.556 53.952C132.332 54.4 132.22 54.944 132.22 55.584V60H131.084V51.6H132.172V53.872L131.996 53.472C132.252 52.864 132.663 52.3893 133.228 52.048C133.804 51.696 134.481 51.52 135.26 51.52C136.081 51.52 136.78 51.728 137.356 52.144C137.932 52.5493 138.305 53.1627 138.476 53.984L138.028 53.808C138.273 53.1253 138.705 52.576 139.324 52.16C139.953 51.7333 140.705 51.52 141.58 51.52ZM148.053 60V51.6H149.189V60H148.053ZM148.629 49.744C148.394 49.744 148.197 49.664 148.037 49.504C147.877 49.344 147.797 49.152 147.797 48.928C147.797 48.704 147.877 48.5173 148.037 48.368C148.197 48.208 148.394 48.128 148.629 48.128C148.863 48.128 149.061 48.2027 149.221 48.352C149.381 48.5013 149.461 48.688 149.461 48.912C149.461 49.1467 149.381 49.344 149.221 49.504C149.071 49.664 148.874 49.744 148.629 49.744ZM152.35 60V48.128H153.486V60H152.35ZM156.647 60V48.128H157.783V60H156.647ZM164.511 60.08C163.637 60.08 162.869 59.8987 162.207 59.536C161.546 59.1627 161.029 58.656 160.655 58.016C160.282 57.3653 160.095 56.624 160.095 55.792C160.095 54.96 160.271 54.224 160.623 53.584C160.986 52.944 161.477 52.4427 162.095 52.08C162.725 51.7067 163.429 51.52 164.207 51.52C164.997 51.52 165.695 51.7013 166.303 52.064C166.922 52.416 167.407 52.9173 167.759 53.568C168.111 54.208 168.287 54.9493 168.287 55.792C168.287 55.8453 168.282 55.904 168.271 55.968C168.271 56.0213 168.271 56.08 168.271 56.144H160.959V55.296H167.663L167.215 55.632C167.215 55.024 167.082 54.4853 166.815 54.016C166.559 53.536 166.207 53.1627 165.759 52.896C165.311 52.6293 164.794 52.496 164.207 52.496C163.631 52.496 163.114 52.6293 162.655 52.896C162.197 53.1627 161.839 53.536 161.583 54.016C161.327 54.496 161.199 55.0453 161.199 55.664V55.84C161.199 56.48 161.338 57.0453 161.615 57.536C161.903 58.016 162.298 58.3947 162.799 58.672C163.311 58.9387 163.893 59.072 164.543 59.072C165.055 59.072 165.53 58.9813 165.967 58.8C166.415 58.6187 166.799 58.3413 167.119 57.968L167.759 58.704C167.386 59.152 166.917 59.4933 166.351 59.728C165.797 59.9627 165.183 60.08 164.511 60.08ZM174.888 51.52C175.57 51.52 176.168 51.6533 176.68 51.92C177.202 52.176 177.608 52.5707 177.896 53.104C178.194 53.6373 178.344 54.3093 178.344 55.12V60H177.208V55.232C177.208 54.3467 176.984 53.68 176.536 53.232C176.098 52.7733 175.48 52.544 174.68 52.544C174.082 52.544 173.56 52.6667 173.112 52.912C172.674 53.1467 172.333 53.4933 172.088 53.952C171.853 54.4 171.736 54.944 171.736 55.584V60H170.6V51.6H171.688V53.904L171.512 53.472C171.778 52.864 172.205 52.3893 172.792 52.048C173.378 51.696 174.077 51.52 174.888 51.52ZM185.7 51.52C186.383 51.52 186.98 51.6533 187.492 51.92C188.015 52.176 188.42 52.5707 188.708 53.104C189.007 53.6373 189.156 54.3093 189.156 55.12V60H188.02V55.232C188.02 54.3467 187.796 53.68 187.348 53.232C186.911 52.7733 186.292 52.544 185.492 52.544C184.895 52.544 184.372 52.6667 183.924 52.912C183.487 53.1467 183.145 53.4933 182.9 53.952C182.665 54.4 182.548 54.944 182.548 55.584V60H181.412V51.6H182.5V53.904L182.324 53.472C182.591 52.864 183.017 52.3893 183.604 52.048C184.191 51.696 184.889 51.52 185.7 51.52ZM192.225 60V51.6H193.361V60H192.225ZM192.801 49.744C192.566 49.744 192.369 49.664 192.209 49.504C192.049 49.344 191.969 49.152 191.969 48.928C191.969 48.704 192.049 48.5173 192.209 48.368C192.369 48.208 192.566 48.128 192.801 48.128C193.035 48.128 193.233 48.2027 193.393 48.352C193.553 48.5013 193.633 48.688 193.633 48.912C193.633 49.1467 193.553 49.344 193.393 49.504C193.243 49.664 193.046 49.744 192.801 49.744ZM201.786 60V58.144L201.738 57.84V54.736C201.738 54.0213 201.535 53.472 201.13 53.088C200.735 52.704 200.143 52.512 199.354 52.512C198.81 52.512 198.292 52.6027 197.802 52.784C197.311 52.9653 196.895 53.2053 196.554 53.504L196.042 52.656C196.468 52.2933 196.98 52.016 197.578 51.824C198.175 51.6213 198.804 51.52 199.466 51.52C200.554 51.52 201.391 51.792 201.978 52.336C202.575 52.8693 202.874 53.6853 202.874 54.784V60H201.786ZM198.89 60.08C198.26 60.08 197.711 59.9787 197.242 59.776C196.783 59.5627 196.431 59.2747 196.186 58.912C195.94 58.5387 195.818 58.112 195.818 57.632C195.818 57.1947 195.919 56.8 196.122 56.448C196.335 56.0853 196.676 55.7973 197.146 55.584C197.626 55.36 198.266 55.248 199.066 55.248H201.962V56.096H199.098C198.287 56.096 197.722 56.24 197.402 56.528C197.092 56.816 196.938 57.1733 196.938 57.6C196.938 58.08 197.124 58.464 197.498 58.752C197.871 59.04 198.394 59.184 199.066 59.184C199.706 59.184 200.255 59.04 200.714 58.752C201.183 58.4533 201.524 58.0267 201.738 57.472L201.994 58.256C201.78 58.8107 201.407 59.2533 200.874 59.584C200.351 59.9147 199.69 60.08 198.89 60.08ZM205.959 60V48.128H207.095V60H205.959ZM212.512 60.08C211.819 60.08 211.163 59.984 210.544 59.792C209.925 59.5893 209.44 59.3387 209.088 59.04L209.6 58.144C209.941 58.4 210.379 58.624 210.912 58.816C211.445 58.9973 212.005 59.088 212.592 59.088C213.392 59.088 213.968 58.9653 214.32 58.72C214.672 58.464 214.848 58.128 214.848 57.712C214.848 57.4027 214.747 57.1627 214.544 56.992C214.352 56.8107 214.096 56.6773 213.776 56.592C213.456 56.496 213.099 56.416 212.704 56.352C212.309 56.288 211.915 56.2133 211.52 56.128C211.136 56.0427 210.784 55.92 210.464 55.76C210.144 55.5893 209.883 55.36 209.68 55.072C209.488 54.784 209.392 54.4 209.392 53.92C209.392 53.4613 209.52 53.0507 209.776 52.688C210.032 52.3253 210.405 52.0427 210.896 51.84C211.397 51.6267 212.005 51.52 212.72 51.52C213.264 51.52 213.808 51.5947 214.352 51.744C214.896 51.8827 215.344 52.0693 215.696 52.304L215.2 53.216C214.827 52.96 214.427 52.7787 214 52.672C213.573 52.5547 213.147 52.496 212.72 52.496C211.963 52.496 211.403 52.6293 211.04 52.896C210.688 53.152 210.512 53.4827 210.512 53.888C210.512 54.208 210.608 54.4587 210.8 54.64C211.003 54.8213 211.264 54.9653 211.584 55.072C211.915 55.168 212.272 55.248 212.656 55.312C213.051 55.376 213.44 55.456 213.824 55.552C214.219 55.6373 214.576 55.76 214.896 55.92C215.227 56.0693 215.488 56.288 215.68 56.576C215.883 56.8533 215.984 57.2213 215.984 57.68C215.984 58.1707 215.845 58.5973 215.568 58.96C215.301 59.312 214.907 59.5893 214.384 59.792C213.872 59.984 213.248 60.08 212.512 60.08ZM227.52 60V58.144L227.472 57.84V54.736C227.472 54.0213 227.269 53.472 226.864 53.088C226.469 52.704 225.877 52.512 225.088 52.512C224.544 52.512 224.027 52.6027 223.536 52.784C223.045 52.9653 222.629 53.2053 222.288 53.504L221.776 52.656C222.203 52.2933 222.715 52.016 223.312 51.824C223.909 51.6213 224.539 51.52 225.2 51.52C226.288 51.52 227.125 51.792 227.712 52.336C228.309 52.8693 228.608 53.6853 228.608 54.784V60H227.52ZM224.624 60.08C223.995 60.08 223.445 59.9787 222.976 59.776C222.517 59.5627 222.165 59.2747 221.92 58.912C221.675 58.5387 221.552 58.112 221.552 57.632C221.552 57.1947 221.653 56.8 221.856 56.448C222.069 56.0853 222.411 55.7973 222.88 55.584C223.36 55.36 224 55.248 224.8 55.248H227.696V56.096H224.832C224.021 56.096 223.456 56.24 223.136 56.528C222.827 56.816 222.672 57.1733 222.672 57.6C222.672 58.08 222.859 58.464 223.232 58.752C223.605 59.04 224.128 59.184 224.8 59.184C225.44 59.184 225.989 59.04 226.448 58.752C226.917 58.4533 227.259 58.0267 227.472 57.472L227.728 58.256C227.515 58.8107 227.141 59.2533 226.608 59.584C226.085 59.9147 225.424 60.08 224.624 60.08ZM231.693 60V51.6H232.781V53.888L232.669 53.488C232.904 52.848 233.299 52.3627 233.853 52.032C234.408 51.6907 235.096 51.52 235.917 51.52V52.624C235.875 52.624 235.832 52.624 235.789 52.624C235.747 52.6133 235.704 52.608 235.661 52.608C234.776 52.608 234.083 52.88 233.581 53.424C233.08 53.9573 232.829 54.72 232.829 55.712V60H231.693ZM241.48 60.08C240.605 60.08 239.837 59.8987 239.176 59.536C238.515 59.1627 237.997 58.656 237.624 58.016C237.251 57.3653 237.064 56.624 237.064 55.792C237.064 54.96 237.24 54.224 237.592 53.584C237.955 52.944 238.445 52.4427 239.064 52.08C239.693 51.7067 240.397 51.52 241.176 51.52C241.965 51.52 242.664 51.7013 243.272 52.064C243.891 52.416 244.376 52.9173 244.728 53.568C245.08 54.208 245.256 54.9493 245.256 55.792C245.256 55.8453 245.251 55.904 245.24 55.968C245.24 56.0213 245.24 56.08 245.24 56.144H237.928V55.296H244.632L244.184 55.632C244.184 55.024 244.051 54.4853 243.784 54.016C243.528 53.536 243.176 53.1627 242.728 52.896C242.28 52.6293 241.763 52.496 241.176 52.496C240.6 52.496 240.083 52.6293 239.624 52.896C239.165 53.1627 238.808 53.536 238.552 54.016C238.296 54.496 238.168 55.0453 238.168 55.664V55.84C238.168 56.48 238.307 57.0453 238.584 57.536C238.872 58.016 239.267 58.3947 239.768 58.672C240.28 58.9387 240.861 59.072 241.512 59.072C242.024 59.072 242.499 58.9813 242.936 58.8C243.384 58.6187 243.768 58.3413 244.088 57.968L244.728 58.704C244.355 59.152 243.885 59.4933 243.32 59.728C242.765 59.9627 242.152 60.08 241.48 60.08ZM253.468 60L250.3 51.6H251.388L254.268 59.392H253.772L256.732 51.6H257.708L260.636 59.392H260.14L263.068 51.6H264.108L260.924 60H259.852L257.036 52.672H257.372L254.54 60H253.468ZM265.818 60V51.6H266.954V60H265.818ZM266.394 49.744C266.16 49.744 265.962 49.664 265.802 49.504C265.642 49.344 265.562 49.152 265.562 48.928C265.562 48.704 265.642 48.5173 265.802 48.368C265.962 48.208 266.16 48.128 266.394 48.128C266.629 48.128 266.826 48.2027 266.986 48.352C267.146 48.5013 267.226 48.688 267.226 48.912C267.226 49.1467 267.146 49.344 266.986 49.504C266.837 49.664 266.64 49.744 266.394 49.744ZM270.115 60V48.128H271.251V60H270.115ZM274.412 60V48.128H275.548V60H274.412ZM278.709 60V51.6H279.845V60H278.709ZM279.285 49.744C279.05 49.744 278.853 49.664 278.693 49.504C278.533 49.344 278.453 49.152 278.453 48.928C278.453 48.704 278.533 48.5173 278.693 48.368C278.853 48.208 279.05 48.128 279.285 48.128C279.52 48.128 279.717 48.2027 279.877 48.352C280.037 48.5013 280.117 48.688 280.117 48.912C280.117 49.1467 280.037 49.344 279.877 49.504C279.728 49.664 279.53 49.744 279.285 49.744ZM287.294 51.52C287.977 51.52 288.574 51.6533 289.086 51.92C289.609 52.176 290.014 52.5707 290.302 53.104C290.601 53.6373 290.75 54.3093 290.75 55.12V60H289.614V55.232C289.614 54.3467 289.39 53.68 288.942 53.232C288.505 52.7733 287.886 52.544 287.086 52.544C286.489 52.544 285.966 52.6667 285.518 52.912C285.081 53.1467 284.739 53.4933 284.494 53.952C284.259 54.4 284.142 54.944 284.142 55.584V60H283.006V51.6H284.094V53.904L283.918 53.472C284.185 52.864 284.611 52.3893 285.198 52.048C285.785 51.696 286.483 51.52 287.294 51.52ZM297.402 63.184C296.634 63.184 295.898 63.072 295.194 62.848C294.49 62.624 293.92 62.304 293.482 61.888L294.058 61.024C294.453 61.376 294.938 61.6533 295.514 61.856C296.101 62.0693 296.72 62.176 297.37 62.176C298.437 62.176 299.221 61.9253 299.722 61.424C300.224 60.9333 300.474 60.1653 300.474 59.12V57.024L300.634 55.584L300.522 54.144V51.6H301.61V58.976C301.61 60.4267 301.253 61.488 300.538 62.16C299.834 62.8427 298.789 63.184 297.402 63.184ZM297.194 59.68C296.394 59.68 295.674 59.5093 295.034 59.168C294.394 58.816 293.888 58.3307 293.514 57.712C293.152 57.0933 292.97 56.384 292.97 55.584C292.97 54.784 293.152 54.08 293.514 53.472C293.888 52.8533 294.394 52.3733 295.034 52.032C295.674 51.6907 296.394 51.52 297.194 51.52C297.941 51.52 298.613 51.6747 299.21 51.984C299.808 52.2933 300.282 52.752 300.634 53.36C300.986 53.968 301.162 54.7093 301.162 55.584C301.162 56.4587 300.986 57.2 300.634 57.808C300.282 58.416 299.808 58.88 299.21 59.2C298.613 59.52 297.941 59.68 297.194 59.68ZM297.306 58.672C297.925 58.672 298.474 58.544 298.954 58.288C299.434 58.0213 299.813 57.6587 300.09 57.2C300.368 56.7307 300.506 56.192 300.506 55.584C300.506 54.976 300.368 54.4427 300.09 53.984C299.813 53.5253 299.434 53.168 298.954 52.912C298.474 52.6453 297.925 52.512 297.306 52.512C296.698 52.512 296.149 52.6453 295.658 52.912C295.178 53.168 294.8 53.5253 294.522 53.984C294.256 54.4427 294.122 54.976 294.122 55.584C294.122 56.192 294.256 56.7307 294.522 57.2C294.8 57.6587 295.178 58.0213 295.658 58.288C296.149 58.544 296.698 58.672 297.306 58.672ZM311.615 60.08C310.826 60.08 310.218 59.8667 309.791 59.44C309.364 59.0133 309.151 58.4107 309.151 57.632V49.744H310.287V57.568C310.287 58.0587 310.41 58.4373 310.655 58.704C310.911 58.9707 311.274 59.104 311.743 59.104C312.244 59.104 312.66 58.96 312.991 58.672L313.391 59.488C313.167 59.6907 312.895 59.84 312.575 59.936C312.266 60.032 311.946 60.08 311.615 60.08ZM307.647 52.544V51.6H312.847V52.544H307.647ZM318.586 60.08C317.775 60.08 317.045 59.8987 316.394 59.536C315.754 59.1627 315.247 58.656 314.874 58.016C314.501 57.3653 314.314 56.624 314.314 55.792C314.314 54.9493 314.501 54.208 314.874 53.568C315.247 52.928 315.754 52.4267 316.394 52.064C317.034 51.7013 317.765 51.52 318.586 51.52C319.418 51.52 320.154 51.7013 320.794 52.064C321.445 52.4267 321.951 52.928 322.314 53.568C322.687 54.208 322.874 54.9493 322.874 55.792C322.874 56.624 322.687 57.3653 322.314 58.016C321.951 58.656 321.445 59.1627 320.794 59.536C320.143 59.8987 319.407 60.08 318.586 60.08ZM318.586 59.072C319.194 59.072 319.733 58.9387 320.202 58.672C320.671 58.3947 321.039 58.0107 321.306 57.52C321.583 57.0187 321.722 56.4427 321.722 55.792C321.722 55.1307 321.583 54.5547 321.306 54.064C321.039 53.5733 320.671 53.1947 320.202 52.928C319.733 52.6507 319.199 52.512 318.602 52.512C318.005 52.512 317.471 52.6507 317.002 52.928C316.533 53.1947 316.159 53.5733 315.882 54.064C315.605 54.5547 315.466 55.1307 315.466 55.792C315.466 56.4427 315.605 57.0187 315.882 57.52C316.159 58.0107 316.533 58.3947 317.002 58.672C317.471 58.9387 317.999 59.072 318.586 59.072ZM332.037 60.08C331.248 60.08 330.64 59.8667 330.213 59.44C329.786 59.0133 329.573 58.4107 329.573 57.632V49.744H330.709V57.568C330.709 58.0587 330.832 58.4373 331.077 58.704C331.333 58.9707 331.696 59.104 332.165 59.104C332.666 59.104 333.082 58.96 333.413 58.672L333.813 59.488C333.589 59.6907 333.317 59.84 332.997 59.936C332.688 60.032 332.368 60.08 332.037 60.08ZM328.069 52.544V51.6H333.269V52.544H328.069ZM339.353 60.08C338.638 60.08 338.014 59.9467 337.481 59.68C336.948 59.4133 336.532 59.0133 336.233 58.48C335.945 57.9467 335.801 57.28 335.801 56.48V51.6H336.937V56.352C336.937 57.248 337.156 57.9253 337.593 58.384C338.041 58.832 338.665 59.056 339.465 59.056C340.052 59.056 340.558 58.9387 340.985 58.704C341.422 58.4587 341.753 58.1067 341.977 57.648C342.212 57.1893 342.329 56.64 342.329 56V51.6H343.465V60H342.377V57.696L342.553 58.112C342.286 58.7307 341.87 59.216 341.305 59.568C340.75 59.9093 340.1 60.08 339.353 60.08ZM346.631 60V51.6H347.719V53.888L347.607 53.488C347.842 52.848 348.236 52.3627 348.791 52.032C349.346 51.6907 350.034 51.52 350.855 51.52V52.624C350.812 52.624 350.77 52.624 350.727 52.624C350.684 52.6133 350.642 52.608 350.599 52.608C349.714 52.608 349.02 52.88 348.519 53.424C348.018 53.9573 347.767 54.72 347.767 55.712V60H346.631ZM357.216 51.52C357.898 51.52 358.496 51.6533 359.008 51.92C359.53 52.176 359.936 52.5707 360.224 53.104C360.522 53.6373 360.672 54.3093 360.672 55.12V60H359.536V55.232C359.536 54.3467 359.312 53.68 358.864 53.232C358.426 52.7733 357.808 52.544 357.008 52.544C356.41 52.544 355.888 52.6667 355.44 52.912C355.002 53.1467 354.661 53.4933 354.416 53.952C354.181 54.4 354.064 54.944 354.064 55.584V60H352.928V51.6H354.016V53.904L353.84 53.472C354.106 52.864 354.533 52.3893 355.12 52.048C355.706 51.696 356.405 51.52 357.216 51.52ZM370.584 60.08C369.794 60.08 369.186 59.8667 368.76 59.44C368.333 59.0133 368.12 58.4107 368.12 57.632V49.744H369.256V57.568C369.256 58.0587 369.378 58.4373 369.624 58.704C369.88 58.9707 370.242 59.104 370.712 59.104C371.213 59.104 371.629 58.96 371.96 58.672L372.36 59.488C372.136 59.6907 371.864 59.84 371.544 59.936C371.234 60.032 370.914 60.08 370.584 60.08ZM366.616 52.544V51.6H371.816V52.544H366.616ZM377.555 60.08C376.744 60.08 376.014 59.8987 375.363 59.536C374.723 59.1627 374.216 58.656 373.843 58.016C373.47 57.3653 373.283 56.624 373.283 55.792C373.283 54.9493 373.47 54.208 373.843 53.568C374.216 52.928 374.723 52.4267 375.363 52.064C376.003 51.7013 376.734 51.52 377.555 51.52C378.387 51.52 379.123 51.7013 379.763 52.064C380.414 52.4267 380.92 52.928 381.283 53.568C381.656 54.208 381.843 54.9493 381.843 55.792C381.843 56.624 381.656 57.3653 381.283 58.016C380.92 58.656 380.414 59.1627 379.763 59.536C379.112 59.8987 378.376 60.08 377.555 60.08ZM377.555 59.072C378.163 59.072 378.702 58.9387 379.171 58.672C379.64 58.3947 380.008 58.0107 380.275 57.52C380.552 57.0187 380.691 56.4427 380.691 55.792C380.691 55.1307 380.552 54.5547 380.275 54.064C380.008 53.5733 379.64 53.1947 379.171 52.928C378.702 52.6507 378.168 52.512 377.571 52.512C376.974 52.512 376.44 52.6507 375.971 52.928C375.502 53.1947 375.128 53.5733 374.851 54.064C374.574 54.5547 374.435 55.1307 374.435 55.792C374.435 56.4427 374.574 57.0187 374.851 57.52C375.128 58.0107 375.502 58.3947 375.971 58.672C376.44 58.9387 376.968 59.072 377.555 59.072ZM392.686 60.08C391.95 60.08 391.288 59.9147 390.702 59.584C390.115 59.2427 389.651 58.752 389.31 58.112C388.968 57.472 388.798 56.6987 388.798 55.792C388.798 54.8747 388.968 54.1013 389.31 53.472C389.662 52.832 390.131 52.3467 390.718 52.016C391.304 51.6853 391.96 51.52 392.686 51.52C393.486 51.52 394.2 51.7013 394.83 52.064C395.47 52.416 395.971 52.912 396.334 53.552C396.696 54.192 396.878 54.9387 396.878 55.792C396.878 56.6347 396.696 57.3813 396.334 58.032C395.971 58.672 395.47 59.1733 394.83 59.536C394.2 59.8987 393.486 60.08 392.686 60.08ZM388.35 60V48.128H389.486V54.08L389.326 55.776L389.438 57.472V60H388.35ZM392.606 59.072C393.203 59.072 393.736 58.9387 394.206 58.672C394.675 58.3947 395.048 58.0107 395.326 57.52C395.603 57.0187 395.742 56.4427 395.742 55.792C395.742 55.1307 395.603 54.5547 395.326 54.064C395.048 53.5733 394.675 53.1947 394.206 52.928C393.736 52.6507 393.203 52.512 392.606 52.512C392.008 52.512 391.47 52.6507 390.99 52.928C390.52 53.1947 390.147 53.5733 389.87 54.064C389.603 54.5547 389.47 55.1307 389.47 55.792C389.47 56.4427 389.603 57.0187 389.87 57.52C390.147 58.0107 390.52 58.3947 390.99 58.672C391.47 58.9387 392.008 59.072 392.606 59.072ZM399.193 60V51.6H400.329V60H399.193ZM399.769 49.744C399.535 49.744 399.337 49.664 399.177 49.504C399.017 49.344 398.937 49.152 398.937 48.928C398.937 48.704 399.017 48.5173 399.177 48.368C399.337 48.208 399.535 48.128 399.769 48.128C400.004 48.128 400.201 48.2027 400.361 48.352C400.521 48.5013 400.601 48.688 400.601 48.912C400.601 49.1467 400.521 49.344 400.361 49.504C400.212 49.664 400.015 49.744 399.769 49.744ZM407.074 63.184C406.306 63.184 405.57 63.072 404.866 62.848C404.162 62.624 403.592 62.304 403.154 61.888L403.73 61.024C404.125 61.376 404.61 61.6533 405.186 61.856C405.773 62.0693 406.392 62.176 407.042 62.176C408.109 62.176 408.893 61.9253 409.394 61.424C409.896 60.9333 410.146 60.1653 410.146 59.12V57.024L410.306 55.584L410.194 54.144V51.6H411.282V58.976C411.282 60.4267 410.925 61.488 410.21 62.16C409.506 62.8427 408.461 63.184 407.074 63.184ZM406.866 59.68C406.066 59.68 405.346 59.5093 404.706 59.168C404.066 58.816 403.56 58.3307 403.186 57.712C402.824 57.0933 402.642 56.384 402.642 55.584C402.642 54.784 402.824 54.08 403.186 53.472C403.56 52.8533 404.066 52.3733 404.706 52.032C405.346 51.6907 406.066 51.52 406.866 51.52C407.613 51.52 408.285 51.6747 408.882 51.984C409.48 52.2933 409.954 52.752 410.306 53.36C410.658 53.968 410.834 54.7093 410.834 55.584C410.834 56.4587 410.658 57.2 410.306 57.808C409.954 58.416 409.48 58.88 408.882 59.2C408.285 59.52 407.613 59.68 406.866 59.68ZM406.978 58.672C407.597 58.672 408.146 58.544 408.626 58.288C409.106 58.0213 409.485 57.6587 409.762 57.2C410.04 56.7307 410.178 56.192 410.178 55.584C410.178 54.976 410.04 54.4427 409.762 53.984C409.485 53.5253 409.106 53.168 408.626 52.912C408.146 52.6453 407.597 52.512 406.978 52.512C406.37 52.512 405.821 52.6453 405.33 52.912C404.85 53.168 404.472 53.5253 404.194 53.984C403.928 54.4427 403.794 54.976 403.794 55.584C403.794 56.192 403.928 56.7307 404.194 57.2C404.472 57.6587 404.85 58.0213 405.33 58.288C405.821 58.544 406.37 58.672 406.978 58.672ZM97.24 80.08C96.4507 80.08 95.8427 79.8667 95.416 79.44C94.9893 79.0133 94.776 78.4107 94.776 77.632V69.744H95.912V77.568C95.912 78.0587 96.0347 78.4373 96.28 78.704C96.536 78.9707 96.8987 79.104 97.368 79.104C97.8693 79.104 98.2853 78.96 98.616 78.672L99.016 79.488C98.792 79.6907 98.52 79.84 98.2 79.936C97.8907 80.032 97.5707 80.08 97.24 80.08ZM93.272 72.544V71.6H98.472V72.544H93.272ZM104.355 80.08C103.48 80.08 102.712 79.8987 102.051 79.536C101.39 79.1627 100.872 78.656 100.499 78.016C100.126 77.3653 99.9391 76.624 99.9391 75.792C99.9391 74.96 100.115 74.224 100.467 73.584C100.83 72.944 101.32 72.4427 101.939 72.08C102.568 71.7067 103.272 71.52 104.051 71.52C104.84 71.52 105.539 71.7013 106.147 72.064C106.766 72.416 107.251 72.9173 107.603 73.568C107.955 74.208 108.131 74.9493 108.131 75.792C108.131 75.8453 108.126 75.904 108.115 75.968C108.115 76.0213 108.115 76.08 108.115 76.144H100.803V75.296H107.507L107.059 75.632C107.059 75.024 106.926 74.4853 106.659 74.016C106.403 73.536 106.051 73.1627 105.603 72.896C105.155 72.6293 104.638 72.496 104.051 72.496C103.475 72.496 102.958 72.6293 102.499 72.896C102.04 73.1627 101.683 73.536 101.427 74.016C101.171 74.496 101.043 75.0453 101.043 75.664V75.84C101.043 76.48 101.182 77.0453 101.459 77.536C101.747 78.016 102.142 78.3947 102.643 78.672C103.155 78.9387 103.736 79.072 104.387 79.072C104.899 79.072 105.374 78.9813 105.811 78.8C106.259 78.6187 106.643 78.3413 106.963 77.968L107.603 78.704C107.23 79.152 106.76 79.4933 106.195 79.728C105.64 79.9627 105.027 80.08 104.355 80.08ZM113.931 80.08C113.099 80.08 112.353 79.8987 111.691 79.536C111.041 79.1627 110.529 78.656 110.155 78.016C109.782 77.3653 109.595 76.624 109.595 75.792C109.595 74.9493 109.782 74.208 110.155 73.568C110.529 72.928 111.041 72.4267 111.691 72.064C112.353 71.7013 113.099 71.52 113.931 71.52C114.646 71.52 115.291 71.6587 115.867 71.936C116.443 72.2133 116.897 72.6293 117.227 73.184L116.379 73.76C116.091 73.3333 115.734 73.0187 115.307 72.816C114.881 72.6133 114.417 72.512 113.915 72.512C113.318 72.512 112.779 72.6507 112.299 72.928C111.819 73.1947 111.441 73.5733 111.163 74.064C110.886 74.5547 110.747 75.1307 110.747 75.792C110.747 76.4533 110.886 77.0293 111.163 77.52C111.441 78.0107 111.819 78.3947 112.299 78.672C112.779 78.9387 113.318 79.072 113.915 79.072C114.417 79.072 114.881 78.9707 115.307 78.768C115.734 78.5653 116.091 78.256 116.379 77.84L117.227 78.416C116.897 78.96 116.443 79.376 115.867 79.664C115.291 79.9413 114.646 80.08 113.931 80.08ZM123.622 71.52C124.305 71.52 124.902 71.6533 125.414 71.92C125.937 72.176 126.342 72.5707 126.63 73.104C126.929 73.6373 127.078 74.3093 127.078 75.12V80H125.942V75.232C125.942 74.3467 125.718 73.68 125.27 73.232C124.833 72.7733 124.214 72.544 123.414 72.544C122.817 72.544 122.294 72.6667 121.846 72.912C121.409 73.1467 121.067 73.4933 120.822 73.952C120.587 74.4 120.47 74.944 120.47 75.584V80H119.334V68.128H120.47V73.904L120.246 73.472C120.513 72.864 120.939 72.3893 121.526 72.048C122.113 71.696 122.811 71.52 123.622 71.52ZM139.598 80V78.144L139.55 77.84V74.736C139.55 74.0213 139.347 73.472 138.942 73.088C138.547 72.704 137.955 72.512 137.166 72.512C136.622 72.512 136.105 72.6027 135.614 72.784C135.123 72.9653 134.707 73.2053 134.366 73.504L133.854 72.656C134.281 72.2933 134.793 72.016 135.39 71.824C135.987 71.6213 136.617 71.52 137.278 71.52C138.366 71.52 139.203 71.792 139.79 72.336C140.387 72.8693 140.686 73.6853 140.686 74.784V80H139.598ZM136.702 80.08C136.073 80.08 135.523 79.9787 135.054 79.776C134.595 79.5627 134.243 79.2747 133.998 78.912C133.753 78.5387 133.63 78.112 133.63 77.632C133.63 77.1947 133.731 76.8 133.934 76.448C134.147 76.0853 134.489 75.7973 134.958 75.584C135.438 75.36 136.078 75.248 136.878 75.248H139.774V76.096H136.91C136.099 76.096 135.534 76.24 135.214 76.528C134.905 76.816 134.75 77.1733 134.75 77.6C134.75 78.08 134.937 78.464 135.31 78.752C135.683 79.04 136.206 79.184 136.878 79.184C137.518 79.184 138.067 79.04 138.526 78.752C138.995 78.4533 139.337 78.0267 139.55 77.472L139.806 78.256C139.593 78.8107 139.219 79.2533 138.686 79.584C138.163 79.9147 137.502 80.08 136.702 80.08ZM148.06 71.52C148.742 71.52 149.34 71.6533 149.852 71.92C150.374 72.176 150.78 72.5707 151.068 73.104C151.366 73.6373 151.516 74.3093 151.516 75.12V80H150.38V75.232C150.38 74.3467 150.156 73.68 149.708 73.232C149.27 72.7733 148.652 72.544 147.852 72.544C147.254 72.544 146.732 72.6667 146.284 72.912C145.846 73.1467 145.505 73.4933 145.26 73.952C145.025 74.4 144.908 74.944 144.908 75.584V80H143.772V71.6H144.86V73.904L144.684 73.472C144.95 72.864 145.377 72.3893 145.964 72.048C146.55 71.696 147.249 71.52 148.06 71.52ZM157.928 80.08C157.128 80.08 156.408 79.8987 155.768 79.536C155.139 79.1733 154.643 78.672 154.28 78.032C153.917 77.3813 153.736 76.6347 153.736 75.792C153.736 74.9387 153.917 74.192 154.28 73.552C154.643 72.912 155.139 72.416 155.768 72.064C156.408 71.7013 157.128 71.52 157.928 71.52C158.664 71.52 159.32 71.6853 159.896 72.016C160.483 72.3467 160.947 72.832 161.288 73.472C161.64 74.1013 161.816 74.8747 161.816 75.792C161.816 76.6987 161.645 77.472 161.304 78.112C160.963 78.752 160.499 79.2427 159.912 79.584C159.336 79.9147 158.675 80.08 157.928 80.08ZM158.008 79.072C158.605 79.072 159.139 78.9387 159.608 78.672C160.088 78.3947 160.461 78.0107 160.728 77.52C161.005 77.0187 161.144 76.4427 161.144 75.792C161.144 75.1307 161.005 74.5547 160.728 74.064C160.461 73.5733 160.088 73.1947 159.608 72.928C159.139 72.6507 158.605 72.512 158.008 72.512C157.421 72.512 156.893 72.6507 156.424 72.928C155.955 73.1947 155.581 73.5733 155.304 74.064C155.027 74.5547 154.888 75.1307 154.888 75.792C154.888 76.4427 155.027 77.0187 155.304 77.52C155.581 78.0107 155.955 78.3947 156.424 78.672C156.893 78.9387 157.421 79.072 158.008 79.072ZM161.176 80V77.472L161.288 75.776L161.128 74.08V68.128H162.264V80H161.176ZM173.903 71.52C174.586 71.52 175.183 71.6533 175.695 71.92C176.218 72.176 176.623 72.5707 176.911 73.104C177.21 73.6373 177.359 74.3093 177.359 75.12V80H176.223V75.232C176.223 74.3467 175.999 73.68 175.551 73.232C175.114 72.7733 174.495 72.544 173.695 72.544C173.098 72.544 172.575 72.6667 172.127 72.912C171.69 73.1467 171.349 73.4933 171.103 73.952C170.869 74.4 170.751 74.944 170.751 75.584V80H169.615V71.6H170.703V73.904L170.527 73.472C170.794 72.864 171.221 72.3893 171.807 72.048C172.394 71.696 173.093 71.52 173.903 71.52ZM183.852 80.08C183.041 80.08 182.31 79.8987 181.66 79.536C181.02 79.1627 180.513 78.656 180.14 78.016C179.766 77.3653 179.58 76.624 179.58 75.792C179.58 74.9493 179.766 74.208 180.14 73.568C180.513 72.928 181.02 72.4267 181.66 72.064C182.3 71.7013 183.03 71.52 183.852 71.52C184.684 71.52 185.42 71.7013 186.06 72.064C186.71 72.4267 187.217 72.928 187.58 73.568C187.953 74.208 188.14 74.9493 188.14 75.792C188.14 76.624 187.953 77.3653 187.58 78.016C187.217 78.656 186.71 79.1627 186.06 79.536C185.409 79.8987 184.673 80.08 183.852 80.08ZM183.852 79.072C184.46 79.072 184.998 78.9387 185.468 78.672C185.937 78.3947 186.305 78.0107 186.572 77.52C186.849 77.0187 186.988 76.4427 186.988 75.792C186.988 75.1307 186.849 74.5547 186.572 74.064C186.305 73.5733 185.937 73.1947 185.468 72.928C184.998 72.6507 184.465 72.512 183.868 72.512C183.27 72.512 182.737 72.6507 182.268 72.928C181.798 73.1947 181.425 73.5733 181.148 74.064C180.87 74.5547 180.732 75.1307 180.732 75.792C180.732 76.4427 180.87 77.0187 181.148 77.52C181.425 78.0107 181.798 78.3947 182.268 78.672C182.737 78.9387 183.265 79.072 183.852 79.072ZM194.747 71.52C195.43 71.52 196.027 71.6533 196.539 71.92C197.062 72.176 197.467 72.5707 197.755 73.104C198.054 73.6373 198.203 74.3093 198.203 75.12V80H197.067V75.232C197.067 74.3467 196.843 73.68 196.395 73.232C195.958 72.7733 195.339 72.544 194.539 72.544C193.942 72.544 193.419 72.6667 192.971 72.912C192.534 73.1467 192.192 73.4933 191.947 73.952C191.712 74.4 191.595 74.944 191.595 75.584V80H190.459V71.6H191.547V73.904L191.371 73.472C191.638 72.864 192.064 72.3893 192.651 72.048C193.238 71.696 193.936 71.52 194.747 71.52ZM205.608 80.08C204.872 80.08 204.21 79.9147 203.624 79.584C203.037 79.2427 202.573 78.752 202.232 78.112C201.89 77.472 201.72 76.6987 201.72 75.792C201.72 74.8747 201.89 74.1013 202.232 73.472C202.584 72.832 203.053 72.3467 203.64 72.016C204.226 71.6853 204.882 71.52 205.608 71.52C206.408 71.52 207.122 71.7013 207.752 72.064C208.392 72.416 208.893 72.912 209.256 73.552C209.618 74.192 209.8 74.9387 209.8 75.792C209.8 76.6347 209.618 77.3813 209.256 78.032C208.893 78.672 208.392 79.1733 207.752 79.536C207.122 79.8987 206.408 80.08 205.608 80.08ZM201.272 80V68.128H202.408V74.08L202.248 75.776L202.36 77.472V80H201.272ZM205.528 79.072C206.125 79.072 206.658 78.9387 207.128 78.672C207.597 78.3947 207.97 78.0107 208.248 77.52C208.525 77.0187 208.664 76.4427 208.664 75.792C208.664 75.1307 208.525 74.5547 208.248 74.064C207.97 73.5733 207.597 73.1947 207.128 72.928C206.658 72.6507 206.125 72.512 205.528 72.512C204.93 72.512 204.392 72.6507 203.911 72.928C203.442 73.1947 203.069 73.5733 202.792 74.064C202.525 74.5547 202.392 75.1307 202.392 75.792C202.392 76.4427 202.525 77.0187 202.792 77.52C203.069 78.0107 203.442 78.3947 203.911 78.672C204.392 78.9387 204.93 79.072 205.528 79.072ZM217.332 80V78.144L217.284 77.84V74.736C217.284 74.0213 217.082 73.472 216.676 73.088C216.282 72.704 215.69 72.512 214.9 72.512C214.356 72.512 213.839 72.6027 213.348 72.784C212.858 72.9653 212.442 73.2053 212.1 73.504L211.588 72.656C212.015 72.2933 212.527 72.016 213.124 71.824C213.722 71.6213 214.351 71.52 215.012 71.52C216.1 71.52 216.938 71.792 217.524 72.336C218.122 72.8693 218.42 73.6853 218.42 74.784V80H217.332ZM214.436 80.08C213.807 80.08 213.258 79.9787 212.788 79.776C212.33 79.5627 211.978 79.2747 211.732 78.912C211.487 78.5387 211.364 78.112 211.364 77.632C211.364 77.1947 211.466 76.8 211.668 76.448C211.882 76.0853 212.223 75.7973 212.692 75.584C213.172 75.36 213.812 75.248 214.612 75.248H217.508V76.096H214.644C213.834 76.096 213.268 76.24 212.948 76.528C212.639 76.816 212.484 77.1733 212.484 77.6C212.484 78.08 212.671 78.464 213.044 78.752C213.418 79.04 213.94 79.184 214.612 79.184C215.252 79.184 215.802 79.04 216.26 78.752C216.73 78.4533 217.071 78.0267 217.284 77.472L217.54 78.256C217.327 78.8107 216.954 79.2533 216.42 79.584C215.898 79.9147 215.236 80.08 214.436 80.08ZM225.794 71.52C226.477 71.52 227.074 71.6533 227.586 71.92C228.109 72.176 228.514 72.5707 228.802 73.104C229.101 73.6373 229.25 74.3093 229.25 75.12V80H228.114V75.232C228.114 74.3467 227.89 73.68 227.442 73.232C227.005 72.7733 226.386 72.544 225.586 72.544C224.989 72.544 224.466 72.6667 224.018 72.912C223.581 73.1467 223.239 73.4933 222.994 73.952C222.759 74.4 222.642 74.944 222.642 75.584V80H221.506V71.6H222.594V73.904L222.418 73.472C222.685 72.864 223.111 72.3893 223.698 72.048C224.285 71.696 224.983 71.52 225.794 71.52ZM233.214 77.824L233.246 76.368L238.478 71.6H239.87L236.174 75.136L235.534 75.68L233.214 77.824ZM232.318 80V68.128H233.454V80H232.318ZM238.83 80L235.326 75.632L236.062 74.752L240.222 80H238.83ZM243.934 80.08C243.24 80.08 242.584 79.984 241.966 79.792C241.347 79.5893 240.862 79.3387 240.51 79.04L241.022 78.144C241.363 78.4 241.8 78.624 242.334 78.816C242.867 78.9973 243.427 79.088 244.014 79.088C244.814 79.088 245.39 78.9653 245.742 78.72C246.094 78.464 246.27 78.128 246.27 77.712C246.27 77.4027 246.168 77.1627 245.966 76.992C245.774 76.8107 245.518 76.6773 245.198 76.592C244.878 76.496 244.52 76.416 244.126 76.352C243.731 76.288 243.336 76.2133 242.942 76.128C242.558 76.0427 242.206 75.92 241.886 75.76C241.566 75.5893 241.304 75.36 241.102 75.072C240.91 74.784 240.814 74.4 240.814 73.92C240.814 73.4613 240.942 73.0507 241.198 72.688C241.454 72.3253 241.827 72.0427 242.318 71.84C242.819 71.6267 243.427 71.52 244.142 71.52C244.686 71.52 245.23 71.5947 245.774 71.744C246.318 71.8827 246.766 72.0693 247.118 72.304L246.622 73.216C246.248 72.96 245.848 72.7787 245.422 72.672C244.995 72.5547 244.568 72.496 244.142 72.496C243.384 72.496 242.824 72.6293 242.462 72.896C242.11 73.152 241.934 73.4827 241.934 73.888C241.934 74.208 242.03 74.4587 242.222 74.64C242.424 74.8213 242.686 74.9653 243.006 75.072C243.336 75.168 243.694 75.248 244.078 75.312C244.472 75.376 244.862 75.456 245.246 75.552C245.64 75.6373 245.998 75.76 246.318 75.92C246.648 76.0693 246.91 76.288 247.102 76.576C247.304 76.8533 247.406 77.2213 247.406 77.68C247.406 78.1707 247.267 78.5973 246.99 78.96C246.723 79.312 246.328 79.5893 245.806 79.792C245.294 79.984 244.67 80.08 243.934 80.08ZM253.87 80V70.544C253.87 69.7973 254.088 69.1947 254.526 68.736C254.963 68.2773 255.592 68.048 256.414 68.048C256.734 68.048 257.043 68.0907 257.342 68.176C257.64 68.2613 257.891 68.3947 258.094 68.576L257.71 69.424C257.55 69.2853 257.363 69.184 257.15 69.12C256.936 69.0453 256.707 69.008 256.462 69.008C255.982 69.008 255.614 69.1413 255.358 69.408C255.102 69.6747 254.974 70.0693 254.974 70.592V71.872L255.006 72.4V80H253.87ZM252.366 72.544V71.6H257.566V72.544H252.366ZM262.383 80.08C261.572 80.08 260.842 79.8987 260.191 79.536C259.551 79.1627 259.044 78.656 258.671 78.016C258.298 77.3653 258.111 76.624 258.111 75.792C258.111 74.9493 258.298 74.208 258.671 73.568C259.044 72.928 259.551 72.4267 260.191 72.064C260.831 71.7013 261.562 71.52 262.383 71.52C263.215 71.52 263.951 71.7013 264.591 72.064C265.242 72.4267 265.748 72.928 266.111 73.568C266.484 74.208 266.671 74.9493 266.671 75.792C266.671 76.624 266.484 77.3653 266.111 78.016C265.748 78.656 265.242 79.1627 264.591 79.536C263.94 79.8987 263.204 80.08 262.383 80.08ZM262.383 79.072C262.991 79.072 263.53 78.9387 263.999 78.672C264.468 78.3947 264.836 78.0107 265.103 77.52C265.38 77.0187 265.519 76.4427 265.519 75.792C265.519 75.1307 265.38 74.5547 265.103 74.064C264.836 73.5733 264.468 73.1947 263.999 72.928C263.53 72.6507 262.996 72.512 262.399 72.512C261.802 72.512 261.268 72.6507 260.799 72.928C260.33 73.1947 259.956 73.5733 259.679 74.064C259.402 74.5547 259.263 75.1307 259.263 75.792C259.263 76.4427 259.402 77.0187 259.679 77.52C259.956 78.0107 260.33 78.3947 260.799 78.672C261.268 78.9387 261.796 79.072 262.383 79.072ZM268.99 80V71.6H270.078V73.888L269.966 73.488C270.201 72.848 270.596 72.3627 271.15 72.032C271.705 71.6907 272.393 71.52 273.214 71.52V72.624C273.172 72.624 273.129 72.624 273.086 72.624C273.044 72.6133 273.001 72.608 272.958 72.608C272.073 72.608 271.38 72.88 270.878 73.424C270.377 73.9573 270.126 74.72 270.126 75.712V80H268.99ZM283.936 80.08C283.2 80.08 282.538 79.9147 281.952 79.584C281.365 79.2427 280.901 78.752 280.56 78.112C280.218 77.472 280.048 76.6987 280.048 75.792C280.048 74.8747 280.218 74.1013 280.56 73.472C280.912 72.832 281.381 72.3467 281.968 72.016C282.554 71.6853 283.21 71.52 283.936 71.52C284.736 71.52 285.45 71.7013 286.08 72.064C286.72 72.416 287.221 72.912 287.584 73.552C287.946 74.192 288.128 74.9387 288.128 75.792C288.128 76.6347 287.946 77.3813 287.584 78.032C287.221 78.672 286.72 79.1733 286.08 79.536C285.45 79.8987 284.736 80.08 283.936 80.08ZM279.6 80V68.128H280.736V74.08L280.576 75.776L280.688 77.472V80H279.6ZM283.856 79.072C284.453 79.072 284.986 78.9387 285.456 78.672C285.925 78.3947 286.298 78.0107 286.576 77.52C286.853 77.0187 286.992 76.4427 286.992 75.792C286.992 75.1307 286.853 74.5547 286.576 74.064C286.298 73.5733 285.925 73.1947 285.456 72.928C284.986 72.6507 284.453 72.512 283.856 72.512C283.258 72.512 282.72 72.6507 282.24 72.928C281.77 73.1947 281.397 73.5733 281.12 74.064C280.853 74.5547 280.72 75.1307 280.72 75.792C280.72 76.4427 280.853 77.0187 281.12 77.52C281.397 78.0107 281.77 78.3947 282.24 78.672C282.72 78.9387 283.258 79.072 283.856 79.072ZM294.011 80.08C293.137 80.08 292.369 79.8987 291.707 79.536C291.046 79.1627 290.529 78.656 290.155 78.016C289.782 77.3653 289.595 76.624 289.595 75.792C289.595 74.96 289.771 74.224 290.123 73.584C290.486 72.944 290.977 72.4427 291.595 72.08C292.225 71.7067 292.929 71.52 293.707 71.52C294.497 71.52 295.195 71.7013 295.803 72.064C296.422 72.416 296.907 72.9173 297.259 73.568C297.611 74.208 297.787 74.9493 297.787 75.792C297.787 75.8453 297.782 75.904 297.771 75.968C297.771 76.0213 297.771 76.08 297.771 76.144H290.459V75.296H297.163L296.715 75.632C296.715 75.024 296.582 74.4853 296.315 74.016C296.059 73.536 295.707 73.1627 295.259 72.896C294.811 72.6293 294.294 72.496 293.707 72.496C293.131 72.496 292.614 72.6293 292.155 72.896C291.697 73.1627 291.339 73.536 291.083 74.016C290.827 74.496 290.699 75.0453 290.699 75.664V75.84C290.699 76.48 290.838 77.0453 291.115 77.536C291.403 78.016 291.798 78.3947 292.299 78.672C292.811 78.9387 293.393 79.072 294.043 79.072C294.555 79.072 295.03 78.9813 295.467 78.8C295.915 78.6187 296.299 78.3413 296.619 77.968L297.259 78.704C296.886 79.152 296.417 79.4933 295.851 79.728C295.297 79.9627 294.683 80.08 294.011 80.08ZM302.756 80.08C301.966 80.08 301.358 79.8667 300.932 79.44C300.505 79.0133 300.292 78.4107 300.292 77.632V69.744H301.428V77.568C301.428 78.0587 301.55 78.4373 301.796 78.704C302.052 78.9707 302.414 79.104 302.884 79.104C303.385 79.104 303.801 78.96 304.132 78.672L304.532 79.488C304.308 79.6907 304.036 79.84 303.716 79.936C303.406 80.032 303.086 80.08 302.756 80.08ZM298.788 72.544V71.6H303.988V72.544H298.788ZM309.037 80.08C308.248 80.08 307.64 79.8667 307.213 79.44C306.786 79.0133 306.573 78.4107 306.573 77.632V69.744H307.709V77.568C307.709 78.0587 307.832 78.4373 308.077 78.704C308.333 78.9707 308.696 79.104 309.165 79.104C309.666 79.104 310.082 78.96 310.413 78.672L310.813 79.488C310.589 79.6907 310.317 79.84 309.997 79.936C309.688 80.032 309.368 80.08 309.037 80.08ZM305.069 72.544V71.6H310.269V72.544H305.069ZM316.152 80.08C315.277 80.08 314.509 79.8987 313.848 79.536C313.187 79.1627 312.669 78.656 312.296 78.016C311.923 77.3653 311.736 76.624 311.736 75.792C311.736 74.96 311.912 74.224 312.264 73.584C312.627 72.944 313.117 72.4427 313.736 72.08C314.365 71.7067 315.069 71.52 315.848 71.52C316.637 71.52 317.336 71.7013 317.944 72.064C318.563 72.416 319.048 72.9173 319.4 73.568C319.752 74.208 319.928 74.9493 319.928 75.792C319.928 75.8453 319.923 75.904 319.912 75.968C319.912 76.0213 319.912 76.08 319.912 76.144H312.6V75.296H319.304L318.856 75.632C318.856 75.024 318.723 74.4853 318.456 74.016C318.2 73.536 317.848 73.1627 317.4 72.896C316.952 72.6293 316.435 72.496 315.848 72.496C315.272 72.496 314.755 72.6293 314.296 72.896C313.837 73.1627 313.48 73.536 313.224 74.016C312.968 74.496 312.84 75.0453 312.84 75.664V75.84C312.84 76.48 312.979 77.0453 313.256 77.536C313.544 78.016 313.939 78.3947 314.44 78.672C314.952 78.9387 315.533 79.072 316.184 79.072C316.696 79.072 317.171 78.9813 317.608 78.8C318.056 78.6187 318.44 78.3413 318.76 77.968L319.4 78.704C319.027 79.152 318.557 79.4933 317.992 79.728C317.437 79.9627 316.824 80.08 316.152 80.08ZM322.24 80V71.6H323.328V73.888L323.216 73.488C323.451 72.848 323.846 72.3627 324.4 72.032C324.955 71.6907 325.643 71.52 326.464 71.52V72.624C326.422 72.624 326.379 72.624 326.336 72.624C326.294 72.6133 326.251 72.608 326.208 72.608C325.323 72.608 324.63 72.88 324.128 73.424C323.627 73.9573 323.376 74.72 323.376 75.712V80H322.24ZM337.186 80.08C336.45 80.08 335.788 79.9147 335.202 79.584C334.615 79.2427 334.151 78.752 333.81 78.112C333.468 77.472 333.298 76.6987 333.298 75.792C333.298 74.8747 333.468 74.1013 333.81 73.472C334.162 72.832 334.631 72.3467 335.218 72.016C335.804 71.6853 336.46 71.52 337.186 71.52C337.986 71.52 338.7 71.7013 339.33 72.064C339.97 72.416 340.471 72.912 340.834 73.552C341.196 74.192 341.378 74.9387 341.378 75.792C341.378 76.6347 341.196 77.3813 340.834 78.032C340.471 78.672 339.97 79.1733 339.33 79.536C338.7 79.8987 337.986 80.08 337.186 80.08ZM332.85 80V68.128H333.986V74.08L333.826 75.776L333.938 77.472V80H332.85ZM337.106 79.072C337.703 79.072 338.236 78.9387 338.706 78.672C339.175 78.3947 339.548 78.0107 339.826 77.52C340.103 77.0187 340.242 76.4427 340.242 75.792C340.242 75.1307 340.103 74.5547 339.826 74.064C339.548 73.5733 339.175 73.1947 338.706 72.928C338.236 72.6507 337.703 72.512 337.106 72.512C336.508 72.512 335.97 72.6507 335.49 72.928C335.02 73.1947 334.647 73.5733 334.37 74.064C334.103 74.5547 333.97 75.1307 333.97 75.792C333.97 76.4427 334.103 77.0187 334.37 77.52C334.647 78.0107 335.02 78.3947 335.49 78.672C335.97 78.9387 336.508 79.072 337.106 79.072ZM348.911 80V78.144L348.863 77.84V74.736C348.863 74.0213 348.66 73.472 348.255 73.088C347.86 72.704 347.268 72.512 346.479 72.512C345.935 72.512 345.417 72.6027 344.927 72.784C344.436 72.9653 344.02 73.2053 343.679 73.504L343.167 72.656C343.593 72.2933 344.105 72.016 344.703 71.824C345.3 71.6213 345.929 71.52 346.591 71.52C347.679 71.52 348.516 71.792 349.103 72.336C349.7 72.8693 349.999 73.6853 349.999 74.784V80H348.911ZM346.015 80.08C345.385 80.08 344.836 79.9787 344.367 79.776C343.908 79.5627 343.556 79.2747 343.311 78.912C343.065 78.5387 342.943 78.112 342.943 77.632C342.943 77.1947 343.044 76.8 343.247 76.448C343.46 76.0853 343.801 75.7973 344.271 75.584C344.751 75.36 345.391 75.248 346.191 75.248H349.087V76.096H346.223C345.412 76.096 344.847 76.24 344.527 76.528C344.217 76.816 344.062 77.1733 344.062 77.6C344.062 78.08 344.249 78.464 344.623 78.752C344.996 79.04 345.519 79.184 346.191 79.184C346.831 79.184 347.38 79.04 347.839 78.752C348.308 78.4533 348.649 78.0267 348.863 77.472L349.119 78.256C348.905 78.8107 348.532 79.2533 347.999 79.584C347.476 79.9147 346.815 80.08 346.015 80.08ZM357.372 71.52C358.055 71.52 358.652 71.6533 359.164 71.92C359.687 72.176 360.092 72.5707 360.38 73.104C360.679 73.6373 360.828 74.3093 360.828 75.12V80H359.692V75.232C359.692 74.3467 359.468 73.68 359.02 73.232C358.583 72.7733 357.964 72.544 357.164 72.544C356.567 72.544 356.044 72.6667 355.596 72.912C355.159 73.1467 354.817 73.4933 354.572 73.952C354.337 74.4 354.22 74.944 354.22 75.584V80H353.084V71.6H354.172V73.904L353.996 73.472C354.263 72.864 354.689 72.3893 355.276 72.048C355.863 71.696 356.561 71.52 357.372 71.52ZM364.793 77.824L364.825 76.368L370.057 71.6H371.449L367.753 75.136L367.113 75.68L364.793 77.824ZM363.897 80V68.128H365.033V80H363.897ZM370.409 80L366.905 75.632L367.641 74.752L371.801 80H370.409ZM373.506 80V71.6H374.642V80H373.506ZM374.082 69.744C373.847 69.744 373.65 69.664 373.49 69.504C373.33 69.344 373.25 69.152 373.25 68.928C373.25 68.704 373.33 68.5173 373.49 68.368C373.65 68.208 373.847 68.128 374.082 68.128C374.317 68.128 374.514 68.2027 374.674 68.352C374.834 68.5013 374.914 68.688 374.914 68.912C374.914 69.1467 374.834 69.344 374.674 69.504C374.525 69.664 374.327 69.744 374.082 69.744ZM382.091 71.52C382.773 71.52 383.371 71.6533 383.883 71.92C384.405 72.176 384.811 72.5707 385.099 73.104C385.397 73.6373 385.547 74.3093 385.547 75.12V80H384.411V75.232C384.411 74.3467 384.187 73.68 383.739 73.232C383.301 72.7733 382.683 72.544 381.883 72.544C381.285 72.544 380.763 72.6667 380.315 72.912C379.877 73.1467 379.536 73.4933 379.291 73.952C379.056 74.4 378.939 74.944 378.939 75.584V80H377.803V71.6H378.891V73.904L378.715 73.472C378.981 72.864 379.408 72.3893 379.995 72.048C380.581 71.696 381.28 71.52 382.091 71.52ZM392.199 83.184C391.431 83.184 390.695 83.072 389.991 82.848C389.287 82.624 388.717 82.304 388.279 81.888L388.855 81.024C389.25 81.376 389.735 81.6533 390.311 81.856C390.898 82.0693 391.517 82.176 392.167 82.176C393.234 82.176 394.018 81.9253 394.519 81.424C395.021 80.9333 395.271 80.1653 395.271 79.12V77.024L395.431 75.584L395.319 74.144V71.6H396.407V78.976C396.407 80.4267 396.05 81.488 395.335 82.16C394.631 82.8427 393.586 83.184 392.199 83.184ZM391.991 79.68C391.191 79.68 390.471 79.5093 389.831 79.168C389.191 78.816 388.685 78.3307 388.311 77.712C387.949 77.0933 387.767 76.384 387.767 75.584C387.767 74.784 387.949 74.08 388.311 73.472C388.685 72.8533 389.191 72.3733 389.831 72.032C390.471 71.6907 391.191 71.52 391.991 71.52C392.738 71.52 393.41 71.6747 394.007 71.984C394.605 72.2933 395.079 72.752 395.431 73.36C395.783 73.968 395.959 74.7093 395.959 75.584C395.959 76.4587 395.783 77.2 395.431 77.808C395.079 78.416 394.605 78.88 394.007 79.2C393.41 79.52 392.738 79.68 391.991 79.68ZM392.103 78.672C392.722 78.672 393.271 78.544 393.751 78.288C394.231 78.0213 394.61 77.6587 394.887 77.2C395.165 76.7307 395.303 76.192 395.303 75.584C395.303 74.976 395.165 74.4427 394.887 73.984C394.61 73.5253 394.231 73.168 393.751 72.912C393.271 72.6453 392.722 72.512 392.103 72.512C391.495 72.512 390.946 72.6453 390.455 72.912C389.975 73.168 389.597 73.5253 389.319 73.984C389.053 74.4427 388.919 74.976 388.919 75.584C388.919 76.192 389.053 76.7307 389.319 77.2C389.597 77.6587 389.975 78.0213 390.455 78.288C390.946 78.544 391.495 78.672 392.103 78.672ZM97.24 100.08C96.4507 100.08 95.8427 99.8667 95.416 99.44C94.9893 99.0133 94.776 98.4107 94.776 97.632V89.744H95.912V97.568C95.912 98.0587 96.0347 98.4373 96.28 98.704C96.536 98.9707 96.8987 99.104 97.368 99.104C97.8693 99.104 98.2853 98.96 98.616 98.672L99.016 99.488C98.792 99.6907 98.52 99.84 98.2 99.936C97.8907 100.032 97.5707 100.08 97.24 100.08ZM93.272 92.544V91.6H98.472V92.544H93.272ZM104.355 100.08C103.48 100.08 102.712 99.8987 102.051 99.536C101.39 99.1627 100.872 98.656 100.499 98.016C100.126 97.3653 99.9391 96.624 99.9391 95.792C99.9391 94.96 100.115 94.224 100.467 93.584C100.83 92.944 101.32 92.4427 101.939 92.08C102.568 91.7067 103.272 91.52 104.051 91.52C104.84 91.52 105.539 91.7013 106.147 92.064C106.766 92.416 107.251 92.9173 107.603 93.568C107.955 94.208 108.131 94.9493 108.131 95.792C108.131 95.8453 108.126 95.904 108.115 95.968C108.115 96.0213 108.115 96.08 108.115 96.144H100.803V95.296H107.507L107.059 95.632C107.059 95.024 106.926 94.4853 106.659 94.016C106.403 93.536 106.051 93.1627 105.603 92.896C105.155 92.6293 104.638 92.496 104.051 92.496C103.475 92.496 102.958 92.6293 102.499 92.896C102.04 93.1627 101.683 93.536 101.427 94.016C101.171 94.496 101.043 95.0453 101.043 95.664V95.84C101.043 96.48 101.182 97.0453 101.459 97.536C101.747 98.016 102.142 98.3947 102.643 98.672C103.155 98.9387 103.736 99.072 104.387 99.072C104.899 99.072 105.374 98.9813 105.811 98.8C106.259 98.6187 106.643 98.3413 106.963 97.968L107.603 98.704C107.23 99.152 106.76 99.4933 106.195 99.728C105.64 99.9627 105.027 100.08 104.355 100.08ZM113.931 100.08C113.099 100.08 112.353 99.8987 111.691 99.536C111.041 99.1627 110.529 98.656 110.155 98.016C109.782 97.3653 109.595 96.624 109.595 95.792C109.595 94.9493 109.782 94.208 110.155 93.568C110.529 92.928 111.041 92.4267 111.691 92.064C112.353 91.7013 113.099 91.52 113.931 91.52C114.646 91.52 115.291 91.6587 115.867 91.936C116.443 92.2133 116.897 92.6293 117.227 93.184L116.379 93.76C116.091 93.3333 115.734 93.0187 115.307 92.816C114.881 92.6133 114.417 92.512 113.915 92.512C113.318 92.512 112.779 92.6507 112.299 92.928C111.819 93.1947 111.441 93.5733 111.163 94.064C110.886 94.5547 110.747 95.1307 110.747 95.792C110.747 96.4533 110.886 97.0293 111.163 97.52C111.441 98.0107 111.819 98.3947 112.299 98.672C112.779 98.9387 113.318 99.072 113.915 99.072C114.417 99.072 114.881 98.9707 115.307 98.768C115.734 98.5653 116.091 98.256 116.379 97.84L117.227 98.416C116.897 98.96 116.443 99.376 115.867 99.664C115.291 99.9413 114.646 100.08 113.931 100.08ZM123.622 91.52C124.305 91.52 124.902 91.6533 125.414 91.92C125.937 92.176 126.342 92.5707 126.63 93.104C126.929 93.6373 127.078 94.3093 127.078 95.12V100H125.942V95.232C125.942 94.3467 125.718 93.68 125.27 93.232C124.833 92.7733 124.214 92.544 123.414 92.544C122.817 92.544 122.294 92.6667 121.846 92.912C121.409 93.1467 121.067 93.4933 120.822 93.952C120.587 94.4 120.47 94.944 120.47 95.584V100H119.334V88.128H120.47V93.904L120.246 93.472C120.513 92.864 120.939 92.3893 121.526 92.048C122.113 91.696 122.811 91.52 123.622 91.52ZM139.598 100V98.144L139.55 97.84V94.736C139.55 94.0213 139.347 93.472 138.942 93.088C138.547 92.704 137.955 92.512 137.166 92.512C136.622 92.512 136.105 92.6027 135.614 92.784C135.123 92.9653 134.707 93.2053 134.366 93.504L133.854 92.656C134.281 92.2933 134.793 92.016 135.39 91.824C135.987 91.6213 136.617 91.52 137.278 91.52C138.366 91.52 139.203 91.792 139.79 92.336C140.387 92.8693 140.686 93.6853 140.686 94.784V100H139.598ZM136.702 100.08C136.073 100.08 135.523 99.9787 135.054 99.776C134.595 99.5627 134.243 99.2747 133.998 98.912C133.753 98.5387 133.63 98.112 133.63 97.632C133.63 97.1947 133.731 96.8 133.934 96.448C134.147 96.0853 134.489 95.7973 134.958 95.584C135.438 95.36 136.078 95.248 136.878 95.248H139.774V96.096H136.91C136.099 96.096 135.534 96.24 135.214 96.528C134.905 96.816 134.75 97.1733 134.75 97.6C134.75 98.08 134.937 98.464 135.31 98.752C135.683 99.04 136.206 99.184 136.878 99.184C137.518 99.184 138.067 99.04 138.526 98.752C138.995 98.4533 139.337 98.0267 139.55 97.472L139.806 98.256C139.593 98.8107 139.219 99.2533 138.686 99.584C138.163 99.9147 137.502 100.08 136.702 100.08ZM148.06 91.52C148.742 91.52 149.34 91.6533 149.852 91.92C150.374 92.176 150.78 92.5707 151.068 93.104C151.366 93.6373 151.516 94.3093 151.516 95.12V100H150.38V95.232C150.38 94.3467 150.156 93.68 149.708 93.232C149.27 92.7733 148.652 92.544 147.852 92.544C147.254 92.544 146.732 92.6667 146.284 92.912C145.846 93.1467 145.505 93.4933 145.26 93.952C145.025 94.4 144.908 94.944 144.908 95.584V100H143.772V91.6H144.86V93.904L144.684 93.472C144.95 92.864 145.377 92.3893 145.964 92.048C146.55 91.696 147.249 91.52 148.06 91.52ZM157.928 100.08C157.128 100.08 156.408 99.8987 155.768 99.536C155.139 99.1733 154.643 98.672 154.28 98.032C153.917 97.3813 153.736 96.6347 153.736 95.792C153.736 94.9387 153.917 94.192 154.28 93.552C154.643 92.912 155.139 92.416 155.768 92.064C156.408 91.7013 157.128 91.52 157.928 91.52C158.664 91.52 159.32 91.6853 159.896 92.016C160.483 92.3467 160.947 92.832 161.288 93.472C161.64 94.1013 161.816 94.8747 161.816 95.792C161.816 96.6987 161.645 97.472 161.304 98.112C160.963 98.752 160.499 99.2427 159.912 99.584C159.336 99.9147 158.675 100.08 157.928 100.08ZM158.008 99.072C158.605 99.072 159.139 98.9387 159.608 98.672C160.088 98.3947 160.461 98.0107 160.728 97.52C161.005 97.0187 161.144 96.4427 161.144 95.792C161.144 95.1307 161.005 94.5547 160.728 94.064C160.461 93.5733 160.088 93.1947 159.608 92.928C159.139 92.6507 158.605 92.512 158.008 92.512C157.421 92.512 156.893 92.6507 156.424 92.928C155.955 93.1947 155.581 93.5733 155.304 94.064C155.027 94.5547 154.888 95.1307 154.888 95.792C154.888 96.4427 155.027 97.0187 155.304 97.52C155.581 98.0107 155.955 98.3947 156.424 98.672C156.893 98.9387 157.421 99.072 158.008 99.072ZM161.176 100V97.472L161.288 95.776L161.128 94.08V88.128H162.264V100H161.176ZM169.807 100V90.544C169.807 89.7973 170.026 89.1947 170.463 88.736C170.901 88.2773 171.53 88.048 172.351 88.048C172.671 88.048 172.981 88.0907 173.279 88.176C173.578 88.2613 173.829 88.3947 174.031 88.576L173.647 89.424C173.487 89.2853 173.301 89.184 173.087 89.12C172.874 89.0453 172.645 89.008 172.399 89.008C171.919 89.008 171.551 89.1413 171.295 89.408C171.039 89.6747 170.911 90.0693 170.911 90.592V91.872L170.943 92.4V100H169.807ZM168.303 92.544V91.6H173.503V92.544H168.303ZM180.145 100V98.144L180.097 97.84V94.736C180.097 94.0213 179.894 93.472 179.489 93.088C179.094 92.704 178.502 92.512 177.713 92.512C177.169 92.512 176.652 92.6027 176.161 92.784C175.67 92.9653 175.254 93.2053 174.913 93.504L174.401 92.656C174.828 92.2933 175.34 92.016 175.937 91.824C176.534 91.6213 177.164 91.52 177.825 91.52C178.913 91.52 179.75 91.792 180.337 92.336C180.934 92.8693 181.233 93.6853 181.233 94.784V100H180.145ZM177.249 100.08C176.62 100.08 176.07 99.9787 175.601 99.776C175.142 99.5627 174.79 99.2747 174.545 98.912C174.3 98.5387 174.177 98.112 174.177 97.632C174.177 97.1947 174.278 96.8 174.481 96.448C174.694 96.0853 175.036 95.7973 175.505 95.584C175.985 95.36 176.625 95.248 177.425 95.248H180.321V96.096H177.457C176.646 96.096 176.081 96.24 175.761 96.528C175.452 96.816 175.297 97.1733 175.297 97.6C175.297 98.08 175.484 98.464 175.857 98.752C176.23 99.04 176.753 99.184 177.425 99.184C178.065 99.184 178.614 99.04 179.073 98.752C179.542 98.4533 179.884 98.0267 180.097 97.472L180.353 98.256C180.14 98.8107 179.766 99.2533 179.233 99.584C178.71 99.9147 178.049 100.08 177.249 100.08ZM186.574 100.08C185.881 100.08 185.225 99.984 184.606 99.792C183.988 99.5893 183.502 99.3387 183.15 99.04L183.662 98.144C184.004 98.4 184.441 98.624 184.974 98.816C185.508 98.9973 186.068 99.088 186.654 99.088C187.454 99.088 188.03 98.9653 188.382 98.72C188.734 98.464 188.91 98.128 188.91 97.712C188.91 97.4027 188.809 97.1627 188.606 96.992C188.414 96.8107 188.158 96.6773 187.838 96.592C187.518 96.496 187.161 96.416 186.766 96.352C186.372 96.288 185.977 96.2133 185.582 96.128C185.198 96.0427 184.846 95.92 184.526 95.76C184.206 95.5893 183.945 95.36 183.742 95.072C183.55 94.784 183.454 94.4 183.454 93.92C183.454 93.4613 183.582 93.0507 183.838 92.688C184.094 92.3253 184.468 92.0427 184.958 91.84C185.46 91.6267 186.068 91.52 186.782 91.52C187.326 91.52 187.87 91.5947 188.414 91.744C188.958 91.8827 189.406 92.0693 189.758 92.304L189.262 93.216C188.889 92.96 188.489 92.7787 188.062 92.672C187.636 92.5547 187.209 92.496 186.782 92.496C186.025 92.496 185.465 92.6293 185.102 92.896C184.75 93.152 184.574 93.4827 184.574 93.888C184.574 94.208 184.67 94.4587 184.862 94.64C185.065 94.8213 185.326 94.9653 185.646 95.072C185.977 95.168 186.334 95.248 186.718 95.312C187.113 95.376 187.502 95.456 187.886 95.552C188.281 95.6373 188.638 95.76 188.958 95.92C189.289 96.0693 189.55 96.288 189.742 96.576C189.945 96.8533 190.046 97.2213 190.046 97.68C190.046 98.1707 189.908 98.5973 189.63 98.96C189.364 99.312 188.969 99.5893 188.446 99.792C187.934 99.984 187.31 100.08 186.574 100.08ZM194.787 100.08C193.998 100.08 193.39 99.8667 192.963 99.44C192.536 99.0133 192.323 98.4107 192.323 97.632V89.744H193.459V97.568C193.459 98.0587 193.582 98.4373 193.827 98.704C194.083 98.9707 194.446 99.104 194.915 99.104C195.416 99.104 195.832 98.96 196.163 98.672L196.563 99.488C196.339 99.6907 196.067 99.84 195.747 99.936C195.438 100.032 195.118 100.08 194.787 100.08ZM190.819 92.544V91.6H196.019V92.544H190.819ZM201.902 100.08C201.027 100.08 200.259 99.8987 199.598 99.536C198.937 99.1627 198.419 98.656 198.046 98.016C197.673 97.3653 197.486 96.624 197.486 95.792C197.486 94.96 197.662 94.224 198.014 93.584C198.377 92.944 198.867 92.4427 199.486 92.08C200.115 91.7067 200.819 91.52 201.598 91.52C202.387 91.52 203.086 91.7013 203.694 92.064C204.313 92.416 204.798 92.9173 205.15 93.568C205.502 94.208 205.678 94.9493 205.678 95.792C205.678 95.8453 205.673 95.904 205.662 95.968C205.662 96.0213 205.662 96.08 205.662 96.144H198.35V95.296H205.054L204.606 95.632C204.606 95.024 204.473 94.4853 204.206 94.016C203.95 93.536 203.598 93.1627 203.15 92.896C202.702 92.6293 202.185 92.496 201.598 92.496C201.022 92.496 200.505 92.6293 200.046 92.896C199.587 93.1627 199.23 93.536 198.974 94.016C198.718 94.496 198.59 95.0453 198.59 95.664V95.84C198.59 96.48 198.729 97.0453 199.006 97.536C199.294 98.016 199.689 98.3947 200.19 98.672C200.702 98.9387 201.283 99.072 201.934 99.072C202.446 99.072 202.921 98.9813 203.358 98.8C203.806 98.6187 204.19 98.3413 204.51 97.968L205.15 98.704C204.777 99.152 204.307 99.4933 203.742 99.728C203.187 99.9627 202.574 100.08 201.902 100.08ZM207.99 100V91.6H209.078V93.888L208.966 93.488C209.201 92.848 209.596 92.3627 210.15 92.032C210.705 91.6907 211.393 91.52 212.214 91.52V92.624C212.172 92.624 212.129 92.624 212.086 92.624C212.044 92.6133 212.001 92.608 211.958 92.608C211.073 92.608 210.38 92.88 209.878 93.424C209.377 93.9573 209.126 94.72 209.126 95.712V100H207.99ZM222.936 100.08C222.2 100.08 221.538 99.9147 220.952 99.584C220.365 99.2427 219.901 98.752 219.56 98.112C219.218 97.472 219.048 96.6987 219.048 95.792C219.048 94.8747 219.218 94.1013 219.56 93.472C219.912 92.832 220.381 92.3467 220.968 92.016C221.554 91.6853 222.21 91.52 222.936 91.52C223.736 91.52 224.45 91.7013 225.08 92.064C225.72 92.416 226.221 92.912 226.584 93.552C226.946 94.192 227.128 94.9387 227.128 95.792C227.128 96.6347 226.946 97.3813 226.584 98.032C226.221 98.672 225.72 99.1733 225.08 99.536C224.45 99.8987 223.736 100.08 222.936 100.08ZM218.6 100V88.128H219.736V94.08L219.576 95.776L219.688 97.472V100H218.6ZM222.856 99.072C223.453 99.072 223.986 98.9387 224.456 98.672C224.925 98.3947 225.298 98.0107 225.576 97.52C225.853 97.0187 225.992 96.4427 225.992 95.792C225.992 95.1307 225.853 94.5547 225.576 94.064C225.298 93.5733 224.925 93.1947 224.456 92.928C223.986 92.6507 223.453 92.512 222.856 92.512C222.258 92.512 221.72 92.6507 221.24 92.928C220.77 93.1947 220.397 93.5733 220.12 94.064C219.853 94.5547 219.72 95.1307 219.72 95.792C219.72 96.4427 219.853 97.0187 220.12 97.52C220.397 98.0107 220.77 98.3947 221.24 98.672C221.72 98.9387 222.258 99.072 222.856 99.072ZM234.661 100V98.144L234.613 97.84V94.736C234.613 94.0213 234.41 93.472 234.005 93.088C233.61 92.704 233.018 92.512 232.229 92.512C231.685 92.512 231.167 92.6027 230.677 92.784C230.186 92.9653 229.77 93.2053 229.429 93.504L228.917 92.656C229.343 92.2933 229.855 92.016 230.453 91.824C231.05 91.6213 231.679 91.52 232.341 91.52C233.429 91.52 234.266 91.792 234.853 92.336C235.45 92.8693 235.749 93.6853 235.749 94.784V100H234.661ZM231.765 100.08C231.135 100.08 230.586 99.9787 230.117 99.776C229.658 99.5627 229.306 99.2747 229.061 98.912C228.815 98.5387 228.693 98.112 228.693 97.632C228.693 97.1947 228.794 96.8 228.997 96.448C229.21 96.0853 229.551 95.7973 230.021 95.584C230.501 95.36 231.141 95.248 231.941 95.248H234.837V96.096H231.973C231.162 96.096 230.597 96.24 230.277 96.528C229.967 96.816 229.812 97.1733 229.812 97.6C229.812 98.08 229.999 98.464 230.373 98.752C230.746 99.04 231.269 99.184 231.941 99.184C232.581 99.184 233.13 99.04 233.589 98.752C234.058 98.4533 234.399 98.0267 234.613 97.472L234.869 98.256C234.655 98.8107 234.282 99.2533 233.749 99.584C233.226 99.9147 232.565 100.08 231.765 100.08ZM243.122 91.52C243.805 91.52 244.402 91.6533 244.914 91.92C245.437 92.176 245.842 92.5707 246.13 93.104C246.429 93.6373 246.578 94.3093 246.578 95.12V100H245.442V95.232C245.442 94.3467 245.218 93.68 244.77 93.232C244.333 92.7733 243.714 92.544 242.914 92.544C242.317 92.544 241.794 92.6667 241.346 92.912C240.909 93.1467 240.567 93.4933 240.322 93.952C240.087 94.4 239.97 94.944 239.97 95.584V100H238.834V91.6H239.922V93.904L239.746 93.472C240.013 92.864 240.439 92.3893 241.026 92.048C241.613 91.696 242.311 91.52 243.122 91.52ZM250.543 97.824L250.575 96.368L255.807 91.6H257.199L253.503 95.136L252.863 95.68L250.543 97.824ZM249.647 100V88.128H250.783V100H249.647ZM256.159 100L252.655 95.632L253.391 94.752L257.551 100H256.159ZM259.256 100V91.6H260.392V100H259.256ZM259.832 89.744C259.597 89.744 259.4 89.664 259.24 89.504C259.08 89.344 259 89.152 259 88.928C259 88.704 259.08 88.5173 259.24 88.368C259.4 88.208 259.597 88.128 259.832 88.128C260.067 88.128 260.264 88.2027 260.424 88.352C260.584 88.5013 260.664 88.688 260.664 88.912C260.664 89.1467 260.584 89.344 260.424 89.504C260.275 89.664 260.077 89.744 259.832 89.744ZM267.841 91.52C268.523 91.52 269.121 91.6533 269.633 91.92C270.155 92.176 270.561 92.5707 270.849 93.104C271.147 93.6373 271.297 94.3093 271.297 95.12V100H270.161V95.232C270.161 94.3467 269.937 93.68 269.489 93.232C269.051 92.7733 268.433 92.544 267.633 92.544C267.035 92.544 266.513 92.6667 266.065 92.912C265.627 93.1467 265.286 93.4933 265.041 93.952C264.806 94.4 264.689 94.944 264.689 95.584V100H263.553V91.6H264.641V93.904L264.465 93.472C264.731 92.864 265.158 92.3893 265.745 92.048C266.331 91.696 267.03 91.52 267.841 91.52ZM277.949 103.184C277.181 103.184 276.445 103.072 275.741 102.848C275.037 102.624 274.467 102.304 274.029 101.888L274.605 101.024C275 101.376 275.485 101.653 276.061 101.856C276.648 102.069 277.267 102.176 277.917 102.176C278.984 102.176 279.768 101.925 280.269 101.424C280.771 100.933 281.021 100.165 281.021 99.12V97.024L281.181 95.584L281.069 94.144V91.6H282.157V98.976C282.157 100.427 281.8 101.488 281.085 102.16C280.381 102.843 279.336 103.184 277.949 103.184ZM277.741 99.68C276.941 99.68 276.221 99.5093 275.581 99.168C274.941 98.816 274.435 98.3307 274.061 97.712C273.699 97.0933 273.517 96.384 273.517 95.584C273.517 94.784 273.699 94.08 274.061 93.472C274.435 92.8533 274.941 92.3733 275.581 92.032C276.221 91.6907 276.941 91.52 277.741 91.52C278.488 91.52 279.16 91.6747 279.757 91.984C280.355 92.2933 280.829 92.752 281.181 93.36C281.533 93.968 281.709 94.7093 281.709 95.584C281.709 96.4587 281.533 97.2 281.181 97.808C280.829 98.416 280.355 98.88 279.757 99.2C279.16 99.52 278.488 99.68 277.741 99.68ZM277.853 98.672C278.472 98.672 279.021 98.544 279.501 98.288C279.981 98.0213 280.36 97.6587 280.637 97.2C280.915 96.7307 281.053 96.192 281.053 95.584C281.053 94.976 280.915 94.4427 280.637 93.984C280.36 93.5253 279.981 93.168 279.501 92.912C279.021 92.6453 278.472 92.512 277.853 92.512C277.245 92.512 276.696 92.6453 276.205 92.912C275.725 93.168 275.347 93.5253 275.069 93.984C274.803 94.4427 274.669 94.976 274.669 95.584C274.669 96.192 274.803 96.7307 275.069 97.2C275.347 97.6587 275.725 98.0213 276.205 98.288C276.696 98.544 277.245 98.672 277.853 98.672ZM291.762 100.08C291.069 100.08 290.413 99.984 289.794 99.792C289.175 99.5893 288.69 99.3387 288.338 99.04L288.85 98.144C289.191 98.4 289.629 98.624 290.162 98.816C290.695 98.9973 291.255 99.088 291.842 99.088C292.642 99.088 293.218 98.9653 293.57 98.72C293.922 98.464 294.098 98.128 294.098 97.712C294.098 97.4027 293.997 97.1627 293.794 96.992C293.602 96.8107 293.346 96.6773 293.026 96.592C292.706 96.496 292.349 96.416 291.954 96.352C291.559 96.288 291.165 96.2133 290.77 96.128C290.386 96.0427 290.034 95.92 289.714 95.76C289.394 95.5893 289.133 95.36 288.93 95.072C288.738 94.784 288.642 94.4 288.642 93.92C288.642 93.4613 288.77 93.0507 289.026 92.688C289.282 92.3253 289.655 92.0427 290.146 91.84C290.647 91.6267 291.255 91.52 291.97 91.52C292.514 91.52 293.058 91.5947 293.602 91.744C294.146 91.8827 294.594 92.0693 294.946 92.304L294.45 93.216C294.077 92.96 293.677 92.7787 293.25 92.672C292.823 92.5547 292.397 92.496 291.97 92.496C291.213 92.496 290.653 92.6293 290.29 92.896C289.938 93.152 289.762 93.4827 289.762 93.888C289.762 94.208 289.858 94.4587 290.05 94.64C290.253 94.8213 290.514 94.9653 290.834 95.072C291.165 95.168 291.522 95.248 291.906 95.312C292.301 95.376 292.69 95.456 293.074 95.552C293.469 95.6373 293.826 95.76 294.146 95.92C294.477 96.0693 294.738 96.288 294.93 96.576C295.133 96.8533 295.234 97.2213 295.234 97.68C295.234 98.1707 295.095 98.5973 294.818 98.96C294.551 99.312 294.157 99.5893 293.634 99.792C293.122 99.984 292.498 100.08 291.762 100.08ZM300.886 100.08C300.012 100.08 299.244 99.8987 298.582 99.536C297.921 99.1627 297.404 98.656 297.03 98.016C296.657 97.3653 296.47 96.624 296.47 95.792C296.47 94.96 296.646 94.224 296.998 93.584C297.361 92.944 297.852 92.4427 298.47 92.08C299.1 91.7067 299.804 91.52 300.582 91.52C301.372 91.52 302.07 91.7013 302.678 92.064C303.297 92.416 303.782 92.9173 304.134 93.568C304.486 94.208 304.662 94.9493 304.662 95.792C304.662 95.8453 304.657 95.904 304.646 95.968C304.646 96.0213 304.646 96.08 304.646 96.144H297.334V95.296H304.038L303.59 95.632C303.59 95.024 303.457 94.4853 303.19 94.016C302.934 93.536 302.582 93.1627 302.134 92.896C301.686 92.6293 301.169 92.496 300.582 92.496C300.006 92.496 299.489 92.6293 299.03 92.896C298.572 93.1627 298.214 93.536 297.958 94.016C297.702 94.496 297.574 95.0453 297.574 95.664V95.84C297.574 96.48 297.713 97.0453 297.99 97.536C298.278 98.016 298.673 98.3947 299.174 98.672C299.686 98.9387 300.268 99.072 300.918 99.072C301.43 99.072 301.905 98.9813 302.342 98.8C302.79 98.6187 303.174 98.3413 303.494 97.968L304.134 98.704C303.761 99.152 303.292 99.4933 302.726 99.728C302.172 99.9627 301.558 100.08 300.886 100.08ZM306.975 100V91.6H308.063V93.888L307.951 93.488C308.185 92.848 308.58 92.3627 309.135 92.032C309.689 91.6907 310.377 91.52 311.199 91.52V92.624C311.156 92.624 311.113 92.624 311.071 92.624C311.028 92.6133 310.985 92.608 310.943 92.608C310.057 92.608 309.364 92.88 308.863 93.424C308.361 93.9573 308.111 94.72 308.111 95.712V100H306.975ZM315.791 100L312.063 91.6H313.247L316.671 99.392H316.111L319.583 91.6H320.703L316.959 100H315.791ZM322.303 100V91.6H323.439V100H322.303ZM322.879 89.744C322.644 89.744 322.447 89.664 322.287 89.504C322.127 89.344 322.047 89.152 322.047 88.928C322.047 88.704 322.127 88.5173 322.287 88.368C322.447 88.208 322.644 88.128 322.879 88.128C323.113 88.128 323.311 88.2027 323.471 88.352C323.631 88.5013 323.711 88.688 323.711 88.912C323.711 89.1467 323.631 89.344 323.471 89.504C323.321 89.664 323.124 89.744 322.879 89.744ZM330.088 100.08C329.256 100.08 328.509 99.8987 327.848 99.536C327.197 99.1627 326.685 98.656 326.312 98.016C325.938 97.3653 325.752 96.624 325.752 95.792C325.752 94.9493 325.938 94.208 326.312 93.568C326.685 92.928 327.197 92.4267 327.848 92.064C328.509 91.7013 329.256 91.52 330.088 91.52C330.802 91.52 331.448 91.6587 332.024 91.936C332.6 92.2133 333.053 92.6293 333.384 93.184L332.536 93.76C332.248 93.3333 331.89 93.0187 331.464 92.816C331.037 92.6133 330.573 92.512 330.072 92.512C329.474 92.512 328.936 92.6507 328.456 92.928C327.976 93.1947 327.597 93.5733 327.32 94.064C327.042 94.5547 326.904 95.1307 326.904 95.792C326.904 96.4533 327.042 97.0293 327.32 97.52C327.597 98.0107 327.976 98.3947 328.456 98.672C328.936 98.9387 329.474 99.072 330.072 99.072C330.573 99.072 331.037 98.9707 331.464 98.768C331.89 98.5653 332.248 98.256 332.536 97.84L333.384 98.416C333.053 98.96 332.6 99.376 332.024 99.664C331.448 99.9413 330.802 100.08 330.088 100.08ZM339.043 100.08C338.168 100.08 337.4 99.8987 336.739 99.536C336.077 99.1627 335.56 98.656 335.187 98.016C334.813 97.3653 334.627 96.624 334.627 95.792C334.627 94.96 334.803 94.224 335.155 93.584C335.517 92.944 336.008 92.4427 336.627 92.08C337.256 91.7067 337.96 91.52 338.739 91.52C339.528 91.52 340.227 91.7013 340.835 92.064C341.453 92.416 341.939 92.9173 342.291 93.568C342.643 94.208 342.819 94.9493 342.819 95.792C342.819 95.8453 342.813 95.904 342.803 95.968C342.803 96.0213 342.803 96.08 342.803 96.144H335.491V95.296H342.195L341.747 95.632C341.747 95.024 341.613 94.4853 341.347 94.016C341.091 93.536 340.739 93.1627 340.291 92.896C339.843 92.6293 339.325 92.496 338.739 92.496C338.163 92.496 337.645 92.6293 337.187 92.896C336.728 93.1627 336.371 93.536 336.115 94.016C335.859 94.496 335.731 95.0453 335.731 95.664V95.84C335.731 96.48 335.869 97.0453 336.147 97.536C336.435 98.016 336.829 98.3947 337.331 98.672C337.843 98.9387 338.424 99.072 339.075 99.072C339.587 99.072 340.061 98.9813 340.499 98.8C340.947 98.6187 341.331 98.3413 341.651 97.968L342.291 98.704C341.917 99.152 341.448 99.4933 340.883 99.728C340.328 99.9627 339.715 100.08 339.043 100.08ZM347.387 100.08C346.694 100.08 346.038 99.984 345.419 99.792C344.8 99.5893 344.315 99.3387 343.963 99.04L344.475 98.144C344.816 98.4 345.254 98.624 345.787 98.816C346.32 98.9973 346.88 99.088 347.467 99.088C348.267 99.088 348.843 98.9653 349.195 98.72C349.547 98.464 349.723 98.128 349.723 97.712C349.723 97.4027 349.622 97.1627 349.419 96.992C349.227 96.8107 348.971 96.6773 348.651 96.592C348.331 96.496 347.974 96.416 347.579 96.352C347.184 96.288 346.79 96.2133 346.395 96.128C346.011 96.0427 345.659 95.92 345.339 95.76C345.019 95.5893 344.758 95.36 344.555 95.072C344.363 94.784 344.267 94.4 344.267 93.92C344.267 93.4613 344.395 93.0507 344.651 92.688C344.907 92.3253 345.28 92.0427 345.771 91.84C346.272 91.6267 346.88 91.52 347.595 91.52C348.139 91.52 348.683 91.5947 349.227 91.744C349.771 91.8827 350.219 92.0693 350.571 92.304L350.075 93.216C349.702 92.96 349.302 92.7787 348.875 92.672C348.448 92.5547 348.022 92.496 347.595 92.496C346.838 92.496 346.278 92.6293 345.915 92.896C345.563 93.152 345.387 93.4827 345.387 93.888C345.387 94.208 345.483 94.4587 345.675 94.64C345.878 94.8213 346.139 94.9653 346.459 95.072C346.79 95.168 347.147 95.248 347.531 95.312C347.926 95.376 348.315 95.456 348.699 95.552C349.094 95.6373 349.451 95.76 349.771 95.92C350.102 96.0693 350.363 96.288 350.555 96.576C350.758 96.8533 350.859 97.2213 350.859 97.68C350.859 98.1707 350.72 98.5973 350.443 98.96C350.176 99.312 349.782 99.5893 349.259 99.792C348.747 99.984 348.123 100.08 347.387 100.08Z" fill="black"/>
<path d="M93 62H220.676V62.8H93V62Z" fill="black"/>
<a href="https://thefinancialbrand.com/102357/gen-z-says-they-would-bank-with-amazon-google-or-walmart-branch/?edigest=">
<rect fill="black" fill-opacity="0" y="0.248" width="127.676" height="19.504"/>
</a>
<g clip-path="url(#clip0_35_1131)">
<g opacity="0.2">
<path fill-rule="evenodd" clip-rule="evenodd" d="M54.3253 34.6501C54.5023 34.6498 54.6746 34.7064 54.8169 34.8116C54.9592 34.9168 55.064 35.0649 55.1156 35.2342L58.2968 45.6836L67.8091 49.1602C67.966 49.2176 68.1017 49.3214 68.1983 49.4576C68.2949 49.5939 68.3479 49.7563 68.3502 49.9233C68.3525 50.0904 68.3041 50.2542 68.2113 50.3931C68.1185 50.532 67.9857 50.6394 67.8305 50.7013L58.381 54.455L55.1156 65.411C55.0647 65.5811 54.9603 65.7302 54.818 65.8362C54.6756 65.9422 54.5028 65.9994 54.3253 65.9994C54.1478 65.9994 53.975 65.9422 53.8326 65.8362C53.6902 65.7302 53.5858 65.5811 53.5349 65.411L50.2696 54.455L40.82 50.7013C40.6648 50.6394 40.5321 50.532 40.4393 50.3931C40.3465 50.2542 40.298 50.0904 40.3004 49.9233C40.3027 49.7563 40.3557 49.5939 40.4523 49.4576C40.5489 49.3214 40.6846 49.2176 40.8415 49.1602L50.3537 45.6836L53.5366 35.2342C53.5882 35.0652 53.6927 34.9172 53.8346 34.8121C53.9766 34.7069 54.1486 34.6501 54.3253 34.6501Z" fill="#FFD53E"/>
<path d="M65.5949 65.9176C65.4134 65.9176 65.2649 65.7856 65.2484 65.6206C64.9184 62.3206 64.6709 61.2646 61.5689 60.9841C61.4825 60.9766 61.4022 60.9367 61.3441 60.8724C61.2859 60.8082 61.2542 60.7243 61.2554 60.6376C61.2554 60.4561 61.3874 60.3076 61.5689 60.2911C64.7039 59.9941 64.9184 59.1361 65.2484 55.9186C65.2649 55.7371 65.4134 55.6051 65.5949 55.6051C65.7764 55.6051 65.9249 55.7371 65.9414 55.9021C66.2714 59.1361 66.4859 59.9941 69.6209 60.2746C69.8024 60.2911 69.9344 60.4396 69.9344 60.6211C69.9344 60.8026 69.8024 60.9511 69.6209 60.9676C66.5354 61.2646 66.2714 62.3206 65.9579 65.6041C65.9414 65.7856 65.7929 65.9176 65.6114 65.9176H65.5949Z" fill="#FFD53E"/>
</g>
<path fill-rule="evenodd" clip-rule="evenodd" d="M51.8502 33.825C52.0272 33.8247 52.1995 33.8814 52.3418 33.9865C52.4841 34.0917 52.5889 34.2399 52.6405 34.4091L55.8217 44.8586L65.334 48.3351C65.4909 48.3926 65.6266 48.4963 65.7232 48.6326C65.8198 48.7689 65.8728 48.9312 65.8751 49.0983C65.8774 49.2653 65.829 49.4291 65.7362 49.568C65.6434 49.7069 65.5106 49.8144 65.3554 49.8762L55.9059 53.63L52.6405 64.586C52.5896 64.756 52.4852 64.9051 52.3429 65.0111C52.2005 65.1171 52.0277 65.1744 51.8502 65.1744C51.6727 65.1744 51.4999 65.1171 51.3575 65.0111C51.2151 64.9051 51.1107 64.756 51.0598 64.586L47.7945 53.63L38.3449 49.8762C38.1897 49.8144 38.057 49.7069 37.9642 49.568C37.8714 49.4291 37.823 49.2653 37.8253 49.0983C37.8276 48.9312 37.8806 48.7689 37.9772 48.6326C38.0738 48.4963 38.2095 48.3926 38.3664 48.3351L47.8786 44.8586L51.0615 34.4091C51.1131 34.2401 51.2176 34.0922 51.3595 33.987C51.5015 33.8819 51.6735 33.8251 51.8502 33.825ZM51.8502 37.4814L49.3372 45.7314C49.3 45.8537 49.2348 45.9656 49.1469 46.0584C49.059 46.1511 48.9508 46.2222 48.8307 46.266L40.9651 49.1436L48.7762 52.2456C48.892 52.2918 48.9957 52.3636 49.0798 52.4556C49.1638 52.5476 49.2259 52.6575 49.2613 52.7769L51.8518 61.4625L54.439 52.7769C54.4745 52.6575 54.5366 52.5476 54.6206 52.4556C54.7046 52.3636 54.8084 52.2918 54.9241 52.2456L62.7352 49.1436L54.8697 46.2693C54.7496 46.2255 54.6414 46.1544 54.5535 46.0617C54.4655 45.9689 54.4004 45.857 54.3631 45.7347L51.8502 37.4814Z" fill="#FFD53E"/>
<path d="M64.6376 64.548C64.4726 64.548 64.324 64.416 64.3075 64.251C64.0105 61.248 63.7796 60.291 61.0241 60.027C60.8591 60.0105 60.7271 59.862 60.7271 59.697C60.7271 59.532 60.8591 59.3835 61.0241 59.367C63.8456 59.103 64.0105 58.377 64.3075 55.374C64.3075 55.209 64.4726 55.077 64.6376 55.077C64.8026 55.077 64.9511 55.209 64.9676 55.374C65.2646 58.377 65.4461 59.103 68.2511 59.367C68.4161 59.3835 68.5481 59.532 68.5481 59.697C68.5481 59.862 68.4161 60.0105 68.2511 60.027C65.4791 60.291 65.2646 61.248 64.9676 64.2675C64.9676 64.4325 64.8191 64.5645 64.6376 64.5645V64.548Z" fill="#FFD53E"/>
</g>
</g>
<defs>
<filter id="filter0_d_35_1131" x="0" y="0" width="513" height="169" filterUnits="userSpaceOnUse" color-interpolation-filters="sRGB">
<feFlood flood-opacity="0" result="BackgroundImageFix"/>
<feColorMatrix in="SourceAlpha" type="matrix" values="0 0 0 0 0 0 0 0 0 0 0 0 0 0 0 0 0 0 127 0" result="hardAlpha"/>
<feOffset dx="4" dy="8"/>
<feGaussianBlur stdDeviation="6"/>
<feComposite in2="hardAlpha" operator="out"/>
<feColorMatrix type="matrix" values="0 0 0 0 0 0 0 0 0 0 0 0 0 0 0 0 0 0 0.25 0"/>
<feBlend mode="normal" in2="BackgroundImageFix" result="effect1_dropShadow_35_1131"/>
<feBlend mode="normal" in="SourceGraphic" in2="effect1_dropShadow_35_1131" result="shape"/>
</filter>
<clipPath id="clip0_35_1131">
<rect width="33" height="33" fill="white" transform="translate(37 33)"/>
</clipPath>
</defs>
</svg>
