<svg width="131" height="142" viewBox="0 0 131 142" fill="none" xmlns="http://www.w3.org/2000/svg">
<g clip-path="url(#clip0_79_1718)">
<g opacity="0.2">
<path fill-rule="evenodd" clip-rule="evenodd" d="M33.427 17.8204C33.7684 17.8199 34.101 17.9292 34.3755 18.1321C34.6501 18.335 34.8522 18.6209 34.9519 18.9474L41.0897 39.1086L59.4427 45.8163C59.7453 45.9272 60.0072 46.1273 60.1936 46.3902C60.38 46.6532 60.4823 46.9665 60.4867 47.2888C60.4912 47.611 60.3978 47.9271 60.2187 48.1951C60.0397 48.4631 59.7835 48.6705 59.4841 48.7897L41.2521 56.0322L34.9519 77.1708C34.8537 77.4989 34.6522 77.7866 34.3775 77.9911C34.1028 78.1956 33.7695 78.3061 33.427 78.3061C33.0845 78.3061 32.7511 78.1956 32.4764 77.9911C32.2017 77.7866 32.0003 77.4989 31.9021 77.1708L25.6019 56.0322L7.36987 48.7897C7.07044 48.6705 6.81426 48.4631 6.63522 48.1951C6.45619 47.9271 6.36273 47.611 6.36722 47.2888C6.37171 46.9665 6.47392 46.6532 6.66034 46.3902C6.84677 46.1273 7.10862 45.9272 7.41126 45.8163L25.7642 39.1086L31.9053 18.9474C32.0048 18.6214 32.2064 18.3359 32.4803 18.133C32.7543 17.9302 33.0861 17.8206 33.427 17.8204Z" fill="white"/>
<path d="M55.1704 78.1481C54.8203 78.1481 54.5337 77.8934 54.5019 77.5751C53.8652 71.208 53.3877 69.1706 47.4027 68.6294C47.236 68.6149 47.0811 68.5379 46.9689 68.4139C46.8567 68.2899 46.7956 68.1281 46.7978 67.9608C46.7978 67.6106 47.0525 67.3241 47.4027 67.2923C53.4513 66.7193 53.8652 65.0638 54.5019 58.856C54.5337 58.5058 54.8203 58.2511 55.1704 58.2511C55.5206 58.2511 55.8072 58.5058 55.839 58.8241C56.4757 65.0638 56.8895 66.7193 62.9382 67.2605C63.2884 67.2923 63.5431 67.5788 63.5431 67.929C63.5431 68.2792 63.2884 68.5657 62.9382 68.5975C56.9851 69.1706 56.4757 71.208 55.8708 77.5432C55.839 77.8934 55.5525 78.1481 55.2023 78.1481H55.1704Z" fill="black"/>
</g>
<path fill-rule="evenodd" clip-rule="evenodd" d="M28.6516 16.2286C28.9931 16.2281 29.3256 16.3374 29.6002 16.5403C29.8748 16.7432 30.0769 17.0291 30.1766 17.3556L36.3144 37.5168L54.6674 44.2245C54.97 44.3354 55.2319 44.5355 55.4183 44.7984C55.6047 45.0614 55.7069 45.3747 55.7114 45.697C55.7159 46.0193 55.6224 46.3353 55.4434 46.6033C55.2644 46.8713 55.0082 47.0787 54.7087 47.1979L36.4767 54.4404L30.1766 75.579C30.0783 75.9071 29.8769 76.1948 29.6022 76.3993C29.3275 76.6038 28.9941 76.7143 28.6516 76.7143C28.3092 76.7143 27.9758 76.6038 27.7011 76.3993C27.4264 76.1948 27.225 75.9071 27.1267 75.579L20.8266 54.4404L2.59454 47.1979C2.29511 47.0787 2.03893 46.8713 1.85989 46.6033C1.68086 46.3353 1.5874 46.0193 1.59189 45.697C1.59638 45.3747 1.69859 45.0614 1.88502 44.7984C2.07144 44.5355 2.33329 44.3354 2.63593 44.2245L20.9889 37.5168L27.1299 17.3556C27.2295 17.0296 27.431 16.7441 27.705 16.5412C27.9789 16.3384 28.3108 16.2288 28.6516 16.2286ZM28.6516 23.2833L23.8031 39.2009C23.7313 39.4368 23.6056 39.6528 23.436 39.8318C23.2664 40.0108 23.0575 40.1479 22.8258 40.2324L7.64997 45.7844L22.7207 51.7695C22.944 51.8585 23.1443 51.9971 23.3064 52.1746C23.4685 52.3521 23.5882 52.5641 23.6567 52.7945L28.6548 69.5526L33.6466 52.7945C33.7151 52.5641 33.8348 52.3521 33.9969 52.1746C34.159 51.9971 34.3592 51.8585 34.5825 51.7695L49.6533 45.7844L34.4775 40.2387C34.2458 40.1543 34.0369 40.0171 33.8673 39.8381C33.6977 39.6591 33.572 39.4432 33.5001 39.2073L28.6516 23.2833Z" fill="#29304D"/>
<path d="M53.3239 75.5058C53.0056 75.5058 52.7191 75.2511 52.6872 74.9328C52.1142 69.1388 51.6685 67.2923 46.352 66.783C46.0337 66.7511 45.779 66.4646 45.779 66.1463C45.779 65.8279 46.0337 65.5414 46.352 65.5096C51.7958 65.0002 52.1142 63.5995 52.6872 57.8055C52.6872 57.4871 53.0056 57.2324 53.3239 57.2324C53.6423 57.2324 53.9288 57.4871 53.9606 57.8055C54.5337 63.5995 54.8839 65.0002 60.2958 65.5096C60.6142 65.5414 60.8689 65.8279 60.8689 66.1463C60.8689 66.4646 60.6142 66.7511 60.2958 66.783C54.9475 67.2923 54.5337 69.1388 53.9606 74.9646C53.9606 75.283 53.6741 75.5377 53.3239 75.5377V75.5058Z" fill="#29304D"/>
</g>
<g clip-path="url(#clip1_79_1718)">
<g opacity="0.2">
<path fill-rule="evenodd" clip-rule="evenodd" d="M81.7286 81.4908C82.07 81.4903 82.4026 81.5996 82.6772 81.8025C82.9518 82.0054 83.1538 82.2913 83.2535 82.6178L89.3913 102.779L107.744 109.487C108.047 109.598 108.309 109.798 108.495 110.061C108.682 110.324 108.784 110.637 108.788 110.959C108.793 111.281 108.699 111.598 108.52 111.866C108.341 112.134 108.085 112.341 107.786 112.46L89.5537 119.703L83.2535 140.841C83.1553 141.169 82.9539 141.457 82.6792 141.662C82.4045 141.866 82.0711 141.976 81.7286 141.976C81.3861 141.976 81.0528 141.866 80.7781 141.662C80.5033 141.457 80.3019 141.169 80.2037 140.841L73.9035 119.703L55.6715 112.46C55.3721 112.341 55.1159 112.134 54.9369 111.866C54.7578 111.598 54.6644 111.281 54.6689 110.959C54.6733 110.637 54.7756 110.324 54.962 110.061C55.1484 109.798 55.4103 109.598 55.7129 109.487L74.0659 102.779L80.2069 82.6178C80.3064 82.2918 80.508 82.0063 80.7819 81.8034C81.0559 81.6006 81.3877 81.491 81.7286 81.4908Z" fill="white"/>
<path d="M103.472 141.819C103.122 141.819 102.835 141.564 102.804 141.245C102.167 134.878 101.689 132.841 95.7043 132.3C95.5377 132.285 95.3827 132.208 95.2705 132.084C95.1583 131.96 95.0972 131.798 95.0994 131.631C95.0994 131.281 95.3541 130.995 95.7043 130.963C101.753 130.39 102.167 128.734 102.804 122.526C102.835 122.176 103.122 121.922 103.472 121.922C103.822 121.922 104.109 122.176 104.141 122.495C104.777 128.734 105.191 130.39 111.24 130.931C111.59 130.963 111.845 131.249 111.845 131.599C111.845 131.95 111.59 132.236 111.24 132.268C105.287 132.841 104.777 134.878 104.172 141.214C104.141 141.564 103.854 141.819 103.504 141.819H103.472Z" fill="black"/>
</g>
<path fill-rule="evenodd" clip-rule="evenodd" d="M76.9533 79.899C77.2948 79.8985 77.6273 80.0078 77.9019 80.2107C78.1765 80.4136 78.3786 80.6995 78.4782 81.026L84.6161 101.187L102.969 107.895C103.272 108.006 103.534 108.206 103.72 108.469C103.906 108.732 104.009 109.045 104.013 109.367C104.018 109.69 103.924 110.006 103.745 110.274C103.566 110.542 103.31 110.749 103.01 110.868L84.7784 118.111L78.4782 139.249C78.38 139.578 78.1786 139.865 77.9039 140.07C77.6292 140.274 77.2958 140.385 76.9533 140.385C76.6109 140.385 76.2775 140.274 76.0028 140.07C75.7281 139.865 75.5267 139.578 75.4284 139.249L69.1283 118.111L50.8962 110.868C50.5968 110.749 50.3406 110.542 50.1616 110.274C49.9826 110.006 49.8891 109.69 49.8936 109.367C49.8981 109.045 50.0003 108.732 50.1867 108.469C50.3731 108.206 50.635 108.006 50.9376 107.895L69.2906 101.187L75.4316 81.026C75.5312 80.7 75.7327 80.4145 76.0067 80.2116C76.2806 80.0088 76.6125 79.8992 76.9533 79.899ZM76.9533 86.9537L72.1048 102.871C72.033 103.107 71.9073 103.323 71.7377 103.502C71.568 103.681 71.3592 103.818 71.1275 103.903L55.9517 109.455L71.0224 115.44C71.2457 115.529 71.4459 115.667 71.6081 115.845C71.7702 116.023 71.8899 116.235 71.9584 116.465L76.9565 133.223L81.9483 116.465C82.0168 116.235 82.1365 116.023 82.2986 115.845C82.4607 115.667 82.6609 115.529 82.8842 115.44L97.955 109.455L82.7792 103.909C82.5475 103.825 82.3386 103.688 82.169 103.509C81.9994 103.33 81.8737 103.114 81.8018 102.878L76.9533 86.9537Z" fill="#29304D"/>
<path d="M101.626 139.176C101.307 139.176 101.021 138.921 100.989 138.603C100.416 132.809 99.9702 130.963 94.6537 130.453C94.3354 130.421 94.0807 130.135 94.0807 129.817C94.0807 129.498 94.3354 129.212 94.6537 129.18C100.098 128.67 100.416 127.27 100.989 121.476C100.989 121.157 101.307 120.903 101.626 120.903C101.944 120.903 102.231 121.157 102.262 121.476C102.835 127.27 103.186 128.67 108.598 129.18C108.916 129.212 109.171 129.498 109.171 129.817C109.171 130.135 108.916 130.421 108.598 130.453C103.249 130.963 102.835 132.809 102.262 138.635C102.262 138.953 101.976 139.208 101.626 139.208V139.176Z" fill="#29304D"/>
</g>
<path fill-rule="evenodd" clip-rule="evenodd" d="M94.3712 1.66492C94.7283 1.66435 95.0762 1.77864 95.3634 1.99089C95.6506 2.20315 95.8619 2.50213 95.9662 2.8437L102.386 23.9319L121.583 30.948C121.9 31.0639 122.173 31.2733 122.368 31.5483C122.563 31.8233 122.67 32.151 122.675 32.4881C122.68 32.8252 122.582 33.1558 122.395 33.4361C122.207 33.7165 121.94 33.9333 121.626 34.0581L102.556 41.6336L95.9662 63.744C95.8635 64.0872 95.6528 64.3881 95.3654 64.602C95.0781 64.816 94.7294 64.9315 94.3712 64.9315C94.0129 64.9315 93.6643 64.816 93.3769 64.602C93.0896 64.3881 92.8789 64.0872 92.7762 63.744L86.1863 41.6336L67.1161 34.0581C66.8028 33.9333 66.5349 33.7165 66.3476 33.4361C66.1604 33.1558 66.0626 32.8252 66.0673 32.4881C66.072 32.151 66.1789 31.8233 66.3739 31.5483C66.5689 31.2733 66.8428 31.0639 67.1593 30.948L86.3561 23.9319L92.7795 2.8437C92.8836 2.50268 93.0945 2.20409 93.381 1.99189C93.6675 1.77968 94.0146 1.66507 94.3712 1.66492ZM94.3712 9.04395L89.2998 25.6934C89.2246 25.9401 89.0931 26.166 88.9157 26.3532C88.7383 26.5405 88.5198 26.6839 88.2775 26.7723L72.4039 32.5796L88.1676 38.8398C88.4012 38.933 88.6106 39.0779 88.7801 39.2636C88.9497 39.4493 89.075 39.671 89.1466 39.912L94.3745 57.4405L99.5958 39.912C99.6674 39.671 99.7927 39.4493 99.9622 39.2636C100.132 39.0779 100.341 38.933 100.575 38.8398L116.338 32.5796L100.465 26.7789C100.223 26.6906 100.004 26.5471 99.8267 26.3599C99.6493 26.1727 99.5178 25.9468 99.4426 25.7001L94.3712 9.04395Z" fill="#29304D"/>
<path d="M120.178 63.6674C119.845 63.6674 119.545 63.401 119.512 63.068C118.912 57.0076 118.446 55.0763 112.885 54.5435C112.552 54.5102 112.286 54.2105 112.286 53.8775C112.286 53.5445 112.552 53.2448 112.885 53.2115C118.58 52.6788 118.912 51.2136 119.512 45.1532C119.512 44.8202 119.845 44.5538 120.178 44.5538C120.511 44.5538 120.811 44.8202 120.844 45.1532C121.443 51.2136 121.809 52.6788 127.47 53.2115C127.803 53.2448 128.07 53.5445 128.07 53.8775C128.07 54.2105 127.803 54.5102 127.47 54.5435C121.876 55.0763 121.443 57.0076 120.844 63.1013C120.844 63.4343 120.544 63.7007 120.178 63.7007V63.6674Z" fill="#29304D"/>
<defs>
<clipPath id="clip0_79_1718">
<rect width="63.6704" height="63.6704" fill="white" transform="translate(0 14.6368)"/>
</clipPath>
<clipPath id="clip1_79_1718">
<rect width="63.6704" height="63.6704" fill="white" transform="translate(48.3018 78.3073)"/>
</clipPath>
</defs>
</svg>
