<svg width="100" height="29" viewBox="0 0 100 29" fill="none" xmlns="http://www.w3.org/2000/svg">
<path d="M26.1734 23L23.5497 6.90002H25.4181L27.1473 18.4682L29.3139 6.95965H30.904L33.0904 18.5278L34.7799 6.90002H36.6085L34.0246 23H32.3947L30.1487 11.0741L27.8827 23H26.1734ZM40.1444 23.159C39.6938 23.159 39.2963 23.0331 38.9518 22.7814C38.6073 22.5163 38.3356 22.1851 38.1368 21.7875C37.9381 21.3768 37.8387 20.9461 37.8387 20.4956C37.8387 19.78 37.958 19.1771 38.1965 18.6868C38.435 18.1965 38.7596 17.7857 39.1704 17.4545C39.5945 17.1099 40.0781 16.8118 40.6214 16.56C41.178 16.3082 41.761 16.0631 42.3705 15.8246V15.0096C42.3705 14.5459 42.344 14.1616 42.291 13.8568C42.238 13.552 42.1254 13.3268 41.9531 13.181C41.7941 13.022 41.549 12.9425 41.2177 12.9425C40.9262 12.9425 40.6877 13.0087 40.5022 13.1412C40.3299 13.2738 40.204 13.4659 40.1245 13.7177C40.045 13.9562 40.0052 14.2411 40.0052 14.5724V15.1488L37.8983 15.0693C37.9248 13.7972 38.2164 12.863 38.7729 12.2667C39.3294 11.6571 40.1908 11.3524 41.3568 11.3524C42.4964 11.3524 43.3047 11.6638 43.7818 12.2866C44.2588 12.9094 44.4973 13.8104 44.4973 14.9898V20.2372C44.4973 20.5949 44.504 20.9395 44.5172 21.2707C44.5437 21.602 44.5702 21.9134 44.5967 22.2049C44.6365 22.4832 44.6696 22.7482 44.6961 23H42.7482C42.7084 22.788 42.6554 22.523 42.5892 22.2049C42.5362 21.8737 42.4964 21.5755 42.4699 21.3105C42.3374 21.761 42.079 22.1851 41.6947 22.5826C41.3237 22.9669 40.8069 23.159 40.1444 23.159ZM40.9792 21.3304C41.1912 21.3304 41.39 21.2707 41.5755 21.1515C41.761 21.0322 41.9266 20.8997 42.0724 20.754C42.2182 20.5949 42.3175 20.4691 42.3705 20.3763V17.1166C42.0393 17.3021 41.7279 17.4876 41.4363 17.6731C41.1448 17.8586 40.8864 18.0574 40.6612 18.2694C40.4491 18.4682 40.2769 18.7 40.1444 18.9651C40.0251 19.2168 39.9655 19.5084 39.9655 19.8396C39.9655 20.3034 40.0516 20.6678 40.2239 20.9328C40.3961 21.1979 40.6479 21.3304 40.9792 21.3304ZM46.739 23V6.90002H48.8658V23H46.739ZM51.2811 23V6.90002H53.4079V23H51.2811ZM58.8047 23.159C57.9036 23.159 57.208 22.9867 56.7177 22.6422C56.2274 22.2844 55.8828 21.7677 55.6841 21.0919C55.4986 20.4028 55.4058 19.5614 55.4058 18.5675V15.9438C55.4058 14.9235 55.5052 14.0754 55.704 13.3996C55.9027 12.7238 56.2473 12.2137 56.7375 11.8692C57.2411 11.5246 57.9301 11.3524 58.8047 11.3524C59.772 11.3524 60.4809 11.5511 60.9315 11.9487C61.3953 12.3462 61.7 12.9226 61.8458 13.6779C61.9916 14.42 62.0644 15.3144 62.0644 16.3612V17.2954H57.5326V19.6011C57.5326 20.0649 57.5724 20.4426 57.6519 20.7341C57.7446 21.0256 57.8838 21.2442 58.0693 21.39C58.268 21.5225 58.5198 21.5888 58.8246 21.5888C59.1426 21.5888 59.3811 21.5159 59.5401 21.3701C59.7124 21.2111 59.825 20.9925 59.878 20.7142C59.9443 20.4227 59.9774 20.0848 59.9774 19.7005V19.0048H62.0446V19.4421C62.0446 20.5949 61.7994 21.5026 61.3091 22.1652C60.8189 22.8277 59.984 23.159 58.8047 23.159ZM57.5326 16.1426H59.9774V15.109C59.9774 14.632 59.9509 14.2345 59.8979 13.9164C59.8449 13.5852 59.7323 13.34 59.56 13.181C59.401 13.0087 59.1426 12.9226 58.7848 12.9226C58.4403 12.9226 58.1753 13.0021 57.9898 13.1611C57.8175 13.3201 57.6982 13.5918 57.632 13.9761C57.5657 14.3471 57.5326 14.8639 57.5326 15.5264V16.1426ZM67.0514 23.159C66.4551 23.159 65.9715 23.0464 65.6004 22.8211C65.2427 22.5958 64.9776 22.2778 64.8054 21.867C64.6464 21.4563 64.5669 20.9726 64.5669 20.4161V12.9226H63.3544V11.5114H64.5669V8.15224H66.6937V11.5114H68.5422V12.9226H66.6937V20.2769C66.6937 20.7275 66.7665 21.0521 66.9123 21.2509C67.0581 21.4364 67.3363 21.5291 67.7471 21.5291C67.8531 21.5291 67.9724 21.5225 68.1049 21.5093C68.2506 21.496 68.3898 21.4828 68.5223 21.4695V23.0398C68.2573 23.0795 68.0121 23.106 67.7869 23.1193C67.5616 23.1458 67.3164 23.159 67.0514 23.159ZM76.9128 23L74.2891 6.90002H76.1575L77.8868 18.4682L80.0533 6.95965H81.6434L83.8298 18.5278L85.5194 6.90002H87.348L84.764 23H83.1342L80.8881 11.0741L78.6222 23H76.9128ZM89.2664 23V11.5114H91.3932V23H89.2664ZM89.2664 9.80199V7.57582H91.3932V9.80199H89.2664ZM93.2321 23V21.5689L96.7502 13.1015H93.5898V11.5114H99.036V12.6642L95.498 21.39H98.9565V23H93.2321Z" fill="#664A75"/>
<g clip-path="url(#clip0_150_8192)">
<g opacity="0.2">
<path fill-rule="evenodd" clip-rule="evenodd" d="M4.82433 7.06543C4.87361 7.06535 4.92161 7.08112 4.96123 7.11041C5.00086 7.1397 5.03003 7.18095 5.04441 7.22808L5.93025 10.1378L8.57902 11.1059C8.6227 11.1219 8.66049 11.1508 8.6874 11.1887C8.7143 11.2267 8.72905 11.2719 8.7297 11.3184C8.73035 11.3649 8.71686 11.4105 8.69102 11.4492C8.66518 11.4879 8.62821 11.5178 8.58499 11.535L5.95368 12.5803L5.04441 15.6311C5.03024 15.6784 5.00117 15.72 4.96152 15.7495C4.92187 15.779 4.87376 15.7949 4.82433 15.7949C4.7749 15.7949 4.72679 15.779 4.68715 15.7495C4.6475 15.72 4.61843 15.6784 4.60425 15.6311L3.69499 12.5803L1.06367 11.535C1.02046 11.5178 0.983486 11.4879 0.957647 11.4492C0.931808 11.4105 0.91832 11.3649 0.918968 11.3184C0.919615 11.2719 0.934367 11.2267 0.961273 11.1887C0.988178 11.1508 1.02597 11.1219 1.06965 11.1059L3.71842 10.1378L4.60471 7.22808C4.61908 7.18102 4.64817 7.13982 4.68771 7.11054C4.72724 7.08126 4.77514 7.06545 4.82433 7.06543Z" fill="white"/>
<path d="M7.96241 15.7725C7.91187 15.7725 7.87052 15.7357 7.86592 15.6898C7.77403 14.7709 7.70511 14.4768 6.84133 14.3987C6.81729 14.3966 6.79492 14.3855 6.77873 14.3676C6.76254 14.3497 6.75371 14.3264 6.75404 14.3022C6.75404 14.2517 6.79079 14.2103 6.84133 14.2057C7.7143 14.123 7.77403 13.8841 7.86592 12.9882C7.87052 12.9376 7.91187 12.9009 7.96241 12.9009C8.01295 12.9009 8.0543 12.9376 8.0589 12.9836C8.15079 13.8841 8.21052 14.123 9.08349 14.2011C9.13403 14.2057 9.17078 14.2471 9.17078 14.2976C9.17078 14.3482 9.13403 14.3895 9.08349 14.3941C8.2243 14.4768 8.15079 14.7709 8.06349 15.6852C8.0589 15.7357 8.01755 15.7725 7.967 15.7725H7.96241Z" fill="black"/>
</g>
<path fill-rule="evenodd" clip-rule="evenodd" d="M4.13512 6.83594C4.1844 6.83586 4.2324 6.85163 4.27203 6.88092C4.31165 6.9102 4.34082 6.95146 4.3552 6.99859L5.24104 9.90833L7.88981 10.8764C7.93349 10.8924 7.97128 10.9213 7.99819 10.9592C8.02509 10.9972 8.03984 11.0424 8.04049 11.0889C8.04114 11.1354 8.02765 11.181 8.00181 11.2197C7.97597 11.2584 7.939 11.2883 7.89578 11.3055L5.26447 12.3508L4.3552 15.4016C4.34103 15.449 4.31196 15.4905 4.27231 15.52C4.23266 15.5495 4.18455 15.5655 4.13512 15.5655C4.0857 15.5655 4.03758 15.5495 3.99794 15.52C3.95829 15.4905 3.92922 15.449 3.91504 15.4016L3.00578 12.3508L0.374465 11.3055C0.331249 11.2883 0.294277 11.2584 0.268438 11.2197C0.242599 11.181 0.229111 11.1354 0.229759 11.0889C0.230406 11.0424 0.245158 10.9972 0.272064 10.9592C0.298969 10.9213 0.33676 10.8924 0.380438 10.8764L3.02921 9.90833L3.9155 6.99859C3.92987 6.95153 3.95896 6.91033 3.9985 6.88105C4.03803 6.85177 4.08593 6.83596 4.13512 6.83594ZM4.13512 7.8541L3.43537 10.1514C3.425 10.1854 3.40686 10.2166 3.38238 10.2424C3.3579 10.2683 3.32775 10.2881 3.29432 10.3002L1.10408 11.1015L3.27916 11.9653C3.31138 11.9782 3.34028 11.9982 3.36367 12.0238C3.38707 12.0494 3.40435 12.08 3.41424 12.1133L4.13558 14.5319L4.85601 12.1133C4.86589 12.08 4.88318 12.0494 4.90658 12.0238C4.92997 11.9982 4.95887 11.9782 4.99109 11.9653L7.16617 11.1015L4.97593 10.3012C4.9425 10.289 4.91235 10.2692 4.88787 10.2433C4.86339 10.2175 4.84525 10.1863 4.83488 10.1523L4.13512 7.8541Z" fill="#7E5989"/>
<path d="M7.69597 15.3907C7.65002 15.3907 7.60867 15.3539 7.60408 15.308C7.52138 14.4718 7.45705 14.2053 6.68976 14.1318C6.64381 14.1272 6.60706 14.0858 6.60706 14.0399C6.60706 13.994 6.64381 13.9526 6.68976 13.948C7.47543 13.8745 7.52138 13.6723 7.60408 12.8361C7.60408 12.7902 7.65002 12.7534 7.69597 12.7534C7.74192 12.7534 7.78327 12.7902 7.78786 12.8361C7.87056 13.6723 7.9211 13.8745 8.70218 13.948C8.74813 13.9526 8.78488 13.994 8.78488 14.0399C8.78488 14.0858 8.74813 14.1272 8.70218 14.1318C7.93029 14.2053 7.87056 14.4718 7.78786 15.3126C7.78786 15.3585 7.74651 15.3953 7.69597 15.3953V15.3907Z" fill="#7E5989"/>
</g>
<g clip-path="url(#clip1_150_8192)">
<g opacity="0.2">
<path fill-rule="evenodd" clip-rule="evenodd" d="M11.7954 16.2549C11.8447 16.2548 11.8927 16.2706 11.9323 16.2999C11.9719 16.3291 12.0011 16.3704 12.0155 16.4175L12.9013 19.3273L15.5501 20.2954C15.5938 20.3114 15.6316 20.3402 15.6585 20.3782C15.6854 20.4161 15.7001 20.4614 15.7008 20.5079C15.7014 20.5544 15.6879 20.6 15.6621 20.6387C15.6363 20.6773 15.5993 20.7073 15.5561 20.7245L12.9247 21.7698L12.0155 24.8205C12.0013 24.8679 11.9722 24.9094 11.9326 24.9389C11.8929 24.9685 11.8448 24.9844 11.7954 24.9844C11.746 24.9844 11.6979 24.9685 11.6582 24.9389C11.6186 24.9094 11.5895 24.8679 11.5753 24.8205L10.6661 21.7698L8.03474 20.7245C7.99153 20.7073 7.95456 20.6773 7.92872 20.6387C7.90288 20.6 7.88939 20.5544 7.89004 20.5079C7.89068 20.4614 7.90544 20.4161 7.93234 20.3782C7.95925 20.3402 7.99704 20.3114 8.04072 20.2954L10.6895 19.3273L11.5758 16.4175C11.5901 16.3705 11.6192 16.3293 11.6588 16.3C11.6983 16.2707 11.7462 16.2549 11.7954 16.2549Z" fill="white"/>
<path d="M14.9335 24.9615C14.8829 24.9615 14.8416 24.9247 14.837 24.8788C14.7451 23.9598 14.6762 23.6658 13.8124 23.5877C13.7884 23.5856 13.766 23.5745 13.7498 23.5566C13.7336 23.5387 13.7248 23.5153 13.7251 23.4912C13.7251 23.4406 13.7619 23.3993 13.8124 23.3947C14.6854 23.312 14.7451 23.0731 14.837 22.1771C14.8416 22.1266 14.8829 22.0898 14.9335 22.0898C14.984 22.0898 15.0254 22.1266 15.03 22.1725C15.1219 23.0731 15.1816 23.312 16.0546 23.3901C16.1051 23.3947 16.1419 23.4361 16.1419 23.4866C16.1419 23.5371 16.1051 23.5785 16.0546 23.5831C15.1954 23.6658 15.1219 23.9598 15.0346 24.8742C15.03 24.9247 14.9886 24.9615 14.9381 24.9615H14.9335Z" fill="black"/>
</g>
<path fill-rule="evenodd" clip-rule="evenodd" d="M11.1062 16.0249C11.1555 16.0248 11.2035 16.0406 11.2431 16.0699C11.2827 16.0992 11.3119 16.1404 11.3263 16.1876L12.2121 19.0973L14.8609 20.0654C14.9046 20.0814 14.9423 20.1103 14.9693 20.1482C14.9962 20.1862 15.0109 20.2314 15.0116 20.2779C15.0122 20.3244 14.9987 20.37 14.9729 20.4087C14.947 20.4474 14.9101 20.4773 14.8669 20.4945L12.2355 21.5398L11.3263 24.5906C11.3121 24.6379 11.283 24.6794 11.2434 24.709C11.2037 24.7385 11.1556 24.7544 11.1062 24.7544C11.0568 24.7544 11.0087 24.7385 10.969 24.709C10.9294 24.6794 10.9003 24.6379 10.8861 24.5906L9.97685 21.5398L7.34553 20.4945C7.30232 20.4773 7.26535 20.4474 7.23951 20.4087C7.21367 20.37 7.20018 20.3244 7.20083 20.2779C7.20148 20.2314 7.21623 20.1862 7.24313 20.1482C7.27004 20.1103 7.30783 20.0814 7.35151 20.0654L10.0003 19.0973L10.8866 16.1876C10.9009 16.1405 10.93 16.0993 10.9696 16.07C11.0091 16.0407 11.057 16.0249 11.1062 16.0249ZM11.1062 17.0431L10.4064 19.3403C10.3961 19.3744 10.3779 19.4056 10.3534 19.4314C10.329 19.4572 10.2988 19.477 10.2654 19.4892L8.07515 20.2905L10.2502 21.1543C10.2825 21.1671 10.3113 21.1871 10.3347 21.2128C10.3581 21.2384 10.3754 21.269 10.3853 21.3022L11.1067 23.7208L11.8271 21.3022C11.837 21.269 11.8543 21.2384 11.8776 21.2128C11.901 21.1871 11.9299 21.1671 11.9622 21.1543L14.1372 20.2905L11.947 19.4901C11.9136 19.4779 11.8834 19.4581 11.8589 19.4323C11.8345 19.4065 11.8163 19.3753 11.8059 19.3413L11.1062 17.0431Z" fill="#7E5989"/>
<path d="M14.667 24.5802C14.6211 24.5802 14.5797 24.5434 14.5751 24.4975C14.4924 23.6612 14.4281 23.3948 13.6608 23.3212C13.6149 23.3166 13.5781 23.2753 13.5781 23.2294C13.5781 23.1834 13.6149 23.1421 13.6608 23.1375C14.4465 23.0639 14.4924 22.8618 14.5751 22.0256C14.5751 21.9796 14.6211 21.9429 14.667 21.9429C14.713 21.9429 14.7543 21.9796 14.7589 22.0256C14.8416 22.8618 14.8922 23.0639 15.6733 23.1375C15.7192 23.1421 15.756 23.1834 15.756 23.2294C15.756 23.2753 15.7192 23.3166 15.6733 23.3212C14.9014 23.3948 14.8416 23.6612 14.7589 24.502C14.7589 24.548 14.7176 24.5848 14.667 24.5848V24.5802Z" fill="#7E5989"/>
</g>
<g clip-path="url(#clip2_150_8192)">
<path fill-rule="evenodd" clip-rule="evenodd" d="M13.62 4.73389C13.6715 4.73381 13.7217 4.7503 13.7632 4.78093C13.8046 4.81157 13.8351 4.85472 13.8502 4.90401L14.7767 7.94754L17.5473 8.96013C17.593 8.97686 17.6325 9.00708 17.6607 9.04677C17.6888 9.08646 17.7042 9.13376 17.7049 9.18241C17.7056 9.23106 17.6915 9.27877 17.6644 9.31923C17.6374 9.35969 17.5987 9.39099 17.5535 9.40899L14.8013 10.5023L13.8502 13.6934C13.8354 13.7429 13.8049 13.7863 13.7635 13.8172C13.722 13.8481 13.6717 13.8648 13.62 13.8648C13.5683 13.8648 13.518 13.8481 13.4765 13.8172C13.435 13.7863 13.4046 13.7429 13.3898 13.6934L12.4387 10.5023L9.68642 9.40899C9.64121 9.39099 9.60254 9.35969 9.57552 9.31923C9.54849 9.27877 9.53438 9.23106 9.53506 9.18241C9.53573 9.13376 9.55116 9.08646 9.57931 9.04677C9.60745 9.00708 9.64698 8.97686 9.69266 8.96013L12.4632 7.94754L13.3903 4.90401C13.4053 4.8548 13.4357 4.8117 13.4771 4.78108C13.5184 4.75045 13.5685 4.73391 13.62 4.73389ZM13.62 5.79886L12.8881 8.20177C12.8772 8.23738 12.8582 8.26998 12.8326 8.297C12.807 8.32402 12.7755 8.34472 12.7405 8.35748L10.4496 9.19561L12.7247 10.0991C12.7584 10.1126 12.7886 10.1335 12.8131 10.1603C12.8375 10.1871 12.8556 10.2191 12.8659 10.2539L13.6205 12.7836L14.374 10.2539C14.3843 10.2191 14.4024 10.1871 14.4269 10.1603C14.4514 10.1335 14.4816 10.1126 14.5153 10.0991L16.7904 9.19561L14.4994 8.35844C14.4645 8.34568 14.4329 8.32498 14.4073 8.29796C14.3817 8.27094 14.3628 8.23834 14.3519 8.20273L13.62 5.79886Z" fill="#7E5989"/>
<path d="M17.3445 13.6824C17.2965 13.6824 17.2532 13.6439 17.2484 13.5959C17.1619 12.7212 17.0946 12.4425 16.2921 12.3656C16.244 12.3608 16.2056 12.3175 16.2056 12.2695C16.2056 12.2214 16.244 12.1781 16.2921 12.1733C17.1139 12.0964 17.1619 11.885 17.2484 11.0103C17.2484 10.9623 17.2965 10.9238 17.3445 10.9238C17.3926 10.9238 17.4359 10.9623 17.4407 11.0103C17.5272 11.885 17.58 12.0964 18.397 12.1733C18.4451 12.1781 18.4835 12.2214 18.4835 12.2695C18.4835 12.3175 18.4451 12.3608 18.397 12.3656C17.5896 12.4425 17.5272 12.7212 17.4407 13.6007C17.4407 13.6487 17.3974 13.6872 17.3445 13.6872V13.6824Z" fill="#7E5989"/>
</g>
<defs>
<clipPath id="clip0_150_8192">
<rect width="9.18915" height="9.18915" fill="white" transform="translate(0 6.60596)"/>
</clipPath>
<clipPath id="clip1_150_8192">
<rect width="9.18915" height="9.18915" fill="white" transform="translate(6.97107 15.7954)"/>
</clipPath>
<clipPath id="clip2_150_8192">
<rect width="9.61164" height="9.61164" fill="white" transform="translate(9.2948 4.49365)"/>
</clipPath>
</defs>
</svg>
