<svg width="414" height="868" viewBox="0 0 414 868" fill="none" xmlns="http://www.w3.org/2000/svg">
<g filter="url(#filter0_d_46_1258)">
<rect width="390" height="844" transform="translate(8 4)" fill="white"/>
<path d="M38.72 145.096C37.8773 145.096 37.0933 144.957 36.368 144.68C35.6533 144.392 35.0293 143.992 34.496 143.48C33.9733 142.957 33.5627 142.355 33.264 141.672C32.976 140.979 32.832 140.221 32.832 139.4C32.832 138.579 32.976 137.827 33.264 137.144C33.5627 136.451 33.9733 135.848 34.496 135.336C35.0293 134.813 35.6533 134.413 36.368 134.136C37.0827 133.848 37.8667 133.704 38.72 133.704C39.5627 133.704 40.3413 133.848 41.056 134.136C41.7707 134.413 42.3893 134.808 42.912 135.32C43.4453 135.832 43.856 136.435 44.144 137.128C44.4427 137.821 44.592 138.579 44.592 139.4C44.592 140.221 44.4427 140.979 44.144 141.672C43.856 142.365 43.4453 142.968 42.912 143.48C42.3893 143.992 41.7707 144.392 41.056 144.68C40.3413 144.957 39.5627 145.096 38.72 145.096ZM42.384 147.224C42.0427 147.224 41.712 147.181 41.392 147.096C41.072 147.011 40.7467 146.872 40.416 146.68C40.096 146.499 39.7653 146.259 39.424 145.96C39.0827 145.661 38.7093 145.299 38.304 144.872L39.6 144.552C39.9307 144.947 40.2507 145.272 40.56 145.528C40.88 145.784 41.1893 145.971 41.488 146.088C41.7973 146.216 42.1013 146.28 42.4 146.28C43.232 146.28 43.9413 145.939 44.528 145.256L45.104 145.944C44.4 146.797 43.4933 147.224 42.384 147.224ZM38.72 144.04C39.392 144.04 40.0107 143.928 40.576 143.704C41.152 143.469 41.648 143.139 42.064 142.712C42.4907 142.285 42.8213 141.795 43.056 141.24C43.2907 140.675 43.408 140.061 43.408 139.4C43.408 138.728 43.2907 138.115 43.056 137.56C42.8213 136.995 42.4907 136.504 42.064 136.088C41.648 135.661 41.152 135.336 40.576 135.112C40.0107 134.877 39.392 134.76 38.72 134.76C38.048 134.76 37.424 134.877 36.848 135.112C36.272 135.336 35.7707 135.661 35.344 136.088C34.928 136.504 34.5973 136.995 34.352 137.56C34.1173 138.115 34 138.728 34 139.4C34 140.061 34.1173 140.675 34.352 141.24C34.5973 141.795 34.928 142.285 35.344 142.712C35.7707 143.139 36.272 143.469 36.848 143.704C37.424 143.928 38.048 144.04 38.72 144.04ZM50.4779 145.08C49.7632 145.08 49.1392 144.947 48.6059 144.68C48.0725 144.413 47.6565 144.013 47.3579 143.48C47.0699 142.947 46.9259 142.28 46.9259 141.48V136.6H48.0619V141.352C48.0619 142.248 48.2805 142.925 48.7179 143.384C49.1659 143.832 49.7899 144.056 50.5899 144.056C51.1765 144.056 51.6832 143.939 52.1099 143.704C52.5472 143.459 52.8779 143.107 53.1019 142.648C53.3365 142.189 53.4539 141.64 53.4539 141V136.6H54.5899V145H53.5019V142.696L53.6779 143.112C53.4112 143.731 52.9952 144.216 52.4299 144.568C51.8752 144.909 51.2245 145.08 50.4779 145.08ZM61.3239 145.08C60.4492 145.08 59.6812 144.899 59.0199 144.536C58.3585 144.163 57.8412 143.656 57.4679 143.016C57.0945 142.365 56.9079 141.624 56.9079 140.792C56.9079 139.96 57.0839 139.224 57.4359 138.584C57.7985 137.944 58.2892 137.443 58.9079 137.08C59.5372 136.707 60.2412 136.52 61.0199 136.52C61.8092 136.52 62.5079 136.701 63.1159 137.064C63.7345 137.416 64.2199 137.917 64.5719 138.568C64.9239 139.208 65.0999 139.949 65.0999 140.792C65.0999 140.845 65.0945 140.904 65.0839 140.968C65.0839 141.021 65.0839 141.08 65.0839 141.144H57.7719V140.296H64.4759L64.0279 140.632C64.0279 140.024 63.8945 139.485 63.6279 139.016C63.3719 138.536 63.0199 138.163 62.5719 137.896C62.1239 137.629 61.6065 137.496 61.0199 137.496C60.4439 137.496 59.9265 137.629 59.4679 137.896C59.0092 138.163 58.6519 138.536 58.3959 139.016C58.1399 139.496 58.0119 140.045 58.0119 140.664V140.84C58.0119 141.48 58.1505 142.045 58.4279 142.536C58.7159 143.016 59.1105 143.395 59.6119 143.672C60.1239 143.939 60.7052 144.072 61.3559 144.072C61.8679 144.072 62.3425 143.981 62.7799 143.8C63.2279 143.619 63.6119 143.341 63.9319 142.968L64.5719 143.704C64.1985 144.152 63.7292 144.493 63.1639 144.728C62.6092 144.963 61.9959 145.08 61.3239 145.08ZM69.6681 145.08C68.9748 145.08 68.3188 144.984 67.7001 144.792C67.0815 144.589 66.5961 144.339 66.2441 144.04L66.7561 143.144C67.0975 143.4 67.5348 143.624 68.0681 143.816C68.6015 143.997 69.1615 144.088 69.7481 144.088C70.5481 144.088 71.1241 143.965 71.4761 143.72C71.8281 143.464 72.0041 143.128 72.0041 142.712C72.0041 142.403 71.9028 142.163 71.7001 141.992C71.5081 141.811 71.2521 141.677 70.9321 141.592C70.6121 141.496 70.2548 141.416 69.8601 141.352C69.4655 141.288 69.0708 141.213 68.6761 141.128C68.2921 141.043 67.9401 140.92 67.6201 140.76C67.3001 140.589 67.0388 140.36 66.8361 140.072C66.6441 139.784 66.5481 139.4 66.5481 138.92C66.5481 138.461 66.6761 138.051 66.9321 137.688C67.1881 137.325 67.5615 137.043 68.0521 136.84C68.5535 136.627 69.1615 136.52 69.8761 136.52C70.4201 136.52 70.9641 136.595 71.5081 136.744C72.0521 136.883 72.5001 137.069 72.8521 137.304L72.3561 138.216C71.9828 137.96 71.5828 137.779 71.1561 137.672C70.7295 137.555 70.3028 137.496 69.8761 137.496C69.1188 137.496 68.5588 137.629 68.1961 137.896C67.8441 138.152 67.6681 138.483 67.6681 138.888C67.6681 139.208 67.7641 139.459 67.9561 139.64C68.1588 139.821 68.4201 139.965 68.7401 140.072C69.0708 140.168 69.4281 140.248 69.8121 140.312C70.2068 140.376 70.5961 140.456 70.9801 140.552C71.3748 140.637 71.7321 140.76 72.0521 140.92C72.3828 141.069 72.6441 141.288 72.8361 141.576C73.0388 141.853 73.1401 142.221 73.1401 142.68C73.1401 143.171 73.0015 143.597 72.7241 143.96C72.4575 144.312 72.0628 144.589 71.5401 144.792C71.0281 144.984 70.4041 145.08 69.6681 145.08ZM77.8806 145.08C77.0913 145.08 76.4833 144.867 76.0566 144.44C75.63 144.013 75.4166 143.411 75.4166 142.632V134.744H76.5526V142.568C76.5526 143.059 76.6753 143.437 76.9206 143.704C77.1766 143.971 77.5393 144.104 78.0086 144.104C78.51 144.104 78.926 143.96 79.2566 143.672L79.6566 144.488C79.4326 144.691 79.1606 144.84 78.8406 144.936C78.5313 145.032 78.2113 145.08 77.8806 145.08ZM73.9126 137.544V136.6H79.1126V137.544H73.9126ZM81.7246 145V136.6H82.8606V145H81.7246ZM82.3006 134.744C82.066 134.744 81.8686 134.664 81.7086 134.504C81.5486 134.344 81.4686 134.152 81.4686 133.928C81.4686 133.704 81.5486 133.517 81.7086 133.368C81.8686 133.208 82.066 133.128 82.3006 133.128C82.5353 133.128 82.7326 133.203 82.8926 133.352C83.0526 133.501 83.1326 133.688 83.1326 133.912C83.1326 134.147 83.0526 134.344 82.8926 134.504C82.7433 134.664 82.546 134.744 82.3006 134.744ZM89.4455 145.08C88.6348 145.08 87.9042 144.899 87.2535 144.536C86.6135 144.163 86.1068 143.656 85.7335 143.016C85.3602 142.365 85.1735 141.624 85.1735 140.792C85.1735 139.949 85.3602 139.208 85.7335 138.568C86.1068 137.928 86.6135 137.427 87.2535 137.064C87.8935 136.701 88.6242 136.52 89.4455 136.52C90.2775 136.52 91.0135 136.701 91.6535 137.064C92.3042 137.427 92.8108 137.928 93.1735 138.568C93.5468 139.208 93.7335 139.949 93.7335 140.792C93.7335 141.624 93.5468 142.365 93.1735 143.016C92.8108 143.656 92.3042 144.163 91.6535 144.536C91.0028 144.899 90.2668 145.08 89.4455 145.08ZM89.4455 144.072C90.0535 144.072 90.5922 143.939 91.0615 143.672C91.5308 143.395 91.8988 143.011 92.1655 142.52C92.4428 142.019 92.5815 141.443 92.5815 140.792C92.5815 140.131 92.4428 139.555 92.1655 139.064C91.8988 138.573 91.5308 138.195 91.0615 137.928C90.5922 137.651 90.0588 137.512 89.4615 137.512C88.8642 137.512 88.3308 137.651 87.8615 137.928C87.3922 138.195 87.0188 138.573 86.7415 139.064C86.4642 139.555 86.3255 140.131 86.3255 140.792C86.3255 141.443 86.4642 142.019 86.7415 142.52C87.0188 143.011 87.3922 143.395 87.8615 143.672C88.3308 143.939 88.8588 144.072 89.4455 144.072ZM100.341 136.52C101.023 136.52 101.621 136.653 102.133 136.92C102.655 137.176 103.061 137.571 103.349 138.104C103.647 138.637 103.797 139.309 103.797 140.12V145H102.661V140.232C102.661 139.347 102.437 138.68 101.989 138.232C101.551 137.773 100.933 137.544 100.133 137.544C99.5354 137.544 99.0128 137.667 98.5648 137.912C98.1274 138.147 97.7861 138.493 97.5408 138.952C97.3061 139.4 97.1888 139.944 97.1888 140.584V145H96.0528V136.6H97.1408V138.904L96.9648 138.472C97.2314 137.864 97.6581 137.389 98.2448 137.048C98.8314 136.696 99.5301 136.52 100.341 136.52ZM110.109 142.056V141.224L116.045 133.8H117.325L111.437 141.224L110.813 141.032H119.821V142.056H110.109ZM116.429 145V142.056L116.461 141.032V138.44H117.581V145H116.429ZM120.1 146.6L125.38 131.528H126.42L121.14 146.6H120.1ZM129.128 145V134.28L129.64 134.824H126.488V133.8H130.28V145H129.128ZM136.493 145.096C135.693 145.096 134.93 144.968 134.205 144.712C133.48 144.445 132.904 144.093 132.477 143.656L133.037 142.744C133.389 143.117 133.869 143.427 134.477 143.672C135.096 143.917 135.762 144.04 136.477 144.04C137.426 144.04 138.146 143.832 138.637 143.416C139.138 142.989 139.389 142.435 139.389 141.752C139.389 141.272 139.272 140.861 139.037 140.52C138.813 140.168 138.429 139.896 137.885 139.704C137.341 139.512 136.594 139.416 135.645 139.416H133.261L133.837 133.8H139.965V134.824H134.301L134.893 134.264L134.397 138.968L133.805 138.392H135.901C137.032 138.392 137.938 138.531 138.621 138.808C139.304 139.085 139.794 139.475 140.093 139.976C140.402 140.467 140.557 141.043 140.557 141.704C140.557 142.333 140.408 142.909 140.109 143.432C139.81 143.944 139.362 144.349 138.765 144.648C138.168 144.947 137.41 145.096 136.493 145.096Z" fill="black"/>
<rect width="342" height="8" transform="translate(32 158)" fill="#F5F5F5"/>
<rect width="75" height="8" transform="translate(32 158)" fill="#767676"/>
<rect width="342" height="542" transform="translate(32 233)" fill="#F5F5F5"/>
<rect x="51.5" y="462.5" width="302" height="45" stroke="#767676"/>
<path d="M65.032 491L70.152 479.8H71.32L76.44 491H75.192L70.488 480.488H70.968L66.264 491H65.032ZM67.048 488.008L67.4 487.048H73.912L74.264 488.008H67.048ZM82.3888 491.08C81.6528 491.08 80.9914 490.915 80.4048 490.584C79.8181 490.243 79.3541 489.752 79.0128 489.112C78.6714 488.472 78.5008 487.699 78.5008 486.792C78.5008 485.875 78.6714 485.101 79.0128 484.472C79.3648 483.832 79.8341 483.347 80.4208 483.016C81.0074 482.685 81.6634 482.52 82.3888 482.52C83.1888 482.52 83.9034 482.701 84.5328 483.064C85.1728 483.416 85.6741 483.912 86.0368 484.552C86.3994 485.192 86.5808 485.939 86.5808 486.792C86.5808 487.635 86.3994 488.381 86.0368 489.032C85.6741 489.672 85.1728 490.173 84.5328 490.536C83.9034 490.899 83.1888 491.08 82.3888 491.08ZM78.0528 491V479.128H79.1888V485.08L79.0288 486.776L79.1408 488.472V491H78.0528ZM82.3088 490.072C82.9061 490.072 83.4394 489.939 83.9088 489.672C84.3781 489.395 84.7514 489.011 85.0288 488.52C85.3061 488.019 85.4448 487.443 85.4448 486.792C85.4448 486.131 85.3061 485.555 85.0288 485.064C84.7514 484.573 84.3781 484.195 83.9088 483.928C83.4394 483.651 82.9061 483.512 82.3088 483.512C81.7114 483.512 81.1728 483.651 80.6927 483.928C80.2234 484.195 79.8501 484.573 79.5728 485.064C79.3061 485.555 79.1728 486.131 79.1728 486.792C79.1728 487.443 79.3061 488.019 79.5728 488.52C79.8501 489.011 80.2234 489.395 80.6927 489.672C81.1728 489.939 81.7114 490.072 82.3088 490.072ZM91.1525 491.08C90.4592 491.08 89.8032 490.984 89.1845 490.792C88.5658 490.589 88.0805 490.339 87.7285 490.04L88.2405 489.144C88.5818 489.4 89.0192 489.624 89.5525 489.816C90.0858 489.997 90.6458 490.088 91.2325 490.088C92.0325 490.088 92.6085 489.965 92.9605 489.72C93.3125 489.464 93.4885 489.128 93.4885 488.712C93.4885 488.403 93.3872 488.163 93.1845 487.992C92.9925 487.811 92.7365 487.677 92.4165 487.592C92.0965 487.496 91.7392 487.416 91.3445 487.352C90.9498 487.288 90.5552 487.213 90.1605 487.128C89.7765 487.043 89.4245 486.92 89.1045 486.76C88.7845 486.589 88.5232 486.36 88.3205 486.072C88.1285 485.784 88.0325 485.4 88.0325 484.92C88.0325 484.461 88.1605 484.051 88.4165 483.688C88.6725 483.325 89.0458 483.043 89.5365 482.84C90.0378 482.627 90.6458 482.52 91.3605 482.52C91.9045 482.52 92.4485 482.595 92.9925 482.744C93.5365 482.883 93.9845 483.069 94.3365 483.304L93.8405 484.216C93.4672 483.96 93.0672 483.779 92.6405 483.672C92.2138 483.555 91.7872 483.496 91.3605 483.496C90.6032 483.496 90.0432 483.629 89.6805 483.896C89.3285 484.152 89.1525 484.483 89.1525 484.888C89.1525 485.208 89.2485 485.459 89.4405 485.64C89.6432 485.821 89.9045 485.965 90.2245 486.072C90.5552 486.168 90.9125 486.248 91.2965 486.312C91.6912 486.376 92.0805 486.456 92.4645 486.552C92.8592 486.637 93.2165 486.76 93.5365 486.92C93.8672 487.069 94.1285 487.288 94.3205 487.576C94.5232 487.853 94.6245 488.221 94.6245 488.68C94.6245 489.171 94.4858 489.597 94.2085 489.96C93.9418 490.312 93.5472 490.589 93.0245 490.792C92.5125 490.984 91.8885 491.08 91.1525 491.08ZM100.133 491.08C99.3223 491.08 98.5917 490.899 97.941 490.536C97.301 490.163 96.7943 489.656 96.421 489.016C96.0477 488.365 95.861 487.624 95.861 486.792C95.861 485.949 96.0477 485.208 96.421 484.568C96.7943 483.928 97.301 483.427 97.941 483.064C98.581 482.701 99.3117 482.52 100.133 482.52C100.965 482.52 101.701 482.701 102.341 483.064C102.992 483.427 103.498 483.928 103.861 484.568C104.234 485.208 104.421 485.949 104.421 486.792C104.421 487.624 104.234 488.365 103.861 489.016C103.498 489.656 102.992 490.163 102.341 490.536C101.69 490.899 100.954 491.08 100.133 491.08ZM100.133 490.072C100.741 490.072 101.28 489.939 101.749 489.672C102.218 489.395 102.586 489.011 102.853 488.52C103.13 488.019 103.269 487.443 103.269 486.792C103.269 486.131 103.13 485.555 102.853 485.064C102.586 484.573 102.218 484.195 101.749 483.928C101.28 483.651 100.746 483.512 100.149 483.512C99.5517 483.512 99.0183 483.651 98.549 483.928C98.0797 484.195 97.7063 484.573 97.429 485.064C97.1517 485.555 97.013 486.131 97.013 486.792C97.013 487.443 97.1517 488.019 97.429 488.52C97.7063 489.011 98.0797 489.395 98.549 489.672C99.0183 489.939 99.5463 490.072 100.133 490.072ZM106.74 491V479.128H107.876V491H106.74ZM114.509 491.08C113.794 491.08 113.17 490.947 112.637 490.68C112.104 490.413 111.688 490.013 111.389 489.48C111.101 488.947 110.957 488.28 110.957 487.48V482.6H112.093V487.352C112.093 488.248 112.312 488.925 112.749 489.384C113.197 489.832 113.821 490.056 114.621 490.056C115.208 490.056 115.714 489.939 116.141 489.704C116.578 489.459 116.909 489.107 117.133 488.648C117.368 488.189 117.485 487.64 117.485 487V482.6H118.621V491H117.533V488.696L117.709 489.112C117.442 489.731 117.026 490.216 116.461 490.568C115.906 490.909 115.256 491.08 114.509 491.08ZM124.443 491.08C123.654 491.08 123.046 490.867 122.619 490.44C122.192 490.013 121.979 489.411 121.979 488.632V480.744H123.115V488.568C123.115 489.059 123.238 489.437 123.483 489.704C123.739 489.971 124.102 490.104 124.571 490.104C125.072 490.104 125.488 489.96 125.819 489.672L126.219 490.488C125.995 490.691 125.723 490.84 125.403 490.936C125.094 491.032 124.774 491.08 124.443 491.08ZM120.475 483.544V482.6H125.675V483.544H120.475ZM131.558 491.08C130.684 491.08 129.916 490.899 129.254 490.536C128.593 490.163 128.076 489.656 127.702 489.016C127.329 488.365 127.142 487.624 127.142 486.792C127.142 485.96 127.318 485.224 127.67 484.584C128.033 483.944 128.524 483.443 129.142 483.08C129.772 482.707 130.476 482.52 131.254 482.52C132.044 482.52 132.742 482.701 133.35 483.064C133.969 483.416 134.454 483.917 134.806 484.568C135.158 485.208 135.334 485.949 135.334 486.792C135.334 486.845 135.329 486.904 135.318 486.968C135.318 487.021 135.318 487.08 135.318 487.144H128.006V486.296H134.71L134.262 486.632C134.262 486.024 134.129 485.485 133.862 485.016C133.606 484.536 133.254 484.163 132.806 483.896C132.358 483.629 131.841 483.496 131.254 483.496C130.678 483.496 130.161 483.629 129.702 483.896C129.244 484.163 128.886 484.536 128.63 485.016C128.374 485.496 128.246 486.045 128.246 486.664V486.84C128.246 487.48 128.385 488.045 128.662 488.536C128.95 489.016 129.345 489.395 129.846 489.672C130.358 489.939 130.94 490.072 131.59 490.072C132.102 490.072 132.577 489.981 133.014 489.8C133.462 489.619 133.846 489.341 134.166 488.968L134.806 489.704C134.433 490.152 133.964 490.493 133.398 490.728C132.844 490.963 132.23 491.08 131.558 491.08ZM137.647 491V479.128H138.783V491H137.647ZM142.007 494.184C141.613 494.184 141.234 494.12 140.871 493.992C140.519 493.864 140.215 493.672 139.959 493.416L140.487 492.568C140.701 492.771 140.93 492.925 141.175 493.032C141.431 493.149 141.714 493.208 142.023 493.208C142.397 493.208 142.717 493.101 142.983 492.888C143.261 492.685 143.522 492.323 143.767 491.8L144.311 490.568L144.439 490.392L147.895 482.6H149.015L144.807 492.008C144.573 492.552 144.311 492.984 144.023 493.304C143.746 493.624 143.442 493.848 143.111 493.976C142.781 494.115 142.413 494.184 142.007 494.184ZM144.247 491.24L140.375 482.6H141.559L144.983 490.312L144.247 491.24ZM150.663 487.64L150.439 479.8H151.783L151.543 487.64H150.663ZM151.111 491.08C150.877 491.08 150.674 491 150.503 490.84C150.343 490.669 150.263 490.472 150.263 490.248C150.263 490.013 150.343 489.821 150.503 489.672C150.674 489.512 150.877 489.432 151.111 489.432C151.357 489.432 151.554 489.512 151.703 489.672C151.863 489.821 151.943 490.013 151.943 490.248C151.943 490.472 151.863 490.669 151.703 490.84C151.554 491 151.357 491.08 151.111 491.08Z" fill="black"/>
<rect x="51.5" y="528.5" width="302" height="45" stroke="#767676"/>
<path d="M69.912 557.096C69.08 557.096 68.28 556.963 67.512 556.696C66.7547 556.419 66.168 556.067 65.752 555.64L66.216 554.728C66.6107 555.112 67.1387 555.437 67.8 555.704C68.472 555.96 69.176 556.088 69.912 556.088C70.616 556.088 71.1867 556.003 71.624 555.832C72.072 555.651 72.3973 555.411 72.6 555.112C72.8133 554.813 72.92 554.483 72.92 554.12C72.92 553.683 72.792 553.331 72.536 553.064C72.2907 552.797 71.9653 552.589 71.56 552.44C71.1547 552.28 70.7067 552.141 70.216 552.024C69.7253 551.907 69.2347 551.784 68.744 551.656C68.2533 551.517 67.8 551.336 67.384 551.112C66.9787 550.888 66.648 550.595 66.392 550.232C66.1467 549.859 66.024 549.373 66.024 548.776C66.024 548.221 66.168 547.715 66.456 547.256C66.7547 546.787 67.208 546.413 67.816 546.136C68.424 545.848 69.2027 545.704 70.152 545.704C70.7813 545.704 71.4053 545.795 72.024 545.976C72.6427 546.147 73.176 546.387 73.624 546.696L73.224 547.64C72.744 547.32 72.232 547.085 71.688 546.936C71.1547 546.787 70.6373 546.712 70.136 546.712C69.464 546.712 68.9093 546.803 68.472 546.984C68.0347 547.165 67.7093 547.411 67.496 547.72C67.2933 548.019 67.192 548.36 67.192 548.744C67.192 549.181 67.3147 549.533 67.56 549.8C67.816 550.067 68.1467 550.275 68.552 550.424C68.968 550.573 69.4213 550.707 69.912 550.824C70.4027 550.941 70.888 551.069 71.368 551.208C71.8587 551.347 72.3067 551.528 72.712 551.752C73.128 551.965 73.4587 552.253 73.704 552.616C73.96 552.979 74.088 553.453 74.088 554.04C74.088 554.584 73.9387 555.091 73.64 555.56C73.3413 556.019 72.8827 556.392 72.264 556.68C71.656 556.957 70.872 557.096 69.912 557.096ZM79.8518 557.08C79.0411 557.08 78.3104 556.899 77.6598 556.536C77.0198 556.163 76.5131 555.656 76.1398 555.016C75.7664 554.365 75.5798 553.624 75.5798 552.792C75.5798 551.949 75.7664 551.208 76.1398 550.568C76.5131 549.928 77.0198 549.427 77.6598 549.064C78.2998 548.701 79.0304 548.52 79.8518 548.52C80.6838 548.52 81.4198 548.701 82.0598 549.064C82.7104 549.427 83.2171 549.928 83.5798 550.568C83.9531 551.208 84.1398 551.949 84.1398 552.792C84.1398 553.624 83.9531 554.365 83.5798 555.016C83.2171 555.656 82.7104 556.163 82.0598 556.536C81.4091 556.899 80.6731 557.08 79.8518 557.08ZM79.8518 556.072C80.4598 556.072 80.9984 555.939 81.4678 555.672C81.9371 555.395 82.3051 555.011 82.5718 554.52C82.8491 554.019 82.9878 553.443 82.9878 552.792C82.9878 552.131 82.8491 551.555 82.5718 551.064C82.3051 550.573 81.9371 550.195 81.4678 549.928C80.9984 549.651 80.4651 549.512 79.8678 549.512C79.2704 549.512 78.7371 549.651 78.2678 549.928C77.7984 550.195 77.4251 550.573 77.1478 551.064C76.8704 551.555 76.7318 552.131 76.7318 552.792C76.7318 553.443 76.8704 554.019 77.1478 554.52C77.4251 555.011 77.7984 555.395 78.2678 555.672C78.7371 555.939 79.2651 556.072 79.8518 556.072ZM96.955 548.52C97.6377 548.52 98.2297 548.653 98.731 548.92C99.243 549.176 99.6377 549.571 99.915 550.104C100.203 550.637 100.347 551.309 100.347 552.12V557H99.211V552.232C99.211 551.347 98.9977 550.68 98.571 550.232C98.155 549.773 97.563 549.544 96.795 549.544C96.219 549.544 95.7177 549.667 95.291 549.912C94.875 550.147 94.5497 550.493 94.315 550.952C94.091 551.4 93.979 551.944 93.979 552.584V557H92.843V552.232C92.843 551.347 92.6297 550.68 92.203 550.232C91.7763 549.773 91.179 549.544 90.411 549.544C89.8457 549.544 89.3497 549.667 88.923 549.912C88.4963 550.147 88.1657 550.493 87.931 550.952C87.707 551.4 87.595 551.944 87.595 552.584V557H86.459V548.6H87.547V550.872L87.371 550.472C87.627 549.864 88.0377 549.389 88.603 549.048C89.179 548.696 89.8563 548.52 90.635 548.52C91.4563 548.52 92.155 548.728 92.731 549.144C93.307 549.549 93.6803 550.163 93.851 550.984L93.403 550.808C93.6483 550.125 94.0803 549.576 94.699 549.16C95.3283 548.733 96.0803 548.52 96.955 548.52ZM106.996 557.08C106.121 557.08 105.353 556.899 104.692 556.536C104.03 556.163 103.513 555.656 103.14 555.016C102.766 554.365 102.58 553.624 102.58 552.792C102.58 551.96 102.756 551.224 103.108 550.584C103.47 549.944 103.961 549.443 104.58 549.08C105.209 548.707 105.913 548.52 106.692 548.52C107.481 548.52 108.18 548.701 108.788 549.064C109.406 549.416 109.892 549.917 110.244 550.568C110.596 551.208 110.772 551.949 110.772 552.792C110.772 552.845 110.766 552.904 110.756 552.968C110.756 553.021 110.756 553.08 110.756 553.144H103.444V552.296H110.148L109.7 552.632C109.7 552.024 109.566 551.485 109.3 551.016C109.044 550.536 108.692 550.163 108.244 549.896C107.796 549.629 107.278 549.496 106.692 549.496C106.116 549.496 105.598 549.629 105.14 549.896C104.681 550.163 104.324 550.536 104.068 551.016C103.812 551.496 103.684 552.045 103.684 552.664V552.84C103.684 553.48 103.822 554.045 104.1 554.536C104.388 555.016 104.782 555.395 105.284 555.672C105.796 555.939 106.377 556.072 107.028 556.072C107.54 556.072 108.014 555.981 108.452 555.8C108.9 555.619 109.284 555.341 109.604 554.968L110.244 555.704C109.87 556.152 109.401 556.493 108.836 556.728C108.281 556.963 107.668 557.08 106.996 557.08ZM115.74 557.08C114.951 557.08 114.343 556.867 113.916 556.44C113.489 556.013 113.276 555.411 113.276 554.632V546.744H114.412V554.568C114.412 555.059 114.535 555.437 114.78 555.704C115.036 555.971 115.399 556.104 115.868 556.104C116.369 556.104 116.785 555.96 117.116 555.672L117.516 556.488C117.292 556.691 117.02 556.84 116.7 556.936C116.391 557.032 116.071 557.08 115.74 557.08ZM111.772 549.544V548.6H116.972V549.544H111.772ZM119.584 557V548.6H120.72V557H119.584ZM120.16 546.744C119.925 546.744 119.728 546.664 119.568 546.504C119.408 546.344 119.328 546.152 119.328 545.928C119.328 545.704 119.408 545.517 119.568 545.368C119.728 545.208 119.925 545.128 120.16 545.128C120.395 545.128 120.592 545.203 120.752 545.352C120.912 545.501 120.992 545.688 120.992 545.912C120.992 546.147 120.912 546.344 120.752 546.504C120.603 546.664 120.405 546.744 120.16 546.744ZM134.377 548.52C135.06 548.52 135.652 548.653 136.153 548.92C136.665 549.176 137.06 549.571 137.337 550.104C137.625 550.637 137.769 551.309 137.769 552.12V557H136.633V552.232C136.633 551.347 136.42 550.68 135.993 550.232C135.577 549.773 134.985 549.544 134.217 549.544C133.641 549.544 133.14 549.667 132.713 549.912C132.297 550.147 131.972 550.493 131.737 550.952C131.513 551.4 131.401 551.944 131.401 552.584V557H130.265V552.232C130.265 551.347 130.052 550.68 129.625 550.232C129.198 549.773 128.601 549.544 127.833 549.544C127.268 549.544 126.772 549.667 126.345 549.912C125.918 550.147 125.588 550.493 125.353 550.952C125.129 551.4 125.017 551.944 125.017 552.584V557H123.881V548.6H124.969V550.872L124.793 550.472C125.049 549.864 125.46 549.389 126.025 549.048C126.601 548.696 127.278 548.52 128.057 548.52C128.878 548.52 129.577 548.728 130.153 549.144C130.729 549.549 131.102 550.163 131.273 550.984L130.825 550.808C131.07 550.125 131.502 549.576 132.121 549.16C132.75 548.733 133.502 548.52 134.377 548.52ZM144.418 557.08C143.543 557.08 142.775 556.899 142.114 556.536C141.452 556.163 140.935 555.656 140.562 555.016C140.188 554.365 140.002 553.624 140.002 552.792C140.002 551.96 140.178 551.224 140.53 550.584C140.892 549.944 141.383 549.443 142.002 549.08C142.631 548.707 143.335 548.52 144.114 548.52C144.903 548.52 145.602 548.701 146.21 549.064C146.828 549.416 147.314 549.917 147.666 550.568C148.018 551.208 148.194 551.949 148.194 552.792C148.194 552.845 148.188 552.904 148.178 552.968C148.178 553.021 148.178 553.08 148.178 553.144H140.866V552.296H147.57L147.122 552.632C147.122 552.024 146.988 551.485 146.722 551.016C146.466 550.536 146.114 550.163 145.666 549.896C145.218 549.629 144.7 549.496 144.114 549.496C143.538 549.496 143.02 549.629 142.562 549.896C142.103 550.163 141.746 550.536 141.49 551.016C141.234 551.496 141.106 552.045 141.106 552.664V552.84C141.106 553.48 141.244 554.045 141.522 554.536C141.81 555.016 142.204 555.395 142.706 555.672C143.218 555.939 143.799 556.072 144.45 556.072C144.962 556.072 145.436 555.981 145.874 555.8C146.322 555.619 146.706 555.341 147.026 554.968L147.666 555.704C147.292 556.152 146.823 556.493 146.258 556.728C145.703 556.963 145.09 557.08 144.418 557.08ZM152.762 557.08C152.069 557.08 151.413 556.984 150.794 556.792C150.175 556.589 149.69 556.339 149.338 556.04L149.85 555.144C150.191 555.4 150.629 555.624 151.162 555.816C151.695 555.997 152.255 556.088 152.842 556.088C153.642 556.088 154.218 555.965 154.57 555.72C154.922 555.464 155.098 555.128 155.098 554.712C155.098 554.403 154.997 554.163 154.794 553.992C154.602 553.811 154.346 553.677 154.026 553.592C153.706 553.496 153.349 553.416 152.954 553.352C152.559 553.288 152.165 553.213 151.77 553.128C151.386 553.043 151.034 552.92 150.714 552.76C150.394 552.589 150.133 552.36 149.93 552.072C149.738 551.784 149.642 551.4 149.642 550.92C149.642 550.461 149.77 550.051 150.026 549.688C150.282 549.325 150.655 549.043 151.146 548.84C151.647 548.627 152.255 548.52 152.97 548.52C153.514 548.52 154.058 548.595 154.602 548.744C155.146 548.883 155.594 549.069 155.946 549.304L155.45 550.216C155.077 549.96 154.677 549.779 154.25 549.672C153.823 549.555 153.397 549.496 152.97 549.496C152.213 549.496 151.653 549.629 151.29 549.896C150.938 550.152 150.762 550.483 150.762 550.888C150.762 551.208 150.858 551.459 151.05 551.64C151.253 551.821 151.514 551.965 151.834 552.072C152.165 552.168 152.522 552.248 152.906 552.312C153.301 552.376 153.69 552.456 154.074 552.552C154.469 552.637 154.826 552.76 155.146 552.92C155.477 553.069 155.738 553.288 155.93 553.576C156.133 553.853 156.234 554.221 156.234 554.68C156.234 555.171 156.095 555.597 155.818 555.96C155.551 556.312 155.157 556.589 154.634 556.792C154.122 556.984 153.498 557.08 152.762 557.08Z" fill="black"/>
<rect x="51.5" y="594.5" width="302" height="45" stroke="#767676"/>
<path d="M66.824 623V611.8H67.8L75.528 621.528H75.016V611.8H76.184V623H75.208L67.496 613.272H68.008V623H66.824ZM83.0236 623.08C82.213 623.08 81.4823 622.899 80.8316 622.536C80.1916 622.163 79.685 621.656 79.3116 621.016C78.9383 620.365 78.7516 619.624 78.7516 618.792C78.7516 617.949 78.9383 617.208 79.3116 616.568C79.685 615.928 80.1916 615.427 80.8316 615.064C81.4716 614.701 82.2023 614.52 83.0236 614.52C83.8556 614.52 84.5916 614.701 85.2316 615.064C85.8823 615.427 86.389 615.928 86.7516 616.568C87.125 617.208 87.3116 617.949 87.3116 618.792C87.3116 619.624 87.125 620.365 86.7516 621.016C86.389 621.656 85.8823 622.163 85.2316 622.536C84.581 622.899 83.845 623.08 83.0236 623.08ZM83.0236 622.072C83.6316 622.072 84.1703 621.939 84.6396 621.672C85.109 621.395 85.477 621.011 85.7436 620.52C86.021 620.019 86.1596 619.443 86.1596 618.792C86.1596 618.131 86.021 617.555 85.7436 617.064C85.477 616.573 85.109 616.195 84.6396 615.928C84.1703 615.651 83.637 615.512 83.0396 615.512C82.4423 615.512 81.909 615.651 81.4396 615.928C80.9703 616.195 80.597 616.573 80.3196 617.064C80.0423 617.555 79.9036 618.131 79.9036 618.792C79.9036 619.443 80.0423 620.019 80.3196 620.52C80.597 621.011 80.9703 621.395 81.4396 621.672C81.909 621.939 82.437 622.072 83.0236 622.072ZM92.2869 623.08C91.4975 623.08 90.8895 622.867 90.4629 622.44C90.0362 622.013 89.8229 621.411 89.8229 620.632V612.744H90.9589V620.568C90.9589 621.059 91.0815 621.437 91.3269 621.704C91.5829 621.971 91.9455 622.104 92.4149 622.104C92.9162 622.104 93.3322 621.96 93.6629 621.672L94.0629 622.488C93.8389 622.691 93.5669 622.84 93.2469 622.936C92.9375 623.032 92.6175 623.08 92.2869 623.08ZM88.3189 615.544V614.6H93.5189V615.544H88.3189ZM103.662 623.08C102.862 623.08 102.142 622.899 101.502 622.536C100.873 622.173 100.377 621.672 100.014 621.032C99.6517 620.392 99.4704 619.645 99.4704 618.792C99.4704 617.949 99.6517 617.208 100.014 616.568C100.377 615.917 100.873 615.416 101.502 615.064C102.142 614.701 102.862 614.52 103.662 614.52C104.409 614.52 105.07 614.685 105.646 615.016C106.233 615.347 106.697 615.832 107.038 616.472C107.38 617.101 107.55 617.875 107.55 618.792C107.55 619.709 107.374 620.488 107.022 621.128C106.681 621.757 106.217 622.243 105.63 622.584C105.054 622.915 104.398 623.08 103.662 623.08ZM103.742 622.072C104.34 622.072 104.873 621.939 105.342 621.672C105.822 621.395 106.196 621.011 106.462 620.52C106.74 620.019 106.878 619.443 106.878 618.792C106.878 618.141 106.74 617.571 106.462 617.08C106.196 616.589 105.822 616.205 105.342 615.928C104.873 615.651 104.34 615.512 103.742 615.512C103.156 615.512 102.628 615.651 102.158 615.928C101.689 616.205 101.316 616.589 101.038 617.08C100.761 617.571 100.622 618.141 100.622 618.792C100.622 619.443 100.761 620.019 101.038 620.52C101.316 621.011 101.689 621.395 102.158 621.672C102.628 621.939 103.156 622.072 103.742 622.072ZM106.862 626.104V620.504L107.022 618.808L106.91 617.128V614.6H107.998V626.104H106.862ZM114.634 623.08C113.919 623.08 113.295 622.947 112.762 622.68C112.229 622.413 111.813 622.013 111.514 621.48C111.226 620.947 111.082 620.28 111.082 619.48V614.6H112.218V619.352C112.218 620.248 112.437 620.925 112.874 621.384C113.322 621.832 113.946 622.056 114.746 622.056C115.333 622.056 115.839 621.939 116.266 621.704C116.703 621.459 117.034 621.107 117.258 620.648C117.493 620.189 117.61 619.64 117.61 619V614.6H118.746V623H117.658V620.696L117.834 621.112C117.567 621.731 117.151 622.216 116.586 622.568C116.031 622.909 115.381 623.08 114.634 623.08ZM121.912 623V614.6H123.048V623H121.912ZM122.488 612.744C122.253 612.744 122.056 612.664 121.896 612.504C121.736 612.344 121.656 612.152 121.656 611.928C121.656 611.704 121.736 611.517 121.896 611.368C122.056 611.208 122.253 611.128 122.488 611.128C122.723 611.128 122.92 611.203 123.08 611.352C123.24 611.501 123.32 611.688 123.32 611.912C123.32 612.147 123.24 612.344 123.08 612.504C122.931 612.664 122.733 612.744 122.488 612.744ZM128.865 623.08C128.076 623.08 127.468 622.867 127.041 622.44C126.614 622.013 126.401 621.411 126.401 620.632V612.744H127.537V620.568C127.537 621.059 127.66 621.437 127.905 621.704C128.161 621.971 128.524 622.104 128.993 622.104C129.494 622.104 129.91 621.96 130.241 621.672L130.641 622.488C130.417 622.691 130.145 622.84 129.825 622.936C129.516 623.032 129.196 623.08 128.865 623.08ZM124.897 615.544V614.6H130.097V615.544H124.897ZM135.98 623.08C135.105 623.08 134.337 622.899 133.676 622.536C133.015 622.163 132.497 621.656 132.124 621.016C131.751 620.365 131.564 619.624 131.564 618.792C131.564 617.96 131.74 617.224 132.092 616.584C132.455 615.944 132.945 615.443 133.564 615.08C134.193 614.707 134.897 614.52 135.676 614.52C136.465 614.52 137.164 614.701 137.772 615.064C138.391 615.416 138.876 615.917 139.228 616.568C139.58 617.208 139.756 617.949 139.756 618.792C139.756 618.845 139.751 618.904 139.74 618.968C139.74 619.021 139.74 619.08 139.74 619.144H132.428V618.296H139.132L138.684 618.632C138.684 618.024 138.551 617.485 138.284 617.016C138.028 616.536 137.676 616.163 137.228 615.896C136.78 615.629 136.263 615.496 135.676 615.496C135.1 615.496 134.583 615.629 134.124 615.896C133.665 616.163 133.308 616.536 133.052 617.016C132.796 617.496 132.668 618.045 132.668 618.664V618.84C132.668 619.48 132.807 620.045 133.084 620.536C133.372 621.016 133.767 621.395 134.268 621.672C134.78 621.939 135.361 622.072 136.012 622.072C136.524 622.072 136.999 621.981 137.436 621.8C137.884 621.619 138.268 621.341 138.588 620.968L139.228 621.704C138.855 622.152 138.385 622.493 137.82 622.728C137.265 622.963 136.652 623.08 135.98 623.08Z" fill="black"/>
<rect x="51.5" y="660.5" width="302" height="45" stroke="#767676"/>
<path d="M66.824 689V677.8H67.8L75.528 687.528H75.016V677.8H76.184V689H75.208L67.496 679.272H68.008V689H66.824ZM83.1676 689.08C82.293 689.08 81.525 688.899 80.8636 688.536C80.2023 688.163 79.685 687.656 79.3116 687.016C78.9383 686.365 78.7516 685.624 78.7516 684.792C78.7516 683.96 78.9276 683.224 79.2796 682.584C79.6423 681.944 80.133 681.443 80.7516 681.08C81.381 680.707 82.085 680.52 82.8636 680.52C83.653 680.52 84.3516 680.701 84.9596 681.064C85.5783 681.416 86.0636 681.917 86.4156 682.568C86.7676 683.208 86.9436 683.949 86.9436 684.792C86.9436 684.845 86.9383 684.904 86.9276 684.968C86.9276 685.021 86.9276 685.08 86.9276 685.144H79.6156V684.296H86.3196L85.8716 684.632C85.8716 684.024 85.7383 683.485 85.4716 683.016C85.2156 682.536 84.8636 682.163 84.4156 681.896C83.9676 681.629 83.4503 681.496 82.8636 681.496C82.2876 681.496 81.7703 681.629 81.3116 681.896C80.853 682.163 80.4956 682.536 80.2396 683.016C79.9836 683.496 79.8556 684.045 79.8556 684.664V684.84C79.8556 685.48 79.9943 686.045 80.2716 686.536C80.5596 687.016 80.9543 687.395 81.4556 687.672C81.9676 687.939 82.549 688.072 83.1996 688.072C83.7116 688.072 84.1863 687.981 84.6236 687.8C85.0716 687.619 85.4556 687.341 85.7756 686.968L86.4156 687.704C86.0423 688.152 85.573 688.493 85.0076 688.728C84.453 688.963 83.8396 689.08 83.1676 689.08ZM91.2596 689L87.5316 680.6H88.7156L92.1396 688.392H91.5796L95.0516 680.6H96.1716L92.4276 689H91.2596ZM101.105 689.08C100.23 689.08 99.4625 688.899 98.8011 688.536C98.1398 688.163 97.6225 687.656 97.2491 687.016C96.8758 686.365 96.6891 685.624 96.6891 684.792C96.6891 683.96 96.8651 683.224 97.2171 682.584C97.5798 681.944 98.0705 681.443 98.6891 681.08C99.3185 680.707 100.022 680.52 100.801 680.52C101.59 680.52 102.289 680.701 102.897 681.064C103.516 681.416 104.001 681.917 104.353 682.568C104.705 683.208 104.881 683.949 104.881 684.792C104.881 684.845 104.876 684.904 104.865 684.968C104.865 685.021 104.865 685.08 104.865 685.144H97.5531V684.296H104.257L103.809 684.632C103.809 684.024 103.676 683.485 103.409 683.016C103.153 682.536 102.801 682.163 102.353 681.896C101.905 681.629 101.388 681.496 100.801 681.496C100.225 681.496 99.7078 681.629 99.2491 681.896C98.7905 682.163 98.4331 682.536 98.1771 683.016C97.9211 683.496 97.7931 684.045 97.7931 684.664V684.84C97.7931 685.48 97.9318 686.045 98.2091 686.536C98.4971 687.016 98.8918 687.395 99.3931 687.672C99.9051 687.939 100.486 688.072 101.137 688.072C101.649 688.072 102.124 687.981 102.561 687.8C103.009 687.619 103.393 687.341 103.713 686.968L104.353 687.704C103.98 688.152 103.51 688.493 102.945 688.728C102.39 688.963 101.777 689.08 101.105 689.08ZM107.193 689V680.6H108.281V682.888L108.169 682.488C108.404 681.848 108.799 681.363 109.353 681.032C109.908 680.691 110.596 680.52 111.417 680.52V681.624C111.375 681.624 111.332 681.624 111.289 681.624C111.247 681.613 111.204 681.608 111.161 681.608C110.276 681.608 109.583 681.88 109.081 682.424C108.58 682.957 108.329 683.72 108.329 684.712V689H107.193Z" fill="black"/>
<path d="M56.376 319L52.152 293.08H55.16L57.944 311.704L61.432 293.176H63.992L67.512 311.8L70.232 293.08H73.176L69.016 319H66.392L62.776 299.8L59.128 319H56.376ZM76.1365 319V293.08H79.5605V302.424C80.1792 301.827 80.8725 301.315 81.6405 300.888C82.4085 300.461 83.2618 300.248 84.2005 300.248C84.9258 300.248 85.4805 300.44 85.8645 300.824C86.2698 301.208 86.5472 301.688 86.6965 302.264C86.8672 302.84 86.9525 303.427 86.9525 304.024V319H83.5285V305.016C83.5285 304.355 83.4325 303.843 83.2405 303.48C83.0485 303.117 82.6538 302.936 82.0565 302.936C81.6512 302.936 81.2245 303.053 80.7765 303.288C80.3498 303.523 79.9445 303.811 79.5605 304.152V319H76.1365ZM95.4105 319.256C93.9598 319.256 92.8398 318.979 92.0505 318.424C91.2612 317.848 90.7065 317.016 90.3865 315.928C90.0878 314.819 89.9385 313.464 89.9385 311.864V307.64C89.9385 305.997 90.0985 304.632 90.4185 303.544C90.7385 302.456 91.2932 301.635 92.0825 301.08C92.8932 300.525 94.0025 300.248 95.4105 300.248C96.9678 300.248 98.1092 300.568 98.8345 301.208C99.5812 301.848 100.072 302.776 100.307 303.992C100.541 305.187 100.659 306.627 100.659 308.312V309.816H93.3625V313.528C93.3625 314.275 93.4265 314.883 93.5545 315.352C93.7038 315.821 93.9278 316.173 94.2265 316.408C94.5465 316.621 94.9518 316.728 95.4425 316.728C95.9545 316.728 96.3385 316.611 96.5945 316.376C96.8718 316.12 97.0532 315.768 97.1385 315.32C97.2452 314.851 97.2985 314.307 97.2985 313.688V312.568H100.627V313.272C100.627 315.128 100.232 316.589 99.4425 317.656C98.6532 318.723 97.3092 319.256 95.4105 319.256ZM93.3625 307.96H97.2985V306.296C97.2985 305.528 97.2558 304.888 97.1705 304.376C97.0852 303.843 96.9038 303.448 96.6265 303.192C96.3705 302.915 95.9545 302.776 95.3785 302.776C94.8238 302.776 94.3972 302.904 94.0985 303.16C93.8212 303.416 93.6292 303.853 93.5225 304.472C93.4158 305.069 93.3625 305.901 93.3625 306.968V307.96ZM103.759 319V300.504H107.183V302.328C107.802 301.752 108.485 301.261 109.231 300.856C109.978 300.451 110.799 300.248 111.695 300.248C112.442 300.248 113.007 300.44 113.391 300.824C113.797 301.208 114.074 301.688 114.223 302.264C114.394 302.84 114.479 303.427 114.479 304.024V319H111.055V305.016C111.055 304.355 110.959 303.843 110.767 303.48C110.575 303.117 110.181 302.936 109.583 302.936C109.199 302.936 108.794 303.053 108.367 303.288C107.962 303.501 107.567 303.768 107.183 304.088V319H103.759ZM125.614 319V293.08H129.166V319H125.614ZM133.84 301.56L133.232 300.28C133.893 300.237 134.341 299.928 134.576 299.352C134.832 298.776 134.96 297.891 134.96 296.696H133.264V293.08H137.008C137.008 293.592 137.008 294.115 137.008 294.648C137.008 295.16 137.008 295.672 137.008 296.184C137.008 297.848 136.773 299.149 136.304 300.088C135.834 301.005 135.013 301.496 133.84 301.56ZM139.728 319V300.504H142.896V302.264C143.515 301.56 144.197 301.037 144.944 300.696C145.691 300.355 146.459 300.184 147.248 300.184C147.931 300.184 148.539 300.355 149.072 300.696C149.627 301.037 150.021 301.645 150.256 302.52C150.917 301.709 151.632 301.123 152.4 300.76C153.189 300.376 154.011 300.184 154.864 300.184C155.461 300.184 156.005 300.333 156.496 300.632C156.987 300.909 157.381 301.368 157.68 302.008C157.979 302.627 158.128 303.448 158.128 304.472V319H154.992V304.696C154.992 303.8 154.843 303.203 154.544 302.904C154.267 302.584 153.883 302.424 153.392 302.424C152.923 302.424 152.432 302.563 151.92 302.84C151.408 303.096 150.939 303.459 150.512 303.928C150.512 304.013 150.512 304.099 150.512 304.184C150.512 304.269 150.512 304.365 150.512 304.472V319H147.376V304.696C147.376 303.8 147.227 303.203 146.928 302.904C146.651 302.584 146.267 302.424 145.776 302.424C145.307 302.424 144.816 302.563 144.304 302.84C143.813 303.096 143.344 303.459 142.896 303.928V319H139.728ZM169.879 319V303.032H167.671V300.504H169.879V299.544C169.879 298.392 169.964 297.411 170.135 296.6C170.327 295.768 170.711 295.128 171.286 294.68C171.863 294.232 172.727 294.008 173.879 294.008C174.305 294.008 174.679 294.029 174.999 294.072C175.34 294.093 175.713 294.147 176.119 294.232V296.728C175.927 296.685 175.713 296.653 175.479 296.632C175.244 296.589 175.031 296.568 174.839 296.568C174.177 296.568 173.751 296.792 173.559 297.24C173.388 297.667 173.303 298.243 173.303 298.968V300.504H176.119V303.032H173.303V319H169.879ZM183.098 319.256C181.647 319.256 180.527 318.979 179.738 318.424C178.949 317.848 178.394 317.016 178.074 315.928C177.775 314.819 177.626 313.464 177.626 311.864V307.64C177.626 305.997 177.786 304.632 178.106 303.544C178.426 302.456 178.981 301.635 179.77 301.08C180.581 300.525 181.69 300.248 183.098 300.248C184.655 300.248 185.797 300.568 186.522 301.208C187.269 301.848 187.759 302.776 187.994 303.992C188.229 305.187 188.346 306.627 188.346 308.312V309.816H181.05V313.528C181.05 314.275 181.114 314.883 181.242 315.352C181.391 315.821 181.615 316.173 181.914 316.408C182.234 316.621 182.639 316.728 183.13 316.728C183.642 316.728 184.026 316.611 184.282 316.376C184.559 316.12 184.741 315.768 184.826 315.32C184.933 314.851 184.986 314.307 184.986 313.688V312.568H188.314V313.272C188.314 315.128 187.919 316.589 187.13 317.656C186.341 318.723 184.997 319.256 183.098 319.256ZM181.05 307.96H184.986V306.296C184.986 305.528 184.943 304.888 184.858 304.376C184.773 303.843 184.591 303.448 184.314 303.192C184.058 302.915 183.642 302.776 183.066 302.776C182.511 302.776 182.085 302.904 181.786 303.16C181.509 303.416 181.317 303.853 181.21 304.472C181.103 305.069 181.05 305.901 181.05 306.968V307.96ZM196.567 319.256C195.116 319.256 193.996 318.979 193.207 318.424C192.417 317.848 191.863 317.016 191.543 315.928C191.244 314.819 191.095 313.464 191.095 311.864V307.64C191.095 305.997 191.255 304.632 191.575 303.544C191.895 302.456 192.449 301.635 193.239 301.08C194.049 300.525 195.159 300.248 196.567 300.248C198.124 300.248 199.265 300.568 199.991 301.208C200.737 301.848 201.228 302.776 201.463 303.992C201.697 305.187 201.815 306.627 201.815 308.312V309.816H194.519V313.528C194.519 314.275 194.583 314.883 194.711 315.352C194.86 315.821 195.084 316.173 195.383 316.408C195.703 316.621 196.108 316.728 196.599 316.728C197.111 316.728 197.495 316.611 197.751 316.376C198.028 316.12 198.209 315.768 198.295 315.32C198.401 314.851 198.455 314.307 198.455 313.688V312.568H201.783V313.272C201.783 315.128 201.388 316.589 200.599 317.656C199.809 318.723 198.465 319.256 196.567 319.256ZM194.519 307.96H198.455V306.296C198.455 305.528 198.412 304.888 198.327 304.376C198.241 303.843 198.06 303.448 197.783 303.192C197.527 302.915 197.111 302.776 196.535 302.776C195.98 302.776 195.553 302.904 195.255 303.16C194.977 303.416 194.785 303.853 194.679 304.472C194.572 305.069 194.519 305.901 194.519 306.968V307.96ZM205.236 319V293.08H208.66V319H205.236ZM212.452 319V300.504H215.876V319H212.452ZM212.452 297.752V294.168H215.876V297.752H212.452ZM219.541 319V300.504H222.965V302.328C223.583 301.752 224.266 301.261 225.013 300.856C225.759 300.451 226.581 300.248 227.477 300.248C228.223 300.248 228.789 300.44 229.173 300.824C229.578 301.208 229.855 301.688 230.005 302.264C230.175 302.84 230.261 303.427 230.261 304.024V319H226.837V305.016C226.837 304.355 226.741 303.843 226.549 303.48C226.356 303.117 225.962 302.936 225.365 302.936C224.981 302.936 224.575 303.053 224.149 303.288C223.743 303.501 223.349 303.768 222.965 304.088V319H219.541ZM238.403 324.728C237.294 324.728 236.291 324.611 235.395 324.376C234.499 324.141 233.795 323.768 233.283 323.256C232.771 322.744 232.515 322.072 232.515 321.24C232.515 320.643 232.643 320.12 232.899 319.672C233.155 319.224 233.486 318.84 233.891 318.52C234.296 318.179 234.723 317.901 235.171 317.688C234.574 317.517 234.126 317.251 233.827 316.888C233.528 316.504 233.379 316.109 233.379 315.704C233.379 315.021 233.56 314.435 233.923 313.944C234.286 313.453 234.787 312.92 235.427 312.344C234.723 311.811 234.19 311.128 233.827 310.296C233.464 309.464 233.283 308.312 233.283 306.84C233.283 305.389 233.475 304.184 233.859 303.224C234.264 302.243 234.851 301.507 235.619 301.016C236.408 300.504 237.368 300.248 238.499 300.248C239.502 300.248 240.302 300.419 240.899 300.76C241.518 301.101 241.987 301.613 242.307 302.296C242.414 302.125 242.702 301.837 243.171 301.432C243.64 301.005 244.184 300.653 244.803 300.376L245.315 300.152L246.179 302.36C245.902 302.403 245.528 302.509 245.059 302.68C244.611 302.829 244.184 302.989 243.779 303.16C243.395 303.309 243.15 303.437 243.043 303.544C243.192 303.907 243.32 304.429 243.427 305.112C243.555 305.795 243.619 306.403 243.619 306.936C243.619 308.195 243.459 309.304 243.139 310.264C242.819 311.224 242.286 311.981 241.539 312.536C240.814 313.069 239.8 313.336 238.499 313.336C238.222 313.336 237.923 313.315 237.603 313.272C237.283 313.229 236.995 313.176 236.739 313.112C236.611 313.304 236.472 313.528 236.323 313.784C236.195 314.04 236.131 314.285 236.131 314.52C236.131 314.755 236.248 314.947 236.483 315.096C236.739 315.224 237.134 315.309 237.667 315.352L240.547 315.608C241.998 315.736 243.075 316.173 243.779 316.92C244.483 317.667 244.835 318.733 244.835 320.12C244.835 321.123 244.6 321.965 244.131 322.648C243.662 323.352 242.947 323.875 241.987 324.216C241.048 324.557 239.854 324.728 238.403 324.728ZM238.659 322.04C239.875 322.04 240.771 321.891 241.347 321.592C241.923 321.315 242.211 320.856 242.211 320.216C242.211 319.832 242.136 319.512 241.987 319.256C241.859 319 241.614 318.797 241.251 318.648C240.888 318.499 240.366 318.392 239.683 318.328L236.771 318.072C236.536 318.307 236.312 318.541 236.099 318.776C235.886 319.011 235.715 319.256 235.587 319.512C235.459 319.789 235.395 320.077 235.395 320.376C235.395 320.931 235.63 321.347 236.099 321.624C236.568 321.901 237.422 322.04 238.659 322.04ZM238.499 310.936C238.99 310.936 239.374 310.851 239.651 310.68C239.95 310.488 240.174 310.221 240.323 309.88C240.472 309.517 240.568 309.08 240.611 308.568C240.675 308.056 240.707 307.48 240.707 306.84C240.707 306.2 240.675 305.624 240.611 305.112C240.568 304.579 240.472 304.131 240.323 303.768C240.195 303.384 239.982 303.096 239.683 302.904C239.406 302.712 239.022 302.616 238.531 302.616C238.062 302.616 237.667 302.712 237.347 302.904C237.048 303.096 236.824 303.373 236.675 303.736C236.526 304.077 236.419 304.515 236.355 305.048C236.291 305.56 236.259 306.157 236.259 306.84C236.259 307.416 236.28 307.96 236.323 308.472C236.387 308.963 236.494 309.389 236.643 309.752C236.814 310.115 237.048 310.403 237.347 310.616C237.646 310.829 238.03 310.936 238.499 310.936ZM258.15 319.256C257.424 319.256 256.784 319.053 256.23 318.648C255.675 318.221 255.238 317.688 254.918 317.048C254.598 316.387 254.438 315.693 254.438 314.968C254.438 313.816 254.63 312.845 255.014 312.056C255.398 311.267 255.92 310.605 256.582 310.072C257.264 309.517 258.043 309.037 258.918 308.632C259.814 308.227 260.752 307.832 261.734 307.448V306.136C261.734 305.389 261.691 304.771 261.606 304.28C261.52 303.789 261.339 303.427 261.062 303.192C260.806 302.936 260.411 302.808 259.878 302.808C259.408 302.808 259.024 302.915 258.726 303.128C258.448 303.341 258.246 303.651 258.118 304.056C257.99 304.44 257.926 304.899 257.926 305.432V306.36L254.534 306.232C254.576 304.184 255.046 302.68 255.942 301.72C256.838 300.739 258.224 300.248 260.102 300.248C261.936 300.248 263.238 300.749 264.006 301.752C264.774 302.755 265.158 304.205 265.158 306.104V314.552C265.158 315.128 265.168 315.683 265.19 316.216C265.232 316.749 265.275 317.251 265.318 317.72C265.382 318.168 265.435 318.595 265.478 319H262.342C262.278 318.659 262.192 318.232 262.086 317.72C262 317.187 261.936 316.707 261.894 316.28C261.68 317.005 261.264 317.688 260.646 318.328C260.048 318.947 259.216 319.256 258.15 319.256ZM259.494 316.312C259.835 316.312 260.155 316.216 260.454 316.024C260.752 315.832 261.019 315.619 261.254 315.384C261.488 315.128 261.648 314.925 261.734 314.776V309.528C261.2 309.827 260.699 310.125 260.23 310.424C259.76 310.723 259.344 311.043 258.982 311.384C258.64 311.704 258.363 312.077 258.15 312.504C257.958 312.909 257.862 313.379 257.862 313.912C257.862 314.659 258 315.245 258.278 315.672C258.555 316.099 258.96 316.312 259.494 316.312ZM268.447 319V300.504H271.871V302.328C272.489 301.752 273.172 301.261 273.919 300.856C274.665 300.451 275.487 300.248 276.383 300.248C277.129 300.248 277.695 300.44 278.079 300.824C278.484 301.208 278.761 301.688 278.911 302.264C279.081 302.84 279.167 303.427 279.167 304.024V319H275.743V305.016C275.743 304.355 275.647 303.843 275.455 303.48C275.263 303.117 274.868 302.936 274.271 302.936C273.887 302.936 273.481 303.053 273.055 303.288C272.649 303.501 272.255 303.768 271.871 304.088V319H268.447ZM281.069 319L285.229 309.272L281.165 300.504H284.429L287.149 306.36L289.549 300.504H292.909L288.685 309.688L292.973 319H289.709L286.797 312.728L284.301 319H281.069ZM295.171 319V300.504H298.595V319H295.171ZM295.171 297.752V294.168H298.595V297.752H295.171ZM307.347 319.256C305.982 319.256 304.905 318.979 304.115 318.424C303.326 317.869 302.761 317.08 302.419 316.056C302.099 315.032 301.939 313.827 301.939 312.44V307.064C301.939 305.677 302.099 304.472 302.419 303.448C302.761 302.424 303.326 301.635 304.115 301.08C304.905 300.525 305.982 300.248 307.347 300.248C308.713 300.248 309.779 300.525 310.547 301.08C311.337 301.635 311.891 302.424 312.211 303.448C312.553 304.472 312.723 305.677 312.723 307.064V312.44C312.723 313.827 312.553 315.032 312.211 316.056C311.891 317.08 311.337 317.869 310.547 318.424C309.779 318.979 308.713 319.256 307.347 319.256ZM307.347 316.728C308.009 316.728 308.467 316.536 308.723 316.152C309.001 315.768 309.161 315.267 309.203 314.648C309.267 314.008 309.299 313.347 309.299 312.664V306.872C309.299 306.168 309.267 305.507 309.203 304.888C309.161 304.269 309.001 303.768 308.723 303.384C308.467 302.979 308.009 302.776 307.347 302.776C306.686 302.776 306.217 302.979 305.939 303.384C305.662 303.768 305.491 304.269 305.427 304.888C305.385 305.507 305.363 306.168 305.363 306.872V312.664C305.363 313.347 305.385 314.008 305.427 314.648C305.491 315.267 305.662 315.768 305.939 316.152C306.217 316.536 306.686 316.728 307.347 316.728ZM318.509 319.256C317.784 319.256 317.218 319.064 316.813 318.68C316.408 318.296 316.12 317.816 315.949 317.24C315.8 316.664 315.725 316.077 315.725 315.48V300.504H319.149V314.456C319.149 315.117 319.245 315.64 319.437 316.024C319.629 316.387 320.024 316.568 320.621 316.568C321.005 316.568 321.4 316.461 321.805 316.248C322.232 316.013 322.637 315.736 323.021 315.416V300.504H326.445V319H323.021V317.176C322.424 317.752 321.741 318.243 320.973 318.648C320.226 319.053 319.405 319.256 318.509 319.256ZM334.235 319.256C332.72 319.256 331.504 318.787 330.587 317.848C329.669 316.888 329.147 315.629 329.019 314.072L331.867 313.208C332.037 314.381 332.325 315.267 332.731 315.864C333.136 316.44 333.733 316.728 334.523 316.728C335.141 316.728 335.611 316.557 335.931 316.216C336.251 315.853 336.411 315.373 336.411 314.776C336.411 314.243 336.293 313.763 336.059 313.336C335.824 312.909 335.44 312.472 334.907 312.024L331.739 309.304C331.099 308.749 330.555 308.131 330.107 307.448C329.68 306.765 329.467 305.88 329.467 304.792C329.467 303.811 329.659 302.989 330.043 302.328C330.448 301.645 331.003 301.133 331.707 300.792C332.432 300.429 333.275 300.248 334.235 300.248C335.707 300.248 336.827 300.728 337.595 301.688C338.384 302.627 338.832 303.768 338.939 305.112L336.635 305.976C336.549 305.336 336.421 304.781 336.251 304.312C336.08 303.821 335.845 303.448 335.547 303.192C335.248 302.915 334.853 302.776 334.363 302.776C333.808 302.776 333.36 302.968 333.019 303.352C332.699 303.715 332.539 304.152 332.539 304.664C332.539 304.984 332.603 305.304 332.731 305.624C332.88 305.923 333.125 306.221 333.467 306.52L336.731 309.528C337.179 309.933 337.595 310.371 337.979 310.84C338.384 311.309 338.715 311.843 338.971 312.44C339.227 313.037 339.355 313.731 339.355 314.52C339.355 315.565 339.141 316.44 338.715 317.144C338.288 317.848 337.691 318.381 336.923 318.744C336.155 319.085 335.259 319.256 334.235 319.256ZM342.012 323.192L341.468 321.72C342.044 321.528 342.492 321.187 342.812 320.696C343.153 320.227 343.324 319.661 343.324 319H341.5V315.32H345.02V318.936C345.02 320.067 344.774 320.963 344.284 321.624C343.793 322.307 343.036 322.829 342.012 323.192ZM57.016 366.256C55.5013 366.256 54.2853 365.787 53.368 364.848C52.4507 363.888 51.928 362.629 51.8 361.072L54.648 360.208C54.8187 361.381 55.1067 362.267 55.512 362.864C55.9173 363.44 56.5147 363.728 57.304 363.728C57.9227 363.728 58.392 363.557 58.712 363.216C59.032 362.853 59.192 362.373 59.192 361.776C59.192 361.243 59.0747 360.763 58.84 360.336C58.6053 359.909 58.2213 359.472 57.688 359.024L54.52 356.304C53.88 355.749 53.336 355.131 52.888 354.448C52.4613 353.765 52.248 352.88 52.248 351.792C52.248 350.811 52.44 349.989 52.824 349.328C53.2293 348.645 53.784 348.133 54.488 347.792C55.2133 347.429 56.056 347.248 57.016 347.248C58.488 347.248 59.608 347.728 60.376 348.688C61.1653 349.627 61.6133 350.768 61.72 352.112L59.416 352.976C59.3307 352.336 59.2027 351.781 59.032 351.312C58.8613 350.821 58.6267 350.448 58.328 350.192C58.0293 349.915 57.6347 349.776 57.144 349.776C56.5893 349.776 56.1413 349.968 55.8 350.352C55.48 350.715 55.32 351.152 55.32 351.664C55.32 351.984 55.384 352.304 55.512 352.624C55.6613 352.923 55.9067 353.221 56.248 353.52L59.512 356.528C59.96 356.933 60.376 357.371 60.76 357.84C61.1653 358.309 61.496 358.843 61.752 359.44C62.008 360.037 62.136 360.731 62.136 361.52C62.136 362.565 61.9227 363.44 61.496 364.144C61.0693 364.848 60.472 365.381 59.704 365.744C58.936 366.085 58.04 366.256 57.016 366.256ZM64.6968 372.08V347.504H68.1208V348.976C68.5261 348.507 69.0168 348.101 69.5928 347.76C70.1688 347.419 70.8514 347.248 71.6408 347.248C72.6008 347.248 73.3581 347.504 73.9128 348.016C74.4888 348.507 74.9154 349.136 75.1928 349.904C75.4701 350.651 75.6514 351.419 75.7368 352.208C75.8221 352.976 75.8648 353.637 75.8648 354.192V358.672C75.8648 359.973 75.7368 361.211 75.4808 362.384C75.2248 363.536 74.7554 364.475 74.0728 365.2C73.4114 365.904 72.4728 366.256 71.2568 366.256C70.5954 366.256 70.0088 366.096 69.4968 365.776C68.9848 365.435 68.5261 365.051 68.1208 364.624V372.08H64.6968ZM70.5848 363.568C71.1821 363.568 71.6088 363.355 71.8648 362.928C72.1208 362.48 72.2808 361.883 72.3448 361.136C72.4088 360.389 72.4408 359.568 72.4408 358.672V354.192C72.4408 353.424 72.3981 352.72 72.3128 352.08C72.2274 351.419 72.0461 350.896 71.7688 350.512C71.4914 350.128 71.0541 349.936 70.4568 349.936C70.0088 349.936 69.5821 350.032 69.1768 350.224C68.7714 350.416 68.4194 350.64 68.1208 350.896V362.736C68.4408 362.971 68.8034 363.173 69.2088 363.344C69.6141 363.493 70.0728 363.568 70.5848 363.568ZM84.098 366.256C82.6473 366.256 81.5273 365.979 80.738 365.424C79.9487 364.848 79.394 364.016 79.074 362.928C78.7753 361.819 78.626 360.464 78.626 358.864V354.64C78.626 352.997 78.786 351.632 79.106 350.544C79.426 349.456 79.9807 348.635 80.77 348.08C81.5807 347.525 82.69 347.248 84.098 347.248C85.6553 347.248 86.7967 347.568 87.522 348.208C88.2687 348.848 88.7593 349.776 88.994 350.992C89.2287 352.187 89.346 353.627 89.346 355.312V356.816H82.05V360.528C82.05 361.275 82.114 361.883 82.242 362.352C82.3913 362.821 82.6153 363.173 82.914 363.408C83.234 363.621 83.6393 363.728 84.13 363.728C84.642 363.728 85.026 363.611 85.282 363.376C85.5593 363.12 85.7407 362.768 85.826 362.32C85.9327 361.851 85.986 361.307 85.986 360.688V359.568H89.314V360.272C89.314 362.128 88.9193 363.589 88.13 364.656C87.3407 365.723 85.9967 366.256 84.098 366.256ZM82.05 354.96H85.986V353.296C85.986 352.528 85.9433 351.888 85.858 351.376C85.7727 350.843 85.5913 350.448 85.314 350.192C85.058 349.915 84.642 349.776 84.066 349.776C83.5113 349.776 83.0847 349.904 82.786 350.16C82.5087 350.416 82.3167 350.853 82.21 351.472C82.1033 352.069 82.05 352.901 82.05 353.968V354.96ZM92.4468 366V347.504H95.8708V349.328C96.4894 348.752 97.1721 348.261 97.9188 347.856C98.6654 347.451 99.4868 347.248 100.383 347.248C101.129 347.248 101.695 347.44 102.079 347.824C102.484 348.208 102.761 348.688 102.911 349.264C103.081 349.84 103.167 350.427 103.167 351.024V366H99.7428V352.016C99.7428 351.355 99.6468 350.843 99.4548 350.48C99.2627 350.117 98.8681 349.936 98.2708 349.936C97.8868 349.936 97.4814 350.053 97.0548 350.288C96.6494 350.501 96.2548 350.768 95.8708 351.088V366H92.4468ZM110.797 366.256C109.24 366.256 108.077 365.691 107.309 364.56C106.541 363.408 106.157 361.467 106.157 358.736V355.152C106.157 353.744 106.275 352.443 106.509 351.248C106.744 350.032 107.181 349.061 107.821 348.336C108.483 347.611 109.443 347.248 110.701 347.248C111.32 347.248 111.885 347.387 112.397 347.664C112.909 347.941 113.368 348.283 113.773 348.688V340.08H117.197V366H113.773V364.816C113.368 365.243 112.92 365.595 112.429 365.872C111.96 366.128 111.416 366.256 110.797 366.256ZM111.661 363.568C111.981 363.568 112.323 363.515 112.685 363.408C113.048 363.28 113.411 363.099 113.773 362.864V350.736C113.475 350.523 113.144 350.341 112.781 350.192C112.419 350.021 112.024 349.936 111.597 349.936C110.808 349.936 110.275 350.32 109.997 351.088C109.72 351.835 109.581 352.741 109.581 353.808V359.024C109.581 359.877 109.624 360.656 109.709 361.36C109.816 362.043 110.019 362.587 110.317 362.992C110.616 363.376 111.064 363.568 111.661 363.568ZM120.89 366V347.504H124.314V366H120.89ZM120.89 344.752V341.168H124.314V344.752H120.89ZM127.978 366V347.504H131.402V349.328C132.021 348.752 132.703 348.261 133.45 347.856C134.197 347.451 135.018 347.248 135.914 347.248C136.661 347.248 137.226 347.44 137.61 347.824C138.015 348.208 138.293 348.688 138.442 349.264C138.613 349.84 138.698 350.427 138.698 351.024V366H135.274V352.016C135.274 351.355 135.178 350.843 134.986 350.48C134.794 350.117 134.399 349.936 133.802 349.936C133.418 349.936 133.013 350.053 132.586 350.288C132.181 350.501 131.786 350.768 131.402 351.088V366H127.978ZM146.841 371.728C145.731 371.728 144.729 371.611 143.833 371.376C142.937 371.141 142.233 370.768 141.721 370.256C141.209 369.744 140.953 369.072 140.953 368.24C140.953 367.643 141.081 367.12 141.337 366.672C141.593 366.224 141.923 365.84 142.329 365.52C142.734 365.179 143.161 364.901 143.609 364.688C143.011 364.517 142.563 364.251 142.265 363.888C141.966 363.504 141.817 363.109 141.817 362.704C141.817 362.021 141.998 361.435 142.361 360.944C142.723 360.453 143.225 359.92 143.865 359.344C143.161 358.811 142.627 358.128 142.265 357.296C141.902 356.464 141.721 355.312 141.721 353.84C141.721 352.389 141.913 351.184 142.297 350.224C142.702 349.243 143.289 348.507 144.057 348.016C144.846 347.504 145.806 347.248 146.937 347.248C147.939 347.248 148.739 347.419 149.337 347.76C149.955 348.101 150.425 348.613 150.745 349.296C150.851 349.125 151.139 348.837 151.609 348.432C152.078 348.005 152.622 347.653 153.241 347.376L153.753 347.152L154.617 349.36C154.339 349.403 153.966 349.509 153.497 349.68C153.049 349.829 152.622 349.989 152.217 350.16C151.833 350.309 151.587 350.437 151.481 350.544C151.63 350.907 151.758 351.429 151.865 352.112C151.993 352.795 152.057 353.403 152.057 353.936C152.057 355.195 151.897 356.304 151.577 357.264C151.257 358.224 150.723 358.981 149.977 359.536C149.251 360.069 148.238 360.336 146.937 360.336C146.659 360.336 146.361 360.315 146.041 360.272C145.721 360.229 145.433 360.176 145.177 360.112C145.049 360.304 144.91 360.528 144.761 360.784C144.633 361.04 144.569 361.285 144.569 361.52C144.569 361.755 144.686 361.947 144.921 362.096C145.177 362.224 145.571 362.309 146.105 362.352L148.985 362.608C150.435 362.736 151.513 363.173 152.217 363.92C152.921 364.667 153.273 365.733 153.273 367.12C153.273 368.123 153.038 368.965 152.569 369.648C152.099 370.352 151.385 370.875 150.425 371.216C149.486 371.557 148.291 371.728 146.841 371.728ZM147.097 369.04C148.313 369.04 149.209 368.891 149.785 368.592C150.361 368.315 150.649 367.856 150.649 367.216C150.649 366.832 150.574 366.512 150.425 366.256C150.297 366 150.051 365.797 149.689 365.648C149.326 365.499 148.803 365.392 148.121 365.328L145.209 365.072C144.974 365.307 144.75 365.541 144.536 365.776C144.323 366.011 144.153 366.256 144.025 366.512C143.897 366.789 143.833 367.077 143.833 367.376C143.833 367.931 144.067 368.347 144.536 368.624C145.006 368.901 145.859 369.04 147.097 369.04ZM146.937 357.936C147.427 357.936 147.811 357.851 148.089 357.68C148.387 357.488 148.611 357.221 148.76 356.88C148.91 356.517 149.006 356.08 149.049 355.568C149.113 355.056 149.145 354.48 149.145 353.84C149.145 353.2 149.113 352.624 149.049 352.112C149.006 351.579 148.91 351.131 148.76 350.768C148.633 350.384 148.419 350.096 148.121 349.904C147.843 349.712 147.459 349.616 146.969 349.616C146.499 349.616 146.105 349.712 145.785 349.904C145.486 350.096 145.262 350.373 145.113 350.736C144.963 351.077 144.857 351.515 144.793 352.048C144.729 352.56 144.697 353.157 144.697 353.84C144.697 354.416 144.718 354.96 144.761 355.472C144.825 355.963 144.931 356.389 145.081 356.752C145.251 357.115 145.486 357.403 145.785 357.616C146.083 357.829 146.467 357.936 146.937 357.936ZM163.259 366V347.504H166.427V349.264C167.046 348.56 167.729 348.037 168.475 347.696C169.222 347.355 169.99 347.184 170.779 347.184C171.462 347.184 172.07 347.355 172.603 347.696C173.158 348.037 173.553 348.645 173.787 349.52C174.449 348.709 175.163 348.123 175.931 347.76C176.721 347.376 177.542 347.184 178.395 347.184C178.993 347.184 179.537 347.333 180.027 347.632C180.518 347.909 180.913 348.368 181.211 349.008C181.51 349.627 181.659 350.448 181.659 351.472V366H178.523V351.696C178.523 350.8 178.374 350.203 178.075 349.904C177.798 349.584 177.414 349.424 176.923 349.424C176.454 349.424 175.963 349.563 175.451 349.84C174.939 350.096 174.47 350.459 174.043 350.928C174.043 351.013 174.043 351.099 174.043 351.184C174.043 351.269 174.043 351.365 174.043 351.472V366H170.907V351.696C170.907 350.8 170.758 350.203 170.459 349.904C170.182 349.584 169.798 349.424 169.307 349.424C168.838 349.424 168.347 349.563 167.835 349.84C167.345 350.096 166.875 350.459 166.427 350.928V366H163.259ZM190.097 366.256C188.732 366.256 187.655 365.979 186.865 365.424C186.076 364.869 185.511 364.08 185.169 363.056C184.849 362.032 184.689 360.827 184.689 359.44V354.064C184.689 352.677 184.849 351.472 185.169 350.448C185.511 349.424 186.076 348.635 186.865 348.08C187.655 347.525 188.732 347.248 190.097 347.248C191.463 347.248 192.529 347.525 193.297 348.08C194.087 348.635 194.641 349.424 194.961 350.448C195.303 351.472 195.473 352.677 195.473 354.064V359.44C195.473 360.827 195.303 362.032 194.961 363.056C194.641 364.08 194.087 364.869 193.297 365.424C192.529 365.979 191.463 366.256 190.097 366.256ZM190.097 363.728C190.759 363.728 191.217 363.536 191.473 363.152C191.751 362.768 191.911 362.267 191.953 361.648C192.017 361.008 192.049 360.347 192.049 359.664V353.872C192.049 353.168 192.017 352.507 191.953 351.888C191.911 351.269 191.751 350.768 191.473 350.384C191.217 349.979 190.759 349.776 190.097 349.776C189.436 349.776 188.967 349.979 188.689 350.384C188.412 350.768 188.241 351.269 188.177 351.888C188.135 352.507 188.113 353.168 188.113 353.872V359.664C188.113 360.347 188.135 361.008 188.177 361.648C188.241 362.267 188.412 362.768 188.689 363.152C188.967 363.536 189.436 363.728 190.097 363.728ZM198.603 366V347.504H202.027V349.328C202.646 348.752 203.328 348.261 204.075 347.856C204.822 347.451 205.643 347.248 206.539 347.248C207.286 347.248 207.851 347.44 208.235 347.824C208.64 348.208 208.918 348.688 209.067 349.264C209.238 349.84 209.323 350.427 209.323 351.024V366H205.899V352.016C205.899 351.355 205.803 350.843 205.611 350.48C205.419 350.117 205.024 349.936 204.427 349.936C204.043 349.936 203.638 350.053 203.211 350.288C202.806 350.501 202.411 350.768 202.027 351.088V366H198.603ZM217.786 366.256C216.335 366.256 215.215 365.979 214.426 365.424C213.636 364.848 213.082 364.016 212.762 362.928C212.463 361.819 212.314 360.464 212.314 358.864V354.64C212.314 352.997 212.474 351.632 212.794 350.544C213.114 349.456 213.668 348.635 214.458 348.08C215.268 347.525 216.378 347.248 217.786 347.248C219.343 347.248 220.484 347.568 221.21 348.208C221.956 348.848 222.447 349.776 222.682 350.992C222.916 352.187 223.034 353.627 223.034 355.312V356.816H215.738V360.528C215.738 361.275 215.802 361.883 215.93 362.352C216.079 362.821 216.303 363.173 216.602 363.408C216.922 363.621 217.327 363.728 217.818 363.728C218.33 363.728 218.714 363.611 218.97 363.376C219.247 363.12 219.428 362.768 219.514 362.32C219.62 361.851 219.674 361.307 219.674 360.688V359.568H223.002V360.272C223.002 362.128 222.607 363.589 221.818 364.656C221.028 365.723 219.684 366.256 217.786 366.256ZM215.738 354.96H219.674V353.296C219.674 352.528 219.631 351.888 219.546 351.376C219.46 350.843 219.279 350.448 219.002 350.192C218.746 349.915 218.33 349.776 217.754 349.776C217.199 349.776 216.772 349.904 216.474 350.16C216.196 350.416 216.004 350.853 215.898 351.472C215.791 352.069 215.738 352.901 215.738 353.968V354.96ZM225.846 370.64V368.016C226.678 368.016 227.34 367.973 227.83 367.888C228.321 367.824 228.673 367.685 228.886 367.472C229.1 367.28 229.206 367.003 229.206 366.64C229.206 366.448 229.132 366.021 228.982 365.36C228.833 364.699 228.673 363.995 228.502 363.248L224.79 347.504H228.246L230.742 361.328L233.142 347.504H236.598L232.182 367.024C231.99 367.92 231.638 368.624 231.126 369.136C230.614 369.669 229.953 370.053 229.142 370.288C228.353 370.523 227.393 370.64 226.262 370.64H225.846ZM245.978 366V347.504H249.146V349.264C249.765 348.56 250.447 348.037 251.194 347.696C251.941 347.355 252.709 347.184 253.498 347.184C254.181 347.184 254.789 347.355 255.322 347.696C255.877 348.037 256.271 348.645 256.506 349.52C257.167 348.709 257.882 348.123 258.65 347.76C259.439 347.376 260.261 347.184 261.114 347.184C261.711 347.184 262.255 347.333 262.746 347.632C263.237 347.909 263.631 348.368 263.93 349.008C264.229 349.627 264.378 350.448 264.378 351.472V366H261.242V351.696C261.242 350.8 261.093 350.203 260.794 349.904C260.517 349.584 260.133 349.424 259.642 349.424C259.173 349.424 258.682 349.563 258.17 349.84C257.658 350.096 257.189 350.459 256.762 350.928C256.762 351.013 256.762 351.099 256.762 351.184C256.762 351.269 256.762 351.365 256.762 351.472V366H253.626V351.696C253.626 350.8 253.477 350.203 253.178 349.904C252.901 349.584 252.517 349.424 252.026 349.424C251.557 349.424 251.066 349.563 250.554 349.84C250.063 350.096 249.594 350.459 249.146 350.928V366H245.978ZM271.056 366.256C270.331 366.256 269.691 366.053 269.136 365.648C268.581 365.221 268.144 364.688 267.824 364.048C267.504 363.387 267.344 362.693 267.344 361.968C267.344 360.816 267.536 359.845 267.92 359.056C268.304 358.267 268.827 357.605 269.488 357.072C270.171 356.517 270.949 356.037 271.824 355.632C272.72 355.227 273.659 354.832 274.64 354.448V353.136C274.64 352.389 274.597 351.771 274.512 351.28C274.427 350.789 274.245 350.427 273.968 350.192C273.712 349.936 273.317 349.808 272.784 349.808C272.315 349.808 271.931 349.915 271.632 350.128C271.355 350.341 271.152 350.651 271.024 351.056C270.896 351.44 270.832 351.899 270.832 352.432V353.36L267.44 353.232C267.483 351.184 267.952 349.68 268.848 348.72C269.744 347.739 271.131 347.248 273.008 347.248C274.843 347.248 276.144 347.749 276.912 348.752C277.68 349.755 278.064 351.205 278.064 353.104V361.552C278.064 362.128 278.075 362.683 278.096 363.216C278.139 363.749 278.181 364.251 278.224 364.72C278.288 365.168 278.341 365.595 278.384 366H275.248C275.184 365.659 275.099 365.232 274.992 364.72C274.907 364.187 274.843 363.707 274.8 363.28C274.587 364.005 274.171 364.688 273.552 365.328C272.955 365.947 272.123 366.256 271.056 366.256ZM272.4 363.312C272.741 363.312 273.061 363.216 273.36 363.024C273.659 362.832 273.925 362.619 274.16 362.384C274.395 362.128 274.555 361.925 274.64 361.776V356.528C274.107 356.827 273.605 357.125 273.136 357.424C272.667 357.723 272.251 358.043 271.888 358.384C271.547 358.704 271.269 359.077 271.056 359.504C270.864 359.909 270.768 360.379 270.768 360.912C270.768 361.659 270.907 362.245 271.184 362.672C271.461 363.099 271.867 363.312 272.4 363.312ZM281.417 365.968V340.048H284.841V355.504L289.833 347.504H293.417L289.065 354.736L293.289 366H289.865L286.409 356.528L284.841 358.896V365.968H281.417ZM300.192 366.256C298.741 366.256 297.621 365.979 296.832 365.424C296.042 364.848 295.488 364.016 295.168 362.928C294.869 361.819 294.72 360.464 294.72 358.864V354.64C294.72 352.997 294.88 351.632 295.2 350.544C295.52 349.456 296.074 348.635 296.864 348.08C297.674 347.525 298.784 347.248 300.192 347.248C301.749 347.248 302.89 347.568 303.616 348.208C304.362 348.848 304.853 349.776 305.088 350.992C305.322 352.187 305.44 353.627 305.44 355.312V356.816H298.144V360.528C298.144 361.275 298.208 361.883 298.336 362.352C298.485 362.821 298.709 363.173 299.008 363.408C299.328 363.621 299.733 363.728 300.224 363.728C300.736 363.728 301.12 363.611 301.376 363.376C301.653 363.12 301.834 362.768 301.92 362.32C302.026 361.851 302.08 361.307 302.08 360.688V359.568H305.408V360.272C305.408 362.128 305.013 363.589 304.224 364.656C303.434 365.723 302.09 366.256 300.192 366.256ZM298.144 354.96H302.08V353.296C302.08 352.528 302.037 351.888 301.952 351.376C301.866 350.843 301.685 350.448 301.408 350.192C301.152 349.915 300.736 349.776 300.16 349.776C299.605 349.776 299.178 349.904 298.88 350.16C298.602 350.416 298.41 350.853 298.304 351.472C298.197 352.069 298.144 352.901 298.144 353.968V354.96ZM312.829 366.256C311.314 366.256 310.098 365.787 309.181 364.848C308.263 363.888 307.741 362.629 307.613 361.072L310.461 360.208C310.631 361.381 310.919 362.267 311.325 362.864C311.73 363.44 312.327 363.728 313.117 363.728C313.735 363.728 314.205 363.557 314.525 363.216C314.845 362.853 315.005 362.373 315.005 361.776C315.005 361.243 314.887 360.763 314.653 360.336C314.418 359.909 314.034 359.472 313.501 359.024L310.333 356.304C309.693 355.749 309.149 355.131 308.701 354.448C308.274 353.765 308.061 352.88 308.061 351.792C308.061 350.811 308.253 349.989 308.637 349.328C309.042 348.645 309.597 348.133 310.301 347.792C311.026 347.429 311.869 347.248 312.829 347.248C314.301 347.248 315.421 347.728 316.189 348.688C316.978 349.627 317.426 350.768 317.533 352.112L315.229 352.976C315.143 352.336 315.015 351.781 314.845 351.312C314.674 350.821 314.439 350.448 314.141 350.192C313.842 349.915 313.447 349.776 312.957 349.776C312.402 349.776 311.954 349.968 311.613 350.352C311.293 350.715 311.133 351.152 311.133 351.664C311.133 351.984 311.197 352.304 311.325 352.624C311.474 352.923 311.719 353.221 312.061 353.52L315.325 356.528C315.773 356.933 316.189 357.371 316.573 357.84C316.978 358.309 317.309 358.843 317.565 359.44C317.821 360.037 317.949 360.731 317.949 361.52C317.949 362.565 317.735 363.44 317.309 364.144C316.882 364.848 316.285 365.381 315.517 365.744C314.749 366.085 313.853 366.256 312.829 366.256ZM52.728 413V394.504H55.896V396.264C56.5147 395.56 57.1973 395.037 57.944 394.696C58.6907 394.355 59.4587 394.184 60.248 394.184C60.9307 394.184 61.5387 394.355 62.072 394.696C62.6267 395.037 63.0213 395.645 63.256 396.52C63.9173 395.709 64.632 395.123 65.4 394.76C66.1893 394.376 67.0107 394.184 67.864 394.184C68.4613 394.184 69.0053 394.333 69.496 394.632C69.9867 394.909 70.3813 395.368 70.68 396.008C70.9787 396.627 71.128 397.448 71.128 398.472V413H67.992V398.696C67.992 397.8 67.8427 397.203 67.544 396.904C67.2667 396.584 66.8827 396.424 66.392 396.424C65.9227 396.424 65.432 396.563 64.92 396.84C64.408 397.096 63.9387 397.459 63.512 397.928C63.512 398.013 63.512 398.099 63.512 398.184C63.512 398.269 63.512 398.365 63.512 398.472V413H60.376V398.696C60.376 397.8 60.2267 397.203 59.928 396.904C59.6507 396.584 59.2667 396.424 58.776 396.424C58.3067 396.424 57.816 396.563 57.304 396.84C56.8133 397.096 56.344 397.459 55.896 397.928V413H52.728ZM79.598 413.256C78.1473 413.256 77.0273 412.979 76.238 412.424C75.4487 411.848 74.894 411.016 74.574 409.928C74.2753 408.819 74.126 407.464 74.126 405.864V401.64C74.126 399.997 74.286 398.632 74.606 397.544C74.926 396.456 75.4807 395.635 76.27 395.08C77.0807 394.525 78.19 394.248 79.598 394.248C81.1553 394.248 82.2967 394.568 83.022 395.208C83.7687 395.848 84.2593 396.776 84.494 397.992C84.7287 399.187 84.846 400.627 84.846 402.312V403.816H77.55V407.528C77.55 408.275 77.614 408.883 77.742 409.352C77.8913 409.821 78.1153 410.173 78.414 410.408C78.734 410.621 79.1393 410.728 79.63 410.728C80.142 410.728 80.526 410.611 80.782 410.376C81.0593 410.12 81.2407 409.768 81.326 409.32C81.4327 408.851 81.486 408.307 81.486 407.688V406.568H84.814V407.272C84.814 409.128 84.4193 410.589 83.63 411.656C82.8407 412.723 81.4967 413.256 79.598 413.256ZM77.55 401.96H81.486V400.296C81.486 399.528 81.4433 398.888 81.358 398.376C81.2727 397.843 81.0913 397.448 80.814 397.192C80.558 396.915 80.142 396.776 79.566 396.776C79.0113 396.776 78.5847 396.904 78.286 397.16C78.0087 397.416 77.8167 397.853 77.71 398.472C77.6033 399.069 77.55 399.901 77.55 400.968V401.96ZM96.3473 413V397.032H94.1393V394.504H96.3473V393.544C96.3473 392.392 96.4326 391.411 96.6033 390.6C96.7953 389.768 97.1793 389.128 97.7552 388.68C98.3313 388.232 99.1953 388.008 100.347 388.008C100.774 388.008 101.147 388.029 101.467 388.072C101.809 388.093 102.182 388.147 102.587 388.232V390.728C102.395 390.685 102.182 390.653 101.947 390.632C101.713 390.589 101.499 390.568 101.307 390.568C100.646 390.568 100.219 390.792 100.027 391.24C99.8566 391.667 99.7713 392.243 99.7713 392.968V394.504H102.587V397.032H99.7713V413H96.3473ZM109.567 413.256C108.116 413.256 106.996 412.979 106.207 412.424C105.417 411.848 104.863 411.016 104.543 409.928C104.244 408.819 104.095 407.464 104.095 405.864V401.64C104.095 399.997 104.255 398.632 104.575 397.544C104.895 396.456 105.449 395.635 106.239 395.08C107.049 394.525 108.159 394.248 109.567 394.248C111.124 394.248 112.265 394.568 112.991 395.208C113.737 395.848 114.228 396.776 114.463 397.992C114.697 399.187 114.815 400.627 114.815 402.312V403.816H107.519V407.528C107.519 408.275 107.583 408.883 107.711 409.352C107.86 409.821 108.084 410.173 108.383 410.408C108.703 410.621 109.108 410.728 109.599 410.728C110.111 410.728 110.495 410.611 110.751 410.376C111.028 410.12 111.209 409.768 111.295 409.32C111.401 408.851 111.455 408.307 111.455 407.688V406.568H114.783V407.272C114.783 409.128 114.388 410.589 113.599 411.656C112.809 412.723 111.465 413.256 109.567 413.256ZM107.519 401.96H111.455V400.296C111.455 399.528 111.412 398.888 111.327 398.376C111.241 397.843 111.06 397.448 110.783 397.192C110.527 396.915 110.111 396.776 109.535 396.776C108.98 396.776 108.553 396.904 108.255 397.16C107.977 397.416 107.785 397.853 107.679 398.472C107.572 399.069 107.519 399.901 107.519 400.968V401.96ZM123.036 413.256C121.585 413.256 120.465 412.979 119.676 412.424C118.886 411.848 118.332 411.016 118.012 409.928C117.713 408.819 117.564 407.464 117.564 405.864V401.64C117.564 399.997 117.724 398.632 118.044 397.544C118.364 396.456 118.918 395.635 119.708 395.08C120.518 394.525 121.628 394.248 123.036 394.248C124.593 394.248 125.734 394.568 126.46 395.208C127.206 395.848 127.697 396.776 127.932 397.992C128.166 399.187 128.284 400.627 128.284 402.312V403.816H120.988V407.528C120.988 408.275 121.052 408.883 121.18 409.352C121.329 409.821 121.553 410.173 121.852 410.408C122.172 410.621 122.577 410.728 123.068 410.728C123.58 410.728 123.964 410.611 124.22 410.376C124.497 410.12 124.678 409.768 124.764 409.32C124.87 408.851 124.924 408.307 124.924 407.688V406.568H128.252V407.272C128.252 409.128 127.857 410.589 127.068 411.656C126.278 412.723 124.934 413.256 123.036 413.256ZM120.988 401.96H124.924V400.296C124.924 399.528 124.881 398.888 124.796 398.376C124.71 397.843 124.529 397.448 124.252 397.192C123.996 396.915 123.58 396.776 123.004 396.776C122.449 396.776 122.022 396.904 121.724 397.16C121.446 397.416 121.254 397.853 121.148 398.472C121.041 399.069 120.988 399.901 120.988 400.968V401.96ZM131.704 413V387.08H135.128V413H131.704ZM152.633 413.256C151.972 413.256 151.375 413.096 150.841 412.776C150.329 412.435 149.881 412.061 149.497 411.656V413H146.073V387.08H149.497V395.976C149.903 395.507 150.383 395.101 150.937 394.76C151.513 394.419 152.196 394.248 152.985 394.248C153.945 394.248 154.703 394.504 155.257 395.016C155.833 395.507 156.26 396.136 156.537 396.904C156.815 397.651 156.996 398.419 157.081 399.208C157.167 399.976 157.209 400.637 157.209 401.192V405.672C157.209 406.973 157.081 408.211 156.825 409.384C156.569 410.536 156.111 411.475 155.449 412.2C154.788 412.904 153.849 413.256 152.633 413.256ZM151.929 410.568C152.527 410.568 152.953 410.355 153.209 409.928C153.465 409.48 153.625 408.883 153.689 408.136C153.753 407.389 153.785 406.568 153.785 405.672V401.192C153.785 400.424 153.743 399.72 153.657 399.08C153.572 398.419 153.391 397.896 153.113 397.512C152.836 397.128 152.399 396.936 151.801 396.936C151.353 396.936 150.927 397.032 150.521 397.224C150.137 397.416 149.796 397.629 149.497 397.864V409.736C149.796 409.971 150.148 410.173 150.553 410.344C150.98 410.493 151.439 410.568 151.929 410.568ZM165.442 413.256C163.991 413.256 162.871 412.979 162.082 412.424C161.292 411.848 160.738 411.016 160.418 409.928C160.119 408.819 159.97 407.464 159.97 405.864V401.64C159.97 399.997 160.13 398.632 160.45 397.544C160.77 396.456 161.324 395.635 162.114 395.08C162.924 394.525 164.034 394.248 165.442 394.248C166.999 394.248 168.14 394.568 168.866 395.208C169.612 395.848 170.103 396.776 170.338 397.992C170.572 399.187 170.69 400.627 170.69 402.312V403.816H163.394V407.528C163.394 408.275 163.458 408.883 163.586 409.352C163.735 409.821 163.959 410.173 164.258 410.408C164.578 410.621 164.983 410.728 165.474 410.728C165.986 410.728 166.37 410.611 166.626 410.376C166.903 410.12 167.084 409.768 167.17 409.32C167.276 408.851 167.33 408.307 167.33 407.688V406.568H170.658V407.272C170.658 409.128 170.263 410.589 169.474 411.656C168.684 412.723 167.34 413.256 165.442 413.256ZM163.394 401.96H167.33V400.296C167.33 399.528 167.287 398.888 167.202 398.376C167.116 397.843 166.935 397.448 166.658 397.192C166.402 396.915 165.986 396.776 165.41 396.776C164.855 396.776 164.428 396.904 164.13 397.16C163.852 397.416 163.66 397.853 163.554 398.472C163.447 399.069 163.394 399.901 163.394 400.968V401.96ZM178.719 413.256C177.759 413.256 176.98 413.075 176.383 412.712C175.807 412.349 175.38 411.837 175.103 411.176C174.847 410.515 174.719 409.736 174.719 408.84V396.776H172.767V394.504H174.719V389.096H178.143V394.504H181.119V396.776H178.143V408.616C178.143 409.341 178.26 409.864 178.495 410.184C178.729 410.483 179.177 410.632 179.839 410.632C180.009 410.632 180.201 410.621 180.415 410.6C180.649 410.579 180.873 410.557 181.087 410.536V413.064C180.66 413.128 180.265 413.171 179.903 413.192C179.54 413.235 179.145 413.256 178.719 413.256ZM188.562 413.256C187.602 413.256 186.824 413.075 186.226 412.712C185.65 412.349 185.224 411.837 184.946 411.176C184.69 410.515 184.562 409.736 184.562 408.84V396.776H182.61V394.504H184.562V389.096H187.986V394.504H190.962V396.776H187.986V408.616C187.986 409.341 188.104 409.864 188.338 410.184C188.573 410.483 189.021 410.632 189.682 410.632C189.853 410.632 190.045 410.621 190.258 410.6C190.493 410.579 190.717 410.557 190.93 410.536V413.064C190.504 413.128 190.109 413.171 189.746 413.192C189.384 413.235 188.989 413.256 188.562 413.256ZM198.598 413.256C197.147 413.256 196.027 412.979 195.238 412.424C194.449 411.848 193.894 411.016 193.574 409.928C193.275 408.819 193.126 407.464 193.126 405.864V401.64C193.126 399.997 193.286 398.632 193.606 397.544C193.926 396.456 194.481 395.635 195.27 395.08C196.081 394.525 197.19 394.248 198.598 394.248C200.155 394.248 201.297 394.568 202.022 395.208C202.769 395.848 203.259 396.776 203.494 397.992C203.729 399.187 203.846 400.627 203.846 402.312V403.816H196.55V407.528C196.55 408.275 196.614 408.883 196.742 409.352C196.891 409.821 197.115 410.173 197.414 410.408C197.734 410.621 198.139 410.728 198.63 410.728C199.142 410.728 199.526 410.611 199.782 410.376C200.059 410.12 200.241 409.768 200.326 409.32C200.433 408.851 200.486 408.307 200.486 407.688V406.568H203.814V407.272C203.814 409.128 203.419 410.589 202.63 411.656C201.841 412.723 200.497 413.256 198.598 413.256ZM196.55 401.96H200.486V400.296C200.486 399.528 200.443 398.888 200.358 398.376C200.273 397.843 200.091 397.448 199.814 397.192C199.558 396.915 199.142 396.776 198.566 396.776C198.011 396.776 197.585 396.904 197.286 397.16C197.009 397.416 196.817 397.853 196.71 398.472C196.603 399.069 196.55 399.901 196.55 400.968V401.96ZM207.043 413V394.504H210.467V397.128C211.149 395.997 211.832 395.24 212.515 394.856C213.197 394.472 213.88 394.28 214.563 394.28C214.648 394.28 214.723 394.28 214.787 394.28C214.872 394.28 214.979 394.291 215.107 394.312V398.088C214.851 397.981 214.552 397.896 214.211 397.832C213.891 397.747 213.56 397.704 213.219 397.704C212.685 397.704 212.195 397.832 211.747 398.088C211.32 398.323 210.893 398.792 210.467 399.496V413H207.043ZM217.068 413V409.192H220.492V413H217.068Z" fill="black"/>
<path d="M40.5334 84.4107L39.5894 83.4667L47.056 76L39.5894 68.5334L40.5334 67.5894L48 75.056L55.4667 67.5894L56.4107 68.5334L48.944 76L56.4107 83.4667L55.4667 84.4107L48 76.944L40.5334 84.4107Z" fill="black"/>
</g>
<defs>
<filter id="filter0_d_46_1258" x="0" y="0" width="414" height="868" filterUnits="userSpaceOnUse" color-interpolation-filters="sRGB">
<feFlood flood-opacity="0" result="BackgroundImageFix"/>
<feColorMatrix in="SourceAlpha" type="matrix" values="0 0 0 0 0 0 0 0 0 0 0 0 0 0 0 0 0 0 127 0" result="hardAlpha"/>
<feOffset dx="4" dy="8"/>
<feGaussianBlur stdDeviation="6"/>
<feComposite in2="hardAlpha" operator="out"/>
<feColorMatrix type="matrix" values="0 0 0 0 0 0 0 0 0 0 0 0 0 0 0 0 0 0 0.25 0"/>
<feBlend mode="normal" in2="BackgroundImageFix" result="effect1_dropShadow_46_1258"/>
<feBlend mode="normal" in="SourceGraphic" in2="effect1_dropShadow_46_1258" result="shape"/>
</filter>
</defs>
</svg>
