<svg width="414" height="868" viewBox="0 0 414 868" fill="none" xmlns="http://www.w3.org/2000/svg">
<g filter="url(#filter0_d_46_1274)">
<rect width="390" height="844" transform="translate(8 4)" fill="white"/>
<circle cx="203" cy="426" r="83" fill="#D9D9D9"/>
<path d="M178.352 813L176.504 801.66H177.82L179.038 809.808L180.564 801.702H181.684L183.224 809.85L184.414 801.66H185.702L183.882 813H182.734L181.152 804.6L179.556 813H178.352ZM188.192 813.112C187.875 813.112 187.595 813.023 187.352 812.846C187.11 812.659 186.918 812.426 186.778 812.146C186.638 811.857 186.568 811.553 186.568 811.236C186.568 810.732 186.652 810.307 186.82 809.962C186.988 809.617 187.217 809.327 187.506 809.094C187.805 808.851 188.146 808.641 188.528 808.464C188.92 808.287 189.331 808.114 189.76 807.946V807.372C189.76 807.045 189.742 806.775 189.704 806.56C189.667 806.345 189.588 806.187 189.466 806.084C189.354 805.972 189.182 805.916 188.948 805.916C188.743 805.916 188.575 805.963 188.444 806.056C188.323 806.149 188.234 806.285 188.178 806.462C188.122 806.63 188.094 806.831 188.094 807.064V807.47L186.61 807.414C186.629 806.518 186.834 805.86 187.226 805.44C187.618 805.011 188.225 804.796 189.046 804.796C189.849 804.796 190.418 805.015 190.754 805.454C191.09 805.893 191.258 806.527 191.258 807.358V811.054C191.258 811.306 191.263 811.549 191.272 811.782C191.291 812.015 191.31 812.235 191.328 812.44C191.356 812.636 191.38 812.823 191.398 813H190.026C189.998 812.851 189.961 812.664 189.914 812.44C189.877 812.207 189.849 811.997 189.83 811.81C189.737 812.127 189.555 812.426 189.284 812.706C189.023 812.977 188.659 813.112 188.192 813.112ZM188.78 811.824C188.93 811.824 189.07 811.782 189.2 811.698C189.331 811.614 189.448 811.521 189.55 811.418C189.653 811.306 189.723 811.217 189.76 811.152V808.856C189.527 808.987 189.308 809.117 189.102 809.248C188.897 809.379 188.715 809.519 188.556 809.668C188.407 809.808 188.286 809.971 188.192 810.158C188.108 810.335 188.066 810.541 188.066 810.774C188.066 811.101 188.127 811.357 188.248 811.544C188.37 811.731 188.547 811.824 188.78 811.824ZM192.837 813V801.66H194.335V813H192.837ZM196.037 813V801.66H197.535V813H196.037ZM201.336 813.112C200.701 813.112 200.211 812.991 199.866 812.748C199.521 812.496 199.278 812.132 199.138 811.656C199.007 811.171 198.942 810.578 198.942 809.878V808.03C198.942 807.311 199.012 806.714 199.152 806.238C199.292 805.762 199.535 805.403 199.88 805.16C200.235 804.917 200.72 804.796 201.336 804.796C202.017 804.796 202.517 804.936 202.834 805.216C203.161 805.496 203.375 805.902 203.478 806.434C203.581 806.957 203.632 807.587 203.632 808.324V808.982H200.44V810.606C200.44 810.933 200.468 811.199 200.524 811.404C200.589 811.609 200.687 811.763 200.818 811.866C200.958 811.959 201.135 812.006 201.35 812.006C201.574 812.006 201.742 811.955 201.854 811.852C201.975 811.74 202.055 811.586 202.092 811.39C202.139 811.185 202.162 810.947 202.162 810.676V810.186H203.618V810.494C203.618 811.306 203.445 811.945 203.1 812.412C202.755 812.879 202.167 813.112 201.336 813.112ZM200.44 808.17H202.162V807.442C202.162 807.106 202.143 806.826 202.106 806.602C202.069 806.369 201.989 806.196 201.868 806.084C201.756 805.963 201.574 805.902 201.322 805.902C201.079 805.902 200.893 805.958 200.762 806.07C200.641 806.182 200.557 806.373 200.51 806.644C200.463 806.905 200.44 807.269 200.44 807.736V808.17ZM207.144 813.112C206.724 813.112 206.384 813.033 206.122 812.874C205.87 812.715 205.684 812.491 205.562 812.202C205.45 811.913 205.394 811.572 205.394 811.18V805.902H204.54V804.908H205.394V802.542H206.892V804.908H208.194V805.902H206.892V811.082C206.892 811.399 206.944 811.628 207.046 811.768C207.149 811.899 207.345 811.964 207.634 811.964C207.709 811.964 207.793 811.959 207.886 811.95C207.989 811.941 208.087 811.931 208.18 811.922V813.028C207.994 813.056 207.821 813.075 207.662 813.084C207.504 813.103 207.331 813.112 207.144 813.112ZM214.09 813L212.242 801.66H213.558L214.776 809.808L216.302 801.702H217.422L218.962 809.85L220.152 801.66H221.44L219.62 813H218.472L216.89 804.6L215.294 813H214.09ZM222.792 813V804.908H224.29V813H222.792ZM222.792 803.704V802.136H224.29V803.704H222.792ZM225.585 813V811.992L228.063 806.028H225.837V804.908H229.673V805.72L227.181 811.866H229.617V813H225.585Z" fill="black"/>
</g>
<defs>
<filter id="filter0_d_46_1274" x="0" y="0" width="414" height="868" filterUnits="userSpaceOnUse" color-interpolation-filters="sRGB">
<feFlood flood-opacity="0" result="BackgroundImageFix"/>
<feColorMatrix in="SourceAlpha" type="matrix" values="0 0 0 0 0 0 0 0 0 0 0 0 0 0 0 0 0 0 127 0" result="hardAlpha"/>
<feOffset dx="4" dy="8"/>
<feGaussianBlur stdDeviation="6"/>
<feComposite in2="hardAlpha" operator="out"/>
<feColorMatrix type="matrix" values="0 0 0 0 0 0 0 0 0 0 0 0 0 0 0 0 0 0 0.25 0"/>
<feBlend mode="normal" in2="BackgroundImageFix" result="effect1_dropShadow_46_1274"/>
<feBlend mode="normal" in="SourceGraphic" in2="effect1_dropShadow_46_1274" result="shape"/>
</filter>
</defs>
</svg>
