<svg width="414" height="868" viewBox="0 0 414 868" fill="none" xmlns="http://www.w3.org/2000/svg">
<g filter="url(#filter0_d_46_1252)">
<rect width="390" height="844" transform="translate(8 4)" fill="white"/>
<circle cx="203" cy="228" r="141" fill="#D9D9D9"/>
<rect width="341" height="64" transform="translate(32 660)" fill="#D9D9D9"/>
<path d="M168.912 698.096C168.08 698.096 167.28 697.963 166.512 697.696C165.755 697.419 165.168 697.067 164.752 696.64L165.216 695.728C165.611 696.112 166.139 696.437 166.8 696.704C167.472 696.96 168.176 697.088 168.912 697.088C169.616 697.088 170.187 697.003 170.624 696.832C171.072 696.651 171.397 696.411 171.6 696.112C171.813 695.813 171.92 695.483 171.92 695.12C171.92 694.683 171.792 694.331 171.536 694.064C171.291 693.797 170.965 693.589 170.56 693.44C170.155 693.28 169.707 693.141 169.216 693.024C168.725 692.907 168.235 692.784 167.744 692.656C167.253 692.517 166.8 692.336 166.384 692.112C165.979 691.888 165.648 691.595 165.392 691.232C165.147 690.859 165.024 690.373 165.024 689.776C165.024 689.221 165.168 688.715 165.456 688.256C165.755 687.787 166.208 687.413 166.816 687.136C167.424 686.848 168.203 686.704 169.152 686.704C169.781 686.704 170.405 686.795 171.024 686.976C171.643 687.147 172.176 687.387 172.624 687.696L172.224 688.64C171.744 688.32 171.232 688.085 170.688 687.936C170.155 687.787 169.637 687.712 169.136 687.712C168.464 687.712 167.909 687.803 167.472 687.984C167.035 688.165 166.709 688.411 166.496 688.72C166.293 689.019 166.192 689.36 166.192 689.744C166.192 690.181 166.315 690.533 166.56 690.8C166.816 691.067 167.147 691.275 167.552 691.424C167.968 691.573 168.421 691.707 168.912 691.824C169.403 691.941 169.888 692.069 170.368 692.208C170.859 692.347 171.307 692.528 171.712 692.752C172.128 692.965 172.459 693.253 172.704 693.616C172.96 693.979 173.088 694.453 173.088 695.04C173.088 695.584 172.939 696.091 172.64 696.56C172.341 697.019 171.883 697.392 171.264 697.68C170.656 697.957 169.872 698.096 168.912 698.096ZM178.084 698.08C177.294 698.08 176.686 697.867 176.26 697.44C175.833 697.013 175.62 696.411 175.62 695.632V687.744H176.756V695.568C176.756 696.059 176.878 696.437 177.124 696.704C177.38 696.971 177.742 697.104 178.212 697.104C178.713 697.104 179.129 696.96 179.46 696.672L179.86 697.488C179.636 697.691 179.364 697.84 179.044 697.936C178.734 698.032 178.414 698.08 178.084 698.08ZM174.116 690.544V689.6H179.316V690.544H174.116ZM187.192 698V696.144L187.144 695.84V692.736C187.144 692.021 186.941 691.472 186.536 691.088C186.141 690.704 185.549 690.512 184.76 690.512C184.216 690.512 183.698 690.603 183.208 690.784C182.717 690.965 182.301 691.205 181.96 691.504L181.448 690.656C181.874 690.293 182.386 690.016 182.984 689.824C183.581 689.621 184.21 689.52 184.872 689.52C185.96 689.52 186.797 689.792 187.384 690.336C187.981 690.869 188.28 691.685 188.28 692.784V698H187.192ZM184.296 698.08C183.666 698.08 183.117 697.979 182.648 697.776C182.189 697.563 181.837 697.275 181.592 696.912C181.346 696.539 181.224 696.112 181.224 695.632C181.224 695.195 181.325 694.8 181.528 694.448C181.741 694.085 182.082 693.797 182.552 693.584C183.032 693.36 183.672 693.248 184.472 693.248H187.368V694.096H184.504C183.693 694.096 183.128 694.24 182.808 694.528C182.498 694.816 182.344 695.173 182.344 695.6C182.344 696.08 182.53 696.464 182.904 696.752C183.277 697.04 183.8 697.184 184.472 697.184C185.112 697.184 185.661 697.04 186.12 696.752C186.589 696.453 186.93 696.027 187.144 695.472L187.4 696.256C187.186 696.811 186.813 697.253 186.28 697.584C185.757 697.915 185.096 698.08 184.296 698.08ZM191.365 698V689.6H192.453V691.888L192.341 691.488C192.576 690.848 192.971 690.363 193.525 690.032C194.08 689.691 194.768 689.52 195.589 689.52V690.624C195.547 690.624 195.504 690.624 195.461 690.624C195.419 690.613 195.376 690.608 195.333 690.608C194.448 690.608 193.755 690.88 193.253 691.424C192.752 691.957 192.501 692.72 192.501 693.712V698H191.365ZM200.678 698.08C199.888 698.08 199.28 697.867 198.854 697.44C198.427 697.013 198.214 696.411 198.214 695.632V687.744H199.35V695.568C199.35 696.059 199.472 696.437 199.718 696.704C199.974 696.971 200.336 697.104 200.806 697.104C201.307 697.104 201.723 696.96 202.054 696.672L202.454 697.488C202.23 697.691 201.958 697.84 201.638 697.936C201.328 698.032 201.008 698.08 200.678 698.08ZM196.71 690.544V689.6H201.91V690.544H196.71ZM211.365 698.08C210.576 698.08 209.968 697.867 209.541 697.44C209.114 697.013 208.901 696.411 208.901 695.632V687.744H210.037V695.568C210.037 696.059 210.16 696.437 210.405 696.704C210.661 696.971 211.024 697.104 211.493 697.104C211.994 697.104 212.41 696.96 212.741 696.672L213.141 697.488C212.917 697.691 212.645 697.84 212.325 697.936C212.016 698.032 211.696 698.08 211.365 698.08ZM207.397 690.544V689.6H212.597V690.544H207.397ZM218.48 698.08C217.605 698.08 216.837 697.899 216.176 697.536C215.515 697.163 214.997 696.656 214.624 696.016C214.251 695.365 214.064 694.624 214.064 693.792C214.064 692.96 214.24 692.224 214.592 691.584C214.955 690.944 215.445 690.443 216.064 690.08C216.693 689.707 217.397 689.52 218.176 689.52C218.965 689.52 219.664 689.701 220.272 690.064C220.891 690.416 221.376 690.917 221.728 691.568C222.08 692.208 222.256 692.949 222.256 693.792C222.256 693.845 222.251 693.904 222.24 693.968C222.24 694.021 222.24 694.08 222.24 694.144H214.928V693.296H221.632L221.184 693.632C221.184 693.024 221.051 692.485 220.784 692.016C220.528 691.536 220.176 691.163 219.728 690.896C219.28 690.629 218.763 690.496 218.176 690.496C217.6 690.496 217.083 690.629 216.624 690.896C216.165 691.163 215.808 691.536 215.552 692.016C215.296 692.496 215.168 693.045 215.168 693.664V693.84C215.168 694.48 215.307 695.045 215.584 695.536C215.872 696.016 216.267 696.395 216.768 696.672C217.28 696.939 217.861 697.072 218.512 697.072C219.024 697.072 219.499 696.981 219.936 696.8C220.384 696.619 220.768 696.341 221.088 695.968L221.728 696.704C221.355 697.152 220.885 697.493 220.32 697.728C219.765 697.963 219.152 698.08 218.48 698.08ZM226.824 698.08C226.131 698.08 225.475 697.984 224.856 697.792C224.238 697.589 223.752 697.339 223.4 697.04L223.912 696.144C224.254 696.4 224.691 696.624 225.224 696.816C225.758 696.997 226.318 697.088 226.904 697.088C227.704 697.088 228.28 696.965 228.632 696.72C228.984 696.464 229.16 696.128 229.16 695.712C229.16 695.403 229.059 695.163 228.856 694.992C228.664 694.811 228.408 694.677 228.088 694.592C227.768 694.496 227.411 694.416 227.016 694.352C226.622 694.288 226.227 694.213 225.832 694.128C225.448 694.043 225.096 693.92 224.776 693.76C224.456 693.589 224.195 693.36 223.992 693.072C223.8 692.784 223.704 692.4 223.704 691.92C223.704 691.461 223.832 691.051 224.088 690.688C224.344 690.325 224.718 690.043 225.208 689.84C225.71 689.627 226.318 689.52 227.032 689.52C227.576 689.52 228.12 689.595 228.664 689.744C229.208 689.883 229.656 690.069 230.008 690.304L229.512 691.216C229.139 690.96 228.739 690.779 228.312 690.672C227.886 690.555 227.459 690.496 227.032 690.496C226.275 690.496 225.715 690.629 225.352 690.896C225 691.152 224.824 691.483 224.824 691.888C224.824 692.208 224.92 692.459 225.112 692.64C225.315 692.821 225.576 692.965 225.896 693.072C226.227 693.168 226.584 693.248 226.968 693.312C227.363 693.376 227.752 693.456 228.136 693.552C228.531 693.637 228.888 693.76 229.208 693.92C229.539 694.069 229.8 694.288 229.992 694.576C230.195 694.853 230.296 695.221 230.296 695.68C230.296 696.171 230.158 696.597 229.88 696.96C229.614 697.312 229.219 697.589 228.696 697.792C228.184 697.984 227.56 698.08 226.824 698.08ZM235.037 698.08C234.248 698.08 233.64 697.867 233.213 697.44C232.786 697.013 232.573 696.411 232.573 695.632V687.744H233.709V695.568C233.709 696.059 233.832 696.437 234.077 696.704C234.333 696.971 234.696 697.104 235.165 697.104C235.666 697.104 236.082 696.96 236.413 696.672L236.813 697.488C236.589 697.691 236.317 697.84 235.997 697.936C235.688 698.032 235.368 698.08 235.037 698.08ZM231.069 690.544V689.6H236.269V690.544H231.069Z" fill="black"/>
<path d="M36.864 503V479.768H32.48V477.08H44.736V479.768H40.48V503H36.864ZM51.6598 503.256C50.2944 503.256 49.2171 502.979 48.4278 502.424C47.6384 501.869 47.0731 501.08 46.7318 500.056C46.4118 499.032 46.2518 497.827 46.2518 496.44V491.064C46.2518 489.677 46.4118 488.472 46.7318 487.448C47.0731 486.424 47.6384 485.635 48.4278 485.08C49.2171 484.525 50.2944 484.248 51.6598 484.248C53.0251 484.248 54.0918 484.525 54.8598 485.08C55.6491 485.635 56.2038 486.424 56.5238 487.448C56.8651 488.472 57.0358 489.677 57.0358 491.064V496.44C57.0358 497.827 56.8651 499.032 56.5238 500.056C56.2038 501.08 55.6491 501.869 54.8598 502.424C54.0918 502.979 53.0251 503.256 51.6598 503.256ZM51.6598 500.728C52.3211 500.728 52.7798 500.536 53.0358 500.152C53.3131 499.768 53.4731 499.267 53.5158 498.648C53.5798 498.008 53.6118 497.347 53.6118 496.664V490.872C53.6118 490.168 53.5798 489.507 53.5158 488.888C53.4731 488.269 53.3131 487.768 53.0358 487.384C52.7798 486.979 52.3211 486.776 51.6598 486.776C50.9984 486.776 50.5291 486.979 50.2518 487.384C49.9744 487.768 49.8038 488.269 49.7398 488.888C49.6971 489.507 49.6758 490.168 49.6758 490.872V496.664C49.6758 497.347 49.6971 498.008 49.7398 498.648C49.8038 499.267 49.9744 499.768 50.2518 500.152C50.5291 500.536 50.9984 500.728 51.6598 500.728ZM68.566 503V487.032H66.358V484.504H68.566V483.544C68.566 482.307 68.694 481.283 68.95 480.472C69.2273 479.661 69.686 479.053 70.326 478.648C70.966 478.243 71.8407 478.04 72.95 478.04C73.2273 478.04 73.5153 478.051 73.814 478.072C74.134 478.093 74.4647 478.125 74.806 478.168V480.728C74.5927 480.685 74.3793 480.653 74.166 480.632C73.974 480.611 73.7927 480.6 73.622 480.6C72.9607 480.6 72.5233 480.781 72.31 481.144C72.0967 481.507 71.99 482.115 71.99 482.968V484.504H79.542V503H76.118V487.032H71.99V503H68.566ZM76.438 481.752V478.168H79.574V481.752H76.438ZM81.7568 503L85.9168 493.272L81.8528 484.504H85.1168L87.8368 490.36L90.2368 484.504H93.5968L89.3728 493.688L93.6608 503H90.3968L87.4848 496.728L84.9888 503H81.7568ZM102.659 507.64V505.016C103.491 505.016 104.152 504.973 104.643 504.888C105.133 504.824 105.485 504.685 105.699 504.472C105.912 504.28 106.019 504.003 106.019 503.64C106.019 503.448 105.944 503.021 105.795 502.36C105.645 501.699 105.485 500.995 105.315 500.248L101.603 484.504H105.059L107.555 498.328L109.955 484.504H113.411L108.995 504.024C108.803 504.92 108.451 505.624 107.939 506.136C107.427 506.669 106.765 507.053 105.955 507.288C105.165 507.523 104.205 507.64 103.075 507.64H102.659ZM120.566 503.256C119.201 503.256 118.123 502.979 117.334 502.424C116.545 501.869 115.979 501.08 115.638 500.056C115.318 499.032 115.158 497.827 115.158 496.44V491.064C115.158 489.677 115.318 488.472 115.638 487.448C115.979 486.424 116.545 485.635 117.334 485.08C118.123 484.525 119.201 484.248 120.566 484.248C121.931 484.248 122.998 484.525 123.766 485.08C124.555 485.635 125.11 486.424 125.43 487.448C125.771 488.472 125.942 489.677 125.942 491.064V496.44C125.942 497.827 125.771 499.032 125.43 500.056C125.11 501.08 124.555 501.869 123.766 502.424C122.998 502.979 121.931 503.256 120.566 503.256ZM120.566 500.728C121.227 500.728 121.686 500.536 121.942 500.152C122.219 499.768 122.379 499.267 122.422 498.648C122.486 498.008 122.518 497.347 122.518 496.664V490.872C122.518 490.168 122.486 489.507 122.422 488.888C122.379 488.269 122.219 487.768 121.942 487.384C121.686 486.979 121.227 486.776 120.566 486.776C119.905 486.776 119.435 486.979 119.158 487.384C118.881 487.768 118.71 488.269 118.646 488.888C118.603 489.507 118.582 490.168 118.582 490.872V496.664C118.582 497.347 118.603 498.008 118.646 498.648C118.71 499.267 118.881 499.768 119.158 500.152C119.435 500.536 119.905 500.728 120.566 500.728ZM131.728 503.256C131.002 503.256 130.437 503.064 130.032 502.68C129.626 502.296 129.338 501.816 129.168 501.24C129.018 500.664 128.944 500.077 128.944 499.48V484.504H132.368V498.456C132.368 499.117 132.464 499.64 132.656 500.024C132.848 500.387 133.242 500.568 133.84 500.568C134.224 500.568 134.618 500.461 135.024 500.248C135.45 500.013 135.856 499.736 136.24 499.416V484.504H139.664V503H136.24V501.176C135.642 501.752 134.96 502.243 134.192 502.648C133.445 503.053 132.624 503.256 131.728 503.256ZM143.262 503V484.504H146.686V487.128C147.368 485.997 148.051 485.24 148.734 484.856C149.416 484.472 150.099 484.28 150.782 484.28C150.867 484.28 150.942 484.28 151.006 484.28C151.091 484.28 151.198 484.291 151.326 484.312V488.088C151.07 487.981 150.771 487.896 150.43 487.832C150.11 487.747 149.779 487.704 149.438 487.704C148.904 487.704 148.414 487.832 147.966 488.088C147.539 488.323 147.112 488.792 146.686 489.496V503H143.262ZM162.903 503L159.927 484.504H162.743L164.663 498.136L167.127 484.504H169.751L172.215 498.072L174.135 484.504H176.951L173.879 503H170.999L168.471 489.944L165.975 503H162.903ZM182.9 503.256C182.174 503.256 181.534 503.053 180.98 502.648C180.425 502.221 179.988 501.688 179.668 501.048C179.348 500.387 179.188 499.693 179.188 498.968C179.188 497.816 179.38 496.845 179.764 496.056C180.148 495.267 180.67 494.605 181.332 494.072C182.014 493.517 182.793 493.037 183.668 492.632C184.564 492.227 185.502 491.832 186.484 491.448V490.136C186.484 489.389 186.441 488.771 186.356 488.28C186.27 487.789 186.089 487.427 185.812 487.192C185.556 486.936 185.161 486.808 184.628 486.808C184.158 486.808 183.774 486.915 183.476 487.128C183.198 487.341 182.996 487.651 182.868 488.056C182.74 488.44 182.676 488.899 182.676 489.432V490.36L179.284 490.232C179.326 488.184 179.796 486.68 180.692 485.72C181.588 484.739 182.974 484.248 184.852 484.248C186.686 484.248 187.988 484.749 188.756 485.752C189.524 486.755 189.908 488.205 189.908 490.104V498.552C189.908 499.128 189.918 499.683 189.94 500.216C189.982 500.749 190.025 501.251 190.068 501.72C190.132 502.168 190.185 502.595 190.228 503H187.092C187.028 502.659 186.942 502.232 186.836 501.72C186.75 501.187 186.686 500.707 186.644 500.28C186.43 501.005 186.014 501.688 185.396 502.328C184.798 502.947 183.966 503.256 182.9 503.256ZM184.244 500.312C184.585 500.312 184.905 500.216 185.204 500.024C185.502 499.832 185.769 499.619 186.004 499.384C186.238 499.128 186.398 498.925 186.484 498.776V493.528C185.95 493.827 185.449 494.125 184.98 494.424C184.51 494.723 184.094 495.043 183.732 495.384C183.39 495.704 183.113 496.077 182.9 496.504C182.708 496.909 182.612 497.379 182.612 497.912C182.612 498.659 182.75 499.245 183.028 499.672C183.305 500.099 183.71 500.312 184.244 500.312ZM193.517 503V477.08H196.941V503H193.517ZM200.829 503V477.08H204.253V503H200.829ZM212.942 503.256C211.491 503.256 210.371 502.979 209.582 502.424C208.792 501.848 208.238 501.016 207.918 499.928C207.619 498.819 207.47 497.464 207.47 495.864V491.64C207.47 489.997 207.63 488.632 207.95 487.544C208.27 486.456 208.824 485.635 209.614 485.08C210.424 484.525 211.534 484.248 212.942 484.248C214.499 484.248 215.64 484.568 216.366 485.208C217.112 485.848 217.603 486.776 217.838 487.992C218.072 489.187 218.19 490.627 218.19 492.312V493.816H210.894V497.528C210.894 498.275 210.958 498.883 211.086 499.352C211.235 499.821 211.459 500.173 211.758 500.408C212.078 500.621 212.483 500.728 212.974 500.728C213.486 500.728 213.87 500.611 214.126 500.376C214.403 500.12 214.584 499.768 214.67 499.32C214.776 498.851 214.83 498.307 214.83 497.688V496.568H218.158V497.272C218.158 499.128 217.763 500.589 216.974 501.656C216.184 502.723 214.84 503.256 212.942 503.256ZM210.894 491.96H214.83V490.296C214.83 489.528 214.787 488.888 214.702 488.376C214.616 487.843 214.435 487.448 214.158 487.192C213.902 486.915 213.486 486.776 212.91 486.776C212.355 486.776 211.928 486.904 211.63 487.16C211.352 487.416 211.16 487.853 211.054 488.472C210.947 489.069 210.894 489.901 210.894 490.968V491.96ZM226.219 503.256C225.259 503.256 224.48 503.075 223.883 502.712C223.307 502.349 222.88 501.837 222.603 501.176C222.347 500.515 222.219 499.736 222.219 498.84V486.776H220.267V484.504H222.219V479.096H225.643V484.504H228.619V486.776H225.643V498.616C225.643 499.341 225.76 499.864 225.995 500.184C226.229 500.483 226.677 500.632 227.339 500.632C227.509 500.632 227.701 500.621 227.915 500.6C228.149 500.579 228.373 500.557 228.587 500.536V503.064C228.16 503.128 227.765 503.171 227.403 503.192C227.04 503.235 226.645 503.256 226.219 503.256ZM240.591 503L237.615 484.504H240.431L242.351 498.136L244.815 484.504H247.439L249.903 498.072L251.823 484.504H254.639L251.567 503H248.687L246.159 489.944L243.663 503H240.591ZM262.379 503.256C260.929 503.256 259.809 502.979 259.019 502.424C258.23 501.848 257.675 501.016 257.355 499.928C257.057 498.819 256.907 497.464 256.907 495.864V491.64C256.907 489.997 257.067 488.632 257.387 487.544C257.707 486.456 258.262 485.635 259.051 485.08C259.862 484.525 260.971 484.248 262.379 484.248C263.937 484.248 265.078 484.568 265.803 485.208C266.55 485.848 267.041 486.776 267.275 487.992C267.51 489.187 267.627 490.627 267.627 492.312V493.816H260.331V497.528C260.331 498.275 260.395 498.883 260.523 499.352C260.673 499.821 260.897 500.173 261.195 500.408C261.515 500.621 261.921 500.728 262.411 500.728C262.923 500.728 263.307 500.611 263.563 500.376C263.841 500.12 264.022 499.768 264.107 499.32C264.214 498.851 264.267 498.307 264.267 497.688V496.568H267.595V497.272C267.595 499.128 267.201 500.589 266.411 501.656C265.622 502.723 264.278 503.256 262.379 503.256ZM260.331 491.96H264.267V490.296C264.267 489.528 264.225 488.888 264.139 488.376C264.054 487.843 263.873 487.448 263.595 487.192C263.339 486.915 262.923 486.776 262.347 486.776C261.793 486.776 261.366 486.904 261.067 487.16C260.79 487.416 260.598 487.853 260.491 488.472C260.385 489.069 260.331 489.901 260.331 490.968V491.96ZM278.137 503V477.08H281.561V486.424C282.179 485.827 282.873 485.315 283.641 484.888C284.409 484.461 285.262 484.248 286.201 484.248C286.926 484.248 287.481 484.44 287.865 484.824C288.27 485.208 288.547 485.688 288.697 486.264C288.867 486.84 288.953 487.427 288.953 488.024V503H285.529V489.016C285.529 488.355 285.433 487.843 285.241 487.48C285.049 487.117 284.654 486.936 284.057 486.936C283.651 486.936 283.225 487.053 282.777 487.288C282.35 487.523 281.945 487.811 281.561 488.152V503H278.137ZM295.619 503.256C294.893 503.256 294.253 503.053 293.699 502.648C293.144 502.221 292.707 501.688 292.387 501.048C292.067 500.387 291.907 499.693 291.907 498.968C291.907 497.816 292.099 496.845 292.483 496.056C292.867 495.267 293.389 494.605 294.051 494.072C294.733 493.517 295.512 493.037 296.387 492.632C297.283 492.227 298.221 491.832 299.203 491.448V490.136C299.203 489.389 299.16 488.771 299.075 488.28C298.989 487.789 298.808 487.427 298.531 487.192C298.275 486.936 297.88 486.808 297.347 486.808C296.877 486.808 296.493 486.915 296.195 487.128C295.917 487.341 295.715 487.651 295.587 488.056C295.459 488.44 295.395 488.899 295.395 489.432V490.36L292.003 490.232C292.045 488.184 292.515 486.68 293.411 485.72C294.307 484.739 295.693 484.248 297.571 484.248C299.405 484.248 300.707 484.749 301.475 485.752C302.243 486.755 302.627 488.205 302.627 490.104V498.552C302.627 499.128 302.637 499.683 302.659 500.216C302.701 500.749 302.744 501.251 302.787 501.72C302.851 502.168 302.904 502.595 302.947 503H299.811C299.747 502.659 299.661 502.232 299.555 501.72C299.469 501.187 299.405 500.707 299.363 500.28C299.149 501.005 298.733 501.688 298.115 502.328C297.517 502.947 296.685 503.256 295.619 503.256ZM296.963 500.312C297.304 500.312 297.624 500.216 297.923 500.024C298.221 499.832 298.488 499.619 298.723 499.384C298.957 499.128 299.117 498.925 299.203 498.776V493.528C298.669 493.827 298.168 494.125 297.699 494.424C297.229 494.723 296.813 495.043 296.451 495.384C296.109 495.704 295.832 496.077 295.619 496.504C295.427 496.909 295.331 497.379 295.331 497.912C295.331 498.659 295.469 499.245 295.747 499.672C296.024 500.099 296.429 500.312 296.963 500.312ZM308.316 503L304.668 484.504H308.124L310.396 499.384L312.7 484.504H316.028L312.508 503H308.316ZM323.348 503.256C321.897 503.256 320.777 502.979 319.988 502.424C319.199 501.848 318.644 501.016 318.324 499.928C318.025 498.819 317.876 497.464 317.876 495.864V491.64C317.876 489.997 318.036 488.632 318.356 487.544C318.676 486.456 319.231 485.635 320.02 485.08C320.831 484.525 321.94 484.248 323.348 484.248C324.905 484.248 326.047 484.568 326.772 485.208C327.519 485.848 328.009 486.776 328.244 487.992C328.479 489.187 328.596 490.627 328.596 492.312V493.816H321.3V497.528C321.3 498.275 321.364 498.883 321.492 499.352C321.641 499.821 321.865 500.173 322.164 500.408C322.484 500.621 322.889 500.728 323.38 500.728C323.892 500.728 324.276 500.611 324.532 500.376C324.809 500.12 324.991 499.768 325.076 499.32C325.183 498.851 325.236 498.307 325.236 497.688V496.568H328.564V497.272C328.564 499.128 328.169 500.589 327.38 501.656C326.591 502.723 325.247 503.256 323.348 503.256ZM321.3 491.96H325.236V490.296C325.236 489.528 325.193 488.888 325.108 488.376C325.023 487.843 324.841 487.448 324.564 487.192C324.308 486.915 323.892 486.776 323.316 486.776C322.761 486.776 322.335 486.904 322.036 487.16C321.759 487.416 321.567 487.853 321.46 488.472C321.353 489.069 321.3 489.901 321.3 490.968V491.96ZM343.937 503.256C342.977 503.256 342.199 503.075 341.601 502.712C341.025 502.349 340.599 501.837 340.321 501.176C340.065 500.515 339.937 499.736 339.937 498.84V486.776H337.985V484.504H339.937V479.096H343.361V484.504H346.337V486.776H343.361V498.616C343.361 499.341 343.479 499.864 343.713 500.184C343.948 500.483 344.396 500.632 345.057 500.632C345.228 500.632 345.42 500.621 345.633 500.6C345.868 500.579 346.092 500.557 346.305 500.536V503.064C345.879 503.128 345.484 503.171 345.121 503.192C344.759 503.235 344.364 503.256 343.937 503.256ZM353.941 503.256C352.576 503.256 351.498 502.979 350.709 502.424C349.92 501.869 349.354 501.08 349.013 500.056C348.693 499.032 348.533 497.827 348.533 496.44V491.064C348.533 489.677 348.693 488.472 349.013 487.448C349.354 486.424 349.92 485.635 350.709 485.08C351.498 484.525 352.576 484.248 353.941 484.248C355.306 484.248 356.373 484.525 357.141 485.08C357.93 485.635 358.485 486.424 358.805 487.448C359.146 488.472 359.317 489.677 359.317 491.064V496.44C359.317 497.827 359.146 499.032 358.805 500.056C358.485 501.08 357.93 501.869 357.141 502.424C356.373 502.979 355.306 503.256 353.941 503.256ZM353.941 500.728C354.602 500.728 355.061 500.536 355.317 500.152C355.594 499.768 355.754 499.267 355.797 498.648C355.861 498.008 355.893 497.347 355.893 496.664V490.872C355.893 490.168 355.861 489.507 355.797 488.888C355.754 488.269 355.594 487.768 355.317 487.384C355.061 486.979 354.602 486.776 353.941 486.776C353.28 486.776 352.81 486.979 352.533 487.384C352.256 487.768 352.085 488.269 352.021 488.888C351.978 489.507 351.957 490.168 351.957 490.872V496.664C351.957 497.347 351.978 498.008 352.021 498.648C352.085 499.267 352.256 499.768 352.533 500.152C352.81 500.536 353.28 500.728 353.941 500.728ZM34.048 550V524.08H37.472V550H34.048ZM46.1605 550.256C44.7098 550.256 43.5898 549.979 42.8005 549.424C42.0112 548.848 41.4565 548.016 41.1365 546.928C40.8378 545.819 40.6885 544.464 40.6885 542.864V538.64C40.6885 536.997 40.8485 535.632 41.1685 534.544C41.4885 533.456 42.0432 532.635 42.8325 532.08C43.6432 531.525 44.7525 531.248 46.1605 531.248C47.7178 531.248 48.8592 531.568 49.5845 532.208C50.3312 532.848 50.8218 533.776 51.0565 534.992C51.2912 536.187 51.4085 537.627 51.4085 539.312V540.816H44.1125V544.528C44.1125 545.275 44.1765 545.883 44.3045 546.352C44.4538 546.821 44.6778 547.173 44.9765 547.408C45.2965 547.621 45.7018 547.728 46.1925 547.728C46.7045 547.728 47.0885 547.611 47.3445 547.376C47.6218 547.12 47.8032 546.768 47.8885 546.32C47.9952 545.851 48.0485 545.307 48.0485 544.688V543.568H51.3765V544.272C51.3765 546.128 50.9818 547.589 50.1925 548.656C49.4032 549.723 48.0592 550.256 46.1605 550.256ZM44.1125 538.96H48.0485V537.296C48.0485 536.528 48.0058 535.888 47.9205 535.376C47.8352 534.843 47.6538 534.448 47.3765 534.192C47.1205 533.915 46.7045 533.776 46.1285 533.776C45.5738 533.776 45.1472 533.904 44.8485 534.16C44.5712 534.416 44.3792 534.853 44.2725 535.472C44.1658 536.069 44.1125 536.901 44.1125 537.968V538.96ZM57.8373 550.256C57.1119 550.256 56.4719 550.053 55.9173 549.648C55.3626 549.221 54.9253 548.688 54.6053 548.048C54.2853 547.387 54.1253 546.693 54.1253 545.968C54.1253 544.816 54.3173 543.845 54.7013 543.056C55.0853 542.267 55.6079 541.605 56.2693 541.072C56.9519 540.517 57.7306 540.037 58.6053 539.632C59.5013 539.227 60.4399 538.832 61.4213 538.448V537.136C61.4213 536.389 61.3786 535.771 61.2933 535.28C61.2079 534.789 61.0266 534.427 60.7493 534.192C60.4933 533.936 60.0986 533.808 59.5653 533.808C59.0959 533.808 58.7119 533.915 58.4133 534.128C58.1359 534.341 57.9333 534.651 57.8053 535.056C57.6773 535.44 57.6133 535.899 57.6133 536.432V537.36L54.2213 537.232C54.2639 535.184 54.7333 533.68 55.6293 532.72C56.5253 531.739 57.9119 531.248 59.7893 531.248C61.6239 531.248 62.9253 531.749 63.6933 532.752C64.4613 533.755 64.8453 535.205 64.8453 537.104V545.552C64.8453 546.128 64.8559 546.683 64.8773 547.216C64.9199 547.749 64.9626 548.251 65.0053 548.72C65.0693 549.168 65.1226 549.595 65.1653 550H62.0293C61.9653 549.659 61.8799 549.232 61.7733 548.72C61.6879 548.187 61.6239 547.707 61.5813 547.28C61.3679 548.005 60.9519 548.688 60.3333 549.328C59.7359 549.947 58.9039 550.256 57.8373 550.256ZM59.1813 547.312C59.5226 547.312 59.8426 547.216 60.1413 547.024C60.4399 546.832 60.7066 546.619 60.9413 546.384C61.1759 546.128 61.3359 545.925 61.4213 545.776V540.528C60.8879 540.827 60.3866 541.125 59.9173 541.424C59.4479 541.723 59.0319 542.043 58.6693 542.384C58.3279 542.704 58.0506 543.077 57.8373 543.504C57.6453 543.909 57.5493 544.379 57.5493 544.912C57.5493 545.659 57.6879 546.245 57.9653 546.672C58.2426 547.099 58.6479 547.312 59.1813 547.312ZM68.2303 550V531.504H71.6543V534.128C72.3369 532.997 73.0196 532.24 73.7023 531.856C74.3849 531.472 75.0676 531.28 75.7503 531.28C75.8356 531.28 75.9103 531.28 75.9743 531.28C76.0596 531.28 76.1663 531.291 76.2943 531.312V535.088C76.0383 534.981 75.7396 534.896 75.3983 534.832C75.0783 534.747 74.7476 534.704 74.4062 534.704C73.8729 534.704 73.3823 534.832 72.9343 535.088C72.5076 535.323 72.0809 535.792 71.6543 536.496V550H68.2303ZM78.4155 550V531.504H81.8395V533.328C82.4582 532.752 83.1408 532.261 83.8875 531.856C84.6342 531.451 85.4555 531.248 86.3515 531.248C87.0982 531.248 87.6635 531.44 88.0475 531.824C88.4528 532.208 88.7302 532.688 88.8795 533.264C89.0502 533.84 89.1355 534.427 89.1355 535.024V550H85.7115V536.016C85.7115 535.355 85.6155 534.843 85.4235 534.48C85.2315 534.117 84.8368 533.936 84.2395 533.936C83.8555 533.936 83.4502 534.053 83.0235 534.288C82.6182 534.501 82.2235 534.768 81.8395 535.088V550H78.4155ZM101.935 550L98.9585 531.504H101.775L103.695 545.136L106.159 531.504H108.783L111.247 545.072L113.167 531.504H115.983L112.911 550H110.031L107.503 536.944L105.007 550H101.935ZM118.699 550V524.08H122.123V533.424C122.742 532.827 123.435 532.315 124.203 531.888C124.971 531.461 125.824 531.248 126.763 531.248C127.488 531.248 128.043 531.44 128.427 531.824C128.832 532.208 129.11 532.688 129.259 533.264C129.43 533.84 129.515 534.427 129.515 535.024V550H126.091V536.016C126.091 535.355 125.995 534.843 125.803 534.48C125.611 534.117 125.216 533.936 124.619 533.936C124.214 533.936 123.787 534.053 123.339 534.288C122.912 534.523 122.507 534.811 122.123 535.152V550H118.699ZM136.181 550.256C135.456 550.256 134.816 550.053 134.261 549.648C133.706 549.221 133.269 548.688 132.949 548.048C132.629 547.387 132.469 546.693 132.469 545.968C132.469 544.816 132.661 543.845 133.045 543.056C133.429 542.267 133.952 541.605 134.613 541.072C135.296 540.517 136.074 540.037 136.949 539.632C137.845 539.227 138.784 538.832 139.765 538.448V537.136C139.765 536.389 139.722 535.771 139.637 535.28C139.552 534.789 139.37 534.427 139.093 534.192C138.837 533.936 138.442 533.808 137.909 533.808C137.44 533.808 137.056 533.915 136.757 534.128C136.48 534.341 136.277 534.651 136.149 535.056C136.021 535.44 135.957 535.899 135.957 536.432V537.36L132.565 537.232C132.608 535.184 133.077 533.68 133.973 532.72C134.869 531.739 136.256 531.248 138.133 531.248C139.968 531.248 141.269 531.749 142.037 532.752C142.805 533.755 143.189 535.205 143.189 537.104V545.552C143.189 546.128 143.2 546.683 143.221 547.216C143.264 547.749 143.306 548.251 143.349 548.72C143.413 549.168 143.466 549.595 143.509 550H140.373C140.309 549.659 140.224 549.232 140.117 548.72C140.032 548.187 139.968 547.707 139.925 547.28C139.712 548.005 139.296 548.688 138.677 549.328C138.08 549.947 137.248 550.256 136.181 550.256ZM137.525 547.312C137.866 547.312 138.186 547.216 138.485 547.024C138.784 546.832 139.05 546.619 139.285 546.384C139.52 546.128 139.68 545.925 139.765 545.776V540.528C139.232 540.827 138.73 541.125 138.261 541.424C137.792 541.723 137.376 542.043 137.013 542.384C136.672 542.704 136.394 543.077 136.181 543.504C135.989 543.909 135.893 544.379 135.893 544.912C135.893 545.659 136.032 546.245 136.309 546.672C136.586 547.099 136.992 547.312 137.525 547.312ZM151.156 550.256C150.196 550.256 149.417 550.075 148.82 549.712C148.244 549.349 147.817 548.837 147.54 548.176C147.284 547.515 147.156 546.736 147.156 545.84V533.776H145.204V531.504H147.156V526.096H150.58V531.504H153.556V533.776H150.58V545.616C150.58 546.341 150.697 546.864 150.932 547.184C151.167 547.483 151.615 547.632 152.276 547.632C152.447 547.632 152.639 547.621 152.852 547.6C153.087 547.579 153.311 547.557 153.524 547.536V550.064C153.097 550.128 152.703 550.171 152.34 550.192C151.977 550.235 151.583 550.256 151.156 550.256ZM163.448 549.968V524.048H166.872V539.504L171.864 531.504H175.448L171.096 538.736L175.32 550H171.896L168.44 540.528L166.872 542.896V549.968H163.448ZM177.327 550V531.504H180.751V550H177.327ZM177.327 528.752V525.168H180.751V528.752H177.327ZM184.416 550V531.504H187.84V533.328C188.458 532.752 189.141 532.261 189.888 531.856C190.634 531.451 191.456 531.248 192.352 531.248C193.098 531.248 193.664 531.44 194.048 531.824C194.453 532.208 194.73 532.688 194.88 533.264C195.05 533.84 195.136 534.427 195.136 535.024V550H191.712V536.016C191.712 535.355 191.616 534.843 191.424 534.48C191.231 534.117 190.837 533.936 190.24 533.936C189.856 533.936 189.45 534.053 189.024 534.288C188.618 534.501 188.224 534.768 187.84 535.088V550H184.416ZM202.766 550.256C201.209 550.256 200.046 549.691 199.278 548.56C198.51 547.408 198.126 545.467 198.126 542.736V539.152C198.126 537.744 198.243 536.443 198.478 535.248C198.713 534.032 199.15 533.061 199.79 532.336C200.451 531.611 201.411 531.248 202.67 531.248C203.289 531.248 203.854 531.387 204.366 531.664C204.878 531.941 205.337 532.283 205.742 532.688V524.08H209.166V550H205.742V548.816C205.337 549.243 204.889 549.595 204.398 549.872C203.929 550.128 203.385 550.256 202.766 550.256ZM203.63 547.568C203.95 547.568 204.291 547.515 204.654 547.408C205.017 547.28 205.379 547.099 205.742 546.864V534.736C205.443 534.523 205.113 534.341 204.75 534.192C204.387 534.021 203.993 533.936 203.566 533.936C202.777 533.936 202.243 534.32 201.966 535.088C201.689 535.835 201.55 536.741 201.55 537.808V543.024C201.55 543.877 201.593 544.656 201.678 545.36C201.785 546.043 201.987 546.587 202.286 546.992C202.585 547.376 203.033 547.568 203.63 547.568ZM219.659 554.64V552.016C220.491 552.016 221.152 551.973 221.643 551.888C222.133 551.824 222.485 551.685 222.699 551.472C222.912 551.28 223.019 551.003 223.019 550.64C223.019 550.448 222.944 550.021 222.795 549.36C222.645 548.699 222.485 547.995 222.315 547.248L218.603 531.504H222.059L224.555 545.328L226.955 531.504H230.411L225.995 551.024C225.803 551.92 225.451 552.624 224.939 553.136C224.427 553.669 223.765 554.053 222.955 554.288C222.165 554.523 221.205 554.64 220.075 554.64H219.659ZM237.566 550.256C236.201 550.256 235.123 549.979 234.334 549.424C233.545 548.869 232.979 548.08 232.638 547.056C232.318 546.032 232.158 544.827 232.158 543.44V538.064C232.158 536.677 232.318 535.472 232.638 534.448C232.979 533.424 233.545 532.635 234.334 532.08C235.123 531.525 236.201 531.248 237.566 531.248C238.931 531.248 239.998 531.525 240.766 532.08C241.555 532.635 242.11 533.424 242.43 534.448C242.771 535.472 242.942 536.677 242.942 538.064V543.44C242.942 544.827 242.771 546.032 242.43 547.056C242.11 548.08 241.555 548.869 240.766 549.424C239.998 549.979 238.931 550.256 237.566 550.256ZM237.566 547.728C238.227 547.728 238.686 547.536 238.942 547.152C239.219 546.768 239.379 546.267 239.422 545.648C239.486 545.008 239.518 544.347 239.518 543.664V537.872C239.518 537.168 239.486 536.507 239.422 535.888C239.379 535.269 239.219 534.768 238.942 534.384C238.686 533.979 238.227 533.776 237.566 533.776C236.905 533.776 236.435 533.979 236.158 534.384C235.881 534.768 235.71 535.269 235.646 535.888C235.603 536.507 235.582 537.168 235.582 537.872V543.664C235.582 544.347 235.603 545.008 235.646 545.648C235.71 546.267 235.881 546.768 236.158 547.152C236.435 547.536 236.905 547.728 237.566 547.728ZM248.728 550.256C248.002 550.256 247.437 550.064 247.032 549.68C246.626 549.296 246.338 548.816 246.168 548.24C246.018 547.664 245.944 547.077 245.944 546.48V531.504H249.368V545.456C249.368 546.117 249.464 546.64 249.656 547.024C249.848 547.387 250.242 547.568 250.84 547.568C251.224 547.568 251.618 547.461 252.024 547.248C252.45 547.013 252.856 546.736 253.24 546.416V531.504H256.664V550H253.24V548.176C252.642 548.752 251.96 549.243 251.192 549.648C250.445 550.053 249.624 550.256 248.728 550.256ZM267.574 550V524.08H270.998V533.424C271.617 532.827 272.31 532.315 273.078 531.888C273.846 531.461 274.699 531.248 275.638 531.248C276.363 531.248 276.918 531.44 277.302 531.824C277.707 532.208 277.985 532.688 278.134 533.264C278.305 533.84 278.39 534.427 278.39 535.024V550H274.966V536.016C274.966 535.355 274.87 534.843 274.678 534.48C274.486 534.117 274.091 533.936 273.494 533.936C273.089 533.936 272.662 534.053 272.214 534.288C271.787 534.523 271.382 534.811 270.998 535.152V550H267.574ZM285.056 550.256C284.331 550.256 283.691 550.053 283.136 549.648C282.581 549.221 282.144 548.688 281.824 548.048C281.504 547.387 281.344 546.693 281.344 545.968C281.344 544.816 281.536 543.845 281.92 543.056C282.304 542.267 282.827 541.605 283.488 541.072C284.171 540.517 284.949 540.037 285.824 539.632C286.72 539.227 287.659 538.832 288.64 538.448V537.136C288.64 536.389 288.597 535.771 288.512 535.28C288.427 534.789 288.245 534.427 287.968 534.192C287.712 533.936 287.317 533.808 286.784 533.808C286.315 533.808 285.931 533.915 285.632 534.128C285.355 534.341 285.152 534.651 285.024 535.056C284.896 535.44 284.832 535.899 284.832 536.432V537.36L281.44 537.232C281.483 535.184 281.952 533.68 282.848 532.72C283.744 531.739 285.131 531.248 287.008 531.248C288.843 531.248 290.144 531.749 290.912 532.752C291.68 533.755 292.064 535.205 292.064 537.104V545.552C292.064 546.128 292.075 546.683 292.096 547.216C292.139 547.749 292.181 548.251 292.224 548.72C292.288 549.168 292.341 549.595 292.384 550H289.248C289.184 549.659 289.099 549.232 288.992 548.72C288.907 548.187 288.843 547.707 288.8 547.28C288.587 548.005 288.171 548.688 287.552 549.328C286.955 549.947 286.123 550.256 285.056 550.256ZM286.4 547.312C286.741 547.312 287.061 547.216 287.36 547.024C287.659 546.832 287.925 546.619 288.16 546.384C288.395 546.128 288.555 545.925 288.64 545.776V540.528C288.107 540.827 287.605 541.125 287.136 541.424C286.667 541.723 286.251 542.043 285.888 542.384C285.547 542.704 285.269 543.077 285.056 543.504C284.864 543.909 284.768 544.379 284.768 544.912C284.768 545.659 284.907 546.245 285.184 546.672C285.461 547.099 285.867 547.312 286.4 547.312ZM297.753 550L294.105 531.504H297.561L299.833 546.384L302.137 531.504H305.465L301.945 550H297.753ZM312.786 550.256C311.335 550.256 310.215 549.979 309.426 549.424C308.636 548.848 308.082 548.016 307.762 546.928C307.463 545.819 307.314 544.464 307.314 542.864V538.64C307.314 536.997 307.474 535.632 307.794 534.544C308.114 533.456 308.668 532.635 309.458 532.08C310.268 531.525 311.378 531.248 312.786 531.248C314.343 531.248 315.484 531.568 316.21 532.208C316.956 532.848 317.447 533.776 317.682 534.992C317.916 536.187 318.034 537.627 318.034 539.312V540.816H310.738V544.528C310.738 545.275 310.802 545.883 310.93 546.352C311.079 546.821 311.303 547.173 311.602 547.408C311.922 547.621 312.327 547.728 312.818 547.728C313.33 547.728 313.714 547.611 313.97 547.376C314.247 547.12 314.428 546.768 314.514 546.32C314.62 545.851 314.674 545.307 314.674 544.688V543.568H318.002V544.272C318.002 546.128 317.607 547.589 316.818 548.656C316.028 549.723 314.684 550.256 312.786 550.256ZM310.738 538.96H314.674V537.296C314.674 536.528 314.631 535.888 314.546 535.376C314.46 534.843 314.279 534.448 314.002 534.192C313.746 533.915 313.33 533.776 312.754 533.776C312.199 533.776 311.772 533.904 311.474 534.16C311.196 534.416 311.004 534.853 310.898 535.472C310.791 536.069 310.738 536.901 310.738 537.968V538.96ZM320.974 550V546.192H324.398V550H320.974Z" fill="black"/>
<path d="M32.032 592L37.152 580.8H38.32L43.44 592H42.192L37.488 581.488H37.968L33.264 592H32.032ZM34.048 589.008L34.4 588.048H40.912L41.264 589.008H34.048ZM49.3408 583.52C50.0234 583.52 50.6208 583.653 51.1328 583.92C51.6554 584.176 52.0608 584.571 52.3488 585.104C52.6474 585.637 52.7968 586.309 52.7968 587.12V592H51.6608V587.232C51.6608 586.347 51.4368 585.68 50.9888 585.232C50.5514 584.773 49.9328 584.544 49.1328 584.544C48.5354 584.544 48.0128 584.667 47.5648 584.912C47.1274 585.147 46.7861 585.493 46.5408 585.952C46.3061 586.4 46.1888 586.944 46.1888 587.584V592H45.0528V583.6H46.1408V585.904L45.9648 585.472C46.2314 584.864 46.6581 584.389 47.2448 584.048C47.8314 583.696 48.5301 583.52 49.3408 583.52ZM58.1213 592.08C57.4279 592.08 56.7719 591.984 56.1533 591.792C55.5346 591.589 55.0493 591.339 54.6973 591.04L55.2093 590.144C55.5506 590.4 55.9879 590.624 56.5213 590.816C57.0546 590.997 57.6146 591.088 58.2013 591.088C59.0013 591.088 59.5773 590.965 59.9293 590.72C60.2813 590.464 60.4573 590.128 60.4573 589.712C60.4573 589.403 60.3559 589.163 60.1533 588.992C59.9613 588.811 59.7053 588.677 59.3853 588.592C59.0653 588.496 58.7079 588.416 58.3133 588.352C57.9186 588.288 57.5239 588.213 57.1293 588.128C56.7453 588.043 56.3933 587.92 56.0733 587.76C55.7533 587.589 55.4919 587.36 55.2893 587.072C55.0973 586.784 55.0013 586.4 55.0013 585.92C55.0013 585.461 55.1293 585.051 55.3853 584.688C55.6413 584.325 56.0146 584.043 56.5053 583.84C57.0066 583.627 57.6146 583.52 58.3293 583.52C58.8733 583.52 59.4173 583.595 59.9613 583.744C60.5053 583.883 60.9533 584.069 61.3053 584.304L60.8093 585.216C60.4359 584.96 60.0359 584.779 59.6093 584.672C59.1826 584.555 58.7559 584.496 58.3293 584.496C57.5719 584.496 57.0119 584.629 56.6493 584.896C56.2973 585.152 56.1213 585.483 56.1213 585.888C56.1213 586.208 56.2173 586.459 56.4093 586.64C56.6119 586.821 56.8733 586.965 57.1933 587.072C57.5239 587.168 57.8813 587.248 58.2653 587.312C58.6599 587.376 59.0493 587.456 59.4333 587.552C59.8279 587.637 60.1853 587.76 60.5053 587.92C60.8359 588.069 61.0973 588.288 61.2893 588.576C61.4919 588.853 61.5933 589.221 61.5933 589.68C61.5933 590.171 61.4546 590.597 61.1773 590.96C60.9106 591.312 60.5159 591.589 59.9933 591.792C59.4813 591.984 58.8573 592.08 58.1213 592.08ZM65.2335 592L62.0655 583.6H63.1535L66.0335 591.392H65.5375L68.4975 583.6H69.4735L72.4015 591.392H71.9055L74.8335 583.6H75.8735L72.6895 592H71.6175L68.8015 584.672H69.1375L66.3055 592H65.2335ZM80.9176 592.08C80.043 592.08 79.275 591.899 78.6136 591.536C77.9523 591.163 77.435 590.656 77.0616 590.016C76.6883 589.365 76.5016 588.624 76.5016 587.792C76.5016 586.96 76.6776 586.224 77.0296 585.584C77.3923 584.944 77.883 584.443 78.5016 584.08C79.131 583.707 79.835 583.52 80.6136 583.52C81.403 583.52 82.1016 583.701 82.7096 584.064C83.3283 584.416 83.8136 584.917 84.1656 585.568C84.5176 586.208 84.6936 586.949 84.6936 587.792C84.6936 587.845 84.6883 587.904 84.6776 587.968C84.6776 588.021 84.6776 588.08 84.6776 588.144H77.3656V587.296H84.0696L83.6216 587.632C83.6216 587.024 83.4883 586.485 83.2216 586.016C82.9656 585.536 82.6136 585.163 82.1656 584.896C81.7176 584.629 81.2003 584.496 80.6136 584.496C80.0376 584.496 79.5203 584.629 79.0616 584.896C78.603 585.163 78.2456 585.536 77.9896 586.016C77.7336 586.496 77.6056 587.045 77.6056 587.664V587.84C77.6056 588.48 77.7443 589.045 78.0216 589.536C78.3096 590.016 78.7043 590.395 79.2056 590.672C79.7176 590.939 80.299 591.072 80.9496 591.072C81.4616 591.072 81.9363 590.981 82.3736 590.8C82.8216 590.619 83.2056 590.341 83.5256 589.968L84.1656 590.704C83.7923 591.152 83.323 591.493 82.7576 591.728C82.203 591.963 81.5896 592.08 80.9176 592.08ZM87.0059 592V583.6H88.0939V585.888L87.9819 585.488C88.2165 584.848 88.6112 584.363 89.1659 584.032C89.7205 583.691 90.4085 583.52 91.2299 583.52V584.624C91.1872 584.624 91.1445 584.624 91.1019 584.624C91.0592 584.613 91.0165 584.608 90.9739 584.608C90.0885 584.608 89.3952 584.88 88.8939 585.424C88.3925 585.957 88.1419 586.72 88.1419 587.712V592H87.0059ZM102.879 592V590.144L102.831 589.84V586.736C102.831 586.021 102.629 585.472 102.223 585.088C101.829 584.704 101.237 584.512 100.447 584.512C99.9033 584.512 99.3859 584.603 98.8953 584.784C98.4046 584.965 97.9886 585.205 97.6473 585.504L97.1353 584.656C97.5619 584.293 98.0739 584.016 98.6713 583.824C99.2686 583.621 99.8979 583.52 100.559 583.52C101.647 583.52 102.485 583.792 103.071 584.336C103.669 584.869 103.967 585.685 103.967 586.784V592H102.879ZM99.9833 592.08C99.3539 592.08 98.8046 591.979 98.3353 591.776C97.8766 591.563 97.5246 591.275 97.2793 590.912C97.0339 590.539 96.9113 590.112 96.9113 589.632C96.9113 589.195 97.0126 588.8 97.2153 588.448C97.4286 588.085 97.7699 587.797 98.2393 587.584C98.7193 587.36 99.3593 587.248 100.159 587.248H103.055V588.096H100.191C99.3806 588.096 98.8153 588.24 98.4953 588.528C98.1859 588.816 98.0312 589.173 98.0312 589.6C98.0312 590.08 98.2179 590.464 98.5913 590.752C98.9646 591.04 99.4873 591.184 100.159 591.184C100.799 591.184 101.349 591.04 101.807 590.752C102.277 590.453 102.618 590.027 102.831 589.472L103.087 590.256C102.874 590.811 102.501 591.253 101.967 591.584C101.445 591.915 100.783 592.08 99.9833 592.08ZM111.432 592V582.544C111.432 581.797 111.651 581.195 112.088 580.736C112.526 580.277 113.155 580.048 113.976 580.048C114.296 580.048 114.606 580.091 114.904 580.176C115.203 580.261 115.454 580.395 115.656 580.576L115.272 581.424C115.112 581.285 114.926 581.184 114.712 581.12C114.499 581.045 114.27 581.008 114.024 581.008C113.544 581.008 113.176 581.141 112.92 581.408C112.664 581.675 112.536 582.069 112.536 582.592V583.872L112.568 584.4V592H111.432ZM109.928 584.544V583.6H115.128V584.544H109.928ZM120.09 592.08C119.215 592.08 118.447 591.899 117.786 591.536C117.124 591.163 116.607 590.656 116.234 590.016C115.86 589.365 115.674 588.624 115.674 587.792C115.674 586.96 115.85 586.224 116.202 585.584C116.564 584.944 117.055 584.443 117.674 584.08C118.303 583.707 119.007 583.52 119.786 583.52C120.575 583.52 121.274 583.701 121.882 584.064C122.5 584.416 122.986 584.917 123.338 585.568C123.69 586.208 123.866 586.949 123.866 587.792C123.866 587.845 123.86 587.904 123.85 587.968C123.85 588.021 123.85 588.08 123.85 588.144H116.538V587.296H123.242L122.794 587.632C122.794 587.024 122.66 586.485 122.394 586.016C122.138 585.536 121.786 585.163 121.338 584.896C120.89 584.629 120.372 584.496 119.786 584.496C119.21 584.496 118.692 584.629 118.234 584.896C117.775 585.163 117.418 585.536 117.162 586.016C116.906 586.496 116.778 587.045 116.778 587.664V587.84C116.778 588.48 116.916 589.045 117.194 589.536C117.482 590.016 117.876 590.395 118.378 590.672C118.89 590.939 119.471 591.072 120.122 591.072C120.634 591.072 121.108 590.981 121.546 590.8C121.994 590.619 122.378 590.341 122.698 589.968L123.338 590.704C122.964 591.152 122.495 591.493 121.93 591.728C121.375 591.963 120.762 592.08 120.09 592.08ZM127.734 592L124.566 583.6H125.654L128.534 591.392H128.038L130.998 583.6H131.974L134.902 591.392H134.406L137.334 583.6H138.374L135.19 592H134.118L131.302 584.672H131.638L128.806 592H127.734ZM147.616 592.08C146.816 592.08 146.096 591.899 145.456 591.536C144.826 591.173 144.33 590.672 143.968 590.032C143.605 589.392 143.424 588.645 143.424 587.792C143.424 586.949 143.605 586.208 143.968 585.568C144.33 584.917 144.826 584.416 145.456 584.064C146.096 583.701 146.816 583.52 147.616 583.52C148.362 583.52 149.024 583.685 149.6 584.016C150.186 584.347 150.65 584.832 150.992 585.472C151.333 586.101 151.503 586.875 151.503 587.792C151.503 588.709 151.328 589.488 150.976 590.128C150.634 590.757 150.17 591.243 149.584 591.584C149.008 591.915 148.352 592.08 147.616 592.08ZM147.696 591.072C148.293 591.072 148.826 590.939 149.296 590.672C149.776 590.395 150.149 590.011 150.416 589.52C150.693 589.019 150.832 588.443 150.832 587.792C150.832 587.141 150.693 586.571 150.416 586.08C150.149 585.589 149.776 585.205 149.296 584.928C148.826 584.651 148.293 584.512 147.696 584.512C147.109 584.512 146.581 584.651 146.112 584.928C145.642 585.205 145.269 585.589 144.992 586.08C144.714 586.571 144.576 587.141 144.576 587.792C144.576 588.443 144.714 589.019 144.992 589.52C145.269 590.011 145.642 590.395 146.112 590.672C146.581 590.939 147.109 591.072 147.696 591.072ZM150.816 595.104V589.504L150.976 587.808L150.864 586.128V583.6H151.952V595.104H150.816ZM158.587 592.08C157.873 592.08 157.249 591.947 156.715 591.68C156.182 591.413 155.766 591.013 155.467 590.48C155.179 589.947 155.035 589.28 155.035 588.48V583.6H156.171V588.352C156.171 589.248 156.39 589.925 156.827 590.384C157.275 590.832 157.899 591.056 158.699 591.056C159.286 591.056 159.793 590.939 160.219 590.704C160.657 590.459 160.987 590.107 161.211 589.648C161.446 589.189 161.563 588.64 161.563 588V583.6H162.699V592H161.611V589.696L161.787 590.112C161.521 590.731 161.105 591.216 160.539 591.568C159.985 591.909 159.334 592.08 158.587 592.08ZM169.433 592.08C168.559 592.08 167.791 591.899 167.129 591.536C166.468 591.163 165.951 590.656 165.577 590.016C165.204 589.365 165.017 588.624 165.017 587.792C165.017 586.96 165.193 586.224 165.545 585.584C165.908 584.944 166.399 584.443 167.017 584.08C167.647 583.707 168.351 583.52 169.129 583.52C169.919 583.52 170.617 583.701 171.225 584.064C171.844 584.416 172.329 584.917 172.681 585.568C173.033 586.208 173.209 586.949 173.209 587.792C173.209 587.845 173.204 587.904 173.193 587.968C173.193 588.021 173.193 588.08 173.193 588.144H165.881V587.296H172.585L172.137 587.632C172.137 587.024 172.004 586.485 171.737 586.016C171.481 585.536 171.129 585.163 170.681 584.896C170.233 584.629 169.716 584.496 169.129 584.496C168.553 584.496 168.036 584.629 167.577 584.896C167.119 585.163 166.761 585.536 166.505 586.016C166.249 586.496 166.121 587.045 166.121 587.664V587.84C166.121 588.48 166.26 589.045 166.537 589.536C166.825 590.016 167.22 590.395 167.721 590.672C168.233 590.939 168.815 591.072 169.465 591.072C169.977 591.072 170.452 590.981 170.889 590.8C171.337 590.619 171.721 590.341 172.041 589.968L172.681 590.704C172.308 591.152 171.839 591.493 171.273 591.728C170.719 591.963 170.105 592.08 169.433 592.08ZM177.778 592.08C177.084 592.08 176.428 591.984 175.81 591.792C175.191 591.589 174.706 591.339 174.354 591.04L174.866 590.144C175.207 590.4 175.644 590.624 176.178 590.816C176.711 590.997 177.271 591.088 177.858 591.088C178.658 591.088 179.234 590.965 179.586 590.72C179.938 590.464 180.114 590.128 180.114 589.712C180.114 589.403 180.012 589.163 179.81 588.992C179.618 588.811 179.362 588.677 179.042 588.592C178.722 588.496 178.364 588.416 177.97 588.352C177.575 588.288 177.18 588.213 176.786 588.128C176.402 588.043 176.05 587.92 175.73 587.76C175.41 587.589 175.148 587.36 174.946 587.072C174.754 586.784 174.658 586.4 174.658 585.92C174.658 585.461 174.786 585.051 175.042 584.688C175.298 584.325 175.671 584.043 176.162 583.84C176.663 583.627 177.271 583.52 177.986 583.52C178.53 583.52 179.074 583.595 179.618 583.744C180.162 583.883 180.61 584.069 180.962 584.304L180.466 585.216C180.092 584.96 179.692 584.779 179.266 584.672C178.839 584.555 178.412 584.496 177.986 584.496C177.228 584.496 176.668 584.629 176.306 584.896C175.954 585.152 175.778 585.483 175.778 585.888C175.778 586.208 175.874 586.459 176.066 586.64C176.268 586.821 176.53 586.965 176.85 587.072C177.18 587.168 177.538 587.248 177.922 587.312C178.316 587.376 178.706 587.456 179.09 587.552C179.484 587.637 179.842 587.76 180.162 587.92C180.492 588.069 180.754 588.288 180.946 588.576C181.148 588.853 181.25 589.221 181.25 589.68C181.25 590.171 181.111 590.597 180.834 590.96C180.567 591.312 180.172 591.589 179.65 591.792C179.138 591.984 178.514 592.08 177.778 592.08ZM185.99 592.08C185.201 592.08 184.593 591.867 184.166 591.44C183.739 591.013 183.526 590.411 183.526 589.632V581.744H184.662V589.568C184.662 590.059 184.785 590.437 185.03 590.704C185.286 590.971 185.649 591.104 186.118 591.104C186.619 591.104 187.035 590.96 187.366 590.672L187.766 591.488C187.542 591.691 187.27 591.84 186.95 591.936C186.641 592.032 186.321 592.08 185.99 592.08ZM182.022 584.544V583.6H187.222V584.544H182.022ZM189.834 592V583.6H190.97V592H189.834ZM190.41 581.744C190.175 581.744 189.978 581.664 189.818 581.504C189.658 581.344 189.578 581.152 189.578 580.928C189.578 580.704 189.658 580.517 189.818 580.368C189.978 580.208 190.175 580.128 190.41 580.128C190.645 580.128 190.842 580.203 191.002 580.352C191.162 580.501 191.242 580.688 191.242 580.912C191.242 581.147 191.162 581.344 191.002 581.504C190.853 581.664 190.655 581.744 190.41 581.744ZM197.555 592.08C196.744 592.08 196.014 591.899 195.363 591.536C194.723 591.163 194.216 590.656 193.843 590.016C193.47 589.365 193.283 588.624 193.283 587.792C193.283 586.949 193.47 586.208 193.843 585.568C194.216 584.928 194.723 584.427 195.363 584.064C196.003 583.701 196.734 583.52 197.555 583.52C198.387 583.52 199.123 583.701 199.763 584.064C200.414 584.427 200.92 584.928 201.283 585.568C201.656 586.208 201.843 586.949 201.843 587.792C201.843 588.624 201.656 589.365 201.283 590.016C200.92 590.656 200.414 591.163 199.763 591.536C199.112 591.899 198.376 592.08 197.555 592.08ZM197.555 591.072C198.163 591.072 198.702 590.939 199.171 590.672C199.64 590.395 200.008 590.011 200.275 589.52C200.552 589.019 200.691 588.443 200.691 587.792C200.691 587.131 200.552 586.555 200.275 586.064C200.008 585.573 199.64 585.195 199.171 584.928C198.702 584.651 198.168 584.512 197.571 584.512C196.974 584.512 196.44 584.651 195.971 584.928C195.502 585.195 195.128 585.573 194.851 586.064C194.574 586.555 194.435 587.131 194.435 587.792C194.435 588.443 194.574 589.019 194.851 589.52C195.128 590.011 195.502 590.395 195.971 590.672C196.44 590.939 196.968 591.072 197.555 591.072ZM208.45 583.52C209.133 583.52 209.73 583.653 210.242 583.92C210.765 584.176 211.17 584.571 211.458 585.104C211.757 585.637 211.906 586.309 211.906 587.12V592H210.77V587.232C210.77 586.347 210.546 585.68 210.098 585.232C209.661 584.773 209.042 584.544 208.242 584.544C207.645 584.544 207.122 584.667 206.674 584.912C206.237 585.147 205.895 585.493 205.65 585.952C205.415 586.4 205.298 586.944 205.298 587.584V592H204.162V583.6H205.25V585.904L205.074 585.472C205.341 584.864 205.767 584.389 206.354 584.048C206.941 583.696 207.639 583.52 208.45 583.52ZM217.231 592.08C216.537 592.08 215.881 591.984 215.263 591.792C214.644 591.589 214.159 591.339 213.807 591.04L214.319 590.144C214.66 590.4 215.097 590.624 215.631 590.816C216.164 590.997 216.724 591.088 217.311 591.088C218.111 591.088 218.687 590.965 219.039 590.72C219.391 590.464 219.567 590.128 219.567 589.712C219.567 589.403 219.465 589.163 219.263 588.992C219.071 588.811 218.815 588.677 218.495 588.592C218.175 588.496 217.817 588.416 217.423 588.352C217.028 588.288 216.633 588.213 216.239 588.128C215.855 588.043 215.503 587.92 215.183 587.76C214.863 587.589 214.601 587.36 214.399 587.072C214.207 586.784 214.111 586.4 214.111 585.92C214.111 585.461 214.239 585.051 214.495 584.688C214.751 584.325 215.124 584.043 215.615 583.84C216.116 583.627 216.724 583.52 217.439 583.52C217.983 583.52 218.527 583.595 219.071 583.744C219.615 583.883 220.063 584.069 220.415 584.304L219.919 585.216C219.545 584.96 219.145 584.779 218.719 584.672C218.292 584.555 217.865 584.496 217.439 584.496C216.681 584.496 216.121 584.629 215.759 584.896C215.407 585.152 215.231 585.483 215.231 585.888C215.231 586.208 215.327 586.459 215.519 586.64C215.721 586.821 215.983 586.965 216.303 587.072C216.633 587.168 216.991 587.248 217.375 587.312C217.769 587.376 218.159 587.456 218.543 587.552C218.937 587.637 219.295 587.76 219.615 587.92C219.945 588.069 220.207 588.288 220.399 588.576C220.601 588.853 220.703 589.221 220.703 589.68C220.703 590.171 220.564 590.597 220.287 590.96C220.02 591.312 219.625 591.589 219.103 591.792C218.591 591.984 217.967 592.08 217.231 592.08ZM229.631 592.08C228.841 592.08 228.233 591.867 227.807 591.44C227.38 591.013 227.167 590.411 227.167 589.632V581.744H228.303V589.568C228.303 590.059 228.425 590.437 228.671 590.704C228.927 590.971 229.289 591.104 229.759 591.104C230.26 591.104 230.676 590.96 231.007 590.672L231.407 591.488C231.183 591.691 230.911 591.84 230.591 591.936C230.281 592.032 229.961 592.08 229.631 592.08ZM225.663 584.544V583.6H230.863V584.544H225.663ZM236.602 592.08C235.791 592.08 235.06 591.899 234.41 591.536C233.77 591.163 233.263 590.656 232.89 590.016C232.516 589.365 232.33 588.624 232.33 587.792C232.33 586.949 232.516 586.208 232.89 585.568C233.263 584.928 233.77 584.427 234.41 584.064C235.05 583.701 235.78 583.52 236.602 583.52C237.434 583.52 238.17 583.701 238.81 584.064C239.46 584.427 239.967 584.928 240.33 585.568C240.703 586.208 240.89 586.949 240.89 587.792C240.89 588.624 240.703 589.365 240.33 590.016C239.967 590.656 239.46 591.163 238.81 591.536C238.159 591.899 237.423 592.08 236.602 592.08ZM236.602 591.072C237.21 591.072 237.748 590.939 238.218 590.672C238.687 590.395 239.055 590.011 239.322 589.52C239.599 589.019 239.738 588.443 239.738 587.792C239.738 587.131 239.599 586.555 239.322 586.064C239.055 585.573 238.687 585.195 238.218 584.928C237.748 584.651 237.215 584.512 236.618 584.512C236.02 584.512 235.487 584.651 235.018 584.928C234.548 585.195 234.175 585.573 233.898 586.064C233.62 586.555 233.482 587.131 233.482 587.792C233.482 588.443 233.62 589.019 233.898 589.52C234.175 590.011 234.548 590.395 235.018 590.672C235.487 590.939 236.015 591.072 236.602 591.072ZM250.741 592.08C249.941 592.08 249.221 591.899 248.581 591.536C247.951 591.173 247.455 590.672 247.093 590.032C246.73 589.381 246.549 588.635 246.549 587.792C246.549 586.939 246.73 586.192 247.093 585.552C247.455 584.912 247.951 584.416 248.581 584.064C249.221 583.701 249.941 583.52 250.741 583.52C251.477 583.52 252.133 583.685 252.709 584.016C253.295 584.347 253.759 584.832 254.101 585.472C254.453 586.101 254.628 586.875 254.628 587.792C254.628 588.699 254.458 589.472 254.117 590.112C253.775 590.752 253.311 591.243 252.725 591.584C252.149 591.915 251.487 592.08 250.741 592.08ZM250.821 591.072C251.418 591.072 251.951 590.939 252.421 590.672C252.901 590.395 253.274 590.011 253.541 589.52C253.818 589.019 253.957 588.443 253.957 587.792C253.957 587.131 253.818 586.555 253.541 586.064C253.274 585.573 252.901 585.195 252.421 584.928C251.951 584.651 251.418 584.512 250.821 584.512C250.234 584.512 249.706 584.651 249.237 584.928C248.767 585.195 248.394 585.573 248.117 586.064C247.839 586.555 247.701 587.131 247.701 587.792C247.701 588.443 247.839 589.019 248.117 589.52C248.394 590.011 248.767 590.395 249.237 590.672C249.706 590.939 250.234 591.072 250.821 591.072ZM253.989 592V589.472L254.101 587.776L253.941 586.08V580.128H255.077V592H253.989ZM261.808 592.08C260.934 592.08 260.166 591.899 259.504 591.536C258.843 591.163 258.326 590.656 257.952 590.016C257.579 589.365 257.392 588.624 257.392 587.792C257.392 586.96 257.568 586.224 257.92 585.584C258.283 584.944 258.774 584.443 259.392 584.08C260.022 583.707 260.726 583.52 261.504 583.52C262.294 583.52 262.992 583.701 263.6 584.064C264.219 584.416 264.704 584.917 265.056 585.568C265.408 586.208 265.584 586.949 265.584 587.792C265.584 587.845 265.579 587.904 265.568 587.968C265.568 588.021 265.568 588.08 265.568 588.144H258.256V587.296H264.96L264.512 587.632C264.512 587.024 264.379 586.485 264.112 586.016C263.856 585.536 263.504 585.163 263.056 584.896C262.608 584.629 262.091 584.496 261.504 584.496C260.928 584.496 260.411 584.629 259.952 584.896C259.494 585.163 259.136 585.536 258.88 586.016C258.624 586.496 258.496 587.045 258.496 587.664V587.84C258.496 588.48 258.635 589.045 258.912 589.536C259.2 590.016 259.595 590.395 260.096 590.672C260.608 590.939 261.19 591.072 261.84 591.072C262.352 591.072 262.827 590.981 263.264 590.8C263.712 590.619 264.096 590.341 264.416 589.968L265.056 590.704C264.683 591.152 264.214 591.493 263.648 591.728C263.094 591.963 262.48 592.08 261.808 592.08ZM270.553 592.08C269.763 592.08 269.155 591.867 268.729 591.44C268.302 591.013 268.089 590.411 268.089 589.632V581.744H269.225V589.568C269.225 590.059 269.347 590.437 269.593 590.704C269.849 590.971 270.211 591.104 270.681 591.104C271.182 591.104 271.598 590.96 271.929 590.672L272.329 591.488C272.105 591.691 271.833 591.84 271.513 591.936C271.203 592.032 270.883 592.08 270.553 592.08ZM266.585 584.544V583.6H271.785V584.544H266.585ZM277.668 592.08C276.793 592.08 276.025 591.899 275.364 591.536C274.702 591.163 274.185 590.656 273.812 590.016C273.438 589.365 273.252 588.624 273.252 587.792C273.252 586.96 273.428 586.224 273.78 585.584C274.142 584.944 274.633 584.443 275.252 584.08C275.881 583.707 276.585 583.52 277.364 583.52C278.153 583.52 278.852 583.701 279.46 584.064C280.078 584.416 280.564 584.917 280.916 585.568C281.268 586.208 281.444 586.949 281.444 587.792C281.444 587.845 281.438 587.904 281.428 587.968C281.428 588.021 281.428 588.08 281.428 588.144H274.116V587.296H280.82L280.372 587.632C280.372 587.024 280.238 586.485 279.972 586.016C279.716 585.536 279.364 585.163 278.916 584.896C278.468 584.629 277.95 584.496 277.364 584.496C276.788 584.496 276.27 584.629 275.812 584.896C275.353 585.163 274.996 585.536 274.74 586.016C274.484 586.496 274.356 587.045 274.356 587.664V587.84C274.356 588.48 274.494 589.045 274.772 589.536C275.06 590.016 275.454 590.395 275.956 590.672C276.468 590.939 277.049 591.072 277.7 591.072C278.212 591.072 278.686 590.981 279.124 590.8C279.572 590.619 279.956 590.341 280.276 589.968L280.916 590.704C280.542 591.152 280.073 591.493 279.508 591.728C278.953 591.963 278.34 592.08 277.668 592.08ZM283.756 592V583.6H284.844V585.888L284.732 585.488C284.967 584.848 285.361 584.363 285.916 584.032C286.471 583.691 287.159 583.52 287.98 583.52V584.624C287.937 584.624 287.895 584.624 287.852 584.624C287.809 584.613 287.767 584.608 287.724 584.608C286.839 584.608 286.145 584.88 285.644 585.424C285.143 585.957 284.892 586.72 284.892 587.712V592H283.756ZM300.549 583.52C301.231 583.52 301.823 583.653 302.325 583.92C302.837 584.176 303.231 584.571 303.509 585.104C303.797 585.637 303.941 586.309 303.941 587.12V592H302.805V587.232C302.805 586.347 302.591 585.68 302.165 585.232C301.749 584.773 301.157 584.544 300.389 584.544C299.813 584.544 299.311 584.667 298.885 584.912C298.469 585.147 298.143 585.493 297.909 585.952C297.685 586.4 297.573 586.944 297.573 587.584V592H296.437V587.232C296.437 586.347 296.223 585.68 295.797 585.232C295.37 584.773 294.773 584.544 294.005 584.544C293.439 584.544 292.943 584.667 292.517 584.912C292.09 585.147 291.759 585.493 291.525 585.952C291.301 586.4 291.189 586.944 291.189 587.584V592H290.053V583.6H291.141V585.872L290.965 585.472C291.221 584.864 291.631 584.389 292.197 584.048C292.773 583.696 293.45 583.52 294.229 583.52C295.05 583.52 295.749 583.728 296.325 584.144C296.901 584.549 297.274 585.163 297.445 585.984L296.997 585.808C297.242 585.125 297.674 584.576 298.293 584.16C298.922 583.733 299.674 583.52 300.549 583.52ZM307.022 592V583.6H308.158V592H307.022ZM307.598 581.744C307.363 581.744 307.166 581.664 307.006 581.504C306.846 581.344 306.766 581.152 306.766 580.928C306.766 580.704 306.846 580.517 307.006 580.368C307.166 580.208 307.363 580.128 307.598 580.128C307.832 580.128 308.03 580.203 308.19 580.352C308.35 580.501 308.43 580.688 308.43 580.912C308.43 581.147 308.35 581.344 308.19 581.504C308.04 581.664 307.843 581.744 307.598 581.744ZM315.606 583.52C316.289 583.52 316.886 583.653 317.398 583.92C317.921 584.176 318.326 584.571 318.614 585.104C318.913 585.637 319.062 586.309 319.062 587.12V592H317.926V587.232C317.926 586.347 317.702 585.68 317.254 585.232C316.817 584.773 316.198 584.544 315.398 584.544C314.801 584.544 314.278 584.667 313.83 584.912C313.393 585.147 313.052 585.493 312.806 585.952C312.572 586.4 312.454 586.944 312.454 587.584V592H311.318V583.6H312.406V585.904L312.23 585.472C312.497 584.864 312.924 584.389 313.51 584.048C314.097 583.696 314.796 583.52 315.606 583.52ZM325.699 592.08C324.824 592.08 324.056 591.899 323.395 591.536C322.734 591.163 322.216 590.656 321.843 590.016C321.47 589.365 321.283 588.624 321.283 587.792C321.283 586.96 321.459 586.224 321.811 585.584C322.174 584.944 322.664 584.443 323.283 584.08C323.912 583.707 324.616 583.52 325.395 583.52C326.184 583.52 326.883 583.701 327.491 584.064C328.11 584.416 328.595 584.917 328.947 585.568C329.299 586.208 329.475 586.949 329.475 587.792C329.475 587.845 329.47 587.904 329.459 587.968C329.459 588.021 329.459 588.08 329.459 588.144H322.147V587.296H328.851L328.403 587.632C328.403 587.024 328.27 586.485 328.003 586.016C327.747 585.536 327.395 585.163 326.947 584.896C326.499 584.629 325.982 584.496 325.395 584.496C324.819 584.496 324.302 584.629 323.843 584.896C323.384 585.163 323.027 585.536 322.771 586.016C322.515 586.496 322.387 587.045 322.387 587.664V587.84C322.387 588.48 322.526 589.045 322.803 589.536C323.091 590.016 323.486 590.395 323.987 590.672C324.499 590.939 325.08 591.072 325.731 591.072C326.243 591.072 326.718 590.981 327.155 590.8C327.603 590.619 327.987 590.341 328.307 589.968L328.947 590.704C328.574 591.152 328.104 591.493 327.539 591.728C326.984 591.963 326.371 592.08 325.699 592.08ZM36.24 612.08C35.4507 612.08 34.8427 611.867 34.416 611.44C33.9893 611.013 33.776 610.411 33.776 609.632V601.744H34.912V609.568C34.912 610.059 35.0347 610.437 35.28 610.704C35.536 610.971 35.8987 611.104 36.368 611.104C36.8693 611.104 37.2853 610.96 37.616 610.672L38.016 611.488C37.792 611.691 37.52 611.84 37.2 611.936C36.8907 612.032 36.5707 612.08 36.24 612.08ZM32.272 604.544V603.6H37.472V604.544H32.272ZM44.372 603.52C45.0547 603.52 45.652 603.653 46.164 603.92C46.6867 604.176 47.092 604.571 47.38 605.104C47.6787 605.637 47.828 606.309 47.828 607.12V612H46.692V607.232C46.692 606.347 46.468 605.68 46.02 605.232C45.5827 604.773 44.964 604.544 44.164 604.544C43.5667 604.544 43.044 604.667 42.596 604.912C42.1587 605.147 41.8173 605.493 41.572 605.952C41.3373 606.4 41.22 606.944 41.22 607.584V612H40.084V600.128H41.22V605.904L40.996 605.472C41.2627 604.864 41.6893 604.389 42.276 604.048C42.8627 603.696 43.5613 603.52 44.372 603.52ZM54.4645 612.08C53.5898 612.08 52.8218 611.899 52.1605 611.536C51.4992 611.163 50.9818 610.656 50.6085 610.016C50.2352 609.365 50.0485 608.624 50.0485 607.792C50.0485 606.96 50.2245 606.224 50.5765 605.584C50.9392 604.944 51.4298 604.443 52.0485 604.08C52.6778 603.707 53.3818 603.52 54.1605 603.52C54.9498 603.52 55.6485 603.701 56.2565 604.064C56.8752 604.416 57.3605 604.917 57.7125 605.568C58.0645 606.208 58.2405 606.949 58.2405 607.792C58.2405 607.845 58.2352 607.904 58.2245 607.968C58.2245 608.021 58.2245 608.08 58.2245 608.144H50.9125V607.296H57.6165L57.1685 607.632C57.1685 607.024 57.0352 606.485 56.7685 606.016C56.5125 605.536 56.1605 605.163 55.7125 604.896C55.2645 604.629 54.7472 604.496 54.1605 604.496C53.5845 604.496 53.0672 604.629 52.6085 604.896C52.1498 605.163 51.7925 605.536 51.5365 606.016C51.2805 606.496 51.1525 607.045 51.1525 607.664V607.84C51.1525 608.48 51.2912 609.045 51.5685 609.536C51.8565 610.016 52.2512 610.395 52.7525 610.672C53.2645 610.939 53.8458 611.072 54.4965 611.072C55.0085 611.072 55.4832 610.981 55.9205 610.8C56.3685 610.619 56.7525 610.341 57.0725 609.968L57.7125 610.704C57.3392 611.152 56.8698 611.493 56.3045 611.728C55.7498 611.963 55.1365 612.08 54.4645 612.08ZM67.3963 612.08C66.6069 612.08 65.9989 611.867 65.5723 611.44C65.1456 611.013 64.9323 610.411 64.9323 609.632V601.744H66.0683V609.568C66.0683 610.059 66.1909 610.437 66.4363 610.704C66.6923 610.971 67.0549 611.104 67.5243 611.104C68.0256 611.104 68.4416 610.96 68.7723 610.672L69.1723 611.488C68.9483 611.691 68.6763 611.84 68.3563 611.936C68.0469 612.032 67.7269 612.08 67.3963 612.08ZM63.4283 604.544V603.6H68.6283V604.544H63.4283ZM71.148 615.184C70.7533 615.184 70.3747 615.12 70.012 614.992C69.66 614.864 69.356 614.672 69.1 614.416L69.628 613.568C69.8413 613.771 70.0707 613.925 70.316 614.032C70.572 614.149 70.8547 614.208 71.164 614.208C71.5373 614.208 71.8573 614.101 72.124 613.888C72.4013 613.685 72.6627 613.323 72.908 612.8L73.452 611.568L73.58 611.392L77.036 603.6H78.156L73.948 613.008C73.7133 613.552 73.452 613.984 73.164 614.304C72.8867 614.624 72.5827 614.848 72.252 614.976C71.9213 615.115 71.5533 615.184 71.148 615.184ZM73.388 612.24L69.516 603.6H70.7L74.124 611.312L73.388 612.24ZM84.0919 612.08C83.3665 612.08 82.7105 611.915 82.1239 611.584C81.5372 611.243 81.0679 610.757 80.7159 610.128C80.3745 609.488 80.2039 608.709 80.2039 607.792C80.2039 606.875 80.3745 606.101 80.7159 605.472C81.0572 604.832 81.5212 604.347 82.1079 604.016C82.6945 603.685 83.3559 603.52 84.0919 603.52C84.8919 603.52 85.6065 603.701 86.2359 604.064C86.8759 604.416 87.3772 604.917 87.7399 605.568C88.1025 606.208 88.2839 606.949 88.2839 607.792C88.2839 608.645 88.1025 609.392 87.7399 610.032C87.3772 610.672 86.8759 611.173 86.2359 611.536C85.6065 611.899 84.8919 612.08 84.0919 612.08ZM79.7559 615.104V603.6H80.8439V606.128L80.7319 607.808L80.8919 609.504V615.104H79.7559ZM84.0119 611.072C84.6092 611.072 85.1425 610.939 85.6119 610.672C86.0812 610.395 86.4545 610.011 86.7319 609.52C87.0092 609.019 87.1479 608.443 87.1479 607.792C87.1479 607.141 87.0092 606.571 86.7319 606.08C86.4545 605.589 86.0812 605.205 85.6119 604.928C85.1425 604.651 84.6092 604.512 84.0119 604.512C83.4145 604.512 82.8759 604.651 82.3959 604.928C81.9265 605.205 81.5532 605.589 81.2759 606.08C81.0092 606.571 80.8759 607.141 80.8759 607.792C80.8759 608.443 81.0092 609.019 81.2759 609.52C81.5532 610.011 81.9265 610.395 82.3959 610.672C82.8759 610.939 83.4145 611.072 84.0119 611.072ZM94.1676 612.08C93.293 612.08 92.525 611.899 91.8636 611.536C91.2023 611.163 90.685 610.656 90.3116 610.016C89.9383 609.365 89.7516 608.624 89.7516 607.792C89.7516 606.96 89.9276 606.224 90.2796 605.584C90.6423 604.944 91.133 604.443 91.7516 604.08C92.381 603.707 93.085 603.52 93.8636 603.52C94.653 603.52 95.3516 603.701 95.9596 604.064C96.5783 604.416 97.0636 604.917 97.4156 605.568C97.7676 606.208 97.9436 606.949 97.9436 607.792C97.9436 607.845 97.9383 607.904 97.9276 607.968C97.9276 608.021 97.9276 608.08 97.9276 608.144H90.6156V607.296H97.3196L96.8716 607.632C96.8716 607.024 96.7383 606.485 96.4716 606.016C96.2156 605.536 95.8636 605.163 95.4156 604.896C94.9676 604.629 94.4503 604.496 93.8636 604.496C93.2876 604.496 92.7703 604.629 92.3116 604.896C91.853 605.163 91.4956 605.536 91.2396 606.016C90.9836 606.496 90.8556 607.045 90.8556 607.664V607.84C90.8556 608.48 90.9943 609.045 91.2716 609.536C91.5596 610.016 91.9543 610.395 92.4556 610.672C92.9676 610.939 93.549 611.072 94.1996 611.072C94.7116 611.072 95.1863 610.981 95.6236 610.8C96.0716 610.619 96.4556 610.341 96.7756 609.968L97.4156 610.704C97.0423 611.152 96.573 611.493 96.0076 611.728C95.453 611.963 94.8396 612.08 94.1676 612.08ZM107.867 612.08C107.057 612.08 106.326 611.899 105.675 611.536C105.035 611.163 104.529 610.656 104.155 610.016C103.782 609.365 103.595 608.624 103.595 607.792C103.595 606.949 103.782 606.208 104.155 605.568C104.529 604.928 105.035 604.427 105.675 604.064C106.315 603.701 107.046 603.52 107.867 603.52C108.699 603.52 109.435 603.701 110.075 604.064C110.726 604.427 111.233 604.928 111.595 605.568C111.969 606.208 112.155 606.949 112.155 607.792C112.155 608.624 111.969 609.365 111.595 610.016C111.233 610.656 110.726 611.163 110.075 611.536C109.425 611.899 108.689 612.08 107.867 612.08ZM107.867 611.072C108.475 611.072 109.014 610.939 109.483 610.672C109.953 610.395 110.321 610.011 110.587 609.52C110.865 609.019 111.003 608.443 111.003 607.792C111.003 607.131 110.865 606.555 110.587 606.064C110.321 605.573 109.953 605.195 109.483 604.928C109.014 604.651 108.481 604.512 107.883 604.512C107.286 604.512 106.753 604.651 106.283 604.928C105.814 605.195 105.441 605.573 105.163 606.064C104.886 606.555 104.747 607.131 104.747 607.792C104.747 608.443 104.886 609.019 105.163 609.52C105.441 610.011 105.814 610.395 106.283 610.672C106.753 610.939 107.281 611.072 107.867 611.072ZM114.667 612V602.544C114.667 601.797 114.885 601.195 115.323 600.736C115.76 600.277 116.389 600.048 117.211 600.048C117.531 600.048 117.84 600.091 118.139 600.176C118.437 600.261 118.688 600.395 118.891 600.576L118.507 601.424C118.347 601.285 118.16 601.184 117.947 601.12C117.733 601.045 117.504 601.008 117.259 601.008C116.779 601.008 116.411 601.141 116.155 601.408C115.899 601.675 115.771 602.069 115.771 602.592V603.872L115.803 604.4V612H114.667ZM113.163 604.544V603.6H118.363V604.544H113.163ZM125.796 612L122.628 603.6H123.716L126.596 611.392H126.1L129.06 603.6H130.036L132.964 611.392H132.468L135.396 603.6H136.436L133.252 612H132.18L129.364 604.672H129.7L126.868 612H125.796ZM143.161 612V610.144L143.113 609.84V606.736C143.113 606.021 142.91 605.472 142.505 605.088C142.11 604.704 141.518 604.512 140.729 604.512C140.185 604.512 139.667 604.603 139.177 604.784C138.686 604.965 138.27 605.205 137.929 605.504L137.417 604.656C137.843 604.293 138.355 604.016 138.953 603.824C139.55 603.621 140.179 603.52 140.841 603.52C141.929 603.52 142.766 603.792 143.353 604.336C143.95 604.869 144.249 605.685 144.249 606.784V612H143.161ZM140.265 612.08C139.635 612.08 139.086 611.979 138.617 611.776C138.158 611.563 137.806 611.275 137.561 610.912C137.315 610.539 137.193 610.112 137.193 609.632C137.193 609.195 137.294 608.8 137.497 608.448C137.71 608.085 138.051 607.797 138.521 607.584C139.001 607.36 139.641 607.248 140.441 607.248H143.337V608.096H140.473C139.662 608.096 139.097 608.24 138.777 608.528C138.467 608.816 138.312 609.173 138.312 609.6C138.312 610.08 138.499 610.464 138.873 610.752C139.246 611.04 139.769 611.184 140.441 611.184C141.081 611.184 141.63 611.04 142.089 610.752C142.558 610.453 142.899 610.027 143.113 609.472L143.369 610.256C143.155 610.811 142.782 611.253 142.249 611.584C141.726 611.915 141.065 612.08 140.265 612.08ZM147.334 612V600.128H148.47V612H147.334ZM151.631 612V600.128H152.767V612H151.631ZM159.496 612.08C158.621 612.08 157.853 611.899 157.192 611.536C156.53 611.163 156.013 610.656 155.64 610.016C155.266 609.365 155.08 608.624 155.08 607.792C155.08 606.96 155.256 606.224 155.608 605.584C155.97 604.944 156.461 604.443 157.08 604.08C157.709 603.707 158.413 603.52 159.192 603.52C159.981 603.52 160.68 603.701 161.288 604.064C161.906 604.416 162.392 604.917 162.744 605.568C163.096 606.208 163.272 606.949 163.272 607.792C163.272 607.845 163.266 607.904 163.256 607.968C163.256 608.021 163.256 608.08 163.256 608.144H155.944V607.296H162.648L162.2 607.632C162.2 607.024 162.066 606.485 161.8 606.016C161.544 605.536 161.192 605.163 160.744 604.896C160.296 604.629 159.778 604.496 159.192 604.496C158.616 604.496 158.098 604.629 157.64 604.896C157.181 605.163 156.824 605.536 156.568 606.016C156.312 606.496 156.184 607.045 156.184 607.664V607.84C156.184 608.48 156.322 609.045 156.6 609.536C156.888 610.016 157.282 610.395 157.784 610.672C158.296 610.939 158.877 611.072 159.528 611.072C160.04 611.072 160.514 610.981 160.952 610.8C161.4 610.619 161.784 610.341 162.104 609.968L162.744 610.704C162.37 611.152 161.901 611.493 161.336 611.728C160.781 611.963 160.168 612.08 159.496 612.08ZM168.24 612.08C167.451 612.08 166.843 611.867 166.416 611.44C165.989 611.013 165.776 610.411 165.776 609.632V601.744H166.912V609.568C166.912 610.059 167.035 610.437 167.28 610.704C167.536 610.971 167.899 611.104 168.368 611.104C168.869 611.104 169.285 610.96 169.616 610.672L170.016 611.488C169.792 611.691 169.52 611.84 169.2 611.936C168.891 612.032 168.571 612.08 168.24 612.08ZM164.272 604.544V603.6H169.472V604.544H164.272ZM176.336 615.184C175.941 615.184 175.562 615.12 175.2 614.992C174.848 614.864 174.543 614.672 174.287 614.416L174.816 613.568C175.029 613.771 175.258 613.925 175.504 614.032C175.76 614.149 176.042 614.208 176.352 614.208C176.725 614.208 177.045 614.101 177.312 613.888C177.589 613.685 177.85 613.323 178.096 612.8L178.64 611.568L178.768 611.392L182.224 603.6H183.344L179.136 613.008C178.901 613.552 178.64 613.984 178.352 614.304C178.074 614.624 177.77 614.848 177.44 614.976C177.109 615.115 176.741 615.184 176.336 615.184ZM178.576 612.24L174.704 603.6H175.888L179.312 611.312L178.576 612.24ZM188.133 612.08C187.322 612.08 186.592 611.899 185.941 611.536C185.301 611.163 184.794 610.656 184.421 610.016C184.048 609.365 183.861 608.624 183.861 607.792C183.861 606.949 184.048 606.208 184.421 605.568C184.794 604.928 185.301 604.427 185.941 604.064C186.581 603.701 187.312 603.52 188.133 603.52C188.965 603.52 189.701 603.701 190.341 604.064C190.992 604.427 191.498 604.928 191.861 605.568C192.234 606.208 192.421 606.949 192.421 607.792C192.421 608.624 192.234 609.365 191.861 610.016C191.498 610.656 190.992 611.163 190.341 611.536C189.69 611.899 188.954 612.08 188.133 612.08ZM188.133 611.072C188.741 611.072 189.28 610.939 189.749 610.672C190.218 610.395 190.586 610.011 190.853 609.52C191.13 609.019 191.269 608.443 191.269 607.792C191.269 607.131 191.13 606.555 190.853 606.064C190.586 605.573 190.218 605.195 189.749 604.928C189.28 604.651 188.746 604.512 188.149 604.512C187.552 604.512 187.018 604.651 186.549 604.928C186.08 605.195 185.706 605.573 185.429 606.064C185.152 606.555 185.013 607.131 185.013 607.792C185.013 608.443 185.152 609.019 185.429 609.52C185.706 610.011 186.08 610.395 186.549 610.672C187.018 610.939 187.546 611.072 188.133 611.072ZM198.212 612.08C197.498 612.08 196.874 611.947 196.34 611.68C195.807 611.413 195.391 611.013 195.092 610.48C194.804 609.947 194.66 609.28 194.66 608.48V603.6H195.796V608.352C195.796 609.248 196.015 609.925 196.452 610.384C196.9 610.832 197.524 611.056 198.324 611.056C198.911 611.056 199.418 610.939 199.844 610.704C200.282 610.459 200.612 610.107 200.836 609.648C201.071 609.189 201.188 608.64 201.188 608V603.6H202.324V612H201.236V609.696L201.412 610.112C201.146 610.731 200.73 611.216 200.164 611.568C199.61 611.909 198.959 612.08 198.212 612.08ZM213.966 603.52C214.648 603.52 215.246 603.653 215.758 603.92C216.28 604.176 216.686 604.571 216.974 605.104C217.272 605.637 217.422 606.309 217.422 607.12V612H216.286V607.232C216.286 606.347 216.062 605.68 215.614 605.232C215.176 604.773 214.558 604.544 213.758 604.544C213.16 604.544 212.638 604.667 212.19 604.912C211.752 605.147 211.411 605.493 211.166 605.952C210.931 606.4 210.814 606.944 210.814 607.584V612H209.678V600.128H210.814V605.904L210.59 605.472C210.856 604.864 211.283 604.389 211.87 604.048C212.456 603.696 213.155 603.52 213.966 603.52ZM225.754 612V610.144L225.706 609.84V606.736C225.706 606.021 225.504 605.472 225.098 605.088C224.704 604.704 224.112 604.512 223.322 604.512C222.778 604.512 222.261 604.603 221.77 604.784C221.28 604.965 220.864 605.205 220.522 605.504L220.01 604.656C220.437 604.293 220.949 604.016 221.546 603.824C222.144 603.621 222.773 603.52 223.434 603.52C224.522 603.52 225.36 603.792 225.946 604.336C226.544 604.869 226.842 605.685 226.842 606.784V612H225.754ZM222.858 612.08C222.229 612.08 221.68 611.979 221.21 611.776C220.752 611.563 220.4 611.275 220.154 610.912C219.909 610.539 219.786 610.112 219.786 609.632C219.786 609.195 219.888 608.8 220.09 608.448C220.304 608.085 220.645 607.797 221.114 607.584C221.594 607.36 222.234 607.248 223.034 607.248H225.93V608.096H223.066C222.256 608.096 221.69 608.24 221.37 608.528C221.061 608.816 220.906 609.173 220.906 609.6C220.906 610.08 221.093 610.464 221.466 610.752C221.84 611.04 222.362 611.184 223.034 611.184C223.674 611.184 224.224 611.04 224.682 610.752C225.152 610.453 225.493 610.027 225.706 609.472L225.962 610.256C225.749 610.811 225.376 611.253 224.842 611.584C224.32 611.915 223.658 612.08 222.858 612.08ZM231.932 612L228.204 603.6H229.388L232.812 611.392H232.252L235.724 603.6H236.844L233.1 612H231.932ZM241.777 612.08C240.902 612.08 240.134 611.899 239.473 611.536C238.812 611.163 238.294 610.656 237.921 610.016C237.548 609.365 237.361 608.624 237.361 607.792C237.361 606.96 237.537 606.224 237.889 605.584C238.252 604.944 238.742 604.443 239.361 604.08C239.99 603.707 240.694 603.52 241.473 603.52C242.262 603.52 242.961 603.701 243.569 604.064C244.188 604.416 244.673 604.917 245.025 605.568C245.377 606.208 245.553 606.949 245.553 607.792C245.553 607.845 245.548 607.904 245.537 607.968C245.537 608.021 245.537 608.08 245.537 608.144H238.225V607.296H244.929L244.481 607.632C244.481 607.024 244.348 606.485 244.081 606.016C243.825 605.536 243.473 605.163 243.025 604.896C242.577 604.629 242.06 604.496 241.473 604.496C240.897 604.496 240.38 604.629 239.921 604.896C239.462 605.163 239.105 605.536 238.849 606.016C238.593 606.496 238.465 607.045 238.465 607.664V607.84C238.465 608.48 238.604 609.045 238.881 609.536C239.169 610.016 239.564 610.395 240.065 610.672C240.577 610.939 241.158 611.072 241.809 611.072C242.321 611.072 242.796 610.981 243.233 610.8C243.681 610.619 244.065 610.341 244.385 609.968L245.025 610.704C244.652 611.152 244.182 611.493 243.617 611.728C243.062 611.963 242.449 612.08 241.777 612.08ZM247.977 612.08C247.743 612.08 247.54 611.995 247.369 611.824C247.209 611.653 247.129 611.445 247.129 611.2C247.129 610.944 247.209 610.736 247.369 610.576C247.54 610.416 247.743 610.336 247.977 610.336C248.212 610.336 248.409 610.416 248.569 610.576C248.74 610.736 248.825 610.944 248.825 611.2C248.825 611.445 248.74 611.653 248.569 611.824C248.409 611.995 248.212 612.08 247.977 612.08Z" fill="black"/>
</g>
<defs>
<filter id="filter0_d_46_1252" x="0" y="0" width="414" height="868" filterUnits="userSpaceOnUse" color-interpolation-filters="sRGB">
<feFlood flood-opacity="0" result="BackgroundImageFix"/>
<feColorMatrix in="SourceAlpha" type="matrix" values="0 0 0 0 0 0 0 0 0 0 0 0 0 0 0 0 0 0 127 0" result="hardAlpha"/>
<feOffset dx="4" dy="8"/>
<feGaussianBlur stdDeviation="6"/>
<feComposite in2="hardAlpha" operator="out"/>
<feColorMatrix type="matrix" values="0 0 0 0 0 0 0 0 0 0 0 0 0 0 0 0 0 0 0.25 0"/>
<feBlend mode="normal" in2="BackgroundImageFix" result="effect1_dropShadow_46_1252"/>
<feBlend mode="normal" in="SourceGraphic" in2="effect1_dropShadow_46_1252" result="shape"/>
</filter>
</defs>
</svg>
